<svg width="663" height="74" viewBox="0 0 663 74" fill="none" xmlns="http://www.w3.org/2000/svg">
<g clip-path="url(#clip0_283_5380)">
<path d="M594.813 74.1156C594.455 73.9365 594.186 73.399 594.097 73.0407C594.007 72.5929 593.828 69.9952 593.828 69.5474V67.6663C594.186 63.6355 598.934 65.9644 600.188 62.8293C601.442 59.6943 600.277 56.2009 600.009 53.0658C599.83 51.6327 600.009 50.4682 600.457 49.2142C600.725 48.408 602.069 45.1833 602.338 44.5563C603.323 41.9587 607.712 40.8838 609.951 39.7194C610.847 39.1819 610.041 38.2862 609.414 38.107L606.637 37.3904C604.756 36.853 602.517 36.0468 601.8 34.0762C601.084 32.2848 600.188 30.0454 600.457 28.1644L601.531 24.044C601.89 22.6108 601.89 21.088 602.338 19.6549C602.965 17.2364 605.294 14.9075 606.906 13.2056L609.683 10.4288C609.862 10.2497 610.668 9.89136 610.758 9.89136H634.674L636.734 10.4288L643.452 11.235C643.9 11.3245 648.289 12.0411 648.826 12.2203C649.991 12.3994 652.141 12.2203 652.588 13.743C652.678 14.37 652.678 17.2364 652.588 17.8634C652.499 19.3862 651.872 26.4625 651.603 27.8956C651.424 31.2994 643.362 29.2392 643.183 32.7326C643.094 34.7928 642.646 43.8397 642.646 45.8999C642.556 46.6165 642.556 50.0203 642.646 50.7369C642.646 51.4535 643.183 51.9014 643.631 52.3492C645.602 53.7824 649.364 52.1701 648.826 55.8426L647.214 64.8895C647.035 65.7853 646.318 66.3227 645.423 66.4123C643.721 66.681 641.302 66.7706 639.511 66.681C639.242 66.681 637.003 66.4123 636.734 66.4123C634.495 66.4123 624.283 66.2331 622.044 66.1436C621.058 65.8748 620.7 64.9791 620.7 64.0834C620.79 62.0232 620.969 56.4696 620.969 56.1113C621.059 54.2303 621.058 52.9762 622.581 51.8118C622.671 51.7222 623.029 51.5431 623.119 51.5431L627.687 50.4682C629.21 50.1099 629.12 48.3184 629.031 47.154C629.031 46.6165 628.851 43.6606 628.762 43.0336C628.583 42.8544 628.045 42.2274 627.687 42.2274H623.567C623.477 42.2274 623.029 42.4961 622.85 42.4961L621.238 43.3023C620.7 43.7502 618.371 45.2729 617.923 45.6312C617.476 45.9895 616.401 46.7957 616.401 47.6914V63.6355C616.401 64.7104 615.774 66.7706 615.057 67.6663C614.968 67.935 613.176 70.1744 612.549 71.0701C612.191 71.518 611.564 71.8763 611.026 72.0554C609.145 72.8616 607.533 73.6678 605.652 74.1156H598.128C597.232 74.1156 595.799 74.7426 594.813 74.1156ZM605.383 67.6663C605.383 67.7559 605.383 67.935 605.383 67.935C606.368 68.4725 605.831 65.6061 606.637 65.427C606.189 65.2478 606.279 64.5312 606.368 64.3521H605.652C605.562 64.2625 605.383 63.9938 605.383 63.9042C604.935 61.9336 607.533 63.7251 607.175 66.1436L607.712 65.1583C607.712 65.0687 607.891 65.0687 607.981 65.1583C607.981 65.1583 608.429 65.6061 608.518 65.6061C608.608 65.6957 609.504 65.6957 609.683 65.6061C610.31 65.5166 609.772 64.4417 609.683 64.3521C609.683 64.2625 609.683 64.0834 609.683 64.0834C610.22 63.9938 610.668 64.8 611.026 64.6208C611.832 64.0834 611.743 62.9189 612.549 62.2919L612.012 61.7545C612.012 61.7545 611.832 61.217 611.743 61.217H610.758C611.026 61.217 611.116 61.0379 611.026 60.7692C610.489 59.2464 608.877 60.2317 609.145 60.7692L609.683 60.5004L608.876 61.217C608.876 61.217 608.787 60.6796 608.697 60.5004C608.697 60.5004 608.518 60.0526 608.518 59.963C608.518 59.5151 609.772 58.7985 609.951 58.4402C610.041 58.3507 610.22 57.6341 610.22 57.4549H610.758V57.7236H611.564C611.832 57.0966 609.862 56.8279 609.414 56.6488C609.862 56.1113 610.578 55.9322 611.026 55.3947L610.489 54.8573C609.772 54.499 609.862 55.3947 609.414 55.5739C609.772 55.126 608.876 54.5886 608.697 54.3199C608.518 53.9616 609.235 53.6928 609.414 53.7824C609.503 53.872 609.862 54.3199 609.951 54.3199C610.13 54.3199 610.668 53.9616 610.758 53.7824C610.847 53.7824 610.847 53.4241 610.758 53.3345C610.668 53.1554 610.399 52.8867 610.22 53.0658C609.951 52.7075 610.847 52.5284 611.026 52.3492C610.489 52.0805 610.31 51.5431 610.489 51.0056C609.951 50.6473 608.966 51.9014 608.518 52.3492C608.429 52.3492 608.249 52.5284 608.249 52.5284C608.16 52.618 607.981 53.245 607.981 53.3345C607.891 53.3345 607.712 53.7824 607.712 53.7824C607.622 53.6928 607.354 53.4241 607.175 53.6033V53.3345C606.995 53.1554 605.921 53.9616 605.652 54.0511C605.562 54.1407 605.204 54.3199 605.114 54.3199C604.667 53.5137 605.562 53.1554 606.1 53.3345C606.368 52.9763 607.891 51.5431 608.249 51.2744C608.429 51.0952 609.145 51.0056 608.876 50.4682C608.876 50.289 608.608 49.5724 608.518 49.4829C608.16 49.3933 607.891 49.8412 607.175 49.662C607.175 49.7516 607.175 49.9308 607.175 49.9308C607.443 50.8265 607.622 50.4682 606.906 51.0056C606.279 51.3639 607.085 51.5431 606.906 52.0805C606.279 52.1701 605.294 52.5284 604.846 53.0658C604.846 53.0658 604.667 53.7824 604.577 53.7824C604.577 53.872 604.398 53.872 604.308 53.7824C604.308 53.7824 604.129 53.3345 604.039 53.3345C604.039 53.245 603.86 53.0658 603.771 53.0658C602.785 54.0511 603.592 55.5739 604.039 54.5886C604.219 55.126 604.487 54.6782 604.846 54.8573C605.025 54.9469 605.562 55.3947 605.383 55.5739C605.383 55.6635 605.114 55.8426 605.114 55.8426C605.114 56.2905 606.1 56.9175 605.921 57.1862C605.831 57.1862 605.473 57.3654 605.383 57.4549C605.294 57.5445 605.114 57.9028 605.114 57.9924C605.114 57.9028 604.667 57.7236 604.577 57.7236C604.487 57.7236 604.129 58.0819 604.039 58.2611C604.129 58.2611 604.308 58.3507 604.308 58.4402V59.5151C604.398 59.5151 605.114 59.8734 605.114 59.963C605.204 60.1421 605.025 60.5004 604.846 60.5004C605.025 60.6796 605.383 60.8587 605.652 60.7692C605.652 60.59 605.921 59.8734 606.1 59.6943C606.637 59.2464 607.264 60.5004 606.637 60.7692C606.548 60.8587 605.921 60.9483 605.921 61.0379C605.831 61.217 605.652 62.2023 605.652 62.2919C605.473 62.7398 604.398 62.8293 604.039 63.3668L603.771 63.0981C603.681 63.2772 603.144 63.9042 603.233 64.0834C603.413 64.0834 604.577 63.6355 604.846 63.9042C605.025 64.0834 605.204 64.7104 605.114 64.8895C605.114 64.8895 604.398 65.2478 604.039 65.427C604.039 65.427 603.86 65.427 603.771 65.427C603.771 65.3374 603.323 65.0687 603.233 65.1583C603.144 65.1583 602.875 65.5166 602.785 65.6061C604.308 65.8749 602.785 67.6663 603.502 67.6663C603.95 67.1289 603.592 66.681 604.039 66.1436C604.846 66.3227 604.667 66.7706 604.308 67.1289C604.846 67.308 605.204 66.8602 605.652 66.9497C605.652 66.9497 605.652 67.308 605.652 67.3976C605.652 67.4872 605.383 67.6663 605.383 67.6663ZM602.785 67.1289C602.606 67.1289 602.606 67.6663 602.785 67.6663C603.054 67.6663 603.054 67.1289 602.785 67.1289ZM607.981 66.681C607.891 66.7706 607.891 67.0393 607.981 67.1289C608.608 67.4872 608.518 66.3227 608.518 66.1436C608.339 66.2331 607.981 66.5914 607.981 66.681ZM602.785 66.1436C602.606 66.1436 602.606 66.681 602.785 66.681C603.054 66.681 603.054 66.1436 602.785 66.1436ZM605.383 65.8748H605.652V66.1436L605.383 65.8748ZM611.026 65.1583C610.758 65.1583 610.758 65.6061 611.026 65.6061C611.295 65.6061 611.295 65.1583 611.026 65.1583ZM603.233 64.3521C603.054 64.3521 603.054 64.8895 603.233 64.8895C603.502 64.8895 603.502 64.3521 603.233 64.3521ZM607.981 63.6355C608.429 63.9042 608.16 64.2625 607.981 64.6208V63.6355ZM610.489 63.3668C610.758 63.3668 610.758 63.9042 610.489 63.9042C610.22 63.9042 610.22 63.3668 610.489 63.3668ZM608.249 63.0981H608.876C608.787 63.4564 608.429 63.4564 608.249 63.0981ZM607.443 62.8293C607.712 62.8293 607.712 63.3668 607.443 63.3668C607.175 63.3668 607.175 62.8293 607.443 62.8293ZM609.683 62.8293C609.772 62.3815 610.041 61.844 610.22 61.4857L610.489 61.7545L609.951 62.8293L610.489 63.0981H609.683C609.683 63.0085 609.683 62.8293 609.683 62.8293ZM607.443 62.2919C607.712 62.2919 607.712 62.8293 607.443 62.8293C607.175 62.8293 607.175 62.2919 607.443 62.2919ZM611.026 62.0232H611.564V62.2919H611.026V62.0232ZM604.577 61.7545L604.308 62.0232H604.577V61.7545ZM607.175 61.4857V61.0379C607.443 60.7691 607.981 61.5753 607.443 62.0232C607.354 61.9336 607.175 61.5753 607.175 61.4857ZM603.771 61.0379V61.217H604.039V61.0379H603.771ZM611.026 58.9777C611.026 58.9777 611.026 59.4256 611.026 59.5151H611.743C611.922 58.8881 611.295 58.3507 611.026 58.9777ZM606.906 58.4402C607.175 58.3507 607.533 58.6194 607.443 58.9777C607.354 58.9777 607.175 58.9777 607.175 58.9777C607.085 58.8881 606.906 58.5298 606.906 58.4402ZM610.758 58.2611C610.847 58.0819 610.489 58.0819 610.489 58.2611C610.578 58.3507 610.758 58.3507 610.758 58.2611ZM603.771 57.7236C603.502 57.7236 603.502 58.2611 603.771 58.2611C604.04 58.2611 604.04 57.7236 603.771 57.7236ZM608.518 57.1862C608.518 57.0071 608.876 56.6488 608.876 56.6488C609.056 56.7383 609.235 57.0966 609.145 57.1862C609.145 57.2758 608.876 57.6341 608.697 57.7236C608.608 57.6341 608.429 57.2758 608.518 57.1862ZM604.308 56.9175V57.4549C604.487 57.4549 605.025 57.2758 605.114 57.1862C605.204 57.0966 605.204 56.9175 605.114 56.9175H604.308ZM631.091 56.9175C630.822 56.9175 630.822 57.4549 631.091 57.4549C631.359 57.4549 631.359 56.9175 631.091 56.9175ZM634.942 56.9175C634.674 56.9175 634.674 57.4549 634.942 57.4549C635.122 57.4549 635.122 56.9175 634.942 56.9175ZM630.016 56.1113C629.747 56.1113 629.747 56.6488 630.016 56.6488C630.285 56.6488 630.285 56.1113 630.016 56.1113ZM633.868 56.1113C633.599 56.1113 633.599 56.6488 633.868 56.6488C634.136 56.6488 634.136 56.1113 633.868 56.1113ZM608.876 56.1113C608.876 56.2905 608.787 56.2905 608.697 56.1113C608.697 55.9322 608.966 55.9322 608.876 56.1113ZM612.012 55.8426C611.743 55.8426 611.743 56.3801 612.012 56.3801C612.28 56.3801 612.28 55.8426 612.012 55.8426ZM631.359 55.3947C631.27 55.3947 631.27 55.5739 631.359 55.5739H632.076C632.076 55.2156 631.628 54.8573 631.359 55.3947ZM632.793 55.126C632.793 55.126 632.613 55.3947 632.524 55.3947C632.793 55.3947 633.241 55.3947 633.33 55.126H632.793ZM611.295 54.3199C611.205 54.2303 610.847 54.5886 611.026 54.5886C611.205 54.6781 611.385 54.499 611.295 54.3199ZM633.868 53.7824V54.0511H634.136L633.868 53.7824ZM633.061 52.7971C632.793 52.7971 632.793 53.3345 633.061 53.3345C633.33 53.3345 633.33 52.7971 633.061 52.7971ZM633.599 52.5284C633.33 52.5284 633.33 53.0658 633.599 53.0658C633.868 53.0658 633.868 52.5284 633.599 52.5284ZM633.33 52.3492C633.061 52.3492 633.061 52.7971 633.33 52.7971C633.599 52.7971 633.599 52.3492 633.33 52.3492ZM609.414 52.0805L609.683 51.8118V52.3492L609.414 52.0805ZM633.061 52.0805C632.793 52.0805 632.793 52.5284 633.061 52.5284C633.33 52.5284 633.33 52.0805 633.061 52.0805ZM635.39 52.0805L635.659 52.3492V52.0805H635.39ZM604.846 50.7369L604.577 51.2744H604.846V50.7369ZM635.928 50.4682L636.465 51.0056V49.4829C636.196 49.5724 635.749 50.1995 635.928 50.4682ZM634.136 49.4829V50.7369H635.39C635.032 50.1995 634.226 50.1995 634.136 49.4829ZM606.368 50.1995C606.189 50.1995 606.189 50.4682 606.368 50.4682C606.548 50.4682 606.548 50.289 606.368 50.1995ZM603.771 49.9308C603.502 49.9308 603.502 50.4682 603.771 50.4682C604.04 50.4682 604.04 49.9308 603.771 49.9308ZM603.502 49.4829C603.412 49.4829 603.412 49.7516 603.502 49.662C603.681 49.662 603.681 49.5724 603.502 49.4829ZM635.39 49.4829C635.122 49.4829 635.122 49.9308 635.39 49.9308C635.659 49.9308 635.659 49.4829 635.39 49.4829ZM604.846 48.6767C604.667 48.5871 604.667 49.3037 604.846 49.2142C605.025 49.1246 605.025 48.7663 604.846 48.6767ZM634.405 48.6767C634.495 48.8559 634.853 49.2142 634.942 49.2142C635.749 49.5725 635.749 48.0497 636.196 48.408C636.107 48.6767 636.286 48.8559 636.465 48.9454C636.823 48.7663 637.182 48.3184 637.003 47.8706C636.823 47.9601 636.107 47.9601 635.928 47.8706C635.838 47.8706 635.659 47.4227 635.659 47.4227C635.659 47.3331 635.39 47.154 635.39 47.154C635.301 47.0644 634.942 46.8852 634.942 46.8852C634.942 46.7957 634.942 46.7061 634.942 46.7061C634.674 46.0791 634.315 45.2729 635.122 44.8251H635.659C635.749 44.8251 636.107 44.3772 636.196 44.2876C636.644 44.0189 637.54 44.7355 637.809 45.0938C637.54 45.8999 636.555 44.9146 636.196 45.0938C636.196 45.1833 636.376 45.8104 636.465 45.8999C636.465 45.8999 636.734 46.0791 636.734 46.1687V47.4227C637.271 47.781 637.63 46.7957 637.809 46.7061C637.898 46.3478 638.525 45.9895 638.704 45.8999C637.988 46.0791 637.719 43.8397 639.242 44.2876C639.6 44.0189 637.809 43.1232 637.54 43.0336C636.823 42.944 637.003 43.1232 636.465 43.3023C636.376 43.3023 636.196 43.3023 636.196 43.3023C635.211 42.8544 636.734 42.317 637.003 42.2274C637.003 42.2274 637.182 42.2274 637.271 42.2274V42.4961C637.54 42.4066 638.436 42.8544 638.436 42.7649L638.973 41.7795C638.884 41.8691 638.436 42.0483 638.167 41.9587V41.7795C638.525 41.6004 639.421 40.7942 639.511 40.5255C639.869 39.8089 639.152 39.0028 639.779 38.3758C639.421 38.5549 638.436 38.0175 638.704 37.6592C639.779 37.9279 639.959 37.2113 640.317 36.3156C640.317 36.3156 640.317 36.1364 640.317 36.0468C640.138 36.1364 639.421 36.226 639.242 35.8677C639.779 35.5094 639.69 34.7928 640.048 34.3449C640.138 34.2554 640.586 33.8971 640.586 33.8075C640.675 33.7179 640.765 32.8222 640.765 32.7326C640.765 32.643 641.033 32.2847 641.033 32.1952C640.854 31.2994 639.69 30.9411 640.048 30.4037C640.586 30.3141 640.854 30.8516 641.302 30.6724V29.2392C641.302 29.1497 641.571 28.9705 641.571 28.9705V28.1644C641.571 28.0748 641.033 27.8956 641.033 27.8956C641.033 27.8061 640.854 27.3582 640.765 27.3582C640.675 27.3582 639.69 27.0895 639.511 27.6269C639.511 27.7165 639.6 28.3435 639.511 28.4331L638.704 28.9705C638.525 27.9852 639.242 27.7165 639.511 27.0895C639.6 26.9103 639.779 25.3876 639.779 25.298L640.765 24.7606C640.765 24.7606 641.033 24.5814 641.033 24.4918C641.302 24.4023 642.825 24.044 643.183 24.044L642.646 23.3274C642.287 22.7899 644.706 23.5065 645.154 23.0587C645.333 22.8795 645.87 21.5359 645.96 21.4464C646.318 20.9985 646.856 21.0881 647.214 21.4464V21.7151C647.214 21.8046 647.393 21.9838 647.483 21.9838C648.468 21.2672 647.931 20.6402 646.945 20.461C646.945 20.2819 647.124 19.5653 647.214 19.3862C647.214 19.3862 647.483 19.207 647.483 19.1174C647.841 18.4904 646.318 18.6696 645.96 18.3113C646.139 18.3113 646.856 17.953 646.945 17.8634C647.035 17.7738 647.035 17.5051 646.945 17.4155C646.139 17.5051 643.631 16.2511 643.452 16.3407C643.273 16.3407 642.914 16.6989 642.914 16.8781C643.004 16.8781 643.362 17.0572 643.452 17.1468L643.631 17.4155H644.616C644.706 17.4155 644.706 17.5947 644.616 17.6842C643.631 19.0279 643.541 17.5947 642.914 17.4155C642.825 17.326 642.108 17.5051 641.84 17.6842C641.75 17.6842 641.571 17.7738 641.571 17.8634H641.033C640.944 17.953 640.765 18.7591 640.765 18.8487C640.765 19.3861 641.84 19.2966 641.84 18.58C642.019 18.7591 642.735 19.207 642.646 19.6549C642.556 19.834 642.108 20.8193 642.108 20.9089V21.1776C642.019 21.2672 641.84 21.4464 641.84 21.4464H640.586V21.1776C640.586 20.9985 640.765 20.3715 640.765 20.1923C639.6 19.9236 637.63 21.9838 638.973 22.5212H640.048C640.138 22.5212 640.317 21.9838 640.317 21.9838C640.496 21.8046 641.66 22.9691 642.377 22.79V23.0587C641.66 23.2378 640.944 23.5961 640.586 24.2231C640.586 23.6857 639.779 24.2231 639.779 24.2231C639.869 24.044 639.69 23.8648 639.511 23.7753C638.973 23.9544 639.6 24.5814 638.973 24.7606C639.152 24.8501 639.421 25.1189 639.242 25.298C639.152 25.3876 638.794 25.3876 638.704 25.298C638.704 25.298 638.525 24.8501 638.436 24.7606L637.271 24.044L637.809 23.5961C637.809 23.5961 637.898 23.9544 637.988 24.044C638.615 24.671 638.973 23.6857 639.242 23.3274L638.704 23.5961V23.0587C638.077 23.2378 637.45 22.8795 637.003 22.5212C636.465 22.1629 638.705 21.9838 638.167 20.9089C637.809 20.6402 637.719 21.5359 637.54 21.7151C636.913 22.1629 636.017 20.6402 636.734 20.1923H637.271C637.63 19.4757 636.644 18.6696 636.196 18.8487V18.3113C637.003 18.0426 637.092 18.58 637.809 18.8487C637.809 18.9383 637.898 18.8487 637.988 18.8487C637.988 18.9383 638.257 20.5506 638.704 20.1923C638.794 20.1923 639.242 19.7444 639.242 19.6549L640.048 19.1174C639.511 18.7591 638.884 18.4009 638.167 18.1321C638.257 18.0426 638.436 17.8634 638.436 17.8634C638.615 17.7738 638.973 17.5947 638.973 17.6842C639.152 17.6842 639.69 18.2217 639.779 18.3113C640.317 18.0426 640.048 17.326 640.586 17.1468C641.033 16.8781 643.452 16.8781 641.84 15.8032H641.571C641.481 15.7136 641.392 15.2658 641.302 15.2658C641.213 15.1762 640.675 15.1762 640.586 15.2658V14.8179C640.586 14.9075 640.138 14.9971 640.048 14.9971C639.959 14.9971 639.6 14.5492 639.511 14.5492H638.704C637.182 14.37 637.361 14.2805 635.928 15.2658C635.749 14.9971 635.211 14.7283 634.942 14.8179C634.584 15.3553 634.405 16.5198 633.599 16.8781C633.509 16.8781 633.151 16.6989 633.061 16.6094V17.1468C633.599 17.7738 635.122 17.1468 635.39 17.1468C635.48 17.1468 635.659 17.326 635.659 17.4155C635.838 17.8634 635.39 18.2217 634.942 18.4904H635.659L635.122 19.3862V18.8487C634.942 18.7591 633.868 18.7591 633.599 18.8487L633.061 19.9236C633.061 20.0132 632.345 19.9236 632.255 19.9236C631.807 20.1923 630.553 20.6402 630.822 21.4464C630.822 21.5359 631.091 21.8942 631.091 21.9838C631.091 22.0734 630.912 22.7004 630.822 22.79C630.822 22.7004 630.643 22.3421 630.553 22.2525H630.285C630.195 22.2525 630.016 21.9838 630.016 21.9838C629.299 22.1629 630.195 23.417 629.478 23.5961C629.478 23.5961 629.926 23.7753 630.016 23.7753C630.105 23.6857 630.464 23.3274 630.553 23.3274C630.732 23.1482 631.628 22.9691 631.359 23.5961C631.27 23.5065 631.091 23.5065 631.091 23.5961C630.912 23.5961 630.374 24.1336 630.285 24.2231L631.628 24.7606C631.628 24.8501 631.807 24.5814 631.897 24.4918C631.897 24.4918 631.897 24.3127 631.897 24.2231H632.524V25.5667C632.166 25.8355 632.076 25.1189 631.628 25.298C631.539 25.3876 631.539 25.5667 631.628 25.5667C631.628 25.6563 632.076 26.0146 632.076 26.1042C632.076 26.1937 631.897 26.4625 631.897 26.552C631.807 26.6416 631.807 26.8208 631.897 26.8208L632.524 26.3729C634.315 27.4478 631.27 27.179 632.524 27.8956V29.6871C632.882 29.508 633.151 29.4184 633.33 29.2392C634.405 29.5975 632.703 30.135 632.524 30.135C632.166 30.4037 631.449 31.4786 631.628 32.016C631.628 32.1056 631.807 32.1056 631.897 32.016C631.897 32.016 632.076 31.5682 632.076 31.4786C632.345 31.1203 632.793 31.1203 633.061 30.6724C633.151 31.0307 632.703 31.8369 632.793 32.4639C632.613 32.5535 632.345 32.3743 632.255 32.1952L632.076 32.4639C631.359 33.6284 631.449 32.5535 631.091 33.2701C630.732 33.8971 631.718 34.0762 631.897 34.3449C631.986 34.5241 632.076 35.3303 632.076 35.599C631.986 36.226 628.135 35.599 628.762 36.853C628.762 36.9426 629.21 37.3009 629.21 37.3904C629.21 37.48 629.031 38.0175 629.031 38.107C629.031 38.3758 630.285 39.0028 630.553 38.9132C630.374 38.5549 630.374 37.8383 631.091 37.9279V39.1819C631.986 39.6298 632.434 37.48 632.793 37.9279V38.6445C632.882 38.734 633.599 39.3611 633.599 39.4506C633.599 39.4506 633.42 39.8089 633.33 39.9881C633.241 40.0777 632.703 40.7047 632.524 40.7942C633.151 40.9734 633.957 40.1672 634.136 39.9881C634.047 40.0777 635.48 41.7796 635.659 40.5255L636.465 40.9734C636.286 40.9734 635.749 41.1525 635.659 41.2421C635.569 41.2421 635.211 41.69 635.122 41.7795C634.853 41.9587 633.509 39.7194 632.524 41.9587C632.703 42.0483 633.42 42.4961 633.599 42.4961C633.688 42.5857 634.315 42.7649 634.405 42.7649C634.853 43.2127 633.957 43.7502 634.136 44.0189C634.136 44.1085 634.405 44.2876 634.405 44.2876C634.495 44.4668 634.495 45.0042 634.405 45.0938C634.405 45.1833 633.957 45.5416 633.868 45.6312C633.868 45.6312 633.868 45.8104 633.868 45.8999C633.957 46.1687 634.136 46.7957 634.136 46.8852C634.226 46.8852 634.674 47.3331 634.674 47.4227C634.674 47.5123 634.315 48.1393 634.136 48.1393H634.674C634.763 48.408 634.584 48.5871 634.405 48.6767ZM605.921 48.408C605.831 48.5871 605.473 48.9454 605.383 48.9454C605.921 49.1246 606.1 49.1246 606.368 48.6767C606.368 48.6767 606.548 48.2289 606.637 48.1393C606.637 48.1393 607.085 47.6914 607.175 47.6914C607.264 47.5123 607.802 46.2582 607.981 46.1687C608.07 45.9895 608.787 45.8104 608.876 45.8999V45.3625C607.981 44.825 607.443 46.6165 606.906 46.8852C606.906 46.7957 606.906 46.7061 606.906 46.7061C606.727 46.6165 606.189 46.4374 606.1 46.4374C605.562 46.4374 606.1 47.3331 606.1 47.4227C606.1 47.4227 605.921 47.6018 605.921 47.6914V48.408ZM609.683 48.9454C609.772 48.8559 609.414 48.8559 609.414 48.9454C609.503 49.1246 609.683 49.1246 609.683 48.9454ZM637.988 47.8706C637.809 47.8706 637.809 48.408 637.988 48.408C638.167 48.408 638.167 47.8706 637.988 47.8706ZM637.809 47.6914C637.54 47.6914 637.54 48.1393 637.809 48.1393C637.988 48.1393 637.988 47.6914 637.809 47.6914ZM610.22 46.7061C610.041 46.5269 610.041 47.781 610.22 47.6914C610.399 47.5123 610.399 46.7061 610.22 46.7061ZM633.868 47.154C633.599 47.154 633.599 47.6914 633.868 47.6914C634.136 47.6914 634.136 47.154 633.868 47.154ZM609.683 45.8999C609.414 45.8999 609.414 46.4374 609.683 46.4374C609.951 46.4374 609.951 45.8999 609.683 45.8999ZM607.175 45.0938V45.6312C607.175 45.6312 607.354 45.6312 607.443 45.6312C607.443 45.5416 607.712 45.1833 607.712 45.0938H607.175ZM632.793 45.3625C632.524 45.3625 632.524 45.8999 632.793 45.8999C633.061 45.8999 633.061 45.3625 632.793 45.3625ZM634.136 45.3625C633.868 45.3625 633.868 45.8999 634.136 45.8999C634.405 45.8999 634.405 45.3625 634.136 45.3625ZM635.39 45.3625C635.122 45.3625 635.122 45.8999 635.39 45.8999C635.659 45.8999 635.659 45.3625 635.39 45.3625ZM637.988 45.0938C638.167 45.0938 638.167 45.6312 637.988 45.6312C637.809 45.6312 637.809 45.0938 637.988 45.0938ZM634.136 44.5563C633.868 44.5563 633.868 45.0938 634.136 45.0938C634.405 45.0938 634.405 44.5563 634.136 44.5563ZM610.22 44.0189C610.31 44.1085 610.489 44.4668 610.489 44.5563C611.116 44.5563 610.578 43.4815 610.22 43.8397V44.0189ZM635.39 43.8397V44.0189H635.122L635.39 43.8397ZM637.988 43.571C638.167 43.571 638.167 44.0189 637.988 44.0189C637.809 44.0189 637.809 43.571 637.988 43.571ZM634.405 41.7795C634.495 41.8691 634.315 42.0483 634.136 41.9587C633.957 41.9587 634.315 41.6004 634.405 41.7795ZM636.196 41.5108C636.376 41.5108 636.376 41.69 636.196 41.7795C636.017 41.7795 636.017 41.4213 636.196 41.5108ZM637.54 40.5255C637.361 39.9881 636.555 40.0776 637.003 39.4506C637.63 39.5402 638.167 39.0028 638.704 39.1819C638.794 39.6298 638.615 40.3464 638.436 40.7942C638.077 40.5255 637.719 40.8838 637.809 41.2421C637.719 41.063 637.54 40.6151 637.54 40.5255ZM629.21 39.4506C629.299 39.6298 629.478 39.8089 629.747 39.7194C629.658 39.5402 629.389 39.3611 629.21 39.4506ZM633.061 39.4506C632.793 39.4506 632.793 39.9881 633.061 39.9881C633.33 39.9881 633.33 39.4506 633.061 39.4506ZM636.196 38.107C636.376 38.1966 636.376 38.5549 636.196 38.6445C636.017 38.734 636.017 38.0175 636.196 38.107ZM631.897 38.107C631.897 38.2862 631.718 38.4653 631.628 38.3758C631.449 38.2862 631.807 38.0175 631.897 38.107ZM635.39 38.107V38.3758H635.122L635.39 38.107ZM637.54 38.107H637.988C637.898 38.2862 637.719 38.4653 637.54 38.3758V38.107ZM628.224 37.6592L627.956 38.107C628.224 38.1966 628.404 38.0175 628.493 37.9279L628.224 37.6592ZM637.003 37.9279C637.271 37.9279 637.271 38.3758 637.003 38.3758C636.734 38.3758 636.734 37.9279 637.003 37.9279ZM627.149 37.1217V37.3904H627.687V37.1217H627.149ZM630.822 37.1217C630.822 37.1217 630.822 36.9426 630.822 36.853H631.091V37.3904C631.001 37.3904 630.822 37.2113 630.822 37.1217ZM632.524 37.1217C632.793 37.1217 632.793 37.6592 632.524 37.6592C632.255 37.6592 632.255 37.1217 632.524 37.1217ZM634.136 37.1217C634.405 37.1217 634.405 37.6592 634.136 37.6592C633.868 37.6592 633.868 37.1217 634.136 37.1217ZM630.016 36.5843C630.195 36.6739 630.195 37.0322 630.016 37.1217C629.837 37.2113 629.837 36.5843 630.016 36.5843ZM639.779 36.5843C639.779 36.7634 639.6 36.7634 639.511 36.5843C639.511 36.4947 639.869 36.4947 639.779 36.5843ZM632.076 35.8677C632.255 35.8677 632.255 36.3156 632.076 36.3156C631.897 36.3156 631.897 35.8677 632.076 35.8677ZM620.969 33.0013C621.327 33.0909 623.119 33.2701 623.567 33.2701H627.956C628.314 33.1805 628.762 32.9118 628.762 32.4639V26.8208C628.762 26.8208 628.224 26.2833 627.956 26.1042C627.687 25.925 626.881 25.6563 626.612 25.5667C626.254 25.4772 624.91 25.0293 624.91 25.0293H622.313C621.686 25.1189 619.804 26.552 619.536 27.0895C618.192 29.0601 618.282 32.3743 620.969 33.0013ZM632.255 32.7326C632.524 32.7326 632.524 33.2701 632.255 33.2701C632.076 33.2701 632.076 32.7326 632.255 32.7326ZM633.868 30.6724C634.136 30.6724 634.136 31.2099 633.868 31.2099C633.599 31.2099 633.599 30.6724 633.868 30.6724ZM632.076 29.4184C632.076 29.4184 631.897 29.5975 631.897 29.6871C632.076 29.7767 632.255 29.5975 632.255 29.4184C632.255 29.3288 632.076 29.3288 632.076 29.4184ZM642.108 29.4184C642.019 29.4184 641.84 29.5975 641.84 29.6871C642.108 29.7767 642.556 29.6871 642.646 29.4184C642.556 29.3288 642.198 29.3288 642.108 29.4184ZM640.765 29.4184C640.765 29.508 640.675 29.508 640.586 29.4184C640.586 29.3288 640.765 29.3288 640.765 29.4184ZM631.897 28.4331C631.718 28.3435 631.718 28.7018 631.897 28.7018C631.986 28.6122 631.986 28.4331 631.897 28.4331ZM634.674 28.4331C634.942 28.4331 634.942 28.9705 634.674 28.9705C634.405 28.9705 634.405 28.4331 634.674 28.4331ZM633.599 27.0895V26.8208C633.688 26.8208 633.868 26.8208 633.868 26.8208C633.957 26.8208 634.136 27.0895 634.136 27.0895C634.226 27.0895 634.584 26.9103 634.674 26.8208C634.405 27.1791 633.957 27.7165 633.599 27.0895ZM637.988 26.8208C638.167 26.8208 638.167 27.3582 637.988 27.3582C637.809 27.3582 637.809 26.8208 637.988 26.8208ZM638.973 26.552C639.242 26.552 639.242 27.0895 638.973 27.0895C638.704 27.0895 638.704 26.552 638.973 26.552ZM643.9 26.1042L643.631 26.552H643.9V26.1042ZM636.196 26.1042C636.465 26.1042 636.465 26.552 636.196 26.552C635.928 26.552 635.928 26.1042 636.196 26.1042ZM614.788 25.8355C614.609 25.8355 614.609 26.3729 614.788 26.3729C615.057 26.3729 615.057 25.8355 614.788 25.8355ZM615.057 25.0293V25.5667L615.595 25.298L615.057 25.0293ZM643.9 25.298C643.9 25.3876 644.079 25.5667 644.079 25.5667L644.348 25.298L643.9 25.0293C643.81 25.1189 643.81 25.298 643.9 25.298ZM635.122 24.7606H635.39V25.0293L635.122 24.7606ZM614.43 24.2231C614.43 24.3127 614.609 24.7606 614.609 24.7606C614.878 25.0293 614.967 24.3127 615.326 24.4918C615.774 23.5961 614.699 23.5961 614.43 23.0587C613.982 23.5961 613.445 23.417 613.355 24.044C613.534 23.9544 614.251 24.1336 614.43 24.2231ZM644.348 24.044C644.079 24.044 644.079 24.4918 644.348 24.4918C644.616 24.4918 644.616 24.044 644.348 24.044ZM641.84 23.7753C642.108 23.7753 642.108 24.2231 641.84 24.2231C641.571 24.2231 641.571 23.7753 641.84 23.7753ZM607.175 23.5961C606.995 23.5065 606.995 23.7753 607.175 23.7753C607.354 23.6857 607.354 23.5961 607.175 23.5961ZM612.28 23.5961C612.012 23.5961 612.012 24.044 612.28 24.044C612.549 24.044 612.549 23.5961 612.28 23.5961ZM616.938 23.5961C617.028 23.5961 617.207 23.6857 617.207 23.7753C617.386 23.6857 617.834 23.2378 617.923 23.0587C617.923 22.9691 617.744 22.6108 617.655 22.5212C617.565 22.4317 616.669 22.4317 616.938 21.9838C617.028 21.8942 617.207 21.7151 617.207 21.7151C617.296 21.7151 617.565 21.9838 617.655 21.9838C617.744 21.9838 618.371 21.4464 618.461 21.4464C618.55 21.4464 618.909 21.9838 618.998 21.9838H619.804C619.894 21.9838 620.252 22.1629 620.342 22.2525C619.804 21.4464 620.79 20.8193 621.238 20.6402C622.044 20.9089 621.148 21.8046 621.238 22.2525H621.775C621.865 22.1629 622.044 21.7151 622.044 21.7151C622.85 20.8193 623.656 20.0132 624.91 19.9236C625.179 19.2966 623.208 18.1321 624.641 17.8634C624.731 17.7738 625.358 17.8634 625.448 17.8634C625.627 17.7738 626.254 17.0572 626.343 16.8781L625.985 16.6094L626.254 16.3407L625.448 15.5345C624.731 15.5345 625.716 16.2511 625.179 16.6094C625.089 16.6094 624.91 16.6094 624.91 16.6094L623.567 14.8179V14.5492H622.581C622.581 14.5492 622.402 14.8179 622.313 14.8179C622.313 14.8179 622.133 14.8179 622.044 14.8179C621.954 14.7283 621.775 14.37 621.775 14.2805C621.238 14.4596 620.7 14.9075 620.342 15.2658C620.073 15.4449 619.536 15.8032 619.536 15.8032C619.446 15.8928 619.625 16.3407 619.804 16.3407C619.357 16.7885 618.55 18.4008 618.192 18.58C618.192 18.6696 617.923 18.58 617.923 18.58C617.834 18.6696 617.296 19.3862 617.207 19.3862C617.028 19.4757 616.042 19.4757 615.863 19.3862C616.042 20.2819 616.938 20.1027 617.476 20.461C617.744 20.6402 616.49 21.4463 616.132 21.1776C616.132 21.088 615.953 20.5506 615.863 20.461C615.774 20.3715 615.415 20.3715 615.326 20.461C616.132 21.4464 614.878 21.7151 615.057 22.2525C615.147 22.4317 615.595 22.9691 615.595 23.0587C615.684 23.0587 616.311 23.2378 616.401 23.3274C616.49 23.3274 616.849 23.5065 616.938 23.5961ZM610.489 23.3274C610.22 23.3274 610.22 23.7753 610.489 23.7753C610.758 23.7753 610.758 23.3274 610.489 23.3274ZM637.271 23.3274C637.361 23.3274 637.361 23.5065 637.271 23.5961C637.092 23.5961 637.092 23.2378 637.271 23.3274ZM645.423 23.3274L645.691 23.5961L645.96 23.3274H645.423ZM607.443 22.79L607.712 23.3274C607.891 23.2378 608.07 22.9691 607.981 22.79H607.443ZM643.631 22.5212C643.9 22.5212 643.9 23.0587 643.631 23.0587C643.452 23.0587 643.452 22.5212 643.631 22.5212ZM611.743 22.2525C611.564 22.2525 611.564 22.79 611.743 22.79C612.012 22.79 612.012 22.2525 611.743 22.2525ZM612.28 22.2525C612.012 22.2525 612.012 22.79 612.28 22.79C612.549 22.79 612.549 22.2525 612.28 22.2525ZM613.893 21.7151C613.713 21.8046 613.176 22.3421 613.086 22.5212C613.624 22.6108 614.699 22.4317 614.788 21.7151C614.699 21.6255 613.982 21.6255 613.893 21.7151ZM631.897 21.9838C631.897 21.8942 632.166 21.7151 632.255 21.7151C632.255 21.8046 632.076 22.1629 632.076 22.2525H631.897C631.807 22.1629 631.807 21.9838 631.897 21.9838ZM633.599 21.9838C633.868 21.9838 633.868 22.5212 633.599 22.5212C633.33 22.5212 633.33 21.9838 633.599 21.9838ZM616.132 21.7151C616.401 21.7151 616.401 22.2525 616.132 22.2525C615.863 22.2525 615.863 21.7151 616.132 21.7151ZM628.493 21.4464C628.583 21.5359 628.762 21.8942 628.762 21.9838L629.21 21.4464C628.941 21.2672 628.583 20.8193 628.762 20.461C628.135 20.7298 627.418 20.1923 627.149 19.6549L627.418 19.3862H630.285C630.374 19.3862 631.001 19.6549 631.091 19.6549C631.091 19.6549 631.27 19.6549 631.359 19.6549C631.539 19.5653 632.166 18.7591 632.255 18.58C632.255 18.4904 632.076 17.953 632.076 17.8634C632.076 17.7738 632.255 17.6842 632.255 17.6842C632.345 17.5051 632.524 16.9677 632.524 16.8781C632.524 16.7885 632.255 16.6094 632.255 16.6094C632.255 15.9824 632.793 15.4449 633.33 15.2658C633.33 15.0866 632.703 14.8179 632.524 14.8179C632.434 14.8179 632.076 15.0866 632.076 15.2658V16.3407C631.807 17.1468 630.374 17.2364 629.747 17.1468C629.747 17.0572 629.926 16.6989 630.016 16.6094C630.016 16.5198 630.285 16.3407 630.285 16.3407C630.464 15.7136 629.837 15.1762 630.016 14.5492C629.926 14.5492 629.747 14.5492 629.747 14.5492C629.747 14.5492 629.568 14.9075 629.478 14.9971C629.478 15.0866 629.299 15.7136 629.21 15.8032C628.851 16.1615 628.493 15.5345 628.493 15.2658C628.135 15.6241 628.135 16.4302 628.224 16.8781H628.493C628.583 16.8781 628.762 17.5947 628.762 17.8634V18.58C628.493 18.6696 627.239 18.2217 627.149 18.3113L626.612 19.3862V20.461H627.149C627.149 20.461 626.433 20.9089 626.612 21.1776C627.149 21.088 628.224 21.3568 628.493 21.4464ZM635.659 21.4464L636.196 21.7151L635.39 21.9838L635.659 21.4464ZM611.295 21.1776C611.205 21.2672 611.026 21.6255 611.026 21.7151H612.012C611.743 21.5359 611.653 21.1776 611.564 20.9089C611.474 20.9089 611.295 21.088 611.295 21.1776ZM624.641 21.4464V21.7151L624.91 21.4464H624.641ZM626.343 21.4464C626.254 21.4464 626.254 21.9838 626.343 21.9838C626.612 21.9838 626.612 21.4464 626.343 21.4464ZM626.254 21.1776C625.985 21.1776 625.985 21.7151 626.254 21.7151C626.343 21.7151 626.343 21.1776 626.254 21.1776ZM608.876 20.9089C608.697 20.9089 608.697 21.4464 608.876 21.4464C609.145 21.4464 609.145 20.9089 608.876 20.9089ZM640.048 20.9089C640.317 20.9089 640.317 21.4464 640.048 21.4464C639.779 21.4464 639.779 20.9089 640.048 20.9089ZM610.22 20.6402C609.951 20.6402 609.951 21.1776 610.22 21.1776C610.489 21.1776 610.489 20.6402 610.22 20.6402ZM618.461 20.6402C618.192 20.2819 619.088 20.1027 619.267 19.9236C619.357 19.7444 619.536 18.9383 620.073 19.1174C619.446 19.4757 619.715 20.3715 618.73 20.9089C618.64 20.9089 618.461 20.7298 618.461 20.6402ZM643.183 20.9089C643.094 21.0881 642.914 21.0881 642.914 20.9089C642.825 20.7298 643.183 20.7298 643.183 20.9089ZM644.885 20.1923C645.512 19.9236 646.229 20.3715 645.96 20.9089H644.885V20.1923ZM608.876 20.461C608.697 20.461 608.697 20.9089 608.876 20.9089C609.145 20.9089 609.145 20.461 608.876 20.461ZM629.478 20.461C629.299 20.461 629.299 20.7298 629.478 20.6402C629.658 20.6402 629.658 20.5506 629.478 20.461ZM638.973 20.461C638.704 20.461 638.704 20.9089 638.973 20.9089C639.242 20.9089 639.242 20.461 638.973 20.461ZM611.743 20.1923L611.564 20.461H612.012L611.743 20.1923ZM613.355 20.1923C613.534 20.8193 614.878 20.3715 615.057 19.6549C615.147 19.4757 615.326 18.3113 615.326 18.1321H614.788V18.8487C614.788 18.9383 614.699 18.9383 614.609 18.8487C614.609 18.7591 614.43 18.2217 614.43 18.1321C613.713 18.4009 612.728 18.1321 612.28 18.8487C612.28 18.9383 612.459 19.1174 612.549 19.1174C612.639 19.207 613.266 19.3862 613.355 19.3862C613.355 19.4757 613.266 20.1027 613.355 20.1923ZM621.775 20.1923C621.596 19.834 622.223 19.4757 622.313 19.3862C622.402 19.5653 622.492 20.3715 622.044 20.461C622.044 20.461 621.865 20.2819 621.775 20.1923ZM642.914 19.9236C643.183 19.834 643.541 20.1027 643.631 20.1923L643.452 20.461L642.914 19.9236ZM617.923 19.9236C618.103 20.0132 618.103 20.1923 617.923 20.1923C617.744 20.2819 617.744 19.9236 617.923 19.9236ZM630.016 19.9236C629.837 19.9236 629.837 20.2819 630.016 20.1923C630.195 20.1923 630.195 20.0132 630.016 19.9236ZM636.196 19.9236C636.465 19.9236 636.465 20.461 636.196 20.461C635.928 20.461 635.928 19.9236 636.196 19.9236ZM641.571 19.9236C641.481 19.834 641.123 20.1027 641.302 20.1923C641.481 20.2819 641.66 20.1027 641.571 19.9236ZM646.229 19.6549H646.497L646.229 20.1923V19.6549ZM647.483 19.9236C647.214 19.9236 647.214 20.461 647.483 20.461C647.751 20.461 647.751 19.9236 647.483 19.9236ZM623.387 19.9236C623.387 20.1027 623.119 20.1027 623.119 19.9236C623.119 19.7444 623.387 19.7444 623.387 19.9236ZM635.39 19.3862C635.659 19.3862 635.659 19.9236 635.39 19.9236C635.122 19.9236 635.122 19.3862 635.39 19.3862ZM647.751 19.3862C647.572 19.3862 647.572 19.7444 647.751 19.6549C647.931 19.6549 647.931 19.4757 647.751 19.3862ZM645.423 19.1174C645.423 19.1174 645.423 18.9383 645.423 18.8487H645.96V19.3862C645.87 19.3862 645.512 19.207 645.423 19.1174ZM613.893 18.58H614.161L613.893 19.1174V18.58ZM615.595 18.3113V19.1174C616.042 18.9383 616.042 18.58 615.595 18.3113ZM623.119 18.8487H623.567V19.1174H622.85C622.85 19.1174 623.029 18.9383 623.119 18.8487ZM625.448 18.3113L626.254 19.1174C626.343 18.58 626.881 17.953 627.149 17.6842C626.612 17.5051 625.806 18.2217 625.448 18.3113ZM619.804 18.58C619.715 18.7591 619.446 19.0279 619.267 18.8487L619.804 18.58ZM621.506 18.8487C621.506 19.0279 621.327 19.0279 621.238 18.8487C621.238 18.7591 621.596 18.7591 621.506 18.8487ZM622.313 18.3113C622.313 18.3113 621.865 18.1321 621.775 18.1321C621.775 18.0426 621.775 17.6842 621.775 17.6842C622.76 18.2217 622.76 17.4155 623.567 17.1468C623.746 17.4155 622.671 18.1321 622.581 18.8487C622.581 18.7591 622.402 18.4008 622.313 18.3113ZM616.938 18.1321C616.938 18.1321 617.117 18.3113 617.207 18.3113C618.461 18.7591 617.655 17.4155 617.655 17.1468C617.655 17.0572 617.923 16.8781 617.923 16.8781C617.923 16.7885 617.923 16.6094 617.923 16.6094H617.207C617.296 15.8928 619.536 15.1762 618.998 14.5492C618.819 14.4596 618.282 14.4596 618.192 14.5492C617.655 14.8179 618.192 15.2658 617.655 15.5345C617.655 15.5345 617.028 15.0866 617.207 14.8179H616.938L616.401 15.8032C616.401 15.8928 616.222 15.8928 616.132 15.8032L615.595 14.9971C614.878 14.5492 614.251 15.6241 614.43 16.3407C614.609 16.4302 614.968 16.1615 615.057 16.0719L615.326 16.6094C615.684 16.2511 616.222 16.2511 616.669 16.3407L616.132 16.8781C616.132 16.8781 616.132 17.0572 616.132 17.1468C616.222 17.1468 616.938 17.326 616.938 17.4155C617.028 17.4155 616.938 18.0426 616.938 18.1321ZM616.401 17.8634C616.132 17.8634 616.132 18.3113 616.401 18.3113C616.669 18.3113 616.669 17.8634 616.401 17.8634ZM620.7 17.8634C620.969 17.8634 620.969 18.3113 620.7 18.3113C620.431 18.3113 620.431 17.8634 620.7 17.8634ZM629.21 17.8634C629.389 17.8634 629.389 18.0426 629.21 18.1321C629.12 18.1321 629.12 17.7738 629.21 17.8634ZM621.238 17.6842C621.506 17.6842 621.506 18.1321 621.238 18.1321C620.969 18.1321 620.969 17.6842 621.238 17.6842ZM623.567 17.6842C623.835 17.6842 623.835 18.1321 623.567 18.1321C623.387 18.1321 623.387 17.6842 623.567 17.6842ZM627.687 17.6842C627.777 17.7738 628.045 17.953 628.224 17.8634C628.135 17.7738 627.956 17.5051 627.687 17.6842ZM645.96 17.4155C646.229 17.4155 646.229 17.8634 645.96 17.8634C645.691 17.8634 645.691 17.4155 645.96 17.4155ZM611.743 17.1468C611.564 17.1468 611.564 17.6842 611.743 17.6842C612.012 17.6842 612.012 17.1468 611.743 17.1468ZM624.641 17.1468C624.91 17.1468 624.91 17.6842 624.641 17.6842C624.373 17.6842 624.373 17.1468 624.641 17.1468ZM614.43 16.8781C614.161 16.8781 614.161 17.4155 614.43 17.4155C614.609 17.4155 614.609 16.8781 614.43 16.8781ZM619.804 16.8781H620.073V17.1468L619.804 16.8781ZM622.85 16.8781C623.029 16.8781 623.029 17.0572 622.85 17.1468C622.671 17.1468 622.671 16.7885 622.85 16.8781ZM614.161 16.8781C614.161 16.6989 613.803 16.6989 613.893 16.8781C613.893 17.0572 614.072 17.0572 614.161 16.8781ZM620.969 16.0719C621.059 15.7136 621.596 15.7136 621.775 15.8032C621.954 16.1615 621.327 17.1468 620.969 16.8781V16.0719ZM638.704 16.6094C638.794 16.5198 638.973 16.3407 638.973 16.3407L639.242 16.6094C639.152 16.7885 638.973 16.9677 638.704 16.8781C638.704 16.7885 638.704 16.6094 638.704 16.6094ZM613.355 16.3407C613.086 16.3407 613.086 16.8781 613.355 16.8781C613.624 16.8781 613.624 16.3407 613.355 16.3407ZM626.612 16.0719L627.149 16.6094C627.329 16.6094 627.687 16.4302 627.687 16.3407C627.597 15.8928 626.881 15.9824 626.612 16.0719ZM636.734 16.3407C637.003 16.3407 637.003 16.8781 636.734 16.8781C636.465 16.8781 636.465 16.3407 636.734 16.3407ZM641.033 16.0719C641.302 16.0719 641.302 16.6094 641.033 16.6094C640.765 16.6094 640.765 16.0719 641.033 16.0719ZM644.885 16.0719C644.616 16.0719 644.616 16.6094 644.885 16.6094C645.154 16.6094 645.154 16.0719 644.885 16.0719ZM622.581 15.8032L622.85 16.0719H622.581V15.8032ZM637.54 15.5345L637.809 15.8032C637.63 15.8928 637.271 16.1615 637.003 16.0719L637.54 15.5345ZM640.765 15.8032C641.033 15.8032 641.033 16.3407 640.765 16.3407C640.586 16.3407 640.586 15.8032 640.765 15.8032ZM626.612 15.2658C626.522 15.2658 626.522 15.5345 626.612 15.5345C626.791 15.5345 626.791 15.2658 626.612 15.2658ZM630.822 15.2658V15.5345H631.359V15.2658H630.822ZM639.511 14.9971C639.779 14.9971 639.779 15.5345 639.511 15.5345C639.242 15.5345 639.242 14.9971 639.511 14.9971ZM627.687 14.8179V14.9971C627.956 15.0866 628.135 14.9075 628.224 14.8179H627.687ZM637.988 14.8179C637.898 14.9075 637.809 14.9075 637.809 14.8179C637.719 14.6388 637.988 14.6388 637.988 14.8179ZM624.373 14.2805C624.373 14.1013 624.014 14.1013 624.104 14.2805C624.104 14.4596 624.283 14.4596 624.373 14.2805ZM633.868 14.0117C633.599 14.0117 633.599 14.5492 633.868 14.5492C634.136 14.5492 634.136 14.0117 633.868 14.0117ZM636.196 13.743V14.2805H636.734C636.823 14.0117 636.465 13.6534 636.196 13.743ZM621.506 13.743C621.238 13.743 621.238 14.2805 621.506 14.2805C621.775 14.2805 621.775 13.743 621.506 13.743ZM633.33 13.743C633.33 13.8326 633.151 14.0117 633.061 14.0117H633.599V13.743C633.599 13.743 633.42 13.743 633.33 13.743Z" fill="white"/>
<path d="M584.352 68.8302H573.693V21.4458L546.194 68.8302H532.848V6.12866H543.507V53.5131L571.006 6.12866H584.352V68.8302Z" fill="white"/>
<path d="M482.643 64.3515V10.6073C482.643 6.21824 478.522 7.20355 474.312 7.0244V6.12866H496.348V7.0244C492.138 7.20355 488.017 6.21824 488.017 10.6073V30.851H509.246V10.6073C509.246 6.21824 505.126 7.20355 500.916 7.0244V6.12866H522.951V7.0244C518.741 7.20355 514.621 6.21824 514.621 10.6073V64.3515C514.621 68.7406 518.741 67.7553 522.951 67.9344V68.8302H500.916V67.9344C505.126 67.7553 509.246 68.7406 509.246 64.3515V32.6425H488.017V64.3515C488.017 68.7406 492.138 67.7553 496.348 67.9344V68.8302H474.312V67.9344C478.522 67.7553 482.643 68.7406 482.643 64.3515Z" fill="white"/>
<path d="M427.492 68.8302V6.12866H467.173V16.2505H438.151V31.9259H467.173V42.0477H438.151V58.7084H467.173V68.8302H427.492Z" fill="white"/>
<path d="M332.595 6.12866H415.719V68.8302H398.163V23.6851H344.777L331.61 68.8302H307.693V51.3633H318.801L332.595 6.12866Z" fill="white"/>
<path d="M270.146 69.7254C253.306 69.7254 238.258 57.006 238.258 37.4789C238.258 18.131 253.306 5.23242 270.146 5.23242C286.896 5.23242 302.034 18.131 302.034 37.4789C302.034 57.006 286.896 69.7254 270.146 69.7254ZM249.275 37.4789C249.275 50.915 259.039 59.2453 270.146 59.2453C281.164 59.2453 291.017 50.915 291.017 37.4789C291.017 24.222 281.164 15.7125 270.146 15.7125C259.039 15.7125 249.275 24.222 249.275 37.4789Z" fill="white"/>
<path d="M231.245 6.12866V25.5661L203.298 34.9714L231.245 68.8302H208.762L185.652 40.9728L141.402 55.9316V68.8302H123.936V6.12866H141.402V36.8524L231.245 6.12866Z" fill="white"/>
<path d="M74.7646 37.3913C74.7646 18.4017 82.1993 4.51782 92.2315 4.51782C102.174 4.51782 110.505 18.4017 110.505 37.3913C110.505 56.4705 102.174 71.1606 92.2315 71.1606C82.1993 71.1606 74.7646 56.4705 74.7646 37.3913ZM80.1391 37.3913C80.1391 55.3956 84.0803 69.3691 92.2315 69.3691C100.383 69.3691 105.13 55.3956 105.13 37.3913C105.13 19.387 100.383 6.30931 92.2315 6.30931C84.0803 6.30931 80.1391 19.387 80.1391 37.3913Z" fill="white"/>
<path d="M62.2361 6.12866V68.8302H51.5768V16.2505H21.6593V68.8302H11V6.12866H62.2361Z" fill="white"/>
</g>
<defs>
<clipPath id="clip0_283_5380">
<rect width="663" height="74" fill="white"/>
</clipPath>
</defs>
</svg>
