<svg width="663" height="74" viewBox="0 0 663 74" fill="none" xmlns="http://www.w3.org/2000/svg">
<g clip-path="url(#clip0_283_5446)">
<path d="M576.145 5.93628H658.822V68.6378H641.265V58.6951H587.879L579.728 68.6378H557.245L565.755 58.3368C556.349 56.9932 549.811 52.0667 549.811 32.3605C549.811 5.93628 561.545 5.93628 576.145 5.93628ZM575.876 41.2283L641.176 41.3179V23.5823H575.876C571.039 23.5823 567.098 23.5823 567.098 32.3605C567.098 41.2283 570.95 41.2283 575.876 41.2283Z" fill="white"/>
<path d="M521.367 70.8754C520.203 70.7859 515.008 70.6067 513.843 70.6067C512.052 70.1589 511.962 69.5319 512.052 67.5612C512.231 66.1281 512.768 59.2309 512.858 57.7977C513.037 57.1707 513.664 56.4541 514.381 56.275L518.949 55.7375C519.755 55.6479 520.382 55.2001 520.561 54.4835L521.099 46.5114C521.636 39.883 522.621 33.165 522.353 26.5365H521.815C521.726 26.5365 520.919 27.3427 520.561 27.7906C517.247 31.7318 515.097 36.4792 512.32 40.8683C512.141 41.2266 510.081 44.2721 509.812 44.72L505.692 51.7067C505.423 52.1546 504.707 53.319 504.707 53.4086V62.1868C504.707 62.1868 504.438 62.5451 504.348 62.7243C504.169 62.993 503.811 63.3513 503.363 63.4409C503.005 63.5304 501.482 63.7096 501.303 63.7096C500.228 63.7991 495.033 63.7991 493.868 63.7096C493.241 63.5304 492.793 62.993 492.614 62.4555V58.5143C492.614 57.8873 493.062 52.1546 493.062 51.438C493.062 51.1693 493.241 37.7332 493.331 32.1797C493.331 29.9403 493.152 28.0593 493.062 25.7304C492.614 22.9536 488.404 25.1033 486.971 22.9536C486.882 22.7744 486.702 22.237 486.702 22.1474C486.613 21.0725 486.434 16.4147 486.434 15.4294V12.563C486.613 12.2047 486.971 11.6673 487.419 11.6673H510.081C511.066 11.6673 511.066 13.2796 511.066 13.9066L510.529 20.6247C510.439 21.1621 510.081 21.7891 509.544 22.1474C508.021 22.9536 505.244 21.6995 504.617 23.8493C504.527 25.1033 504.348 30.4778 504.348 31.6422V37.2854C504.348 37.4645 504.527 38.2707 504.617 38.5394C504.617 38.5394 504.796 38.8081 504.886 38.8081L505.692 38.0915C505.782 37.8228 506.767 36.0313 506.946 35.4043C507.573 34.1503 512.5 23.0432 513.037 21.61L514.649 18.4749L515.187 17.3105C515.366 16.6834 516.709 12.3839 516.978 11.8465C518.053 9.06968 519.128 8.44265 522.084 8.26351L532.385 7.72607H535.43C537.401 7.90522 537.491 10.5029 537.491 11.8465V22.1474C537.222 23.7597 533.281 23.4014 532.385 24.9242C532.295 25.0138 532.116 25.5512 532.116 25.7304C532.027 25.9991 531.847 27.1635 531.847 27.5218L531.041 37.0166L530.325 43.4659C530.325 43.7347 530.146 48.9299 530.056 50.9005C530.056 52.065 529.966 52.3337 530.325 53.1399C530.414 53.319 530.504 53.5877 530.504 53.5877H535.162L535.968 54.4835C536.057 54.5731 536.057 59.7683 535.968 61.9181C535.968 62.2764 535.52 65.5906 535.43 66.0385C535.43 66.4863 535.251 69.8006 535.162 70.0693C535.162 70.6067 534.803 71.592 534.176 71.6816C533.281 71.7712 529.608 71.7712 528.802 71.6816L521.367 70.8754ZM525.667 23.8493C525.398 23.8493 525.398 24.3868 525.667 24.3868C525.936 24.3868 525.936 23.8493 525.667 23.8493ZM495.391 22.1474L495.66 22.4161C495.839 22.0578 495.928 21.6995 495.839 21.3413H495.391C495.749 21.5204 495.749 21.9683 495.391 22.1474ZM525.129 21.8787C525.129 22.237 525.846 22.1474 525.936 22.1474C525.846 21.9683 525.577 21.61 525.667 21.3413C525.667 21.2517 525.488 21.2517 525.398 21.3413C525.309 21.4308 525.129 21.7891 525.129 21.8787ZM499.243 21.61C499.243 21.4308 498.884 21.4308 498.974 21.61C498.974 21.7891 499.153 21.7891 499.243 21.61ZM494.406 20.8038C494.316 20.8934 494.585 21.2517 494.674 21.3413C494.674 21.3413 494.674 21.5204 494.674 21.61C494.854 21.0725 496.108 20.3559 495.839 19.8185C495.391 19.8185 494.585 20.3559 494.406 20.8038ZM496.914 20.3559L497.451 21.0725C497.541 21.0725 497.72 21.0725 497.72 21.0725C497.809 20.8038 497.809 19.8185 497.72 19.5498C497.72 19.4602 497.182 19.1019 497.182 19.0123C497.182 19.0123 497.182 18.5645 497.182 18.4749C497.003 18.2062 496.108 17.6687 495.839 17.4896C495.391 17.2209 495.033 18.2062 494.406 17.9375C494.495 18.2062 494.406 18.6541 494.137 18.7436C494.227 19.3706 496.645 18.9228 496.914 19.5498C497.003 19.6394 496.914 20.2664 496.914 20.3559ZM498.974 20.6247C498.705 20.6247 498.705 21.0725 498.974 21.0725C499.243 21.0725 499.243 20.6247 498.974 20.6247ZM525.936 20.6247C525.936 20.8934 526.652 20.8038 526.742 20.8038C526.831 20.6247 526.652 20.4455 526.473 20.3559C526.652 20.2664 526.831 20.0872 526.742 19.8185C526.383 19.6394 525.936 20.356 525.936 20.6247ZM496.376 19.8185C496.108 19.8185 496.108 20.3559 496.376 20.3559C496.645 20.3559 496.645 19.8185 496.376 19.8185ZM529.071 19.8185C528.802 19.8185 528.802 20.3559 529.071 20.3559C529.25 20.3559 529.25 19.8185 529.071 19.8185ZM497.989 19.0123C498.168 19.3706 498.526 19.3706 498.705 19.0123H497.989ZM525.936 18.7436C526.025 18.9228 526.294 19.1019 526.473 19.0123C526.383 18.8332 526.204 18.6541 525.936 18.7436ZM493.331 18.4749C493.062 18.4749 493.062 19.0123 493.331 19.0123C493.6 19.0123 493.6 18.4749 493.331 18.4749ZM496.108 18.4749L496.376 18.2062V18.7436L496.108 18.4749ZM494.943 17.3105C494.943 17.1313 494.585 17.1313 494.674 17.3105C494.674 17.4 494.854 17.4 494.943 17.3105ZM531.31 17.0417C531.041 17.0417 531.041 17.4896 531.31 17.4896C531.579 17.4896 531.579 17.0417 531.31 17.0417ZM525.936 16.2356L526.473 16.5043V16.2356H525.936ZM530.504 14.4441C530.325 14.4441 530.325 14.9815 530.504 14.9815C530.773 14.9815 530.773 14.4441 530.504 14.4441Z" fill="white"/>
<path d="M425.512 68.6378V5.93628H436.171V31.7335H465.103V5.93628H475.763V68.6378H465.103V41.8553H436.171V68.6378H425.512Z" fill="white"/>
<path d="M411.363 23.4927H329.045V29.942L385.387 34.3311V40.3325L329.045 44.7217V51.171H411.363V68.6378H311.578V5.93628H411.363V23.4927Z" fill="white"/>
<path d="M299.976 5.93628V68.6378H289.316V16.0581H272.835L270.954 49.7378C270.327 60.397 265.49 68.6378 253.935 68.6378H250.8V58.516H253.218C258.234 58.516 260.026 54.4852 260.295 49.3795L262.713 5.93628H299.976Z" fill="white"/>
<path d="M211.932 37.1971C211.932 18.2075 219.366 4.32361 229.398 4.32361C239.341 4.32361 247.671 18.2075 247.671 37.1971C247.671 56.2763 239.341 70.9664 229.398 70.9664C219.366 70.9664 211.932 56.2763 211.932 37.1971ZM217.306 37.1971C217.306 55.2014 221.247 69.1749 229.398 69.1749C237.55 69.1749 242.297 55.2014 242.297 37.1971C242.297 19.1928 237.55 6.11509 229.398 6.11509C221.247 6.11509 217.306 19.1928 217.306 37.1971Z" fill="white"/>
<path d="M153.251 30.9262C156.834 29.3736 160.357 27.821 163.821 26.2684C167.344 24.656 170.897 23.0736 174.48 21.521C178.421 19.7892 182.362 18.0873 186.304 16.4153C190.245 14.6835 194.186 12.9816 198.127 11.3096C199.501 10.7721 200.814 10.2347 202.069 9.69726C203.382 9.1001 204.726 8.5328 206.099 7.99536C206.159 7.99536 206.338 7.93564 206.637 7.81621C206.995 7.63706 207.353 7.48778 207.712 7.36835C208.13 7.1892 208.488 7.03991 208.787 6.92048C209.085 6.80105 209.264 6.74133 209.324 6.74133C209.563 6.74133 209.742 7.09962 209.861 7.81621C210.041 8.47308 210.16 9.24939 210.22 10.1451C210.279 10.9811 210.25 11.7873 210.13 12.5636C210.07 13.2802 209.891 13.7281 209.593 13.9072C206.069 15.4001 202.576 16.893 199.113 18.3859C195.649 19.8788 192.126 21.3717 188.543 22.8646C186.035 23.8797 183.497 24.8651 180.929 25.8205C178.421 26.776 175.883 27.7613 173.315 28.7764C171.942 29.2542 170.568 29.7617 169.195 30.2992C167.881 30.8366 166.538 31.3442 165.164 31.8219C164.925 32.4788 164.686 33.1357 164.448 33.7925C164.268 34.4494 164.119 35.1063 164 35.7632C163.88 36.4798 163.731 37.1963 163.552 37.9129C163.432 38.5698 163.313 39.2565 163.194 39.9731C162.835 41.4063 162.477 42.8693 162.119 44.3622C161.76 45.7954 161.492 47.2585 161.313 48.7513C161.253 49.1096 161.193 49.5575 161.133 50.0949C161.133 50.5727 161.133 51.0802 161.133 51.6177C161.133 52.0954 161.193 52.5732 161.313 53.0509C161.432 53.5286 161.641 53.8869 161.94 54.1258C162.059 54.2452 162.238 54.3646 162.477 54.4841C163.253 54.7826 164.119 54.9319 165.075 54.9319C166.09 54.9319 167.075 54.8423 168.031 54.6632C169.046 54.4243 170.031 54.1556 170.986 53.857C171.942 53.5585 172.778 53.2599 173.495 52.9613C175.107 52.3044 176.719 51.558 178.332 50.722C180.004 49.8859 181.586 48.9902 183.079 48.0348C183.318 47.9153 183.646 47.7362 184.064 47.4973C184.542 47.2584 184.93 47.2286 185.229 47.4077C185.408 47.5272 185.557 47.766 185.677 48.1243C185.856 48.4229 186.005 48.6916 186.124 48.9305C186.124 49.1096 185.945 49.3784 185.587 49.7367C185.288 50.0352 184.93 50.3637 184.512 50.722C184.154 51.0803 183.796 51.4087 183.437 51.7073C183.079 52.0059 182.84 52.2149 182.721 52.3343C181.526 53.3495 180.272 54.3049 178.959 55.2006C177.645 56.0964 176.301 56.9324 174.928 57.7087C174.092 58.1864 173.106 58.694 171.972 59.2314C170.897 59.7689 169.762 60.2168 168.568 60.5751C167.374 60.9333 166.179 61.1424 164.985 61.2021C163.791 61.2618 162.716 61.0826 161.76 60.6646L155.849 51.6177C154.953 50.2442 154.386 48.9006 154.147 47.5869C153.968 46.2134 153.968 44.8698 154.147 43.5561C154.326 42.2423 154.595 40.9286 154.953 39.6148C155.371 38.3011 155.729 36.9276 156.028 35.4944C153.639 36.5096 151.25 37.5248 148.862 38.54C146.533 39.4954 144.174 40.4807 141.786 41.4959C138.322 44.7205 134.918 47.975 131.574 51.2594C128.29 54.5438 124.946 57.8879 121.542 61.2916L115.451 68.0992C115.391 68.2187 115.272 68.1888 115.093 68.0097C114.794 67.8902 114.466 67.6215 114.107 67.2035C113.749 66.7258 113.421 66.2182 113.122 65.6807C112.823 65.0836 112.555 64.5163 112.316 63.9788C112.137 63.3817 112.077 62.9338 112.137 62.6352C112.137 62.4561 112.764 61.6798 114.018 60.3063C115.331 58.9329 116.944 57.2608 118.855 55.2902C120.766 53.3196 122.856 51.1997 125.125 48.9305C127.394 46.6016 129.544 44.4219 131.574 42.3916C133.604 40.3016 135.366 38.5101 136.859 37.0172C138.352 35.5243 139.277 34.5987 139.636 34.2404C139.934 33.9418 140.83 33.0461 142.323 31.5532C143.876 30.0603 145.667 28.2987 147.697 26.2684C149.787 24.238 151.997 22.0883 154.326 19.8191C156.655 17.4902 158.804 15.3703 160.775 13.4593C162.805 11.5484 164.477 9.96598 165.791 8.71195C167.165 7.3982 167.911 6.74133 168.031 6.74133C168.21 6.74133 168.449 6.89062 168.747 7.1892C169.105 7.48778 169.464 7.81621 169.822 8.17451C170.18 8.5328 170.509 8.89109 170.807 9.24938C171.166 9.54796 171.405 9.75698 171.524 9.87641C171.584 9.99584 171.763 10.2646 172.061 10.6826C172.42 11.0409 172.748 11.4589 173.047 11.9366C173.405 12.3546 173.704 12.7726 173.942 13.1906C174.181 13.5489 174.211 13.7579 174.032 13.8176C172.3 15.012 170.598 16.266 168.926 17.5797C167.254 18.8338 165.612 20.1475 164 21.521C162.208 23.0736 160.387 24.656 158.536 26.2684C156.744 27.821 154.983 29.3736 153.251 30.9262Z" fill="white"/>
<path d="M81.0851 71.1451C80.5476 71.0555 80.0998 70.7868 79.6519 70.3389C79.204 69.9806 75.8898 67.2934 75.4419 67.0247C73.2922 65.3228 71.5903 64.4271 69.7988 62.3669C68.5448 60.8441 68.6343 58.0673 68.3656 56.1863C68.0073 54.2157 66.8429 52.3346 66.4846 50.2744C66.3054 49.5578 65.8576 46.6019 65.768 46.2436C65.0514 41.8545 66.0367 37.6445 66.4846 33.345C66.4846 33.0763 66.6637 31.0161 66.7533 30.8369C66.8429 29.6725 67.649 24.4772 67.8282 23.3128C68.0969 21.3422 68.7239 19.9985 70.3362 18.6549L75.1732 15.3407C76.069 14.7137 82.6974 9.51843 83.414 8.89142C83.9514 8.53313 84.668 8.17484 85.295 7.90612C86.7282 7.90612 93.8045 7.72697 95.2377 7.63739C96.4917 7.63739 97.2979 7.54783 98.3728 7.90612C98.6415 8.08527 101.687 9.24972 102.762 9.69759C105.449 10.862 106.793 13.6388 108.405 15.8782L109.928 17.9384C111.898 20.7151 111.54 23.8502 112.257 27.1644C112.346 27.881 114.138 33.4346 114.317 34.1512C115.302 37.7341 114.765 40.7796 114.317 44.3626L113.779 50.5431C113.6 51.9763 112.705 57.9778 112.436 59.3214C112.346 60.038 111.988 60.665 111.54 61.1128C110.465 62.0981 106.614 66.1289 105.807 66.756C104.822 67.7413 101.866 70.2493 101.687 70.3389L100.702 70.8763C100.523 70.9659 95.7751 71.3242 93.9837 71.4138H86.3699C85.5638 71.4138 81.8912 71.2346 81.0851 71.1451ZM95.5064 67.0247C95.5064 67.0247 95.6856 67.2038 95.7752 67.2934C96.223 67.4726 96.223 66.5768 96.3126 66.5768H96.5813C96.6709 66.4872 96.85 66.3081 96.85 66.3081C95.6856 65.9498 94.8794 63.8896 93.4462 65.5019C94.1628 66.2185 95.2377 65.8602 95.5064 66.3081C95.596 66.3977 95.5064 66.9351 95.5064 67.0247ZM96.85 67.0247C96.5813 67.0247 96.5813 67.5621 96.85 67.5621C97.1188 67.5621 97.1188 67.0247 96.85 67.0247ZM92.1922 66.756C92.0131 66.756 92.0131 67.2934 92.1922 67.2934C92.4609 67.2934 92.4609 66.756 92.1922 66.756ZM93.2671 66.3081V66.756L93.715 66.5768C93.6254 66.3977 93.4462 66.2185 93.2671 66.3081ZM99.4477 66.3081C99.3581 66.3081 99.3581 66.4872 99.4477 66.5768C99.806 66.6664 100.791 66.1289 100.881 65.7707C100.702 65.7707 99.6268 65.7707 99.4477 66.3081ZM92.0131 65.7707V66.3081C92.6401 66.6664 92.9088 65.2332 92.9984 64.9645H92.4609C92.1922 64.6062 92.9088 64.6062 92.7297 64.1583C92.0131 63.7105 92.1026 65.3228 91.2069 64.9645C91.386 65.0541 91.9235 65.5915 92.0131 65.7707ZM97.9249 65.5019C97.8353 65.5915 97.6562 66.129 97.6562 66.3081C98.0145 66.5768 98.8207 65.6811 98.9102 65.2332C98.5519 65.1436 98.0145 65.2332 97.9249 65.5019ZM89.5946 65.5019L89.8633 66.0394V65.5019H89.5946ZM91.7443 66.0394C91.7443 65.8602 91.386 65.8602 91.4756 66.0394C91.4756 66.2185 91.6548 66.2185 91.7443 66.0394ZM99.4477 65.2332C99.1789 65.2332 99.1789 65.7707 99.4477 65.7707C99.6268 65.7707 99.6268 65.2332 99.4477 65.2332ZM96.5813 64.9645C96.3126 64.9645 96.3126 65.5019 96.5813 65.5019C96.85 65.5019 96.85 64.9645 96.5813 64.9645ZM97.3875 63.8896C97.3875 64.0688 97.5666 64.7853 97.6562 64.9645C98.2832 65.3228 98.8207 63.173 98.6415 62.6356C98.5519 62.546 98.1936 62.3669 98.1041 62.3669C97.9249 62.9043 97.7458 63.4417 97.1188 63.173C97.1188 63.3522 97.2979 63.8 97.3875 63.8896ZM99.8955 64.6958C100.791 65.2332 102.224 65.0541 102.493 63.8896C102.583 63.3522 101.687 63.3522 101.418 62.9043C101.418 63.173 101.06 63.8 100.881 63.8896C100.791 63.9792 100.343 63.9792 100.164 63.8896V63.7105C99.9851 63.4417 99.2685 64.2479 99.8955 64.6958ZM96.0439 64.1583C96.223 65.2332 97.0292 64.5166 96.85 64.1583H96.0439ZM95.2377 63.7105C95.2377 63.7105 95.4169 63.8896 95.5064 63.8896C95.8647 63.7105 95.8647 63.3522 95.5064 63.173C95.4169 63.2626 95.2377 63.6209 95.2377 63.7105ZM94.5211 63.173C94.2524 63.173 94.2524 63.7105 94.5211 63.7105C94.7898 63.7105 94.7898 63.173 94.5211 63.173ZM95.7752 62.6356L96.0439 62.9043V62.6356H95.7752ZM101.956 62.3669C101.777 62.3669 101.777 62.7251 101.956 62.6356C102.135 62.6356 102.135 62.4564 101.956 62.3669ZM103.299 62.3669C103.031 62.3669 103.031 62.9043 103.299 62.9043C103.568 62.9043 103.568 62.3669 103.299 62.3669ZM99.6268 62.3669C99.7164 62.2773 99.3581 62.2773 99.4477 62.3669C99.4477 62.546 99.6268 62.546 99.6268 62.3669ZM100.881 62.0981C100.702 62.0981 100.702 62.6356 100.881 62.6356C101.15 62.6356 101.15 62.0981 100.881 62.0981ZM98.6415 61.6503V61.919C98.9102 61.919 99.2685 61.919 99.4477 61.6503H98.6415ZM100.164 61.6503C100.254 61.6503 100.254 61.8294 100.164 61.919C100.791 61.5607 100.343 60.7545 100.164 60.3962C100.164 60.3962 99.9851 60.3962 99.8955 60.3962C99.1789 60.7545 99.9851 61.292 100.164 61.6503ZM102.224 61.3816C101.956 61.3816 101.956 61.919 102.224 61.919C102.493 61.919 102.493 61.3816 102.224 61.3816ZM100.881 60.3962V61.3816H101.15L101.956 59.8588C101.777 59.7692 100.97 60.2171 100.881 60.3962ZM103.299 60.8441V61.1128L103.568 60.8441H103.299ZM101.418 59.3214C101.15 59.3214 101.15 59.8588 101.418 59.8588C101.687 59.8588 101.687 59.3214 101.418 59.3214ZM101.15 58.7839C100.881 58.7839 100.881 59.3214 101.15 59.3214C101.418 59.3214 101.418 58.7839 101.15 58.7839ZM101.418 58.2465L101.956 59.0526C102.672 58.7839 101.866 57.7986 101.418 57.9778C101.418 58.0673 101.418 58.2465 101.418 58.2465ZM103.747 58.7839C103.747 58.6048 103.389 58.9631 103.568 59.0526C103.747 59.1422 103.837 58.9631 103.747 58.7839ZM88.878 58.5152C89.1467 58.6048 90.759 58.7839 91.2069 58.7839C91.9235 58.8735 92.9088 58.7839 93.4462 58.2465C93.8045 57.9778 95.4169 56.3654 95.7752 55.9176C97.7458 53.9469 97.8353 50.9014 98.1041 48.3038C98.2832 46.8706 98.3728 45.527 98.3728 44.0938C98.2832 43.3773 98.1041 36.4801 98.1041 35.6739C98.0145 34.1512 98.0145 26.8957 98.1041 25.373C97.6562 21.7005 96.4917 20.2673 92.9984 19.1924C91.8339 18.9237 91.386 18.8341 90.132 19.1924L87.0865 20.2673C86.1908 20.536 85.3846 21.0734 85.0263 22.0587C82.4287 29.3142 81.9808 36.6592 81.6225 44.3626V49.5578C81.6225 49.5578 82.0704 51.0806 82.16 51.618C82.3391 52.245 82.6974 53.1408 83.2348 53.6782L87.5344 57.9778C87.624 57.9778 87.9822 58.2465 88.0718 58.2465C88.251 58.336 88.7884 58.5152 88.878 58.5152ZM77.0543 57.2612C76.7855 57.2612 76.7855 57.7986 77.0543 57.7986C77.323 57.7986 77.323 57.2612 77.0543 57.2612ZM78.0396 56.1863C77.95 56.0967 77.5917 56.455 77.7709 56.455C77.95 56.5446 78.1292 56.3654 78.0396 56.1863ZM75.1732 54.4844V55.7384C76.1585 55.4697 75.6211 54.4844 75.7107 53.9469C75.8002 53.8574 76.2481 53.4991 76.2481 53.4095V53.1408C76.3377 53.0512 76.5168 52.8721 76.5168 52.8721L76.2481 52.6033C75.5315 53.0512 75.2628 53.5887 75.1732 54.4844ZM74.0088 55.0218C73.74 55.0218 73.74 55.4697 74.0088 55.4697C74.2775 55.4697 74.2775 55.0218 74.0088 55.0218ZM73.2026 54.2157C73.74 55.201 74.3671 53.2304 74.2775 52.8721C73.8296 52.6929 73.0235 53.8574 73.2026 54.2157ZM74.7254 53.9469L74.2775 54.2157C74.4566 54.3052 74.7254 54.1261 74.7254 53.9469ZM74.9045 52.3346C74.9941 52.1555 74.7254 52.1555 74.7254 52.3346C74.7254 52.5138 74.9045 52.5138 74.9045 52.3346ZM74.0088 51.618V51.8868C74.9941 52.1555 75.2628 50.1849 73.74 50.5431V51.618H74.0088ZM71.859 51.0806C72.0381 51.2597 72.7547 51.618 72.9339 51.618V50.8119C72.9339 50.8119 73.2026 50.364 73.2026 50.2744C73.4713 48.8412 72.1277 49.1995 72.3964 49.737C71.9486 49.8266 71.5007 49.8266 71.1424 49.5578C70.9633 49.5578 70.7841 49.9161 70.8737 50.0057C70.9633 50.0953 71.5903 50.5431 71.6799 50.5431C71.6799 50.6327 71.859 51.0806 71.859 51.0806ZM75.9794 51.3493C75.7107 51.3493 75.7107 51.8868 75.9794 51.8868C76.2481 51.8868 76.2481 51.3493 75.9794 51.3493ZM75.7107 50.8119C75.9794 51.0806 76.4273 51.1702 76.7855 51.0806C77.0543 50.6327 76.6064 50.1849 76.2481 50.0057L75.7107 50.5431C75.7107 50.6327 75.7107 50.8119 75.7107 50.8119ZM72.6652 50.2744C72.9339 50.2744 72.9339 50.8119 72.6652 50.8119C72.3964 50.8119 72.3964 50.2744 72.6652 50.2744ZM104.553 50.0057C104.374 50.0057 104.374 50.364 104.553 50.2744C104.643 50.2744 104.643 50.0953 104.553 50.0057ZM106.614 50.2744C106.614 50.1848 106.345 50.1848 106.345 50.2744C106.434 50.4536 106.614 50.4536 106.614 50.2744ZM105.36 49.737C105.36 49.8266 105.718 50.0057 105.807 50.0057C105.897 50.0953 106.076 50.0953 106.076 50.0057C105.897 49.737 105.628 49.6474 105.36 49.5578C105.27 49.5578 105.27 49.737 105.36 49.737ZM74.5462 49.11C74.3671 49.11 74.0088 49.3787 74.0088 49.5578C74.6358 49.6474 75.4419 49.2891 75.7107 48.8412C75.5315 48.8412 74.7254 49.0204 74.5462 49.11ZM107.599 49.2891C107.599 49.2891 107.42 49.4683 107.33 49.5578C107.599 49.6474 107.778 49.3787 107.868 49.2891C107.868 49.1995 107.688 49.1995 107.599 49.2891ZM70.8737 48.0351L71.4111 49.11H71.859C72.2173 48.9308 73.9192 48.3934 74.2775 48.3038C74.3671 47.4081 75.3524 47.1394 74.9045 46.2436C75.8002 45.9749 75.7107 46.7811 75.9794 47.2289C76.3377 47.7664 76.8751 45.8853 75.7107 45.7062V43.8251L76.2481 43.4668C74.7254 42.392 75.1732 44.3626 74.9045 44.9C74.9045 44.9896 73.2922 45.7062 73.74 46.2436H74.2775C74.4566 47.1394 73.6505 47.5872 72.9339 46.9602L73.2026 46.6915C72.8443 46.4228 72.486 46.154 72.3964 45.7062C72.3069 45.7957 71.9486 45.9749 71.859 45.9749C71.859 45.9749 71.5007 45.9749 71.4111 45.9749C70.7841 46.4228 70.6945 47.3185 70.8737 48.0351ZM71.859 48.3038H72.1277C72.2173 48.4829 72.0381 48.7517 71.859 48.8412V48.3038ZM105.628 48.5725C105.36 48.5725 105.36 49.11 105.628 49.11C105.807 49.11 105.807 48.5725 105.628 48.5725ZM76.2481 48.3038C76.2481 48.3038 76.5168 48.483 76.5168 48.5725C77.0543 48.3038 76.696 47.4976 76.2481 47.7664V48.3038ZM107.599 48.0351C107.33 48.0351 107.33 48.5725 107.599 48.5725C107.868 48.5725 107.868 48.0351 107.599 48.0351ZM106.076 47.7664C106.076 47.7664 106.076 47.9455 106.076 48.0351H106.345V47.4976C106.345 47.4976 106.166 47.6768 106.076 47.7664ZM106.793 47.7664C106.793 47.7664 106.793 47.9455 106.793 48.0351L107.599 47.7664C107.599 47.1394 106.793 47.7664 106.793 47.7664ZM105.36 47.2289C105.27 47.3185 105.27 47.6768 105.36 47.7664L106.076 46.9602C106.076 46.9602 105.897 46.9602 105.807 46.9602C105.718 46.9602 105.36 47.2289 105.36 47.2289ZM72.1277 46.4228C72.3069 46.5123 72.3069 47.1394 72.1277 47.2289C71.9486 47.3185 71.9486 46.3332 72.1277 46.4228ZM105.36 46.4228C105.36 46.5123 105.539 46.6915 105.628 46.6915C105.897 46.4228 106.255 46.154 106.345 45.7062C106.255 45.7062 105.091 45.9749 105.36 46.4228ZM69.7988 45.1687V46.4228C69.8884 46.4228 70.0675 46.4228 70.0675 46.4228C70.605 46.2436 70.4258 45.6166 70.3362 45.1687H69.7988ZM107.33 45.9749V46.2436H107.599L107.33 45.9749ZM107.061 44.9C107.061 44.9 107.599 45.6166 107.868 45.4375C107.957 45.3479 107.957 44.9896 107.868 44.9C107.778 44.8104 107.241 44.6313 107.061 44.6313C107.061 44.7209 107.061 44.9 107.061 44.9ZM73.4713 44.6313V45.1687H74.0088V44.6313H73.4713ZM105.36 44.6313C105.27 44.7209 105.27 44.9 105.36 44.9C105.628 45.3479 105.897 44.1834 105.807 43.8251H105.628C105.539 43.9147 105.36 44.4521 105.36 44.6313ZM73.2026 44.3626C73.113 44.273 72.7547 44.5417 72.9339 44.6313C73.0235 44.7209 73.2922 44.5417 73.2026 44.3626ZM106.345 44.3626C106.255 44.3626 106.255 44.7209 106.345 44.6313C106.524 44.6313 106.524 44.4521 106.345 44.3626ZM71.4111 44.0938C72.1277 44.1834 71.9486 44.5417 72.6652 44.3626V43.8251C73.2026 43.7356 74.0088 44.5417 74.2775 43.8251C74.4566 43.2877 74.2775 42.9294 74.7254 42.6607C74.7254 42.5711 75.1732 42.3919 75.1732 42.3919C75.2628 42.3024 74.9045 41.6754 74.9045 41.5858C74.9045 41.4962 75.1732 41.1379 75.1732 41.0483C75.1732 40.9588 74.9941 40.6005 74.9045 40.5109C74.6358 39.9735 74.3671 38.8986 74.0088 38.4507C73.74 38.182 73.0235 38.7194 73.2026 39.2569C73.2026 39.436 73.4713 39.6152 73.74 39.5256C73.8296 39.6152 72.7547 40.5109 72.6652 40.7796C72.5756 40.3318 70.9633 39.7047 70.8737 39.7943V40.3318H70.605V41.8545C71.5903 42.0336 72.486 41.4066 73.74 41.5858C73.8296 42.2128 73.6505 42.8398 73.4713 43.4668H72.9339C72.8443 43.3773 72.7547 42.6607 72.6652 42.6607C72.5756 42.5711 72.0381 42.5711 71.859 42.6607C71.859 42.6607 71.5007 43.1085 71.4111 43.1981C70.9633 43.3773 69.978 42.7503 69.7988 42.6607V43.4668H68.9926C69.6197 44.1834 70.5154 44.0043 71.4111 44.0938ZM106.793 44.0938C106.703 44.0938 106.703 44.4521 106.793 44.3626C106.972 44.3626 106.972 44.1834 106.793 44.0938ZM108.405 43.4668C108.136 43.4668 108.136 43.8251 108.405 43.8251C108.674 43.8251 108.674 43.4668 108.405 43.4668ZM105.36 42.9294C105.718 44.0938 106.614 42.7502 106.614 42.1232C106.255 42.3024 105.18 42.3919 105.36 42.9294ZM72.1277 42.9294C72.3964 42.9294 72.3964 43.4668 72.1277 43.4668C71.859 43.4668 71.859 42.9294 72.1277 42.9294ZM75.1732 42.6607C74.9045 42.6607 74.9045 43.1981 75.1732 43.1981C75.4419 43.1981 75.4419 42.6607 75.1732 42.6607ZM76.5168 41.8545V42.1232L77.0543 41.8545H76.5168ZM69.7988 41.5858C69.5301 41.5858 69.5301 42.1232 69.7988 42.1232C70.0675 42.1232 70.0675 41.5858 69.7988 41.5858ZM105.36 41.5858V41.8545L105.628 41.5858H105.36ZM69.5301 41.3171C69.2614 41.3171 69.2614 41.8545 69.5301 41.8545C69.7988 41.8545 69.7988 41.3171 69.5301 41.3171ZM70.8737 41.3171C71.1424 41.3171 71.1424 41.8545 70.8737 41.8545C70.605 41.8545 70.605 41.3171 70.8737 41.3171ZM73.74 41.0483L73.2026 40.5109C73.5609 39.8839 74.7254 40.6005 74.5462 41.3171C74.2775 41.4066 73.8296 41.1379 73.74 41.0483ZM106.076 40.5109C105.807 40.5109 105.807 41.0483 106.076 41.0483C106.345 41.0483 106.345 40.5109 106.076 40.5109ZM72.9339 39.7943C72.9339 39.6152 72.5756 39.6152 72.6652 39.7943C72.6652 39.9735 72.8443 39.9735 72.9339 39.7943ZM75.1732 38.9882C75.4419 39.3464 75.8002 39.3464 75.9794 38.9882H75.1732ZM71.1424 38.7194C71.3216 38.8986 71.9486 39.0777 72.1277 38.9882V37.4654C72.1277 37.3758 71.6799 36.5697 71.6799 36.4801C71.6799 36.3905 71.859 35.9426 71.859 35.9426V35.1365C71.859 35.0469 72.486 34.7782 72.6652 34.6886L74.7254 33.6137H74.9045L75.7107 34.1512C74.4566 34.6886 72.2173 34.9573 72.6652 37.0175C72.7547 36.928 73.2922 36.7488 73.4713 36.7488C73.4713 36.6592 73.6505 36.4801 73.74 36.4801C73.74 36.3905 74.1879 36.4801 74.2775 36.4801L74.9045 35.6739C74.9941 35.6739 75.1732 35.6739 75.1732 35.6739C75.2628 35.5844 75.4419 34.9573 75.4419 34.8678C75.5315 34.7782 76.2481 34.2407 76.2481 34.1512V33.8825C76.3377 33.7929 76.5168 33.6137 76.5168 33.6137C77.0543 33.4346 77.6813 34.0616 77.5917 34.6886C77.6813 34.7782 78.0396 34.5991 78.0396 34.4199C78.1292 34.0616 78.1292 33.1659 78.0396 33.0763C77.8604 32.8971 77.0543 32.5389 76.7855 32.5389C76.9647 32.091 77.2334 32.4493 77.5917 32.2701C78.3979 31.8223 78.3979 30.5682 78.3083 29.7621H77.7709C78.3083 30.2995 77.0543 31.1057 75.9794 29.7621C76.1585 29.1351 77.5021 29.2246 77.323 30.0308C77.4126 29.9412 77.5917 29.5829 77.5917 29.4934C77.5917 29.4038 77.5917 29.2246 77.5917 29.2246C78.3083 27.6123 79.3832 28.0602 79.1145 25.6417C79.1145 25.6417 79.2936 25.6417 79.3832 25.6417C79.3832 25.7313 79.831 26 79.9206 25.9104C80.4581 25.6417 80.8164 24.0294 80.9059 23.5815C80.4581 23.7606 79.831 23.5815 79.6519 23.1336L81.3538 22.0587C81.3538 21.9692 81.1747 21.79 81.0851 21.79C80.9955 21.79 80.1893 21.6109 80.1893 21.5213C80.0998 21.4317 80.1893 20.8047 80.1893 20.7151C80.0998 20.7151 79.6519 20.536 79.6519 20.4464C78.8457 19.9985 79.9206 19.282 80.4581 18.9237C80.4581 18.9237 80.8164 18.9237 80.9059 18.9237C80.8164 19.1924 81.5329 21.2526 81.6225 21.2526C82.5183 21.163 81.6225 19.0132 81.6225 18.9237C81.7121 18.9237 81.8912 18.7445 81.8912 18.6549C81.8912 18.5654 81.7121 18.2071 81.6225 18.2071C80.9955 18.3862 80.2789 18.2966 79.6519 18.6549C78.7562 19.282 79.0249 20.3568 78.0396 20.9839C77.7709 20.7151 77.6813 20.2673 77.7709 19.9985C77.1438 19.9985 77.0543 20.8943 77.0543 21.2526H76.5168V20.7151C76.4272 20.6256 75.8898 20.6256 75.7107 20.7151C75.1732 21.163 75.6211 22.8649 74.5462 22.0587C74.4566 22.0587 74.2775 21.79 74.2775 21.79C74.0088 21.7004 73.5609 21.7005 73.4713 22.0587L73.2026 21.79C73.113 21.79 72.9339 21.9692 72.9339 22.0587C72.8443 22.1483 72.6652 22.5066 72.6652 22.5962H72.3964C72.3069 22.5962 72.1277 22.7753 72.1277 22.8649L72.6652 23.3128C72.2173 23.3128 71.7694 23.9398 71.6799 24.3877C71.6799 24.5668 71.859 25.2834 71.859 25.373C71.9486 25.5521 72.7547 25.7313 72.9339 25.6417C72.7547 26.2687 71.9486 26.2687 71.6799 25.9104V26.3583C72.2173 26.0896 72.0381 27.254 72.3964 27.4332C72.5756 27.5227 73.2922 27.7019 73.4713 27.7019C73.3817 28.0602 73.5609 29.1351 74.2775 28.7768V28.9559C73.5609 29.1351 72.8443 28.8663 72.3964 28.508C72.3069 28.508 72.1277 28.6872 72.1277 28.7768C71.4111 29.8516 72.8443 29.2246 73.4713 29.7621C72.7547 29.9412 72.0381 30.6578 71.859 31.2848C72.0381 31.1953 72.7547 30.8369 72.9339 30.8369C72.9339 30.7474 73.113 30.7474 73.2026 30.8369C73.2922 30.9265 73.2922 31.464 73.2026 31.5535C73.113 31.6431 72.486 31.8223 72.3964 31.8223C72.2173 31.9118 71.859 32.6284 71.859 32.8076V32.5389C71.5903 32.8971 70.7841 32.6284 70.605 33.0763C70.605 33.1659 70.7841 33.345 70.8737 33.345C71.0528 33.4346 71.9486 33.6137 72.1277 33.6137C72.486 34.6886 71.3216 34.2408 70.8737 34.6886V35.4052C70.8737 35.4052 70.605 35.5844 70.605 35.6739C70.605 35.6739 70.605 35.8531 70.605 35.9426C70.6945 36.2114 70.8737 36.5697 71.1424 36.7488C70.5154 37.0175 71.0528 37.3758 71.1424 37.6445C71.1424 37.8237 71.0528 38.6299 71.1424 38.7194ZM73.4713 37.4654C73.3817 37.6445 73.2026 38.0924 73.2026 38.182H74.9045C75.1732 37.8237 75.5315 37.6445 75.9794 37.4654C75.9794 37.4654 75.2628 37.0175 75.4419 36.7488C74.8149 36.4801 74.4566 37.2863 74.0088 37.4654C73.9192 37.555 73.4713 37.4654 73.4713 37.4654ZM72.9339 37.6445C72.6652 37.6445 72.6652 38.182 72.9339 38.182C73.2026 38.182 73.2026 37.6445 72.9339 37.6445ZM75.9794 36.4801C75.7107 36.4801 75.7107 37.0175 75.9794 37.0175C76.2481 37.0175 76.2481 36.4801 75.9794 36.4801ZM75.7107 36.2114C75.8002 36.0322 75.4419 36.0322 75.4419 36.2114C75.5315 36.3009 75.7107 36.3009 75.7107 36.2114ZM73.74 35.4052C73.74 35.5844 73.5609 35.7635 73.4713 35.6739C73.2922 35.5844 73.6505 35.2261 73.74 35.4052ZM74.0088 35.4052C74.2775 35.4052 74.2775 35.9426 74.0088 35.9426C73.74 35.9426 73.74 35.4052 74.0088 35.4052ZM74.7254 35.1365C74.7254 35.3156 74.6358 35.4948 74.5462 35.4052C74.3671 35.3156 74.7254 34.9573 74.7254 35.1365ZM76.7855 34.8678C76.7855 34.8678 76.6064 35.0469 76.5168 35.1365H77.0543V34.8678C77.0543 34.8678 76.8751 34.8678 76.7855 34.8678ZM74.5462 34.8678C74.4566 35.0469 74.2775 35.0469 74.2775 34.8678C74.1879 34.7782 74.5462 34.7782 74.5462 34.8678ZM76.7855 33.8825C76.5168 33.8825 76.5168 34.4199 76.7855 34.4199C77.0543 34.4199 77.0543 33.8825 76.7855 33.8825ZM73.4713 32.8076C73.4713 32.718 73.6505 32.3597 73.74 32.2701V33.0763H73.4713C73.4713 33.0763 73.4713 32.8972 73.4713 32.8076ZM74.5462 32.5389C74.4566 32.718 74.2775 32.718 74.2775 32.5389C74.1879 32.3597 74.5462 32.3597 74.5462 32.5389ZM74.9045 32.2701C74.9941 32.2701 75.1732 31.8223 75.1732 31.8223C75.1732 31.6431 73.6505 29.8516 74.5462 29.2246C75.2628 29.4934 77.2334 31.6431 76.5168 32.2701C76.5168 32.3597 76.3377 32.3597 76.2481 32.2701C76.2481 32.2701 75.8002 32.0014 75.7107 32.0014C75.7107 32.091 75.2628 32.5389 75.1732 32.5389C75.1732 32.6284 74.9941 32.6284 74.9045 32.5389C74.9045 32.5389 74.9045 32.3597 74.9045 32.2701ZM77.5917 31.5535C77.7709 31.5535 77.7709 32.0014 77.5917 32.0014C77.323 32.0014 77.323 31.5535 77.5917 31.5535ZM70.3362 31.1057C70.3362 31.8223 71.0528 31.5535 71.4111 31.2848C71.4111 30.5682 70.3362 30.5682 70.3362 31.1057ZM74.2775 31.1057C74.5462 31.1057 74.5462 31.5535 74.2775 31.5535C74.0088 31.5535 74.0088 31.1057 74.2775 31.1057ZM75.1732 31.1057C74.9045 31.1057 74.9045 31.5535 75.1732 31.5535C75.4419 31.5535 75.4419 31.1057 75.1732 31.1057ZM77.5917 31.1057C77.6813 31.1057 77.6813 31.2848 77.5917 31.2848C77.4126 31.3744 77.4126 31.0161 77.5917 31.1057ZM71.4111 30.0308C71.4111 30.0308 71.5903 30.2099 71.6799 30.2995V29.7621H71.4111C71.4111 29.7621 71.4111 29.9412 71.4111 30.0308ZM74.9045 28.2393C74.9045 28.2393 74.4566 27.4332 74.9045 27.4332C75.0836 27.5227 75.3524 27.7915 75.1732 27.9706C75.7107 28.1498 76.1585 27.254 76.5168 27.9706C76.696 28.3289 76.2481 28.4185 75.9794 28.508C75.9794 28.508 75.8002 28.508 75.7107 28.508C75.5315 28.4185 74.9941 28.2393 74.9045 28.2393ZM77.5917 27.9706C77.7709 27.9706 77.7709 28.508 77.5917 28.508C77.323 28.508 77.323 27.9706 77.5917 27.9706ZM74.9045 26.627C74.9045 26.5374 74.6358 26.1791 74.5462 26.0896C74.6358 25.7313 75.2628 25.9104 75.4419 25.9104C75.6211 26.1791 75.2628 26.7166 74.9045 26.8957C74.9941 26.8957 74.9941 26.7166 74.9045 26.627ZM73.2026 25.6417C73.4713 25.6417 73.4713 26.0896 73.2026 26.0896C72.9339 26.0896 72.9339 25.6417 73.2026 25.6417ZM78.577 25.1042C78.8457 25.1042 78.8457 25.6417 78.577 25.6417C78.3083 25.6417 78.3083 25.1042 78.577 25.1042ZM79.9206 24.9251C80.0102 24.9251 80.0102 25.1042 79.9206 25.1042C79.7415 25.1938 79.7415 24.8355 79.9206 24.9251ZM73.4713 24.3877C73.3817 24.2981 73.3817 23.9398 73.4713 23.8502H73.74V24.6564C73.6505 24.5668 73.4713 24.3877 73.4713 24.3877ZM78.8457 23.8502H79.3832V24.1189C79.1145 24.2085 78.9353 24.0294 78.8457 23.8502ZM73.2026 23.1336C73.3818 23.1336 73.3818 23.2232 73.2026 23.3128C73.0235 23.3128 73.0235 23.0441 73.2026 23.1336ZM73.74 23.1336L74.0088 22.8649L74.2775 23.1336L74.0088 23.3128L73.74 23.1336ZM78.577 21.79C78.8457 21.7004 79.2936 21.7005 79.3832 22.0587H78.577V21.79ZM80.6372 19.9985V20.7151C80.9955 20.536 80.9955 20.1777 80.6372 19.9985ZM75.7107 20.2673C75.7107 20.1777 75.3524 20.3568 75.4419 20.4464C75.6211 20.536 75.8002 20.3568 75.7107 20.2673ZM75.4419 19.7298C75.1732 19.7298 75.1732 20.2673 75.4419 20.2673C75.7107 20.2673 75.7107 19.7298 75.4419 19.7298ZM77.0543 19.7298C76.9647 19.6403 76.6064 19.909 76.7855 19.9985C76.9647 20.0881 77.1438 19.909 77.0543 19.7298ZM80.4581 19.4611C80.2789 19.4611 80.2789 19.8194 80.4581 19.7298C80.5476 19.7298 80.5476 19.5507 80.4581 19.4611ZM78.8457 19.1924C78.577 19.1924 78.577 19.7298 78.8457 19.7298C79.1145 19.7298 79.1145 19.1924 78.8457 19.1924ZM82.16 18.6549C81.8912 18.6549 81.8912 19.1924 82.16 19.1924C82.4287 19.1924 82.4287 18.6549 82.16 18.6549ZM78.577 18.2071C78.3083 18.2071 78.3083 18.6549 78.577 18.6549C78.8457 18.6549 78.8457 18.2071 78.577 18.2071ZM103.031 16.4156C102.762 16.4156 102.762 16.9531 103.031 16.9531C103.299 16.9531 103.299 16.4156 103.031 16.4156ZM98.6415 16.1469L98.3728 16.4156H99.6268C99.0894 16.2365 98.9102 15.7886 98.3728 15.6094C98.1936 15.7886 98.4624 16.0573 98.6415 16.1469ZM102.224 15.6094C102.045 15.6094 102.045 15.8782 102.224 15.8782C102.404 15.8782 102.404 15.6094 102.224 15.6094ZM101.418 15.3407C101.15 15.3407 101.15 15.8782 101.418 15.8782C101.687 15.8782 101.687 15.3407 101.418 15.3407ZM87.2657 15.072C87.0865 15.072 87.0865 15.6094 87.2657 15.6094C87.5344 15.6094 87.5344 15.072 87.2657 15.072ZM86.8178 14.8033C86.6386 14.8033 86.6386 15.1616 86.8178 15.072C86.9074 15.072 86.9074 14.8929 86.8178 14.8033ZM99.6268 14.3554V14.8033C100.254 15.072 100.523 13.9971 99.8955 13.818C99.8955 13.9076 99.7164 14.2658 99.6268 14.3554ZM91.7443 14.3554C91.7443 14.445 91.7443 14.5346 91.7443 14.5346H92.0131V14.0867C91.9235 14.1763 91.7443 14.3554 91.7443 14.3554ZM96.5813 13.818C96.4917 13.9076 96.3126 14.2658 96.3126 14.3554H96.85V13.818C96.7605 13.818 96.5813 13.818 96.5813 13.818ZM94.5211 13.818L95.0586 14.0867L95.2377 12.4744C94.8794 12.0265 94.8794 13.7284 94.5211 13.818ZM89.8633 13.5492C89.5946 13.5492 89.5946 14.0867 89.8633 14.0867C90.132 14.0867 90.132 13.5492 89.8633 13.5492ZM93.4462 12.2952V12.4744L93.9837 12.2952H93.4462ZM94.2524 12.2952C93.9837 12.2952 93.9837 12.7431 94.2524 12.7431C94.5211 12.7431 94.5211 12.2952 94.2524 12.2952Z" fill="white"/>
<path d="M14.3303 64.1591V10.415C14.3303 6.02585 10.21 7.01117 6 6.83202V5.93628H54.6385V6.83202C50.4285 7.01117 46.3081 6.02585 46.3081 10.415V64.1591C46.3081 68.3691 50.4285 67.5629 54.6385 67.7421V68.6378H32.6034V67.7421C36.8133 67.5629 40.9337 68.3691 40.9337 64.1591V8.08605H19.7048V64.1591C19.7048 68.3691 23.8251 67.5629 28.0351 67.7421V68.6378H6V67.7421C10.21 67.5629 14.3303 68.3691 14.3303 64.1591Z" fill="white"/>
</g>
<defs>
<clipPath id="clip0_283_5446">
<rect width="663" height="74" fill="white"/>
</clipPath>
</defs>
</svg>
