<svg width="663" height="74" viewBox="0 0 663 74" fill="none" xmlns="http://www.w3.org/2000/svg">
<g clip-path="url(#clip0_284_5578)">
<path d="M660.609 67.6512H649.95V50.9905H630.602L625.944 67.6512H615.285L622.809 40.8687H649.95V38.1815H635.887C623.615 38.1815 617.524 29.8512 617.524 21.5208C617.524 13.2801 623.615 4.94971 635.887 4.94971H660.609V67.6512ZM628.542 21.5208C628.542 24.8351 630.961 28.0597 635.798 28.0597H649.95V15.0715H635.798C630.961 15.0715 628.542 18.2962 628.542 21.5208Z" fill="white"/>
<path d="M571.753 53.0519L592.355 4.95086L607.672 4.77173V5.66746C599.073 5.8466 597.729 5.48831 597.729 13.5499V62.7258C597.729 67.1149 601.849 66.5775 606.059 66.7566V67.6524H584.024V66.7566C588.234 66.5775 592.355 67.1149 592.355 62.7258V11.1314L567.005 71.1457H566.199L566.378 9.87742C566.378 5.39874 562.258 6.02576 558.048 5.8466V4.95086C566.378 4.95086 571.753 4.95086 580.083 4.95086V5.8466C575.873 6.02576 571.753 5.39874 571.753 9.87742V53.0519Z" fill="white"/>
<path d="M535.003 4.94971H552.559V67.6512H535.003V40.0626H458.597V67.6512H441.13V4.94971H458.597V22.5061H535.003V4.94971Z" fill="white"/>
<path d="M413.813 70.3395C408.17 70.0708 402.526 69.6229 396.883 69.2647C396.167 69.2647 390.434 69.0855 389.717 68.9959C389.18 68.9959 384.612 68.6376 384.074 68.5481C383.268 68.5481 376.908 68.6376 376.102 68.5481C373.236 68.5481 368.668 68.9064 369.474 64.6964L371.265 54.6642C371.892 51.1708 377.177 53.4997 377.446 49.5585C377.625 44.5423 376.998 39.6158 376.908 34.5997V27.9712C376.819 25.1944 375.475 25.284 372.967 24.3883C372.519 24.1196 371.803 23.5821 371.803 22.776V8.98163C371.803 8.44419 372.43 7.99631 372.788 7.90673H381.745C382.193 7.90673 385.955 8.17546 386.403 8.17546H401.81C402.347 8.08589 405.303 7.7276 405.93 7.7276C408.349 7.54846 419.277 6.74229 421.606 6.65271H425.636C426.084 6.83186 426.711 7.19016 426.711 7.7276V11.4897L425.368 27.7025C425.278 28.5983 424.203 29.2253 423.397 29.2253C422.77 29.3148 419.814 29.3148 419.277 29.2253C418.739 28.9565 418.202 28.5087 418.023 27.9712L415.694 19.9992C415.604 19.5513 415.246 18.566 415.156 18.4764C414.888 17.939 413.902 17.4911 413.365 17.4015H412.38C412.021 17.4015 409.782 17.6703 409.513 17.6703C408.797 17.7598 402.795 17.939 401.989 17.939C401.899 17.939 400.466 18.2077 400.287 18.2077C398.675 18.3869 396.794 18.0286 396.346 19.9992C396.256 20.3575 396.077 21.7011 396.077 21.7906V30.8376C396.077 30.8376 396.435 31.1959 396.615 31.2855C396.973 31.5542 397.242 31.6437 397.689 31.5542C400.108 31.1063 399.839 29.8523 400.556 27.7025C400.914 26.5381 401.272 24.9257 402.258 24.1196C402.974 23.5821 403.87 23.7613 404.676 23.8508C404.855 23.8508 407.005 24.2987 407.722 24.3883C409.782 24.7466 410.499 25.284 410.588 27.5234V33.1665L409.513 51.5291C409.244 51.977 408.707 52.3352 408.17 52.3352H402.795C400.914 52.3352 400.556 45.7068 398.764 44.4528C398.406 44.0945 397.6 43.9153 397.152 43.9153C395.45 43.6466 394.017 43.557 392.315 43.6466C391.509 44.1841 391.419 44.8111 391.509 45.6172L392.315 56.4556C392.405 56.9035 392.763 57.1722 393.121 57.4409C399.481 57.7992 406.199 57.3514 412.559 56.4556C413.992 56.0973 414.261 54.1267 414.35 52.8727C414.44 52.4248 414.798 48.394 414.888 48.0357C415.335 44.4528 419.814 45.0798 422.322 45.1694C422.77 45.3485 423.397 45.7964 423.666 46.1547C423.666 46.2442 423.845 46.7817 423.935 46.9608C424.92 51.3499 424.741 55.4703 425.099 60.0386C425.457 63.4424 426.353 66.1296 426.174 69.5334C425.995 70.0708 425.726 70.4291 425.099 70.6083H421.874C420.262 70.6083 414.708 70.4291 413.813 70.3395ZM418.023 68.0106C418.023 67.9211 417.664 67.9211 417.754 68.0106C417.754 68.1898 417.933 68.1898 418.023 68.0106ZM419.456 67.5628C419.545 67.5628 420.172 68.0106 420.262 68.0106C421.247 68.4585 420.979 65.5921 422.86 66.2192C422.949 65.9504 422.591 65.5921 422.322 65.7713C422.501 65.1443 421.785 64.9651 422.143 64.4277C422.322 64.0694 423.845 63.7111 422.143 63.0841C422.412 63.1737 422.86 62.8154 422.591 62.3675C422.501 62.3675 422.143 62.3675 422.143 62.3675C422.054 62.4571 421.874 62.9049 421.874 62.9049H421.337C421.247 62.5466 421.426 61.3822 422.143 61.9196C421.695 61.203 421.158 60.0386 421.337 59.322H419.725C420.083 58.4263 418.65 57.9784 418.291 57.4409L418.739 56.9931C419.098 57.1722 419.904 57.8888 419.993 58.5158C420.531 58.4262 420.172 57.7097 420.262 57.4409C420.262 57.4409 420.799 57.2618 420.799 57.1722C420.799 57.1722 421.068 56.4556 421.068 56.2765C421.337 54.8433 419.277 55.739 419.277 56.4556C419.008 56.4556 417.754 56.2765 417.485 56.2765C417.396 56.1869 417.306 56.1869 417.306 56.2765V56.9931C417.127 57.1722 416.41 56.2765 416.231 56.9931C416.142 56.9931 415.962 56.8139 415.962 56.7243C415.962 56.4556 416.5 55.8286 416.679 55.739C416.142 54.485 414.44 57.9784 414.35 58.2471C414.619 58.3367 416.142 58.8741 415.156 59.322H413.365C412.29 59.4116 412.29 61.6509 411.036 61.3822C410.588 61.2926 409.424 60.8447 409.244 60.8447C409.155 60.7552 408.797 60.3073 408.707 60.3073C408.349 60.1282 407.901 60.3073 407.901 60.8447H408.707C409.065 61.83 407.722 61.4718 407.901 62.3675C407.99 62.4571 408.17 62.9945 408.17 63.0841C408.17 63.2632 407.811 63.4424 407.722 63.3528C408.08 63.4424 408.08 64.2485 407.901 64.4277C407.811 64.6068 407.184 64.9651 406.916 64.9651C407.722 65.0547 408.438 64.6068 409.244 64.6964C409.244 65.3234 408.349 65.6817 407.901 65.7713L408.438 66.7566C408.528 66.4879 409.334 65.7713 409.513 65.7713C409.692 65.6817 410.588 65.6817 410.767 65.7713V66.2192C410.588 66.1296 410.409 66.3087 410.319 66.4879C410.409 67.0253 411.484 66.4879 412.111 67.0253C412.2 66.5775 411.305 65.7713 412.111 65.5026C411.126 65.5026 413.007 63.4424 413.096 63.0841C413.186 63.0841 413.096 62.7258 413.096 62.6362C413.186 62.4571 413.454 62.2779 413.544 62.3675C413.186 62.5466 413.454 63.1737 413.365 63.3528C413.365 63.4424 413.096 64.3381 413.096 64.4277C413.096 65.1443 414.977 64.4277 415.156 63.8007H414.35C414.44 63.4424 414.619 63.2632 414.888 63.3528C416.59 63.8007 415.515 63.8902 415.962 64.6964C415.962 64.786 416.321 64.9651 416.41 64.9651H418.291L418.739 65.5026C417.664 65.1443 415.425 66.4879 415.962 67.0253C416.052 67.1149 416.5 67.294 416.679 67.294C416.769 67.2045 417.396 66.7566 417.485 66.7566C417.575 66.7566 418.202 67.2045 418.291 67.294C418.381 67.294 419.366 67.4732 419.456 67.5628ZM417.217 67.5628C416.948 67.5628 416.948 68.0106 417.217 68.0106C417.485 68.0106 417.485 67.5628 417.217 67.5628ZM418.471 67.5628C418.291 67.5628 418.291 68.0106 418.471 68.0106C418.739 68.0106 418.739 67.5628 418.471 67.5628ZM408.707 66.7566C408.438 66.7566 408.438 67.294 408.707 67.294C408.976 67.294 408.976 66.7566 408.707 66.7566ZM416.231 66.4879C416.41 66.4879 416.41 67.0253 416.231 67.0253C415.962 67.0253 415.962 66.4879 416.231 66.4879ZM379.416 65.5026C379.416 65.5921 379.685 65.7713 379.685 65.7713C380.402 65.0547 380.939 65.5921 381.298 64.6964C381.566 63.9798 381.387 63.8007 382.014 63.6215C382.104 63.6215 382.641 63.4424 382.82 63.3528C382.641 63.3528 382.462 62.9945 382.552 62.9049C382.552 62.9049 382.91 62.4571 383.089 62.3675C383.537 62.0988 383.447 63.0841 383.806 63.0841C383.985 63.1737 384.97 63.0841 385.06 63.0841C385.149 63.1737 385.597 63.6215 385.597 63.6215C385.687 63.7111 386.045 63.8902 386.134 63.8902C386.224 63.8902 386.403 63.8902 386.403 63.8902C386.493 63.8007 386.672 63.1737 386.672 63.0841L386.941 62.9049C386.941 62.9049 386.941 62.7258 386.941 62.6362C386.224 62.6362 384.97 61.9196 384.343 62.3675C384.253 62.1883 384.074 61.2926 384.074 61.1135C384.253 60.6656 385.239 60.3969 384.791 59.8594C384.522 59.949 384.253 60.0386 384.074 60.3073C382.731 59.5011 384.074 58.695 384.343 57.9784C384.97 56.6348 381.925 57.3514 383.358 57.9784C383.179 58.068 382.82 58.4262 382.82 58.5158C382.731 58.7845 382.731 59.8594 382.82 60.0386C382.462 60.3073 382.014 59.322 381.745 59.0533C380.223 60.3073 379.596 57.8888 379.148 58.5158C379.148 58.6054 378.969 59.2324 378.879 59.322C378.7 59.5907 378.252 58.8741 378.431 58.5158C378.521 58.5158 378.879 58.3367 378.879 58.2471C378.969 58.2471 379.148 58.068 379.148 57.9784C378.431 57.7992 377.267 58.3367 376.64 58.7845L376.102 57.7097C376.013 57.7097 375.744 57.8888 375.654 57.9784C375.654 58.068 375.654 58.5158 375.654 58.5158C375.565 58.6054 375.027 58.7845 374.848 58.7845C375.206 59.5907 375.296 61.6509 376.64 61.6509L375.834 62.0988L375.654 61.9196C374.938 62.1883 375.744 62.9049 375.654 63.3528H377.715C377.177 63.8902 379.148 64.6068 379.416 64.9651C379.506 64.9651 379.416 65.413 379.416 65.5026ZM405.124 64.4277L406.199 65.5026C406.468 65.0547 406.378 64.159 407.184 64.4277V62.6362C407.184 62.6362 406.826 62.4571 406.736 62.3675C405.662 62.1883 405.751 63.3528 405.393 63.8902C405.303 64.0694 405.124 64.4277 405.124 64.4277ZM379.954 64.9651C380.223 64.9651 380.223 65.5026 379.954 65.5026C379.685 65.5026 379.685 64.9651 379.954 64.9651ZM386.403 64.6964L386.672 64.9651V64.6964H386.403ZM385.328 64.4277C385.06 64.4277 385.06 64.9651 385.328 64.9651C385.597 64.9651 385.597 64.4277 385.328 64.4277ZM395.629 63.8902C395.898 64.159 395.988 64.8756 396.346 64.6964C398.496 63.9798 395.898 63.5319 396.346 62.6362C395.988 62.3675 395.181 63.1737 395.629 63.8902ZM382.552 64.159C382.462 64.2485 382.462 64.4277 382.552 64.4277C382.82 64.6068 383.358 63.8902 383.358 63.8902L383.089 63.6215C382.999 63.7111 382.552 64.0694 382.552 64.159ZM391.778 64.159C391.509 64.159 391.509 64.6964 391.778 64.6964C392.046 64.6964 392.046 64.159 391.778 64.159ZM381.745 63.8902C381.566 63.8902 381.566 64.4277 381.745 64.4277C382.014 64.4277 382.014 63.8902 381.745 63.8902ZM394.107 63.0841C394.107 63.2632 394.286 63.9798 394.375 64.159H394.644C394.734 64.159 394.913 63.4424 394.913 63.0841C394.913 63.0841 394.734 62.9049 394.644 62.9049H393.838C393.838 62.9049 394.017 63.0841 394.107 63.0841ZM405.662 63.8902C405.93 63.8902 405.93 64.4277 405.662 64.4277C405.393 64.4277 405.393 63.8902 405.662 63.8902ZM410.319 63.8902C410.678 63.4424 411.932 62.9049 411.573 64.159H410.319C410.23 64.159 410.23 63.9798 410.319 63.8902ZM384.343 63.8902C384.433 63.7111 384.074 63.7111 384.074 63.8902C384.164 64.0694 384.343 64.0694 384.343 63.8902ZM391.778 63.6215L392.046 63.8902L392.315 63.6215H391.778ZM393.121 63.6215C392.942 63.6215 392.942 63.9798 393.121 63.8902C393.211 63.8902 393.211 63.7111 393.121 63.6215ZM397.958 63.3528C397.689 63.3528 397.689 63.8902 397.958 63.8902C398.227 63.8902 398.227 63.3528 397.958 63.3528ZM378.162 63.0841C378.342 63.1737 378.342 63.3528 378.162 63.3528C378.073 63.4424 378.073 63.0841 378.162 63.0841ZM391.24 63.0841C390.971 63.0841 390.971 63.6215 391.24 63.6215C391.509 63.6215 391.509 63.0841 391.24 63.0841ZM406.468 63.0841C406.736 63.0841 406.736 63.6215 406.468 63.6215C406.199 63.6215 406.199 63.0841 406.468 63.0841ZM416.41 63.0841C416.59 63.1737 416.59 63.3528 416.41 63.3528C416.321 63.4424 416.321 63.0841 416.41 63.0841ZM387.209 62.9049C386.941 62.9049 386.941 63.3528 387.209 63.3528C387.389 63.3528 387.389 62.9049 387.209 62.9049ZM388.195 62.3675C388.105 62.5466 387.926 62.9945 387.926 63.0841C388.284 63.4424 388.374 62.4571 388.732 62.3675C389.18 62.3675 390.344 62.6362 390.703 62.0988C390.524 61.8301 390.165 61.3822 389.717 61.3822C389.538 61.2926 388.732 61.2926 388.732 61.3822C388.643 61.3822 388.284 62.0988 388.195 62.3675ZM390.971 62.9049C390.703 62.9049 390.703 63.3528 390.971 63.3528C391.24 63.3528 391.24 62.9049 390.971 62.9049ZM409.244 62.9049C409.065 62.6362 409.692 62.1883 409.782 62.0988V63.0841C409.603 63.2632 409.334 62.9945 409.244 62.9049ZM381.745 62.6362C382.014 62.6362 382.014 63.0841 381.745 63.0841C381.566 63.0841 381.566 62.6362 381.745 62.6362ZM385.597 62.6362C385.866 62.6362 385.866 63.0841 385.597 63.0841C385.328 63.0841 385.328 62.6362 385.597 62.6362ZM392.315 62.0988C392.315 62.2779 392.494 62.8154 392.584 62.9049C392.673 62.9049 393.3 62.9049 393.3 62.6362C393.3 62.6362 393.121 62.1883 393.121 62.0988C393.032 61.9196 393.211 61.203 392.853 61.1135C392.853 61.203 392.673 61.7405 392.584 61.9196L392.315 62.0988ZM407.722 62.6362C407.453 62.6362 407.453 63.0841 407.722 63.0841C407.901 63.0841 407.901 62.6362 407.722 62.6362ZM398.496 62.0988L398.227 62.6362C398.406 62.5466 398.585 62.3675 398.496 62.0988ZM409.513 62.3675C409.244 62.3675 409.244 62.9049 409.513 62.9049C409.782 62.9049 409.782 62.3675 409.513 62.3675ZM394.913 62.0988L394.375 62.3675C394.554 62.5466 394.823 62.2779 394.913 62.0988ZM411.842 62.0988C412.111 62.0988 412.111 62.6362 411.842 62.6362C411.573 62.6362 411.573 62.0988 411.842 62.0988ZM420.799 62.0988C421.068 62.0988 421.068 62.6362 420.799 62.6362C420.531 62.6362 420.531 62.0988 420.799 62.0988ZM382.283 61.9196C382.552 61.9196 382.552 62.3675 382.283 62.3675C382.014 62.3675 382.014 61.9196 382.283 61.9196ZM395.629 61.9196V62.0988C395.898 62.2779 396.077 62.0092 396.077 61.9196L395.898 61.6509C395.898 61.6509 395.719 61.8301 395.629 61.9196ZM375.117 61.6509C374.848 61.6509 374.848 62.0988 375.117 62.0988C375.386 62.0988 375.386 61.6509 375.117 61.6509ZM376.908 61.6509C377.177 61.6509 377.177 62.0988 376.908 62.0988C376.64 62.0988 376.64 61.6509 376.908 61.6509ZM387.389 61.6509V61.9196H387.657V61.6509H387.389ZM413.813 61.6509C413.813 61.5613 413.634 61.3822 413.544 61.3822C414.081 60.6656 414.977 61.7405 413.813 61.9196C413.813 61.8301 413.813 61.6509 413.813 61.6509ZM377.446 61.3822C377.715 61.3822 377.715 61.9196 377.446 61.9196C377.177 61.9196 377.177 61.3822 377.446 61.3822ZM382.014 61.3822C382.193 61.3822 382.193 61.5613 382.014 61.6509C381.835 61.6509 381.835 61.2926 382.014 61.3822ZM383.089 61.3822C383.358 61.3822 383.358 61.9196 383.089 61.9196C382.82 61.9196 382.82 61.3822 383.089 61.3822ZM412.559 61.3822C412.827 61.3822 412.827 61.9196 412.559 61.9196C412.38 61.9196 412.38 61.3822 412.559 61.3822ZM385.866 60.8447C385.866 60.8447 386.582 61.203 386.941 61.3822C386.941 61.3822 387.12 61.3822 387.209 61.3822C387.389 60.4864 386.493 60.3073 385.866 60.576V60.8447ZM383.358 61.1135C383.268 61.203 383.089 61.203 383.089 61.1135C382.999 60.9343 383.358 60.9343 383.358 61.1135ZM412.827 60.8447C413.096 60.8447 413.096 61.3822 412.827 61.3822C412.559 61.3822 412.559 60.8447 412.827 60.8447ZM407.184 60.576C406.916 60.576 406.916 61.1135 407.184 61.1135C407.453 61.1135 407.453 60.576 407.184 60.576ZM413.365 60.576C413.365 60.4864 413.365 60.3073 413.365 60.3073H413.544V60.8447C413.544 60.7552 413.454 60.576 413.365 60.576ZM376.64 60.0386C376.908 59.6803 377.625 59.8594 377.446 60.3073C377.177 60.8447 376.729 60.4864 376.64 60.0386ZM416.41 60.3073C416.679 60.3073 416.679 60.8447 416.41 60.8447C416.231 60.8447 416.231 60.3073 416.41 60.3073ZM409.782 60.0386C409.513 60.0386 409.513 60.576 409.782 60.576C410.051 60.576 410.051 60.0386 409.782 60.0386ZM410.588 60.0386C410.319 60.0386 410.319 60.576 410.588 60.576C410.767 60.576 410.767 60.0386 410.588 60.0386ZM409.513 59.8594C409.244 59.8594 409.244 60.3073 409.513 60.3073C409.782 60.3073 409.782 59.8594 409.513 59.8594ZM379.148 59.5907L379.416 59.8594H379.148V59.5907ZM411.305 59.5907C411.036 59.5907 411.036 60.0386 411.305 60.0386C411.573 60.0386 411.573 59.5907 411.305 59.5907ZM413.813 59.5907C414.081 59.5907 414.081 60.0386 413.813 60.0386C413.544 60.0386 413.544 59.5907 413.813 59.5907ZM375.834 59.322C376.102 59.322 376.102 59.8594 375.834 59.8594C375.654 59.8594 375.654 59.322 375.834 59.322ZM375.386 59.0533H375.654V59.322H375.386V59.0533ZM380.223 58.5158L381.029 59.0533H381.298C381.298 58.8741 381.566 58.1575 381.566 57.9784C381.566 57.9784 381.566 57.7992 381.566 57.7097C381.477 57.7097 381.298 57.7097 381.298 57.7097L380.223 58.5158ZM416.41 57.1722L416.948 57.7097C416.948 57.7097 416.41 58.4263 416.231 58.2471L416.41 57.1722ZM416.948 57.9784C417.217 57.9784 417.217 58.5158 416.948 58.5158C416.679 58.5158 416.679 57.9784 416.948 57.9784ZM415.156 57.7097C415.156 57.8888 414.977 57.8888 414.888 57.7097C414.888 57.5305 415.156 57.5305 415.156 57.7097ZM379.416 56.9931C379.416 57.0827 379.596 57.4409 379.685 57.4409H379.416C379.864 57.1722 380.581 57.1722 381.029 57.1722C381.387 56.5452 379.416 56.4556 379.416 56.9931ZM382.552 56.9931C382.283 56.9931 382.283 57.4409 382.552 57.4409C382.82 57.4409 382.82 56.9931 382.552 56.9931ZM382.014 56.7243C381.745 56.7243 381.745 57.1722 382.014 57.1722C382.283 57.1722 382.283 56.7243 382.014 56.7243ZM381.029 55.739C380.76 55.739 380.76 56.2765 381.029 56.2765C381.297 56.2765 381.297 55.739 381.029 55.739ZM422.143 56.0078C422.143 55.8286 421.516 55.8286 421.606 56.0078C421.695 56.0973 422.054 56.0973 422.143 56.0078ZM418.291 55.2016V55.4703C418.471 55.5599 418.65 55.3808 418.739 55.2016C418.739 55.2016 418.291 54.3954 418.023 54.6642V54.3954C417.485 54.6642 417.754 55.3808 418.291 55.2016ZM384.522 54.9329C384.701 55.0225 385.06 55.2912 385.328 55.2016V54.3954C384.97 54.3059 384.612 54.3954 384.343 54.6642C384.433 54.6642 384.522 54.8433 384.522 54.9329ZM420.262 54.9329V55.2016C420.531 55.2912 420.71 55.112 420.799 54.9329H420.262ZM381.745 54.6642V54.9329H382.283C382.193 54.7537 381.925 54.5746 381.745 54.6642ZM383.626 54.6642C383.447 54.5746 383.447 54.9329 383.626 54.9329C383.716 54.8433 383.716 54.6642 383.626 54.6642ZM420.799 54.2163C420.531 54.2163 420.531 54.6642 420.799 54.6642C421.068 54.6642 421.068 54.2163 420.799 54.2163ZM419.277 53.9476C419.277 54.0371 419.635 54.2163 419.725 54.2163C419.904 53.9476 419.545 53.4997 419.277 53.6789C419.277 53.6789 419.277 53.858 419.277 53.9476ZM419.725 52.3352C419.814 52.4248 419.993 53.0518 419.993 53.1414C420.083 53.231 420.262 53.231 420.262 53.1414C420.262 53.1414 420.262 52.9623 420.262 52.8727C420.262 52.6935 420.083 51.7978 419.993 51.5291L419.456 51.7978C419.545 51.8874 419.725 52.2457 419.725 52.3352ZM381.745 52.3352V52.8727C381.925 52.9623 382.193 52.7831 382.283 52.604C382.193 52.4248 381.925 52.2457 381.745 52.3352ZM385.06 51.5291L384.522 52.3352C384.791 52.3352 385.507 51.9769 385.597 51.7978C385.687 51.7082 385.687 51.2604 385.597 51.0812C385.597 51.0812 385.418 51.0812 385.328 51.0812C385.328 51.1708 385.149 51.5291 385.06 51.5291ZM383.626 51.7978V52.0665H384.343L383.626 51.7978ZM419.277 51.3499C419.187 51.3499 419.187 51.6187 419.277 51.5291C419.366 51.5291 419.366 51.3499 419.277 51.3499ZM381.566 50.8125V51.3499C381.566 51.3499 381.656 51.3499 381.745 51.3499C381.745 51.3499 382.193 51.1708 382.283 51.0812C382.372 51.0812 382.999 51.1708 383.089 51.0812C383.895 50.8125 383.537 49.2002 384.522 49.5585C384.612 49.4689 384.612 49.2897 384.522 49.2897C384.522 49.1106 384.253 48.5732 384.074 48.4836C383.985 49.3793 383.358 48.7523 383.089 50.0959C382.82 51.1708 381.745 50.0959 381.566 50.8125ZM419.456 50.0959L419.277 50.8125C419.545 51.1708 420.083 50.0959 419.456 50.0959ZM385.866 50.3646C385.776 50.1855 385.418 50.5438 385.597 50.5438C385.776 50.6334 385.955 50.4542 385.866 50.3646ZM384.791 49.8272C384.701 49.7376 384.701 50.0959 384.791 50.0959C384.97 50.0063 384.97 49.8272 384.791 49.8272ZM386.134 48.3044L386.403 48.4836C386.493 48.4836 386.851 48.394 386.941 48.3044C386.941 48.2149 386.761 48.0357 386.672 48.0357H385.597V48.3044H386.134ZM403.333 39.2575C403.243 39.3471 403.064 39.5262 403.064 39.5262L404.139 39.2575H403.333ZM401.541 38.9888C401.272 38.9888 401.272 39.5262 401.541 39.5262C401.81 39.5262 401.81 38.9888 401.541 38.9888ZM404.855 38.5409C404.855 38.5409 404.855 38.7201 404.855 38.8096C405.035 38.7201 405.214 38.4513 405.124 38.2722C405.035 38.2722 404.855 38.4513 404.855 38.5409ZM401.989 36.9286C402.079 36.9286 402.258 37.3765 402.258 37.466H402.795C402.795 37.3765 402.795 37.1973 402.795 37.1973C402.795 37.1077 402.526 36.9286 402.526 36.9286C402.258 36.3911 403.691 35.9433 402.795 34.8684C402.616 35.0475 401.899 35.7641 401.81 35.9433C401.72 36.0329 401.541 36.3911 401.541 36.4807C401.631 36.5703 401.989 36.839 401.989 36.9286ZM404.139 36.9286C404.139 36.9286 404.139 37.1077 404.139 37.1973H404.855C405.124 36.7494 404.407 36.7494 404.139 36.9286ZM404.855 35.6746V36.212C404.945 36.0329 405.214 35.6746 405.124 35.4058C405.035 35.4058 404.855 35.585 404.855 35.6746ZM404.676 35.4058C404.676 35.2267 404.318 35.2267 404.408 35.4058C404.408 35.585 404.587 35.585 404.676 35.4058ZM404.139 34.5997C403.87 34.5997 403.87 35.1371 404.139 35.1371C404.407 35.1371 404.407 34.5997 404.139 34.5997ZM404.676 34.331C404.497 34.331 404.497 34.6893 404.676 34.5997C404.766 34.5997 404.766 34.4205 404.676 34.331ZM404.408 33.8831C404.139 33.8831 404.139 34.331 404.408 34.331C404.676 34.331 404.676 33.8831 404.408 33.8831ZM405.393 33.3456C405.124 33.3456 405.124 33.8831 405.393 33.8831C405.662 33.8831 405.662 33.3456 405.393 33.3456ZM403.87 33.1665C403.601 33.1665 403.601 33.6144 403.87 33.6144C404.139 33.6144 404.139 33.1665 403.87 33.1665ZM403.333 32.8978V33.1665H403.601L403.333 32.8978ZM404.855 32.8978C404.676 32.8978 404.676 33.3456 404.855 33.3456C405.124 33.3456 405.124 32.8978 404.855 32.8978ZM405.393 32.629C405.393 32.7186 405.572 33.0769 405.662 33.1665C405.662 33.1665 405.841 33.1665 405.93 33.1665C405.93 32.8978 406.109 32.1812 405.662 32.0916C405.393 32.1812 405.303 32.3603 405.393 32.629ZM404.139 31.8229C403.87 31.8229 403.87 32.3603 404.139 32.3603C404.407 32.3603 404.407 31.8229 404.139 31.8229ZM385.328 31.0167C385.328 31.0167 385.328 31.1959 385.328 31.2855C385.507 31.1959 385.687 31.0167 385.597 30.8376C385.597 30.8376 385.418 31.0167 385.328 31.0167ZM386.403 30.0314C386.314 30.0314 386.134 30.2106 386.134 30.3001C386.403 30.3897 386.582 30.2106 386.672 30.0314H386.403ZM387.657 30.0314C387.568 30.0314 387.568 30.3001 387.657 30.3001C388.105 30.3897 388.553 30.2106 389.001 30.0314C388.643 29.5836 388.016 29.7627 387.657 30.0314ZM384.074 28.6878C383.806 28.6878 383.806 29.2253 384.074 29.2253C384.343 29.2253 384.343 28.6878 384.074 28.6878ZM382.82 27.2546C382.82 27.2546 382.82 27.4338 382.82 27.5234C382.82 27.5234 382.999 27.5234 383.089 27.5234C383.089 27.4338 383.268 27.0755 383.358 26.9859L384.074 27.5234C384.164 27.5234 384.343 27.5234 384.343 27.5234C384.433 27.3442 384.433 26.8068 384.343 26.7172C384.253 26.4485 382.641 26.3589 383.089 25.6423C383.089 25.5527 383.268 25.3736 383.358 25.3736C384.253 25.3736 384.88 26.1798 385.597 25.1945V24.9257C385.597 24.8362 385.866 24.657 385.866 24.657C385.955 25.0153 386.403 25.0153 386.672 24.9257C385.776 23.8508 386.762 23.9404 387.209 23.3134C387.209 23.3134 387.209 22.8655 387.209 22.776C387.209 22.776 387.389 22.4177 387.389 22.3281C387.389 22.3281 387.389 22.1489 387.389 22.0594C387.389 21.9698 387.926 21.1636 387.926 21.0741C387.926 20.9845 387.389 20.5366 387.389 20.5366C387.209 20.0888 388.016 19.6409 388.195 20.2679C388.195 20.3575 388.374 21.4324 388.463 21.6115C388.463 21.6115 389.18 21.7906 389.538 21.7906C389.986 21.8802 390.613 21.9698 390.971 21.6115L390.434 20.8053C390.344 20.0887 391.509 19.82 391.778 19.4617C391.778 19.4617 391.33 19.0139 391.24 19.0139C391.061 18.9243 390.524 18.9243 390.434 19.0139C390.076 19.4617 390.524 21.0741 389.538 21.0741L389.717 19.7305H389.986V18.7452C390.076 18.6556 390.434 18.4764 390.434 18.4764C390.524 18.4764 390.703 18.2077 390.703 18.2077C390.792 18.2077 391.419 18.4764 391.509 18.4764C391.598 18.4764 392.225 18.2077 392.315 18.2077L392.584 18.4764H393.121L393.569 17.939C393.211 17.8494 393.211 17.4015 393.3 17.1328C393.121 17.0433 392.942 17.2224 392.853 17.4015C392.405 17.2224 392.315 16.3267 392.315 16.1475C392.046 16.0579 391.688 16.3267 391.509 16.4162L389.986 15.1622C389.807 14.9831 389.538 14.6248 389.538 14.3561C389.449 14.0873 389.449 12.8333 389.538 12.5646C389.001 12.475 388.284 13.2812 387.926 12.5646C387.836 12.475 387.926 11.848 387.926 11.7584C387.926 11.7584 387.657 11.5793 387.657 11.4897C387.657 11.4897 387.657 11.3105 387.657 11.221C386.941 11.4001 387.12 12.6541 386.134 12.2959V11.4897H385.866V10.7731C385.418 10.6835 384.522 10.7731 384.343 11.221L384.074 10.9522L384.343 10.7731H383.626C382.82 11.1314 382.82 12.2063 381.745 11.7584C381.656 11.7584 381.387 11.221 381.298 11.221C381.208 11.221 380.581 11.7584 380.491 11.7584C380.043 11.7584 379.954 10.7731 378.879 11.4897V11.221C378.7 11.0418 377.983 11.6688 378.162 12.0271H378.7C378.879 13.5499 378.521 14.1769 377.983 15.4309C377.894 15.4309 377.983 15.6101 377.983 15.6996C377.983 15.6996 377.177 16.2371 377.177 15.6996C376.908 15.6996 376.192 16.0579 376.102 16.1475C375.834 16.5058 376.102 17.2224 376.371 17.4015C376.371 17.312 376.819 17.1328 376.908 17.1328C377.625 17.1328 376.64 18.3868 376.64 18.4764C377.356 19.0139 377.267 17.6703 377.715 17.6703C377.804 17.6703 378.7 17.7598 378.431 18.2077C378.431 18.2077 378.252 18.4764 378.162 18.4764C378.162 18.566 377.983 18.9243 377.983 19.0139C378.162 18.9243 379.416 19.0139 379.416 19.4617C379.416 19.6409 379.237 20.1783 379.148 20.2679C379.148 20.2679 378.521 20.1783 378.431 20.2679C378.431 20.2679 378.252 20.7158 378.162 20.8053C378.162 20.8053 377.804 20.9845 377.715 21.0741C378.7 21.8802 378.969 22.4177 379.148 23.5821C379.237 23.5821 379.416 23.5821 379.416 23.5821C379.506 23.5821 379.685 23.3134 379.685 23.3134C379.775 23.3134 380.133 23.5821 380.223 23.5821C380.491 23.6717 381.566 23.6717 381.745 23.5821C381.835 22.776 382.999 22.5968 383.626 22.5072V22.0594C383.537 22.0594 383.089 21.8802 383.089 21.7906C382.999 21.7906 382.999 21.3428 383.089 21.3428C383.537 21.4324 384.164 20.6262 384.343 21.3428C384.433 21.4324 384.522 22.4177 384.522 22.5072C384.522 22.5968 384.791 22.776 384.791 22.776C384.88 22.9551 384.88 23.4926 384.791 23.5821C384.791 23.6717 384.612 23.8508 384.522 23.8508C384.522 23.9404 384.433 24.5674 384.343 24.657C384.343 24.7466 384.164 24.7466 384.074 24.657V23.8508H383.626C383.537 23.8508 383.358 23.5821 383.358 23.5821H382.283V24.1196C382.462 24.2091 382.731 24.03 382.82 23.8508L383.358 24.3883C382.731 24.3883 382.552 25.0153 382.552 25.3736C382.462 25.6423 382.462 26.7172 382.552 26.9859C382.552 26.9859 382.731 27.1651 382.82 27.2546ZM381.566 26.4485V26.7172H381.745L381.566 26.4485ZM382.014 25.911C381.745 25.911 381.745 26.4485 382.014 26.4485C382.283 26.4485 382.283 25.911 382.014 25.911ZM388.195 25.1945C388.016 25.1049 388.016 25.3736 388.195 25.3736C388.374 25.284 388.374 25.1945 388.195 25.1945ZM383.626 24.657C383.626 24.8362 383.447 25.0153 383.358 24.9257C383.179 24.8362 383.537 24.4779 383.626 24.657ZM387.657 23.8508C387.747 24.03 388.105 24.2091 388.195 24.1196L389.001 23.0447C388.822 23.2238 387.389 23.4926 387.657 23.8508ZM421.606 23.5821L421.337 23.8508H421.606V23.5821ZM385.597 22.0594C385.776 21.2532 386.582 20.6262 386.403 19.7305C386.582 19.6409 386.851 19.82 386.941 19.9992C386.941 20.1783 386.761 21.0741 386.672 21.3428C386.582 21.4324 386.224 21.6115 386.134 21.6115L386.403 22.0594C385.776 21.9698 385.687 22.776 385.866 23.0447H385.597V22.0594ZM421.606 23.0447C421.606 22.8655 421.337 22.8655 421.337 23.0447C421.337 23.2238 421.516 23.2238 421.606 23.0447ZM386.672 22.5072C386.761 22.6864 386.582 22.8655 386.403 22.776C386.224 22.6864 386.582 22.4177 386.672 22.5072ZM380.223 22.3281C380.223 22.3281 380.043 22.3281 379.954 22.3281V21.6115H380.76C380.76 21.5219 380.76 21.3428 380.76 21.3428C380.67 21.1636 380.133 20.6262 379.954 20.5366C380.402 20.3575 380.939 19.9992 381.298 19.7305V20.8053C381.835 20.447 382.82 21.6115 382.552 21.7906C382.462 21.8802 381.835 22.0594 381.745 22.0594C380.939 22.4177 381.208 22.5968 380.223 22.3281ZM388.195 22.5072C388.195 22.4177 387.836 22.4177 387.926 22.5072C387.926 22.6864 388.105 22.6864 388.195 22.5072ZM421.337 22.0594C421.606 22.4177 422.591 23.1343 422.86 22.3281L422.591 22.0594C422.86 21.9698 423.128 21.2532 423.128 21.0741C423.039 20.8053 422.322 19.9096 421.874 20.2679C421.785 20.1783 421.785 19.9992 421.874 19.9992C421.874 19.9096 422.233 19.7305 422.322 19.7305V19.2826C422.322 19.193 422.591 18.566 422.591 18.4764V17.6703C422.501 17.4911 422.053 16.9537 421.874 16.8641C421.874 17.0433 421.695 17.7598 421.606 17.939C421.606 18.0286 421.337 18.3868 421.337 18.4764C421.337 18.566 421.337 18.7452 421.337 18.7452H419.993C420.172 18.1181 419.904 18.0286 419.725 17.4015C419.545 16.5954 420.531 15.1622 421.606 15.4309C421.695 15.2518 421.247 13.9082 421.068 13.8186C420.62 14.356 419.993 15.0726 419.277 14.8935V14.6248L420.262 14.0873C419.635 14.0873 420.262 13.3707 420.262 13.3707C420.172 13.3707 419.814 13.1916 419.725 13.102V12.8333H419.993V12.5646C418.918 12.8333 418.739 11.7584 417.217 12.0271C417.037 12.0271 416.5 12.7437 416.41 12.0271C416.321 11.848 416.321 10.9522 416.41 10.7731C416.321 10.6835 415.962 10.7731 415.962 10.9522C415.873 11.221 415.694 12.5646 415.694 12.8333C414.888 13.3707 414.708 11.5793 413.813 12.0271V12.5646H413.365C413.096 12.0271 414.081 11.6688 413.813 10.9522C413.454 10.7731 411.932 12.0271 411.573 12.2959C411.394 12.2063 411.215 12.0271 411.305 11.7584C410.857 12.0271 410.498 12.2063 410.051 12.2959L410.319 12.5646H409.782V11.4897H408.976C408.886 12.2063 409.244 14.1769 410.051 14.6248C410.14 14.6248 410.499 14.3561 410.588 14.3561H410.767C410.857 14.2665 411.036 14.0873 411.036 14.0873V12.8333C411.842 12.475 411.215 13.9977 412.38 13.8186C412.469 13.8186 413.275 13.6395 413.365 13.6395C413.454 13.6395 413.544 13.6395 413.544 13.6395V13.9082H415.156C415.425 13.9082 415.425 14.9831 415.425 15.1622H415.694C415.783 14.8039 416.321 13.729 416.679 13.6395C417.396 13.3707 417.844 13.729 417.754 14.3561C417.664 14.4456 417.396 15.0726 417.485 15.1622C417.485 15.1622 417.933 15.6101 418.023 15.6996C418.023 15.6996 418.023 15.8788 418.023 15.9684C417.485 16.0579 416.142 15.2518 415.962 15.9684H416.679L417.217 17.6703C417.217 17.7598 417.396 18.1181 417.485 18.2077C417.664 18.4764 419.814 19.2826 418.739 19.7305L418.471 19.2826L418.023 19.4617C418.023 19.5513 418.471 20.0888 418.471 20.2679C418.56 20.2679 418.739 20.447 418.739 20.5366C418.829 20.6262 419.277 21.5219 419.277 21.6115L419.725 21.7906C419.814 21.8802 419.814 22.0594 419.725 22.0594C419.904 21.6115 420.62 21.3428 421.068 21.6115C421.158 21.6115 421.337 22.0594 421.337 22.0594ZM381.029 22.0594C381.029 21.9698 380.76 21.9698 380.76 22.0594C380.76 22.2385 381.029 22.2385 381.029 22.0594ZM422.322 21.3428C422.591 21.3428 422.591 21.7906 422.322 21.7906C422.143 21.7906 422.143 21.3428 422.322 21.3428ZM379.148 20.8053H379.416L379.148 21.0741V20.8053ZM383.089 20.5366C383.089 20.6262 382.91 20.8053 382.82 20.8053C382.641 20.7158 382.999 20.3575 383.089 20.5366ZM419.456 20.2679V20.5366H419.277L419.456 20.2679ZM421.068 20.2679C421.068 20.1783 421.068 19.9992 421.068 19.9992H421.337V20.5366C421.247 20.447 421.068 20.2679 421.068 20.2679ZM385.328 19.4617V19.7305H385.06L385.328 19.4617ZM420.799 19.2826C421.068 19.2826 421.068 19.7305 420.799 19.7305C420.531 19.7305 420.531 19.2826 420.799 19.2826ZM421.606 19.0139H421.874V19.4617H421.606V19.0139ZM379.685 19.0139V18.7452H379.954V19.2826C379.954 19.2826 379.775 19.1034 379.685 19.0139ZM387.209 19.0139C387.389 19.0139 387.389 19.4617 387.209 19.4617C386.941 19.4617 386.941 19.0139 387.209 19.0139ZM378.879 18.4764C378.879 18.6556 378.7 18.6556 378.7 18.4764C378.7 18.2973 378.969 18.2973 378.879 18.4764ZM389.717 18.2077C389.986 18.2077 389.986 18.7452 389.717 18.7452C389.538 18.7452 389.538 18.2077 389.717 18.2077ZM388.195 17.4015C388.374 17.312 388.643 17.4911 388.732 17.6703C388.463 17.7598 388.284 17.5807 388.195 17.4015ZM383.089 17.1328L383.358 17.4015H383.089V17.1328ZM418.023 17.1328C418.112 17.0433 418.65 16.8641 418.739 16.8641C419.008 17.4015 418.291 17.4911 418.023 17.4015C417.933 17.4015 417.933 17.2224 418.023 17.1328ZM377.446 16.5954C377.446 15.9684 378.521 15.8788 378.879 15.9684C379.596 15.9684 378.969 17.312 378.7 16.8641V16.5954C378.61 16.685 378.073 16.8641 377.983 16.8641C377.804 16.9537 377.446 16.8641 377.446 16.5954ZM387.389 16.5954V16.8641H387.209L387.389 16.5954ZM391.24 16.5954C391.509 16.5954 391.509 17.1328 391.24 17.1328C390.971 17.1328 390.971 16.5954 391.24 16.5954ZM388.195 16.4162C388.105 16.4162 388.105 16.2371 388.195 16.1475C388.643 15.9684 389.27 16.2371 389.538 16.5954C389.09 16.685 388.463 16.685 388.195 16.4162ZM381.029 15.9684C381.208 15.9684 381.387 16.2371 381.298 16.4162H381.029V15.9684ZM418.739 16.1475V15.9684H419.277V16.4162C419.098 16.5954 418.829 16.3267 418.739 16.1475ZM379.685 15.6996C379.954 15.5205 380.133 15.7892 380.223 15.9684C380.133 16.0579 379.954 16.3267 379.685 16.1475V15.6996ZM382.552 14.0873L382.82 13.8186C382.82 13.8186 383.537 16.5954 382.552 16.1475V14.0873ZM394.644 15.4309C394.554 15.4309 394.375 15.6101 394.375 15.6996C394.554 15.7892 394.823 15.6101 394.913 15.4309C394.823 15.3413 394.644 15.3413 394.644 15.4309ZM395.898 15.4309C395.898 16.0579 397.6 15.3414 397.689 15.1622C398.048 14.6248 398.317 13.729 398.496 13.102C398.764 13.2812 398.944 13.6395 399.033 13.8186L400.287 13.102V13.8186H399.481C399.302 14.2665 400.018 15.5205 400.287 15.1622L401.81 12.8333V12.5646C401.362 12.7437 400.287 11.7584 400.018 11.4897C399.66 11.7584 399.571 12.475 399.212 12.5646H398.227C397.958 12.5646 397.6 12.2959 397.421 12.0271C396.973 12.2063 396.973 13.1916 396.883 13.3707C396.435 14.356 395.719 12.8333 395.629 12.5646C395.629 12.475 395.988 11.848 395.898 11.7584C395.898 11.7584 395.54 11.5793 395.361 11.4897H395.181C394.823 11.5793 394.107 11.7584 394.107 11.7584C394.017 11.848 394.107 12.7437 394.107 12.8333C394.017 12.9229 393.569 13.2812 393.569 13.3707C393.48 13.6395 394.196 13.9082 393.569 14.0873C393.48 14.0873 392.942 13.9977 392.853 14.0873C392.405 14.2665 392.494 14.9831 392.853 15.1622C393.121 14.8039 393.48 14.2665 393.838 14.8935C394.465 13.2812 395.271 14.6248 396.077 14.3561C396.167 14.3561 396.346 14.0873 396.346 14.0873C396.615 14.0873 397.331 14.5352 397.152 14.8935C396.704 14.6248 395.898 14.6248 395.898 15.4309ZM417.485 15.4309C417.217 15.4309 417.217 15.9684 417.485 15.9684C417.754 15.9684 417.754 15.4309 417.485 15.4309ZM376.64 15.1622C376.371 15.1622 376.371 15.6996 376.64 15.6996C376.908 15.6996 376.908 15.1622 376.64 15.1622ZM389.001 15.1622H389.27V15.4309H389.001V15.1622ZM414.888 15.1622C414.619 15.1622 414.619 15.6996 414.888 15.6996C415.156 15.6996 415.156 15.1622 414.888 15.1622ZM413.365 14.8935C413.365 14.8935 413.365 15.0726 413.365 15.1622C413.992 15.3414 414.35 14.7143 415.156 14.8935C414.977 14.4456 413.992 14.3561 413.813 14.3561C413.813 14.3561 413.454 14.7143 413.365 14.8935ZM376.64 14.0873C376.55 14.1769 376.55 14.7143 376.64 14.8935H377.983L378.162 14.6248C378.073 14.356 376.819 13.2812 376.64 14.0873ZM378.879 14.6248C379.148 14.6248 379.148 15.1622 378.879 15.1622C378.7 15.1622 378.7 14.6248 378.879 14.6248ZM379.685 14.6248C379.685 14.5352 379.954 14.3561 379.954 14.3561V13.8186C381.208 13.9977 380.043 15.0726 379.685 14.8935C379.685 14.8039 379.685 14.6248 379.685 14.6248ZM380.76 14.6248L381.029 14.0873C381.118 14.2665 381.387 14.6248 381.298 14.8935L380.76 14.6248ZM416.41 14.6248C416.41 14.6248 416.41 14.8039 416.41 14.8935H416.948L416.679 14.3561C416.589 14.3561 416.41 14.5352 416.41 14.6248ZM408.17 14.3561C408.259 14.4456 408.617 14.6248 408.707 14.6248C408.797 14.5352 408.797 14.3561 408.707 14.3561C408.617 14.2665 408.259 14.0873 408.17 14.0873C408.17 14.0873 408.17 14.2665 408.17 14.3561ZM421.606 14.0873C421.337 14.0873 421.337 14.6248 421.606 14.6248C421.874 14.6248 421.874 14.0873 421.606 14.0873ZM385.866 13.8186C385.866 13.729 386.045 13.1916 386.134 13.102C386.582 13.2812 386.582 13.9082 386.134 14.0873C386.045 14.0873 385.866 13.9082 385.866 13.8186ZM402.258 14.0873C402.347 13.9082 401.989 13.9082 401.989 14.0873C402.079 14.2665 402.258 14.2665 402.258 14.0873ZM403.601 13.6395C403.512 13.729 403.333 13.9977 403.333 14.0873C403.422 14.0873 403.78 13.9082 403.87 13.8186C403.87 13.729 403.87 13.6395 403.87 13.6395C403.87 13.5499 403.691 13.5499 403.601 13.6395ZM381.745 13.6395C382.014 13.6395 382.014 14.0873 381.745 14.0873C381.566 14.0873 381.566 13.6395 381.745 13.6395ZM381.029 13.3707L381.298 13.6395H381.029V13.3707ZM383.626 13.3707C383.806 13.2812 383.985 13.4603 384.074 13.6395C383.895 13.729 383.716 13.5499 383.626 13.3707ZM377.983 13.102C377.715 13.102 377.715 13.6395 377.983 13.6395C378.162 13.6395 378.162 13.102 377.983 13.102ZM391.509 13.102C391.598 13.2812 391.867 13.4603 392.046 13.3707V13.102H391.509ZM419.277 13.102C419.366 13.102 419.366 13.3707 419.277 13.3707C419.187 13.3707 419.187 13.102 419.277 13.102ZM407.453 12.8333C407.184 12.8333 407.184 13.3707 407.453 13.3707C407.722 13.3707 407.722 12.8333 407.453 12.8333ZM421.337 12.8333C421.247 12.6542 420.889 13.0124 421.068 13.102C421.247 13.1916 421.426 13.0124 421.337 12.8333ZM421.874 12.8333C421.695 12.8333 421.695 13.102 421.874 13.102C422.053 13.102 422.053 12.8333 421.874 12.8333ZM403.333 12.2959C403.243 12.3854 403.064 12.7437 403.064 12.8333H403.601C403.691 12.8333 404.587 12.5646 404.676 12.5646C404.945 12.5646 405.214 13.102 405.662 12.8333C405.662 12.8333 405.841 12.3854 405.93 12.2959C406.199 12.0271 406.378 12.7437 406.736 12.5646C407.005 12.3854 407.363 11.5793 407.184 11.221C407.005 11.4001 405.93 11.9376 405.662 12.0271C404.855 12.2063 404.049 11.7584 403.333 12.2959ZM376.908 12.2959C376.998 12.475 377.177 12.6541 377.446 12.5646V12.0271C377.177 11.9376 376.998 12.1167 376.908 12.2959ZM384.522 12.2959V11.7584C385.149 11.5793 385.507 12.0271 385.328 12.5646C385.328 12.5646 385.149 12.5646 385.06 12.5646C384.97 12.5646 384.612 12.3854 384.522 12.2959ZM392.315 12.0271V12.5646H392.853C393.032 12.2958 392.584 11.9376 392.315 12.0271ZM407.722 12.2959C407.453 12.2959 407.453 12.8333 407.722 12.8333C407.901 12.8333 407.901 12.2959 407.722 12.2959ZM383.626 12.0271H383.806L383.626 12.2959V12.0271ZM384.074 12.0271C384.343 12.0271 384.343 12.5646 384.074 12.5646C383.806 12.5646 383.806 12.0271 384.074 12.0271ZM379.148 11.7584C379.416 11.7584 379.416 12.2959 379.148 12.2959C378.879 12.2959 378.879 11.7584 379.148 11.7584ZM387.657 11.7584C387.926 11.7584 387.926 12.2959 387.657 12.2959C387.389 12.2959 387.389 11.7584 387.657 11.7584ZM391.509 11.7584V12.0271C391.778 12.1167 391.957 11.9375 392.046 11.7584H391.509ZM396.615 11.7584C396.346 11.7584 396.346 12.2959 396.615 12.2959C396.883 12.2959 396.883 11.7584 396.615 11.7584ZM408.17 11.7584C407.901 11.7584 407.901 12.2959 408.17 12.2959C408.438 12.2959 408.438 11.7584 408.17 11.7584ZM406.468 10.9522C406.199 10.9522 406.199 11.4897 406.468 11.4897C406.736 11.4897 406.736 10.9522 406.468 10.9522ZM410.767 10.9522C410.588 10.9522 410.588 11.4897 410.767 11.4897C411.036 11.4897 411.036 10.9522 410.767 10.9522ZM414.35 10.7731C414.081 10.7731 414.081 11.221 414.35 11.221C414.619 11.221 414.619 10.7731 414.35 10.7731ZM408.17 10.5044C407.901 10.5044 407.901 10.9522 408.17 10.9522C408.438 10.9522 408.438 10.5044 408.17 10.5044ZM412.111 10.5044C411.842 10.5044 411.842 10.9522 412.111 10.9522C412.38 10.9522 412.38 10.5044 412.111 10.5044Z" fill="white"/>
<path d="M359.884 62.8152C359.884 67.2043 364.004 66.4877 368.304 66.6669V67.7418H346.269V66.6669C350.568 66.4877 354.51 67.2043 354.51 62.8152C354.51 44.0943 354.689 25.3734 354.689 6.8317H334.624L334.445 42.5716C333.908 58.3365 334.893 68.4583 327.548 68.4583C325.577 68.4583 324.234 67.5626 322.8 66.3981L323.159 73.6536H322.532L315.903 44.9901H316.978C319.934 59.1427 324.055 65.8607 327.727 65.8607C331.22 65.8607 332.474 64.965 332.474 38.5408V11.9374C332.474 5.57767 327.906 5.84639 324.413 5.84639V4.86108H368.304V5.84639C364.004 6.02554 359.884 5.39853 359.884 9.87721V62.8152Z" fill="white"/>
<path d="M275.575 4.94971C292.862 4.94971 306.836 4.94971 306.836 36.3005C306.836 67.6512 292.862 67.6512 275.485 67.6512H226.309C209.021 67.6512 195.048 67.6512 195.048 36.3005C195.048 4.94971 209.021 4.94971 226.309 4.94971H275.575ZM275.754 50.1844C283.367 50.1844 289.548 50.1844 289.548 36.39C289.548 22.5957 283.367 22.5957 275.754 22.5957H226.309C218.695 22.5957 212.515 22.5957 212.515 36.39C212.515 50.1844 218.695 50.1844 226.309 50.1844H275.754Z" fill="white"/>
<path d="M150.793 35.0464L146.852 40.5104V62.7247C146.852 67.1138 150.973 66.5763 155.183 66.7555V67.6512H133.147V66.7555C137.357 66.5763 141.478 67.1138 141.478 62.7247V9.87627C141.478 5.48716 137.357 6.0246 133.147 5.84545V4.94971C141.478 4.94971 146.852 4.94971 155.183 4.94971V5.84545C150.973 6.0246 146.852 5.48716 146.852 9.87627V37.0171C155.183 26.4474 160.288 19.8189 168.26 8.80138C170.32 6.02459 164.409 6.0246 160.199 5.84545V4.94971H178.472V5.84545C174.262 6.0246 172.47 6.20375 170.231 9.24926L154.108 31.0156L175.964 62.7247C177.576 65.0536 182.055 66.5763 186.265 66.7555V67.6512H172.649L150.793 35.0464Z" fill="white"/>
<path d="M98.106 68.5474C81.2661 68.5474 66.2178 55.828 66.2178 36.3009C66.2178 16.953 81.2661 4.05444 98.106 4.05444C114.856 4.05444 129.994 16.953 129.994 36.3009C129.994 55.828 114.856 68.5474 98.106 68.5474ZM77.2353 36.3009C77.2353 49.737 86.9988 58.0673 98.106 58.0673C109.124 58.0673 118.977 49.737 118.977 36.3009C118.977 23.044 109.124 14.5345 98.106 14.5345C86.9988 14.5345 77.2353 23.044 77.2353 36.3009Z" fill="white"/>
<path d="M7.10996 71.9523C6.21422 71.9523 5.5872 71.594 5.31848 70.6982C4.96019 67.1153 4.96019 62.9949 5.04976 59.412C5.67678 57.4414 8.54313 57.9788 8.54313 55.5603V26.001C8.54313 25.374 8.991 18.1186 9.08057 15.7896C9.25972 13.7294 10.245 11.311 11.9469 10.1465C12.0365 10.0569 12.5739 9.87778 12.7531 9.87778C13.1114 9.78821 14.6341 9.60905 14.9924 9.60905C27.7119 8.98203 41.1479 8.89248 53.8674 9.07162C56.1067 9.69864 56.2859 11.4901 56.1067 13.7294C56.1067 14.6252 55.3901 22.0598 55.3005 22.8659V23.9408C55.5693 26.2697 55.838 28.5091 55.3005 30.9276C55.211 33.7044 54.584 46.3342 54.4048 49.111C54.3152 49.3797 54.1361 51.2608 54.1361 51.4399C54.0465 51.7982 54.0465 53.8584 54.1361 54.3063C54.1361 55.5603 57.5399 55.2916 57.719 57.1726V59.412C57.719 60.1286 57.2712 64.2489 57.1816 65.3238C57.0024 66.9361 56.5546 68.8172 54.6735 68.9068C48.7617 69.1755 42.8498 68.5485 36.938 68.7276C35.6839 68.3693 35.4152 67.2049 35.5944 66.0404C35.6839 64.7864 36.4901 58.8745 36.6692 57.5309L38.1024 28.7778C38.2816 28.5091 38.6399 27.3446 38.6399 27.0759C38.7294 26.7176 38.7294 25.1949 38.6399 24.747C38.6399 24.2095 37.8337 23.493 37.3858 23.4034C37.0275 23.3138 35.5944 23.1347 35.3256 23.1347H27.0849C26.637 23.3138 26.0996 23.6721 26.01 24.2096C26.01 24.6574 25.9204 26.5385 25.8308 27.0759C25.8308 28.0612 25.6517 35.7645 25.6517 38.0935C25.5621 38.81 25.5621 41.3181 25.6517 41.6764L26.2787 57.5309C26.4579 61.1139 30.7574 59.9494 30.7574 61.7409V70.4295C30.7574 71.1461 30.2199 71.594 29.6825 71.6836C22.2479 72.7584 14.5446 72.221 7.10996 71.9523ZM17.1422 67.9215C17.1422 67.9215 17.1422 68.1006 17.1422 68.1902C17.1422 68.1902 17.5005 68.1902 17.5901 68.1902C17.5901 68.1006 17.7692 67.6527 17.8588 67.6527C17.9484 67.5632 19.8294 68.2797 20.0981 68.1902C20.9043 67.9215 20.2773 66.8466 19.7398 67.1153C19.6503 67.0257 19.6503 66.6674 19.7398 66.5779C19.8294 66.3987 20.4564 66.0404 20.6356 66.0404C20.7251 66.0404 21.3522 66.3091 21.4417 66.3091H21.9792V64.6968H22.7853C22.6958 64.6072 22.2479 63.8907 22.2479 63.7115L22.5166 63.2636C22.6062 62.7262 22.427 62.1888 22.9645 61.7409H22.7853C22.427 61.7409 21.2626 61.92 21.173 62.0096C20.7251 62.0992 20.9939 62.8158 20.9043 62.9949C20.8147 63.6219 20.546 63.6219 20.6356 64.2489C20.4564 64.2489 19.8294 64.4281 19.7398 64.5177C19.6503 64.6072 19.7398 65.2343 19.7398 65.3238C19.6503 65.503 19.4711 65.8613 19.4711 65.8613H18.6649C18.7545 65.2343 18.3962 64.2489 17.8588 63.9802C17.7692 63.9802 17.4109 63.8011 17.3213 63.7115C17.5005 63.6219 18.4858 63.1741 18.6649 63.2636C18.7545 63.2636 19.292 63.7115 19.4711 63.7115C19.919 63.7115 20.546 62.2783 20.3668 61.7409H19.7398C19.3815 61.6513 18.6649 61.4722 18.6649 61.4722V59.9494C18.6649 59.9494 18.0379 59.7703 17.8588 59.6807C17.7692 59.6807 17.5901 59.6807 17.5901 59.6807C17.7692 60.5764 17.3213 61.4722 16.6048 62.0096C17.1422 62.1887 17.2318 62.9949 17.1422 63.4428C16.4256 63.9802 15.7986 61.6513 14.7237 62.2783L14.0071 62.9949C14.0071 62.9949 14.0967 63.4428 14.0071 63.4428C14.0071 63.5324 13.828 63.9802 13.828 63.9802C13.828 64.0698 14.0071 64.0698 14.0071 63.9802C14.1863 63.9802 14.9029 63.5324 14.9924 63.4428H16.0673C16.1569 63.5324 16.336 64.0698 16.336 64.2489C16.336 64.4281 15.9777 65.2343 15.7986 65.3238C16.0673 65.6821 17.1422 66.0404 16.8735 66.3091C16.336 66.13 15.6194 66.5779 15.2612 66.8466C15.5299 67.384 16.336 67.7423 16.8735 67.6527C17.0526 67.6527 17.3213 67.2049 17.3213 67.1153L17.5901 67.384C17.5005 67.4736 17.1422 67.8319 17.1422 67.9215ZM20.9043 67.1153C21.5313 68.3693 22.2479 67.2944 22.7853 67.1153C23.3228 66.9361 23.3228 67.5632 23.7706 67.384L24.8455 66.8466C24.0394 65.8613 22.8749 66.6674 21.9792 66.8466C21.8 66.8466 21.0834 66.6674 20.9043 67.1153ZM22.9645 67.384C22.8749 67.2945 22.8749 67.6527 22.9645 67.6527C23.1436 67.5632 23.1436 67.384 22.9645 67.384ZM24.8455 67.384C24.5768 67.384 24.5768 67.9215 24.8455 67.9215C25.1142 67.9215 25.1142 67.384 24.8455 67.384ZM14.0071 67.1153C14.0071 67.2944 14.3654 67.4736 14.455 67.384C14.5446 67.1153 14.5446 66.6674 14.2758 66.5779C14.2758 66.6674 14.0071 67.0257 14.0071 67.1153ZM12.4844 66.8466C12.4844 66.8466 12.4844 67.0257 12.4844 67.1153C12.7531 67.0257 13.1114 67.0257 13.2905 67.384L14.0071 65.8613C14.2758 65.3238 14.8133 65.8613 14.9924 65.3238C15.1716 64.9655 14.9924 64.5177 14.7237 64.2489L14.0071 64.7864C14.0071 64.876 14.0967 65.3238 14.0071 65.3238C14.0071 65.4134 12.7531 66.2196 12.4844 66.8466ZM9.88674 66.5779C9.88674 66.5779 9.88674 66.757 9.88674 66.8466H10.4242V66.3091C10.245 66.2196 9.97631 66.3987 9.88674 66.5779ZM14.9924 66.5779C14.7237 66.5779 14.7237 67.1153 14.9924 67.1153C15.2612 67.1153 15.2612 66.5779 14.9924 66.5779ZM10.9616 66.3091L11.2303 66.5779V66.3091H10.9616ZM11.6782 65.8613C11.5886 65.9508 11.5886 66.6674 11.6782 66.8466C11.9469 66.0404 13.6488 65.2343 12.7531 64.2489C12.6635 64.2489 12.4844 64.2489 12.4844 64.2489C12.3948 64.3385 12.2157 64.9655 12.2157 65.0551C12.1261 65.1447 11.6782 65.7717 11.6782 65.8613ZM25.6517 65.5925C25.4725 65.5925 25.4725 65.8613 25.6517 65.8613C25.7413 65.8613 25.7413 65.6821 25.6517 65.5925ZM26.01 65.5925C25.8308 65.5925 25.8308 66.0404 26.01 66.0404C26.2787 66.0404 26.2787 65.5925 26.01 65.5925ZM10.1555 65.3238C10.245 65.1447 9.88674 65.1447 9.88674 65.3238C9.97631 65.503 10.1555 65.503 10.1555 65.3238ZM20.9043 65.0551C21.173 65.0551 21.173 65.5925 20.9043 65.5925C20.6356 65.5925 20.6356 65.0551 20.9043 65.0551ZM42.5811 64.5177C42.5811 64.6968 42.7602 65.2343 42.8498 65.3238C42.9394 65.503 43.2081 65.503 43.2081 65.3238V64.2489C43.2081 64.1594 43.3873 64.1594 43.4768 64.2489C43.5664 64.3385 43.7456 64.9655 43.7456 65.0551C43.8351 65.1447 44.0143 65.3238 44.0143 65.3238L44.8204 64.7864C44.3726 64.6968 44.6413 63.9802 44.5517 63.7115L44.283 63.2636C44.283 62.7262 45.537 63.3532 45.8953 63.2636L46.6119 62.8158C46.6119 62.7262 46.7911 62.547 46.8806 62.547C47.4181 62.6366 48.4034 62.9949 48.7617 63.4428C49.3887 63.0845 48.5825 62.8158 48.493 62.547C48.4034 62.2783 49.12 61.3826 49.12 61.2034C48.5825 61.4722 48.6721 61.92 47.9555 61.4722C47.8659 61.4722 47.6868 61.2034 47.6868 61.2034C47.5972 61.2034 47.1494 61.4722 47.1494 61.4722C45.8953 61.8305 46.3432 60.1286 46.8806 59.6807C47.2389 59.3224 47.5076 60.5764 47.9555 60.3973C47.9555 60.3973 48.4034 60.1286 48.493 60.1286C48.493 60.1286 48.6721 60.1286 48.7617 60.1286C48.7617 60.2181 49.12 60.666 49.12 60.666C49.747 60.9347 50.6427 60.5764 50.7323 59.9494C50.7323 59.9494 51.2697 60.5764 51.5385 60.3973V58.6058C51.5385 58.6058 51.2697 58.1579 51.2697 58.0684V56.9039C51.2697 56.5456 50.6427 56.5456 50.4636 56.6352C50.4636 56.6352 50.0157 57.0831 49.9261 57.1726C48.8512 57.6205 49.0304 55.4707 49.9261 56.0977C50.0157 55.9186 50.0157 55.202 49.9261 55.0229C49.9261 55.0229 49.3887 54.8437 49.12 54.7541C48.6721 54.575 47.5076 55.5603 47.9555 56.0977C47.4181 56.2769 46.8806 56.0977 46.8806 55.5603C46.8806 55.4707 47.1494 55.2916 47.1494 55.2916C47.1494 55.202 47.3285 54.3958 47.4181 54.3063V53.7688C47.4181 53.6793 47.8659 53.321 47.9555 53.2314C47.9555 53.2314 47.9555 53.0522 47.9555 52.9627C47.7764 52.2461 47.7764 52.1565 47.1494 51.8878C46.5223 51.7086 46.5223 52.7835 45.8953 52.4252V51.8878C45.1787 52.5148 44.1934 53.2314 44.0143 54.3063V56.0977C44.3726 57.0831 45.2683 55.5603 45.6266 55.829C45.7162 56.0978 45.7162 56.456 45.3579 56.6352C45.537 57.5309 46.0745 58.3371 45.8953 59.412C45.3579 58.8745 45.0892 61.5617 45.0892 61.7409C45.0892 61.7409 44.91 61.7409 44.8204 61.7409C44.283 61.3826 44.6413 60.5764 44.5517 60.1286C44.4621 59.412 44.0143 59.7703 44.5517 58.8745C44.6413 58.8745 44.8204 58.6954 44.8204 58.6058C44.8204 58.6058 44.6413 58.1579 44.5517 58.0684L44.0143 56.9039C43.7456 56.8143 42.3124 57.1726 42.3124 57.3518V59.6807H41.5062C41.0583 60.2181 42.2228 60.3077 42.3124 60.9347C42.2228 61.0243 41.8645 61.2034 41.7749 61.2034C41.6854 61.2034 41.3271 60.666 41.2375 60.666C40.8792 60.3973 40.1626 60.9347 40.4313 61.4722C40.4313 61.4722 40.8792 61.6513 40.9688 61.7409C41.5062 62.0992 40.8792 62.9053 41.5062 62.9949L39.9835 63.9802C40.073 64.0698 40.6105 64.0698 40.7001 63.9802C40.7001 63.9802 40.9688 63.8011 40.9688 63.7115C41.4166 63.4428 42.3124 63.3532 42.0437 64.2489H41.2375C41.2375 64.4281 41.4166 64.9655 41.5062 65.0551C41.8645 65.4134 42.4915 64.6968 42.5811 64.5177ZM23.7706 64.7864C23.7706 64.876 24.2185 65.0551 24.3081 65.0551C25.9204 65.4134 25.2934 64.0698 24.9351 64.2489V63.4428C24.2185 63.7115 23.6811 63.7115 22.9645 63.9802C22.9645 64.0698 23.1436 64.2489 23.2332 64.2489H23.5019C23.5019 64.3385 23.6811 64.7864 23.7706 64.7864ZM10.4242 63.9802C10.5138 64.1594 11.0512 64.6968 11.2303 64.7864C11.2303 64.876 11.4095 64.876 11.4095 64.7864C11.3199 64.3385 11.0512 63.8011 10.4242 63.9802ZM51.001 64.2489C50.8219 64.2489 50.8219 64.6072 51.001 64.5177C51.1802 64.5177 51.1802 64.3385 51.001 64.2489ZM51.5385 63.9802C51.2697 63.9802 51.2697 64.5177 51.5385 64.5177C51.8072 64.5177 51.8072 63.9802 51.5385 63.9802ZM49.12 63.7115V63.9802H49.6574L49.12 63.7115ZM12.4844 63.4428C12.2157 63.4428 12.2157 63.9802 12.4844 63.9802C12.7531 63.9802 12.7531 63.4428 12.4844 63.4428ZM39.9835 63.4428C39.8939 63.3532 39.5356 63.7115 39.7147 63.7115C39.8939 63.8011 40.073 63.6219 39.9835 63.4428ZM50.1949 63.2636C50.2844 63.3532 50.4636 63.7115 50.4636 63.7115L51.001 62.9949C51.0906 62.9949 50.8219 62.8158 50.7323 62.8158C50.6427 62.7262 50.2844 62.7262 50.1949 62.8158V63.2636ZM11.9469 63.2636C11.8574 63.2636 11.8574 63.4428 11.9469 63.4428C12.2157 63.6219 12.5739 63.2636 12.4844 62.9949C12.3948 62.9949 12.0365 63.1741 11.9469 63.2636ZM21.4417 63.2636C21.3522 62.9949 21.7105 62.6366 21.9792 62.8158V63.4428C21.8 63.6219 21.5313 63.3532 21.4417 63.2636ZM43.2977 62.9949L43.4768 62.8158C44.1934 62.9949 43.5664 63.7115 43.1185 63.4428L43.2977 62.9949ZM52.5238 63.2636C52.5238 63.2636 52.7029 63.4428 52.7925 63.4428C52.7925 63.0845 53.1508 62.8158 53.5987 62.9949C53.5987 62.9949 52.6133 60.4868 51.5385 62.8158V62.9949C52.1655 62.547 52.1655 62.7262 52.5238 63.2636ZM11.6782 62.8158C11.4095 62.8158 11.4095 63.2636 11.6782 63.2636C11.9469 63.2636 11.9469 62.8158 11.6782 62.8158ZM24.3081 62.9949C24.3081 62.9053 23.9498 62.9053 24.0394 62.9949C24.0394 63.0845 24.2185 63.0845 24.3081 62.9949ZM14.9924 62.547C15.2612 62.547 15.2612 62.9949 14.9924 62.9949C14.7237 62.9949 14.7237 62.547 14.9924 62.547ZM17.5901 62.2783C17.8588 62.2783 17.8588 62.8158 17.5901 62.8158C17.3213 62.8158 17.3213 62.2783 17.5901 62.2783ZM19.2024 62.2783C19.2024 62.1888 19.3815 62.1888 19.4711 62.2783C19.3815 62.4575 19.1128 62.6366 18.9337 62.547C18.9337 62.4575 19.1128 62.2783 19.2024 62.2783ZM19.7398 62.2783C19.919 62.2783 19.919 62.8158 19.7398 62.8158C19.4711 62.8158 19.4711 62.2783 19.7398 62.2783ZM44.5517 62.2783C44.7309 62.1888 45.537 62.0992 45.6266 62.547C45.4475 62.547 44.6413 62.7262 44.5517 62.2783ZM46.164 62.2783C46.164 62.0992 46.3432 61.92 46.6119 62.0096C46.7015 62.1887 46.5223 62.4575 46.3432 62.547L46.164 62.2783ZM49.6574 62.547C49.747 62.3679 49.3887 62.3679 49.3887 62.547C49.4783 62.6366 49.6574 62.6366 49.6574 62.547ZM11.9469 62.0096C11.6782 62.0096 11.6782 62.547 11.9469 62.547C12.2157 62.547 12.2157 62.0096 11.9469 62.0096ZM42.5811 62.0096C42.8498 62.0096 42.8498 62.547 42.5811 62.547C42.3124 62.547 42.3124 62.0096 42.5811 62.0096ZM24.0394 62.0096C24.0394 61.8305 23.6811 61.8305 23.7706 62.0096C23.7706 62.1887 23.9498 62.1887 24.0394 62.0096ZM49.3887 62.0096C49.4783 61.8305 49.12 61.8305 49.12 62.0096C49.2095 62.1887 49.3887 62.1887 49.3887 62.0096ZM43.2977 61.4722C43.4768 61.4722 43.4768 62.0096 43.2977 62.0096C43.1185 62.0096 43.1185 61.4722 43.2977 61.4722ZM50.1949 61.4722V61.7409H50.7323C50.6427 61.5617 50.4636 61.3826 50.1949 61.4722ZM13.828 60.9347C13.7384 61.0243 13.7384 61.3826 13.828 61.4722C14.0967 61.1139 14.7237 60.666 15.2612 60.9347C15.3507 60.9347 15.5299 61.3826 15.5299 61.4722C16.2465 61.92 16.4256 60.7556 16.336 60.3973H15.7986C15.7986 60.3973 15.6194 60.1286 15.5299 60.1286C15.1716 60.039 14.2758 60.9347 14.0071 60.1286C14.0071 60.2181 13.828 60.8452 13.828 60.9347ZM16.6048 61.2034C16.336 61.2034 16.336 61.7409 16.6048 61.7409C16.8735 61.7409 16.8735 61.2034 16.6048 61.2034ZM21.173 61.2034L21.4417 61.4722C21.6209 61.3826 21.8 61.1139 21.7105 60.9347C21.5313 60.8452 21.2626 61.0243 21.173 61.2034ZM43.1185 60.666C43.2977 60.5764 43.9247 60.4869 44.0143 60.9347L43.1185 61.4722V60.666ZM52.5238 60.9347C52.3446 60.8452 52.3446 61.2034 52.5238 61.2034C52.7029 61.1139 52.7029 60.9347 52.5238 60.9347ZM54.1361 60.9347C53.8674 60.9347 53.8674 61.4722 54.1361 61.4722C54.4048 61.4722 54.4048 60.9347 54.1361 60.9347ZM19.7398 60.666C19.8294 61.0243 20.0981 61.0243 20.3668 60.9347C19.919 60.7556 20.4564 60.1286 19.919 59.9494C19.6503 60.039 19.6503 60.3973 19.7398 60.666ZM14.455 59.9494C14.2758 59.9494 14.2758 60.3973 14.455 60.3973C14.7237 60.3973 14.7237 59.9494 14.455 59.9494ZM42.5811 59.9494C42.8498 59.412 43.2977 59.6807 43.2977 60.1286C43.1185 60.2181 42.6707 60.2181 42.5811 59.9494ZM51.9863 59.6807C52.0759 60.3077 53.8674 59.8598 52.5238 57.7996C52.4342 57.7996 52.255 57.7996 52.255 57.7996C51.8968 58.2475 51.8967 59.2328 51.9863 59.6807ZM48.2242 59.1433C48.1347 59.1433 48.1347 58.9641 48.2242 58.8745H49.0304C49.0304 59.1432 48.8512 59.5015 48.7617 59.6807C48.6721 59.5911 48.2242 59.2328 48.2242 59.1433ZM19.919 59.1433C19.7398 59.1433 19.7398 59.6807 19.919 59.6807C20.0981 59.6807 20.0981 59.1433 19.919 59.1433ZM45.0892 59.1433C44.91 59.1433 44.91 59.5015 45.0892 59.412C45.2683 59.412 45.2683 59.2328 45.0892 59.1433ZM49.9261 59.1433C49.8366 58.9641 50.1949 58.4267 50.1949 58.3371V59.412C50.1949 59.412 50.0157 59.2328 49.9261 59.1433ZM43.2977 59.1433C43.2977 59.3224 42.8498 59.3224 42.8498 59.1433C42.7602 58.9641 43.2977 58.9641 43.2977 59.1433ZM41.7749 58.8745C41.7749 58.6954 41.4166 58.6954 41.5062 58.8745C41.5062 59.0537 41.6854 59.0537 41.7749 58.8745ZM51.2697 58.6058C51.5385 58.6058 51.5385 59.1433 51.2697 59.1433C51.001 59.1433 51.001 58.6058 51.2697 58.6058ZM16.6048 58.3371C16.4256 58.3371 16.4256 58.6954 16.6048 58.6058C16.7839 58.6058 16.7839 58.4267 16.6048 58.3371ZM17.8588 58.3371C17.8588 58.4267 18.0379 58.6058 18.1275 58.6058C18.8441 58.8745 19.2024 58.1579 19.4711 57.5309H18.9337C18.8441 57.6205 18.6649 57.7996 18.6649 57.7996C18.4858 57.7996 17.9484 57.6205 17.8588 57.5309C17.7692 57.7101 17.7692 58.2475 17.8588 58.3371ZM47.6868 58.3371C46.9702 58.0684 47.7764 57.1726 47.9555 56.9039V58.6058H47.4181L47.6868 58.3371ZM49.6574 58.3371C49.9261 58.3371 49.9261 58.8745 49.6574 58.8745C49.3887 58.8745 49.3887 58.3371 49.6574 58.3371ZM43.2977 57.7996C43.3873 57.8892 43.3873 58.0684 43.2977 58.0684C43.2081 58.1579 43.2081 57.7996 43.2977 57.7996ZM46.3432 57.7996C46.3432 57.7996 46.7911 57.1726 47.1494 57.3518C47.2389 57.7101 46.8806 58.4267 46.3432 58.0684C46.3432 58.0684 46.3432 57.8892 46.3432 57.7996ZM44.8204 57.3518C44.5517 57.3518 44.5517 57.7996 44.8204 57.7996C45.0892 57.7996 45.0892 57.3518 44.8204 57.3518ZM16.8735 57.1726C17.0526 57.4414 17.4109 57.4414 17.5901 57.1726C17.5005 56.8143 17.1422 56.8143 16.8735 56.9039C16.8735 56.9039 16.8735 57.0831 16.8735 57.1726ZM18.1275 56.0977C17.8588 56.0977 17.8588 56.6352 18.1275 56.6352C18.3962 56.6352 18.3962 56.0977 18.1275 56.0977ZM15.7986 55.5603C15.9777 55.6499 16.336 55.9186 16.6048 55.829V55.5603H15.7986ZM19.919 55.5603C19.8294 55.4707 19.8294 55.829 19.919 55.829C20.0981 55.7395 20.0981 55.5603 19.919 55.5603ZM42.8498 55.5603C42.9394 55.9186 43.2977 55.9186 43.4768 55.829C43.3873 55.7395 43.029 55.4707 42.8498 55.5603ZM17.8588 55.2916C17.8588 55.2916 18.3067 55.4707 18.3962 55.5603C18.3962 55.5603 18.3962 55.7395 18.3962 55.829C18.4858 55.5603 18.6649 55.202 18.9337 55.0229C19.292 56.2769 20.546 54.3063 19.4711 54.4854C19.3815 54.4854 18.7545 54.7541 18.6649 54.7541C18.5754 54.7541 18.1275 54.7541 18.1275 54.7541C18.0379 54.7541 17.6796 55.1124 17.8588 55.2916ZM42.0437 55.5603C42.0437 55.3812 41.6854 55.3812 41.7749 55.5603C41.7749 55.7394 41.9541 55.7394 42.0437 55.5603ZM44.5517 55.0229C44.5517 55.0229 45.0892 54.3063 45.3579 54.4854C45.4475 54.8437 45.3579 55.2916 45.0892 55.5603L44.5517 55.0229ZM46.164 54.7541C46.164 54.6646 46.2536 54.3063 46.3432 54.3063C47.6868 55.1124 46.164 55.829 46.164 54.7541ZM47.9555 54.0376C47.8659 54.1271 47.8659 54.3063 47.9555 54.3063C48.3138 54.3063 48.6721 54.3063 49.0304 54.0376C48.8512 53.5897 48.1347 53.6793 47.9555 54.0376ZM17.1422 53.2314C17.6796 54.1271 18.0379 54.3959 18.6649 53.5001C18.3962 53.0522 17.5005 52.8731 17.1422 52.9627C17.1422 53.0522 17.1422 53.2314 17.1422 53.2314ZM18.9337 52.9627L19.7398 54.0376C20.0981 54.0376 19.6503 52.7835 19.7398 52.4252C19.292 52.2461 19.292 52.9627 18.9337 52.694C18.8441 52.7835 18.8441 52.9627 18.9337 52.9627ZM49.6574 53.7688C49.3887 53.7688 49.3887 54.3063 49.6574 54.3063C49.9261 54.3063 49.9261 53.7688 49.6574 53.7688ZM50.1949 53.7688C49.9261 53.7688 49.9261 54.3063 50.1949 54.3063C50.4636 54.3063 50.4636 53.7688 50.1949 53.7688ZM45.3579 53.5001C45.3579 53.5001 45.6266 53.321 45.6266 53.2314V53.7688H45.3579C45.3579 53.7688 45.3579 53.5897 45.3579 53.5001ZM46.164 53.5001C46.3432 53.5001 46.3432 54.0376 46.164 54.0376C45.8953 54.0376 45.8953 53.5001 46.164 53.5001ZM43.1185 52.9627C42.8498 52.9627 42.8498 53.5001 43.1185 53.5001C43.2977 53.5001 43.2977 52.9627 43.1185 52.9627ZM46.6119 52.9627C46.5223 53.1418 46.3432 53.1418 46.3432 52.9627C46.3432 52.8731 46.6119 52.8731 46.6119 52.9627ZM49.6574 52.694L49.3887 52.9627H49.6574V52.694ZM19.919 52.4252C19.7398 52.4252 19.7398 52.9627 19.919 52.9627C20.0981 52.9627 20.0981 52.4252 19.919 52.4252ZM17.8588 51.8878V52.4252C18.0379 52.3357 18.2171 52.1565 18.1275 51.8878H17.8588ZM18.3962 52.1565C18.1275 52.1565 18.1275 52.694 18.3962 52.694C18.6649 52.694 18.6649 52.1565 18.3962 52.1565ZM19.2024 51.8878C18.9337 51.8878 18.9337 52.4252 19.2024 52.4252C19.4711 52.4252 19.4711 51.8878 19.2024 51.8878ZM44.5517 51.6191C44.3726 51.6191 44.3726 52.2461 44.5517 52.1565C44.7309 52.1565 44.7309 51.7086 44.5517 51.6191ZM15.7986 51.6191C15.8882 51.7982 16.1569 52.0669 16.336 51.8878C16.2465 51.7982 16.0673 51.5295 15.7986 51.6191ZM45.0892 51.2608C44.8204 51.2608 44.8204 51.6191 45.0892 51.6191C45.3579 51.6191 45.3579 51.2608 45.0892 51.2608ZM18.6649 50.4546V50.9921C18.6649 50.9921 18.8441 50.9921 18.9337 50.9921C19.0232 50.9025 19.8294 50.7233 19.919 50.7233L18.6649 50.4546ZM47.9555 50.7233C47.7764 50.6338 47.7764 50.9921 47.9555 50.9921C48.0451 50.9025 48.0451 50.7233 47.9555 50.7233ZM16.6048 49.9172V50.4546L17.1422 50.1859C17.0526 50.0067 16.7839 49.8276 16.6048 49.9172ZM44.5517 50.1859C44.283 50.1859 44.283 50.7233 44.5517 50.7233C44.8204 50.7233 44.8204 50.1859 44.5517 50.1859ZM45.0892 50.1859V50.4546H45.3579L45.0892 50.1859ZM44.0143 49.9172V50.1859H44.283V49.9172H44.0143ZM17.8588 48.8423L17.5901 49.111H18.1275L17.8588 48.8423ZM44.5517 48.8423C44.283 48.8423 44.283 49.3797 44.5517 49.3797C44.8204 49.3797 44.8204 48.8423 44.5517 48.8423ZM15.7986 47.857C15.7986 47.857 16.336 48.484 16.6048 48.3944C16.6048 48.0361 16.2465 47.5883 15.7986 47.857ZM47.9555 47.857C47.6868 47.857 47.6868 48.3944 47.9555 48.3944C48.2242 48.3944 48.2242 47.857 47.9555 47.857ZM45.3579 47.0508V47.857C45.4475 47.857 45.6266 47.857 45.6266 47.857C45.7162 47.857 46.0745 47.5883 46.164 47.5883C46.7911 47.3195 48.1347 48.484 48.7617 47.3195C48.493 47.23 47.8659 46.8717 47.6868 46.5134C47.6868 46.4238 48.1347 45.6176 48.2242 45.6176C48.2242 45.5281 48.4034 45.3489 48.493 45.3489C48.5825 45.2593 49.5678 45.0802 49.6574 45.0802C49.747 44.9906 50.4636 44.7219 50.4636 44.5428C50.5531 44.274 50.5531 43.3783 50.4636 43.1991C50.374 42.8409 49.6574 42.4826 49.9261 41.9451C50.0157 41.766 50.6427 41.2285 50.7323 41.139C50.374 40.9598 50.374 40.4224 50.1949 40.0641C49.2991 38.4517 49.12 43.1096 48.493 42.4826C48.4034 42.4826 48.2242 41.9451 48.2242 41.9451C48.0451 41.8555 47.5076 41.8555 47.4181 41.9451V41.6764C47.2389 41.6764 46.7015 41.8555 46.6119 41.9451L45.8953 43.4679C45.7162 43.9157 47.2389 44.901 47.6868 45.0802C47.0598 45.6176 47.2389 45.9759 46.8806 46.5134C46.7911 46.6029 46.6119 46.9612 46.6119 47.0508C46.5223 47.0508 45.537 46.5134 45.3579 47.0508ZM47.6868 47.0508C47.9555 47.0508 47.9555 47.5883 47.6868 47.5883C47.4181 47.5883 47.4181 47.0508 47.6868 47.0508ZM16.8735 46.5134C16.6048 46.5134 16.6048 47.0508 16.8735 47.0508C17.1422 47.0508 17.1422 46.5134 16.8735 46.5134ZM45.0892 45.9759C45.0892 46.1551 45.2683 46.5134 45.3579 46.5134C45.4475 46.1551 46.2536 45.6176 46.164 45.3489C46.164 45.2593 45.8953 45.2593 45.8953 45.3489C45.7162 45.4385 45.1787 45.9759 45.0892 45.9759ZM49.12 46.2447C49.0304 46.2447 49.0304 46.7821 49.12 46.7821C49.3887 46.7821 49.3887 46.2447 49.12 46.2447ZM44.283 44.8115C44.3726 44.8115 44.5517 45.5281 44.5517 45.6176C44.6413 45.6176 44.8204 45.6176 44.8204 45.6176C44.91 45.2593 44.8204 44.4532 44.5517 44.274C44.4621 44.1845 44.1038 44.1845 44.0143 44.274V44.8115C44.1038 44.7219 44.283 44.7219 44.283 44.8115ZM43.4768 44.0053C43.2977 44.0053 43.2977 44.5428 43.4768 44.5428C43.7456 44.5428 43.7456 44.0053 43.4768 44.0053ZM48.2242 43.4679C48.2242 43.3783 48.4034 42.9304 48.493 42.9304C49.6574 42.0347 50.4636 44.3636 47.6868 44.0053L48.2242 43.4679ZM50.1949 44.0053C50.1949 44.1845 50.0157 44.1845 49.9261 44.0053C49.9261 43.8262 50.2844 43.8262 50.1949 44.0053ZM46.3432 43.1991C46.2536 42.8409 46.5223 42.7513 46.8806 42.7513C47.3285 42.5721 47.5076 43.1096 47.6868 43.4679C47.5972 43.8262 46.7911 43.8262 46.6119 43.7366C46.6119 43.7366 46.3432 43.3783 46.3432 43.1991ZM49.9261 42.9304C50.1949 42.9304 50.1949 43.4679 49.9261 43.4679C49.6574 43.4679 49.6574 42.9304 49.9261 42.9304ZM43.4768 41.4077C43.3873 41.4077 43.3873 41.766 43.4768 41.6764C43.656 41.6764 43.656 41.4972 43.4768 41.4077ZM49.3887 41.139C49.6574 41.139 49.6574 41.6764 49.3887 41.6764C49.12 41.6764 49.12 41.139 49.3887 41.139ZM43.4768 40.3328C43.4768 40.4224 43.4768 40.6015 43.4768 40.6015C43.8351 40.5119 44.1039 40.3328 44.283 40.0641C44.0143 39.9745 43.656 40.0641 43.4768 40.3328ZM48.2242 40.3328C47.9555 40.3328 47.9555 40.8702 48.2242 40.8702C48.493 40.8702 48.493 40.3328 48.2242 40.3328ZM48.493 38.8996V39.1683H49.0304C48.9408 38.9892 48.6721 38.7205 48.493 38.8996ZM44.0143 38.6309L43.7456 38.8996H44.0143V38.6309ZM44.8204 38.3622C44.91 38.183 44.5517 38.183 44.5517 38.3622C44.6413 38.5413 44.8204 38.5413 44.8204 38.3622ZM45.3579 37.2873V38.3622C46.0745 38.5413 47.4181 37.8247 47.1494 37.0186C46.7911 37.1081 45.8953 37.556 45.6266 37.0186C45.537 37.0186 45.3579 37.1977 45.3579 37.2873ZM44.0143 37.556C44.0143 37.6456 44.1934 37.8247 44.283 37.8247V36.8394C44.1934 36.929 44.0143 37.3769 44.0143 37.556ZM43.7456 37.0186C43.4768 37.0186 43.4768 37.556 43.7456 37.556C44.0143 37.556 44.0143 37.0186 43.7456 37.0186ZM48.2242 37.0186C47.9555 37.0186 47.9555 37.556 48.2242 37.556C48.493 37.556 48.493 37.0186 48.2242 37.0186ZM44.0143 36.0333C43.7456 36.0333 43.7456 36.5707 44.0143 36.5707C44.283 36.5707 44.283 36.0333 44.0143 36.0333ZM48.493 36.0333C48.2242 36.0333 48.2242 36.5707 48.493 36.5707C48.7617 36.5707 48.7617 36.0333 48.493 36.0333ZM46.164 35.7646C45.8953 35.7646 45.8953 36.302 46.164 36.302C46.3432 36.302 46.3432 35.7646 46.164 35.7646ZM45.6266 35.2271C45.6266 35.3167 45.6266 35.4958 45.6266 35.4958C45.9849 35.2271 46.4328 34.6897 46.6119 34.1522C46.0745 33.8835 45.4475 34.4209 45.3579 34.9584C45.4475 35.0479 45.6266 35.2271 45.6266 35.2271ZM47.1494 35.2271C47.4181 35.4958 47.7764 35.5854 48.2242 35.4958C48.0451 34.7792 47.5972 34.9584 47.1494 35.2271ZM47.9555 34.1522C47.6868 34.1522 47.6868 34.6897 47.9555 34.6897C48.2242 34.6897 48.2242 34.1522 47.9555 34.1522ZM47.9555 33.7939C47.8659 33.7939 47.6868 33.9731 47.6868 34.0626C47.8659 34.0626 48.1347 33.8835 48.2242 33.7939C48.1347 33.7044 47.9555 33.7044 47.9555 33.7939ZM19.7398 28.7778C19.4711 28.7778 19.4711 29.3152 19.7398 29.3152C19.919 29.3152 19.919 28.7778 19.7398 28.7778ZM20.0981 28.7778C19.919 28.7778 19.919 29.3152 20.0981 29.3152C20.3668 29.3152 20.3668 28.7778 20.0981 28.7778ZM15.5299 28.2404C15.5299 28.3299 15.709 28.5091 15.7986 28.5091C16.336 28.3299 15.9777 27.6133 15.5299 27.8821V28.2404ZM19.2024 28.1508C18.9337 28.1508 18.9337 28.5091 19.2024 28.5091C19.4711 28.5091 19.4711 28.1508 19.2024 28.1508ZM18.1275 27.8821C17.8588 27.8821 17.8588 28.2404 18.1275 28.2404C18.3962 28.2404 18.3962 27.8821 18.1275 27.8821ZM16.8735 27.0759C16.6943 26.8968 16.6943 27.9716 16.8735 27.8821C17.0526 27.7029 17.0526 27.1655 16.8735 27.0759ZM18.1275 27.6133C18.1275 27.4342 17.7692 27.4342 17.8588 27.6133C17.8588 27.7029 18.0379 27.7029 18.1275 27.6133ZM17.5901 26.5385C17.5901 26.628 17.7692 26.9863 17.8588 27.0759C18.6649 27.255 20.0981 26.9863 19.7398 25.7323C19.4711 26.0906 19.1128 26.3593 18.6649 26.5385C18.9337 25.7323 18.2171 25.5531 17.5901 25.7323V25.2844C17.1422 25.0157 16.8735 25.374 16.8735 25.7323C15.8882 25.374 17.5901 25.1053 16.336 24.2096L15.7986 25.2844C15.6194 25.5532 16.2465 25.8219 16.0673 26.2697C16.2465 26.1802 17.1422 26.1802 17.3213 26.2697C17.3213 26.2697 17.5005 26.4489 17.5901 26.5385ZM15.5299 26.001C15.2612 26.001 15.2612 26.5385 15.5299 26.5385C15.7986 26.5385 15.7986 26.001 15.5299 26.001ZM19.7398 24.4783V25.2844C20.2773 25.6427 20.6356 24.4783 20.0981 24.4783C20.6356 24.2096 21.4417 24.2096 21.7105 23.6721C21.7105 23.6721 21.4417 23.493 21.4417 23.4034C21.4417 23.4034 21.4417 23.2242 21.4417 23.1347L20.6356 22.4181C20.2773 21.7911 21.5313 21.3432 21.173 20.6266C21.3522 20.6266 22.0687 20.4475 22.2479 20.3579L22.5166 20.0892H22.7853L21.9792 21.7015L22.2479 22.2389C22.5166 22.0598 23.3228 21.0745 23.5019 20.8953C23.5019 20.8058 23.6811 20.1787 23.7706 20.0892C23.7706 19.9996 24.2185 19.8204 24.3081 19.8204V19.3726C24.8455 19.1934 25.0247 19.9996 25.6517 19.3726C25.4725 19.1039 25.1142 18.9247 24.8455 18.8351C25.383 18.4768 25.9204 16.4167 26.5474 18.2977C26.637 18.4768 26.8161 18.8351 26.8161 18.8351C27.264 19.1038 27.8015 18.3873 28.1598 18.2977C28.4285 19.6413 28.8763 19.283 30.2199 19.5517C30.4887 19.6413 31.7427 18.9247 31.9218 18.5664H34.0716C34.4299 19.283 34.9673 18.656 34.7882 18.029H35.3256V19.3726C36.0422 19.5517 35.9527 18.9247 36.6692 18.8351C36.7588 18.8351 37.4754 19.1038 37.565 19.1038C37.7441 19.1038 38.5503 18.9247 38.6399 18.8351C38.819 18.1185 38.2816 17.4915 38.3711 16.6854C38.6399 16.6854 38.819 16.7749 38.9086 16.9541C40.1626 16.4167 37.8337 16.3271 38.1024 15.7896H39.446C39.446 15.0731 39.2669 14.5356 38.6399 14.1773C38.6399 14.1773 38.4607 14.1773 38.3711 14.1773C38.192 13.9086 36.938 12.7441 37.565 12.3858C37.565 12.3858 37.4754 12.3858 37.3858 12.3858L37.2067 12.6546C37.0275 12.7441 35.9527 13.1024 35.8631 13.192C34.8778 13.6399 35.7735 14.7147 34.609 15.5209C34.0716 15.7896 33.4446 14.8043 33.5342 14.446C33.5342 14.3565 33.8029 13.9982 33.8029 13.9086C33.8925 13.819 33.8925 13.192 33.8029 13.192C33.8029 13.192 33.0863 13.0128 32.728 12.9233C32.728 12.9233 32.5489 12.9233 32.4593 12.9233C32.8176 13.819 30.9365 14.7148 30.2199 14.446V13.7294H29.4138V13.4607C29.2346 13.4607 28.7868 13.6399 28.6972 13.7294C28.3389 13.9086 29.3242 14.5356 29.1451 14.9835C29.0555 14.9835 28.8763 14.9835 28.8763 14.9835C27.5327 14.446 28.7868 13.5503 27.3536 13.192C26.5474 13.0128 26.3683 14.1773 26.01 13.9086C25.9204 13.819 25.6517 13.3711 25.6517 13.192C25.4725 13.3711 25.1142 13.9982 25.1142 14.1773C25.0247 14.1773 25.0247 14.3565 25.1142 14.446C24.4872 14.5356 23.4123 13.819 23.2332 13.9086C23.2332 14.0877 22.8749 14.8043 22.7853 14.9835L21.7105 15.5209C21.7105 15.5209 21.5313 15.7001 21.4417 15.7896C21.173 14.9835 20.4564 14.5356 19.7398 14.7147C19.4711 15.1626 19.919 15.6105 20.0981 15.7896C19.6503 15.7001 18.4858 16.2375 18.1275 15.7896V16.9541C17.9484 16.9541 17.4109 16.775 17.3213 16.6854C17.2318 16.6854 17.1422 16.6854 17.1422 16.6854C16.8735 17.2228 18.0379 17.402 18.1275 17.7603V19.3726C20.8147 19.0143 20.4564 21.164 20.0981 21.164C20.0981 20.9849 19.8294 20.6266 19.919 20.3579C19.8294 20.4475 19.4711 20.7162 19.2024 20.6266V19.8204C18.8441 19.6413 18.0379 20.3579 18.1275 20.8953C18.1275 21.0745 18.3067 21.7911 18.3962 21.9702C18.3962 21.7911 19.0232 21.164 19.2024 21.164C19.5607 20.9849 19.919 21.7015 19.919 21.9702C18.6649 22.4181 17.9484 22.7764 16.6048 22.8659L16.8735 23.9408C17.6796 23.3138 19.3815 23.0451 19.7398 24.4783ZM14.2758 23.9408C14.2758 24.12 14.3654 24.9261 14.455 25.0157C15.2612 24.9261 16.0673 23.3138 15.7986 22.5972C15.709 22.6868 15.3507 22.8659 15.2612 22.8659C14.9924 23.1347 14.2758 23.8513 14.2758 23.9408ZM17.8588 24.4783C17.8588 24.4783 18.0379 24.747 18.1275 24.747L18.9337 24.2096C18.9337 24.2096 18.9337 24.0304 18.9337 23.9408C18.3962 23.8513 17.7692 23.9408 17.3213 24.2096C17.4109 24.2991 17.7692 24.4783 17.8588 24.4783ZM21.173 24.4783C20.9043 24.4783 20.9043 25.0157 21.173 25.0157C21.4417 25.0157 21.4417 24.4783 21.173 24.4783ZM22.2479 23.9408C21.9792 23.9408 21.9792 24.4783 22.2479 24.4783C22.5166 24.4783 22.5166 23.9408 22.2479 23.9408ZM48.7617 23.9408C48.493 23.9408 48.493 24.4783 48.7617 24.4783C49.0304 24.4783 49.0304 23.9408 48.7617 23.9408ZM46.3432 22.4181V22.5972H46.6119V22.4181H46.3432ZM47.4181 22.4181V22.5972L47.6868 22.4181H47.4181ZM22.5166 22.2389C22.2479 22.2389 22.2479 22.5972 22.5166 22.5972C22.7853 22.5972 22.7853 22.2389 22.5166 22.2389ZM45.8953 21.9702C45.6266 21.9702 45.6266 22.4181 45.8953 22.4181C46.164 22.4181 46.164 21.9702 45.8953 21.9702ZM24.5768 21.7015L24.3081 21.9702H24.5768V21.7015ZM16.6048 20.8953C16.6048 20.9849 16.7839 21.5223 16.8735 21.7015C16.8735 21.7015 17.0526 21.7015 17.1422 21.7015C17.1422 21.6119 17.5005 21.0745 17.5901 20.8953C17.9484 20.1787 16.6048 20.3579 16.6048 20.8953ZM26.01 20.8953C26.0996 20.8953 26.4579 21.0745 26.5474 21.164C26.637 21.164 26.8161 21.164 26.8161 21.164C26.7266 20.9849 26.7266 20.4475 26.8161 20.3579C26.9953 20.1787 27.7119 19.9996 27.891 20.0892C28.3389 19.283 26.8161 19.8204 26.5474 19.8204C26.4579 19.8204 25.9204 19.5517 25.8308 19.5517C25.8308 19.5517 25.6517 19.7309 25.6517 19.8204C25.6517 19.9996 25.9204 20.7162 26.01 20.8953ZM44.0143 20.8953L44.283 21.164L44.5517 20.8953H44.0143ZM48.493 20.8953C48.493 20.8953 48.8512 21.164 49.0304 21.164C49.0304 21.0745 49.0304 20.8953 49.0304 20.8953C48.9408 20.8058 48.5825 20.6266 48.493 20.6266C48.4034 20.6266 48.4034 20.8058 48.493 20.8953ZM15.2612 20.6266L14.9924 20.8953H15.2612V20.6266ZM24.0394 20.6266C23.7706 20.6266 23.7706 21.164 24.0394 21.164C24.3081 21.164 24.3081 20.6266 24.0394 20.6266ZM41.7749 20.6266C41.5062 20.6266 41.5062 21.164 41.7749 21.164C42.0437 21.164 42.0437 20.6266 41.7749 20.6266ZM43.4768 20.6266C43.2977 20.6266 43.2977 21.164 43.4768 21.164C43.7456 21.164 43.7456 20.6266 43.4768 20.6266ZM24.8455 20.3579C24.756 20.1787 24.3977 20.537 24.5768 20.6266C24.6664 20.7162 24.8455 20.537 24.8455 20.3579ZM47.9555 20.3579C47.6868 20.3579 47.6868 20.8953 47.9555 20.8953C48.2242 20.8953 48.2242 20.3579 47.9555 20.3579ZM47.6868 20.0892C47.4181 20.0892 47.4181 20.6266 47.6868 20.6266C47.9555 20.6266 47.9555 20.0892 47.6868 20.0892ZM17.1422 19.3726V20.0892C17.1422 19.9996 17.5005 19.5517 17.5901 19.3726C18.0379 18.029 16.6048 18.1185 16.8735 18.8351C16.8735 18.9247 17.1422 19.283 17.1422 19.3726ZM44.8204 19.5517V20.0892C44.9996 20.0892 46.164 20.1787 45.8953 19.5517H44.8204ZM46.8806 19.8204C46.6119 19.8204 46.6119 20.3579 46.8806 20.3579C47.1494 20.3579 47.1494 19.8204 46.8806 19.8204ZM21.4417 19.5517C21.7105 19.5517 21.7105 20.0892 21.4417 20.0892C21.173 20.0892 21.173 19.5517 21.4417 19.5517ZM47.1494 19.5517C47.3285 19.91 47.5972 19.91 47.9555 19.8204C49.12 19.5517 47.8659 18.9247 47.6868 18.2977C47.3285 18.4768 46.9702 19.283 47.1494 19.5517ZM20.3668 19.3726C20.6356 19.3726 20.6356 19.8204 20.3668 19.8204C20.0981 19.8204 20.0981 19.3726 20.3668 19.3726ZM44.283 19.3726V19.5517C44.6413 19.3726 45.1787 18.9247 44.5517 18.5664C44.5517 18.656 44.3726 19.283 44.283 19.3726ZM20.9043 19.1038C21.173 18.5664 21.9792 18.9247 21.7105 19.3726H20.9043V19.1038ZM21.173 18.8351C21.4417 18.8351 21.4417 19.3726 21.173 19.3726C20.9043 19.3726 20.9043 18.8351 21.173 18.8351ZM31.0261 18.5664C31.2948 18.5664 31.2948 19.1038 31.0261 19.1038C30.7574 19.1038 30.7574 18.5664 31.0261 18.5664ZM25.6517 18.2977C25.383 18.2977 25.383 18.8351 25.6517 18.8351C25.8308 18.8351 25.8308 18.2977 25.6517 18.2977ZM30.4887 18.2977C30.7574 18.2977 30.7574 18.8351 30.4887 18.8351C30.2199 18.8351 30.2199 18.2977 30.4887 18.2977ZM30.7574 18.029H31.2948L31.0261 18.2977L30.7574 18.029ZM37.565 18.029C37.8337 18.029 37.8337 18.5664 37.565 18.5664C37.3858 18.5664 37.3858 18.029 37.565 18.029ZM29.4138 18.029C29.3242 18.2081 29.1451 18.2081 29.1451 18.029C29.0555 17.8498 29.4138 17.8498 29.4138 18.029ZM33.2654 17.4915C33.4446 17.5811 33.6237 17.8498 33.5342 18.029H33.2654V17.4915ZM45.6266 17.2228C45.7162 17.402 46.164 17.9394 46.3432 18.029C46.5223 17.6707 46.0745 16.6854 45.6266 16.9541C45.6266 17.0437 45.6266 17.2228 45.6266 17.2228ZM47.9555 17.7603L48.2242 18.029C48.4034 17.9394 48.5825 17.7603 48.493 17.4915C48.2242 17.402 48.0451 17.5811 47.9555 17.7603ZM16.0673 17.2228L16.336 17.7603C16.5152 17.6707 16.6943 17.4915 16.6048 17.2228H16.0673ZM31.9218 17.4915C32.1906 17.4915 32.1906 18.029 31.9218 18.029C31.6531 18.029 31.6531 17.4915 31.9218 17.4915ZM32.4593 17.4915C32.728 17.4915 32.728 18.029 32.4593 18.029C32.1906 18.029 32.1906 17.4915 32.4593 17.4915ZM44.8204 17.4915L44.5517 17.7603H44.8204V17.4915ZM24.8455 16.9541C25.1142 16.9541 25.1142 17.4915 24.8455 17.4915C24.5768 17.4915 24.5768 16.9541 24.8455 16.9541ZM26.8161 17.2228C26.8161 17.402 26.637 17.402 26.5474 17.2228C26.5474 17.1332 26.9057 17.1332 26.8161 17.2228ZM27.6223 16.6854V16.3271C27.891 16.5062 28.2493 16.8645 28.1598 17.2228C28.0702 17.2228 27.7119 16.8645 27.6223 16.6854ZM19.919 16.9541C19.919 17.1332 19.7398 17.1332 19.7398 16.9541C19.6503 16.8645 20.0086 16.8645 19.919 16.9541ZM32.9967 16.6854H33.2654V16.9541H32.9967V16.6854ZM33.8029 16.6854C34.0716 16.6854 34.0716 17.2228 33.8029 17.2228C33.5342 17.2228 33.5342 16.6854 33.8029 16.6854ZM34.609 16.5062C34.6986 16.5958 34.6986 16.6854 34.609 16.6854C34.4299 16.775 34.4299 16.5062 34.609 16.5062ZM44.5517 16.5062C44.7309 16.8645 45.537 16.8645 45.6266 16.5062C45.537 16.4166 44.9996 16.0584 44.8204 16.0584C44.8204 15.9688 44.6413 15.9688 44.5517 16.0584V16.5062ZM46.3432 16.5062C46.164 16.5062 46.164 16.9541 46.3432 16.9541C46.6119 16.9541 46.6119 16.5062 46.3432 16.5062ZM46.6119 16.3271C46.6119 16.4167 46.7911 16.6854 46.8806 16.6854L47.6868 15.5209C47.6868 15.4313 47.6868 15.2522 47.6868 15.2522C47.5076 15.073 46.9702 15.073 46.8806 15.2522C46.7911 15.3418 46.6119 16.0584 46.6119 16.3271ZM48.2242 16.6854C48.2242 16.6854 47.8659 16.6854 47.9555 16.6854C47.9555 16.8645 48.1347 16.8645 48.2242 16.6854ZM31.0261 16.3271C31.2948 16.3271 31.2948 16.6854 31.0261 16.6854C30.7574 16.6854 30.7574 16.3271 31.0261 16.3271ZM31.9218 16.3271C32.1906 16.3271 32.1906 16.6854 31.9218 16.6854C31.6531 16.6854 31.6531 16.3271 31.9218 16.3271ZM24.0394 16.0584C24.3081 16.0584 24.3081 16.5062 24.0394 16.5062C23.7706 16.5062 23.7706 16.0584 24.0394 16.0584ZM26.01 15.7896C26.2787 15.7896 26.2787 16.3271 26.01 16.3271C25.8308 16.3271 25.8308 15.7896 26.01 15.7896ZM40.9688 16.0584C40.9688 15.8792 40.6105 15.8792 40.7001 16.0584C40.7001 16.1479 40.8792 16.1479 40.9688 16.0584ZM17.3213 15.2522C17.1422 15.2522 17.1422 15.7896 17.3213 15.7896C17.5901 15.7896 17.5901 15.2522 17.3213 15.2522ZM31.6531 15.2522C31.9218 14.7148 32.728 15.073 32.4593 15.5209H31.6531C31.6531 15.4313 31.6531 15.2522 31.6531 15.2522ZM30.4887 14.9835C30.7574 14.9835 30.7574 15.5209 30.4887 15.5209C30.2199 15.5209 30.2199 14.9835 30.4887 14.9835ZM35.5944 14.9835C35.8631 14.9835 35.8631 15.5209 35.5944 15.5209C35.3256 15.5209 35.3256 14.9835 35.5944 14.9835ZM37.565 14.1773C38.2816 14.3565 37.8337 15.4313 37.2067 15.2522L37.565 14.1773ZM18.3962 14.7147C18.1275 14.7147 18.1275 15.2522 18.3962 15.2522C18.6649 15.2522 18.6649 14.7147 18.3962 14.7147ZM26.01 14.9835C26.01 15.1626 25.9204 15.1626 25.8308 14.9835C25.8308 14.8043 26.0996 14.8043 26.01 14.9835ZM40.7001 14.9835C40.7001 14.8043 40.4313 14.8043 40.4313 14.9835C40.4313 15.1626 40.6105 15.1626 40.7001 14.9835ZM21.173 14.1773C20.9043 14.1773 20.9043 14.7147 21.173 14.7147C21.4417 14.7147 21.4417 14.1773 21.173 14.1773ZM34.609 14.1773V14.446L34.7882 14.1773H34.609ZM36.6692 14.446C36.5797 14.6252 36.4005 14.6252 36.4005 14.446C36.3109 14.2669 36.6692 14.2669 36.6692 14.446ZM31.9218 13.9086C31.6531 13.9086 31.6531 14.446 31.9218 14.446C32.1906 14.446 32.1906 13.9086 31.9218 13.9086ZM39.1773 13.9086C39.2669 13.9086 39.6252 14.0877 39.7147 14.1773C39.8043 14.1773 39.9835 14.1773 39.9835 14.1773C40.3418 13.819 39.446 13.6399 39.1773 13.7294C39.1773 13.7294 39.1773 13.819 39.1773 13.9086ZM24.8455 12.6546V12.9233H25.383V12.6546H24.8455Z" fill="white"/>
</g>
<defs>
<clipPath id="clip0_284_5578">
<rect width="663" height="74" fill="white"/>
</clipPath>
</defs>
</svg>
