<svg width="431" height="600" viewBox="0 0 431 600" fill="none" xmlns="http://www.w3.org/2000/svg">
<g clip-path="url(#clip0_246_116)">
<mask id="mask0_246_116" style="mask-type:luminance" maskUnits="userSpaceOnUse" x="0" y="-1" width="421" height="601">
<path d="M420.188 -0.94873H0V600H420.188V-0.94873Z" fill="white"/>
</mask>
<g mask="url(#mask0_246_116)">
<path d="M67.1123 -212.483L46.3477 -213.445L4.43859 771.823L25.2032 772.786L67.1123 -212.483Z" fill="white"/>
<path d="M87.8764 -211.521L65.8066 -212.543L23.8764 772.724L45.9461 773.747L87.8764 -211.521Z" fill="white"/>
<path d="M108.643 -210.558L87.8779 -211.521L45.9477 773.747L66.7123 774.709L108.643 -210.558Z" fill="white"/>
<path d="M129.405 -209.595L108.641 -210.557L66.7103 774.71L87.475 775.672L129.405 -209.595Z" fill="white"/>
<path d="M150.17 -208.633L129.405 -209.595L87.475 775.672L108.24 776.634L150.17 -208.633Z" fill="white"/>
<path d="M155.502 616.172L-73.1191 605.642L-70.7096 544.978C-70.0153 527.501 -55.0401 513.998 -37.2615 514.816L126.976 522.379C144.756 523.199 158.605 538.03 157.911 555.507L155.502 616.172Z" fill="white"/>
</g>
<path d="M10.5722 -37.8007L176.704 -28.6289L174.554 28.201C173.935 44.5727 162.959 57.2663 150.038 56.553L30.6934 49.9642C17.7733 49.251 7.80176 35.4009 8.42138 19.0293L10.5722 -37.8007Z" fill="white"/>
</g>
<defs>
<clipPath id="clip0_246_116">
<rect width="431" height="600" fill="white"/>
</clipPath>
</defs>
</svg>
