<svg width="430" height="649" viewBox="0 0 430 649" fill="none" xmlns="http://www.w3.org/2000/svg">
<g clip-path="url(#clip0_246_167)">
<rect width="12.8848" height="612.775" transform="matrix(0.995187 -0.0979997 0.101685 0.994817 203.7 -18.7651)" fill="white"/>
<rect width="12.8848" height="612.775" transform="matrix(0.995187 -0.0979997 0.101685 0.994817 155.102 9.90918)" fill="white"/>
<rect width="12.8848" height="612.775" transform="matrix(0.995187 -0.0979997 0.101685 0.994817 167.925 8.646)" fill="white"/>
<rect width="12.8848" height="612.775" transform="matrix(0.995187 -0.0979997 0.101685 0.994817 180.748 7.38428)" fill="white"/>
<rect width="12.8848" height="612.775" transform="matrix(0.995187 -0.0979997 0.101685 0.994817 193.57 6.12109)" fill="white"/>
<path d="M305.402 649.336L192.427 658.566L185.831 590.562C184.765 579.568 192.825 569.927 203.834 569.027L276.942 563.054C287.951 562.155 297.74 570.338 298.807 581.332L305.402 649.336Z" fill="white"/>
<path d="M117.636 -64.8916L232.842 -80.6718L244.573 12.2695C245.956 23.2283 238.206 33.3272 227.262 34.8262L151.686 45.1782C140.742 46.6771 130.75 39.0085 129.366 28.0497L117.636 -64.8916Z" fill="white"/>
</g>
<defs>
<clipPath id="clip0_246_167">
<rect width="430" height="649" fill="white"/>
</clipPath>
</defs>
</svg>
