<svg width="430" height="600" viewBox="0 0 430 600" fill="none" xmlns="http://www.w3.org/2000/svg">
<g clip-path="url(#clip0_246_194)">
<rect width="13.222" height="623.419" transform="matrix(0.993516 -0.113696 0.036296 0.999341 290.049 0.589844)" fill="white"/>
<rect width="13.222" height="623.419" transform="matrix(0.993516 -0.113696 0.036296 0.999341 303.186 -0.913086)" fill="white"/>
<rect width="13.222" height="623.419" transform="matrix(0.993516 -0.113696 0.036296 0.999341 316.321 -2.41699)" fill="white"/>
<rect width="13.222" height="623.419" transform="matrix(0.993516 -0.113696 0.036296 0.999341 329.46 -3.91992)" fill="white"/>
<rect width="13.222" height="623.419" transform="matrix(0.993516 -0.113696 0.036296 0.999341 342.732 -1.2666)" fill="white"/>
<path d="M267.259 -2.29785L372.353 -13.398L373.167 9.65037C373.556 20.6892 364.967 30.5785 353.982 31.7387L288.667 38.6374C277.682 39.7976 268.461 31.7894 268.072 20.7505L267.259 -2.29785Z" fill="white"/>
<path d="M398.973 613.361L294.179 630.423L292.673 607.519C291.949 596.497 300.2 586.123 311.102 584.348L376.415 573.714C387.317 571.939 396.743 579.435 397.467 590.457L398.973 613.361Z" fill="white"/>
</g>
<defs>
<clipPath id="clip0_246_194">
<rect width="430" height="600" fill="white"/>
</clipPath>
</defs>
</svg>
