<svg width="213" height="117" viewBox="0 0 213 117" fill="none" xmlns="http://www.w3.org/2000/svg">
<g clip-path="url(#clip0_273_5265)">
<path d="M161.888 12.0578C160.873 12.7024 160.054 13.5307 159.435 14.4476C157.791 13.3449 155.715 12.8935 153.631 13.362L146.003 15.0772C141.423 16.107 138.545 20.6547 139.575 25.2348L150.9 75.6048C151.93 80.1849 156.478 83.0629 161.058 82.0331L167.685 80.5431C172.265 79.5133 175.143 74.9655 174.113 70.3855L168.694 46.2859C167.48 40.8871 168.054 37.2548 169.212 35.0194C170.278 32.9626 172.245 31.2819 175.827 30.4765C176.473 30.3312 176.98 30.2174 177.45 30.1244C181.741 29.2742 185.554 24.9469 184.369 19.6745L182.896 13.1261C181.971 9.01155 177.886 6.42603 173.771 7.35117C169.449 8.32288 165.423 9.81282 161.888 12.0578Z" fill="#A5C827" stroke="#A5C827" stroke-width="13"/>
<path d="M112.352 69.082C111.695 68.7704 111.051 68.3526 110.437 67.8015L128.316 63.7814C127.562 66.0282 125.43 68.3534 120.332 69.4997C116.725 70.3106 114.148 69.9326 112.352 69.082ZM148.945 57.656C150.846 55.6449 151.757 52.7303 150.98 49.7475C148.332 39.5837 143.48 31.3105 136.352 26.1448C129.084 20.8784 120.205 19.395 110.814 21.5066C100.778 23.7631 92.6297 29.1498 87.6596 37.0192C82.6881 44.8909 81.2841 54.6328 83.5873 64.8765C85.8277 74.8404 91.0228 82.9157 98.6339 87.864C106.262 92.8236 115.673 94.2203 125.509 92.0088C139.992 88.7524 150.204 78.7751 151.813 64.9362C152.172 61.8435 150.925 59.2939 148.945 57.656Z" fill="#A5C827" stroke="#A5C827" stroke-width="13"/>
<path d="M85.606 80.2147L79.5883 53.4511L84.9982 52.2347C89.5783 51.2049 92.4564 46.6571 91.4265 42.0771L90.0709 36.0481C89.0411 31.468 84.4934 28.5899 79.9133 29.6198L74.5034 30.8362L72.6462 22.5765C71.6164 17.9964 67.0687 15.1184 62.4886 16.1482L55.893 17.6312C51.3129 18.661 48.4349 23.2087 49.4647 27.7888L51.3219 36.0485L48.8956 36.594C44.3156 37.6238 41.4375 42.1716 42.4673 46.7516L43.8229 52.7806C44.8528 57.3607 49.4005 60.2388 53.9805 59.2089L56.4068 58.6634L62.9208 87.6341L64.7151 95.6143C65.7449 100.194 70.2926 103.072 74.8727 102.043L81.4683 100.56C86.0484 99.5298 88.9264 94.9821 87.8966 90.402L86.1023 82.4218L85.606 80.2147Z" fill="#A5C827" stroke="#A5C827" stroke-width="13"/>
<mask id="path-4-outside-1_273_5265" maskUnits="userSpaceOnUse" x="11.1816" y="12.6862" width="59.0114" height="105.9" fill="black">
<rect fill="white" x="11.1816" y="12.6862" width="59.0114" height="105.9"/>
<path d="M44.796 102.143C43.7183 102.385 42.6483 101.708 42.406 100.631L30.8774 49.3577C30.6351 48.28 31.3122 47.21 32.3899 46.9677L39.793 45.3031C40.8707 45.0608 41.9407 45.738 42.183 46.8157L53.7116 98.0885C53.9539 99.1662 53.2767 100.236 52.1991 100.479L44.796 102.143ZM28.8261 40.2337L27.3374 33.6126L27.1558 32.8051C26.9134 31.7274 27.5907 30.6573 28.6684 30.4151L28.9851 30.3439L36.1256 28.7383V28.7383C37.1754 28.5023 38.219 29.1575 38.4626 30.2056L38.6626 31.0663L40.1514 37.6873L40.3251 38.4602C40.5632 39.5187 39.8979 40.5698 38.8393 40.8077V40.8077L31.6989 42.4133L31.3822 42.4845C30.3045 42.7268 29.2344 42.0496 28.9921 40.9719L28.8261 40.2337Z"/>
</mask>
<path d="M44.796 102.143C43.7183 102.385 42.6483 101.708 42.406 100.631L30.8774 49.3577C30.6351 48.28 31.3122 47.21 32.3899 46.9677L39.793 45.3031C40.8707 45.0608 41.9407 45.738 42.183 46.8157L53.7116 98.0885C53.9539 99.1662 53.2767 100.236 52.1991 100.479L44.796 102.143ZM28.8261 40.2337L27.3374 33.6126L27.1558 32.8051C26.9134 31.7274 27.5907 30.6573 28.6684 30.4151L28.9851 30.3439L36.1256 28.7383V28.7383C37.1754 28.5023 38.219 29.1575 38.4626 30.2056L38.6626 31.0663L40.1514 37.6873L40.3251 38.4602C40.5632 39.5187 39.8979 40.5698 38.8393 40.8077V40.8077L31.6989 42.4133L31.3822 42.4845C30.3045 42.7268 29.2344 42.0496 28.9921 40.9719L28.8261 40.2337Z" fill="#A5C827"/>
<path d="M27.3374 33.6126L40.0207 30.7608L40.0206 30.7605L27.3374 33.6126ZM28.9851 30.3439L31.8363 43.0273L31.837 43.0272L28.9851 30.3439ZM38.6626 31.0663L51.346 28.2145L51.3357 28.1689L51.3252 28.1233L38.6626 31.0663ZM31.6989 42.4133L28.8471 29.7299L28.8469 29.73L31.6989 42.4133ZM55.0893 97.7788L43.5607 46.5059L18.194 52.2095L29.7226 103.482L55.0893 97.7788ZM35.2417 59.651L42.6448 57.9865L36.9412 32.6198L29.5381 34.2843L35.2417 59.651ZM29.4997 49.6675L41.0283 100.94L66.3949 95.2367L54.8664 43.9638L29.4997 49.6675ZM49.3472 87.7952L41.9442 89.4598L47.6478 114.826L55.0509 113.162L49.3472 87.7952ZM41.5094 37.3818L40.0207 30.7608L14.654 36.4645L16.1427 43.0855L41.5094 37.3818ZM31.837 43.0272L38.9774 41.4217L33.2737 16.055L26.1333 17.6605L31.837 43.0272ZM25.9793 33.9181L27.468 40.5391L52.8347 34.8355L51.346 28.2145L25.9793 33.9181ZM35.9875 28.1244L28.8471 29.7299L34.5507 55.0966L41.6911 53.4911L35.9875 28.1244ZM40.0206 30.7605L39.839 29.953L14.4725 35.6573L14.6541 36.4648L40.0206 30.7605ZM31.5196 43.0985L31.8363 43.0273L26.134 17.6604L25.8173 17.7316L31.5196 43.0985ZM28.8469 29.73L28.5301 29.8012L34.2342 55.1678L34.551 55.0965L28.8469 29.73ZM41.6754 38.1201L41.5094 37.3818L16.1427 43.0855L16.3088 43.8238L41.6754 38.1201ZM27.468 40.5391L27.6418 41.312L53.0085 35.6084L52.8347 34.8355L27.468 40.5391ZM25.8001 33.1486L26.0001 34.0093L51.3252 28.1233L51.1251 27.2627L25.8001 33.1486ZM38.9774 41.4217C33.058 42.7526 27.1736 39.0583 25.8001 33.1486L51.1251 27.2627C49.2644 19.2568 41.2928 14.2519 33.2737 16.055L38.9774 41.4217ZM27.6418 41.312C26.3047 35.3653 30.0418 29.4607 35.9886 28.1242L41.6901 53.4913C49.754 51.6789 54.8216 43.6722 53.0085 35.6084L27.6418 41.312ZM41.0283 100.94C39.6955 95.0132 43.4201 89.1279 49.3472 87.7952L55.0509 113.162C63.1333 111.345 68.2123 103.319 66.3949 95.2367L41.0283 100.94ZM43.5607 46.5059C44.8934 52.433 41.1689 58.3183 35.2417 59.651L29.5381 34.2843C21.4556 36.1017 16.3767 44.127 18.194 52.2095L43.5607 46.5059ZM39.839 29.953C41.172 35.8804 37.4471 41.7661 31.5196 43.0985L25.8173 17.7316C17.7342 19.5486 12.6549 27.5744 14.4725 35.6573L39.839 29.953ZM28.5301 29.8012C34.4573 28.4684 40.3427 32.1929 41.6754 38.1201L16.3088 43.8238C18.1261 51.9064 26.1517 56.9853 34.2342 55.1678L28.5301 29.8012ZM42.6448 57.9865C36.7176 59.3192 30.8324 55.5946 29.4997 49.6675L54.8664 43.9638C53.049 35.8814 45.0237 30.8024 36.9412 32.6198L42.6448 57.9865ZM29.7226 103.482C31.5399 111.565 39.5653 116.644 47.6478 114.826L41.9442 89.4598C47.8713 88.1271 53.7566 91.8516 55.0893 97.7788L29.7226 103.482Z" fill="#A5C827" mask="url(#path-4-outside-1_273_5265)"/>
<path d="M155.964 76.5162L143.761 22.2436L154.29 19.8761L154.583 21.1786L150.16 29.4713L148.941 31.4452L151.065 32.4607L152.774 33.3307L154.561 34.1904L155.804 32.3073L163.23 18.208C166.065 16.3162 169.49 14.976 173.48 14.0788L174.588 13.8296L176.834 23.8158C175.566 23.8728 174.236 24.1719 172.684 24.5208C162.376 26.8385 157.78 35.398 160.636 48.0978L166.493 74.1486L155.964 76.5162Z" fill="white"/>
<path d="M110.523 28.2343C126.714 24.5938 139.015 34.0163 143.444 53.7175L101.04 63.252L98.8374 63.7473L98.3452 61.5583L97.1147 56.0857L96.6225 53.8967L98.8253 53.4014L129.665 46.4672C125.984 39.3609 120.007 36.4504 112.187 38.2087C104.367 39.967 99.3417 44.8914 98.0156 51.8587L94.9316 52.5521L92.6879 53.0566L93.3031 55.7929L95.0258 63.4544L95.6411 66.1907L97.8848 65.6862L99.4268 65.3395C102.755 74.4799 110.129 78.4561 120.041 76.2273C127.531 74.5433 132.128 70.29 133.235 64.4068L143.809 62.0294C143.59 73.922 135.583 83.0814 122.366 86.0531C105.625 89.8174 92.076 81.0204 88.2122 63.8366C84.25 46.215 93.3409 32.0976 110.523 28.2343Z" fill="white"/>
<path d="M78.0438 84.2336L80.2769 94.1652L69.7787 96.5257L67.5456 86.5941L59.6057 51.2818L48.8866 53.692L46.6535 43.7604L57.3727 41.3502L53.6508 24.7976L64.149 22.4371L67.4986 37.3345L64.1834 38.0799L62.8154 38.3875L63.4357 41.1463L65.1725 48.8708L65.7928 51.6296L67.1609 51.322L70.4761 50.5766L77.5476 82.0266L78.0438 84.2336ZM83.8068 45.8403L71.0985 48.6977L68.8883 49.1947L68.3921 46.9876L67.1515 41.4701L66.6552 39.2631L68.8654 38.7661L81.5737 35.9087L83.8068 45.8403Z" fill="white"/>
<path d="M41.1279 102.968L28.7218 47.7924L40.0275 45.2504L52.4335 100.426L41.1279 102.968ZM27.1093 40.6196L25.6206 33.9986L25.0002 31.2397L27.2683 30.7298L34.4088 29.1243L36.3057 28.6978L36.9459 31.4523L38.4346 38.0733L39.0393 40.7629L37.1225 41.1937L29.9821 42.7992L27.714 43.3093L27.1093 40.6196Z" fill="white"/>
</g>
<defs>
<clipPath id="clip0_273_5265">
<rect width="213" height="117" fill="white"/>
</clipPath>
</defs>
</svg>
