<svg width="188" height="145" viewBox="0 0 188 145" fill="none" xmlns="http://www.w3.org/2000/svg">
<path d="M162.504 74.7319C161.303 74.6881 160.158 74.9066 159.129 75.3116C158.399 73.4717 156.943 71.9237 154.961 71.1295L147.703 68.2219C143.345 66.4762 138.397 68.5937 136.651 72.9515L117.453 120.877C115.707 125.234 117.825 130.182 122.182 131.928L128.488 134.454C132.845 136.199 137.793 134.082 139.539 129.724L148.724 106.794C150.782 101.658 153.313 98.9895 155.533 97.8031C157.576 96.7116 160.149 96.4407 163.558 97.8061C164.172 98.0523 164.655 98.2462 165.095 98.4355C169.113 100.166 174.706 98.7592 176.716 93.7427L179.212 87.5121C180.78 83.5973 178.878 79.1524 174.963 77.5841C170.851 75.9369 166.689 74.8843 162.504 74.7319Z" fill="#245BC6" stroke="#245BC6" stroke-width="13"/>
<path d="M89.3818 93.6668C89.0164 93.0375 88.7224 92.3285 88.5283 91.5264L105.54 98.3412C103.646 99.7655 100.572 100.474 95.7212 98.5311C92.2897 97.1564 90.3795 95.3849 89.3818 93.6668ZM126.01 104.978C128.716 104.398 131.117 102.512 132.166 99.6136C135.741 89.7377 136.43 80.1717 133.481 71.8768C130.475 63.4202 123.998 57.168 115.063 53.5885C105.514 49.7634 95.7478 49.5869 87.1944 53.2568C78.6385 56.9277 71.9632 64.1607 68.0588 73.9072C64.261 83.3874 63.9681 92.9851 67.4374 101.374C70.9147 109.783 77.8791 116.264 87.2372 120.013C101.017 125.533 115.085 123.096 124.249 112.603C126.298 110.258 126.713 107.45 126.01 104.978Z" fill="#245BC6" stroke="#245BC6" stroke-width="13"/>
<path d="M61.0341 87.6906L71.2351 62.226L76.3825 64.288C80.7402 66.0338 85.6881 63.9162 87.4338 59.5585L89.7317 53.8221C91.4774 49.4643 89.3599 44.5165 85.0022 42.7708L79.8548 40.7088L83.003 32.85C84.7487 28.4922 82.6312 23.5444 78.2735 21.7987L71.998 19.2848C67.6402 17.5391 62.6924 19.6566 60.9467 24.0143L57.7985 31.8731L55.49 30.9484C51.1323 29.2026 46.1844 31.3202 44.4387 35.6779L42.1408 41.4143C40.3951 45.7721 42.5125 50.7199 46.8703 52.4656L49.1788 53.3904L38.1366 80.9548L35.0949 88.5477C33.3492 92.9055 35.4667 97.8533 39.8244 99.599L46.0999 102.113C50.4577 103.859 55.4055 101.741 57.1512 97.3834L60.1929 89.7905L61.0341 87.6906Z" fill="#245BC6" stroke="#245BC6" stroke-width="13"/>
<mask id="path-4-outside-1_273_5266" maskUnits="userSpaceOnUse" x="-3.9573" y="-3.2477" width="72.4616" height="106.96" fill="black">
<rect fill="white" x="-3.9573" y="-3.2477" width="72.4616" height="106.96"/>
<path d="M14.9802 82.6446C13.9548 82.2338 13.4566 81.0696 13.8673 80.0443L33.4101 31.2601C33.8208 30.2347 34.985 29.7365 36.0104 30.1473L43.0541 32.969C44.0795 33.3797 44.5777 34.5439 44.167 35.5693L24.6242 84.3535C24.2135 85.3788 23.0493 85.877 22.0239 85.4663L14.9802 82.6446ZM36.8879 22.579L39.4115 16.2794L39.7193 15.5111C40.13 14.4857 41.2943 13.9874 42.3197 14.3982L42.6211 14.519L49.4149 17.2406V17.2406C50.4138 17.6407 50.9027 18.7718 50.5097 19.7736L50.187 20.5962L47.6634 26.8958L47.3689 27.6311C46.9654 28.6383 45.8218 29.1277 44.8146 28.7241V28.7241L38.0208 26.0026L37.7194 25.8818C36.694 25.4711 36.1958 24.3069 36.6065 23.2815L36.8879 22.579Z"/>
</mask>
<path d="M14.9802 82.6446C13.9548 82.2338 13.4566 81.0696 13.8673 80.0443L33.4101 31.2601C33.8208 30.2347 34.985 29.7365 36.0104 30.1473L43.0541 32.969C44.0795 33.3797 44.5777 34.5439 44.167 35.5693L24.6242 84.3535C24.2135 85.3788 23.0493 85.877 22.0239 85.4663L14.9802 82.6446ZM36.8879 22.579L39.4115 16.2794L39.7193 15.5111C40.13 14.4857 41.2943 13.9874 42.3197 14.3982L42.6211 14.519L49.4149 17.2406V17.2406C50.4138 17.6407 50.9027 18.7718 50.5097 19.7736L50.187 20.5962L47.6634 26.8958L47.3689 27.6311C46.9654 28.6383 45.8218 29.1277 44.8146 28.7241V28.7241L38.0208 26.0026L37.7194 25.8818C36.694 25.4711 36.1958 24.3069 36.6065 23.2815L36.8879 22.579Z" fill="#245BC6"/>
<path d="M39.4115 16.2794L51.4793 21.1137L51.4794 21.1134L39.4115 16.2794ZM42.6211 14.519L37.7862 26.5864L37.7868 26.5867L42.6211 14.519ZM50.187 20.5962L62.2548 25.4304L62.2721 25.387L62.2892 25.3435L50.187 20.5962ZM38.0208 26.0026L42.8551 13.9348L42.8548 13.9347L38.0208 26.0026ZM25.935 84.8786L45.4778 36.0944L21.3424 26.4258L1.79961 75.21L25.935 84.8786ZM31.1761 42.215L38.2199 45.0367L47.8884 20.9012L40.8447 18.0795L31.1761 42.215ZM32.0993 30.735L12.5565 79.5192L36.6919 89.1877L56.2347 40.4035L32.0993 30.735ZM26.8582 73.3986L19.8144 70.5769L10.1459 94.7123L17.1896 97.534L26.8582 73.3986ZM48.9556 27.4133L51.4793 21.1137L27.3438 11.4451L24.8202 17.7448L48.9556 27.4133ZM37.7868 26.5867L44.5806 29.3083L54.2492 5.17285L47.4553 2.45127L37.7868 26.5867ZM38.1193 15.7619L35.5957 22.0615L59.7311 31.7301L62.2548 25.4304L38.1193 15.7619ZM49.6489 16.6564L42.8551 13.9348L33.1865 38.0703L39.9803 40.7919L49.6489 16.6564ZM51.4794 21.1134L51.7871 20.3451L27.6515 10.6771L27.3437 11.4454L51.4794 21.1134ZM37.4848 26.4657L37.7862 26.5864L47.456 2.45152L47.1546 2.33079L37.4848 26.4657ZM42.8548 13.9347L42.5534 13.814L32.8854 37.9496L33.1868 38.0704L42.8548 13.9347ZM48.6742 28.1158L48.9556 27.4133L24.8202 17.7448L24.5388 18.4472L48.6742 28.1158ZM35.5957 22.0615L35.3011 22.7969L59.4366 32.4654L59.7311 31.7301L35.5957 22.0615ZM38.4076 15.0262L38.0849 15.8488L62.2892 25.3435L62.6119 24.5209L38.4076 15.0262ZM44.5806 29.3083C38.9486 27.0521 36.1919 20.6744 38.4076 15.0262L62.6119 24.5209C65.6134 16.8693 61.879 8.22933 54.2492 5.17285L44.5806 29.3083ZM35.3011 22.7969C37.5677 17.1388 43.9921 14.3898 49.6499 16.6568L39.9793 40.7914C47.6515 43.8656 56.363 40.1378 59.4366 32.4654L35.3011 22.7969ZM12.5565 79.5192C14.8157 73.8797 21.2187 71.1394 26.8582 73.3986L17.1896 97.534C24.8798 100.615 33.6113 96.8779 36.6919 89.1877L12.5565 79.5192ZM45.4778 36.0944C43.2186 41.7338 36.8156 44.4741 31.1761 42.215L40.8447 18.0795C33.1545 14.9989 24.423 18.7356 21.3424 26.4258L45.4778 36.0944ZM51.7871 20.3451C49.528 25.9849 43.1245 28.7253 37.4848 26.4657L47.1546 2.33079C39.4642 -0.750443 30.7321 2.98646 27.6515 10.6771L51.7871 20.3451ZM42.5534 13.814C48.193 16.0731 50.9334 22.4763 48.6742 28.1158L24.5388 18.4472C21.4581 26.1375 25.195 34.8691 32.8854 37.9496L42.5534 13.814ZM38.2199 45.0367C32.5804 42.7775 29.8401 36.3744 32.0993 30.735L56.2347 40.4035C59.3153 32.7134 55.5786 23.9819 47.8884 20.9012L38.2199 45.0367ZM1.79961 75.21C-1.28103 82.9002 2.4557 91.6317 10.1459 94.7123L19.8144 70.5769C25.4539 72.836 28.1942 79.2391 25.935 84.8786L1.79961 75.21Z" fill="#245BC6" mask="url(#path-4-outside-1_273_5266)"/>
<path d="M121.11 124.496L141.796 72.8577L151.815 76.8711L151.318 78.1104L142.976 82.4388L140.853 83.375L142.028 85.4151L142.944 87.1003L143.93 88.821L146.021 87.9733L160.127 80.5605C163.535 80.6074 167.116 81.4429 170.913 82.9637L171.967 83.3861L168.161 92.8876C167.084 92.2163 165.818 91.7094 164.342 91.1179C154.534 87.1891 145.898 91.6396 141.058 103.723L131.128 128.509L121.11 124.496Z" fill="white"/>
<path d="M111.013 58.9681C126.418 65.1392 131.217 79.8721 123.708 98.617L83.3624 82.4546L81.2666 81.615L82.1009 79.5323L84.1868 74.3253L85.0211 72.2426L87.117 73.0822L116.459 84.8366C117.452 76.8954 114.175 71.1112 106.734 68.1306C99.2939 65.15 92.3631 66.3616 87.3236 71.3522L84.3893 70.1767L82.2545 69.3215L81.2116 71.925L78.2914 79.2147L77.2484 81.8181L79.3833 82.6733L80.8504 83.2611C78.4154 92.6787 82.2398 100.132 91.6713 103.911C98.7973 106.765 104.996 105.864 109.24 101.643L119.301 105.673C112.384 115.35 100.597 118.363 88.0215 113.325C72.0927 106.944 65.9102 92.0198 72.4598 75.6701C79.1763 58.9038 94.6649 52.4191 111.013 58.9681Z" fill="white"/>
<path d="M52.5262 86.7191L48.7408 96.1686L38.7522 92.1672L42.5376 82.7177L55.997 49.1193L45.7981 45.0337L49.5835 35.5842L59.7824 39.6698L66.0915 23.9206L76.0801 27.922L70.4019 42.0963L67.2476 40.8327L65.946 40.3112L64.8944 42.9361L61.9502 50.2858L60.8987 52.9106L62.2004 53.4321L65.3547 54.6957L53.3674 84.6192L52.5262 86.7191ZM79.0234 58.3436L66.9319 53.4998L64.829 52.6574L65.6702 50.5575L67.7732 45.3078L68.6144 43.2079L70.7173 44.0503L82.8088 48.8941L79.0234 58.3436Z" fill="white"/>
<path d="M11.4908 81.2466L32.521 28.7492L43.2779 33.0584L22.2477 85.5557L11.4908 81.2466ZM35.2551 21.9247L37.7787 15.6251L38.8302 13.0001L40.9883 13.8647L47.7821 16.5863L49.5869 17.3093L48.5542 19.9419L46.0306 26.2415L45.0055 28.8006L43.1818 28.0698L36.388 25.3483L34.23 24.4838L35.2551 21.9247Z" fill="white"/>
</svg>
