<svg width="1112" height="54" viewBox="0 0 1112 54" fill="none" xmlns="http://www.w3.org/2000/svg">
<g clip-path="url(#clip0_303_15903)">
<rect width="1112" height="54" fill="white"/>
<path d="M0 0H1112V54H0V0Z" fill="#245BC6"/>
<path d="M280.105 43.5771C279.535 43.5338 276.991 43.447 276.421 43.447C275.544 43.2301 275.5 42.9265 275.544 41.9724C275.632 41.2784 275.895 37.9388 275.939 37.2448C276.026 36.9412 276.333 36.5943 276.684 36.5075L278.921 36.2473C279.316 36.2039 279.623 35.9871 279.711 35.6401L279.974 31.78C280.237 28.5705 280.719 25.3176 280.588 22.1081H280.325C280.281 22.1081 279.886 22.4984 279.711 22.7153C278.088 24.6236 277.035 26.9223 275.675 29.0476C275.588 29.2211 274.579 30.6957 274.447 30.9126L272.43 34.2956C272.298 34.5124 271.947 35.0763 271.947 35.1196V39.3701C271.947 39.3701 271.816 39.5435 271.772 39.6303C271.684 39.7604 271.509 39.9339 271.289 39.9773C271.114 40.0206 270.368 40.1074 270.281 40.1074C269.754 40.1508 267.211 40.1508 266.64 40.1074C266.333 40.0206 266.114 39.7604 266.026 39.5002V37.5918C266.026 37.2882 266.246 34.5124 266.246 34.1654C266.246 34.0353 266.333 27.5296 266.377 24.8405C266.377 23.7562 266.289 22.8454 266.246 21.7177C266.026 20.3732 263.965 21.4141 263.263 20.3732C263.219 20.2865 263.132 20.0262 263.132 19.9829C263.088 19.4624 263 17.2071 263 16.73V15.3421C263.088 15.1686 263.263 14.9084 263.482 14.9084H274.579C275.061 14.9084 275.061 15.6891 275.061 15.9927L274.798 19.2455C274.754 19.5058 274.579 19.8094 274.316 19.9829C273.57 20.3732 272.211 19.766 271.904 20.8069C271.86 21.4141 271.772 24.0164 271.772 24.5803V27.3127C271.772 27.3994 271.86 27.7898 271.904 27.9199C271.904 27.9199 271.991 28.05 272.035 28.05L272.43 27.703C272.474 27.5729 272.956 26.7055 273.044 26.4019C273.351 25.7947 275.763 20.4166 276.026 19.7226L276.816 18.2046L277.079 17.6408C277.167 17.3372 277.825 15.2553 277.956 14.9951C278.482 13.6506 279.009 13.347 280.456 13.2602L285.5 13H286.991C287.956 13.0867 288 14.3445 288 14.9951V19.9829C287.868 20.7636 285.939 20.5901 285.5 21.3274C285.456 21.3708 285.368 21.631 285.368 21.7177C285.325 21.8478 285.237 22.4117 285.237 22.5852L284.842 27.1826L284.491 30.3054C284.491 30.4355 284.404 32.951 284.36 33.9052C284.36 34.469 284.316 34.5992 284.491 34.9895C284.535 35.0763 284.579 35.2064 284.579 35.2064H286.86L287.254 35.6401C287.298 35.6835 287.298 38.199 287.254 39.2399C287.254 39.4134 287.035 41.0182 286.991 41.235C286.991 41.4519 286.904 43.0567 286.86 43.1868C286.86 43.447 286.684 43.9241 286.377 43.9675C285.939 44.0108 284.14 44.0108 283.746 43.9675L280.105 43.5771ZM282.211 20.8069C282.079 20.8069 282.079 21.0672 282.211 21.0672C282.342 21.0672 282.342 20.8069 282.211 20.8069ZM267.386 19.9829L267.518 20.113C267.605 19.9395 267.649 19.766 267.605 19.5925H267.386C267.561 19.6793 267.561 19.8961 267.386 19.9829ZM281.947 19.8527C281.947 20.0262 282.298 19.9829 282.342 19.9829C282.298 19.8961 282.167 19.7226 282.211 19.5925C282.211 19.5491 282.123 19.5491 282.079 19.5925C282.035 19.6359 281.947 19.8094 281.947 19.8527ZM269.272 19.7226C269.272 19.6359 269.096 19.6359 269.14 19.7226C269.14 19.8094 269.228 19.8094 269.272 19.7226ZM266.903 19.3323C266.86 19.3757 266.991 19.5491 267.035 19.5925C267.035 19.5925 267.035 19.6793 267.035 19.7226C267.123 19.4624 267.737 19.1154 267.605 18.8552C267.386 18.8552 266.991 19.1154 266.903 19.3323ZM268.132 19.1154L268.395 19.4624C268.439 19.4624 268.526 19.4624 268.526 19.4624C268.57 19.3323 268.57 18.8552 268.526 18.7251C268.526 18.6817 268.263 18.5082 268.263 18.4648C268.263 18.4648 268.263 18.248 268.263 18.2046C268.175 18.0745 267.737 17.8143 267.605 17.7275C267.386 17.5974 267.211 18.0745 266.903 17.9444C266.947 18.0745 266.904 18.2914 266.772 18.3347C266.816 18.6383 268 18.4215 268.132 18.7251C268.175 18.7684 268.132 19.0721 268.132 19.1154ZM269.14 19.2455C269.009 19.2455 269.009 19.4624 269.14 19.4624C269.272 19.4624 269.272 19.2455 269.14 19.2455ZM282.342 19.2455C282.342 19.3757 282.693 19.3323 282.737 19.3323C282.781 19.2455 282.693 19.1588 282.605 19.1154C282.693 19.0721 282.781 18.9853 282.737 18.8552C282.561 18.7684 282.342 19.1154 282.342 19.2455ZM267.868 18.8552C267.737 18.8552 267.737 19.1154 267.868 19.1154C268 19.1154 268 18.8552 267.868 18.8552ZM283.877 18.8552C283.746 18.8552 283.746 19.1154 283.877 19.1154C283.965 19.1154 283.965 18.8552 283.877 18.8552ZM268.658 18.4648C268.746 18.6383 268.921 18.6383 269.009 18.4648H268.658ZM282.342 18.3347C282.386 18.4215 282.518 18.5082 282.605 18.4648C282.561 18.3781 282.474 18.2914 282.342 18.3347ZM266.377 18.2046C266.246 18.2046 266.246 18.4648 266.377 18.4648C266.509 18.4648 266.509 18.2046 266.377 18.2046ZM267.737 18.2046L267.868 18.0745V18.3347L267.737 18.2046ZM267.167 17.6408C267.167 17.554 266.991 17.554 267.035 17.6408C267.035 17.6842 267.123 17.6842 267.167 17.6408ZM284.974 17.5107C284.842 17.5107 284.842 17.7275 284.974 17.7275C285.105 17.7275 285.105 17.5107 284.974 17.5107ZM282.342 17.1203L282.605 17.2504V17.1203H282.342ZM284.579 16.2529C284.491 16.2529 284.491 16.5131 284.579 16.5131C284.711 16.5131 284.711 16.2529 284.579 16.2529Z" fill="white"/>
<path d="M239 42.9981V42.5565C241.161 42.4682 243.276 42.8215 243.276 40.6579V14.4305C243.276 12.267 241.161 12.5319 239 12.4436V12.0021H247.276C252.471 11.9138 255.69 14.6513 255.69 18.7135C255.69 22.025 253.805 24.3652 250.586 25.2482C255.874 26.1313 259 29.7961 259 34.4322C259 40.1281 254.816 43.0864 247.874 42.9981C246.586 42.9539 245.943 42.9539 245.943 42.9539L239 42.9981ZM253.253 18.8459C253.253 15.9759 252.011 12.5761 246.908 12.5761H246.034V25.0716C246.264 25.0716 246.862 25.0716 247.874 25.0716C252.195 24.6742 253.253 21.7601 253.253 18.8459ZM256.333 34.079C256.333 30.3259 254.632 25.8222 247.828 25.8222H246.034V42.2475H247.368C254.172 42.2475 256.333 38.2295 256.333 34.079Z" fill="white"/>
<path d="M220.529 12H229V43H220.529V24.5329L185.471 36.5786V43H177V12H185.471V27.19L220.529 14.9671V12Z" fill="white"/>
<path d="M152.844 45.7393C152.844 45.6959 152.757 45.5221 152.713 45.4787C152.757 44.4361 152.757 43.2196 152.626 42.0901V32.6195L152.539 30.7949L152.147 30.4039C150.927 29.622 149.62 29.3179 148.401 30.1433C148.313 30.1867 147.965 30.5777 147.878 30.6646C147.834 30.708 147.747 30.8384 147.747 30.8818V34.0097C147.747 35.1827 149.882 34.4441 150.492 35.2696C150.579 35.3564 150.753 35.7909 150.753 35.8778C150.84 36.3556 151.014 37.7458 151.014 37.8761C151.058 38.5712 151.058 41.8295 151.014 42.4811C150.84 43.0459 150.274 43.1328 149.751 43.1328C147.007 43.2196 143.87 42.8721 141.125 42.3508C140.777 42.2639 140.385 41.9164 140.385 41.4819C140.341 40.6565 140.341 36.9204 140.385 36.1384C140.385 36.0081 140.472 35.1827 140.516 35.0089C140.646 34.2269 142.04 34.4007 142.52 33.7491V32.272C142.52 32.1851 142.432 31.3162 142.389 31.0121C142.345 30.8384 142.258 30.2302 142.258 30.1433C142.171 29.7088 141.91 29.4047 141.474 29.3179C140.646 28.9703 140.036 28.7096 139.252 29.3179C139.122 29.3613 138.381 29.9695 138.12 30.1433C137.945 30.317 137.815 30.4474 137.728 30.6646V32.1851C137.771 32.272 137.989 33.5753 137.989 33.7491C138.033 34.0097 138.25 36.0081 138.25 36.2687C138.294 36.3991 138.512 37.8327 138.512 38.0065C138.599 39.4401 137.684 40.0917 136.9 41.2647C136.769 41.4385 135.724 42.959 135.637 43.1328C135.506 43.3065 135.201 43.8278 134.852 43.8713H134.025C133.546 43.741 131.542 43.1762 131.15 43.0024C131.019 42.959 129.276 42.2205 128.623 42.0032C128.318 41.8729 127.49 41.3516 127.49 41.004V38.8753C127.49 38.5278 127.969 38.2671 128.274 38.2671C128.405 38.2237 129.494 38.1368 129.625 38.1368C130.191 38.0065 130.888 36.7901 130.888 36.2687V31.2728C130.888 31.2728 130.975 30.9687 131.019 30.8818L131.411 29.8826C131.759 28.7965 131.716 27.0588 132.979 26.5375C133.371 26.4941 135.244 26.1465 135.637 26.0596C135.724 26.0162 136.159 26.0162 136.246 25.799L136.116 25.6686C135.811 25.5383 134.591 24.9735 134.373 24.7998C134.286 24.7563 133.938 24.3653 133.894 24.2785C133.633 23.8875 132.587 22.0629 132.369 21.6719L132.108 21.1505L131.15 18.544C130.627 17.4144 130.278 16.3718 129.102 15.807C127.926 15.2857 126.88 15.1988 127.011 13.7218C127.055 13.2005 127.185 12.7226 127.621 12.4619C127.621 12.4619 127.926 12.375 128.013 12.3316C130.017 11.8972 131.542 11.9841 133.633 12.0709C134.809 12.4619 136.072 13.157 137.161 13.7218C137.684 13.9824 137.945 14.4603 138.12 15.0685C138.512 16.4153 139.731 20.7596 139.906 21.2809C139.906 21.3678 139.949 21.8456 139.993 21.9325C139.993 22.0629 140.08 22.9317 140.124 23.062C140.167 23.4096 140.298 23.5834 140.603 23.7571L142.389 24.9301C142.781 25.1473 142.955 25.3211 143.26 24.9301C143.304 23.8006 143.217 22.7579 143.129 21.6719C143.086 21.2809 143.042 20.5423 142.781 20.1948C142.302 19.63 140.995 18.9784 140.995 18.2833C140.951 17.8489 140.69 15.6333 140.603 15.1988C140.516 14.1997 141.082 13.8956 141.997 13.8521C143.87 13.7218 145.874 13.6783 147.747 13.7218C148.183 13.7652 148.27 14.3734 148.27 14.6775C148.226 15.3726 148.139 17.1972 148.139 17.3276C148.096 17.8054 147.965 18.7612 147.616 19.1956C147.181 19.6735 146.005 20.1514 146.005 20.803V25.0604C146.005 25.1039 146.092 25.2342 146.135 25.2776C146.179 25.3645 146.353 25.5383 146.397 25.5383C146.919 25.6686 147.573 25.3645 148.008 25.1473C148.226 25.1039 149.098 24.626 149.272 24.5391C149.272 24.5391 149.359 24.4522 149.402 24.4088C149.446 24.2785 149.62 23.9309 149.62 23.8875L149.838 17.6751C149.838 17.6317 150.492 15.8939 150.753 15.1988C150.927 14.7644 151.145 14.5038 151.493 14.1997L154.02 12.9398C154.804 12.5054 155.24 12.1578 156.111 12.2013C156.242 12.2013 157.026 12.3316 157.113 12.3316C157.418 12.375 159.683 12.4619 159.988 12.4619C161.034 12.5054 161.687 12.5923 162.123 13.5915C163.081 15.6767 161.252 15.5898 159.727 15.9374C159.553 15.9808 159.117 16.1111 158.986 16.3284C158.289 17.6751 157.984 19.1087 157.505 20.5423L156.503 23.453C156.373 23.8006 156.198 24.0178 155.85 24.2785C155.85 24.3219 155.676 24.4088 155.588 24.4088C155.414 24.4957 153.585 25.1039 153.367 25.1473C153.062 25.2342 152.626 25.4514 152.408 25.799C152.321 25.8858 152.452 26.0162 152.539 26.0596C152.67 26.0596 153.585 26.1465 153.759 26.19H156.765C157.157 26.2768 157.418 26.7113 157.636 27.0154C158.072 27.8408 159.509 30.2736 159.64 30.5343C160.25 31.7072 159.727 32.9236 159.64 34.14C159.64 34.3138 159.553 36.2253 159.509 36.8769V37.8761C160.075 38.8753 161.731 38.0065 161.862 37.0073C161.992 36.3556 161.6 35.6605 161.513 35.0089C161.469 34.7917 161.382 34.2704 161.6 34.0097L162.515 33.1408C162.733 32.9236 163.125 32.9671 163.386 33.0105C164.432 33.9663 165.303 35.1827 165.869 36.486C165.913 36.5729 166 36.8335 166 36.8769V37.8761L165.739 42.2205C165.739 42.3073 165.651 42.8721 165.608 43.0024C165.521 43.4369 165.216 43.8278 164.737 44.0016L160.642 45.4787C160.119 45.6525 159.335 45.6959 158.856 45.7393C158.551 45.7828 155.937 45.8697 155.588 45.8697C155.458 45.8697 154.369 46 154.238 46H153.105L152.844 45.7393ZM158.028 42.7418C157.897 42.7418 157.897 43.0024 158.028 43.0024C158.159 43.0024 158.159 42.7418 158.028 42.7418ZM157.113 41.8729C157.026 41.8295 157.026 42.1336 157.113 42.0901C157.2 42.0467 157.2 41.9163 157.113 41.8729ZM158.507 41.8729C158.376 41.8729 158.376 42.0901 158.507 42.0901C158.594 42.0901 158.594 41.8729 158.507 41.8729ZM156.111 41.7426C156.068 41.7426 156.068 41.9163 156.111 41.8729C156.198 41.8729 156.198 41.786 156.111 41.7426ZM158.159 41.7426C158.159 41.6991 157.984 41.6991 158.028 41.7426C158.028 41.8295 158.115 41.8295 158.159 41.7426ZM157.767 41.395C157.723 41.395 157.549 41.4819 157.505 41.4819C157.592 41.5254 157.941 41.5254 158.028 41.4819L158.159 41.395C158.072 41.3516 157.81 41.3516 157.767 41.395ZM163.125 41.395V41.4819L163.256 41.395H163.125ZM155.719 41.2647C155.588 41.2647 155.588 41.4819 155.719 41.4819C155.85 41.4819 155.85 41.2647 155.719 41.2647ZM162.863 41.2647C162.733 41.2647 162.733 41.4819 162.863 41.4819C162.994 41.4819 162.994 41.2647 162.863 41.2647ZM156.982 41.1344V41.2647H157.113L156.982 41.1344ZM163.386 41.1344C163.43 41.3081 163.822 41.2647 163.909 41.2647V41.004C163.822 40.9606 163.43 40.9172 163.386 41.1344ZM157.767 41.1344C157.767 41.0475 157.592 41.0475 157.636 41.1344C157.636 41.1778 157.723 41.1778 157.767 41.1344ZM161.992 40.8737C162.036 40.9172 162.123 41.0909 162.123 41.1344L162.254 40.8737L162.994 41.1344C162.994 41.1344 163.081 41.0475 163.125 41.004C163.256 40.7868 162.776 40.6131 163.125 40.3958C163.125 40.3958 163.343 40.3958 163.386 40.3958C163.691 40.309 163.778 40.0483 163.386 40.0049L163.517 39.8745C163.517 39.8745 163.43 39.3966 163.386 39.2229C163.386 39.2229 163.299 39.136 163.256 39.136C162.82 39.0491 162.428 39.2663 162.123 39.4835L161.862 39.2229C161.557 39.3098 162.036 39.918 161.382 40.1352C161.774 40.2221 161.862 40.4827 162.254 40.3958C162.428 40.6131 161.949 40.6131 161.992 40.8737ZM161.731 40.8737C161.774 40.7868 161.469 40.7868 161.513 40.8737C161.513 40.9172 161.731 40.9172 161.731 40.8737ZM161.252 40.6131C161.121 40.6131 161.121 40.8737 161.252 40.8737C161.382 40.8737 161.382 40.6131 161.252 40.6131ZM157.767 40.5262V40.6131L157.897 40.5262H157.767ZM160.511 40.5262C160.38 40.5262 160.38 40.7434 160.511 40.7434C160.642 40.7434 160.642 40.5262 160.511 40.5262ZM160.772 40.5262V40.6131H160.903L160.772 40.5262ZM156.503 40.2655C156.373 40.2655 156.373 40.5262 156.503 40.5262C156.634 40.5262 156.634 40.2655 156.503 40.2655ZM162.733 40.3958C162.733 40.4827 162.646 40.4827 162.602 40.3958C162.602 40.309 162.776 40.309 162.733 40.3958ZM155.414 40.1352L155.501 40.2655V40.1352H155.414ZM162.384 39.8745L162.733 39.6139C162.82 39.5704 163.212 39.7876 163.256 39.8745C163.125 39.9614 163.038 40.1352 162.994 40.2655C162.994 40.2221 162.907 40.0483 162.863 40.0049C162.559 39.7876 162.602 40.2655 162.384 40.1352V39.8745ZM159.378 39.7442C159.378 39.7876 159.378 39.8745 159.378 39.8745C159.466 39.8311 159.553 39.7442 159.509 39.6139C159.509 39.6139 159.422 39.7008 159.378 39.7442ZM160.642 39.7442L160.511 39.8745H160.772L160.642 39.7442ZM158.594 39.3532C158.638 39.4401 158.638 39.7008 158.594 39.7442C158.638 39.7442 158.725 39.7442 158.725 39.7442C159.596 39.3098 158.812 38.7016 158.289 38.8753C158.246 38.9188 158.246 39.0057 158.289 39.0057C158.289 39.0491 158.594 39.3098 158.594 39.3532ZM159.727 39.2229C159.64 39.2229 159.64 39.4835 159.727 39.4835C159.858 39.4835 159.858 39.2229 159.727 39.2229ZM160.903 39.2229C160.772 39.2229 160.772 39.4835 160.903 39.4835C161.034 39.4835 161.034 39.2229 160.903 39.2229ZM156.373 38.745L156.111 39.0057C156.242 39.0491 156.416 38.9622 156.503 38.8753L156.373 38.745ZM157.897 38.4843V39.0057C158.028 38.9188 158.507 38.2237 158.159 38.1368C157.941 38.0499 157.679 38.0934 157.505 38.2671C157.549 38.2671 157.854 38.3975 157.897 38.4843ZM155.719 38.6147C155.588 38.6147 155.588 38.8753 155.719 38.8753C155.85 38.8753 155.85 38.6147 155.719 38.6147ZM155.85 38.3975C155.719 38.3975 155.719 38.6147 155.85 38.6147C155.98 38.6147 155.98 38.3975 155.85 38.3975ZM156.634 38.2671V38.3975H157.244C156.939 38.2237 157.2 37.8761 157.375 37.7893C157.113 37.4852 156.547 37.572 156.503 37.3983C156.503 37.4417 156.416 37.7024 156.373 37.7893C156.329 38.0065 156.939 38.0499 156.765 38.2671H156.634ZM158.507 38.2671C158.376 38.2671 158.376 38.4843 158.507 38.4843C158.594 38.4843 158.594 38.2671 158.507 38.2671ZM157.505 37.8761C157.375 37.8761 157.375 38.1368 157.505 38.1368C157.636 38.1368 157.636 37.8761 157.505 37.8761ZM134.025 37.7893C133.981 37.7893 133.981 37.8327 134.025 37.8761H134.373L134.155 37.6589C134.112 37.6589 134.025 37.7458 134.025 37.7893ZM157.636 37.6589C157.505 37.6589 157.505 37.8761 157.636 37.8761C157.767 37.8761 157.767 37.6589 157.636 37.6589ZM157.375 37.3983C157.375 37.3983 157.375 37.4852 157.375 37.5286H157.767C157.854 37.3114 157.505 37.1376 157.375 37.3983ZM156.765 37.1376C156.634 37.1376 156.634 37.3983 156.765 37.3983C156.852 37.3983 156.852 37.1376 156.765 37.1376ZM156.982 37.1376C156.852 37.1376 156.852 37.3983 156.982 37.3983C157.113 37.3983 157.113 37.1376 156.982 37.1376ZM156.373 33.4015V33.6187C156.46 33.5753 156.547 33.5318 156.503 33.4015H156.373ZM155.501 30.4039V30.5343H155.588L155.501 30.4039ZM153.236 29.0572C153.28 29.1006 153.367 29.2744 153.367 29.3179C153.628 29.231 153.628 28.7096 153.367 28.6662C153.323 28.7531 153.192 28.9269 153.236 29.0572ZM146.745 27.7973V27.9277L146.876 27.7973H146.745ZM152.844 22.1932C153.236 22.4104 153.149 22.2801 153.497 22.0629C153.715 21.9325 153.759 22.4538 153.889 22.3235C153.933 22.2801 154.02 21.976 154.02 21.9325C154.02 21.8456 154.194 21.3678 154.238 21.2809C154.238 21.2374 154.151 21.1505 154.107 21.1505C153.672 21.1505 153.715 21.585 153.367 21.8022C153.192 21.7588 153.28 21.585 153.236 21.4112C153.236 21.1506 153.149 20.5423 153.105 20.5423H152.844C152.888 20.6292 152.888 20.9768 152.844 21.0202C152.844 21.0637 152.757 21.1505 152.713 21.1505V22.0629C152.713 22.0629 152.844 22.1497 152.844 22.1932ZM154.499 21.4112C154.499 21.4981 154.586 21.7588 154.63 21.8022C154.63 21.8456 154.717 21.8456 154.761 21.8022V21.2809C154.717 21.194 154.586 21.1071 154.499 21.1505V21.4112ZM153.759 20.9333C153.628 20.9333 153.628 21.1505 153.759 21.1505C153.889 21.1505 153.889 20.9333 153.759 20.9333ZM152.278 20.3251V20.9333C152.626 20.7161 152.626 20.5423 152.278 20.3251ZM154.499 20.6727V20.9333C154.543 20.9768 154.717 20.9768 154.761 20.9333C154.761 20.9333 154.848 20.8464 154.891 20.803C155.066 20.7161 155.109 21.0202 155.414 20.9333C155.458 20.5423 155.153 20.1948 154.761 20.1948C154.761 20.1514 154.761 20.0645 154.761 20.0645C154.499 19.1087 153.628 20.0645 154.107 20.4555C154.151 20.4555 154.325 20.5423 154.369 20.5423C154.412 20.5858 154.499 20.6727 154.499 20.6727ZM153.367 20.5423C153.41 20.5858 153.585 20.6727 153.628 20.6727C153.715 20.5423 153.497 20.3686 153.367 20.4555V20.5423ZM155.719 20.5423C155.588 20.5423 155.588 20.803 155.719 20.803C155.85 20.803 155.85 20.5423 155.719 20.5423ZM155.022 20.5423C154.979 20.6292 154.891 20.6292 154.891 20.5423C154.848 20.4989 155.022 20.4989 155.022 20.5423ZM152.626 19.9341C152.626 19.9776 152.713 20.2382 152.713 20.3251H152.626C152.626 20.2817 152.8 20.1948 152.844 20.1948C152.888 20.1948 152.975 20.2817 152.975 20.3251C153.018 20.3251 153.105 20.3251 153.105 20.3251L153.759 19.6735C154.107 19.7604 154.499 19.3694 154.761 19.1956C154.543 18.6309 154.02 19.5432 153.889 19.4563C153.889 19.4128 153.759 19.1956 153.759 19.1956C153.759 19.1522 153.672 19.0653 153.628 19.0653L153.759 18.935C153.628 18.8046 153.105 18.6743 152.975 18.935C152.975 18.9784 153.018 19.2825 152.975 19.3259C152.888 19.5432 152.583 19.5866 152.626 19.9341ZM152.016 19.8038V20.0645C152.103 20.021 152.191 19.8907 152.147 19.8038H152.016ZM155.022 19.4563C155.022 19.4997 155.109 19.7604 155.153 19.8038H155.022C155.458 19.4997 155.414 19.8907 155.719 19.8038C155.893 19.3259 155.022 19.1522 155.022 19.4563ZM152.016 19.0653C151.973 19.1087 151.973 19.2825 152.016 19.3259C152.234 19.4563 152.583 18.7177 152.539 18.544C152.278 18.6743 152.06 18.8046 152.016 19.0653ZM152.713 18.153C152.626 18.153 152.626 18.4136 152.713 18.4136C152.844 18.4136 152.844 18.153 152.713 18.153ZM152.713 18.0661C152.713 18.0226 152.583 18.153 152.626 18.153C152.67 18.1964 152.757 18.153 152.713 18.0661ZM153.628 17.6751L153.759 17.8054V17.6751H153.628ZM154.238 17.5448C154.151 17.5448 154.151 17.8489 154.238 17.8054C154.325 17.762 154.325 17.5882 154.238 17.5448ZM155.85 16.589C155.893 16.589 155.98 16.7628 155.98 16.8062C156.111 16.8931 156.46 16.3718 156.503 16.3284C156.503 16.2849 156.416 16.198 156.373 16.198C156.198 16.1546 155.763 16.1546 155.719 16.198L155.588 16.4587C155.676 16.4587 155.85 16.5456 155.85 16.589ZM153.105 16.4587V16.7194H153.367C153.977 16.5456 153.41 16.4153 153.497 16.198C153.367 16.1111 153.105 16.4587 153.105 16.4587ZM154.107 16.4587C154.02 16.4153 154.02 16.7628 154.107 16.7194C154.194 16.6759 154.194 16.5021 154.107 16.4587ZM155.022 16.589C154.891 16.589 154.891 16.8062 155.022 16.8062C155.153 16.8062 155.153 16.589 155.022 16.589ZM155.153 16.3284L155.414 16.589C155.458 16.4587 155.283 16.2415 155.153 16.3284ZM156.634 16.3284C156.503 16.3284 156.503 16.589 156.634 16.589C156.765 16.589 156.765 16.3284 156.634 16.3284ZM153.889 15.807L153.759 16.0677H153.889V15.807ZM153.105 15.807C152.975 15.807 152.975 16.0677 153.105 16.0677C153.236 16.0677 153.236 15.807 153.105 15.807ZM156.503 15.5464C156.547 15.5898 156.634 15.807 156.634 15.807C156.678 15.807 156.765 15.807 156.765 15.807C156.721 15.7636 156.721 15.5898 156.765 15.5464C156.852 15.5029 157.157 15.3292 157.244 15.3292V15.1988H157.113C157.07 15.1988 156.808 15.3292 156.765 15.3292C156.721 15.3292 156.547 15.1988 156.503 15.1988C156.503 15.1988 156.416 15.1988 156.373 15.1988C156.373 15.1988 156.373 15.112 156.373 15.0685C156.111 14.5038 155.719 15.5029 155.588 15.5464L155.85 15.6767C155.85 15.3292 156.329 15.3726 156.503 15.5464ZM154.761 15.3292L155.283 15.5464C155.283 15.5464 155.371 15.4595 155.414 15.4161C155.414 15.3726 155.458 15.1554 155.501 15.0685H155.283C155.109 15.112 154.761 15.1988 154.761 15.1988V15.3292ZM153.889 15.4161C153.933 15.3292 153.759 15.3292 153.759 15.4161C153.802 15.5029 153.889 15.5029 153.889 15.4161ZM153.889 14.8079C153.759 14.8079 153.759 15.0685 153.889 15.0685C154.02 15.0685 154.02 14.8079 153.889 14.8079ZM155.414 14.4603C155.283 14.4603 155.283 14.6775 155.414 14.6775C155.501 14.6775 155.501 14.4603 155.414 14.4603Z" fill="white"/>
<path d="M117.608 17.637C118.425 18.3332 119.111 19.1454 119.665 20.0736C120.249 21.0018 120.439 22.0171 120.235 23.1193C120.118 23.8155 119.855 24.4827 119.446 25.1208C119.038 25.759 118.542 26.3536 117.958 26.9048C117.403 27.4559 116.805 27.9635 116.163 28.4276C115.52 28.8918 114.907 29.2979 114.324 29.6459C113.039 30.4581 111.682 31.1833 110.252 31.8215C109.23 32.3146 108.179 32.7787 107.099 33.2138C106.019 33.6489 104.939 34.055 103.859 34.4321C100.94 35.4474 97.963 36.2451 94.9273 36.8252C91.9208 37.4054 88.8705 37.7679 85.7764 37.913C84.8131 37.971 83.7623 38 82.6239 38C81.5147 38 80.3909 37.9565 79.2525 37.8695C78.1142 37.7825 76.9904 37.6374 75.8812 37.4344C74.8012 37.2313 73.7941 36.9412 72.8601 36.5641C72.4806 36.4191 72.1157 36.2451 71.7654 36.042C71.4152 35.839 71.0795 35.5924 70.7584 35.3023C70.7 35.2153 70.6125 35.1283 70.4957 35.0413C70.4081 34.9252 70.3352 34.8092 70.2768 34.6932L68 30.4291C68.2335 30.052 68.5254 29.6605 68.8757 29.2544C69.3135 28.7322 69.7806 28.2246 70.2768 27.7315C70.773 27.2384 71.2692 26.7742 71.7654 26.3391C73.8963 24.5407 76.2314 22.9453 78.7709 21.553C81.3104 20.1606 83.8645 18.9423 86.4332 17.8981C87.5715 17.4339 88.7829 16.9988 90.0672 16.5927C93.2489 15.5775 96.5035 14.8088 99.8311 14.2867C103.188 13.7355 106.545 13.3584 109.901 13.1554C112.149 13.0104 114.426 12.9668 116.732 13.0249H119.446L123.956 18.5507H124H123.956L117.608 17.637ZM70.8022 31.4734C70.9481 31.5894 71.1087 31.7055 71.2838 31.8215C71.459 31.9085 71.6195 31.9955 71.7654 32.0826C72.32 32.3436 72.8746 32.5757 73.4292 32.7787C74.013 32.9528 74.5968 33.1123 75.1806 33.2573C77.7201 33.8955 80.3763 34.2436 83.1493 34.3016C85.9223 34.3596 88.5932 34.2871 91.1618 34.084C94.723 33.823 98.2403 33.2138 101.714 32.2566C105.217 31.2994 108.588 30.0375 111.828 28.4712C112.762 28.007 113.74 27.4414 114.762 26.7742C115.812 26.1071 116.644 25.3529 117.257 24.5117C117.608 24.0186 117.856 23.4819 118.002 22.9018C118.148 22.2926 118.075 21.698 117.783 21.1179C117.549 20.6537 117.243 20.2766 116.863 19.9866C116.484 19.6965 116.046 19.479 115.55 19.3339C115.083 19.1889 114.586 19.1019 114.061 19.0728C113.565 19.0438 113.083 19.0728 112.616 19.1599C111.098 19.4789 109.829 20.2041 108.807 21.3354C107.785 22.4377 107.012 23.6995 106.486 25.1208H106.443L104.604 22.6407C104.954 21.6545 105.406 20.7118 105.961 19.8125C106.516 18.8843 107.201 18.0866 108.019 17.4194C105.479 17.6515 102.954 17.9561 100.444 18.3332C97.963 18.7103 95.4819 19.1454 93.0008 19.6385C89.9651 20.2186 87.0169 21.0888 84.1564 22.2491C81.325 23.4094 78.6396 24.8743 76.1001 26.6437C75.3995 27.1368 74.699 27.6735 73.9984 28.2536C73.3271 28.8047 72.6849 29.3994 72.0719 30.0375C71.8384 30.2696 71.6195 30.5162 71.4152 30.7772C71.2108 31.0093 71.0065 31.2413 70.8022 31.4734Z" fill="white"/>
<path d="M50 12.0016H58.2453C64.967 11.9129 69 15.4607 69 20.9153C69 26.7247 64.967 30.4055 58.2453 30.3168C57.5283 30.3168 57.0354 30.3168 56.7217 30.3168V40.5166C56.7217 42.6452 59.0967 42.3791 61.1132 42.5122V43H50V42.5122C52.1061 42.3791 54.2123 42.6452 54.2123 40.5166V14.485C54.2123 12.1347 52.1061 12.4894 50 12.4894V12.0016ZM66.625 21.1814C66.625 17.3232 64.3844 12.7555 57.7524 12.7555H56.7217V29.6073H57.7524C64.3844 29.6073 66.625 25.3943 66.625 21.1814Z" fill="white"/>
<path d="M46 12V43H40.799V17.0043H26.201V43H21V12H46Z" fill="white"/>
</g>
<defs>
<clipPath id="clip0_303_15903">
<rect width="1112" height="54" fill="white"/>
</clipPath>
</defs>
</svg>
