<svg width="1112" height="54" viewBox="0 0 1112 54" fill="none" xmlns="http://www.w3.org/2000/svg">
<g clip-path="url(#clip0_315_17939)">
<rect width="1112" height="54" fill="white"/>
<path d="M-29 0H1083V54H-29V0Z" fill="#245BC6"/>
<path d="M178.415 42.2742C178.415 44.6452 180.645 44.3548 182.922 44.4516V44.9355H171V44.4516C173.278 44.3548 175.507 44.6452 175.507 42.2742V13.7258C175.507 11.3548 173.278 11.6452 171 11.5484V11.0645C175.507 11.0645 178.415 11.0645 182.922 11.0645V11.5484C180.645 11.6452 178.415 11.3548 178.415 13.7258V24.4194H182.922C183.649 15.9032 187.139 10 191.695 10C196.735 10 201 17.5 201 27.7581C201 38.0645 196.735 46 191.695 46C186.557 46 182.777 38.0645 182.777 27.7581C182.777 26.9355 182.777 26.1613 182.826 25.3871H178.415V42.2742ZM185.685 27.7581C185.685 37.4839 187.527 45.0806 191.695 45.0806C195.814 45.0806 198.092 37.4839 198.092 27.7581C198.092 18.0323 195.814 10.8226 191.695 10.8226C187.527 10.8226 185.685 18.0323 185.685 27.7581Z" fill="white"/>
<path d="M146 46C137.022 46 129 39.0972 129 28.5C129 18 137.022 11 146 11C154.93 11 163 18 163 28.5C163 39.0972 154.93 46 146 46ZM134.874 28.5C134.874 35.7917 140.079 40.3125 146 40.3125C151.874 40.3125 157.126 35.7917 157.126 28.5C157.126 21.3056 151.874 16.6875 146 16.6875C140.079 16.6875 134.874 21.3056 134.874 28.5Z" fill="white"/>
<path d="M106.81 13.2883C107.542 13.1589 108.386 13.0134 109.341 12.8516C110.296 12.6899 111.251 12.5929 112.207 12.5605C113.194 12.5282 114.133 12.5767 115.024 12.7061C115.948 12.8355 116.728 13.0942 117.365 13.4824C117.62 13.6441 117.938 13.9028 118.32 14.2586C118.734 14.6144 119.1 15.0187 119.419 15.4715C119.769 15.892 120.039 16.3286 120.23 16.7815C120.421 17.2019 120.437 17.5739 120.278 17.8973C120.215 18.0267 120.087 18.1723 119.896 18.334C119.737 18.4634 119.546 18.5927 119.323 18.7221C119.1 18.8515 118.877 18.9647 118.654 19.0617C118.431 19.1588 118.256 19.2396 118.129 19.3043C117.842 19.4337 117.54 19.5631 117.221 19.6924C116.935 19.8218 116.664 19.9674 116.41 20.1291C116.855 20.0967 117.285 20.0482 117.699 19.9835C118.113 19.9188 118.543 19.8542 118.989 19.7895C119.307 19.7571 119.61 19.7248 119.896 19.6924C120.215 19.6277 120.533 19.6277 120.851 19.6924C120.947 19.7248 121.026 19.741 121.09 19.741C121.186 19.741 121.265 19.7571 121.329 19.7895C121.807 20.2746 122.3 20.7113 122.81 21.0994C123.319 21.4875 123.844 21.8757 124.386 22.2638C124.64 22.4579 124.943 22.7166 125.293 23.0401C125.675 23.3312 125.898 23.6546 125.962 24.0104C126.025 24.2692 126.01 24.5279 125.914 24.7867C125.85 25.0454 125.739 25.288 125.58 25.5144C125.325 25.9349 125.007 26.3392 124.624 26.7273C124.242 27.1154 123.876 27.4874 123.526 27.8432C121.902 29.234 119.992 30.4954 117.795 31.6275C115.629 32.7272 113.305 33.7137 110.821 34.587C108.338 35.4603 105.743 36.2203 103.036 36.8672C100.362 37.5141 97.7031 38.0478 95.0603 38.4683C92.4175 38.8887 89.8543 39.2122 87.3708 39.4386C84.919 39.665 82.6583 39.7944 80.5887 39.8267C80.4295 39.8267 80.2066 39.8752 79.92 39.9723C79.6334 40.037 79.4583 39.9884 79.3946 39.8267C79.3309 39.6003 79.2195 39.2122 79.0603 38.6623C78.9011 38.1125 78.7419 37.5465 78.5827 36.9643C78.4235 36.3497 78.2802 35.7999 78.1528 35.3147C78.0255 34.7972 77.9777 34.4738 78.0096 34.3444C78.0096 34.312 78.2324 34.1018 78.6782 33.7137C79.124 33.3255 79.6653 32.8404 80.3021 32.2582C80.9707 31.676 81.6872 31.0614 82.4513 30.4146C83.2155 29.7353 83.9319 29.1046 84.6006 28.5224C85.3011 27.9079 85.8902 27.3904 86.3678 26.9699C86.8772 26.5171 87.1956 26.2421 87.323 26.1451C88.6603 25.0131 89.9817 23.881 91.2872 22.749C92.6245 21.5846 93.9618 20.4202 95.2991 19.2558C91.3508 20.4849 87.5459 21.9889 83.8842 23.7678C83.1518 24.1236 82.4195 24.4956 81.6872 24.8837C80.9548 25.2718 80.2384 25.6923 79.5379 26.1451H79.4902L78.8215 24.6896C78.917 24.5603 79.0603 24.4309 79.2513 24.3015C79.4424 24.1398 79.6175 24.0104 79.7767 23.9134C80.4454 23.4282 81.1459 22.9754 81.8782 22.5549C82.6106 22.1021 83.3429 21.6654 84.0752 21.245C85.0941 20.6628 86.129 20.1291 87.1797 19.6439C88.2623 19.1264 89.3449 18.6413 90.4275 18.1884C92.0513 17.5092 93.6911 16.8947 95.3469 16.3448C97.0026 15.7626 98.6902 15.2451 100.41 14.7923C100.505 14.7276 100.76 14.5174 101.174 14.1616C101.588 13.7734 102.081 13.3368 102.654 12.8516C103.259 12.3341 103.88 11.8005 104.517 11.2506C105.154 10.6684 105.743 10.1347 106.284 9.64956C106.857 9.1644 107.335 8.77626 107.717 8.48516C108.099 8.16172 108.306 8 108.338 8C108.433 8 108.656 8.09704 109.007 8.2911C109.389 8.45282 109.771 8.64689 110.153 8.8733C110.535 9.09971 110.853 9.32612 111.108 9.55253C111.363 9.77894 111.426 9.92449 111.299 9.98918C110.535 10.4743 109.771 11.008 109.007 11.5902C108.274 12.1401 107.542 12.7061 106.81 13.2883ZM81.6394 35.1206C83.1041 35.1853 84.5847 35.1692 86.0812 35.0721C87.6096 34.9751 89.122 34.8457 90.6185 34.684C92.5608 34.4899 94.4712 34.2635 96.3499 34.0048C98.2603 33.7137 100.171 33.3741 102.081 32.9859C103.546 32.6948 105.17 32.339 106.953 31.9186C108.736 31.4657 110.519 30.9482 112.302 30.366C114.117 29.7515 115.836 29.0561 117.46 28.2798C119.116 27.4712 120.517 26.5656 121.663 25.5629C121.791 25.4659 121.934 25.3365 122.093 25.1748C122.284 24.9807 122.459 24.7867 122.619 24.5926C122.778 24.3985 122.889 24.2045 122.953 24.0104C123.048 23.784 123.064 23.5738 123.001 23.3797C122.873 23.0886 122.587 22.8784 122.141 22.749C121.695 22.5873 121.154 22.4902 120.517 22.4579C119.912 22.4255 119.243 22.4255 118.511 22.4579C117.811 22.4579 117.126 22.4902 116.457 22.5549C115.789 22.6196 115.184 22.7005 114.642 22.7975C114.101 22.8622 113.703 22.9107 113.448 22.943C112.684 23.0724 111.92 23.2018 111.156 23.3312C110.392 23.4605 109.612 23.6061 108.816 23.7678C107.733 23.9619 106.65 24.1721 105.568 24.3985C104.485 24.5926 103.403 24.819 102.32 25.0778C100.887 25.3689 99.4543 25.6923 98.0215 26.0481C96.6205 26.3715 95.2354 26.7435 93.8663 27.164L93.8185 27.1154L93.914 25.66C94.2324 25.4982 94.5508 25.3689 94.8693 25.2718C95.1877 25.1424 95.522 25.0131 95.8722 24.8837C96.7319 24.5602 97.6394 24.2206 98.5946 23.8649C99.7409 23.4767 100.887 23.1048 102.033 22.749C103.212 22.3608 104.39 21.9727 105.568 21.5846C106.969 21.1318 108.354 20.6628 109.723 20.1776C111.092 19.6924 112.461 19.1749 113.83 18.6251C113.99 18.5604 114.276 18.4472 114.69 18.2855C115.104 18.1237 115.534 17.9297 115.98 17.7033C116.425 17.4769 116.823 17.2505 117.174 17.024C117.524 16.7976 117.715 16.5874 117.747 16.3933C117.779 16.1669 117.651 15.989 117.365 15.8596C117.11 15.7303 116.792 15.6332 116.41 15.5686C116.059 15.5039 115.709 15.4715 115.359 15.4715C115.04 15.4392 114.818 15.423 114.69 15.423C113.544 15.423 112.366 15.4877 111.156 15.6171C109.978 15.7141 108.831 15.8597 107.717 16.0537C106.698 16.2154 105.647 16.4257 104.565 16.6844C103.514 16.9432 102.495 17.2505 101.508 17.6062L97.4961 21.0994H97.4484C95.0603 23.2341 92.7041 25.3527 90.3797 27.4551C88.0553 29.5574 85.6513 31.6275 83.1678 33.6651L81.6394 35.1206Z" fill="white"/>
<path d="M33.6327 20.52C29.5818 20.52 26.2933 20.7143 26.2933 28C26.2933 35.2857 29.5818 35.48 33.6327 35.48H75V45H33.6327C24.4347 45 17 45 17 28C17 11 24.4347 11 33.6327 11H75V20.52H33.6327Z" fill="white"/>
</g>
<defs>
<clipPath id="clip0_315_17939">
<rect width="1112" height="54" fill="white"/>
</clipPath>
</defs>
</svg>
