<svg width="1112" height="54" viewBox="0 0 1112 54" fill="none" xmlns="http://www.w3.org/2000/svg">
<g clip-path="url(#clip0_315_17948)">
<rect width="1112" height="54" fill="white"/>
<path d="M0 0H1112V54H0V0Z" fill="#245BC6"/>
<path d="M291 43.5V8.50001H297.042V22.9H301.104C302.525 13.85 310.344 8 318.925 8C328.419 8 337 15.2 337 26C337 36.9 328.419 44 318.925 44C310.141 44 302.221 38 301.002 28.55H297.042V43.5H291ZM307.095 26C307.095 33.5 312.629 38.15 318.925 38.15C325.17 38.15 330.755 33.5 330.755 26C330.755 18.6 325.17 13.85 318.925 13.85C312.629 13.85 307.095 18.6 307.095 26Z" fill="white"/>
<path d="M270.733 34.641L282.357 7.10258L291 7V7.51283C286.148 7.61539 285.39 7.41026 285.39 12.0256V40.1795C285.39 42.6923 287.715 42.3846 290.09 42.4872V43H277.657V42.4872C280.032 42.3846 282.357 42.6923 282.357 40.1795V10.641L268.054 45H267.599L267.7 9.92308C267.7 7.35898 265.375 7.71795 263 7.61539V7.10258C267.7 7.10258 270.733 7.10258 275.433 7.10258V7.61539C273.058 7.71795 270.733 7.35898 270.733 9.92308V34.641Z" fill="white"/>
<path d="M263.728 16.5391C263.558 16.4035 263.353 16.2849 263.114 16.1832C262.91 16.0476 262.705 15.9289 262.501 15.8272C261.887 15.556 261.24 15.3017 260.558 15.0644C259.911 14.827 259.246 14.6236 258.564 14.4541C255.633 13.7083 252.531 13.3014 249.259 13.2336C246.021 13.1658 242.903 13.2506 239.903 13.4879C236.086 13.7591 232.32 14.3863 228.604 15.3695C224.889 16.3527 221.276 17.6071 217.766 19.1327C215.55 20.1159 213.403 21.1838 211.324 22.3365C210.949 22.5738 210.557 22.8111 210.148 23.0485C209.773 23.2858 209.398 23.5401 209.023 23.8113H208.972L207.898 22.2857C208.001 22.15 208.137 22.0144 208.307 21.8788C208.512 21.7093 208.665 21.5737 208.767 21.472C209.415 20.9635 210.08 20.4888 210.761 20.0481C211.477 19.5734 212.176 19.1157 212.858 18.675C214.357 17.7257 215.942 16.8782 217.612 16.1323C220.032 14.9796 222.52 13.9625 225.077 13.0811C228.485 11.8945 231.945 10.9791 235.455 10.3349C239 9.65687 242.579 9.2331 246.192 9.06359C247.316 9.02968 248.526 9.01271 249.822 9.01271C251.151 8.97881 252.48 9.01273 253.809 9.11444C255.139 9.21614 256.434 9.38564 257.695 9.62297C258.99 9.86028 260.183 10.1824 261.274 10.5892C261.683 10.7587 262.109 10.9791 262.552 11.2503C262.995 11.4876 263.387 11.7588 263.728 12.064C263.83 12.1657 263.932 12.2843 264.035 12.42C264.171 12.5556 264.273 12.6742 264.341 12.7759L267 17.7597C265.977 19.4887 264.614 20.9974 262.91 22.2857C261.24 23.574 259.416 24.7097 257.439 25.6929C255.497 26.6422 253.486 27.4558 251.407 28.1339C249.327 28.7781 247.368 29.3205 245.527 29.7612C242.46 30.4732 239.358 31.0326 236.222 31.4394C233.086 31.8463 229.951 32.1344 226.815 32.3039C225.724 32.3717 224.651 32.4226 223.594 32.4565C222.537 32.4565 221.498 32.4226 220.475 32.3548C220.407 32.3548 220.237 32.3548 219.964 32.3548C219.691 32.3548 219.402 32.3378 219.095 32.3039C218.788 32.27 218.516 32.2361 218.277 32.2022C218.038 32.1344 217.902 32.0666 217.868 31.9988L216.948 29.7612C215.652 30.9478 214.374 32.1683 213.113 33.4227C211.852 34.6432 210.608 35.8637 209.381 37.0842L205.904 41C205.904 41 205.87 41 205.802 41C205.768 41 205.751 40.9831 205.751 40.9491C205.581 40.8813 205.393 40.7118 205.189 40.4406C204.984 40.1694 204.78 39.8812 204.575 39.5761C204.405 39.271 204.251 38.9658 204.115 38.6607C204.013 38.3217 203.979 38.0674 204.013 37.8979C204.013 37.7962 204.285 37.4402 204.831 36.83C205.41 36.1858 206.109 35.423 206.927 34.5415C207.779 33.6601 208.699 32.7277 209.688 31.7445C210.71 30.7274 211.665 29.7782 212.551 28.8967C213.471 27.9813 214.255 27.2016 214.903 26.5574C215.584 25.8794 216.01 25.4556 216.181 25.2861C217.51 23.9978 218.839 22.7095 220.169 21.4212C221.498 20.1328 222.827 18.8445 224.156 17.5562C224.736 17.0477 225.332 16.8612 225.946 16.9968C226.082 16.9968 226.287 17.0646 226.559 17.2002C226.627 17.2002 226.713 17.2511 226.815 17.3528C226.917 17.3528 227.156 17.4545 227.531 17.6579C227.906 17.8613 228.281 18.0987 228.656 18.3699C229.03 18.6072 229.337 18.8615 229.576 19.1327C229.848 19.37 229.934 19.5226 229.831 19.5904C228.093 20.8109 226.406 22.0483 224.77 23.3027C223.134 24.5232 221.532 25.7946 219.964 27.1168C222.418 27.1846 224.872 27.2524 227.326 27.3202C229.78 27.3541 232.251 27.3372 234.74 27.2694C237.33 27.2016 239.971 27.0151 242.664 26.71C245.391 26.3709 248.032 25.8115 250.589 25.0318C253.145 24.252 255.548 23.1841 257.797 21.828C260.047 20.4719 262.024 18.7089 263.728 16.5391Z" fill="white"/>
<path d="M181.103 8C191 8 199 7.99999 199 26C199 44 191 44 181.051 44H152.897C143 44 135 44 135 26C135 7.99999 143 8 152.897 8H181.103ZM181.205 33.9714C185.564 33.9714 189.103 33.9714 189.103 26.0514C189.103 18.1314 185.564 18.1314 181.205 18.1314H152.897C148.538 18.1314 145 18.1314 145 26.0514C145 33.9714 148.538 33.9714 152.897 33.9714H181.205Z" fill="white"/>
<path d="M104.261 43.8513C103.954 43.8018 103.698 43.4548 103.493 43.3061C103.442 42.8601 103.442 40.7289 103.493 40.2828C103.493 40.2332 103.851 38.6472 103.954 38.0525C104.107 37.309 104.772 36.9125 105.591 36.9125H110.245C110.705 36.9125 111.114 36.7143 111.268 36.3178V31.3615C111.268 31.1137 111.37 30.0233 111.421 29.7755V20.8542C111.421 20.4577 111.319 18.6735 111.268 18.277C111.012 17.5335 110.245 17.6822 109.529 17.7318C109.069 17.7813 108.608 17.8309 108.353 18.277C107.841 19.863 107.278 21.4985 106.869 23.0845C106.869 23.2332 106.613 24.3732 106.562 24.5219C106.562 24.621 106.46 25.0175 106.409 25.1166C106.409 25.2157 106.307 25.5131 106.307 25.5627C106.204 25.7114 105.795 26.0583 105.744 26.1079H104.568L102.061 25.7114C101.601 25.6122 101.141 25.2653 101.038 24.8192C100.987 24.3236 100.987 22.0437 101.038 21.5481L101.448 16.2945C101.448 15.9971 101.55 13.2216 101.601 12.9242C101.601 12.6764 101.703 11.5364 101.754 11.3382C101.806 10.793 101.908 10.2478 102.522 10H104.261C104.465 10.0496 106 10.1487 106.153 10.1487C106.46 10.1982 109.324 10.2974 109.631 10.2974C111.37 10.4461 113.058 10.8425 114.797 10.8921C115.257 10.9417 117.303 10.9417 117.764 10.8921C117.866 10.8921 118.787 10.7434 118.94 10.7434L126.663 10.4461H129.579C130.295 10.5452 130.755 11.3382 130.755 11.8834V22.4402C130.96 23.3324 131.062 24.2741 130.96 25.2653C130.397 26.0088 129.477 25.8105 128.607 25.9592C128.402 25.9592 126.715 26.207 126.51 26.207C125.947 26.3061 125.334 26.0087 125.231 25.414L123.748 19.8134C123.646 19.4169 123.39 18.7726 122.878 18.723H121.395C120.986 18.723 119.963 18.8222 119.912 18.8717L119.503 19.3178C119.452 19.3673 119.349 21.449 119.4 22.2915C119.4 22.6385 119.758 25.9592 119.758 26.3557C119.861 27.2478 120.065 31.2128 120.065 32.1049C120.219 32.551 120.679 32.7988 121.139 32.898C122.009 33.1458 126.101 34.137 126.97 34.3353C127.175 34.484 127.533 34.7813 127.584 35.0787C127.789 37.5073 127.789 40.1837 127.738 42.5627C127.635 43.1574 127.38 43.8018 126.663 43.8513C125.129 43.9009 117.866 44 116.229 44H106.409C106.153 44 104.619 43.9009 104.261 43.8513ZM115.257 40.8775L115.104 41.0262H115.257V40.8775ZM116.127 41.0262C116.178 40.9271 115.974 40.9271 116.025 41.0262C116.025 41.1254 116.127 41.1254 116.127 41.0262ZM117.15 40.4315C117.15 40.481 116.996 40.828 116.996 40.8775C117.252 40.7784 117.713 40.5802 117.303 40.2828L117.15 40.4315ZM114.081 40.4315C113.928 40.4315 113.928 40.7289 114.081 40.7289C114.235 40.7289 114.235 40.4315 114.081 40.4315ZM116.229 40.4315C116.28 40.4315 116.638 40.5802 116.69 40.5802C116.792 40.5306 117.15 40.2332 117.15 40.1837C117.048 40.2332 116.638 40.2332 116.536 40.035C116.638 39.9854 116.945 39.688 116.996 39.5889C117.048 39.5889 117.048 39.4898 116.996 39.4402H115.871V39.7376H116.127V40.4315C116.178 40.4315 116.229 40.4315 116.229 40.4315ZM115.104 40.2828C114.951 40.2828 114.951 40.5802 115.104 40.5802C115.257 40.5802 115.257 40.2828 115.104 40.2828ZM119.094 40.2828C118.94 40.2828 118.94 40.5802 119.094 40.5802C119.247 40.5802 119.247 40.2828 119.094 40.2828ZM111.421 40.1837C111.575 40.4315 112.035 40.1837 111.882 40.035H111.421C111.421 40.0846 111.421 40.1837 111.421 40.1837ZM114.388 40.1837C114.388 40.2332 114.388 40.2828 114.388 40.2828C114.593 40.4811 114.848 39.8863 114.541 39.8863C114.49 39.9358 114.388 40.1341 114.388 40.1837ZM115.411 40.1837V40.2828H115.564V40.1837H115.411ZM119.758 40.1837C119.758 40.1837 120.219 40.481 120.219 40.1837C120.117 40.1341 119.707 39.688 119.605 39.5889V39.2916C119.605 39.2916 119.554 39.2916 119.503 39.2916C119.094 39.5394 119.605 40.035 119.758 40.1837ZM112.905 39.8863C112.751 39.8863 112.751 40.1837 112.905 40.1837C113.007 40.1837 113.007 39.8863 112.905 39.8863ZM120.679 39.8863C120.73 39.9854 120.884 40.0846 120.986 40.035C121.139 39.7376 121.242 39.1429 120.679 39.2916V39.8863ZM112.342 39.7376C112.393 39.9359 112.598 39.9358 112.751 39.8863C112.649 39.7872 112.547 39.6385 112.495 39.4402C112.393 39.4898 112.24 39.6385 112.342 39.7376ZM113.16 39.5889C113.212 39.6385 113.314 39.7376 113.314 39.7376L114.235 39.4402C114.388 39.3907 113.672 38.9446 113.621 38.895C113.518 38.9942 113.058 39.3411 113.16 39.5889ZM114.951 39.5889C115.002 39.688 115.104 39.8367 115.257 39.7376V38.895C114.644 38.6968 114.797 39.3411 114.951 39.5889ZM117.303 39.4402C117.406 40.035 117.866 39.688 117.764 39.4402H117.303ZM120.833 39.5889C120.935 39.6385 120.935 39.7376 120.833 39.7376C120.73 39.7872 120.73 39.5889 120.833 39.5889ZM121.702 39.2916C121.549 39.2916 121.549 39.5889 121.702 39.5889C121.856 39.5889 121.856 39.2916 121.702 39.2916ZM118.173 39.1429C118.173 39.1924 118.429 39.2916 118.48 39.2916C118.531 39.3411 118.838 39.3411 118.94 39.2916C118.582 39.2916 118.991 38.895 118.94 38.7464C118.736 38.6472 118.48 38.9942 118.48 39.0437C118.122 38.8455 118.429 38.7464 118.48 38.6472C118.48 38.5977 118.377 38.2012 118.633 38.2012C118.633 38.2012 118.889 38.3499 118.94 38.3499C118.991 38.3499 119.554 38.449 119.605 38.4985C120.219 38.6472 119.656 39.0437 120.219 39.2916L120.372 39.1429V38.2012C120.321 38.2012 120.014 38.102 119.912 38.0525C119.912 38.0029 119.912 37.9038 119.912 37.9038H120.526C120.679 37.5568 120.065 37.5073 119.912 37.6064C119.81 37.656 119.554 38.102 119.503 38.2012H119.4C119.298 38.102 118.838 37.7055 118.787 37.6064C118.787 37.5568 118.991 37.4577 119.094 37.4577C119.094 37.4577 119.196 37.6064 119.247 37.6064C119.605 37.6064 119.861 37.2595 119.758 36.9125C119.4 36.863 118.531 37.1108 118.326 37.4577C118.889 37.656 118.019 38.8455 117.764 38.3499V39.0437C117.815 39.0437 118.122 39.1429 118.173 39.1429ZM121.395 39.0437V39.2916H121.549V38.895C121.498 38.895 121.395 38.9942 121.395 39.0437ZM113.621 39.0437C113.774 39.0437 113.774 39.2916 113.621 39.2916C113.467 39.2916 113.467 39.0437 113.621 39.0437ZM116.127 38.895C116.178 38.895 116.383 39.2915 116.536 39.1429C116.69 39.0933 116.996 38.6968 116.996 38.6472C116.996 38.5481 116.741 38.102 116.69 38.0525V37.7551C116.638 37.8047 116.434 37.9038 116.383 37.9038C116.383 37.9038 116.28 37.9038 116.229 37.9038C115.974 38.2507 115.922 38.4985 116.127 38.895ZM113.467 38.7464C113.518 38.6472 113.314 38.6472 113.314 38.7464C113.365 38.7959 113.467 38.7959 113.467 38.7464ZM114.235 38.4985C114.081 38.4985 114.081 38.7464 114.235 38.7464C114.388 38.7464 114.388 38.4985 114.235 38.4985ZM122.469 38.4985C122.316 38.4985 122.316 38.7464 122.469 38.7464C122.623 38.7464 122.623 38.4985 122.469 38.4985ZM113.007 38.3499C112.905 38.3499 112.905 38.6472 113.007 38.6472C113.16 38.6472 113.16 38.3499 113.007 38.3499ZM115.257 37.9038C115.257 37.9038 115.36 38.0525 115.411 38.0525C115.616 37.7551 116.536 37.4577 116.383 37.1603C116.178 37.309 115.053 37.5568 115.257 37.9038ZM116.843 37.9038C116.843 37.9533 116.945 38.0525 116.996 38.0525H117.764C117.866 37.8047 117.559 37.309 117.303 37.4577C117.252 37.4082 117.252 37.2099 117.303 37.1603C117.61 36.9125 118.173 37.2099 118.173 36.4665C117.61 36.6152 117.508 36.2682 117.61 35.7726C117.508 35.723 117.099 35.723 116.996 35.7726C116.792 35.8717 116.485 36.2682 116.536 36.3178L116.69 36.4665L116.843 36.1691C116.894 36.2187 116.996 36.4169 116.996 36.4665C116.996 36.516 116.843 36.7639 116.843 36.7639V37.9038ZM120.679 37.4577C120.679 37.5569 120.833 37.9534 120.833 38.0525H121.139C121.549 37.7551 120.833 37.5073 120.679 37.309C120.679 37.3586 120.679 37.4577 120.679 37.4577ZM113.928 37.7551C113.825 37.7055 113.825 37.9038 113.928 37.9038C114.03 37.8542 114.03 37.7551 113.928 37.7551ZM119.605 37.6064C119.503 37.6064 119.503 37.9038 119.605 37.9038C119.758 37.9038 119.758 37.6064 119.605 37.6064ZM115.104 37.4577C114.951 37.4577 114.951 37.7551 115.104 37.7551C115.257 37.7551 115.257 37.4577 115.104 37.4577ZM121.549 37.4577C121.395 37.4577 121.395 37.7551 121.549 37.7551C121.702 37.7551 121.702 37.4577 121.549 37.4577ZM119.247 37.0612C119.4 37.0612 119.4 37.309 119.247 37.309C119.094 37.309 119.094 37.0612 119.247 37.0612ZM114.951 36.9125C114.797 36.9125 114.797 37.1603 114.951 37.1603C115.104 37.1603 115.104 36.9125 114.951 36.9125ZM115.257 36.7639V37.0612L115.871 36.9125C115.922 36.9125 115.922 36.7143 115.871 36.6152C115.564 36.2682 115.309 36.516 115.257 36.0204C114.951 36.2682 115.206 36.516 115.257 36.7639ZM117.15 36.9125C117.303 36.9125 117.303 37.1603 117.15 37.1603C116.996 37.1603 116.996 36.9125 117.15 36.9125ZM116.996 36.7639C117.15 36.7639 117.15 37.0612 116.996 37.0612C116.843 37.0612 116.843 36.7639 116.996 36.7639ZM118.48 36.7639C118.48 36.8134 118.48 36.9125 118.48 36.9125C118.736 37.0612 118.889 36.6152 118.633 36.4665C118.582 36.516 118.48 36.7143 118.48 36.7639ZM120.986 36.7639C121.037 36.863 121.139 36.9621 121.242 36.9125C121.242 36.863 121.191 36.6647 121.139 36.6152H120.986C120.986 36.6647 120.986 36.7639 120.986 36.7639ZM116.229 36.6152C116.127 36.6152 116.127 36.9125 116.229 36.9125C116.383 36.9125 116.383 36.6152 116.229 36.6152ZM117.303 36.6152C117.457 36.6152 117.457 36.9125 117.303 36.9125C117.15 36.9125 117.15 36.6152 117.303 36.6152ZM117.15 36.4665C117.303 36.4665 117.303 36.7639 117.15 36.7639C116.996 36.7639 116.996 36.4665 117.15 36.4665ZM119.605 36.0204C119.656 36.1691 119.758 36.4665 119.758 36.4665C119.81 36.516 119.912 36.516 119.912 36.4665L120.372 35.9213C119.81 36.2682 119.912 35.7726 119.605 35.9213V36.0204ZM118.787 35.9213C118.633 35.9213 118.633 36.1691 118.787 36.1691C118.94 36.1691 118.94 35.9213 118.787 35.9213ZM116.536 35.3761V35.9213L116.996 35.4752L116.69 35.2274C116.69 35.2274 116.536 35.3265 116.536 35.3761ZM117.457 35.0787V35.2274H117.61L117.457 35.0787ZM115.564 34.93C115.513 34.93 115.411 35.0292 115.411 35.0787H116.025V34.93C115.922 34.8805 115.616 34.8805 115.564 34.93ZM116.536 34.6326C116.383 34.6326 116.383 34.93 116.536 34.93C116.69 34.93 116.69 34.6326 116.536 34.6326ZM118.326 34.7813C118.377 34.6822 117.968 34.6822 118.019 34.7813C118.071 34.8805 118.275 34.8805 118.326 34.7813ZM116.383 34.6326C116.434 34.5335 116.229 34.5335 116.229 34.6326C116.28 34.7318 116.383 34.7318 116.383 34.6326ZM117.303 34.484C117.252 34.3848 117.048 34.5831 117.15 34.6326C117.252 34.6822 117.355 34.5831 117.303 34.484ZM116.536 33.6414C116.383 33.6414 116.383 33.8892 116.536 33.8892C116.69 33.8892 116.69 33.6414 116.536 33.6414ZM115.104 16.0466C115.053 15.9475 114.848 16.1458 114.951 16.1953C115.053 16.1953 115.155 16.0962 115.104 16.0466ZM123.441 15.898V16.0466H123.901V15.898H123.441ZM114.797 15.7493V15.898H114.951L114.797 15.7493ZM122.469 15.6006V15.7493H122.623L122.469 15.6006ZM120.833 15.3032V15.6006C121.088 15.7493 121.242 15.5015 121.242 15.3032H120.833ZM115.871 15.3032C115.718 15.3032 115.718 15.6006 115.871 15.6006C116.025 15.6006 116.025 15.3032 115.871 15.3032ZM123.901 15.3032C123.953 15.3032 124.157 15.4519 124.208 15.4519H124.362C124.413 15.4023 124.72 15.3032 124.771 15.3032C124.566 14.7085 124.566 14.9563 124.208 15.0058C123.85 15.0554 123.595 14.9067 123.288 15.1545C123.39 15.1545 123.799 15.2536 123.901 15.3032ZM118.326 14.8571V15.3032L118.787 15.1545C118.684 15.0058 118.48 14.9067 118.326 14.8571ZM117.61 15.0058V15.1545H117.764L117.61 15.0058ZM121.856 15.0058C121.702 15.0058 121.702 15.3032 121.856 15.3032C122.009 15.3032 122.009 15.0058 121.856 15.0058ZM122.316 15.0058L122.162 15.1545H122.316V15.0058ZM115.718 14.8571C115.667 14.758 115.462 14.9563 115.564 15.0058C115.616 15.0554 115.718 14.9563 115.718 14.8571ZM116.843 14.8571C116.894 14.9067 116.996 15.0058 116.996 15.0058L117.15 14.4606C117.099 14.5102 116.741 14.6589 116.843 14.8571ZM123.288 14.7084V14.8571H123.441L123.288 14.7084ZM118.173 14.6093C118.019 14.6093 118.019 14.8571 118.173 14.8571C118.326 14.8571 118.326 14.6093 118.173 14.6093ZM114.388 14.3119V14.4606L114.541 14.3119H114.388ZM121.242 14.3119C121.139 14.3119 121.139 14.6093 121.242 14.6093C121.395 14.6093 121.395 14.3119 121.242 14.3119ZM122.316 14.0146C122.316 14.1137 122.418 14.4111 122.469 14.4606C122.623 14.6093 123.441 13.965 123.441 13.7172C123.339 13.7172 122.316 13.8659 122.316 14.0146ZM123.748 13.7172V14.1632C123.799 14.0641 123.953 13.8659 123.901 13.7172H123.748ZM125.999 14.0146C125.845 14.0146 125.845 14.3119 125.999 14.3119C126.101 14.3119 126.101 14.0146 125.999 14.0146ZM124.924 14.0146C124.924 13.9154 124.72 13.9154 124.771 14.0146C124.771 14.1137 124.873 14.1137 124.924 14.0146ZM126.101 13.7172C125.999 13.7172 125.999 14.0146 126.101 14.0146C126.203 14.0146 126.203 13.7172 126.101 13.7172ZM122.009 13.5685V13.7172H122.316L122.009 13.5685Z" fill="white"/>
<path d="M82.2817 44C72.6761 44 64 36.85 64 25.95C64 15.15 72.7793 8 82.385 8C88.3239 8 93.6432 10.45 97 15.3L92.0939 19.15C89.8732 15.85 86.5164 13.85 82.385 13.85C76.0845 13.85 70.3521 18.55 70.3521 25.95C70.3521 33.45 75.9812 38.15 82.385 38.15C86.3615 38.15 89.8732 36.55 92.0939 33L96.7934 37.05C93.2817 41.75 88.1174 44 82.2817 44Z" fill="white"/>
<path d="M17.9469 43.0486C17.7758 42.7767 17.5533 42.4029 17.2795 41.9272C17.0399 41.4515 16.9544 41.0607 17.0228 40.7549C17.0228 40.6869 17.3822 40.2621 18.101 39.4806C18.8539 38.699 19.778 37.7476 20.8733 36.6262C21.9685 35.5049 23.1665 34.2816 24.4671 32.9563C25.8019 31.6311 27.0512 30.3908 28.2149 29.2354C29.3786 28.0801 30.3883 27.0777 31.2439 26.2281C32.0996 25.3786 32.6301 24.852 32.8354 24.6481C33.0066 24.4782 33.52 23.9684 34.3756 23.1189C35.2313 22.2694 36.241 21.267 37.4047 20.1116C38.6026 18.9563 39.869 17.733 41.2038 16.4417C42.5386 15.1165 43.7708 13.9102 44.9003 12.8228C46.064 11.7355 47.0394 10.8349 47.8266 10.1214C48.6138 9.37378 49.0417 9 49.1101 9C49.1786 9 49.2984 9.08496 49.4695 9.25486C49.6749 9.39078 49.8802 9.56067 50.0856 9.76456C50.2909 9.96844 50.4792 10.1723 50.6503 10.3762C50.8215 10.5461 50.9412 10.665 51.0097 10.733C51.0439 10.801 51.1466 10.9539 51.3177 11.1918C51.5231 11.3956 51.7113 11.6335 51.8825 11.9053C52.0878 12.1432 52.259 12.3811 52.3959 12.6189C52.5328 12.8228 52.5499 12.9587 52.4472 13.0267C51.1466 13.9442 49.8631 14.9126 48.5967 15.932C47.3646 16.9175 46.1324 17.9369 44.9003 18.9903C43.4628 20.1796 42.0424 21.4029 40.6391 22.6602C39.27 23.9175 37.8838 25.1748 36.4806 26.432C34.9061 27.8932 33.3317 29.3714 31.7573 30.8665C30.2171 32.3616 28.6598 33.8738 27.0854 35.4029C30.0973 33.568 33.0579 31.767 35.9672 30C38.9106 28.233 41.8883 26.466 44.9003 24.699C45.1399 24.5631 45.6875 24.2403 46.5431 23.7306C47.3988 23.1869 48.4598 22.5413 49.7262 21.7937C51.0268 21.0461 52.4472 20.2136 53.9874 19.2961C55.5618 18.3447 57.1362 17.3932 58.7107 16.4417C60.3193 15.4903 61.8766 14.5728 63.3826 13.6893C64.8885 12.8058 66.2405 12.0243 67.4384 11.3447C68.6363 10.6311 69.5947 10.0704 70.3134 9.66262C71.0664 9.22087 71.46 9 71.4942 9C71.5969 9 71.7338 9.08496 71.9049 9.25486C72.1103 9.39078 72.3157 9.56067 72.521 9.76456C72.7264 9.96844 72.9146 10.1723 73.0858 10.3762C73.2911 10.5461 73.428 10.665 73.4965 10.733C73.5307 10.801 73.6334 10.9539 73.8045 11.1918C74.0099 11.3956 74.1981 11.6335 74.3693 11.9053C74.5746 12.1432 74.7457 12.3811 74.8827 12.6189C75.0196 12.8228 75.0367 12.9587 74.934 13.0267C73.6334 13.9442 72.3328 14.9126 71.0322 15.932C69.7658 16.9175 68.5336 17.9369 67.3357 18.9903C65.8982 20.1796 64.4949 21.4029 63.1259 22.6602C61.7568 23.9175 60.3706 25.1748 58.9673 26.432C57.2903 27.9612 55.6303 29.5073 53.9874 31.0704C52.3445 32.6335 50.7188 34.2306 49.1101 35.8617L45.0543 40.3981H45.003C44.9687 40.3981 44.9174 40.3641 44.8489 40.2961C44.6778 40.2282 44.4896 40.0752 44.2842 39.8374C44.0788 39.5655 43.8906 39.2767 43.7195 38.9709C43.5483 38.6311 43.3943 38.3083 43.2574 38.0024C43.1547 37.6626 43.1205 37.4078 43.1547 37.2379C43.1547 37.1699 43.3772 36.8811 43.8221 36.3714C44.3013 35.8277 44.9174 35.1651 45.6704 34.3835C46.4576 33.568 47.3475 32.6675 48.34 31.6821C49.3326 30.6626 50.3594 29.6262 51.4204 28.5728C52.5157 27.4854 53.5938 26.4151 54.6548 25.3617C55.7158 24.3083 56.6913 23.3398 57.5812 22.4563C58.5053 21.5388 59.2925 20.7573 59.9428 20.1116C60.6273 19.432 61.1065 18.9563 61.3803 18.6845C58.9502 19.9757 56.5373 21.301 54.1414 22.6602C51.7798 23.9854 49.4182 25.3277 47.0565 26.6869C43.2232 28.8617 39.424 31.0704 35.6591 33.3131C31.9284 35.5219 28.1635 37.7646 24.3644 40.0413L19.6925 43.0486L18.9224 43.9151C18.8882 43.983 18.8539 44 18.8197 43.966C18.7855 43.932 18.7684 43.8981 18.7684 43.8641C18.6999 43.8641 18.6315 43.8301 18.563 43.7621L18.3063 43.966C18.2379 44.034 18.2036 44 18.2036 43.8641C18.101 43.7961 18.0325 43.6772 17.9983 43.5073C17.964 43.3034 17.9469 43.1505 17.9469 43.0486Z" fill="white"/>
</g>
<defs>
<clipPath id="clip0_315_17948">
<rect width="1112" height="54" fill="white"/>
</clipPath>
</defs>
</svg>
