<svg width="886" height="402" viewBox="0 0 886 402" fill="none" xmlns="http://www.w3.org/2000/svg">
<g clip-path="url(#clip0_249_1364)">
<rect width="886" height="399" fill="#A5C827"/>
<rect x="240.965" y="0.602051" width="80.1408" height="80.1408" fill="white"/>
<rect x="321.105" y="80.7427" width="80.1408" height="80.1408" fill="white"/>
<rect x="481.387" y="80.7427" width="80.1408" height="80.1408" fill="white"/>
<rect x="401.672" y="1" width="80.1408" height="80.1408" fill="white"/>
<rect y="80.4722" width="80.1408" height="80.1408" fill="white"/>
<rect x="80.1406" y="160.613" width="80.1408" height="80.1408" fill="white"/>
<rect x="240.422" y="160.613" width="80.1408" height="80.1408" fill="white"/>
<rect x="320.562" y="80.4722" width="80.1408" height="80.1408" fill="white"/>
<rect x="400.703" y="160.343" width="80.1408" height="80.1408" fill="white"/>
<rect x="480.844" y="240.483" width="80.1408" height="80.1408" fill="white"/>
<rect x="641.125" y="240.483" width="80.1408" height="80.1408" fill="white"/>
<rect x="79.6719" y="319" width="80.1408" height="80.1408" fill="white"/>
<rect x="721.266" y="160.343" width="80.1408" height="80.1408" fill="white"/>
<rect x="159.74" y="240.212" width="80.1408" height="79.6787" fill="white"/>
<rect x="239.881" y="319.891" width="80.1408" height="79.6787" fill="white"/>
<rect x="400.162" y="319.891" width="80.1408" height="79.6787" fill="white"/>
<rect x="480.303" y="240.212" width="80.1408" height="79.6787" fill="white"/>
<rect x="641.672" y="81" width="80.1408" height="80.1408" fill="white"/>
<rect x="721.812" y="161.141" width="80.1408" height="80.1408" fill="white"/>
<rect x="801.672" y="241" width="80.1408" height="80.1408" fill="white"/>
<rect x="721.672" y="321" width="80.1408" height="80.1408" fill="white"/>
<rect x="721.672" width="80.1408" height="80.1408" fill="white"/>
<rect x="80.6719" y="1" width="80.1408" height="80.1408" fill="white"/>
</g>
<defs>
<clipPath id="clip0_249_1364">
<rect width="886" height="401.141" fill="white"/>
</clipPath>
</defs>
</svg>
