<svg width="886" height="400" viewBox="0 0 886 400" fill="none" xmlns="http://www.w3.org/2000/svg">
<g clip-path="url(#clip0_249_1429)">
<rect width="886" height="399" fill="#A5C827"/>
<rect x="240.965" y="0.602051" width="80.1408" height="80.1408" fill="white"/>
<rect x="321.105" y="80.7427" width="80.1408" height="80.1408" fill="white"/>
<rect x="401.672" y="1" width="80.1408" height="80.1408" fill="white"/>
<rect x="80.1406" y="160.613" width="80.1408" height="80.1408" fill="white"/>
<rect x="240.422" y="160.613" width="80.1408" height="80.1408" fill="white"/>
<rect x="320.562" y="80.4722" width="80.1408" height="80.1408" fill="white"/>
<rect x="480.844" y="240.483" width="80.1408" height="80.1408" fill="white"/>
<rect x="641.125" y="240.483" width="80.1408" height="80.1408" fill="white"/>
<rect x="79.6719" y="319" width="80.1408" height="80.1408" fill="white"/>
<rect x="239.881" y="319.891" width="80.1408" height="79.6787" fill="white"/>
<rect x="400.162" y="319.891" width="80.1408" height="79.6787" fill="white"/>
<rect x="480.303" y="240.212" width="80.1408" height="79.6787" fill="white"/>
<rect x="641.672" y="81" width="80.1408" height="80.1408" fill="white"/>
<rect x="801.672" y="241" width="80.1408" height="80.1408" fill="white"/>
<rect x="721.672" width="80.1408" height="80.1408" fill="white"/>
<rect x="80.6719" y="1" width="80.1408" height="80.1408" fill="white"/>
</g>
<defs>
<clipPath id="clip0_249_1429">
<rect width="886" height="399.569" fill="white"/>
</clipPath>
</defs>
</svg>
