<svg width="887" height="402" viewBox="0 0 887 402" fill="none" xmlns="http://www.w3.org/2000/svg">
<g clip-path="url(#clip0_249_1363)">
<rect width="886" height="399" fill="#A5C827"/>
<rect x="245.293" y="0.602051" width="80.1408" height="80.1408" fill="white"/>
<rect x="325.434" y="80.7427" width="80.1408" height="80.1408" fill="white"/>
<rect x="485.715" y="80.7427" width="80.1408" height="80.1408" fill="white"/>
<rect x="406" y="1" width="80.1408" height="80.1408" fill="white"/>
<rect x="4.32812" y="80.4722" width="80.1408" height="80.1408" fill="white"/>
<rect x="84.4688" y="160.613" width="80.1408" height="80.1408" fill="white"/>
<rect x="164.609" y="80.4722" width="80.1408" height="80.1408" fill="white"/>
<rect x="244.75" y="160.613" width="80.1408" height="80.1408" fill="white"/>
<rect x="324.891" y="80.4722" width="80.1408" height="80.1408" fill="white"/>
<rect x="405.031" y="160.343" width="80.1408" height="80.1408" fill="white"/>
<rect x="485.172" y="240.483" width="80.1408" height="80.1408" fill="white"/>
<rect x="565.312" y="160.343" width="80.1408" height="80.1408" fill="white"/>
<rect x="645.453" y="240.483" width="80.1408" height="80.1408" fill="white"/>
<rect x="84" y="319" width="80.1408" height="80.1408" fill="white"/>
<rect x="725.594" y="160.343" width="80.1408" height="80.1408" fill="white"/>
<rect x="164.068" y="240.212" width="80.1408" height="79.6787" fill="white"/>
<rect x="244.209" y="319.891" width="80.1408" height="79.6787" fill="white"/>
<rect x="324.35" y="240.212" width="80.1408" height="79.6787" fill="white"/>
<rect x="404.49" y="319.891" width="80.1408" height="79.6787" fill="white"/>
<rect x="484.631" y="240.212" width="80.1408" height="79.6787" fill="white"/>
<rect x="646" y="81" width="80.1408" height="80.1408" fill="white"/>
<rect x="726.141" y="161.141" width="80.1408" height="80.1408" fill="white"/>
<rect x="806" y="241" width="80.1408" height="80.1408" fill="white"/>
<rect x="726" y="321" width="80.1408" height="80.1408" fill="white"/>
<rect x="726" width="80.1408" height="80.1408" fill="white"/>
<rect x="85" y="1" width="80.1408" height="80.1408" fill="white"/>
</g>
<defs>
<clipPath id="clip0_249_1363">
<rect width="886.141" height="401.141" fill="white"/>
</clipPath>
</defs>
</svg>
