<svg width="257" height="377" viewBox="0 0 257 377" fill="none" xmlns="http://www.w3.org/2000/svg">
<mask id="path-1-inside-1_301_15880" fill="white">
<path d="M148.498 376.997H79.266C79.266 376.997 66.2222 377.245 61.2054 373.524C56.1885 369.804 56.6902 361.619 56.6902 361.619C56.6902 361.619 58.1953 348.722 56.6902 347.234C55.1852 345.746 43.5566 347.549 37.6263 342.769C33.9189 339.781 32.7961 337.051 30.6027 332.848C26.2855 324.576 30.158 317.671 25.5859 309.534C21.0775 301.511 13.5881 300.86 8.52862 293.164C2.78822 284.433 0 267.866 0 267.866H56.6902V230.662C56.6902 230.662 43.4351 230.697 37.6263 225.702C33.6458 222.279 32.6977 219.08 30.6027 214.293C27.3525 206.866 30.3402 201.148 26.5892 193.955C22.1428 185.429 13.826 185.125 8.52862 177.089C2.67594 168.211 0 151.295 0 151.295H56.6902V114.091C56.6902 114.091 43.5912 113.942 37.6263 109.131C34.0435 106.241 32.7374 103.761 30.6027 99.7057C26.4686 91.8516 30.5256 85.3362 26.5892 77.3835C22.1431 68.4012 13.8269 67.5483 8.52862 59.0297C3.01125 50.1589 0 33.7313 0 33.7313H56.6902C56.6902 33.7313 56.1528 22.3944 60.7037 17.8577C63.3576 15.2121 65.2189 14.3854 69.2323 13.3933C73.2458 12.4012 92.8114 13.3933 92.8114 13.3933C92.8114 13.3933 91.8081 7.44062 95.8215 3.96838C99.8591 0.475055 104.35 0 104.35 0H149"/>
</mask>
<path d="M148.498 376.997H79.266C79.266 376.997 66.2222 377.245 61.2054 373.524C56.1885 369.804 56.6902 361.619 56.6902 361.619C56.6902 361.619 58.1953 348.722 56.6902 347.234C55.1852 345.746 43.5566 347.549 37.6263 342.769C33.9189 339.781 32.7961 337.051 30.6027 332.848C26.2855 324.576 30.158 317.671 25.5859 309.534C21.0775 301.511 13.5881 300.86 8.52862 293.164C2.78822 284.433 0 267.866 0 267.866H56.6902V230.662C56.6902 230.662 43.4351 230.697 37.6263 225.702C33.6458 222.279 32.6977 219.08 30.6027 214.293C27.3525 206.866 30.3402 201.148 26.5892 193.955C22.1428 185.429 13.826 185.125 8.52862 177.089C2.67594 168.211 0 151.295 0 151.295H56.6902V114.091C56.6902 114.091 43.5912 113.942 37.6263 109.131C34.0435 106.241 32.7374 103.761 30.6027 99.7057C26.4686 91.8516 30.5256 85.3362 26.5892 77.3835C22.1431 68.4012 13.8269 67.5483 8.52862 59.0297C3.01125 50.1589 0 33.7313 0 33.7313H56.6902C56.6902 33.7313 56.1528 22.3944 60.7037 17.8577C63.3576 15.2121 65.2189 14.3854 69.2323 13.3933C73.2458 12.4012 92.8114 13.3933 92.8114 13.3933C92.8114 13.3933 91.8081 7.44062 95.8215 3.96838C99.8591 0.475055 104.35 0 104.35 0H149" fill="#A5C827"/>
<path d="M79.266 376.997V229.997H77.8685L76.4713 230.023L79.266 376.997ZM56.6902 361.619L-89.319 344.58L-89.7872 348.593L-90.0344 352.626L56.6902 361.619ZM37.6263 342.769L-54.6235 457.22L-54.6232 457.22L37.6263 342.769ZM30.6027 332.848L-99.7168 400.862L-99.7159 400.864L30.6027 332.848ZM25.5859 309.534L153.741 237.526L153.739 237.522L25.5859 309.534ZM8.52862 293.164L-114.303 373.919L-114.303 373.919L8.52862 293.164ZM0 267.866V120.866H-173.807L-144.961 292.263L0 267.866ZM56.6902 267.866V414.866H203.69V267.866H56.6902ZM56.6902 230.662H203.69V83.2768L56.3052 83.6629L56.6902 230.662ZM37.6263 225.702L133.472 114.245L133.469 114.242L37.6263 225.702ZM30.6027 214.293L-104.066 273.228L-104.064 273.232L30.6027 214.293ZM26.5892 193.955L156.93 125.982L156.93 125.981L26.5892 193.955ZM8.52862 177.089L131.261 96.1832L131.261 96.1826L8.52862 177.089ZM0 151.295V4.29468H-172.081L-145.195 174.263L0 151.295ZM56.6902 151.295V298.295H203.69V151.295H56.6902ZM56.6902 114.091H203.69V-31.2484L58.3601 -32.8994L56.6902 114.091ZM37.6263 109.131L129.92 -5.28441L129.919 -5.28545L37.6263 109.131ZM30.6027 99.7057L160.684 31.2387L160.683 31.2361L30.6027 99.7057ZM26.5892 77.3835L158.333 12.1726L158.333 12.1722L26.5892 77.3835ZM8.52862 59.0297L-116.297 136.667L-116.297 136.667L8.52862 59.0297ZM0 33.7313V-113.269H-176.395L-144.591 60.2354L0 33.7313ZM56.6902 33.7313V180.731H210.824L203.525 26.7708L56.6902 33.7313ZM60.7037 17.8577L164.486 121.965L164.486 121.965L60.7037 17.8577ZM92.8114 13.3933L85.3672 160.205L268.194 169.475L237.767 -11.04L92.8114 13.3933ZM95.8215 3.96838L192 115.138L192.004 115.135L95.8215 3.96838ZM104.35 0V-147H96.5971L88.8871 -146.184L104.35 0ZM148.498 229.997H79.266V523.997H148.498V229.997ZM79.266 376.997C76.4713 230.023 76.4923 230.023 76.5132 230.022C76.5201 230.022 76.5411 230.022 76.5549 230.022C76.5827 230.021 76.6104 230.021 76.6379 230.02C76.693 230.019 76.7477 230.018 76.8019 230.017C76.9105 230.015 77.0174 230.014 77.1228 230.012C77.3335 230.009 77.5386 230.007 77.7384 230.005C78.1373 230.001 78.5203 230 78.89 230C79.6194 230.001 80.3474 230.01 81.0883 230.03C82.39 230.065 84.502 230.152 87.274 230.439C89.5843 230.679 95.3527 231.349 103.034 233.34C108.38 234.726 127.803 239.902 148.767 255.448L-26.3567 491.6C-2.88351 509.007 20.0507 515.546 29.2536 517.932C40.7916 520.923 50.7617 522.23 56.96 522.872C63.6201 523.562 69.3065 523.82 73.2107 523.924C75.2529 523.979 77.0391 523.998 78.5014 524C79.2376 524.001 79.9057 523.998 80.4981 523.992C80.7948 523.989 81.0737 523.986 81.3341 523.982C81.4643 523.98 81.59 523.978 81.7111 523.976C81.7716 523.975 81.8311 523.974 81.8893 523.973C81.9184 523.973 81.9473 523.972 81.9758 523.972C81.9901 523.971 82.0113 523.971 82.0185 523.971C82.0396 523.97 82.0607 523.97 79.266 376.997ZM148.767 255.448C189.333 285.531 198.869 325.618 201.218 337.379C202.861 345.603 203.4 352.514 203.584 357.376C203.682 359.947 203.694 362.322 203.657 364.471C203.639 365.555 203.608 366.607 203.567 367.624C203.546 368.134 203.523 368.638 203.498 369.135C203.485 369.384 203.472 369.631 203.458 369.877C203.451 370 203.444 370.123 203.437 370.246C203.433 370.307 203.43 370.368 203.426 370.429C203.424 370.46 203.421 370.506 203.42 370.521C203.418 370.567 203.415 370.613 56.6902 361.619C-90.0344 352.626 -90.0372 352.671 -90.04 352.717C-90.0409 352.733 -90.0437 352.779 -90.0456 352.81C-90.0493 352.871 -90.0529 352.933 -90.0566 352.995C-90.0639 353.12 -90.0711 353.246 -90.0783 353.373C-90.0926 353.627 -90.1065 353.886 -90.12 354.15C-90.147 354.679 -90.1723 355.229 -90.1952 355.799C-90.2411 356.939 -90.2781 358.17 -90.3004 359.485C-90.3447 362.096 -90.3328 365.14 -90.2038 368.536C-89.9564 375.049 -89.2298 384.239 -87.0851 394.974C-83.7322 411.758 -71.9389 457.797 -26.3567 491.6L148.767 255.448ZM56.6902 361.619C202.699 378.658 202.701 378.648 202.702 378.639C202.702 378.636 202.703 378.627 202.704 378.62C202.705 378.608 202.707 378.595 202.708 378.582C202.711 378.555 202.715 378.528 202.718 378.5C202.724 378.443 202.731 378.383 202.739 378.319C202.753 378.191 202.77 378.047 202.787 377.889C202.823 377.575 202.864 377.199 202.91 376.77C203.002 375.92 203.115 374.822 203.237 373.543C203.466 371.141 203.793 367.397 204.031 363.081C204.223 359.616 204.595 351.88 204.144 342.807C203.936 338.638 203.36 329.496 201.047 318.369C200.566 316.051 194.032 276.308 160.046 242.704L-46.6657 451.764C-66.2249 432.424 -75.4066 412.425 -79.2343 403.012C-83.5872 392.308 -85.7377 383.313 -86.8027 378.189C-88.9092 368.052 -89.3565 360.162 -89.4933 357.412C-89.8035 351.175 -89.5252 346.942 -89.5222 346.887C-89.4931 346.359 -89.4671 346.019 -89.4569 345.89C-89.4455 345.745 -89.4374 345.659 -89.4336 345.619C-89.4291 345.571 -89.4213 345.493 -89.4063 345.354C-89.3985 345.281 -89.3879 345.184 -89.3738 345.058C-89.3667 344.995 -89.3587 344.925 -89.3496 344.845C-89.3451 344.806 -89.3403 344.764 -89.3352 344.72C-89.3326 344.698 -89.33 344.675 -89.3273 344.652C-89.3259 344.64 -89.3246 344.629 -89.3232 344.617C-89.3225 344.611 -89.3214 344.602 -89.3211 344.599C-89.32 344.59 -89.319 344.58 56.6902 361.619ZM160.046 242.704C150.376 233.142 140.803 226.316 132.961 221.542C125.096 216.753 117.927 213.395 112.259 211.061C101.331 206.562 92.0613 204.28 86.7597 203.133C81.0646 201.901 76.3289 201.221 73.3482 200.843C70.2382 200.45 67.6434 200.214 65.9782 200.077C64.2746 199.936 62.839 199.843 62.0175 199.791C61.2852 199.745 60.3854 199.693 60.2724 199.686C59.56 199.644 60.3384 199.683 61.5138 199.785C63.3847 199.947 71.1109 200.626 81.2452 203.365C90.9986 206 110.12 212.395 129.876 228.318L-54.6232 457.22C-43.0175 466.575 -31.535 473.107 -21.637 477.686C-11.7753 482.249 -2.75778 485.21 4.5452 487.183C11.8811 489.166 18.3652 490.386 23.4542 491.171C28.5689 491.96 32.9558 492.412 36.1216 492.687C39.2153 492.955 41.8428 493.109 42.8486 493.169C42.9874 493.177 43.1211 493.185 43.2207 493.191C43.3298 493.198 43.404 493.202 43.4715 493.206C43.6103 493.214 43.6217 493.215 43.5749 493.212C43.5393 493.21 42.8491 493.167 41.8428 493.084C40.8749 493.005 38.9291 492.833 36.4122 492.514C34.0246 492.212 29.8262 491.617 24.6047 490.488C21.9099 489.905 18.5145 489.088 14.6267 487.948C10.7786 486.819 5.8815 485.207 0.327162 482.92C-5.17093 480.656 -12.1883 477.373 -19.921 472.665C-27.6307 467.972 -37.0896 461.232 -46.6657 451.764L160.046 242.704ZM129.876 228.318C134.777 232.269 139.949 237.058 145.034 242.766C150.142 248.5 154.122 253.993 157.14 258.679C159.933 263.016 161.72 266.401 162.109 267.138C162.307 267.513 162.418 267.732 162.15 267.21C161.981 266.883 161.472 265.887 160.921 264.833L-99.7159 400.864C-99.7178 400.86 -99.7128 400.869 -99.3853 401.507C-99.1576 401.95 -98.5704 403.095 -97.9005 404.365C-96.5686 406.888 -93.8575 411.93 -90.0464 417.849C-81.0027 431.894 -69.408 445.303 -54.6235 457.22L129.876 228.318ZM160.922 264.835C168.326 279.021 171.986 292.525 173.73 303.237C174.531 308.156 174.851 312.027 174.99 314.076C175.103 315.749 175.146 317.193 175.085 315.578C175.054 314.781 174.932 311.232 174.619 307.129C174.284 302.74 173.659 296.554 172.345 289.288C169.547 273.815 164.071 255.91 153.741 237.526L-102.569 381.542C-106.409 374.709 -109.54 367.665 -111.994 360.567C-114.433 353.512 -115.975 347.067 -116.962 341.605C-117.929 336.259 -118.34 331.976 -118.53 329.482C-118.699 327.274 -118.746 325.612 -118.705 326.703C-118.694 326.977 -118.584 330.311 -118.342 333.888C-118.075 337.84 -117.565 343.626 -116.449 350.483C-115.313 357.458 -113.558 365.511 -110.778 374.272C-107.982 383.082 -104.342 392 -99.7168 400.862L160.922 264.835ZM153.739 237.522C144.076 220.326 132.587 206.975 121.569 196.779C111.756 187.699 102.489 181.44 101.026 180.425C95.1411 176.345 115.956 188.979 131.36 212.41L-114.303 373.919C-109.302 381.526 -103.931 388.354 -98.3945 394.463C-92.8895 400.537 -87.5485 405.54 -82.8211 409.58C-78.175 413.552 -74.0975 416.611 -71.3457 418.607C-69.968 419.606 -68.7868 420.436 -68.0029 420.983C-67.6071 421.259 -67.2555 421.503 -67.0154 421.669C-66.6854 421.898 -66.6706 421.908 -66.4983 422.028C-65.8955 422.445 -67.2541 421.52 -69.0827 420.138C-71.0904 418.621 -74.3243 416.07 -78.1083 412.568C-81.9656 408.999 -86.2771 404.554 -90.6301 399.16C-95.0047 393.739 -99.0245 387.851 -102.568 381.546L153.739 237.522ZM131.361 212.41C137.872 222.314 141.02 230.269 141.992 232.8C143.248 236.067 143.848 238.251 144.019 238.881C144.238 239.694 144.363 240.26 144.451 240.684C144.505 240.944 144.571 241.275 144.651 241.708C144.692 241.927 144.738 242.179 144.789 242.469C144.815 242.615 144.842 242.77 144.871 242.936C144.885 243.019 144.9 243.105 144.915 243.194C144.922 243.238 144.93 243.284 144.938 243.329C144.942 243.352 144.946 243.375 144.949 243.399C144.951 243.41 144.954 243.428 144.955 243.434C144.958 243.451 144.961 243.469 0 267.866C-144.961 292.263 -144.958 292.281 -144.955 292.299C-144.954 292.305 -144.951 292.323 -144.949 292.335C-144.945 292.359 -144.941 292.384 -144.937 292.409C-144.928 292.458 -144.92 292.51 -144.911 292.562C-144.893 292.667 -144.874 292.777 -144.854 292.891C-144.815 293.121 -144.771 293.37 -144.724 293.639C-144.629 294.176 -144.517 294.793 -144.389 295.482C-144.134 296.855 -143.805 298.548 -143.4 300.498C-142.61 304.301 -141.43 309.554 -139.795 315.6C-137.713 323.305 -130.771 348.871 -114.303 373.919L131.361 212.41ZM0 414.866H56.6902V120.866H0V414.866ZM203.69 267.866V230.662H-90.3098V267.866H203.69ZM56.6902 230.662C56.3052 83.6629 56.3323 83.6628 56.3593 83.6627C56.3683 83.6627 56.3954 83.6627 56.4134 83.6626C56.4494 83.6626 56.4853 83.6625 56.5211 83.6625C56.5928 83.6624 56.664 83.6624 56.735 83.6624C56.8769 83.6624 57.0175 83.6627 57.1569 83.6632C57.4355 83.6641 57.7099 83.666 57.9803 83.6686C58.5201 83.6739 59.0499 83.6826 59.5718 83.6949C60.604 83.7192 61.6641 83.7589 62.7609 83.8205C64.7608 83.9326 67.7432 84.1632 71.485 84.7335C74.8354 85.2441 81.6432 86.4442 90.3119 89.3872C97.8219 91.9368 115.27 98.5926 133.472 114.245L-58.2196 337.159C-21.3247 368.886 20.4666 374.353 27.1881 375.377C34.9698 376.563 41.6291 377.097 46.2958 377.359C48.726 377.495 50.8671 377.571 52.6469 377.613C53.5426 377.634 54.3628 377.647 55.0996 377.654C55.4685 377.658 55.818 377.66 56.1472 377.661C56.3118 377.662 56.4715 377.662 56.6262 377.662C56.7036 377.662 56.7797 377.662 56.8545 377.662C56.8919 377.662 56.929 377.662 56.9658 377.662C56.9842 377.662 57.0116 377.662 57.0208 377.662C57.0481 377.662 57.0753 377.662 56.6902 230.662ZM133.469 114.242C139.039 119.032 144.742 124.797 150.16 131.604C155.578 138.412 159.576 144.836 162.446 150.095C165.072 154.907 166.67 158.624 166.865 159.073C166.955 159.28 167.032 159.464 166.678 158.628C166.424 158.03 165.897 156.786 165.27 155.354L-104.064 273.232C-104.168 272.996 -104.207 272.9 -103.992 273.406C-103.878 273.675 -103.352 274.92 -102.816 276.154C-101.73 278.656 -99.2533 284.284 -95.6309 290.923C-86.8973 306.928 -74.8116 322.891 -58.2161 337.161L133.469 114.242ZM165.271 155.358C176.374 180.726 175.923 204.691 175.67 198.254C175.607 196.659 175.315 185.904 173.036 173.189C170.479 158.92 165.657 142.716 156.93 125.982L-103.752 261.927C-107.03 255.641 -109.735 249.183 -111.886 242.668C-114.027 236.182 -115.428 230.216 -116.353 225.056C-117.261 219.99 -117.677 215.873 -117.883 213.293C-118.071 210.936 -118.126 209.212 -118.102 209.818C-118.096 209.99 -118.096 209.993 -118.082 210.353C-118.072 210.613 -118.056 211.006 -118.037 211.453C-118 212.337 -117.938 213.701 -117.841 215.317C-117.647 218.548 -117.276 223.427 -116.465 229.254C-115.64 235.184 -114.361 242.104 -112.317 249.714C-110.262 257.365 -107.559 265.245 -104.066 273.228L165.271 155.358ZM156.93 125.981C146.782 106.523 134.051 91.4779 121.539 80.0998C110.433 69.9995 99.8873 63.321 98.0698 62.138C90.5649 57.2531 114.343 70.5195 131.261 96.1832L-114.204 257.995C-108.727 266.302 -102.799 273.685 -96.6879 280.216C-90.6182 286.701 -84.7337 291.956 -79.5866 296.126C-74.5354 300.219 -70.1179 303.326 -67.2237 305.292C-65.7722 306.279 -64.5314 307.094 -63.7439 307.608C-63.3475 307.867 -62.9901 308.099 -62.7671 308.244C-62.4937 308.421 -62.4117 308.475 -62.3137 308.538C-61.8174 308.861 -63.4682 307.806 -65.6863 306.206C-68.0877 304.474 -71.8795 301.595 -76.2666 297.606C-80.7419 293.536 -85.6952 288.441 -90.6131 282.213C-95.5575 275.952 -99.9794 269.161 -103.751 261.928L156.93 125.981ZM131.261 96.1826C137.979 106.375 141.192 114.595 142.191 117.231C143.476 120.621 144.083 122.895 144.258 123.561C144.483 124.417 144.609 125.014 144.697 125.457C144.751 125.729 144.815 126.072 144.894 126.518C144.934 126.744 144.979 127.003 145.028 127.301C145.053 127.45 145.079 127.61 145.107 127.78C145.121 127.866 145.135 127.954 145.15 128.045C145.157 128.09 145.164 128.136 145.172 128.183C145.176 128.207 145.179 128.231 145.183 128.255C145.185 128.266 145.188 128.284 145.189 128.29C145.192 128.309 145.195 128.327 0 151.295C-145.195 174.263 -145.192 174.281 -145.189 174.299C-145.188 174.306 -145.185 174.324 -145.183 174.336C-145.179 174.361 -145.175 174.387 -145.171 174.412C-145.163 174.463 -145.154 174.516 -145.146 174.569C-145.129 174.677 -145.11 174.789 -145.091 174.907C-145.053 175.142 -145.011 175.397 -144.965 175.673C-144.873 176.223 -144.766 176.854 -144.641 177.56C-144.393 178.966 -144.074 180.7 -143.678 182.696C-142.905 186.589 -141.744 191.97 -140.119 198.164C-138.057 206.025 -131.135 232.311 -114.203 257.996L131.261 96.1826ZM0 298.295H56.6902V4.29468H0V298.295ZM203.69 151.295V114.091H-90.3098V151.295H203.69ZM56.6902 114.091C58.3601 -32.8994 58.3861 -32.8991 58.4121 -32.8988C58.4207 -32.8987 58.4466 -32.8984 58.4638 -32.8982C58.4983 -32.8978 58.5327 -32.8974 58.5669 -32.897C58.6355 -32.8961 58.7037 -32.8952 58.7715 -32.8942C58.9072 -32.8923 59.0415 -32.8902 59.1745 -32.8879C59.4405 -32.8833 59.7018 -32.878 59.9588 -32.8721C60.4719 -32.8601 60.9732 -32.8453 61.4651 -32.8274C62.438 -32.7919 63.4278 -32.7426 64.4448 -32.674C66.3013 -32.5487 69.0337 -32.3083 72.4578 -31.7644C75.5284 -31.2766 81.7445 -30.1479 89.7066 -27.4876C96.5512 -25.2006 112.648 -19.2173 129.92 -5.28441L-54.6679 223.546C-19.3149 252.063 19.5237 257.513 26.3324 258.595C33.7769 259.777 40.1568 260.356 44.6558 260.659C46.994 260.817 49.0539 260.916 50.7664 260.978C51.6281 261.009 52.4167 261.032 53.1245 261.048C53.479 261.057 53.8146 261.063 54.1304 261.069C54.2884 261.072 54.4416 261.074 54.5899 261.076C54.6641 261.077 54.737 261.078 54.8088 261.079C54.8446 261.079 54.8802 261.08 54.9154 261.08C54.9331 261.081 54.9593 261.081 54.9681 261.081C54.9942 261.081 55.0203 261.082 56.6902 114.091ZM129.919 -5.28545C138.435 1.58363 146.813 10.2871 154.014 20.5778C157.064 24.9377 159.132 28.4892 160.111 30.2232C160.893 31.6098 161.453 32.6982 160.684 31.2387L-99.4791 168.173C-96.6095 173.625 -83.6637 200.156 -54.6666 223.547L129.919 -5.28545ZM160.683 31.2361C164.492 38.4714 167.53 45.9099 169.841 53.3806C172.136 60.8031 173.497 67.5564 174.311 73.2555C175.106 78.8309 175.359 83.2879 175.454 85.8771C175.539 88.1651 175.52 89.9156 175.522 88.8035C175.522 88.5295 175.543 85.1515 175.433 81.4757C175.312 77.4276 175.007 71.4768 174.098 64.3988C173.174 57.1963 171.631 48.8586 169.022 39.7656C166.398 30.6193 162.883 21.3646 158.333 12.1726L-105.155 142.594C-112.607 127.539 -116.046 113.227 -117.507 101.845C-118.178 96.6189 -118.369 92.4967 -118.435 90.2649C-118.491 88.4054 -118.476 86.8313 -118.478 88.3596C-118.479 89.0499 -118.497 92.6012 -118.346 96.6993C-118.184 101.099 -117.799 107.375 -116.741 114.79C-114.483 130.607 -109.527 149.084 -99.4777 168.175L160.683 31.2361ZM158.333 12.1722C149.114 -6.45316 137.576 -21.1123 126.179 -32.4217C115.994 -42.528 106.275 -49.4421 104.409 -50.801C97.4043 -55.9016 118.454 -42.5643 133.354 -18.608L-116.297 136.667C-111.314 144.679 -105.925 151.855 -100.367 158.257C-94.8443 164.62 -89.4734 169.852 -84.7461 174.057C-80.1041 178.187 -76.0255 181.373 -73.3196 183.421C-71.9645 184.447 -70.8003 185.302 -70.0502 185.849C-69.6732 186.125 -69.3306 186.374 -69.1119 186.532C-68.8485 186.724 -68.7552 186.791 -68.6521 186.866C-68.1428 187.237 -69.582 186.208 -71.5386 184.642C-73.6625 182.942 -77.0216 180.124 -80.9053 176.27C-84.8644 172.342 -89.2331 167.474 -93.5647 161.599C-97.9176 155.695 -101.819 149.335 -105.155 142.595L158.333 12.1722ZM133.354 -18.6077C138.863 -9.74993 141.538 -2.84059 142.299 -0.835821C143.316 1.84302 143.784 3.53464 143.877 3.87015C144.014 4.36821 144.084 4.67383 144.138 4.91723C144.174 5.0821 144.226 5.32638 144.297 5.68145C144.333 5.86174 144.375 6.07679 144.423 6.33103C144.448 6.4584 144.474 6.59627 144.502 6.74522C144.516 6.81972 144.53 6.89707 144.545 6.97734C144.552 7.01748 144.56 7.05835 144.568 7.09998C144.571 7.12079 144.575 7.1418 144.579 7.16299C144.581 7.17357 144.584 7.18963 144.585 7.19492C144.588 7.21099 144.591 7.22713 0 33.7313C-144.591 60.2354 -144.588 60.2517 -144.585 60.268C-144.584 60.2735 -144.581 60.29 -144.579 60.3011C-144.575 60.3232 -144.571 60.3457 -144.566 60.3686C-144.558 60.4142 -144.549 60.461 -144.54 60.5091C-144.523 60.6052 -144.504 60.7063 -144.484 60.8121C-144.444 61.0238 -144.401 61.255 -144.353 61.5048C-144.258 62.004 -144.145 62.5807 -144.016 63.2275C-143.759 64.5156 -143.429 66.1126 -143.024 67.9562C-142.234 71.557 -141.066 76.5239 -139.486 82.2377C-137.411 89.7398 -130.828 113.305 -116.297 136.667L133.354 -18.6077ZM0 180.731H56.6902V-113.269H0V180.731ZM56.6902 33.7313C203.525 26.7708 203.527 26.8009 203.528 26.8309C203.529 26.8409 203.53 26.871 203.531 26.891C203.533 26.931 203.535 26.971 203.537 27.0109C203.54 27.0907 203.544 27.1704 203.547 27.25C203.554 27.409 203.561 27.5676 203.567 27.7256C203.58 28.0416 203.592 28.3564 203.603 28.6702C203.624 29.2965 203.64 29.9257 203.652 30.5589C203.674 31.8111 203.679 33.151 203.653 34.5759C203.605 37.185 203.439 41.1648 202.805 46.1233C202.236 50.5828 200.855 59.4188 197.048 70.3988C193.636 80.243 185.002 101.513 164.486 121.965L-43.0783 -86.2494C-65.8702 -63.5287 -76.1432 -39.1408 -80.7349 -25.8951C-85.7203 -11.5135 -87.8204 1.00739 -88.8246 8.86824C-89.8926 17.2281 -90.2089 24.3255 -90.2981 29.2021C-90.3448 31.7607 -90.334 34.0217 -90.2996 35.9117C-90.2823 36.8637 -90.2586 37.7409 -90.2319 38.5355C-90.2185 38.9334 -90.2044 39.3124 -90.1898 39.6716C-90.1825 39.8512 -90.175 40.0261 -90.1676 40.1961C-90.1638 40.2811 -90.16 40.3649 -90.1563 40.4475C-90.1544 40.4888 -90.1525 40.5298 -90.1506 40.5705C-90.1496 40.5908 -90.1482 40.6212 -90.1477 40.6313C-90.1463 40.6616 -90.1449 40.6917 56.6902 33.7313ZM164.486 121.965C158.503 127.929 147.418 137.722 131.167 145.997C117.018 153.203 105.174 155.933 104.508 156.098L33.9569 -129.311C29.2767 -128.155 14.4958 -124.515 -2.25087 -115.987C-21.0988 -106.388 -34.4413 -94.8595 -43.0784 -86.2493L164.486 121.965ZM104.508 156.098C92.4091 159.089 82.9122 159.658 82.2153 159.71C79.502 159.91 77.7105 159.942 77.4592 159.947C76.8561 159.959 77.3303 159.941 79.1476 159.982C80.699 160.018 82.3461 160.076 83.6905 160.131C84.3326 160.157 84.8391 160.18 85.1488 160.195C85.3022 160.202 85.4029 160.207 85.4428 160.209C85.4627 160.209 85.467 160.21 85.4548 160.209C85.4487 160.209 85.4385 160.208 85.4239 160.208C85.4167 160.207 85.4083 160.207 85.3989 160.206C85.3941 160.206 85.3891 160.206 85.3839 160.206C85.3812 160.205 85.3771 160.205 85.3758 160.205C85.3715 160.205 85.3672 160.205 92.8114 13.3933C100.256 -133.418 100.251 -133.418 100.247 -133.419C100.245 -133.419 100.24 -133.419 100.237 -133.419C100.231 -133.419 100.224 -133.42 100.217 -133.42C100.203 -133.421 100.187 -133.422 100.171 -133.422C100.137 -133.424 100.099 -133.426 100.056 -133.428C99.9691 -133.432 99.8631 -133.438 99.7387 -133.444C99.49 -133.456 99.1664 -133.471 98.777 -133.489C98.001 -133.525 96.9476 -133.572 95.6927 -133.624C93.2431 -133.724 89.748 -133.852 85.9062 -133.94C82.3305 -134.022 77.1608 -134.102 71.7603 -133.998C69.1103 -133.946 65.1318 -133.829 60.5803 -133.493C58.0452 -133.306 47.059 -132.55 33.9569 -129.311L104.508 156.098ZM92.8114 13.3933C237.767 -11.04 237.776 -10.9867 237.785 -10.9335C237.788 -10.9158 237.796 -10.8624 237.802 -10.8269C237.814 -10.7557 237.826 -10.6844 237.838 -10.613C237.862 -10.4701 237.885 -10.3267 237.909 -10.1828C237.955 -9.89487 238.002 -9.60461 238.047 -9.31203C238.139 -8.72707 238.228 -8.13165 238.315 -7.52603C238.488 -6.31663 238.653 -5.0562 238.804 -3.7475C239.104 -1.14937 239.364 1.74255 239.525 4.89129C239.834 10.9299 239.853 19.2182 238.576 29.0047C236.272 46.6538 227.498 84.4272 192 115.138L-0.356703 -107.202C-39.8683 -73.0182 -50.1478 -30.5323 -52.9526 -9.03889C-54.4806 2.66983 -54.4622 12.6634 -54.0903 19.9266C-53.8977 23.6876 -53.5911 27.0718 -53.2517 30.009C-53.0808 31.4872 -52.8985 32.8789 -52.7125 34.1772C-52.6193 34.8273 -52.5248 35.4566 -52.4299 36.0643C-52.3824 36.3682 -52.3348 36.6671 -52.2871 36.9607C-52.2632 37.1076 -52.2393 37.2531 -52.2155 37.3974C-52.2035 37.4696 -52.1916 37.5414 -52.1796 37.6129C-52.1737 37.6487 -52.1647 37.7021 -52.1617 37.72C-52.1527 37.7733 -52.1438 37.8266 92.8114 13.3933ZM192.004 115.135C176.268 128.75 160.408 135.929 149.08 139.795C143.212 141.798 137.802 143.173 133.071 144.141C130.676 144.632 128.376 145.034 126.183 145.367C125.084 145.533 124.004 145.683 122.944 145.819C122.414 145.887 121.888 145.951 121.367 146.012C121.106 146.042 120.846 146.072 120.587 146.101C120.458 146.115 120.328 146.129 120.199 146.143C120.135 146.15 120.071 146.157 120.006 146.164C119.974 146.167 119.926 146.173 119.91 146.174C119.861 146.179 119.813 146.184 104.35 0C88.8871 -146.184 88.8388 -146.179 88.7906 -146.174C88.7744 -146.172 88.726 -146.167 88.6937 -146.164C88.6291 -146.157 88.5643 -146.15 88.4992 -146.143C88.3692 -146.129 88.2383 -146.114 88.1067 -146.1C87.8435 -146.071 87.5771 -146.04 87.3076 -146.009C86.7688 -145.946 86.2171 -145.879 85.6531 -145.807C84.5257 -145.662 83.3453 -145.499 82.1155 -145.312C79.6616 -144.94 76.9785 -144.473 74.1002 -143.884C68.4002 -142.717 61.6152 -141.005 54.1199 -138.447C39.5367 -133.47 19.4131 -124.307 -0.360769 -107.198L192.004 115.135ZM104.35 147H149V-147H104.35V147Z" fill="white" mask="url(#path-1-inside-1_301_15880)"/>
<mask id="path-3-inside-2_301_15880" fill="white">
<path d="M108.502 376.997H177.734C177.734 376.997 190.778 377.245 195.795 373.524C200.811 369.804 200.31 361.619 200.31 361.619C200.31 361.619 198.805 348.722 200.31 347.233C201.815 345.745 213.444 347.549 219.374 342.769C223.081 339.781 224.204 337.05 226.397 332.848C230.715 324.576 226.842 317.671 231.414 309.533C235.922 301.51 243.412 300.86 248.471 293.164C254.212 284.432 257 267.866 257 267.866H200.31V230.662C200.31 230.662 213.565 230.697 219.374 225.702C223.354 222.279 224.302 219.079 226.397 214.292C229.647 206.866 226.66 201.147 230.411 193.954C234.857 185.429 243.174 185.126 248.471 177.089C254.324 168.21 257 151.295 257 151.295H200.31V114.091C200.31 114.091 213.409 113.942 219.374 109.13C222.957 106.24 224.262 103.761 226.397 99.7055C230.531 91.8516 226.475 85.336 230.411 77.3834C234.857 68.4011 243.174 67.5482 248.471 59.0297C253.989 50.1588 257 33.7312 257 33.7312H200.31C200.31 33.7312 200.848 22.3944 196.296 17.8577C193.642 15.2121 191.781 14.3854 187.768 13.3933C183.754 12.4012 164.189 13.3933 164.189 13.3933C164.189 13.3933 165.192 7.44058 161.178 3.96838C157.141 0.475049 152.65 0 152.65 0H108"/>
</mask>
<path d="M108.502 376.997H177.734C177.734 376.997 190.778 377.245 195.795 373.524C200.811 369.804 200.31 361.619 200.31 361.619C200.31 361.619 198.805 348.722 200.31 347.233C201.815 345.745 213.444 347.549 219.374 342.769C223.081 339.781 224.204 337.05 226.397 332.848C230.715 324.576 226.842 317.671 231.414 309.533C235.922 301.51 243.412 300.86 248.471 293.164C254.212 284.432 257 267.866 257 267.866H200.31V230.662C200.31 230.662 213.565 230.697 219.374 225.702C223.354 222.279 224.302 219.079 226.397 214.292C229.647 206.866 226.66 201.147 230.411 193.954C234.857 185.429 243.174 185.126 248.471 177.089C254.324 168.21 257 151.295 257 151.295H200.31V114.091C200.31 114.091 213.409 113.942 219.374 109.13C222.957 106.24 224.262 103.761 226.397 99.7055C230.531 91.8516 226.475 85.336 230.411 77.3834C234.857 68.4011 243.174 67.5482 248.471 59.0297C253.989 50.1588 257 33.7312 257 33.7312H200.31C200.31 33.7312 200.848 22.3944 196.296 17.8577C193.642 15.2121 191.781 14.3854 187.768 13.3933C183.754 12.4012 164.189 13.3933 164.189 13.3933C164.189 13.3933 165.192 7.44058 161.178 3.96838C157.141 0.475049 152.65 0 152.65 0H108" fill="#A5C827"/>
<path d="M177.734 376.997L179.692 274.015L178.713 273.997H177.734V376.997ZM200.31 361.619L303.117 355.317L302.944 352.492L302.616 349.68L200.31 361.619ZM219.374 342.769L154.737 262.575L154.733 262.578L219.374 342.769ZM226.397 332.848L135.086 285.19L135.086 285.191L226.397 332.848ZM231.414 309.533L321.209 359.99L321.21 359.989L231.414 309.533ZM248.471 293.164L162.405 236.582L162.403 236.585L248.471 293.164ZM257 267.866L358.571 284.962L378.785 164.866H257V267.866ZM200.31 267.866H97.3098V370.866H200.31V267.866ZM200.31 230.662L200.58 127.663L97.3098 127.392V230.662H200.31ZM219.374 225.702L152.218 147.605L152.214 147.608L219.374 225.702ZM226.397 214.292L320.756 255.589L320.759 255.584L226.397 214.292ZM230.411 193.954L139.084 146.327L139.081 146.332L230.411 193.954ZM248.471 177.089L162.475 120.4L162.474 120.402L248.471 177.089ZM257 151.295L358.735 167.389L377.575 48.2949L257 48.2949V151.295ZM200.31 151.295H97.3098V254.295H200.31V151.295ZM200.31 114.091L199.14 11.0976L97.3098 12.2545V114.091H200.31ZM219.374 109.13L154.709 28.959L154.705 28.9618L219.374 109.13ZM226.397 99.7055L317.539 147.687L317.543 147.68L226.397 99.7055ZM230.411 77.3834L138.1 31.6927L138.099 31.6931L230.411 77.3834ZM248.471 59.0297L161.009 4.62992L161.006 4.63403L248.471 59.0297ZM257 33.7312L358.312 52.3013L380.595 -69.2688H257V33.7312ZM200.31 33.7312L97.4255 28.8506L92.3078 136.731H200.31V33.7312ZM196.296 17.8577L123.579 90.8045L123.581 90.8064L196.296 17.8577ZM164.189 13.3933L62.6213 -3.72646L41.3018 122.757L169.405 116.261L164.189 13.3933ZM161.178 3.96838L93.7854 81.8605L93.7886 81.8632L161.178 3.96838ZM152.65 0L163.484 -102.429L158.082 -103H152.65V0ZM108.502 479.997H177.734V273.997H108.502V479.997ZM177.734 376.997C175.776 479.978 175.791 479.978 175.805 479.979C175.81 479.979 175.825 479.979 175.835 479.979C175.856 479.979 175.876 479.98 175.897 479.98C175.938 479.981 175.98 479.982 176.024 479.982C176.11 479.984 176.201 479.985 176.296 479.987C176.486 479.989 176.693 479.992 176.915 479.994C177.359 479.998 177.87 480.001 178.44 480C179.575 479.998 180.985 479.984 182.61 479.94C185.735 479.856 190.255 479.651 195.503 479.107C200.428 478.596 208.043 477.586 216.705 475.34C223.73 473.519 240.325 468.733 257.148 456.257L134.441 290.791C148.755 280.176 161.839 276.754 165.008 275.932C169.813 274.687 173.226 274.312 174.263 274.205C175.623 274.064 176.568 274.028 177.091 274.014C177.415 274.005 177.767 274.001 178.168 274C178.372 274 178.598 274.001 178.849 274.003C178.974 274.004 179.107 274.006 179.247 274.008C179.317 274.009 179.389 274.01 179.463 274.011C179.5 274.012 179.538 274.012 179.576 274.013C179.595 274.013 179.614 274.014 179.634 274.014C179.643 274.014 179.658 274.015 179.663 274.015C179.678 274.015 179.692 274.015 177.734 376.997ZM257.148 456.257C289.837 432.016 298.438 398.866 300.938 386.354C302.516 378.456 303.053 371.676 303.236 366.866C303.331 364.362 303.339 362.13 303.307 360.231C303.29 359.275 303.264 358.386 303.231 357.569C303.214 357.16 303.196 356.768 303.177 356.393C303.168 356.205 303.158 356.022 303.148 355.843C303.143 355.753 303.138 355.665 303.132 355.577C303.13 355.533 303.127 355.49 303.125 355.446C303.123 355.425 303.121 355.393 303.121 355.382C303.119 355.35 303.117 355.317 200.31 361.619C97.5027 367.92 97.5007 367.888 97.4988 367.856C97.4981 367.846 97.4962 367.814 97.4949 367.792C97.4924 367.749 97.4898 367.707 97.4873 367.664C97.4823 367.578 97.4773 367.493 97.4725 367.407C97.4629 367.236 97.4537 367.064 97.4449 366.892C97.4274 366.548 97.4115 366.202 97.3975 365.854C97.3695 365.16 97.3486 364.45 97.3363 363.725C97.312 362.288 97.3203 360.724 97.384 359.046C97.504 355.887 97.8531 351.385 98.9293 345.998C100.425 338.51 106.769 311.312 134.441 290.791L257.148 456.257ZM200.31 361.619C302.616 349.68 302.616 349.687 302.617 349.693C302.617 349.695 302.618 349.701 302.618 349.706C302.619 349.714 302.62 349.722 302.621 349.73C302.623 349.746 302.625 349.761 302.627 349.775C302.63 349.804 302.633 349.831 302.636 349.855C302.641 349.903 302.646 349.942 302.649 349.972C302.656 350.031 302.658 350.057 302.658 350.055C302.657 350.047 302.647 349.949 302.632 349.798C302.593 349.384 302.582 349.187 302.589 349.311C302.594 349.396 302.619 349.854 302.632 350.612C302.644 351.262 302.663 352.915 302.548 355.226C302.462 356.941 302.168 362.281 300.723 369.236C299.992 372.752 298.504 378.99 295.475 386.438C292.815 392.981 286.406 406.952 272.73 420.475L127.89 273.992C104.021 297.593 99.4005 325.549 99.0322 327.322C97.3812 335.266 96.9578 341.859 96.802 344.992C96.4646 351.774 96.7396 357.719 96.9017 360.658C97.0967 364.192 97.368 367.312 97.5637 369.363C97.6669 370.444 97.7623 371.366 97.8378 372.068C97.8758 372.422 97.9095 372.727 97.9374 372.976C97.9515 373.1 97.9641 373.212 97.9752 373.309C97.9808 373.357 97.986 373.402 97.9908 373.444C97.9932 373.465 97.9955 373.485 97.9977 373.503C97.9988 373.513 97.9999 373.522 98.0009 373.531C98.0014 373.536 98.0022 373.542 98.0025 373.544C98.0032 373.551 98.004 373.557 200.31 361.619ZM272.73 420.475C266.034 427.096 259.423 431.805 254.041 435.082C248.642 438.369 243.748 440.658 239.921 442.234C236.054 443.826 232.651 444.945 229.985 445.727C227.292 446.518 224.946 447.082 223.093 447.482C219.505 448.258 216.644 448.662 215.06 448.862C213.385 449.074 212.119 449.185 211.545 449.233C210.944 449.282 210.572 449.304 210.665 449.298C210.82 449.289 210.892 449.285 211.544 449.246C212.506 449.189 214.623 449.064 217.078 448.851C219.584 448.634 222.955 448.284 226.837 447.685C230.702 447.089 235.545 446.175 240.976 444.707C246.385 443.245 252.987 441.072 260.164 437.752C267.365 434.42 275.66 429.694 284.014 422.96L154.733 262.578C168.133 251.777 180.982 247.53 187.233 245.841C193.752 244.079 198.55 243.684 199.287 243.621C199.823 243.574 200.092 243.563 199.335 243.608C199.165 243.618 196.826 243.747 194.634 243.928C192.916 244.069 186.838 244.561 179.543 246.138C175.757 246.957 169.201 248.574 161.493 251.747C154.367 254.681 140.957 261.071 127.89 273.992L272.73 420.475ZM284.011 422.963C294.925 414.166 303.411 404.341 310.053 394.027C312.876 389.643 314.914 385.862 315.988 383.826C316.528 382.803 317.011 381.862 317.244 381.407C317.548 380.816 317.629 380.659 317.709 380.505L135.086 285.191C134.618 286.088 134.183 286.935 133.991 287.31C133.729 287.82 133.735 287.805 133.804 287.676C133.935 287.427 135.049 285.304 136.854 282.501C138.816 279.454 141.438 275.83 144.819 272.035C148.185 268.257 151.58 265.119 154.737 262.575L284.011 422.963ZM317.708 380.506C331.924 353.269 331.65 327.314 331.736 325.036C331.776 323.988 331.754 324.871 331.658 326.135C331.546 327.599 331.29 330.315 330.665 333.774C329.295 341.349 326.504 350.567 321.209 359.99L141.619 259.077C134.038 272.568 130.017 285.701 127.952 297.118C126.133 307.18 125.932 315.968 125.884 317.244C125.684 322.521 125.188 304.155 135.086 285.19L317.708 380.506ZM321.21 359.989C316.355 368.628 310.538 375.356 305.224 380.273C302.784 382.531 300.738 384.14 299.555 385.034C298.497 385.833 297.774 386.321 298.426 385.869C299.52 385.11 319.443 372.708 334.54 349.743L162.403 236.585C172.44 221.315 186.089 213.086 181.046 216.582C179.563 217.611 172.615 222.318 165.315 229.073C157.171 236.609 148.727 246.427 141.618 259.078L321.21 359.989ZM334.538 349.746C346.935 330.889 352.436 311.084 354.319 304.12C355.676 299.1 356.661 294.718 357.32 291.548C357.657 289.929 357.926 288.538 358.131 287.436C358.234 286.883 358.322 286.396 358.395 285.983C358.431 285.776 358.464 285.587 358.494 285.417C358.508 285.332 358.522 285.251 358.535 285.175C358.542 285.137 358.548 285.101 358.554 285.065C358.557 285.047 358.56 285.03 358.563 285.013C358.564 285.004 358.566 284.992 358.567 284.987C358.569 284.975 358.571 284.962 257 267.866C155.429 250.77 155.431 250.758 155.433 250.745C155.434 250.741 155.436 250.729 155.437 250.721C155.44 250.705 155.442 250.689 155.445 250.673C155.45 250.641 155.456 250.611 155.461 250.581C155.471 250.521 155.481 250.464 155.49 250.411C155.508 250.304 155.525 250.209 155.54 250.126C155.569 249.96 155.591 249.837 155.607 249.754C155.637 249.592 155.644 249.564 155.629 249.634C155.586 249.843 155.515 250.148 155.457 250.362C155.365 250.703 155.52 250.038 156.08 248.582C156.442 247.64 158.272 242.867 162.405 236.582L334.538 349.746ZM257 164.866H200.31V370.866H257V164.866ZM303.31 267.866V230.662H97.3098V267.866H303.31ZM200.31 230.662C200.04 333.662 200.059 333.662 200.078 333.662C200.085 333.662 200.104 333.662 200.117 333.662C200.143 333.662 200.169 333.662 200.195 333.662C200.248 333.662 200.302 333.662 200.357 333.662C200.468 333.662 200.583 333.662 200.702 333.662C200.94 333.661 201.196 333.659 201.469 333.656C202.015 333.651 202.633 333.641 203.317 333.625C204.676 333.593 206.338 333.535 208.24 333.428C211.909 333.222 217.125 332.803 223.183 331.879C229.101 330.977 259.812 326.776 286.533 303.795L152.214 147.608C164.534 137.013 176.187 132.629 180.833 131.052C186.29 129.199 190.402 128.497 192.145 128.231C194.162 127.924 195.701 127.807 196.703 127.751C197.272 127.719 197.853 127.697 198.465 127.683C198.774 127.675 199.102 127.67 199.451 127.666C199.626 127.665 199.807 127.663 199.994 127.663C200.088 127.662 200.184 127.662 200.281 127.662C200.33 127.662 200.379 127.662 200.429 127.662C200.454 127.662 200.479 127.662 200.504 127.662C200.516 127.662 200.535 127.662 200.542 127.662C200.561 127.663 200.58 127.663 200.31 230.662ZM286.53 303.798C298.753 293.287 307.59 281.607 314.007 269.846C316.694 264.922 318.561 260.692 319.456 258.632C319.898 257.614 320.334 256.582 320.484 256.228C320.59 255.977 320.652 255.832 320.7 255.719C320.745 255.614 320.76 255.579 320.756 255.589L132.039 172.996C131.521 174.178 131.079 175.221 130.831 175.805C130.682 176.157 130.619 176.305 130.545 176.478C130.484 176.623 130.475 176.642 130.496 176.595C130.499 176.587 131.487 174.269 133.178 171.171C135.04 167.76 137.674 163.519 141.266 159.006C144.858 154.492 148.613 150.705 152.218 147.605L286.53 303.798ZM320.759 255.584C331.299 231.496 331.096 209.119 331.136 208.09C331.163 207.422 331.135 208.386 331.023 209.793C330.898 211.355 330.634 213.993 330.043 217.293C329.44 220.659 328.519 224.586 327.104 228.873C325.683 233.18 323.896 237.442 321.74 241.577L139.081 146.332C132.687 158.594 129.155 170.457 127.274 180.951C125.588 190.357 125.359 198.376 125.296 199.981C125.08 205.467 124.746 189.662 132.036 173.001L320.759 255.584ZM321.738 241.582C319.261 246.331 316.347 250.81 313.08 254.946C309.832 259.059 306.574 262.406 303.661 265.055C300.81 267.648 298.386 269.482 296.942 270.524C295.627 271.472 294.715 272.05 295.311 271.662C295.335 271.646 297.555 270.217 299.495 268.899C301.77 267.353 305.11 265 308.888 261.939C316.876 255.466 326.176 246.357 334.469 233.776L162.474 120.402C173.534 103.623 189.174 94.9521 182.933 99.0146C181.167 100.164 173.293 105.169 165.066 112.65C155.854 121.027 146.528 132.053 139.084 146.327L321.738 241.582ZM334.468 233.778C347.206 214.453 352.695 194.106 354.559 187C355.907 181.861 356.875 177.374 357.519 174.131C357.848 172.474 358.11 171.051 358.309 169.922C358.409 169.356 358.494 168.858 358.565 168.435C358.6 168.223 358.632 168.029 358.66 167.855C358.674 167.768 358.688 167.685 358.7 167.608C358.706 167.569 358.712 167.531 358.718 167.495C358.721 167.477 358.724 167.459 358.727 167.441C358.728 167.432 358.73 167.419 358.731 167.415C358.733 167.402 358.735 167.389 257 151.295C155.265 135.201 155.267 135.188 155.269 135.175C155.27 135.171 155.272 135.159 155.273 135.15C155.276 135.134 155.278 135.117 155.281 135.101C155.286 135.069 155.291 135.037 155.296 135.007C155.306 134.945 155.315 134.887 155.324 134.832C155.342 134.723 155.358 134.625 155.372 134.539C155.401 134.369 155.423 134.242 155.438 134.156C155.468 133.987 155.475 133.955 155.462 134.022C155.421 134.228 155.354 134.525 155.302 134.725C155.215 135.057 155.376 134.346 155.955 132.819C156.333 131.82 158.206 126.876 162.475 120.4L334.468 233.778ZM257 48.2949H200.31V254.295H257V48.2949ZM303.31 151.295V114.091H97.3098V151.295H303.31ZM200.31 114.091C201.48 217.084 201.498 217.084 201.516 217.084C201.523 217.084 201.541 217.084 201.554 217.083C201.578 217.083 201.603 217.083 201.629 217.083C201.68 217.082 201.731 217.081 201.784 217.08C201.89 217.079 202 217.077 202.115 217.075C202.343 217.071 202.59 217.066 202.853 217.06C203.378 217.048 203.973 217.031 204.632 217.007C205.943 216.959 207.547 216.883 209.383 216.759C212.93 216.52 217.947 216.064 223.765 215.14C229.739 214.19 258.379 210.001 284.042 189.299L154.705 28.9618C166.361 19.5597 177.06 15.6402 181.237 14.2444C186.197 12.5871 189.895 11.9369 191.445 11.6907C193.243 11.4051 194.611 11.2872 195.517 11.2261C196.032 11.1914 196.565 11.1642 197.136 11.1434C197.425 11.1329 197.734 11.1236 198.064 11.116C198.229 11.1121 198.401 11.1086 198.58 11.1056C198.67 11.104 198.761 11.1026 198.854 11.1013C198.901 11.1006 198.948 11.1 198.995 11.0994C199.019 11.0991 199.043 11.0988 199.067 11.0985C199.079 11.0983 199.097 11.0981 199.103 11.098C199.121 11.0978 199.14 11.0976 200.31 114.091ZM284.039 189.302C305.435 172.044 314.9 152.7 317.539 147.687L135.256 51.7235C134.556 53.054 134.803 52.5663 135.206 51.8521C135.747 50.8936 137.053 48.6395 139.034 45.8077C141.12 42.8271 143.635 39.6552 146.609 36.49C149.536 33.3736 152.329 30.8784 154.709 28.959L284.039 189.302ZM317.543 147.68C324.893 133.716 328.522 120.207 330.182 108.574C331.637 98.379 331.48 89.5024 331.478 88.4274C331.47 83.3704 332.771 102.772 322.722 123.074L138.099 31.6931C131.205 45.6231 127.972 58.8788 126.543 70.0026C125.871 75.2388 125.64 79.6818 125.547 82.7898C125.462 85.637 125.478 88.2738 125.478 88.7356C125.48 89.7845 125.467 88.8276 125.516 87.4955C125.573 85.9523 125.73 83.1019 126.248 79.4709C127.383 71.5174 129.969 61.7685 135.252 51.7314L317.543 147.68ZM322.722 123.074C320.55 127.461 318.001 131.62 315.149 135.488C312.313 139.336 309.464 142.506 306.912 145.038C304.414 147.518 302.292 149.291 301.043 150.291C299.911 151.197 299.147 151.738 299.751 151.298C299.831 151.239 301.935 149.723 303.764 148.339C305.907 146.717 309.009 144.289 312.501 141.183C319.867 134.63 328.364 125.602 335.936 113.425L161.006 4.63403C170.655 -10.8801 184.388 -19.5253 178.492 -15.2327C176.692 -13.9214 169.396 -8.71306 161.814 -1.18978C153.383 7.17659 144.892 17.9688 138.1 31.6927L322.722 123.074ZM335.934 113.429C346.941 95.7317 352.193 77.3268 354.078 70.5089C355.401 65.7246 356.384 61.5467 357.048 58.5211C357.387 56.9781 357.66 55.6566 357.868 54.6144C357.972 54.0914 358.061 53.6332 358.135 53.2467C358.172 53.0533 358.205 52.8773 358.235 52.7196C358.249 52.6408 358.263 52.5664 358.276 52.4967C358.283 52.4618 358.289 52.4281 358.295 52.3955C358.298 52.3793 358.301 52.3633 358.304 52.3476C358.305 52.3397 358.307 52.3282 358.308 52.3242C358.31 52.3128 358.312 52.3013 257 33.7312C155.688 15.1611 155.69 15.1498 155.692 15.1386C155.693 15.135 155.695 15.1238 155.696 15.1164C155.699 15.1017 155.701 15.0872 155.704 15.0729C155.709 15.0444 155.714 15.0166 155.719 14.9897C155.729 14.9358 155.739 14.8851 155.748 14.8376C155.765 14.7426 155.781 14.66 155.795 14.5891C155.822 14.4476 155.841 14.351 155.852 14.2945C155.874 14.1853 155.869 14.2165 155.839 14.3522C155.766 14.684 155.651 15.1674 155.531 15.5989C154.532 19.2124 155.519 13.4568 161.009 4.62992L335.934 113.429ZM257 -69.2688H200.31V136.731H257V-69.2688ZM200.31 33.7312C303.194 38.6119 303.195 38.5908 303.196 38.5696C303.196 38.5624 303.197 38.5411 303.198 38.5268C303.199 38.4982 303.201 38.4693 303.202 38.4402C303.205 38.3819 303.207 38.3225 303.21 38.2622C303.215 38.1414 303.221 38.0164 303.226 37.8873C303.236 37.6291 303.247 37.354 303.257 37.0625C303.276 36.4805 303.294 35.8287 303.307 35.1138C303.333 33.694 303.341 31.9718 303.306 30.0092C303.237 26.2526 302.993 20.8124 302.18 14.4453C301.411 8.42774 299.832 -0.897707 296.162 -11.4847C292.767 -21.276 285.323 -38.8316 269.011 -55.0911L123.581 90.8064C109.545 76.8153 103.74 62.3781 101.525 55.9883C99.0343 48.803 98.174 43.1624 97.8399 40.5462C97.461 37.5803 97.367 35.2579 97.3398 33.7688C97.3247 32.9399 97.3268 32.1388 97.3411 31.3567C97.3483 30.9607 97.3589 30.5568 97.3728 30.1431C97.3798 29.9358 97.3876 29.7248 97.3964 29.5099C97.4007 29.4023 97.4054 29.2937 97.4102 29.1839C97.4126 29.1289 97.4151 29.0737 97.4176 29.0182C97.4189 28.9904 97.4202 28.9625 97.4215 28.9346C97.4222 28.9207 97.4231 28.8996 97.4235 28.8926C97.4245 28.8716 97.4255 28.8506 200.31 33.7312ZM269.013 -55.0891C262.564 -61.5178 252.878 -69.8551 239.283 -76.7783C227.161 -82.9517 216.365 -85.6379 212.485 -86.597L163.051 113.384C162.837 113.331 160.841 112.843 158.047 111.918C155.028 110.918 150.737 109.303 145.801 106.789C134.803 101.189 127.374 94.5876 123.579 90.8045L269.013 -55.0891ZM212.485 -86.597C198.333 -90.0953 184.528 -90.0031 184.387 -90.0059C179.885 -90.0932 175.418 -90.0277 172.105 -89.9515C168.606 -89.8711 165.388 -89.7537 163.103 -89.6603C161.94 -89.6128 160.969 -89.5694 160.263 -89.5367C159.908 -89.5202 159.618 -89.5063 159.401 -89.4958C159.292 -89.4905 159.201 -89.486 159.13 -89.4824C159.094 -89.4806 159.063 -89.4791 159.036 -89.4778C159.023 -89.4771 159.011 -89.4765 159.001 -89.476C158.995 -89.4757 158.99 -89.4754 158.986 -89.4752C158.983 -89.4751 158.98 -89.4749 158.979 -89.4749C158.976 -89.4747 158.972 -89.4745 164.189 13.3933C169.405 116.261 169.402 116.261 169.399 116.261C169.398 116.261 169.395 116.262 169.393 116.262C169.39 116.262 169.386 116.262 169.384 116.262C169.378 116.263 169.373 116.263 169.369 116.263C169.362 116.263 169.359 116.263 169.36 116.263C169.363 116.263 169.382 116.262 169.418 116.261C169.489 116.257 169.623 116.251 169.812 116.242C170.191 116.224 170.779 116.198 171.513 116.168C173.023 116.106 174.947 116.038 176.841 115.994C177.777 115.973 178.602 115.96 179.287 115.955C179.623 115.952 179.892 115.952 180.094 115.953C180.301 115.954 180.397 115.955 180.394 115.955C180.389 115.955 180.346 115.954 180.267 115.952C180.189 115.95 180.06 115.946 179.886 115.939C179.574 115.926 178.926 115.896 178.023 115.829C177.809 115.813 171.378 115.442 163.051 113.384L212.485 -86.597ZM164.189 13.3933C265.756 30.5131 265.762 30.4757 265.768 30.4384C265.77 30.4259 265.777 30.3884 265.781 30.3633C265.789 30.3131 265.798 30.2627 265.806 30.2121C265.823 30.1107 265.84 30.0084 265.856 29.9051C265.89 29.6985 265.924 29.4878 265.957 29.2731C266.024 28.8439 266.091 28.398 266.157 27.9358C266.29 27.0128 266.42 26.0181 266.543 24.9569C266.786 22.8481 267.008 20.4033 267.148 17.6764C267.418 12.4039 267.431 5.14648 266.323 -3.34524C264.282 -18.9805 256.854 -49.4551 228.568 -73.9265L93.7886 81.8632C69.516 60.864 63.5932 35.1019 62.0545 23.3111C61.1972 16.7416 61.2101 11.1893 61.4174 7.14151C61.5257 5.0269 61.7005 3.07427 61.905 1.30458C62.0081 0.412982 62.1208 -0.450519 62.2403 -1.28461C62.3002 -1.7023 62.362 -2.11442 62.4255 -2.52089C62.4572 -2.72419 62.4894 -2.92628 62.5221 -3.12715C62.5384 -3.22759 62.5548 -3.32775 62.5713 -3.42763C62.5796 -3.47757 62.5879 -3.52744 62.5962 -3.57725C62.6004 -3.60212 62.6066 -3.63948 62.6087 -3.6519C62.615 -3.68917 62.6213 -3.72646 164.189 13.3933ZM228.571 -73.9237C214.112 -86.4342 199.374 -93.1516 188.668 -96.8052C183.173 -98.6807 178.213 -99.9306 174.074 -100.778C171.985 -101.206 170.048 -101.543 168.289 -101.809C167.408 -101.943 166.566 -102.06 165.766 -102.162C165.365 -102.213 164.975 -102.261 164.595 -102.305C164.405 -102.327 164.217 -102.349 164.032 -102.369C163.94 -102.379 163.848 -102.39 163.756 -102.399C163.711 -102.404 163.665 -102.409 163.62 -102.414C163.597 -102.417 163.563 -102.42 163.552 -102.421C163.518 -102.425 163.484 -102.429 152.65 0C141.815 102.429 141.782 102.425 141.748 102.421C141.737 102.42 141.703 102.417 141.68 102.414C141.635 102.409 141.59 102.405 141.545 102.4C141.455 102.39 141.364 102.38 141.274 102.37C141.093 102.35 140.912 102.329 140.731 102.308C140.368 102.266 140.003 102.221 139.637 102.174C138.904 102.081 138.163 101.977 137.412 101.864C135.915 101.637 134.36 101.364 132.755 101.036C129.585 100.386 126 99.4736 122.132 98.1535C114.681 95.6108 104.207 90.8776 93.7854 81.8605L228.571 -73.9237ZM152.65 -103H108V103H152.65V-103Z" fill="white" mask="url(#path-3-inside-2_301_15880)"/>
<path d="M128.365 212.012V217.8H122.247V212.012V191.434H116V185.646H122.247V176H128.365V184.682H126.433H125.635V186.289V190.791V192.398H126.433H128.365V210.726V212.012ZM136.35 191.434H128.944H127.656V190.148V186.932V185.646H128.944H136.35V191.434Z" fill="white"/>
</svg>
