<svg width="497" height="74" viewBox="0 0 497 74" fill="none" xmlns="http://www.w3.org/2000/svg">
<g clip-path="url(#clip0_283_5380)">
<path d="M450.773 34.416C450.773 15.4264 458.208 1.54248 468.24 1.54248C478.183 1.54248 486.513 15.4264 486.513 34.416C486.513 53.4952 478.183 68.1852 468.24 68.1852C458.208 68.1852 450.773 53.4952 450.773 34.416ZM456.148 34.416C456.148 52.4203 460.089 66.3938 468.24 66.3938C476.391 66.3938 481.139 52.4203 481.139 34.416C481.139 16.4117 476.391 3.33396 468.24 3.33396C460.089 3.33396 456.148 16.4117 456.148 34.416Z" fill="#245BC6"/>
<path d="M400.091 3.1543H436.458V13.2761H410.75V65.8558H400.091V3.1543Z" fill="#245BC6"/>
<path d="M384.494 15.1563C386.166 16.5895 387.569 18.2616 388.704 20.1725C389.898 22.0834 390.286 24.1734 389.868 26.4426C389.629 27.8758 389.092 29.2492 388.256 30.563C387.42 31.8767 386.405 33.1009 385.21 34.2355C384.076 35.3701 382.852 36.4151 381.538 37.3706C380.224 38.326 378.97 39.1621 377.776 39.8787C375.148 41.5507 372.371 43.0436 369.445 44.3573C367.355 45.3725 365.206 46.3279 362.996 47.2237C360.787 48.1194 358.577 48.9554 356.368 49.7317C350.396 51.8218 344.305 53.464 338.095 54.6583C331.944 55.8526 325.704 56.599 319.374 56.8976C317.403 57.0171 315.253 57.0768 312.924 57.0768C310.655 57.0768 308.356 56.9872 306.027 56.8081C303.698 56.6289 301.399 56.3303 299.13 55.9123C296.921 55.4943 294.86 54.8972 292.95 54.1208C292.173 53.8223 291.427 53.464 290.71 53.046C289.994 52.628 289.307 52.1204 288.65 51.5232C288.531 51.3441 288.351 51.1649 288.113 50.9858C287.933 50.7469 287.784 50.5081 287.665 50.2692L283.007 41.491C283.485 40.7147 284.082 39.9085 284.798 39.0725C285.694 37.9976 286.649 36.9526 287.665 35.9374C288.68 34.9223 289.695 33.9668 290.71 33.0711C295.069 29.3687 299.847 26.0843 305.042 23.218C310.237 20.3516 315.462 17.8435 320.717 15.6938C323.046 14.7383 325.524 13.8426 328.152 13.0066C334.661 10.9165 341.319 9.33406 348.127 8.25918C354.994 7.12458 361.861 6.34827 368.729 5.93026C373.327 5.63169 377.985 5.5421 382.702 5.66153H388.256L397.482 17.0374H397.571H397.482L384.494 15.1563ZM288.74 43.6407C289.038 43.8796 289.367 44.1185 289.725 44.3573C290.083 44.5365 290.412 44.7156 290.71 44.8948C291.845 45.4322 292.979 45.9099 294.114 46.328C295.308 46.6862 296.503 47.0147 297.697 47.3132C302.892 48.627 308.326 49.3436 313.999 49.463C319.672 49.5824 325.136 49.4332 330.391 49.0152C337.677 48.4777 344.872 47.2237 351.979 45.2531C359.144 43.2824 366.042 40.6848 372.67 37.4602C374.581 36.5047 376.581 35.3403 378.671 33.9668C380.821 32.5933 382.523 31.0407 383.777 29.309C384.494 28.2938 385.001 27.1891 385.3 25.9947C385.598 24.7407 385.449 23.5165 384.852 22.3222C384.374 21.3668 383.747 20.5905 382.971 19.9933C382.195 19.3962 381.299 18.9483 380.284 18.6497C379.328 18.3511 378.313 18.172 377.238 18.1123C376.223 18.0525 375.238 18.1123 374.282 18.2914C371.177 18.9483 368.579 20.4412 366.489 22.7701C364.399 25.0393 362.817 27.6369 361.742 30.563H361.652L357.89 25.4573C358.607 23.427 359.533 21.4862 360.667 19.635C361.802 17.7241 363.205 16.0819 364.877 14.7085C359.682 15.1862 354.516 15.8132 349.381 16.5895C344.305 17.3658 339.229 18.2616 334.153 19.2767C327.943 20.471 321.912 22.2625 316.06 24.6511C310.267 27.0398 304.773 30.0554 299.578 33.6981C298.145 34.7132 296.712 35.818 295.278 37.0123C293.905 38.1469 292.591 39.3711 291.337 40.6848C290.859 41.1625 290.412 41.6701 289.994 42.2076C289.576 42.6853 289.158 43.163 288.74 43.6407Z" fill="#245BC6"/>
<path d="M260.58 25.8164C270.343 25.906 277.867 27.5183 277.867 45.7913C277.867 65.8558 268.91 65.8558 257.803 65.8558H174.679V3.1543H240.515C251.622 3.1543 260.58 12.2012 260.58 23.3084C260.58 24.1145 260.58 25.0103 260.58 25.8164ZM240.694 20.7107H192.146V31.1908L243.292 25.8164V23.3084C243.292 20.7107 242.128 20.7107 240.694 20.7107ZM258.072 48.389C259.415 48.389 260.49 48.389 260.49 45.8809C260.49 43.3728 259.326 43.3728 257.982 43.3728L192.146 37.9089V48.389H258.072Z" fill="#245BC6"/>
<path d="M129.743 68.3638C129.206 68.2743 128.758 68.0055 128.31 67.5577C127.862 67.1994 124.548 64.5122 124.1 64.2434C121.95 62.5415 120.248 61.6458 118.457 59.5856C117.203 58.0629 117.293 55.2861 117.024 53.405C116.666 51.4344 115.501 49.5534 115.143 47.4932C114.964 46.7766 114.516 43.8207 114.426 43.4624C113.71 39.0733 114.695 34.8633 115.143 30.5638C115.143 30.295 115.322 28.2349 115.412 28.0557C115.501 26.8913 116.307 21.696 116.486 20.5315C116.755 18.5609 117.382 17.2173 118.994 15.8737L123.831 12.5595C124.727 11.9325 131.356 6.73719 132.072 6.11018C132.61 5.75189 133.326 5.39359 133.953 5.12487C135.386 5.12487 142.463 4.94572 143.896 4.85614C145.15 4.85614 145.956 4.76657 147.031 5.12487C147.3 5.30401 150.345 6.46847 151.42 6.91634C154.107 8.08079 155.451 10.8576 157.063 13.0969L158.586 15.1571C160.557 17.9339 160.198 21.069 160.915 24.3832C161.004 25.0998 162.796 30.6533 162.975 31.3699C163.96 34.9529 163.423 37.9984 162.975 41.5813L162.438 47.7619C162.259 49.1951 161.363 55.1965 161.094 56.5401C161.004 57.2567 160.646 57.8837 160.198 58.3316C159.123 59.3169 155.272 63.3477 154.466 63.9747C153.48 64.96 150.524 67.4681 150.345 67.5577L149.36 68.0951C149.181 68.1847 144.433 68.543 142.642 68.6325H135.028C134.222 68.6325 130.549 68.4534 129.743 68.3638ZM144.165 64.2434C144.165 64.2434 144.344 64.4226 144.433 64.5122C144.881 64.6913 144.881 63.7956 144.971 63.7956H145.24C145.329 63.706 145.508 63.5269 145.508 63.5269C144.344 63.1686 143.538 61.1084 142.104 62.7207C142.821 63.4373 143.896 63.079 144.165 63.5269C144.254 63.6164 144.165 64.1539 144.165 64.2434ZM145.508 64.2434C145.24 64.2434 145.24 64.7809 145.508 64.7809C145.777 64.7809 145.777 64.2434 145.508 64.2434ZM140.85 63.9747C140.671 63.9747 140.671 64.5122 140.85 64.5122C141.119 64.5122 141.119 63.9747 140.85 63.9747ZM141.925 63.5269V63.9747L142.373 63.7956C142.284 63.6164 142.104 63.4373 141.925 63.5269ZM148.106 63.5269C148.016 63.5269 148.016 63.706 148.106 63.7956C148.464 63.8851 149.449 63.3477 149.539 62.9894C149.36 62.9894 148.285 62.9894 148.106 63.5269ZM140.671 62.9894V63.5269C141.298 63.8851 141.567 62.452 141.657 62.1832H141.119C140.85 61.825 141.567 61.825 141.388 61.3771C140.671 60.9292 140.761 62.5415 139.865 62.1832C140.044 62.2728 140.582 62.8103 140.671 62.9894ZM146.583 62.7207C146.494 62.8103 146.314 63.3477 146.314 63.5269C146.673 63.7956 147.479 62.8998 147.568 62.452C147.21 62.3624 146.673 62.452 146.583 62.7207ZM138.253 62.7207L138.521 63.2581V62.7207H138.253ZM140.403 63.2581C140.403 63.079 140.044 63.079 140.134 63.2581C140.134 63.4373 140.313 63.4373 140.403 63.2581ZM148.106 62.452C147.837 62.452 147.837 62.9894 148.106 62.9894C148.285 62.9894 148.285 62.452 148.106 62.452ZM145.24 62.1832C144.971 62.1832 144.971 62.7207 145.24 62.7207C145.508 62.7207 145.508 62.1832 145.24 62.1832ZM146.046 61.1084C146.046 61.2875 146.225 62.0041 146.314 62.1832C146.941 62.5415 147.479 60.3918 147.3 59.8543C147.21 59.7648 146.852 59.5856 146.762 59.5856C146.583 60.1231 146.404 60.6605 145.777 60.3918C145.777 60.5709 145.956 61.0188 146.046 61.1084ZM148.554 61.9145C149.449 62.452 150.883 62.2728 151.151 61.1084C151.241 60.5709 150.345 60.5709 150.076 60.1231C150.076 60.3918 149.718 61.0188 149.539 61.1084C149.449 61.1979 149.002 61.1979 148.822 61.1084V60.9292C148.643 60.6605 147.927 61.4667 148.554 61.9145ZM144.702 61.3771C144.881 62.452 145.687 61.7354 145.508 61.3771H144.702ZM143.896 60.9292C143.896 60.9292 144.075 61.1084 144.165 61.1084C144.523 60.9292 144.523 60.5709 144.165 60.3918C144.075 60.4813 143.896 60.8396 143.896 60.9292ZM143.179 60.3918C142.911 60.3918 142.911 60.9292 143.179 60.9292C143.448 60.9292 143.448 60.3918 143.179 60.3918ZM144.433 59.8543L144.702 60.1231V59.8543H144.433ZM150.614 59.5856C150.435 59.5856 150.435 59.9439 150.614 59.8543C150.793 59.8543 150.793 59.6752 150.614 59.5856ZM151.958 59.5856C151.689 59.5856 151.689 60.1231 151.958 60.1231C152.226 60.1231 152.226 59.5856 151.958 59.5856ZM148.285 59.5856C148.375 59.496 148.016 59.496 148.106 59.5856C148.106 59.7648 148.285 59.7648 148.285 59.5856ZM149.539 59.3169C149.36 59.3169 149.36 59.8543 149.539 59.8543C149.808 59.8543 149.808 59.3169 149.539 59.3169ZM147.3 58.869V59.1378C147.568 59.1378 147.927 59.1377 148.106 58.869H147.3ZM148.822 58.869C148.912 58.869 148.912 59.0482 148.822 59.1378C149.449 58.7795 149.002 57.9733 148.822 57.615C148.822 57.615 148.643 57.615 148.554 57.615C147.837 57.9733 148.643 58.5107 148.822 58.869ZM150.883 58.6003C150.614 58.6003 150.614 59.1378 150.883 59.1378C151.151 59.1378 151.151 58.6003 150.883 58.6003ZM149.539 57.615V58.6003H149.808L150.614 57.0776C150.435 56.988 149.629 57.4358 149.539 57.615ZM151.958 58.0629V58.3316L152.226 58.0629H151.958ZM150.076 56.5401C149.808 56.5401 149.808 57.0776 150.076 57.0776C150.345 57.0776 150.345 56.5401 150.076 56.5401ZM149.808 56.0027C149.539 56.0027 149.539 56.5401 149.808 56.5401C150.076 56.5401 150.076 56.0027 149.808 56.0027ZM150.076 55.4652L150.614 56.2714C151.331 56.0027 150.524 55.0174 150.076 55.1965C150.076 55.2861 150.076 55.4652 150.076 55.4652ZM152.405 56.0027C152.405 55.8235 152.047 56.1818 152.226 56.2714C152.405 56.361 152.495 56.1818 152.405 56.0027ZM137.536 55.7339C137.805 55.8235 139.417 56.0027 139.865 56.0027C140.582 56.0922 141.567 56.0027 142.104 55.4652C142.463 55.1965 144.075 53.5842 144.433 53.1363C146.404 51.1657 146.494 48.1202 146.762 45.5226C146.941 44.0894 147.031 42.7458 147.031 41.3126C146.941 40.596 146.762 33.6988 146.762 32.8927C146.673 31.3699 146.673 24.1145 146.762 22.5917C146.314 18.9192 145.15 17.486 141.657 16.4111C140.492 16.1424 140.044 16.0528 138.79 16.4111L135.745 17.486C134.849 17.7547 134.043 18.2922 133.685 19.2775C131.087 26.533 130.639 33.878 130.281 41.5813V46.7766C130.281 46.7766 130.729 48.2993 130.818 48.8368C130.997 49.4638 131.356 50.3595 131.893 50.897L136.193 55.1965C136.282 55.1965 136.64 55.4652 136.73 55.4652C136.909 55.5548 137.447 55.7339 137.536 55.7339ZM125.712 54.4799C125.444 54.4799 125.444 55.0174 125.712 55.0174C125.981 55.0174 125.981 54.4799 125.712 54.4799ZM126.698 53.405C126.608 53.3155 126.25 53.6738 126.429 53.6738C126.608 53.7633 126.787 53.5842 126.698 53.405ZM123.831 51.7031V52.9572C124.817 52.6884 124.279 51.7031 124.369 51.1657C124.458 51.0761 124.906 50.7178 124.906 50.6282V50.3595C124.996 50.27 125.175 50.0908 125.175 50.0908L124.906 49.8221C124.19 50.27 123.921 50.8074 123.831 51.7031ZM122.667 52.2406C122.398 52.2406 122.398 52.6884 122.667 52.6884C122.936 52.6884 122.936 52.2406 122.667 52.2406ZM121.861 51.4344C122.398 52.4197 123.025 50.4491 122.936 50.0908C122.488 49.9117 121.682 51.0761 121.861 51.4344ZM123.384 51.1657L122.936 51.4344C123.115 51.524 123.384 51.3448 123.384 51.1657ZM123.563 49.5534C123.652 49.3742 123.384 49.3742 123.384 49.5534C123.384 49.7325 123.563 49.7325 123.563 49.5534ZM122.667 48.8368V49.1055C123.652 49.3742 123.921 47.4036 122.398 47.7619V48.8368H122.667ZM120.517 48.2993C120.696 48.4785 121.413 48.8368 121.592 48.8368V48.0306C121.592 48.0306 121.861 47.5827 121.861 47.4932C122.13 46.06 120.786 46.4183 121.055 46.9557C120.607 47.0453 120.159 47.0453 119.801 46.7766C119.621 46.7766 119.442 47.1349 119.532 47.2245C119.621 47.314 120.248 47.7619 120.338 47.7619C120.338 47.8515 120.517 48.2993 120.517 48.2993ZM124.638 48.5681C124.369 48.5681 124.369 49.1055 124.638 49.1055C124.906 49.1055 124.906 48.5681 124.638 48.5681ZM124.369 48.0306C124.638 48.2993 125.085 48.3889 125.444 48.2993C125.712 47.8515 125.265 47.4036 124.906 47.2245L124.369 47.7619C124.369 47.8515 124.369 48.0306 124.369 48.0306ZM121.323 47.4932C121.592 47.4932 121.592 48.0306 121.323 48.0306C121.055 48.0306 121.055 47.4932 121.323 47.4932ZM153.212 47.2245C153.032 47.2245 153.032 47.5827 153.212 47.4932C153.301 47.4932 153.301 47.314 153.212 47.2245ZM155.272 47.4932C155.272 47.4036 155.003 47.4036 155.003 47.4932C155.093 47.6723 155.272 47.6723 155.272 47.4932ZM154.018 46.9557C154.018 47.0453 154.376 47.2245 154.466 47.2245C154.555 47.314 154.734 47.314 154.734 47.2245C154.555 46.9557 154.286 46.8662 154.018 46.7766C153.928 46.7766 153.928 46.9557 154.018 46.9557ZM123.204 46.3287C123.025 46.3287 122.667 46.5974 122.667 46.7766C123.294 46.8662 124.1 46.5079 124.369 46.06C124.19 46.06 123.384 46.2392 123.204 46.3287ZM156.257 46.5079C156.257 46.5079 156.078 46.687 155.988 46.7766C156.257 46.8662 156.436 46.5974 156.526 46.5079C156.526 46.4183 156.347 46.4183 156.257 46.5079ZM119.532 45.2538L120.069 46.3287H120.517C120.875 46.1496 122.577 45.6121 122.936 45.5226C123.025 44.6268 124.011 44.3581 123.563 43.4624C124.458 43.1936 124.369 43.9998 124.638 44.4477C124.996 44.9851 125.533 43.1041 124.369 42.9249V41.0439L124.906 40.6856C123.384 39.6107 123.831 41.5813 123.563 42.1188C123.563 42.2083 121.95 42.9249 122.398 43.4624H122.936C123.115 44.3581 122.309 44.806 121.592 44.179L121.861 43.9102C121.503 43.6415 121.144 43.3728 121.055 42.9249C120.965 43.0145 120.607 43.1937 120.517 43.1937C120.517 43.1937 120.159 43.1937 120.069 43.1937C119.442 43.6415 119.353 44.5372 119.532 45.2538ZM120.517 45.5226H120.786C120.875 45.7017 120.696 45.9704 120.517 46.06V45.5226ZM154.286 45.7913C154.018 45.7913 154.018 46.3287 154.286 46.3287C154.466 46.3287 154.466 45.7913 154.286 45.7913ZM124.906 45.5226C124.906 45.5226 125.175 45.7017 125.175 45.7913C125.712 45.5226 125.354 44.7164 124.906 44.9851V45.5226ZM156.257 45.2538C155.988 45.2538 155.988 45.7913 156.257 45.7913C156.526 45.7913 156.526 45.2538 156.257 45.2538ZM154.734 44.9851C154.734 44.9851 154.734 45.1643 154.734 45.2538H155.003V44.7164C155.003 44.7164 154.824 44.8955 154.734 44.9851ZM155.451 44.9851C155.451 44.9851 155.451 45.1643 155.451 45.2538L156.257 44.9851C156.257 44.3581 155.451 44.9851 155.451 44.9851ZM154.018 44.4477C153.928 44.5373 153.928 44.8955 154.018 44.9851L154.734 44.179C154.734 44.179 154.555 44.179 154.466 44.179C154.376 44.179 154.018 44.4477 154.018 44.4477ZM120.786 43.6415C120.965 43.7311 120.965 44.3581 120.786 44.4477C120.607 44.5373 120.607 43.5519 120.786 43.6415ZM154.018 43.6415C154.018 43.7311 154.197 43.9102 154.286 43.9102C154.555 43.6415 154.913 43.3728 155.003 42.9249C154.913 42.9249 153.749 43.1936 154.018 43.6415ZM118.457 42.3875V43.6415C118.547 43.6415 118.726 43.6415 118.726 43.6415C119.263 43.4624 119.084 42.8353 118.994 42.3875H118.457ZM155.988 43.1937V43.4624H156.257L155.988 43.1937ZM155.72 42.1188C155.72 42.1188 156.257 42.8354 156.526 42.6562C156.615 42.5666 156.615 42.2083 156.526 42.1188C156.436 42.0292 155.899 41.85 155.72 41.85C155.72 41.9396 155.72 42.1188 155.72 42.1188ZM122.13 41.85V42.3875H122.667V41.85H122.13ZM154.018 41.85C153.928 41.9396 153.928 42.1188 154.018 42.1188C154.286 42.5666 154.555 41.4022 154.466 41.0439H154.286C154.197 41.1335 154.018 41.6709 154.018 41.85ZM121.861 41.5813C121.771 41.4917 121.413 41.7605 121.592 41.85C121.682 41.9396 121.95 41.7605 121.861 41.5813ZM155.003 41.5813C154.913 41.5813 154.913 41.9396 155.003 41.85C155.182 41.85 155.182 41.6709 155.003 41.5813ZM120.069 41.3126C120.786 41.4022 120.607 41.7605 121.323 41.5813V41.0439C121.861 40.9543 122.667 41.7605 122.936 41.0439C123.115 40.5064 122.936 40.1482 123.384 39.8794C123.384 39.7899 123.831 39.6107 123.831 39.6107C123.921 39.5211 123.563 38.8941 123.563 38.8045C123.563 38.715 123.831 38.3567 123.831 38.2671C123.831 38.1775 123.652 37.8192 123.563 37.7297C123.294 37.1922 123.025 36.1173 122.667 35.6695C122.398 35.4007 121.682 35.9382 121.861 36.4756C121.861 36.6548 122.13 36.8339 122.398 36.7444C122.488 36.8339 121.413 37.7297 121.323 37.9984C121.234 37.5505 119.621 36.9235 119.532 37.0131V37.5505H119.263V39.0733C120.248 39.2524 121.144 38.6254 122.398 38.8045C122.488 39.4316 122.309 40.0586 122.13 40.6856H121.592C121.503 40.596 121.413 39.8794 121.323 39.8794C121.234 39.7899 120.696 39.7899 120.517 39.8794C120.517 39.8794 120.159 40.3273 120.069 40.4169C119.621 40.596 118.636 39.969 118.457 39.8794V40.6856H117.651C118.278 41.4022 119.174 41.223 120.069 41.3126ZM155.451 41.3126C155.361 41.3126 155.361 41.6709 155.451 41.5813C155.63 41.5813 155.63 41.4022 155.451 41.3126ZM157.063 40.6856C156.795 40.6856 156.795 41.0439 157.063 41.0439C157.332 41.0439 157.332 40.6856 157.063 40.6856ZM154.018 40.1481C154.376 41.3126 155.272 39.969 155.272 39.342C154.913 39.5211 153.839 39.6107 154.018 40.1481ZM120.786 40.1481C121.055 40.1481 121.055 40.6856 120.786 40.6856C120.517 40.6856 120.517 40.1481 120.786 40.1481ZM123.831 39.8794C123.563 39.8794 123.563 40.4169 123.831 40.4169C124.1 40.4169 124.1 39.8794 123.831 39.8794ZM125.175 39.0733V39.342L125.712 39.0733H125.175ZM118.457 38.8045C118.188 38.8045 118.188 39.342 118.457 39.342C118.726 39.342 118.726 38.8045 118.457 38.8045ZM154.018 38.8045V39.0733L154.286 38.8045H154.018ZM118.188 38.5358C117.92 38.5358 117.92 39.0733 118.188 39.0733C118.457 39.0733 118.457 38.5358 118.188 38.5358ZM119.532 38.5358C119.801 38.5358 119.801 39.0733 119.532 39.0733C119.263 39.0733 119.263 38.5358 119.532 38.5358ZM122.398 38.2671L121.861 37.7297C122.219 37.1026 123.384 37.8192 123.204 38.5358C122.936 38.6254 122.488 38.3567 122.398 38.2671ZM154.734 37.7297C154.466 37.7297 154.466 38.2671 154.734 38.2671C155.003 38.2671 155.003 37.7297 154.734 37.7297ZM121.592 37.0131C121.592 36.8339 121.234 36.8339 121.323 37.0131C121.323 37.1922 121.503 37.1922 121.592 37.0131ZM123.831 36.2069C124.1 36.5652 124.458 36.5652 124.638 36.2069H123.831ZM119.801 35.9382C119.98 36.1173 120.607 36.2965 120.786 36.2069V34.6842C120.786 34.5946 120.338 33.7884 120.338 33.6988C120.338 33.6093 120.517 33.1614 120.517 33.1614V32.3552C120.517 32.2657 121.144 31.9969 121.323 31.9074L123.384 30.8325H123.563L124.369 31.3699C123.115 31.9074 120.875 32.1761 121.323 34.2363C121.413 34.1467 121.95 33.9676 122.13 33.9676C122.13 33.878 122.309 33.6988 122.398 33.6988C122.398 33.6093 122.846 33.6988 122.936 33.6988L123.563 32.8927C123.652 32.8927 123.831 32.8927 123.831 32.8927C123.921 32.8031 124.1 32.1761 124.1 32.0865C124.19 31.9969 124.906 31.4595 124.906 31.3699V31.1012C124.996 31.0116 125.175 30.8325 125.175 30.8325C125.712 30.6533 126.339 31.2804 126.25 31.9074C126.339 31.9969 126.698 31.8178 126.698 31.6387C126.787 31.2804 126.787 30.3846 126.698 30.2951C126.519 30.1159 125.712 29.7576 125.444 29.7576C125.623 29.3097 125.892 29.668 126.25 29.4889C127.056 29.041 127.056 27.787 126.967 26.9808H126.429C126.966 27.5183 125.712 28.3244 124.638 26.9808C124.817 26.3538 126.16 26.4434 125.981 27.2495C126.071 27.16 126.25 26.8017 126.25 26.7121C126.25 26.6225 126.25 26.4434 126.25 26.4434C126.966 24.8311 128.041 25.2789 127.773 22.8604C127.773 22.8604 127.952 22.8604 128.041 22.8604C128.041 22.95 128.489 23.2187 128.579 23.1292C129.116 22.8604 129.475 21.2481 129.564 20.8002C129.116 20.9794 128.489 20.8002 128.31 20.3524L130.012 19.2775C130.012 19.1879 129.833 19.0088 129.743 19.0088C129.654 19.0088 128.848 18.8296 128.848 18.7401C128.758 18.6505 128.848 18.0235 128.848 17.9339C128.758 17.9339 128.31 17.7547 128.31 17.6652C127.504 17.2173 128.579 16.5007 129.116 16.1424C129.116 16.1424 129.475 16.1424 129.564 16.1424C129.475 16.4111 130.191 18.4713 130.281 18.4713C131.176 18.3818 130.281 16.232 130.281 16.1424C130.37 16.1424 130.549 15.9633 130.549 15.8737C130.549 15.7841 130.37 15.4258 130.281 15.4258C129.654 15.605 128.937 15.5154 128.31 15.8737C127.414 16.5007 127.683 17.5756 126.698 18.2026C126.429 17.9339 126.339 17.486 126.429 17.2173C125.802 17.2173 125.712 18.113 125.712 18.4713H125.175V17.9339C125.085 17.8443 124.548 17.8443 124.369 17.9339C123.831 18.3818 124.279 20.0837 123.204 19.2775C123.115 19.2775 122.936 19.0088 122.936 19.0088C122.667 18.9192 122.219 18.9192 122.13 19.2775L121.861 19.0088C121.771 19.0088 121.592 19.1879 121.592 19.2775C121.503 19.3671 121.323 19.7254 121.323 19.8149H121.055C120.965 19.8149 120.786 19.9941 120.786 20.0837L121.323 20.5315C120.875 20.5315 120.428 21.1585 120.338 21.6064C120.338 21.7856 120.517 22.5021 120.517 22.5917C120.607 22.7709 121.413 22.95 121.592 22.8604C121.413 23.4875 120.607 23.4875 120.338 23.1292V23.577C120.875 23.3083 120.696 24.4728 121.055 24.6519C121.234 24.7415 121.95 24.9206 122.13 24.9206C122.04 25.2789 122.219 26.3538 122.936 25.9955V26.1747C122.219 26.3538 121.503 26.0851 121.055 25.7268C120.965 25.7268 120.786 25.9059 120.786 25.9955C120.069 27.0704 121.503 26.4434 122.13 26.9808C121.413 27.16 120.696 27.8766 120.517 28.5036C120.696 28.414 121.413 28.0557 121.592 28.0557C121.592 27.9661 121.771 27.9661 121.861 28.0557C121.95 28.1453 121.95 28.6827 121.861 28.7723C121.771 28.8619 121.144 29.041 121.055 29.041C120.875 29.1306 120.517 29.8472 120.517 30.0263V29.7576C120.248 30.1159 119.442 29.8472 119.263 30.2951C119.263 30.3846 119.442 30.5638 119.532 30.5638C119.711 30.6533 120.607 30.8325 120.786 30.8325C121.144 31.9074 119.98 31.4595 119.532 31.9074V32.624C119.532 32.624 119.263 32.8031 119.263 32.8927C119.263 32.8927 119.263 33.0718 119.263 33.1614C119.353 33.4301 119.532 33.7884 119.801 33.9676C119.174 34.2363 119.711 34.5946 119.801 34.8633C119.801 35.0424 119.711 35.8486 119.801 35.9382ZM122.13 34.6842C122.04 34.8633 121.861 35.3112 121.861 35.4007H123.563C123.831 35.0425 124.19 34.8633 124.638 34.6842C124.638 34.6842 123.921 34.2363 124.1 33.9676C123.473 33.6988 123.115 34.505 122.667 34.6842C122.577 34.7737 122.13 34.6842 122.13 34.6842ZM121.592 34.8633C121.323 34.8633 121.323 35.4007 121.592 35.4007C121.861 35.4007 121.861 34.8633 121.592 34.8633ZM124.638 33.6988C124.369 33.6988 124.369 34.2363 124.638 34.2363C124.906 34.2363 124.906 33.6988 124.638 33.6988ZM124.369 33.4301C124.458 33.251 124.1 33.251 124.1 33.4301C124.19 33.5197 124.369 33.5197 124.369 33.4301ZM122.398 32.624C122.398 32.8031 122.219 32.9823 122.13 32.8927C121.95 32.8031 122.309 32.4448 122.398 32.624ZM122.667 32.624C122.936 32.624 122.936 33.1614 122.667 33.1614C122.398 33.1614 122.398 32.624 122.667 32.624ZM123.384 32.3552C123.384 32.5344 123.294 32.7135 123.204 32.624C123.025 32.5344 123.384 32.1761 123.384 32.3552ZM125.444 32.0865C125.444 32.0865 125.265 32.2657 125.175 32.3552H125.712V32.0865C125.712 32.0865 125.533 32.0865 125.444 32.0865ZM123.204 32.0865C123.115 32.2657 122.936 32.2657 122.936 32.0865C122.846 31.9969 123.204 31.9969 123.204 32.0865ZM125.444 31.1012C125.175 31.1012 125.175 31.6387 125.444 31.6387C125.712 31.6387 125.712 31.1012 125.444 31.1012ZM122.13 30.0263C122.13 29.9368 122.309 29.5785 122.398 29.4889V30.2951H122.13C122.13 30.2951 122.13 30.1159 122.13 30.0263ZM123.204 29.7576C123.115 29.9368 122.936 29.9368 122.936 29.7576C122.846 29.5785 123.204 29.5785 123.204 29.7576ZM123.563 29.4889C123.652 29.4889 123.831 29.041 123.831 29.041C123.831 28.8619 122.309 27.0704 123.204 26.4434C123.921 26.7121 125.892 28.8619 125.175 29.4889C125.175 29.5785 124.996 29.5785 124.906 29.4889C124.906 29.4889 124.458 29.2202 124.369 29.2202C124.369 29.3097 123.921 29.7576 123.831 29.7576C123.831 29.8472 123.652 29.8472 123.563 29.7576C123.563 29.7576 123.563 29.5785 123.563 29.4889ZM126.25 28.7723C126.429 28.7723 126.429 29.2202 126.25 29.2202C125.981 29.2202 125.981 28.7723 126.25 28.7723ZM118.994 28.3244C118.994 29.041 119.711 28.7723 120.069 28.5036C120.069 27.787 118.994 27.787 118.994 28.3244ZM122.936 28.3244C123.204 28.3244 123.204 28.7723 122.936 28.7723C122.667 28.7723 122.667 28.3244 122.936 28.3244ZM123.831 28.3244C123.563 28.3244 123.563 28.7723 123.831 28.7723C124.1 28.7723 124.1 28.3244 123.831 28.3244ZM126.25 28.3244C126.339 28.3244 126.339 28.5036 126.25 28.5036C126.071 28.5931 126.071 28.2349 126.25 28.3244ZM120.069 27.2495C120.069 27.2495 120.248 27.4287 120.338 27.5183V26.9808H120.069C120.069 26.9808 120.069 27.16 120.069 27.2495ZM123.563 25.4581C123.563 25.4581 123.115 24.6519 123.563 24.6519C123.742 24.7415 124.011 25.0102 123.831 25.1894C124.369 25.3685 124.817 24.4728 125.175 25.1894C125.354 25.5477 124.906 25.6372 124.638 25.7268C124.638 25.7268 124.458 25.7268 124.369 25.7268C124.19 25.6372 123.652 25.4581 123.563 25.4581ZM126.25 25.1894C126.429 25.1894 126.429 25.7268 126.25 25.7268C125.981 25.7268 125.981 25.1894 126.25 25.1894ZM123.563 23.8457C123.563 23.7562 123.294 23.3979 123.204 23.3083C123.294 22.95 123.921 23.1292 124.1 23.1292C124.279 23.3979 123.921 23.9353 123.563 24.1145C123.652 24.1145 123.652 23.9353 123.563 23.8457ZM121.861 22.8604C122.13 22.8604 122.13 23.3083 121.861 23.3083C121.592 23.3083 121.592 22.8604 121.861 22.8604ZM127.235 22.323C127.504 22.323 127.504 22.8604 127.235 22.8604C126.966 22.8604 126.966 22.323 127.235 22.323ZM128.579 22.1438C128.668 22.1438 128.668 22.323 128.579 22.323C128.4 22.4126 128.4 22.0543 128.579 22.1438ZM122.13 21.6064C122.04 21.5168 122.04 21.1585 122.13 21.069H122.398V21.8751C122.309 21.7856 122.13 21.6064 122.13 21.6064ZM127.504 21.069H128.041V21.3377C127.773 21.4273 127.594 21.2481 127.504 21.069ZM121.861 20.3524C122.04 20.3524 122.04 20.442 121.861 20.5315C121.682 20.5315 121.682 20.2628 121.861 20.3524ZM122.398 20.3524L122.667 20.0837L122.936 20.3524L122.667 20.5315L122.398 20.3524ZM127.235 19.0088C127.504 18.9192 127.952 18.9192 128.041 19.2775H127.235V19.0088ZM129.295 17.2173V17.9339C129.654 17.7547 129.654 17.3965 129.295 17.2173ZM124.369 17.486C124.369 17.3965 124.011 17.5756 124.1 17.6652C124.279 17.7547 124.458 17.5756 124.369 17.486ZM124.1 16.9486C123.831 16.9486 123.831 17.486 124.1 17.486C124.369 17.486 124.369 16.9486 124.1 16.9486ZM125.712 16.9486C125.623 16.859 125.265 17.1277 125.444 17.2173C125.623 17.3069 125.802 17.1277 125.712 16.9486ZM129.116 16.6799C128.937 16.6799 128.937 17.0382 129.116 16.9486C129.206 16.9486 129.206 16.7694 129.116 16.6799ZM127.504 16.4111C127.235 16.4111 127.235 16.9486 127.504 16.9486C127.773 16.9486 127.773 16.4111 127.504 16.4111ZM130.818 15.8737C130.549 15.8737 130.549 16.4111 130.818 16.4111C131.087 16.4111 131.087 15.8737 130.818 15.8737ZM127.235 15.4258C126.966 15.4258 126.966 15.8737 127.235 15.8737C127.504 15.8737 127.504 15.4258 127.235 15.4258ZM151.689 13.6344C151.42 13.6344 151.42 14.1718 151.689 14.1718C151.958 14.1718 151.958 13.6344 151.689 13.6344ZM147.3 13.3656L147.031 13.6344H148.285C147.748 13.4552 147.568 13.0073 147.031 12.8282C146.852 13.0073 147.121 13.2761 147.3 13.3656ZM150.883 12.8282C150.704 12.8282 150.704 13.0969 150.883 13.0969C151.062 13.0969 151.062 12.8282 150.883 12.8282ZM150.076 12.5595C149.808 12.5595 149.808 13.0969 150.076 13.0969C150.345 13.0969 150.345 12.5595 150.076 12.5595ZM135.924 12.2908C135.745 12.2908 135.745 12.8282 135.924 12.8282C136.193 12.8282 136.193 12.2908 135.924 12.2908ZM135.476 12.022C135.297 12.022 135.297 12.3803 135.476 12.2908C135.566 12.2908 135.566 12.1116 135.476 12.022ZM148.285 11.5742V12.022C148.912 12.2908 149.181 11.2159 148.554 11.0367C148.554 11.1263 148.375 11.4846 148.285 11.5742ZM140.403 11.5742C140.403 11.6637 140.403 11.7533 140.403 11.7533H140.671V11.3054C140.582 11.395 140.403 11.5742 140.403 11.5742ZM145.24 11.0367C145.15 11.1263 144.971 11.4846 144.971 11.5742H145.508V11.0367C145.419 11.0367 145.24 11.0367 145.24 11.0367ZM143.179 11.0367L143.717 11.3054L143.896 9.69312C143.538 9.24526 143.538 10.9471 143.179 11.0367ZM138.521 10.768C138.253 10.768 138.253 11.3054 138.521 11.3054C138.79 11.3054 138.79 10.768 138.521 10.768ZM142.104 9.51397V9.69312L142.642 9.51397H142.104ZM142.911 9.51397C142.642 9.51397 142.642 9.96185 142.911 9.96185C143.179 9.96185 143.179 9.51397 142.911 9.51397Z" fill="#245BC6"/>
<path d="M34.0675 37.819C37.6504 36.4456 41.2334 35.1915 44.8163 34.0569C48.459 32.8626 52.1315 31.7877 55.8339 30.8323C60.3126 29.638 64.8211 28.5929 69.3595 27.6972C73.9576 26.8015 78.5856 26.1147 83.2434 25.637C83.4823 25.3982 84.1988 24.7114 85.3932 23.5768C86.5875 22.3825 87.9908 20.9792 89.6031 19.3669C91.2752 17.7545 93.0368 16.0526 94.888 14.2612C96.7392 12.41 98.4411 10.7379 99.9937 9.24505C101.606 7.69244 102.92 6.43841 103.935 5.48296C105.01 4.46779 105.607 3.96021 105.726 3.96021C105.906 3.96021 106.144 4.1095 106.443 4.40808C106.801 4.70665 107.16 5.03509 107.518 5.39339C107.876 5.75168 108.205 6.10998 108.503 6.46827C108.861 6.76685 109.1 6.97586 109.22 7.09529C109.279 7.21472 109.459 7.48344 109.757 7.90145C110.115 8.25974 110.444 8.67775 110.742 9.15547C111.101 9.57348 111.399 9.99149 111.638 10.4095C111.877 10.7678 111.907 10.9768 111.728 11.0365C108.682 13.1863 105.697 15.4555 102.77 17.8441C99.9041 20.2327 97.0676 22.6811 94.261 25.1892C95.4553 25.2489 96.7989 25.3982 98.2918 25.637C99.7847 25.8162 101.039 26.2342 102.054 26.891L107.07 32.1759C107.07 32.2356 107.04 32.2655 106.98 32.2655L100.889 31.1906C98.6799 31.0711 96.4704 31.0114 94.261 31.0114C92.1112 30.9517 89.9316 30.9816 87.7221 31.101C82.8254 35.52 78.0183 40.0285 73.3007 44.6266C68.5832 49.165 63.8955 53.793 59.2377 58.5105L53.0571 65.3181C52.9974 65.3778 52.9078 65.348 52.7884 65.2286C52.4898 65.1091 52.1614 64.8404 51.8031 64.4224C51.4448 63.9447 51.0865 63.4371 50.7282 62.8996C50.4296 62.3025 50.1907 61.7352 50.0116 61.1977C49.8324 60.6006 49.7429 60.1527 49.7429 59.8541C49.7429 59.675 50.34 58.9285 51.5343 57.6148C52.7884 56.301 54.341 54.6887 56.1922 52.7778C58.0434 50.8669 60.0737 48.8067 62.2832 46.5972C64.4927 44.3878 66.5827 42.2977 68.5533 40.3271C70.5837 38.2968 72.3453 36.5351 73.8382 35.0422C75.3311 33.5494 76.3164 32.564 76.7941 32.0863C72.0168 32.7432 67.3292 33.6389 62.731 34.7735C58.1926 35.8484 53.6841 37.1323 49.2054 38.6252C44.7268 40.0584 40.2779 41.6408 35.859 43.3726C31.4997 45.0446 27.1106 46.8062 22.6916 48.6574C21.0196 50.2698 19.3774 51.9119 17.7651 53.584C16.1528 55.1963 14.5106 56.8385 12.8385 58.5105L6.65797 65.3181C6.59825 65.3778 6.50868 65.348 6.38925 65.2286C6.09067 65.1091 5.76224 64.8404 5.40394 64.4224C5.04565 63.9447 4.68735 63.4371 4.32906 62.8996C4.03048 62.3025 3.79161 61.7352 3.61247 61.1977C3.43332 60.6006 3.34375 60.1527 3.34375 59.8541C3.34375 59.675 3.97076 58.8987 5.22479 57.5252C6.53854 56.1518 8.15086 54.4797 10.0618 52.5091C11.9727 50.5385 14.0627 48.4186 16.3319 46.1494C18.6608 43.8205 20.8405 41.6408 22.8708 39.6105C24.9011 37.5204 26.6627 35.729 28.1556 34.2361C29.6485 32.7432 30.5741 31.8176 30.9324 31.4593C31.231 31.1607 32.1267 30.265 33.6196 28.7721C35.1722 27.2792 36.9637 25.5176 38.994 23.4872C41.0841 21.4569 43.2936 19.3072 45.6225 17.038C47.9514 14.709 50.1012 12.5891 52.0718 10.6782C54.1021 8.76733 55.7742 7.18486 57.0879 5.93083C58.4614 4.61708 59.2078 3.96021 59.3273 3.96021C59.4467 3.96021 59.6855 4.1095 60.0438 4.40808C60.4021 4.70665 60.7604 5.03509 61.1187 5.39339C61.477 5.75168 61.8054 6.10998 62.104 6.46827C62.4026 6.76685 62.6116 6.97586 62.731 7.09529C62.7908 7.21472 62.9998 7.48344 63.3581 7.90145C63.7164 8.25974 64.0448 8.67775 64.3434 9.15547C64.7017 9.57348 65.0002 9.99149 65.2391 10.4095C65.478 10.7678 65.5078 10.9768 65.3287 11.0365C63.0595 12.6488 60.7903 14.3507 58.5211 16.1422C56.3116 17.874 54.132 19.6654 51.9822 21.5166C49.4741 23.6067 47.0258 25.7565 44.6372 27.9659C42.2486 30.1754 39.8301 32.3849 37.3817 34.5944C36.8443 35.1318 36.277 35.6693 35.6798 36.2067C35.1424 36.7441 34.6049 37.2816 34.0675 37.819Z" fill="#245BC6"/>
</g>
<defs>
<clipPath id="clip0_283_5380">
<rect width="497" height="74" fill="white"/>
</clipPath>
</defs>
</svg>
