<svg width="497" height="74" viewBox="0 0 497 74" fill="none" xmlns="http://www.w3.org/2000/svg">
<g clip-path="url(#clip0_283_5446)">
<path d="M441.146 68.5577C424.306 68.5577 409.258 55.8382 409.258 36.3112C409.258 16.9633 424.306 4.0647 441.146 4.0647C457.896 4.0647 473.034 16.9633 473.034 36.3112C473.034 55.8382 457.896 68.5577 441.146 68.5577ZM420.275 36.3112C420.275 49.7472 430.039 58.0776 441.146 58.0776C452.164 58.0776 462.017 49.7472 462.017 36.3112C462.017 23.0543 452.164 14.5448 441.146 14.5448C430.039 14.5448 420.275 23.0543 420.275 36.3112Z" fill="#245BC6"/>
<path d="M351.986 19.9189C348.403 21.0535 344.82 22.3076 341.237 23.681C337.714 25.0545 334.221 26.5772 330.757 28.2493C329.384 28.9061 327.981 29.5929 326.547 30.3095C325.174 31.026 323.86 31.8023 322.606 32.6384H322.517L321.263 29.9512C322.099 28.936 323.144 27.9805 324.398 27.0848C325.711 26.1294 327.085 25.2635 328.518 24.4872C330.011 23.6512 331.474 22.9047 332.907 22.2478C334.4 21.5312 335.774 20.9042 337.028 20.3668C341.088 18.635 345.209 17.1123 349.389 15.7985C353.569 14.4251 357.809 13.2009 362.108 12.126C366.706 10.9317 371.364 9.88668 376.082 8.99094C380.799 8.09521 385.547 7.40848 390.324 6.93075C391.458 6.81132 392.832 6.72175 394.444 6.66203C396.057 6.5426 397.699 6.51275 399.371 6.57246C401.102 6.57246 402.745 6.69189 404.297 6.93075C405.91 7.16961 407.223 7.58763 408.239 8.18478L413.255 13.3801V13.4696L407.074 12.5739C405.88 12.335 404.566 12.2156 403.133 12.2156C402.297 12.1559 401.431 12.1559 400.535 12.2156C399.639 12.2156 398.744 12.2156 397.848 12.2156C395.639 12.335 393.429 12.4843 391.22 12.6635C389.07 12.7829 386.89 12.9322 384.681 13.1113C380.56 13.5891 376.559 14.1265 372.678 14.7237C371.245 15.0222 369.752 15.3507 368.199 15.709C366.647 16.0075 365.183 16.3957 363.81 16.8734C362.675 17.8289 361.571 18.7843 360.496 19.7398C359.421 20.6355 355.569 24.0095 348.941 29.8616C345.716 32.7279 342.492 35.5346 339.267 38.2815C336.102 41.0284 332.818 43.7754 329.414 46.5223L326.368 49.2991L321.621 54.8526H321.531C321.472 54.6138 321.322 54.1659 321.083 53.509C320.904 52.7924 320.695 52.046 320.456 51.2697C320.218 50.4934 320.009 49.7768 319.829 49.1199C319.71 48.4033 319.68 47.9555 319.74 47.7763C319.74 47.7166 320.158 47.3284 320.994 46.6119C321.83 45.8953 322.845 44.9995 324.039 43.9246C325.293 42.8498 326.637 41.7152 328.07 40.5209C329.503 39.2668 330.847 38.1024 332.101 37.0275C333.415 35.8929 334.549 34.9374 335.505 34.1611C336.46 33.3251 337.057 32.8175 337.296 32.6384C339.804 30.5483 342.282 28.4583 344.731 26.3682C347.179 24.2185 349.598 22.0687 351.986 19.9189Z" fill="#245BC6"/>
<path d="M283.44 4.96008C300.727 4.96008 314.701 4.96008 314.701 36.3108C314.701 67.6616 300.727 67.6616 283.35 67.6616H234.174C216.887 67.6616 202.913 67.6616 202.913 36.3108C202.913 4.96008 216.887 4.96008 234.174 4.96008H283.44ZM283.619 50.1947C291.233 50.1947 297.413 50.1947 297.413 36.4004C297.413 22.6061 291.233 22.6061 283.619 22.6061H234.174C226.561 22.6061 220.38 22.6061 220.38 36.4004C220.38 50.1947 226.561 50.1947 234.174 50.1947H283.619Z" fill="#245BC6"/>
<path d="M148.784 68.1091C148.067 68.0196 147.799 67.7509 147.53 67.0343C147.44 66.049 147.261 61.5703 147.261 60.585V57.5395C147.261 56.1959 147.44 51.538 147.53 50.911C147.799 47.2385 151.382 49.2987 152.636 46.2532C152.815 44.2826 153.352 35.3252 153.442 33.4442C153.621 28.0698 148.605 31.9214 147.799 28.5176C147.351 21.71 147.082 14.7233 147.261 8.00527C147.44 7.46782 147.888 6.93038 148.247 6.66166C149.501 6.57209 155.233 6.39294 156.487 6.39294H184.793C184.972 6.48252 185.778 6.75124 186.047 6.93038C186.405 7.28868 187.928 8.72185 188.107 8.99058C188.465 9.52802 190.884 12.5735 191.421 13.3797C193.033 15.619 191.69 17.9479 191.421 20.2768C191.242 21.2622 190.973 25.4721 190.973 26.4574C190.884 26.7261 190.615 27.5323 190.436 27.801L189.629 28.5176L187.032 30.5778C186.494 31.1153 185.688 31.4735 186.047 32.3693C186.047 32.4589 186.405 32.8172 186.584 32.9067L189.629 33.9816C191.242 34.4295 191.869 36.4897 192.496 37.7437L194.735 43.1181C194.825 43.2973 195.004 44.193 195.004 44.4617C195.093 44.9096 195.273 47.4176 195.273 48.0447C195.362 49.1195 195.541 54.2252 195.541 55.2106V59.1518L195.004 60.1371L187.301 67.8404L186.315 68.3779H182.195C181.747 68.3779 178.254 68.1091 177.806 68.1091H176.283C175.656 68.1091 170.998 68.3779 170.371 68.3779H153.89C153.173 68.3779 149.59 68.1987 148.784 68.1091ZM161.145 64.2575C161.235 64.3471 161.414 64.8845 161.414 65.0636L162.22 63.72C162.399 64.0783 162.399 64.6158 162.399 65.0636C162.937 64.6158 163.832 62.2869 164.728 63.9888C164.549 64.0783 164.37 64.2575 164.459 64.5262C165.534 64.9741 165.892 63.093 166.251 63.4513C166.34 63.5409 166.52 63.8992 166.52 63.9888C166.609 63.3617 167.057 62.6452 167.863 62.7347C167.863 62.7347 167.863 62.9139 167.863 63.0034C167.774 63.093 167.594 63.3618 167.594 63.4513C167.505 63.6305 167.505 64.1679 167.594 64.2575C167.684 64.3471 168.132 64.5262 168.311 64.5262C168.401 64.4366 169.207 63.9888 169.296 63.9888C169.386 63.9888 169.565 63.9888 169.565 63.9888C169.386 64.2575 170.102 64.7949 170.102 64.7949C170.729 63.093 171.356 64.1679 172.163 63.9888C172.163 63.8992 172.163 63.72 172.163 63.72C172.163 63.6305 171.894 63.093 171.894 63.0034C171.894 61.839 173.417 62.0181 173.954 62.466C173.954 62.466 174.223 62.7347 174.312 62.7347V63.72H175.477C176.014 63.6305 175.656 63.093 175.477 63.0034L176.283 61.3911C176.373 61.3016 176.731 61.1224 176.82 61.1224C177.716 61.1224 177.089 62.1077 177 62.466C176.91 62.8243 176.91 63.1826 176.552 63.4513C176.82 63.9888 179.687 64.7949 179.866 63.9888C179.776 63.8992 179.687 63.72 179.687 63.72C179.418 63.6305 178.075 63.4513 177.806 63.4513C177.447 62.5556 178.164 62.1077 178.881 61.6598C179.149 61.4807 179.508 62.0181 179.866 61.9286L179.687 62.466H179.866C179.866 62.2869 180.314 61.5703 180.403 61.3911C180.493 61.212 180.941 60.4058 181.12 60.585C181.21 60.6745 181.21 60.8537 181.12 60.8537C181.12 61.0328 180.941 61.5703 180.851 61.6598C180.941 61.5703 181.299 61.5703 181.389 61.6598L181.926 62.7347C182.016 62.7347 182.464 63.0034 182.464 63.0034C182.553 63.0034 182.643 63.093 182.643 63.1826C183.18 63.1826 182.553 61.839 182.911 61.1224C183.091 61.3016 183.986 62.1973 184.524 61.9286C184.345 61.3911 184.345 60.585 185.061 60.585C185.24 60.585 185.42 60.9433 185.33 61.1224H185.061C184.972 61.4807 185.061 61.9286 185.33 62.1973C185.509 62.2869 186.584 62.2869 186.763 62.1973C186.942 62.1077 187.301 61.3911 187.301 61.1224C187.39 60.9433 187.39 60.1371 187.301 59.8684C187.928 59.5101 188.644 59.2414 189.361 59.3309V56.8229C189.361 56.4646 190.077 56.5541 190.167 56.5541C189.182 56.9124 190.525 57.9873 190.973 57.5395C191.779 56.7333 190.346 56.5542 190.704 56.0167C190.704 55.9271 191.152 55.5688 191.242 55.4793C191.242 55.4793 191.242 55.3001 191.242 55.2106C190.704 54.6731 189.629 54.4044 189.898 53.4191L189.092 54.2252C188.913 53.867 189.988 52.6129 190.167 52.165H190.436C190.615 51.4485 189.45 50.6423 189.629 50.3736C189.629 50.284 190.167 49.9257 190.167 49.8361C190.257 49.657 190.346 48.2238 190.436 48.0447C190.436 48.0447 190.704 47.5968 190.704 47.5072L189.898 46.7906C189.809 46.6115 189.719 45.8053 190.167 45.7157L190.704 46.2532C191.152 45.447 189.719 45.1783 189.361 44.7304C189.361 44.6409 189.54 44.4617 189.629 44.4617H190.704C190.794 44.3721 190.794 44.193 190.704 44.193C188.823 42.939 188.913 46.3428 187.301 44.193C186.853 44.5513 186.405 45.5366 186.047 45.8053H186.763C186.763 45.9845 186.405 46.8802 186.315 47.0594C186.226 47.0594 186.047 47.2385 186.047 47.2385C185.957 47.3281 185.42 47.2385 185.33 47.2385C185.151 47.3281 184.613 47.9551 184.524 48.0447C184.524 48.1342 184.703 48.4925 184.793 48.5821C184.793 48.5821 184.972 48.7613 185.061 48.7613C185.151 48.5821 185.42 48.3134 185.33 48.0447H186.315C186.226 48.2238 186.226 48.6717 186.315 48.7613C186.315 48.8508 186.494 49.03 186.584 49.03C186.584 49.03 186.584 49.2091 186.584 49.2987C186.494 49.5674 186.315 50.284 186.315 50.3736C186.226 50.4632 186.047 50.6423 186.047 50.6423C185.509 50.6423 185.33 50.0153 185.33 49.5674C185.24 49.657 185.061 50.284 185.061 50.3736V50.6423C184.972 50.6423 184.524 50.8214 184.524 50.911C184.345 51.0902 185.33 53.0608 185.509 53.1504L185.061 53.4191C185.33 53.5982 185.42 53.9565 185.33 54.2252H184.255C184.524 53.9565 184.613 53.5982 184.524 53.1504C184.345 53.2399 184.166 53.5087 184.255 53.6878C183.718 53.8669 183.359 53.3295 182.643 53.4191C182.643 53.5086 182.553 53.6878 182.464 53.6878C182.374 53.6878 181.568 53.5086 181.389 53.4191H180.851C180.851 53.5086 180.403 53.6878 180.403 53.6878C180.224 53.7774 179.687 53.7774 179.687 53.6878L179.418 55.4793C179.687 55.5688 180.045 55.4793 180.403 55.2106V56.0167C180.314 56.0167 180.135 56.2854 180.135 56.2854C179.866 56.8229 180.762 56.6437 180.135 57.5395C180.045 57.4499 179.866 57.3603 179.866 57.3603C179.776 57.2707 179.687 56.8229 179.687 56.8229C179.06 56.4646 178.702 57.3603 178.612 57.5395C178.254 58.256 180.045 58.0769 179.687 58.6143L178.343 59.8684C178.343 59.9579 177.985 59.7788 177.806 59.5997C177.716 59.5997 177.537 59.4205 177.537 59.3309C177.627 59.3309 177.806 59.1518 177.806 59.1518C177.895 58.7935 177.895 58.0769 177.806 58.0769L176.283 57.5395C176.283 57.1812 176.731 56.8229 177 57.0916V56.2854H176.82C177.268 55.4793 176.82 54.7627 176.014 54.4044C175.746 55.2105 176.91 55.3001 175.746 55.748C175.387 55.9271 175.387 55.3001 174.939 55.4793C175.119 55.3001 175.387 54.6731 175.208 54.4044C174.581 53.5086 173.148 54.7627 172.7 54.6731C172.611 54.6731 172.252 54.3148 172.163 54.2252C172.163 54.2252 171.983 54.2252 171.894 54.2252C171.804 54.3148 171.177 54.494 171.088 54.4044C170.729 54.4044 171.177 53.5087 170.102 54.2252C170.102 54.3148 169.923 54.4044 169.834 54.4044C169.207 54.5835 167.594 54.4044 167.326 53.6878C166.878 55.121 165.534 54.494 164.459 54.9418C164.459 54.9418 164.459 54.7627 164.459 54.6731C164.549 54.6731 164.907 54.4044 164.997 54.4044C164.638 54.3148 164.459 52.1651 163.653 52.7025C164.011 53.4191 162.668 54.6731 162.22 54.4044C161.862 54.0461 163.026 53.9565 162.578 52.9712C162.578 52.8816 162.22 52.8816 162.22 52.9712C162.13 52.9712 161.951 53.1504 161.951 53.1504C161.414 53.4191 160.876 52.5233 161.145 52.165C161.145 52.0755 161.593 51.8963 161.683 51.8963V51.1797H160.608C160.876 51.0902 160.966 50.6423 160.876 50.3736C160.249 50.1049 160.249 51.8067 159.354 51.4485C158.368 50.911 158.906 50.284 159.354 49.5674H158.01C158.01 49.5674 157.831 49.2987 157.741 49.2987C157.741 49.2987 157.562 49.2987 157.473 49.2987C157.204 49.9257 158.816 51.538 159.085 52.165C158.816 52.165 158.189 52.3442 158.01 52.7025H158.816V52.9712C158.816 52.9712 158.1 53.1504 157.741 53.1504C157.741 53.2399 157.562 53.2399 157.473 53.1504C157.473 53.1504 157.025 52.9712 156.935 52.9712C156.577 52.9712 156.039 54.4044 156.039 54.6731C156.846 54.8523 158.279 54.9418 158.279 53.6878L159.533 54.2252C159.622 54.3148 159.622 54.7627 159.533 54.9418C159.443 55.2105 158.995 56.2854 158.816 56.5541C159.443 57.002 159.443 57.3603 158.816 57.8082C159.443 57.3603 159.891 58.8831 159.354 59.1518V58.3456C158.368 58.9726 158.1 58.0769 157.204 57.5395C157.204 57.5395 157.025 57.5395 156.935 57.5395C156.935 57.5395 156.756 57.8082 156.666 57.8082H156.487C156.398 57.8082 156.039 57.9873 156.039 58.0769C155.412 58.9726 155.681 59.5101 155.233 60.1371C155.233 60.2267 155.233 60.2267 155.233 60.2267H156.039C156.487 61.3911 154.517 60.2267 154.965 61.9286C154.965 62.0181 155.144 62.1973 155.233 62.1973C155.323 62.1973 155.95 61.9286 156.039 61.9286C156.039 61.9286 156.219 62.2869 156.308 62.466C156.308 62.466 156.308 62.6452 156.308 62.7347C156.308 62.7347 156.666 62.5556 156.666 62.466C156.756 62.466 156.935 62.1973 156.935 62.1973C157.025 62.1973 158.368 62.0181 158.816 61.9286C159.085 61.9286 159.174 61.9286 159.354 62.1973C159.174 62.7347 157.741 62.2869 158.01 63.1826C158.1 63.2722 158.279 63.72 158.279 63.72C158.368 63.72 158.816 63.6305 158.816 63.72C158.906 63.72 159.443 64.3471 159.533 64.5262C159.533 64.5262 159.533 64.7053 159.533 64.7949C159.801 64.5262 160.697 63.8992 161.145 64.2575ZM183.18 64.2575V64.7949C184.076 65.0636 183.897 64.1679 184.255 63.72C184.345 63.6305 185.509 63.093 185.33 62.7347C185.061 62.8243 184.613 62.8243 184.524 62.466C184.255 63.093 183.539 63.6305 182.911 63.9888C183.001 63.9888 183.18 64.1679 183.18 64.2575ZM180.583 63.72C180.851 64.2575 181.03 64.7054 181.657 64.5262C182.553 64.1679 181.568 62.1973 180.403 62.466C180.314 62.466 180.314 62.6452 180.403 62.7347C180.403 63.0035 180.583 63.6305 180.583 63.72ZM157.204 63.4513L157.473 63.72V63.4513H157.204ZM181.12 63.1826C181.389 63.1826 181.389 63.72 181.12 63.72C180.851 63.72 180.851 63.1826 181.12 63.1826ZM166.251 62.7347C166.43 62.7347 166.43 62.9139 166.251 63.0034C166.072 63.0034 166.072 62.6452 166.251 62.7347ZM171.356 62.7347C171.625 62.7347 171.625 63.1826 171.356 63.1826C171.088 63.1826 171.088 62.7347 171.356 62.7347ZM178.881 62.466C178.612 62.466 178.612 63.0034 178.881 63.0034C179.149 63.0034 179.149 62.466 178.881 62.466ZM183.18 61.9286C182.911 61.9286 182.911 62.466 183.18 62.466C183.449 62.466 183.449 61.9286 183.18 61.9286ZM178.881 61.6598C178.612 61.6598 178.612 62.1973 178.881 62.1973C179.149 62.1973 179.149 61.6598 178.881 61.6598ZM156.487 61.1224C156.756 60.4058 157.741 60.4058 158.279 60.8537C158.1 61.3016 156.666 61.839 156.487 61.1224ZM169.296 61.1224C169.565 61.1224 169.565 61.6598 169.296 61.6598C169.028 61.6598 169.028 61.1224 169.296 61.1224ZM178.612 61.1224C178.881 61.1224 178.881 61.6598 178.612 61.6598C178.343 61.6598 178.343 61.1224 178.612 61.1224ZM156.935 60.8537C156.666 60.8537 156.666 61.3911 156.935 61.3911C157.204 61.3911 157.204 60.8537 156.935 60.8537ZM181.926 60.8537H182.195V61.1224H181.926V60.8537ZM183.718 60.8537C183.986 60.8537 183.986 61.3911 183.718 61.3911C183.449 61.3911 183.449 60.8537 183.718 60.8537ZM175.208 60.1371C174.85 59.8684 173.954 60.4954 173.506 60.3163C173.596 60.3163 173.865 59.9579 173.954 59.8684C173.954 59.8684 174.133 59.4205 174.223 59.3309C174.223 59.3309 174.671 59.4205 174.671 59.3309C174.76 59.3309 174.939 59.1518 174.939 59.1518C175.208 59.0622 176.104 59.0622 176.283 59.1518C176.82 59.2414 176.641 60.2267 177 60.3163C176.731 61.1224 176.462 60.2267 176.014 60.3163V60.8537C175.925 60.7641 175.387 60.2267 175.208 60.1371ZM178.612 60.585C178.881 60.585 178.881 61.1224 178.612 61.1224C178.343 61.1224 178.343 60.585 178.612 60.585ZM158.816 60.3163C159.085 60.3163 159.085 60.8537 158.816 60.8537C158.547 60.8537 158.547 60.3163 158.816 60.3163ZM188.107 60.3163V60.585H188.375V60.3163H188.107ZM175.746 59.8684C175.477 59.8684 175.477 60.3163 175.746 60.3163C176.014 60.3163 176.014 59.8684 175.746 59.8684ZM180.403 59.8684C180.314 59.8684 180.135 59.5996 180.135 59.5101H180.851C180.314 58.8831 180.941 58.6143 181.12 58.0769C181.389 58.5248 181.747 58.0769 181.926 58.6143C181.299 58.9726 181.389 60.6745 180.403 59.8684ZM181.389 59.8684C181.657 59.8684 181.657 60.3163 181.389 60.3163C181.12 60.3163 181.12 59.8684 181.389 59.8684ZM182.911 59.5997C182.822 59.5997 182.284 59.6892 182.195 59.5997C181.299 59.4205 182.732 57.8978 183.18 58.8831L183.449 59.5997C183.449 59.6892 183.718 59.8684 183.718 59.8684C183.718 59.9579 183.718 60.1371 183.718 60.1371C183.718 60.2267 183.449 60.2267 183.449 60.1371C183.359 60.1371 183.001 59.6892 182.911 59.5997ZM184.524 59.8684C184.434 59.6892 184.613 59.4205 184.793 59.3309H185.778C186.047 58.4352 186.136 57.4499 186.047 56.5541C186.405 56.6437 187.39 56.7333 187.838 56.2854V57.3603C187.39 57.5395 187.48 56.6437 186.763 57.0916C186.674 57.1812 186.494 57.4499 186.584 57.5395C186.584 57.629 187.032 57.9873 187.032 58.0769C187.301 58.3456 186.674 58.9726 186.763 59.3309H187.301C186.763 60.4058 185.42 60.1371 184.524 59.8684ZM154.427 59.3309C154.158 59.3309 154.158 59.8684 154.427 59.8684C154.696 59.8684 154.696 59.3309 154.427 59.3309ZM156.039 59.3309C156.308 59.3309 156.308 59.8684 156.039 59.8684C155.771 59.8684 155.771 59.3309 156.039 59.3309ZM156.487 59.3309V59.1518C156.487 59.0622 156.308 58.8831 156.308 58.8831C156.398 58.7935 156.846 58.6143 156.935 58.6143C157.025 58.5248 157.204 58.3456 157.204 58.3456C157.562 58.1665 157.741 58.6143 157.741 58.8831C157.741 59.4205 156.756 60.0475 156.487 59.3309ZM175.746 59.3309V59.5997L176.014 59.3309H175.746ZM186.315 59.3309C186.047 59.3309 186.047 59.8684 186.315 59.8684C186.584 59.8684 186.584 59.3309 186.315 59.3309ZM179.418 59.1518C179.687 59.1518 179.687 59.5997 179.418 59.5997C179.149 59.5997 179.149 59.1518 179.418 59.1518ZM158.01 58.8831C158.279 58.8831 158.279 59.3309 158.01 59.3309C157.741 59.3309 157.741 58.8831 158.01 58.8831ZM177 58.8831C177 58.7935 177.179 58.6143 177.268 58.6143C177.358 58.7935 177.179 59.0622 177 59.1518C177 59.0622 177 58.8831 177 58.8831ZM157.204 58.6143C156.935 58.6143 156.935 59.1518 157.204 59.1518C157.473 59.1518 157.473 58.6143 157.204 58.6143ZM180.135 58.6143H180.403L180.135 58.8831V58.6143ZM185.509 58.6143C185.778 58.6143 185.778 59.1518 185.509 59.1518C185.33 59.1518 185.33 58.6143 185.509 58.6143ZM190.436 58.3456C190.167 58.3456 190.167 58.8831 190.436 58.8831C190.704 58.8831 190.704 58.3456 190.436 58.3456ZM183.986 57.8082C183.897 57.5395 183.986 57.1812 184.255 57.0916C184.434 57.1812 185.061 58.2561 185.061 58.3456C184.613 58.5248 184.165 58.1665 183.986 57.8082ZM182.643 57.8082C182.911 57.8082 182.911 58.3456 182.643 58.3456C182.464 58.3456 182.464 57.8082 182.643 57.8082ZM172.7 57.5395C172.969 57.5395 172.969 58.0769 172.7 58.0769C172.431 58.0769 172.431 57.5395 172.7 57.5395ZM174.223 57.3603C174.223 57.2707 174.581 56.8229 174.671 56.8229C174.76 56.9125 174.581 58.2561 174.223 57.8082C174.133 57.7186 174.133 57.3603 174.223 57.3603ZM181.657 57.5395C181.926 57.2707 182.284 56.8229 182.643 57.0916C182.643 57.5395 182.105 57.8082 181.657 57.8082C181.657 57.7186 181.657 57.5395 181.657 57.5395ZM188.107 57.5395C188.286 57.5395 188.286 57.7186 188.107 57.8082C187.928 57.8082 187.928 57.4499 188.107 57.5395ZM156.308 57.0916C156.219 57.0916 156.219 57.2707 156.308 57.3603H156.666V56.8229C156.487 56.7333 156.308 56.9124 156.308 57.0916ZM179.418 56.8229C179.687 56.8229 179.687 57.3603 179.418 57.3603C179.149 57.3603 179.149 56.8229 179.418 56.8229ZM174.223 56.5541C174.492 56.5541 174.492 57.0916 174.223 57.0916C173.954 57.0916 173.954 56.5541 174.223 56.5541ZM157.473 56.0167C157.473 56.1063 157.293 56.4646 157.204 56.5541L158.816 55.748C159.085 55.6584 158.458 54.7627 158.279 54.6731C157.652 55.121 157.741 55.3897 157.473 56.0167ZM175.477 56.2854C175.566 56.2854 175.746 56.2854 175.746 56.2854C175.656 56.4646 175.477 56.6437 175.208 56.5541C175.298 56.4646 175.477 56.2854 175.477 56.2854ZM183.18 56.0167C183.18 56.0167 183.986 55.3897 183.986 56.0167C183.986 56.0167 183.539 56.7333 183.18 56.5541C183.091 56.4646 183.091 56.1063 183.18 56.0167ZM184.793 56.2854C184.703 56.1959 184.703 56.0167 184.793 56.0167C184.882 55.9271 185.42 55.748 185.509 55.748V56.5541H185.33C185.151 56.5541 184.793 56.2854 184.793 56.2854ZM181.12 55.748C181.21 55.748 181.657 55.9271 181.657 56.0167C181.747 56.0167 181.747 56.2854 181.657 56.2854H180.851L181.12 55.748ZM186.763 56.0167C186.763 55.8376 186.942 54.494 187.301 54.9418C187.39 55.121 187.39 55.8376 187.301 56.0167C187.301 56.1063 187.121 56.2854 187.032 56.2854C187.032 56.2854 186.853 56.1063 186.763 56.0167ZM186.315 55.748C186.584 55.748 186.584 56.2854 186.315 56.2854C186.047 56.2854 186.047 55.748 186.315 55.748ZM181.926 55.2106C181.747 54.6731 182.374 54.8523 182.464 54.6731C182.553 54.494 182.822 53.7774 183.18 54.4044C182.643 54.8522 182.643 55.3897 182.195 55.748C182.195 55.6584 182.016 55.3001 181.926 55.2106ZM184.524 55.4793C184.703 55.5688 184.703 55.748 184.524 55.748C184.345 55.8376 184.345 55.4793 184.524 55.4793ZM186.047 55.4793C186.136 55.5688 186.136 55.748 186.047 55.748C185.867 55.8376 185.867 55.4793 186.047 55.4793ZM173.775 55.2106C173.685 55.121 173.685 54.7627 173.775 54.6731H174.671C174.671 54.6731 174.402 55.4793 174.223 55.4793C174.044 55.4793 173.775 55.3001 173.775 55.2106ZM162.847 54.6731C162.937 54.6731 163.116 54.6731 163.116 54.6731C163.205 54.7627 163.384 55.121 163.384 55.2106H162.847V54.6731ZM188.555 54.9418V55.2106H188.375L188.555 54.9418ZM184.524 54.9418C184.434 55.121 184.255 55.121 184.255 54.9418C184.166 54.7627 184.524 54.7627 184.524 54.9418ZM185.778 54.6731L186.047 54.4044C186.226 54.494 186.405 54.7627 186.315 54.9418C186.047 55.0314 185.867 54.8523 185.778 54.6731ZM181.657 54.4044V54.6731H181.12L181.657 54.4044ZM161.145 54.2252C161.414 54.2252 161.414 54.6731 161.145 54.6731C160.876 54.6731 160.876 54.2252 161.145 54.2252ZM176.82 54.2252C176.552 54.2252 176.552 54.6731 176.82 54.6731C177 54.6731 177 54.2252 176.82 54.2252ZM186.763 54.2252C186.763 54.4044 186.584 54.4044 186.584 54.2252C186.494 54.1357 186.853 54.1357 186.763 54.2252ZM165.713 53.4191C165.713 53.5086 165.892 53.9565 165.982 53.9565L166.251 53.6878L165.713 53.1504C165.713 53.2399 165.713 53.4191 165.713 53.4191ZM155.502 53.1504C155.233 53.1504 155.233 53.6878 155.502 53.6878C155.771 53.6878 155.771 53.1504 155.502 53.1504ZM160.339 53.1504C160.518 53.2399 160.518 53.4191 160.339 53.4191C160.16 53.5086 160.16 53.1504 160.339 53.1504ZM159.085 52.9712C159.354 52.9712 159.354 53.4191 159.085 53.4191C158.816 53.4191 158.816 52.9712 159.085 52.9712ZM155.771 52.4338L155.502 52.7025H155.771V52.4338ZM159.354 52.165C159.533 52.165 159.533 52.7025 159.354 52.7025C159.085 52.7025 159.085 52.165 159.354 52.165ZM160.07 52.165C160.339 52.165 160.339 52.7025 160.07 52.7025C159.801 52.7025 159.801 52.165 160.07 52.165ZM162.22 52.165V52.4338H162.399V52.165H162.22ZM158.01 51.8963C157.741 51.8963 157.741 52.4338 158.01 52.4338C158.279 52.4338 158.279 51.8963 158.01 51.8963ZM189.361 51.8963H189.629V52.165H189.361V51.8963ZM184.255 51.6276C183.986 51.6276 183.986 52.165 184.255 52.165C184.524 52.165 184.524 51.6276 184.255 51.6276ZM188.823 51.6276C189.092 51.6276 189.092 52.165 188.823 52.165C188.555 52.165 188.555 51.6276 188.823 51.6276ZM187.301 51.1797C187.39 51.0902 187.39 50.7319 187.301 50.6423H187.838C187.928 50.7319 187.928 51.2693 187.838 51.4485C187.748 51.538 187.211 51.6276 187.032 51.6276C187.121 51.538 187.301 51.2693 187.301 51.1797ZM164.997 50.6423C169.834 51.1797 174.581 50.911 179.418 49.8361C179.687 49.7466 180.314 49.5674 180.403 49.5674C182.911 48.0447 182.374 44.7304 181.389 42.4015C180.493 40.0726 178.075 39.2664 176.014 38.2811C175.925 38.1916 175.387 38.0124 175.208 38.0124C171.983 37.9228 168.669 38.0124 165.445 38.2811C164.549 38.5499 164.191 39.5352 163.922 40.3413L162.847 47.2385C162.668 48.5821 163.653 50.284 164.997 50.6423ZM188.375 50.6423C188.286 50.1049 188.196 49.2987 188.823 49.03C188.734 49.4778 188.644 50.4632 189.092 50.911C188.913 51.0006 188.375 51.0006 188.375 50.6423ZM190.973 49.5674C190.704 49.5674 190.704 50.1049 190.973 50.1049C191.242 50.1049 191.242 49.5674 190.973 49.5674ZM160.608 49.03C160.339 49.03 160.339 49.5674 160.608 49.5674C160.876 49.5674 160.876 49.03 160.608 49.03ZM186.047 49.03C185.778 49.03 185.778 49.5674 186.047 49.5674C186.315 49.5674 186.315 49.03 186.047 49.03ZM189.361 49.03H189.629V49.2987H189.361V49.03ZM159.533 49.03C159.533 48.8508 159.354 48.8508 159.354 49.03C159.354 49.2091 159.533 49.2091 159.533 49.03ZM188.555 48.5821C188.555 48.5821 188.196 48.403 188.107 48.3134C188.107 48.3134 187.928 48.1342 187.838 48.0447H189.092C189.002 48.3134 188.823 48.5821 188.555 48.7613C188.644 48.7613 188.644 48.5821 188.555 48.5821ZM185.778 48.0447C185.509 48.0447 185.509 48.5821 185.778 48.5821C186.047 48.5821 186.047 48.0447 185.778 48.0447ZM187.301 47.2385L187.569 47.5072H187.301V47.2385ZM185.061 46.5219V46.7906H185.509V46.5219H185.061ZM189.361 45.5366C189.361 45.7157 189.182 45.7157 189.092 45.5366C189.092 45.3575 189.45 45.3575 189.361 45.5366ZM187.301 44.9992C187.569 44.9992 187.569 45.5366 187.301 45.5366C187.032 45.5366 187.032 44.9992 187.301 44.9992ZM185.778 44.4617C185.688 44.4617 185.688 44.6409 185.778 44.7304H186.584L186.315 43.6556C186.226 43.7451 185.778 44.2826 185.778 44.4617ZM188.107 43.6556V44.193L188.555 43.6556L188.375 43.3868C188.375 43.3868 188.107 43.566 188.107 43.6556ZM186.763 43.1181V43.6556C187.659 43.9243 187.48 43.2973 187.569 42.8494C187.748 42.4911 188.465 42.7598 188.823 42.4015C188.465 42.3119 188.465 41.8641 188.555 41.5954C187.928 41.7745 187.032 42.4911 186.763 43.1181ZM159.085 40.6101L158.816 40.8788H159.085V40.6101ZM159.354 39.6247V39.8935L159.533 39.6247H159.354ZM158.01 39.6247C158.1 39.4456 157.741 39.4456 157.741 39.6247C157.831 39.8039 158.01 39.8039 158.01 39.6247ZM158.01 38.8186V39.0873H158.279L158.01 38.8186ZM183.718 38.0124C183.538 38.0124 183.538 38.2811 183.718 38.2811C183.897 38.2811 183.897 38.0124 183.718 38.0124ZM158.547 37.7437C158.279 37.7437 158.279 38.2811 158.547 38.2811C158.816 38.2811 158.816 37.7437 158.547 37.7437ZM182.195 36.7584C181.926 36.7584 181.926 37.2063 182.195 37.2063C182.464 37.2063 182.464 36.7584 182.195 36.7584ZM160.876 36.221C160.876 36.3105 160.876 36.4897 160.876 36.4897C161.056 36.4001 161.235 36.221 161.145 35.9522C161.056 36.0418 160.876 36.221 160.876 36.221ZM183.18 35.6835C182.911 35.6835 182.911 36.221 183.18 36.221C183.449 36.221 183.449 35.6835 183.18 35.6835ZM180.851 34.6982C180.762 34.6086 180.762 34.9669 180.851 34.9669C181.03 34.8773 181.03 34.6982 180.851 34.6982ZM181.389 34.4295V34.6982L181.657 34.4295H181.389ZM179.687 34.1608C179.508 34.1608 179.508 34.4295 179.687 34.4295C179.687 34.3399 179.687 34.1608 179.687 34.1608ZM182.643 34.1608C182.643 34.1608 182.911 34.3399 182.911 34.4295C183.001 34.1608 182.822 34.0712 182.643 33.9816V34.1608ZM179.418 33.1754C179.866 34.1608 180.851 32.3693 180.851 32.1006C180.762 32.011 180.224 32.011 180.135 32.1006C180.045 32.1901 179.866 32.8172 179.866 32.9067C179.776 32.9963 179.508 32.9963 179.418 32.9067C179.329 32.9067 179.329 33.0859 179.418 33.1754ZM167.057 30.8465C170.55 31.2048 173.775 31.6527 176.82 29.7717C176.82 29.7717 177.179 29.4134 177.268 29.2342C177.716 28.5176 177.627 27.3532 177.537 26.7261C177.358 25.1138 176.283 24.3077 174.671 23.8598C172.611 23.3224 170.192 23.6806 168.132 23.8598C166.161 24.0389 164.818 24.2181 164.997 26.4574C165.176 28.2489 164.818 30.5778 167.057 30.8465ZM158.547 27.2636V28.3385C159.085 28.0698 158.816 27.2636 159.354 26.9949C159.174 26.9053 158.637 26.9053 158.547 27.2636ZM158.01 25.92V26.1887H158.547L158.01 25.92ZM160.876 25.4721C160.608 25.4721 160.608 25.92 160.876 25.92C161.145 25.92 161.145 25.4721 160.876 25.4721ZM182.195 24.666L182.643 25.2034C182.732 24.9347 182.732 24.4868 182.464 24.3972L182.195 24.666ZM182.464 21.3517C182.195 21.3517 182.195 21.8892 182.464 21.8892C182.643 21.8892 182.643 21.3517 182.464 21.3517ZM158.279 20.2768C158.01 20.2768 158.01 20.8143 158.279 20.8143C158.547 20.8143 158.547 20.2768 158.279 20.2768ZM159.801 20.2768V20.5456C159.981 20.6351 160.249 20.456 160.339 20.2768H159.801ZM162.578 19.2915C162.399 19.2915 162.399 19.7394 162.578 19.7394C162.847 19.7394 162.847 19.2915 162.578 19.2915ZM162.22 19.0228C162.13 18.8437 161.772 19.202 161.951 19.2915C162.041 19.3811 162.22 19.202 162.22 19.0228ZM154.427 17.1418L154.696 17.4105V17.1418H154.427ZM165.176 17.1418L165.445 17.4105V17.1418H165.176ZM159.085 16.7835C159.174 16.7835 159.443 17.1418 159.533 17.1418L160.608 16.5148C160.697 16.4252 161.324 16.246 161.414 16.246C161.683 15.9773 160.697 15.4399 161.414 14.9024H160.876C160.787 14.9024 160.608 15.1712 160.608 15.1712C160.429 15.1712 159.443 15.4399 159.354 15.4399C159.354 15.4399 159.354 15.619 159.354 15.7086C159.354 15.7086 159.533 15.8877 159.533 15.9773C159.801 16.5148 158.727 16.246 159.085 16.7835ZM156.666 16.246C156.487 16.246 156.487 16.7835 156.666 16.7835C156.935 16.7835 156.935 16.246 156.666 16.246ZM165.713 16.246C165.893 16.3356 166.251 16.6043 166.52 16.5148C166.52 16.4252 166.52 16.246 166.52 16.246C166.43 16.0669 165.803 15.5294 165.713 15.4399C165.265 15.619 165.355 15.9773 165.713 16.246ZM155.771 15.9773C155.95 16.0669 156.487 16.246 156.487 16.246C156.487 16.1565 156.935 15.7086 156.935 15.7086C157.025 15.619 157.473 15.4399 157.473 15.4399C157.562 15.3503 157.562 15.1712 157.473 15.1712H156.935C156.756 14.8129 157.831 14.0963 158.01 13.6484C158.01 13.5588 158.01 13.3797 158.01 13.3797C157.92 13.2901 157.383 13.111 157.204 13.111C157.383 13.6484 157.025 14.6337 156.308 14.365C156.129 14.1858 155.771 13.5588 155.771 13.3797C155.681 13.3797 155.681 13.2005 155.771 13.111C155.95 13.2005 156.219 13.0214 156.308 12.8422C155.95 12.3048 154.785 12.5735 154.696 12.0361C154.606 11.5882 155.054 10.155 153.89 10.6029V11.7674L153.173 12.0361V10.6029C152.994 10.6029 152.456 11.1403 152.367 11.2299V12.3048C152.456 12.9318 152.815 12.9318 153.173 13.3797C153.352 13.6484 152.725 13.9171 152.904 14.365H153.621C153.8 14.8129 153.531 15.2607 153.173 15.4399C153.263 15.4399 153.621 15.619 153.621 15.7086C153.71 15.7086 153.89 15.7086 153.89 15.7086C153.979 15.619 154.606 14.9024 154.696 14.9024C154.875 14.8129 155.592 15.2607 155.771 15.4399L155.502 15.7086C155.502 15.7086 155.681 15.8877 155.771 15.9773ZM171.356 15.9773C171.267 15.9773 171.088 16.1565 171.088 16.246H171.625V15.9773C171.625 15.8877 171.356 15.8877 171.356 15.9773ZM157.473 15.7086C157.204 15.7086 157.204 16.246 157.473 16.246C157.741 16.246 157.741 15.7086 157.473 15.7086ZM160.339 15.7086H160.608V15.9773L160.339 15.7086ZM167.057 15.4399C166.788 15.4399 166.788 15.9773 167.057 15.9773C167.326 15.9773 167.326 15.4399 167.057 15.4399ZM152.636 15.1712C152.636 15.1712 152.636 15.3503 152.636 15.4399C152.815 15.3503 152.994 15.0816 152.904 14.9024C152.815 14.9024 152.636 15.0816 152.636 15.1712ZM163.384 15.1712C163.116 15.1712 163.116 15.7086 163.384 15.7086C163.653 15.7086 163.653 15.1712 163.384 15.1712ZM171.088 15.1712V15.4399H171.356V15.1712H171.088ZM173.775 15.1712C173.596 15.0816 173.596 15.4399 173.775 15.4399C173.865 15.3503 173.865 15.1712 173.775 15.1712ZM158.816 13.3797C158.816 13.5588 158.637 14.1858 158.547 14.365L159.533 13.6484L159.801 13.3797C159.891 13.2901 160.249 13.111 160.339 13.111C160.339 13.111 160.787 13.3797 160.876 13.3797H161.414C161.593 12.7527 160.966 12.0361 160.608 11.4986C160.429 11.6778 159.443 12.2152 159.354 12.3048C158.906 12.4839 158.637 12.2152 158.279 12.0361C158.01 11.9465 157.383 11.9465 157.204 11.4986L156.666 12.5735C157.204 12.4839 158.816 12.9318 158.816 13.3797ZM155.502 13.6484C155.771 13.6484 155.771 14.0963 155.502 14.0963C155.233 14.0963 155.233 13.6484 155.502 13.6484ZM153.89 12.8422H154.158V13.3797H153.89V12.8422ZM160.608 12.3048C160.787 12.3944 160.787 12.5735 160.608 12.5735C160.429 12.6631 160.429 12.3048 160.608 12.3048ZM154.158 12.0361C154.427 12.0361 154.427 12.5735 154.158 12.5735C153.89 12.5735 153.89 12.0361 154.158 12.0361ZM160.07 12.0361C160.339 12.0361 160.339 12.5735 160.07 12.5735C159.801 12.5735 159.801 12.0361 160.07 12.0361ZM156.308 10.782C156.219 10.8716 156.219 11.2299 156.308 11.2299C156.308 11.2299 156.935 10.8716 156.666 10.6029C156.487 10.4238 156.308 10.6029 156.308 10.782ZM160.07 10.9612C159.801 10.9612 159.801 11.4986 160.07 11.4986C160.339 11.4986 160.339 10.9612 160.07 10.9612ZM157.204 10.782V10.9612H157.473V10.782H157.204Z" fill="#245BC6"/>
<path d="M101.94 36.2218C101.94 17.2322 109.375 3.34827 119.407 3.34827C129.35 3.34827 137.68 17.2322 137.68 36.2218C137.68 55.301 129.35 69.991 119.407 69.991C109.375 69.991 101.94 55.301 101.94 36.2218ZM107.315 36.2218C107.315 54.2261 111.256 68.1996 119.407 68.1996C127.558 68.1996 132.306 54.2261 132.306 36.2218C132.306 18.2175 127.558 5.13974 119.407 5.13974C111.256 5.13974 107.315 18.2175 107.315 36.2218Z" fill="#245BC6"/>
<path d="M39.1396 67.6616V4.96008H49.7989V30.7573H78.7312V4.96008H89.3904V67.6616H78.7312V40.8791H49.7989V67.6616H39.1396Z" fill="#245BC6"/>
</g>
<defs>
<clipPath id="clip0_283_5446">
<rect width="497" height="74" fill="white"/>
</clipPath>
</defs>
</svg>
