<svg width="496" height="74" viewBox="0 0 496 74" fill="none" xmlns="http://www.w3.org/2000/svg">
<g clip-path="url(#clip0_283_5512)">
<path d="M441.15 71.185C440.613 71.0954 440.165 70.8267 439.717 70.3788C439.269 70.0205 435.955 67.3333 435.507 67.0646C433.358 65.3627 431.656 64.467 429.864 62.4068C428.61 60.884 428.7 58.1073 428.431 56.2262C428.073 54.2556 426.908 52.3745 426.55 50.3143C426.371 49.5978 425.923 46.6418 425.833 46.2835C425.117 41.8944 426.102 37.6845 426.55 33.3849C426.55 33.1162 426.729 31.056 426.819 30.8769C426.908 29.7124 427.714 24.5171 427.894 23.3527C428.162 21.3821 428.789 20.0385 430.402 18.6949L435.239 15.3806C436.134 14.7536 442.763 9.55836 443.479 8.93134C444.017 8.57305 444.733 8.21476 445.36 7.94603C446.794 7.94603 453.87 7.76689 455.303 7.67731C456.557 7.67731 457.363 7.58774 458.438 7.94603C458.707 8.12518 461.752 9.28964 462.827 9.7375C465.515 10.902 466.858 13.6787 468.47 15.9181L469.993 17.9783C471.964 20.7551 471.606 23.8901 472.322 27.2044C472.412 27.9209 474.203 33.4745 474.382 34.1911C475.368 37.774 474.83 40.8195 474.382 44.4025L473.845 50.5831C473.666 52.0162 472.77 58.0177 472.501 59.3613C472.412 60.0779 472.053 60.7049 471.605 61.1528C470.531 62.1381 466.679 66.1689 465.873 66.7959C464.887 67.7812 461.932 70.2893 461.752 70.3788L460.767 70.9163C460.588 71.0058 455.841 71.3641 454.049 71.4537H446.435C445.629 71.4537 441.957 71.2746 441.15 71.185ZM455.572 67.0646C455.572 67.0646 455.751 67.2438 455.841 67.3333C456.288 67.5125 456.288 66.6167 456.378 66.6167H456.647C456.736 66.5272 456.915 66.348 456.915 66.348C455.751 65.9897 454.945 63.9295 453.512 65.5419C454.228 66.2584 455.303 65.9002 455.572 66.348C455.661 66.4376 455.572 66.975 455.572 67.0646ZM456.915 67.0646C456.647 67.0646 456.647 67.6021 456.915 67.6021C457.184 67.6021 457.184 67.0646 456.915 67.0646ZM452.258 66.7959C452.078 66.7959 452.078 67.3333 452.258 67.3333C452.526 67.3333 452.526 66.7959 452.258 66.7959ZM453.332 66.348V66.7959L453.78 66.6167C453.691 66.4376 453.512 66.2584 453.332 66.348ZM459.513 66.348C459.424 66.348 459.424 66.5272 459.513 66.6167C459.871 66.7063 460.857 66.1689 460.946 65.8106C460.767 65.8106 459.692 65.8106 459.513 66.348ZM452.078 65.8106V66.348C452.705 66.7063 452.974 65.2731 453.064 65.0044H452.526C452.258 64.6461 452.974 64.6461 452.795 64.1983C452.078 63.7504 452.168 65.3627 451.272 65.0044C451.451 65.094 451.989 65.6314 452.078 65.8106ZM457.99 65.5419C457.901 65.6314 457.722 66.1689 457.722 66.348C458.08 66.6167 458.886 65.721 458.976 65.2731C458.617 65.1836 458.08 65.2731 457.99 65.5419ZM449.66 65.5419L449.929 66.0793V65.5419H449.66ZM451.81 66.0793C451.81 65.9002 451.451 65.9002 451.541 66.0793C451.541 66.2585 451.72 66.2585 451.81 66.0793ZM459.513 65.2731C459.244 65.2731 459.244 65.8106 459.513 65.8106C459.692 65.8106 459.692 65.2731 459.513 65.2731ZM456.647 65.0044C456.378 65.0044 456.378 65.5419 456.647 65.5419C456.915 65.5419 456.915 65.0044 456.647 65.0044ZM457.453 63.9295C457.453 64.1087 457.632 64.8253 457.722 65.0044C458.349 65.3627 458.886 63.2129 458.707 62.6755C458.617 62.5859 458.259 62.4068 458.169 62.4068C457.99 62.9442 457.811 63.4817 457.184 63.2129C457.184 63.3921 457.363 63.84 457.453 63.9295ZM459.961 64.7357C460.857 65.2731 462.29 65.094 462.559 63.9295C462.648 63.3921 461.752 63.3921 461.484 62.9442C461.484 63.2129 461.125 63.84 460.946 63.9295C460.857 64.0191 460.409 64.0191 460.23 63.9295V63.7504C460.051 63.4817 459.334 64.2878 459.961 64.7357ZM456.109 64.1983C456.288 65.2731 457.095 64.5565 456.915 64.1983H456.109ZM455.303 63.7504C455.303 63.7504 455.482 63.9295 455.572 63.9295C455.93 63.7504 455.93 63.3921 455.572 63.2129C455.482 63.3025 455.303 63.6608 455.303 63.7504ZM454.587 63.2129C454.318 63.2129 454.318 63.7504 454.587 63.7504C454.855 63.7504 454.855 63.2129 454.587 63.2129ZM455.841 62.6755L456.109 62.9442V62.6755H455.841ZM462.021 62.4068C461.842 62.4068 461.842 62.7651 462.021 62.6755C462.2 62.6755 462.2 62.4964 462.021 62.4068ZM463.365 62.4068C463.096 62.4068 463.096 62.9442 463.365 62.9442C463.633 62.9442 463.633 62.4068 463.365 62.4068ZM459.692 62.4068C459.782 62.3172 459.424 62.3172 459.513 62.4068C459.513 62.5859 459.692 62.5859 459.692 62.4068ZM460.946 62.1381C460.767 62.1381 460.767 62.6755 460.946 62.6755C461.215 62.6755 461.215 62.1381 460.946 62.1381ZM458.707 61.6902V61.9589C458.976 61.9589 459.334 61.9589 459.513 61.6902H458.707ZM460.23 61.6902C460.319 61.6902 460.319 61.8693 460.23 61.9589C460.857 61.6006 460.409 60.7945 460.23 60.4362C460.23 60.4362 460.051 60.4362 459.961 60.4362C459.244 60.7945 460.051 61.3319 460.23 61.6902ZM462.29 61.4215C462.021 61.4215 462.021 61.9589 462.29 61.9589C462.559 61.9589 462.559 61.4215 462.29 61.4215ZM460.946 60.4362V61.4215H461.215L462.021 59.8987C461.842 59.8091 461.036 60.257 460.946 60.4362ZM463.365 60.884V61.1528L463.633 60.884H463.365ZM461.484 59.3613C461.215 59.3613 461.215 59.8987 461.484 59.8987C461.752 59.8987 461.752 59.3613 461.484 59.3613ZM461.215 58.8238C460.946 58.8238 460.946 59.3613 461.215 59.3613C461.484 59.3613 461.484 58.8238 461.215 58.8238ZM461.484 58.2864L462.021 59.0926C462.738 58.8238 461.932 57.8385 461.484 58.0177C461.484 58.1073 461.484 58.2864 461.484 58.2864ZM463.813 58.8238C463.813 58.6447 463.454 59.003 463.633 59.0926C463.813 59.1821 463.902 59.003 463.813 58.8238ZM448.943 58.5551C449.212 58.6447 450.824 58.8238 451.272 58.8238C451.989 58.9134 452.974 58.8238 453.512 58.2864C453.87 58.0177 455.482 56.4053 455.841 55.9575C457.811 53.9869 457.901 50.9414 458.169 48.3437C458.349 46.9105 458.438 45.5669 458.438 44.1338C458.349 43.4172 458.169 36.52 458.169 35.7138C458.08 34.1911 458.08 26.9356 458.169 25.4129C457.722 21.7404 456.557 20.3072 453.064 19.2323C451.899 18.9636 451.451 18.874 450.197 19.2323L447.152 20.3072C446.256 20.5759 445.45 21.1134 445.092 22.0987C442.494 29.3541 442.046 36.6992 441.688 44.4025V49.5978C441.688 49.5978 442.136 51.1205 442.225 51.6579C442.405 52.285 442.763 53.1807 443.3 53.7181L447.6 58.0177C447.689 58.0177 448.048 58.2864 448.137 58.2864C448.316 58.376 448.854 58.5551 448.943 58.5551ZM437.12 57.3011C436.851 57.3011 436.851 57.8385 437.12 57.8385C437.388 57.8385 437.388 57.3011 437.12 57.3011ZM438.105 56.2262C438.015 56.1366 437.657 56.4949 437.836 56.4949C438.015 56.5845 438.195 56.4054 438.105 56.2262ZM435.239 54.5243V55.7783C436.224 55.5096 435.687 54.5243 435.776 53.9869C435.866 53.8973 436.314 53.539 436.314 53.4494V53.1807C436.403 53.0911 436.582 52.912 436.582 52.912L436.314 52.6433C435.597 53.0911 435.328 53.6286 435.239 54.5243ZM434.074 55.0618C433.805 55.0618 433.805 55.5096 434.074 55.5096C434.343 55.5096 434.343 55.0618 434.074 55.0618ZM433.268 54.2556C433.805 55.2409 434.432 53.2703 434.343 52.912C433.895 52.7328 433.089 53.8973 433.268 54.2556ZM434.791 53.9869L434.343 54.2556C434.522 54.3452 434.791 54.166 434.791 53.9869ZM434.97 52.3745C435.059 52.1954 434.791 52.1954 434.791 52.3745C434.791 52.5537 434.97 52.5537 434.97 52.3745ZM434.074 51.6579V51.9267C435.059 52.1954 435.328 50.2248 433.805 50.5831V51.6579H434.074ZM431.924 51.1205C432.104 51.2997 432.82 51.6579 432.999 51.6579V50.8518C432.999 50.8518 433.268 50.4039 433.268 50.3143C433.537 48.8812 432.193 49.2395 432.462 49.7769C432.014 49.8665 431.566 49.8665 431.208 49.5978C431.029 49.5978 430.85 49.9561 430.939 50.0456C431.029 50.1352 431.656 50.5831 431.745 50.5831C431.745 50.6726 431.924 51.1205 431.924 51.1205ZM436.045 51.3892C435.776 51.3892 435.776 51.9267 436.045 51.9267C436.314 51.9267 436.314 51.3892 436.045 51.3892ZM435.776 50.8518C436.045 51.1205 436.493 51.2101 436.851 51.1205C437.12 50.6726 436.672 50.2248 436.314 50.0456L435.776 50.5831C435.776 50.6726 435.776 50.8518 435.776 50.8518ZM432.731 50.3143C432.999 50.3143 432.999 50.8518 432.731 50.8518C432.462 50.8518 432.462 50.3143 432.731 50.3143ZM464.619 50.0456C464.44 50.0456 464.44 50.4039 464.619 50.3143C464.708 50.3143 464.708 50.1352 464.619 50.0456ZM466.679 50.3143C466.679 50.2248 466.41 50.2248 466.41 50.3143C466.5 50.4935 466.679 50.4935 466.679 50.3143ZM465.425 49.7769C465.425 49.8665 465.783 50.0456 465.873 50.0456C465.962 50.1352 466.142 50.1352 466.142 50.0456C465.962 49.7769 465.694 49.6873 465.425 49.5978C465.335 49.5978 465.335 49.7769 465.425 49.7769ZM434.612 49.1499C434.432 49.1499 434.074 49.4186 434.074 49.5978C434.701 49.6873 435.507 49.329 435.776 48.8812C435.597 48.8812 434.791 49.0603 434.612 49.1499ZM467.664 49.329C467.664 49.329 467.485 49.5082 467.396 49.5978C467.664 49.6873 467.843 49.4186 467.933 49.329C467.933 49.2395 467.754 49.2395 467.664 49.329ZM430.939 48.075L431.477 49.1499H431.924C432.283 48.9707 433.985 48.4333 434.343 48.3437C434.432 47.448 435.418 47.1793 434.97 46.2835C435.866 46.0148 435.776 46.821 436.045 47.2688C436.403 47.8063 436.941 45.9252 435.776 45.7461V43.8651L436.314 43.5068C434.791 42.4319 435.239 44.4025 434.97 44.9399C434.97 45.0295 433.358 45.7461 433.805 46.2835H434.343C434.522 47.1793 433.716 47.6271 432.999 47.0001L433.268 46.7314C432.91 46.4627 432.551 46.194 432.462 45.7461C432.372 45.8357 432.014 46.0148 431.924 46.0148C431.924 46.0148 431.566 46.0148 431.477 46.0148C430.85 46.4627 430.76 47.3584 430.939 48.075ZM431.924 48.3437H432.193C432.283 48.5229 432.104 48.7916 431.924 48.8812V48.3437ZM465.694 48.6125C465.425 48.6125 465.425 49.1499 465.694 49.1499C465.873 49.1499 465.873 48.6125 465.694 48.6125ZM436.314 48.3437C436.314 48.3437 436.582 48.5229 436.582 48.6125C437.12 48.3437 436.761 47.5376 436.314 47.8063V48.3437ZM467.664 48.075C467.396 48.075 467.396 48.6125 467.664 48.6125C467.933 48.6125 467.933 48.075 467.664 48.075ZM466.142 47.8063C466.142 47.8063 466.142 47.9854 466.142 48.075H466.41V47.5376C466.41 47.5376 466.231 47.7167 466.142 47.8063ZM466.858 47.8063C466.858 47.8063 466.858 47.9854 466.858 48.075L467.664 47.8063C467.664 47.1793 466.858 47.8063 466.858 47.8063ZM465.425 47.2688C465.335 47.3584 465.335 47.7167 465.425 47.8063L466.142 47.0001C466.142 47.0001 465.962 47.0001 465.873 47.0001C465.783 47.0001 465.425 47.2688 465.425 47.2688ZM432.193 46.4627C432.372 46.5523 432.372 47.1793 432.193 47.2688C432.014 47.3584 432.014 46.3731 432.193 46.4627ZM465.425 46.4627C465.425 46.5523 465.604 46.7314 465.694 46.7314C465.962 46.4627 466.321 46.194 466.41 45.7461C466.321 45.7461 465.156 46.0148 465.425 46.4627ZM429.864 45.2086V46.4627C429.954 46.4627 430.133 46.4627 430.133 46.4627C430.67 46.2835 430.491 45.6565 430.402 45.2086H429.864ZM467.396 46.0148V46.2835H467.664L467.396 46.0148ZM467.127 44.9399C467.127 44.9399 467.664 45.6565 467.933 45.4774C468.023 45.3878 468.023 45.0295 467.933 44.9399C467.843 44.8504 467.306 44.6712 467.127 44.6712C467.127 44.7608 467.127 44.9399 467.127 44.9399ZM433.537 44.6712V45.2086H434.074V44.6712H433.537ZM465.425 44.6712C465.335 44.7608 465.335 44.9399 465.425 44.9399C465.694 45.3878 465.962 44.2233 465.873 43.8651H465.694C465.604 43.9546 465.425 44.4921 465.425 44.6712ZM433.268 44.4025C433.178 44.3129 432.82 44.5816 432.999 44.6712C433.089 44.7608 433.358 44.5816 433.268 44.4025ZM466.41 44.4025C466.321 44.4025 466.321 44.7608 466.41 44.6712C466.589 44.6712 466.589 44.4921 466.41 44.4025ZM431.477 44.1338C432.193 44.2233 432.014 44.5816 432.731 44.4025V43.8651C433.268 43.7755 434.074 44.5816 434.343 43.8651C434.522 43.3276 434.343 42.9693 434.791 42.7006C434.791 42.611 435.239 42.4319 435.239 42.4319C435.328 42.3423 434.97 41.7153 434.97 41.6257C434.97 41.5361 435.239 41.1778 435.239 41.0883C435.239 40.9987 435.059 40.6404 434.97 40.5508C434.701 40.0134 434.432 38.9385 434.074 38.4906C433.805 38.2219 433.089 38.7593 433.268 39.2968C433.268 39.4759 433.537 39.6551 433.805 39.5655C433.895 39.6551 432.82 40.5508 432.731 40.8195C432.641 40.3717 431.029 39.7447 430.939 39.8342V40.3717H430.67V41.8944C431.656 42.0736 432.551 41.4466 433.805 41.6257C433.895 42.2527 433.716 42.8797 433.537 43.5068H432.999C432.91 43.4172 432.82 42.7006 432.731 42.7006C432.641 42.611 432.104 42.611 431.924 42.7006C431.924 42.7006 431.566 43.1485 431.477 43.238C431.029 43.4172 430.043 42.7902 429.864 42.7006V43.5068H429.058C429.685 44.2233 430.581 44.0442 431.477 44.1338ZM466.858 44.1338C466.769 44.1338 466.769 44.4921 466.858 44.4025C467.037 44.4025 467.037 44.2233 466.858 44.1338ZM468.47 43.5068C468.202 43.5068 468.202 43.8651 468.47 43.8651C468.739 43.8651 468.739 43.5068 468.47 43.5068ZM465.425 42.9693C465.783 44.1338 466.679 42.7902 466.679 42.1631C466.321 42.3423 465.246 42.4319 465.425 42.9693ZM432.193 42.9693C432.462 42.9693 432.462 43.5068 432.193 43.5068C431.924 43.5068 431.924 42.9693 432.193 42.9693ZM435.239 42.7006C434.97 42.7006 434.97 43.238 435.239 43.238C435.507 43.238 435.507 42.7006 435.239 42.7006ZM436.582 41.8944V42.1631L437.12 41.8944H436.582ZM429.864 41.6257C429.596 41.6257 429.596 42.1631 429.864 42.1631C430.133 42.1631 430.133 41.6257 429.864 41.6257ZM465.425 41.6257V41.8944L465.694 41.6257H465.425ZM429.595 41.357C429.327 41.357 429.327 41.8944 429.595 41.8944C429.864 41.8944 429.864 41.357 429.595 41.357ZM430.939 41.357C431.208 41.357 431.208 41.8944 430.939 41.8944C430.67 41.8944 430.67 41.357 430.939 41.357ZM433.805 41.0883L433.268 40.5508C433.626 39.9238 434.791 40.6404 434.612 41.357C434.343 41.4466 433.895 41.1778 433.805 41.0883ZM466.142 40.5508C465.873 40.5508 465.873 41.0883 466.142 41.0883C466.41 41.0883 466.41 40.5508 466.142 40.5508ZM432.999 39.8342C432.999 39.6551 432.641 39.6551 432.731 39.8342C432.731 40.0134 432.91 40.0134 432.999 39.8342ZM435.239 39.0281C435.507 39.3864 435.866 39.3864 436.045 39.0281H435.239ZM431.208 38.7594C431.387 38.9385 432.014 39.1176 432.193 39.0281V37.5053C432.193 37.4157 431.745 36.6096 431.745 36.52C431.745 36.4304 431.924 35.9826 431.924 35.9826V35.1764C431.924 35.0868 432.551 34.8181 432.731 34.7285L434.791 33.6536H434.97L435.776 34.1911C434.522 34.7285 432.283 34.9973 432.731 37.0575C432.82 36.9679 433.358 36.7887 433.537 36.7887C433.537 36.6992 433.716 36.52 433.805 36.52C433.805 36.4304 434.253 36.52 434.343 36.52L434.97 35.7138C435.059 35.7138 435.239 35.7138 435.239 35.7138C435.328 35.6243 435.507 34.9973 435.507 34.9077C435.597 34.8181 436.314 34.2807 436.314 34.1911V33.9224C436.403 33.8328 436.582 33.6536 436.582 33.6536C437.12 33.4745 437.747 34.1015 437.657 34.7285C437.747 34.8181 438.105 34.639 438.105 34.4598C438.195 34.1015 438.195 33.2058 438.105 33.1162C437.926 32.9371 437.12 32.5788 436.851 32.5788C437.03 32.1309 437.299 32.4892 437.657 32.3101C438.463 31.8622 438.463 30.6082 438.374 29.802H437.836C438.374 30.3394 437.12 31.1456 436.045 29.802C436.224 29.175 437.568 29.2646 437.388 30.0707C437.478 29.9811 437.657 29.6228 437.657 29.5333C437.657 29.4437 437.657 29.2645 437.657 29.2645C438.374 27.6522 439.449 28.1001 439.18 25.6816C439.18 25.6816 439.359 25.6816 439.449 25.6816C439.449 25.7712 439.896 26.0399 439.986 25.9503C440.523 25.6816 440.882 24.0693 440.971 23.6214C440.523 23.8006 439.896 23.6214 439.717 23.1735L441.419 22.0987C441.419 22.0091 441.24 21.8299 441.15 21.8299C441.061 21.8299 440.255 21.6508 440.255 21.5612C440.165 21.4716 440.255 20.8446 440.255 20.7551C440.165 20.7551 439.717 20.5759 439.717 20.4863C438.911 20.0385 439.986 19.3219 440.523 18.9636C440.523 18.9636 440.882 18.9636 440.971 18.9636C440.882 19.2323 441.598 21.2925 441.688 21.2925C442.584 21.2029 441.688 19.0532 441.688 18.9636C441.778 18.9636 441.957 18.7844 441.957 18.6949C441.957 18.6053 441.778 18.247 441.688 18.247C441.061 18.4261 440.344 18.3366 439.717 18.6949C438.822 19.3219 439.09 20.3968 438.105 21.0238C437.836 20.7551 437.747 20.3072 437.836 20.0385C437.209 20.0385 437.12 20.9342 437.12 21.2925H436.582V20.7551C436.493 20.6655 435.955 20.6655 435.776 20.7551C435.239 21.2029 435.686 22.9048 434.612 22.0987C434.522 22.0987 434.343 21.8299 434.343 21.8299C434.074 21.7404 433.626 21.7404 433.537 22.0987L433.268 21.8299C433.178 21.8299 432.999 22.0091 432.999 22.0987C432.91 22.1882 432.731 22.5465 432.731 22.6361H432.462C432.372 22.6361 432.193 22.8153 432.193 22.9048L432.731 23.3527C432.283 23.3527 431.835 23.9797 431.745 24.4276C431.745 24.6067 431.924 25.3233 431.924 25.4129C432.014 25.592 432.82 25.7712 432.999 25.6816C432.82 26.3086 432.014 26.3086 431.745 25.9503V26.3982C432.283 26.1295 432.104 27.2939 432.462 27.4731C432.641 27.5627 433.358 27.7418 433.537 27.7418C433.447 28.1001 433.626 29.175 434.343 28.8167V28.9958C433.626 29.175 432.91 28.9063 432.462 28.548C432.372 28.548 432.193 28.7271 432.193 28.8167C431.477 29.8916 432.91 29.2646 433.537 29.802C432.82 29.9811 432.104 30.6977 431.924 31.3247C432.104 31.2352 432.82 30.8769 432.999 30.8769C432.999 30.7873 433.178 30.7873 433.268 30.8769C433.358 30.9664 433.358 31.5039 433.268 31.5935C433.178 31.683 432.551 31.8622 432.462 31.8622C432.283 31.9518 431.924 32.6683 431.924 32.8475V32.5788C431.656 32.9371 430.85 32.6684 430.67 33.1162C430.67 33.2058 430.85 33.3849 430.939 33.3849C431.118 33.4745 432.014 33.6536 432.193 33.6536C432.551 34.7285 431.387 34.2807 430.939 34.7285V35.4451C430.939 35.4451 430.67 35.6243 430.67 35.7138C430.67 35.7138 430.67 35.893 430.67 35.9826C430.76 36.2513 430.939 36.6096 431.208 36.7887C430.581 37.0575 431.118 37.4157 431.208 37.6845C431.208 37.8636 431.118 38.6698 431.208 38.7594ZM433.537 37.5053C433.447 37.6845 433.268 38.1323 433.268 38.2219H434.97C435.239 37.8636 435.597 37.6845 436.045 37.5053C436.045 37.5053 435.328 37.0575 435.507 36.7887C434.88 36.52 434.522 37.3262 434.074 37.5053C433.985 37.5949 433.537 37.5053 433.537 37.5053ZM432.999 37.6845C432.731 37.6845 432.731 38.2219 432.999 38.2219C433.268 38.2219 433.268 37.6845 432.999 37.6845ZM436.045 36.52C435.776 36.52 435.776 37.0575 436.045 37.0575C436.314 37.0575 436.314 36.52 436.045 36.52ZM435.776 36.2513C435.866 36.0721 435.507 36.0721 435.507 36.2513C435.597 36.3409 435.776 36.3409 435.776 36.2513ZM433.805 35.4451C433.805 35.6243 433.626 35.8034 433.537 35.7138C433.358 35.6243 433.716 35.266 433.805 35.4451ZM434.074 35.4451C434.343 35.4451 434.343 35.9826 434.074 35.9826C433.805 35.9826 433.805 35.4451 434.074 35.4451ZM434.791 35.1764C434.791 35.3556 434.701 35.5347 434.612 35.4451C434.432 35.3556 434.791 34.9973 434.791 35.1764ZM436.851 34.9077C436.851 34.9077 436.672 35.0868 436.582 35.1764H437.12V34.9077C437.12 34.9077 436.941 34.9077 436.851 34.9077ZM434.612 34.9077C434.522 35.0868 434.343 35.0868 434.343 34.9077C434.253 34.8181 434.612 34.8181 434.612 34.9077ZM436.851 33.9224C436.582 33.9224 436.582 34.4598 436.851 34.4598C437.12 34.4598 437.12 33.9224 436.851 33.9224ZM433.537 32.8475C433.537 32.7579 433.716 32.3996 433.805 32.3101V33.1162H433.537C433.537 33.1162 433.537 32.9371 433.537 32.8475ZM434.612 32.5788C434.522 32.7579 434.343 32.7579 434.343 32.5788C434.253 32.3996 434.612 32.3996 434.612 32.5788ZM434.97 32.3101C435.059 32.3101 435.239 31.8622 435.239 31.8622C435.239 31.683 433.716 29.8916 434.612 29.2645C435.328 29.5333 437.299 31.683 436.582 32.3101C436.582 32.3996 436.403 32.3996 436.314 32.3101C436.314 32.3101 435.866 32.0413 435.776 32.0413C435.776 32.1309 435.328 32.5788 435.239 32.5788C435.239 32.6683 435.059 32.6683 434.97 32.5788C434.97 32.5788 434.97 32.3996 434.97 32.3101ZM437.657 31.5935C437.836 31.5935 437.836 32.0413 437.657 32.0413C437.388 32.0413 437.388 31.5935 437.657 31.5935ZM430.402 31.1456C430.402 31.8622 431.118 31.5935 431.477 31.3247C431.477 30.6082 430.402 30.6082 430.402 31.1456ZM434.343 31.1456C434.612 31.1456 434.612 31.5935 434.343 31.5935C434.074 31.5935 434.074 31.1456 434.343 31.1456ZM435.239 31.1456C434.97 31.1456 434.97 31.5935 435.239 31.5935C435.507 31.5935 435.507 31.1456 435.239 31.1456ZM437.657 31.1456C437.747 31.1456 437.747 31.3247 437.657 31.3247C437.478 31.4143 437.478 31.056 437.657 31.1456ZM431.477 30.0707C431.477 30.0707 431.656 30.2499 431.745 30.3394V29.802H431.477C431.477 29.802 431.477 29.9811 431.477 30.0707ZM434.97 28.2792C434.97 28.2792 434.522 27.4731 434.97 27.4731C435.149 27.5627 435.418 27.8314 435.239 28.0105C435.776 28.1897 436.224 27.2939 436.582 28.0105C436.761 28.3688 436.314 28.4584 436.045 28.548C436.045 28.548 435.866 28.548 435.776 28.548C435.597 28.4584 435.059 28.2792 434.97 28.2792ZM437.657 28.0105C437.836 28.0105 437.836 28.548 437.657 28.548C437.388 28.548 437.388 28.0105 437.657 28.0105ZM434.97 26.6669C434.97 26.5773 434.701 26.219 434.612 26.1295C434.701 25.7712 435.328 25.9503 435.507 25.9503C435.687 26.2191 435.328 26.7565 434.97 26.9356C435.059 26.9356 435.059 26.7565 434.97 26.6669ZM433.268 25.6816C433.537 25.6816 433.537 26.1295 433.268 26.1295C432.999 26.1295 432.999 25.6816 433.268 25.6816ZM438.642 25.1442C438.911 25.1442 438.911 25.6816 438.642 25.6816C438.374 25.6816 438.374 25.1442 438.642 25.1442ZM439.986 24.965C440.076 24.965 440.076 25.1442 439.986 25.1442C439.807 25.2337 439.807 24.8754 439.986 24.965ZM433.537 24.4276C433.447 24.338 433.447 23.9797 433.537 23.8901H433.805V24.6963C433.716 24.6067 433.537 24.4276 433.537 24.4276ZM438.911 23.8901H439.449V24.1589C439.18 24.2484 439.001 24.0693 438.911 23.8901ZM433.268 23.1735C433.447 23.1735 433.447 23.2631 433.268 23.3527C433.089 23.3527 433.089 23.084 433.268 23.1735ZM433.805 23.1735L434.074 22.9048L434.343 23.1735L434.074 23.3527L433.805 23.1735ZM438.642 21.8299C438.911 21.7404 439.359 21.7404 439.449 22.0987H438.642V21.8299ZM440.703 20.0385V20.7551C441.061 20.5759 441.061 20.2176 440.703 20.0385ZM435.776 20.3072C435.776 20.2176 435.418 20.3968 435.507 20.4863C435.687 20.5759 435.866 20.3968 435.776 20.3072ZM435.507 19.7698C435.239 19.7698 435.239 20.3072 435.507 20.3072C435.776 20.3072 435.776 19.7698 435.507 19.7698ZM437.12 19.7698C437.03 19.6802 436.672 19.9489 436.851 20.0385C437.03 20.128 437.209 19.9489 437.12 19.7698ZM440.523 19.501C440.344 19.501 440.344 19.8593 440.523 19.7698C440.613 19.7698 440.613 19.5906 440.523 19.501ZM438.911 19.2323C438.642 19.2323 438.642 19.7698 438.911 19.7698C439.18 19.7698 439.18 19.2323 438.911 19.2323ZM442.225 18.6949C441.957 18.6949 441.957 19.2323 442.225 19.2323C442.494 19.2323 442.494 18.6949 442.225 18.6949ZM438.642 18.247C438.374 18.247 438.374 18.6949 438.642 18.6949C438.911 18.6949 438.911 18.247 438.642 18.247ZM463.096 16.4555C462.827 16.4555 462.827 16.993 463.096 16.993C463.365 16.993 463.365 16.4555 463.096 16.4555ZM458.707 16.1868L458.438 16.4555H459.692C459.155 16.2764 458.976 15.8285 458.438 15.6494C458.259 15.8285 458.528 16.0972 458.707 16.1868ZM462.29 15.6494C462.111 15.6494 462.111 15.9181 462.29 15.9181C462.469 15.9181 462.469 15.6494 462.29 15.6494ZM461.484 15.3806C461.215 15.3806 461.215 15.9181 461.484 15.9181C461.752 15.9181 461.752 15.3806 461.484 15.3806ZM447.331 15.1119C447.152 15.1119 447.152 15.6494 447.331 15.6494C447.6 15.6494 447.6 15.1119 447.331 15.1119ZM446.883 14.8432C446.704 14.8432 446.704 15.2015 446.883 15.1119C446.973 15.1119 446.973 14.9328 446.883 14.8432ZM459.692 14.3953V14.8432C460.319 15.1119 460.588 14.037 459.961 13.8579C459.961 13.9475 459.782 14.3058 459.692 14.3953ZM451.81 14.3953C451.81 14.4849 451.81 14.5745 451.81 14.5745H452.078V14.1266C451.989 14.2162 451.81 14.3953 451.81 14.3953ZM456.647 13.8579C456.557 13.9475 456.378 14.3058 456.378 14.3953H456.915V13.8579C456.826 13.8579 456.647 13.8579 456.647 13.8579ZM454.587 13.8579L455.124 14.1266L455.303 12.5143C454.945 12.0664 454.945 13.7683 454.587 13.8579ZM449.929 13.5892C449.66 13.5892 449.66 14.1266 449.929 14.1266C450.197 14.1266 450.197 13.5892 449.929 13.5892ZM453.512 12.3351V12.5143L454.049 12.3351H453.512ZM454.318 12.3351C454.049 12.3351 454.049 12.783 454.318 12.783C454.587 12.783 454.587 12.3351 454.318 12.3351Z" fill="#245BC6"/>
<path d="M395.236 68.6772H373.201V67.7815C377.411 67.6023 381.532 68.1398 381.532 63.7507V12.425C381.442 7.22976 378.038 7.22976 373.291 7.14018V6.0653H403.119C406.702 6.0653 406.523 4.72169 406.791 1.40747H407.418L411.18 21.0241H410.285C409.21 16.2767 407.508 8.03592 403.119 8.03592L387.802 8.12549C387.443 8.12549 387.264 8.21507 387.085 8.39422C386.906 8.66294 386.906 8.93166 386.906 9.28995V63.7507C386.906 68.1398 391.026 67.6023 395.236 67.7815V68.6772Z" fill="#245BC6"/>
<path d="M326.517 69.5721C309.677 69.5721 294.629 56.8526 294.629 37.3256C294.629 17.9777 309.677 5.0791 326.517 5.0791C343.267 5.0791 358.405 17.9777 358.405 37.3256C358.405 56.8526 343.267 69.5721 326.517 69.5721ZM305.646 37.3256C305.646 50.7616 315.41 59.092 326.517 59.092C337.535 59.092 347.388 50.7616 347.388 37.3256C347.388 24.0687 337.535 15.5592 326.517 15.5592C315.41 15.5592 305.646 24.0687 305.646 37.3256Z" fill="#245BC6"/>
<path d="M251.646 68.8559V67.9602C255.856 67.7811 259.977 68.4977 259.977 64.1086V10.9018C259.977 6.51272 255.856 7.05017 251.646 6.87101V5.97528H267.77C277.892 5.79613 284.162 11.3497 284.162 19.5905C284.162 26.3085 280.489 31.0559 274.219 32.8474C284.52 34.6388 290.611 42.0734 290.611 51.4787C290.611 63.0337 282.46 69.0351 268.934 68.8559C266.426 68.7664 265.172 68.7664 265.172 68.7664L251.646 68.8559ZM279.414 19.8592C279.414 14.0369 276.996 7.13974 267.053 7.13974H265.351V32.4891C265.799 32.4891 266.964 32.4891 268.934 32.4891C277.354 31.6829 279.414 25.771 279.414 19.8592ZM285.416 50.7621C285.416 43.1483 282.102 34.0118 268.845 34.0118H265.351V67.3332H267.949C281.206 67.3332 285.416 59.182 285.416 50.7621Z" fill="#245BC6"/>
<path d="M239.631 17.9791C241.303 19.4123 242.707 21.0843 243.841 22.9952C245.036 24.9061 245.424 26.9962 245.006 29.2654C244.767 30.6985 244.23 32.072 243.394 33.3857C242.557 34.6995 241.542 35.9237 240.348 37.0583C239.213 38.1929 237.989 39.2379 236.675 40.1933C235.362 41.1488 234.108 41.9848 232.913 42.7014C230.286 44.3734 227.509 45.8663 224.583 47.1801C222.493 48.1952 220.343 49.1507 218.134 50.0464C215.924 50.9422 213.715 51.7782 211.505 52.5545C205.534 54.6446 199.443 56.2867 193.232 57.481C187.082 58.6754 180.841 59.4218 174.511 59.7204C172.541 59.8398 170.391 59.8995 168.062 59.8995C165.793 59.8995 163.494 59.81 161.165 59.6308C158.836 59.4517 156.537 59.1531 154.268 58.7351C152.058 58.3171 149.998 57.7199 148.087 56.9436C147.311 56.645 146.564 56.2867 145.848 55.8687C145.131 55.4507 144.445 54.9431 143.788 54.346C143.668 54.1668 143.489 53.9877 143.25 53.8085C143.071 53.5697 142.922 53.3308 142.802 53.0919L138.145 44.3137C138.622 43.5374 139.219 42.7313 139.936 41.8952C140.832 40.8204 141.787 39.7753 142.802 38.7602C143.818 37.745 144.833 36.7895 145.848 35.8938C150.207 32.1914 154.984 28.9071 160.18 26.0407C165.375 23.1744 170.6 20.6663 175.855 18.5165C178.184 17.5611 180.662 16.6654 183.29 15.8293C189.799 13.7393 196.457 12.1568 203.265 11.0819C210.132 9.94733 216.999 9.17103 223.866 8.75302C228.465 8.45444 233.122 8.36486 237.84 8.48429H243.394L252.62 19.8601H252.709H252.62L239.631 17.9791ZM143.877 46.4635C144.176 46.7024 144.504 46.9412 144.863 47.1801C145.221 47.3592 145.549 47.5384 145.848 47.7175C146.982 48.255 148.117 48.7327 149.252 49.1507C150.446 49.509 151.64 49.8374 152.835 50.136C158.03 51.4498 163.464 52.1663 169.137 52.2858C174.81 52.4052 180.274 52.2559 185.529 51.8379C192.814 51.3005 200.01 50.0464 207.116 48.0758C214.282 46.1052 221.179 43.5076 227.808 40.2829C229.719 39.3275 231.719 38.163 233.809 36.7896C235.959 35.4161 237.661 33.8635 238.915 32.1317C239.631 31.1166 240.139 30.0118 240.438 28.8175C240.736 27.5635 240.587 26.3393 239.99 25.145C239.512 24.1895 238.885 23.4132 238.109 22.8161C237.332 22.2189 236.437 21.771 235.421 21.4725C234.466 21.1739 233.451 20.9947 232.376 20.935C231.361 20.8753 230.375 20.935 229.42 21.1142C226.315 21.771 223.717 23.2639 221.627 25.5928C219.537 27.862 217.955 30.4597 216.88 33.3857H216.79L213.028 28.2801C213.745 26.2497 214.67 24.309 215.805 22.4578C216.939 20.5469 218.343 18.9047 220.015 17.5312C214.82 18.009 209.654 18.636 204.519 19.4123C199.443 20.1886 194.367 21.0843 189.291 22.0995C183.081 23.2938 177.049 25.0853 171.197 27.4739C165.405 29.8625 159.911 32.8782 154.716 36.5208C153.282 37.536 151.849 38.6407 150.416 39.835C149.043 40.9696 147.729 42.1938 146.475 43.5076C145.997 43.9853 145.549 44.4929 145.131 45.0303C144.713 45.508 144.295 45.9858 143.877 46.4635Z" fill="#245BC6"/>
<path d="M114.025 5.97534H131.582V68.6769H114.025V41.0882H37.6192V68.6769H20.1523V5.97534H37.6192V23.5318H114.025V5.97534Z" fill="#245BC6"/>
</g>
<defs>
<clipPath id="clip0_283_5512">
<rect width="496" height="74" fill="white"/>
</clipPath>
</defs>
</svg>
