<svg width="316" height="320" viewBox="0 0 316 320" fill="none" xmlns="http://www.w3.org/2000/svg">
<g clip-path="url(#clip0_298_15628)">
<rect width="320" height="316" transform="matrix(0 1 -1 0 316 0)" fill="#A5C827"/>
<rect x="106" y="-26" width="26.5" height="105.5" transform="rotate(90 106 -26)" fill="white"/>
<rect x="329" y="80" width="27" height="53" transform="rotate(90 329 80)" fill="white"/>
<rect x="27" y="27" width="27" height="105" transform="rotate(90 27 27)" fill="white"/>
<rect x="53" y="53" width="26.5" height="79" transform="rotate(90 53 53)" fill="white"/>
<rect x="0.5" y="0.5" width="26.5" height="52.5" transform="rotate(90 0.5 0.5)" fill="white"/>
<rect x="26" y="106" width="26.5" height="26.5" transform="rotate(90 26 106)" fill="white"/>
<rect x="317" y="133" width="27" height="55" transform="rotate(90 317 133)" fill="white"/>
<rect x="316" y="241" width="27" height="53" transform="rotate(90 316 241)" fill="white"/>
<rect x="27" y="188" width="27" height="105" transform="rotate(90 27 188)" fill="white"/>
<rect x="52" y="212" width="26.5" height="79" transform="rotate(90 52 212)" fill="white"/>
<rect x="343" y="267.5" width="26.5" height="79" transform="rotate(90 343 267.5)" fill="white"/>
<rect x="52" y="161" width="26.5" height="52.5" transform="rotate(90 52 161)" fill="white"/>
<rect x="52" y="267" width="26.5" height="26.5" transform="rotate(90 52 267)" fill="white"/>
<rect x="264" y="161" width="26.5" height="105.5" transform="rotate(90 264 161)" fill="white"/>
<rect x="264" y="267" width="26.5" height="105.5" transform="rotate(90 264 267)" fill="white"/>
<rect x="264" y="214" width="26.5" height="131.5" transform="rotate(90 264 214)" fill="white"/>
<rect x="264" y="241" width="26.5" height="79" transform="rotate(90 264 241)" fill="white"/>
<rect x="212" y="294" width="26.5" height="79" transform="rotate(90 212 294)" fill="white"/>
<rect x="316" y="188" width="27" height="104" transform="rotate(90 316 188)" fill="white"/>
<rect x="133" y="188" width="26.5" height="52.5" transform="rotate(90 133 188)" fill="white"/>
<rect x="264" y="294" width="26.5" height="26.5" transform="rotate(90 264 294)" fill="white"/>
<rect x="133" y="267" width="26.5" height="26.5" transform="rotate(90 133 267)" fill="white"/>
<rect x="264" width="27" height="79" transform="rotate(90 264 0)" fill="white"/>
<rect x="264" y="107" width="26.8333" height="105.5" transform="rotate(90 264 107)" fill="white"/>
<rect x="264" y="54" width="26.8333" height="131.5" transform="rotate(90 264 54)" fill="white"/>
<rect x="290" y="80" width="26.8333" height="79" transform="rotate(90 290 80)" fill="white"/>
<rect x="245" y="80" width="34" height="34" transform="rotate(90 245 80)" fill="white"/>
<rect x="246" y="164" width="103" height="34" transform="rotate(90 246 164)" fill="white"/>
<rect x="211" y="216" width="103" height="26" transform="rotate(90 211 216)" fill="white"/>
<rect x="184" y="284" width="103" height="26" transform="rotate(90 184 284)" fill="white"/>
<rect x="27" y="164" width="61" height="27" transform="rotate(90 27 164)" fill="white"/>
<rect x="158" y="27" width="53" height="25" transform="rotate(90 158 27)" fill="white"/>
<rect x="264" width="309" height="26" transform="rotate(90 264 0)" fill="white"/>
<rect x="320" y="27" width="27" height="108" transform="rotate(90 320 27)" fill="white"/>
<rect x="158" y="27" width="26.8333" height="52.5" transform="rotate(90 158 27)" fill="white"/>
<rect x="264" y="134" width="26.8333" height="26.5" transform="rotate(90 264 134)" fill="white"/>
<rect x="133" y="107" width="26.8333" height="26.5" transform="rotate(90 133 107)" fill="white"/>
<rect x="343" y="214" width="27" height="53" transform="rotate(90 343 214)" fill="white"/>
<rect x="346" y="53" width="27" height="53" transform="rotate(90 346 53)" fill="white"/>
<rect x="115" y="-4" width="31" height="118" transform="rotate(90 115 -4)" fill="#A5C827"/>
</g>
<defs>
<clipPath id="clip0_298_15628">
<rect width="320" height="316" fill="white" transform="matrix(0 1 -1 0 316 0)"/>
</clipPath>
</defs>
</svg>
