<svg width="320" height="316" viewBox="0 0 320 316" fill="none" xmlns="http://www.w3.org/2000/svg">
<g clip-path="url(#clip0_249_1852)">
<rect width="320" height="316" fill="#245BC6"/>
<rect x="79" y="106" width="27" height="40" fill="white"/>
<rect x="132" y="105" width="27" height="55" fill="white"/>
<rect x="240" y="106" width="27" height="53" fill="white"/>
<rect x="266.5" y="79" width="26.5" height="79" fill="white"/>
<rect x="160" y="158" width="26.5" height="105.5" fill="white"/>
<rect x="266" y="158" width="26.5" height="105.5" fill="white"/>
<rect x="213" y="158" width="26.5" height="131.5" fill="white"/>
<rect x="240" y="158" width="26.5" height="79" fill="white"/>
<rect x="293" y="210" width="26.5" height="79" fill="white"/>
<rect x="187" y="79" width="27" height="131" fill="white"/>
<rect x="187" y="289" width="26.5" height="52.5" fill="white"/>
<rect x="293" y="158" width="26.5" height="26.5" fill="white"/>
<rect x="105" y="79" width="26.5" height="26.5" fill="white"/>
<rect x="266" y="289" width="26.5" height="26.5" fill="white"/>
<rect x="-1" y="158" width="27" height="79" fill="white"/>
<rect x="106" y="158" width="26.8333" height="105.5" fill="white"/>
<rect x="53" y="158" width="26.8333" height="131.5" fill="white"/>
<rect x="79" y="132" width="26.8333" height="79" fill="white"/>
<rect x="26" y="79" width="27" height="131" fill="white"/>
<rect x="26" y="264" width="26.8333" height="52.5" fill="white"/>
<rect x="133" y="158" width="26.8333" height="26.5" fill="white"/>
<rect x="106" y="289" width="26.8333" height="26.5" fill="white"/>
<rect x="214" y="53" width="27" height="79" fill="white"/>
<rect x="160" y="53" width="27" height="53" fill="white"/>
<rect x="53" y="23" width="27" height="83" fill="white"/>
<rect x="187" y="-29" width="26.5" height="52.5" fill="white"/>
<rect x="-5" y="157" width="328" height="27" fill="white"/>
<rect x="160" y="183" width="133" height="27" fill="white"/>
<rect x="213" y="210" width="133" height="27" fill="white"/>
<rect x="286" y="236" width="133" height="27" fill="white"/>
<rect x="309" y="262" width="133" height="27" fill="white"/>
<rect x="-14" y="183" width="133" height="27" fill="white"/>
</g>
<defs>
<clipPath id="clip0_249_1852">
<rect width="320" height="316" fill="white"/>
</clipPath>
</defs>
</svg>
