<svg width="316" height="320" viewBox="0 0 316 320" fill="none" xmlns="http://www.w3.org/2000/svg">
<g clip-path="url(#clip0_298_15841)">
<rect width="320" height="316" transform="matrix(0 1 -1 0 316 0)" fill="#A5C827"/>
<rect x="106" y="-26" width="26.5" height="105.5" transform="rotate(90 106 -26)" fill="white"/>
<rect x="53" y="80" width="27" height="53" transform="rotate(90 53 80)" fill="white"/>
<rect x="79" y="27" width="27" height="105" transform="rotate(90 79 27)" fill="white"/>
<rect x="106" y="53.5" width="26.5" height="79" transform="rotate(90 106 53.5)" fill="white"/>
<rect x="0.5" y="0.5" width="26.5" height="52.5" transform="rotate(90 0.5 0.5)" fill="white"/>
<rect x="79" y="107" width="26.5" height="26.5" transform="rotate(90 79 107)" fill="white"/>
<rect x="55" y="133" width="27" height="55" transform="rotate(90 55 133)" fill="white"/>
<rect x="53" y="239" width="27" height="53" transform="rotate(90 53 239)" fill="white"/>
<rect x="79" y="186" width="27" height="105" transform="rotate(90 79 186)" fill="white"/>
<rect x="106" y="212.5" width="26.5" height="79" transform="rotate(90 106 212.5)" fill="white"/>
<rect x="53.5" y="265.5" width="26.5" height="79" transform="rotate(90 53.5 265.5)" fill="white"/>
<rect x="106" y="159.5" width="26.5" height="52.5" transform="rotate(90 106 159.5)" fill="white"/>
<rect x="106" y="265.5" width="26.5" height="26.5" transform="rotate(90 106 265.5)" fill="white"/>
<rect x="316" y="161" width="26.5" height="105.5" transform="rotate(90 316 161)" fill="white"/>
<rect x="316" y="267" width="26.5" height="105.5" transform="rotate(90 316 267)" fill="white"/>
<rect x="316" y="214" width="26.5" height="131.5" transform="rotate(90 316 214)" fill="white"/>
<rect x="316" y="240.5" width="26.5" height="79" transform="rotate(90 316 240.5)" fill="white"/>
<rect x="263.5" y="293.5" width="26.5" height="79" transform="rotate(90 263.5 293.5)" fill="white"/>
<rect x="316" y="187.5" width="26.5" height="52.5" transform="rotate(90 316 187.5)" fill="white"/>
<rect x="184.082" y="187.209" width="26.5" height="52.5" transform="rotate(90 184.082 187.209)" fill="white"/>
<rect x="316" y="293.5" width="26.5" height="26.5" transform="rotate(90 316 293.5)" fill="white"/>
<rect x="184.5" y="267" width="26.5" height="26.5" transform="rotate(90 184.5 267)" fill="white"/>
<rect x="316" width="26.8333" height="105.5" transform="rotate(90 316 0)" fill="white"/>
<rect x="316" y="107.333" width="26.8333" height="105.5" transform="rotate(90 316 107.333)" fill="white"/>
<rect x="316" y="53.667" width="26.8333" height="131.5" transform="rotate(90 316 53.667)" fill="white"/>
<rect x="316" y="80.5" width="26.8333" height="79" transform="rotate(90 316 80.5)" fill="white"/>
<rect x="316" y="26.833" width="26.8333" height="52.5" transform="rotate(90 316 26.833)" fill="white"/>
<rect x="210.5" y="26.833" width="26.8333" height="52.5" transform="rotate(90 210.5 26.833)" fill="white"/>
<rect x="316" y="134.167" width="26.8333" height="26.5" transform="rotate(90 316 134.167)" fill="white"/>
<rect x="184.5" y="107.333" width="26.8333" height="26.5" transform="rotate(90 184.5 107.333)" fill="white"/>
<rect x="115" y="-4" width="31" height="118" transform="rotate(90 115 -4)" fill="#A5C827"/>
</g>
<defs>
<clipPath id="clip0_298_15841">
<rect width="320" height="316" fill="white" transform="matrix(0 1 -1 0 316 0)"/>
</clipPath>
</defs>
</svg>
