<svg width="320" height="316" viewBox="0 0 320 316" fill="none" xmlns="http://www.w3.org/2000/svg">
<g clip-path="url(#clip0_249_1553)">
<rect width="320" height="316" fill="#245BC6"/>
<rect x="-26" y="210" width="26.5" height="105.5" fill="white"/>
<rect x="80" y="-13" width="27" height="53" fill="white"/>
<rect x="27" y="289" width="27" height="105" fill="white"/>
<rect x="53" y="263" width="26.5" height="79" fill="white"/>
<rect x="0.5" y="315.5" width="26.5" height="52.5" fill="white"/>
<rect x="106" y="290" width="26.5" height="26.5" fill="white"/>
<rect x="133" y="-1" width="27" height="55" fill="white"/>
<rect x="241" width="27" height="53" fill="white"/>
<rect x="188" y="289" width="27" height="105" fill="white"/>
<rect x="212" y="264" width="26.5" height="79" fill="white"/>
<rect x="267.5" y="-27" width="26.5" height="79" fill="white"/>
<rect x="161" y="264" width="26.5" height="52.5" fill="white"/>
<rect x="267" y="264" width="26.5" height="26.5" fill="white"/>
<rect x="161" y="52" width="26.5" height="105.5" fill="white"/>
<rect x="267" y="52" width="26.5" height="105.5" fill="white"/>
<rect x="214" y="52" width="26.5" height="131.5" fill="white"/>
<rect x="241" y="52" width="26.5" height="79" fill="white"/>
<rect x="294" y="104" width="26.5" height="79" fill="white"/>
<rect x="188" width="27" height="104" fill="white"/>
<rect x="188" y="183" width="26.5" height="52.5" fill="white"/>
<rect x="294" y="52" width="26.5" height="26.5" fill="white"/>
<rect x="267" y="183" width="26.5" height="26.5" fill="white"/>
<rect y="52" width="27" height="79" fill="white"/>
<rect x="107" y="52" width="26.8333" height="105.5" fill="white"/>
<rect x="54" y="52" width="26.8333" height="131.5" fill="white"/>
<rect x="80" y="26" width="26.8333" height="79" fill="white"/>
<rect x="80" y="71" width="34" height="34" fill="white"/>
<rect x="164" y="70" width="103" height="34" fill="white"/>
<rect x="216" y="105" width="103" height="26" fill="white"/>
<rect x="284" y="132" width="103" height="26" fill="white"/>
<rect x="164" y="289" width="61" height="27" fill="white"/>
<rect x="27" y="158" width="53" height="25" fill="white"/>
<rect y="52" width="309" height="26" fill="white"/>
<rect x="27" y="-4" width="27" height="108" fill="white"/>
<rect x="27" y="158" width="26.8333" height="52.5" fill="white"/>
<rect x="134" y="52" width="26.8333" height="26.5" fill="white"/>
<rect x="107" y="183" width="26.8333" height="26.5" fill="white"/>
<rect x="214" y="-27" width="27" height="53" fill="white"/>
<rect x="53" y="-30" width="27" height="53" fill="white"/>
<rect x="-4" y="201" width="31" height="118" fill="#245BC6"/>
</g>
<defs>
<clipPath id="clip0_249_1553">
<rect width="320" height="316" fill="white"/>
</clipPath>
</defs>
</svg>
