<svg width="316" height="320" viewBox="0 0 316 320" fill="none" xmlns="http://www.w3.org/2000/svg">
<g clip-path="url(#clip0_298_15774)">
<rect width="320" height="316" transform="matrix(0 1 -1 0 316 0)" fill="#A5C827"/>
<rect x="158" y="79" width="27" height="40" transform="rotate(90 158 79)" fill="white"/>
<rect x="159" y="132" width="27" height="55" transform="rotate(90 159 132)" fill="white"/>
<rect x="158" y="240" width="27" height="53" transform="rotate(90 158 240)" fill="white"/>
<rect x="185" y="266.5" width="26.5" height="79" transform="rotate(90 185 266.5)" fill="white"/>
<rect x="106" y="160" width="26.5" height="105.5" transform="rotate(90 106 160)" fill="white"/>
<rect x="106" y="266" width="26.5" height="105.5" transform="rotate(90 106 266)" fill="white"/>
<rect x="106" y="213" width="26.5" height="131.5" transform="rotate(90 106 213)" fill="white"/>
<rect x="106" y="240" width="26.5" height="79" transform="rotate(90 106 240)" fill="white"/>
<rect x="54" y="293" width="26.5" height="79" transform="rotate(90 54 293)" fill="white"/>
<rect x="185" y="187" width="27" height="131" transform="rotate(90 185 187)" fill="white"/>
<rect x="106" y="293" width="26.5" height="26.5" transform="rotate(90 106 293)" fill="white"/>
<rect x="185" y="105" width="26.5" height="26.5" transform="rotate(90 185 105)" fill="white"/>
<rect x="106" y="-1" width="27" height="79" transform="rotate(90 106 -1)" fill="white"/>
<rect x="106" y="106" width="26.8333" height="105.5" transform="rotate(90 106 106)" fill="white"/>
<rect x="106" y="53" width="26.8333" height="131.5" transform="rotate(90 106 53)" fill="white"/>
<rect x="132" y="79" width="26.8333" height="79" transform="rotate(90 132 79)" fill="white"/>
<rect x="185" y="26" width="27" height="131" transform="rotate(90 185 26)" fill="white"/>
<rect x="106" y="133" width="26.8333" height="26.5" transform="rotate(90 106 133)" fill="white"/>
<rect x="211" y="214" width="27" height="79" transform="rotate(90 211 214)" fill="white"/>
<rect x="211" y="160" width="27" height="53" transform="rotate(90 211 160)" fill="white"/>
<rect x="241" y="53" width="27" height="83" transform="rotate(90 241 53)" fill="white"/>
<rect x="293" y="187" width="26.5" height="52.5" transform="rotate(90 293 187)" fill="white"/>
<g clip-path="url(#clip1_298_15774)">
<rect width="320" height="316" transform="matrix(0 1 -1 0 15 265)" fill="#A5C827"/>
</g>
<rect x="106" y="1" width="328" height="27" transform="rotate(90 106 1)" fill="white"/>
<rect x="80" y="166" width="133" height="27" transform="rotate(90 80 166)" fill="white"/>
<rect x="53" y="219" width="133" height="27" transform="rotate(90 53 219)" fill="white"/>
<rect x="80" y="-8" width="133" height="27" transform="rotate(90 80 -8)" fill="white"/>
<rect x="42" y="272" width="133" height="27" transform="rotate(90 42 272)" fill="white"/>
</g>
<defs>
<clipPath id="clip0_298_15774">
<rect width="320" height="316" fill="white" transform="matrix(0 1 -1 0 316 0)"/>
</clipPath>
<clipPath id="clip1_298_15774">
<rect width="320" height="316" fill="white" transform="matrix(0 1 -1 0 15 265)"/>
</clipPath>
</defs>
</svg>
