<svg width="316" height="320" viewBox="0 0 316 320" fill="none" xmlns="http://www.w3.org/2000/svg">
<g clip-path="url(#clip0_298_15725)">
<rect width="320" height="316" transform="matrix(0 1 -1 0 316 0)" fill="#A5C827"/>
<rect x="210" y="79" width="27" height="40" transform="rotate(90 210 79)" fill="white"/>
<rect x="211" y="132" width="27" height="55" transform="rotate(90 211 132)" fill="white"/>
<rect x="210" y="240" width="27" height="53" transform="rotate(90 210 240)" fill="white"/>
<rect x="237" y="266.5" width="26.5" height="79" transform="rotate(90 237 266.5)" fill="white"/>
<rect x="158" y="160" width="26.5" height="105.5" transform="rotate(90 158 160)" fill="white"/>
<rect x="158" y="266" width="26.5" height="105.5" transform="rotate(90 158 266)" fill="white"/>
<rect x="158" y="213" width="26.5" height="131.5" transform="rotate(90 158 213)" fill="white"/>
<rect x="158" y="240" width="26.5" height="79" transform="rotate(90 158 240)" fill="white"/>
<rect x="106" y="293" width="26.5" height="79" transform="rotate(90 106 293)" fill="white"/>
<rect x="237" y="187" width="27" height="131" transform="rotate(90 237 187)" fill="white"/>
<rect x="27" y="187" width="26.5" height="52.5" transform="rotate(90 27 187)" fill="white"/>
<rect x="158" y="293" width="26.5" height="26.5" transform="rotate(90 158 293)" fill="white"/>
<rect x="237" y="105" width="26.5" height="26.5" transform="rotate(90 237 105)" fill="white"/>
<rect x="27" y="266" width="26.5" height="26.5" transform="rotate(90 27 266)" fill="white"/>
<rect x="158" y="-1" width="27" height="79" transform="rotate(90 158 -1)" fill="white"/>
<rect x="158" y="106" width="26.8333" height="105.5" transform="rotate(90 158 106)" fill="white"/>
<rect x="158" y="53" width="26.8333" height="131.5" transform="rotate(90 158 53)" fill="white"/>
<rect x="184" y="79" width="26.8333" height="79" transform="rotate(90 184 79)" fill="white"/>
<rect x="237" y="26" width="27" height="131" transform="rotate(90 237 26)" fill="white"/>
<rect x="52" y="26" width="26.8333" height="52.5" transform="rotate(90 52 26)" fill="white"/>
<rect x="158" y="133" width="26.8333" height="26.5" transform="rotate(90 158 133)" fill="white"/>
<rect x="27" y="106" width="26.8333" height="26.5" transform="rotate(90 27 106)" fill="white"/>
<rect x="263" y="214" width="27" height="79" transform="rotate(90 263 214)" fill="white"/>
<rect x="263" y="160" width="27" height="53" transform="rotate(90 263 160)" fill="white"/>
<rect x="293" y="53" width="27" height="83" transform="rotate(90 293 53)" fill="white"/>
<rect x="345" y="187" width="26.5" height="52.5" transform="rotate(90 345 187)" fill="white"/>
<rect x="159" y="-5" width="328" height="27" transform="rotate(90 159 -5)" fill="white"/>
<rect x="133" y="160" width="133" height="27" transform="rotate(90 133 160)" fill="white"/>
<rect x="106" y="213" width="133" height="27" transform="rotate(90 106 213)" fill="white"/>
<rect x="80" y="286" width="133" height="27" transform="rotate(90 80 286)" fill="white"/>
<rect x="54" y="309" width="133" height="27" transform="rotate(90 54 309)" fill="white"/>
<rect x="133" y="-14" width="133" height="27" transform="rotate(90 133 -14)" fill="white"/>
</g>
<defs>
<clipPath id="clip0_298_15725">
<rect width="320" height="316" fill="white" transform="matrix(0 1 -1 0 316 0)"/>
</clipPath>
</defs>
</svg>
