<svg width="320" height="316" viewBox="0 0 320 316" fill="none" xmlns="http://www.w3.org/2000/svg">
<g clip-path="url(#clip0_249_1610)">
<rect width="320" height="316" fill="#245BC6"/>
<rect x="-26" y="210" width="26.5" height="105.5" fill="white"/>
<rect x="80" y="263" width="27" height="53" fill="white"/>
<rect x="27" y="237" width="27" height="105" fill="white"/>
<rect x="53.5" y="210" width="26.5" height="79" fill="white"/>
<rect x="0.5" y="315.5" width="26.5" height="52.5" fill="white"/>
<rect x="107" y="237" width="26.5" height="26.5" fill="white"/>
<rect x="133" y="261" width="27" height="55" fill="white"/>
<rect x="239" y="263" width="27" height="53" fill="white"/>
<rect x="186" y="237" width="27" height="105" fill="white"/>
<rect x="212.5" y="210" width="26.5" height="79" fill="white"/>
<rect x="265.5" y="262.5" width="26.5" height="79" fill="white"/>
<rect x="159.5" y="210" width="26.5" height="52.5" fill="white"/>
<rect x="265.5" y="210" width="26.5" height="26.5" fill="white"/>
<rect x="161" width="26.5" height="105.5" fill="white"/>
<rect x="267" width="26.5" height="105.5" fill="white"/>
<rect x="214" width="26.5" height="131.5" fill="white"/>
<rect x="240.5" width="26.5" height="79" fill="white"/>
<rect x="293.5" y="52.5" width="26.5" height="79" fill="white"/>
<rect x="187.5" width="26.5" height="52.5" fill="white"/>
<rect x="187.209" y="131.917" width="26.5" height="52.5" fill="white"/>
<rect x="293.5" width="26.5" height="26.5" fill="white"/>
<rect x="267" y="131.5" width="26.5" height="26.5" fill="white"/>
<rect width="26.8333" height="105.5" fill="white"/>
<rect x="107.333" width="26.8333" height="105.5" fill="white"/>
<rect x="53.667" width="26.8333" height="131.5" fill="white"/>
<rect x="80.5" width="26.8333" height="79" fill="white"/>
<rect x="26.833" width="26.8333" height="52.5" fill="white"/>
<rect x="26.833" y="105.5" width="26.8333" height="52.5" fill="white"/>
<rect x="134.167" width="26.8333" height="26.5" fill="white"/>
<rect x="107.333" y="131.5" width="26.8333" height="26.5" fill="white"/>
<rect x="-4" y="201" width="31" height="118" fill="#245BC6"/>
</g>
<defs>
<clipPath id="clip0_249_1610">
<rect width="320" height="316" fill="white"/>
</clipPath>
</defs>
</svg>
