<svg width="320" height="316" viewBox="0 0 320 316" fill="none" xmlns="http://www.w3.org/2000/svg">
<g clip-path="url(#clip0_249_1809)">
<rect width="320" height="316" fill="#245BC6"/>
<rect x="79" y="53" width="27" height="40" fill="white"/>
<rect x="132" y="52" width="27" height="55" fill="white"/>
<rect x="240" y="53" width="27" height="53" fill="white"/>
<rect x="266.5" y="26" width="26.5" height="79" fill="white"/>
<rect x="160" y="105" width="26.5" height="105.5" fill="white"/>
<rect x="266" y="105" width="26.5" height="105.5" fill="white"/>
<rect x="213" y="105" width="26.5" height="131.5" fill="white"/>
<rect x="240" y="105" width="26.5" height="79" fill="white"/>
<rect x="293" y="157" width="26.5" height="79" fill="white"/>
<rect x="284" y="157" width="36" height="53" fill="white"/>
<rect x="177" y="114" width="36" height="43" fill="white"/>
<rect x="88" y="115" width="36" height="43" fill="white"/>
<rect x="231" y="105" width="36" height="80" fill="white"/>
<rect x="-6" y="105" width="328" height="27" fill="white"/>
<rect x="187" y="26" width="27" height="131" fill="white"/>
<rect x="187" y="236" width="26.5" height="52.5" fill="white"/>
<rect x="293" y="105" width="26.5" height="26.5" fill="white"/>
<rect x="105" y="26" width="26.5" height="26.5" fill="white"/>
<rect x="266" y="236" width="26.5" height="26.5" fill="white"/>
<rect x="302" y="210" width="26.5" height="26.5" fill="white"/>
<rect x="40" y="211" width="40" height="26" fill="white"/>
<rect x="-1" y="105" width="27" height="79" fill="white"/>
<rect x="106" y="105" width="26.8333" height="105.5" fill="white"/>
<rect x="53" y="105" width="26.8333" height="131.5" fill="white"/>
<rect x="79" y="79" width="26.8333" height="79" fill="white"/>
<rect x="26" y="26" width="27" height="131" fill="white"/>
<rect x="26" y="211" width="26.8333" height="52.5" fill="white"/>
<rect x="133" y="105" width="26.8333" height="26.5" fill="white"/>
<rect x="106" y="236" width="26.8333" height="26.5" fill="white"/>
<rect x="214" width="27" height="79" fill="white"/>
<rect x="160" width="27" height="53" fill="white"/>
<rect x="53" y="-30" width="27" height="83" fill="white"/>
</g>
<defs>
<clipPath id="clip0_249_1809">
<rect width="320" height="316" fill="white"/>
</clipPath>
</defs>
</svg>
