<svg width="320" height="316" viewBox="0 0 320 316" fill="none" xmlns="http://www.w3.org/2000/svg">
<g clip-path="url(#clip0_249_1895)">
<rect width="320" height="316" fill="#245BC6"/>
<rect x="79" y="158" width="27" height="40" fill="white"/>
<rect x="132" y="157" width="27" height="55" fill="white"/>
<rect x="240" y="158" width="27" height="53" fill="white"/>
<rect x="266.5" y="131" width="26.5" height="79" fill="white"/>
<rect x="160" y="210" width="26.5" height="105.5" fill="white"/>
<rect x="266" y="210" width="26.5" height="105.5" fill="white"/>
<rect x="213" y="210" width="26.5" height="131.5" fill="white"/>
<rect x="240" y="210" width="26.5" height="79" fill="white"/>
<rect x="293" y="262" width="26.5" height="79" fill="white"/>
<rect x="187" y="131" width="27" height="131" fill="white"/>
<rect x="293" y="210" width="26.5" height="26.5" fill="white"/>
<rect x="105" y="131" width="26.5" height="26.5" fill="white"/>
<rect x="-1" y="210" width="27" height="79" fill="white"/>
<rect x="106" y="210" width="26.8333" height="105.5" fill="white"/>
<rect x="53" y="210" width="26.8333" height="131.5" fill="white"/>
<rect x="79" y="184" width="26.8333" height="79" fill="white"/>
<rect x="26" y="131" width="27" height="131" fill="white"/>
<rect x="133" y="210" width="26.8333" height="26.5" fill="white"/>
<rect x="214" y="105" width="27" height="79" fill="white"/>
<rect x="160" y="105" width="27" height="53" fill="white"/>
<rect x="53" y="75" width="27" height="83" fill="white"/>
<rect x="187" y="23" width="26.5" height="52.5" fill="white"/>
<g clip-path="url(#clip1_249_1895)">
<rect width="320" height="316" transform="translate(265 301)" fill="#245BC6"/>
</g>
<rect x="1" y="210" width="328" height="27" fill="white"/>
<rect x="166" y="236" width="133" height="27" fill="white"/>
<rect x="219" y="263" width="133" height="27" fill="white"/>
<rect x="-8" y="236" width="133" height="27" fill="white"/>
<rect x="272" y="274" width="133" height="27" fill="white"/>
</g>
<defs>
<clipPath id="clip0_249_1895">
<rect width="320" height="316" fill="white"/>
</clipPath>
<clipPath id="clip1_249_1895">
<rect width="320" height="316" fill="white" transform="translate(265 301)"/>
</clipPath>
</defs>
</svg>
