<svg width="316" height="320" viewBox="0 0 316 320" fill="none" xmlns="http://www.w3.org/2000/svg">
<g clip-path="url(#clip0_298_15676)">
<rect width="320" height="316" transform="matrix(0 1 -1 0 316 0)" fill="#A5C827"/>
<rect x="263" y="79" width="27" height="40" transform="rotate(90 263 79)" fill="white"/>
<rect x="264" y="132" width="27" height="55" transform="rotate(90 264 132)" fill="white"/>
<rect x="263" y="240" width="27" height="53" transform="rotate(90 263 240)" fill="white"/>
<rect x="290" y="266.5" width="26.5" height="79" transform="rotate(90 290 266.5)" fill="white"/>
<rect x="211" y="160" width="26.5" height="105.5" transform="rotate(90 211 160)" fill="white"/>
<rect x="211" y="266" width="26.5" height="105.5" transform="rotate(90 211 266)" fill="white"/>
<rect x="211" y="213" width="26.5" height="131.5" transform="rotate(90 211 213)" fill="white"/>
<rect x="211" y="240" width="26.5" height="79" transform="rotate(90 211 240)" fill="white"/>
<rect x="159" y="293" width="26.5" height="79" transform="rotate(90 159 293)" fill="white"/>
<rect x="159" y="284" width="36" height="53" transform="rotate(90 159 284)" fill="white"/>
<rect x="202" y="177" width="36" height="43" transform="rotate(90 202 177)" fill="white"/>
<rect x="201" y="88" width="36" height="43" transform="rotate(90 201 88)" fill="white"/>
<rect x="211" y="231" width="36" height="80" transform="rotate(90 211 231)" fill="white"/>
<rect x="211" y="-6" width="328" height="27" transform="rotate(90 211 -6)" fill="white"/>
<rect x="290" y="187" width="27" height="131" transform="rotate(90 290 187)" fill="white"/>
<rect x="80" y="187" width="26.5" height="52.5" transform="rotate(90 80 187)" fill="white"/>
<rect x="211" y="293" width="26.5" height="26.5" transform="rotate(90 211 293)" fill="white"/>
<rect x="290" y="105" width="26.5" height="26.5" transform="rotate(90 290 105)" fill="white"/>
<rect x="80" y="266" width="26.5" height="26.5" transform="rotate(90 80 266)" fill="white"/>
<rect x="106" y="302" width="26.5" height="26.5" transform="rotate(90 106 302)" fill="white"/>
<rect x="105" y="40" width="40" height="26" transform="rotate(90 105 40)" fill="white"/>
<rect x="211" y="-1" width="27" height="79" transform="rotate(90 211 -1)" fill="white"/>
<rect x="211" y="106" width="26.8333" height="105.5" transform="rotate(90 211 106)" fill="white"/>
<rect x="211" y="53" width="26.8333" height="131.5" transform="rotate(90 211 53)" fill="white"/>
<rect x="237" y="79" width="26.8333" height="79" transform="rotate(90 237 79)" fill="white"/>
<rect x="290" y="26" width="27" height="131" transform="rotate(90 290 26)" fill="white"/>
<rect x="105" y="26" width="26.8333" height="52.5" transform="rotate(90 105 26)" fill="white"/>
<rect x="211" y="133" width="26.8333" height="26.5" transform="rotate(90 211 133)" fill="white"/>
<rect x="80" y="106" width="26.8333" height="26.5" transform="rotate(90 80 106)" fill="white"/>
<rect x="316" y="214" width="27" height="79" transform="rotate(90 316 214)" fill="white"/>
<rect x="316" y="160" width="27" height="53" transform="rotate(90 316 160)" fill="white"/>
<rect x="346" y="53" width="27" height="83" transform="rotate(90 346 53)" fill="white"/>
</g>
<defs>
<clipPath id="clip0_298_15676">
<rect width="320" height="316" fill="white" transform="matrix(0 1 -1 0 316 0)"/>
</clipPath>
</defs>
</svg>
