<svg width="7970" height="399" viewBox="0 0 7970 399" fill="none" xmlns="http://www.w3.org/2000/svg">
<g clip-path="url(#clip0_249_1205)">
<rect width="7970" height="399" fill="white"/>
<rect x="1524" y="81" width="80.1408" height="80.1408" fill="white"/>
<rect x="1604.14" y="161.141" width="80.1408" height="80.1408" fill="white"/>
<rect x="1684" y="80" width="80.1408" height="80.1408" fill="white"/>
<rect x="1443" y="319" width="80.1408" height="80.1408" fill="white"/>
<rect x="1604" width="80.1408" height="80.1408" fill="white"/>
<rect x="-4" width="886" height="399" fill="#A5C827"/>
<rect x="241.293" y="0.602051" width="80.1408" height="80.1408" fill="white"/>
<rect x="321.434" y="80.7427" width="80.1408" height="80.1408" fill="white"/>
<rect x="481.715" y="80.7427" width="80.1408" height="80.1408" fill="white"/>
<rect x="402" y="1" width="80.1408" height="80.1408" fill="white"/>
<rect x="0.328125" y="80.4722" width="80.1408" height="80.1408" fill="white"/>
<rect x="80.4688" y="160.613" width="80.1408" height="80.1408" fill="white"/>
<rect x="160.609" y="80.4722" width="80.1408" height="80.1408" fill="white"/>
<rect x="240.75" y="160.613" width="80.1408" height="80.1408" fill="white"/>
<rect x="320.891" y="80.4722" width="80.1408" height="80.1408" fill="white"/>
<rect x="401.031" y="160.343" width="80.1408" height="80.1408" fill="white"/>
<rect x="481.172" y="240.483" width="80.1408" height="80.1408" fill="white"/>
<rect x="561.312" y="160.343" width="80.1408" height="80.1408" fill="white"/>
<rect x="641.453" y="240.483" width="80.1408" height="80.1408" fill="white"/>
<rect x="80" y="319" width="80.1408" height="80.1408" fill="white"/>
<rect x="721.594" y="160.343" width="80.1408" height="80.1408" fill="white"/>
<rect x="160.068" y="240.212" width="80.1408" height="79.6787" fill="white"/>
<rect x="240.209" y="319.891" width="80.1408" height="79.6787" fill="white"/>
<rect x="320.35" y="240.212" width="80.1408" height="79.6787" fill="white"/>
<rect x="400.49" y="319.891" width="80.1408" height="79.6787" fill="white"/>
<rect x="480.631" y="240.212" width="80.1408" height="79.6787" fill="white"/>
<rect x="642" y="81" width="80.1408" height="80.1408" fill="white"/>
<rect x="722.141" y="161.141" width="80.1408" height="80.1408" fill="white"/>
<rect x="802" y="241" width="80.1408" height="80.1408" fill="white"/>
<rect x="722" y="321" width="80.1408" height="80.1408" fill="white"/>
<rect x="722" width="80.1408" height="80.1408" fill="white"/>
<rect x="81" y="1" width="80.1408" height="80.1408" fill="white"/>
<rect x="882" width="886" height="399" fill="#A5C827"/>
<rect x="1122.96" y="0.602051" width="80.1408" height="80.1408" fill="white"/>
<rect x="1203.11" y="80.7427" width="80.1408" height="80.1408" fill="white"/>
<rect x="1363.39" y="80.7427" width="80.1408" height="80.1408" fill="white"/>
<rect x="1283.67" y="1" width="80.1408" height="80.1408" fill="white"/>
<rect x="882" y="80.4722" width="80.1408" height="80.1408" fill="white"/>
<rect x="962.141" y="160.613" width="80.1408" height="80.1408" fill="white"/>
<rect x="1122.42" y="160.613" width="80.1408" height="80.1408" fill="white"/>
<rect x="1202.56" y="80.4722" width="80.1408" height="80.1408" fill="white"/>
<rect x="1282.7" y="160.343" width="80.1408" height="80.1408" fill="white"/>
<rect x="1362.84" y="240.483" width="80.1408" height="80.1408" fill="white"/>
<rect x="1523.12" y="240.483" width="80.1408" height="80.1408" fill="white"/>
<rect x="961.672" y="319" width="80.1408" height="80.1408" fill="white"/>
<rect x="1603.27" y="160.343" width="80.1408" height="80.1408" fill="white"/>
<rect x="1041.74" y="240.212" width="80.1408" height="79.6787" fill="white"/>
<rect x="1121.88" y="319.891" width="80.1408" height="79.6787" fill="white"/>
<rect x="1282.16" y="319.891" width="80.1408" height="79.6787" fill="white"/>
<rect x="1362.3" y="240.212" width="80.1408" height="79.6787" fill="white"/>
<rect x="1523.67" y="81" width="80.1408" height="80.1408" fill="white"/>
<rect x="1603.81" y="161.141" width="80.1408" height="80.1408" fill="white"/>
<rect x="1683.67" y="241" width="80.1408" height="80.1408" fill="white"/>
<rect x="1603.67" y="321" width="80.1408" height="80.1408" fill="white"/>
<rect x="1603.67" width="80.1408" height="80.1408" fill="white"/>
<rect x="962.672" y="1" width="80.1408" height="80.1408" fill="white"/>
<rect x="1768" width="886" height="399" fill="#A5C827"/>
<rect x="2008.96" y="0.602051" width="80.1408" height="80.1408" fill="white"/>
<rect x="2089.11" y="80.7427" width="80.1408" height="80.1408" fill="white"/>
<rect x="2169.67" y="1" width="80.1408" height="80.1408" fill="white"/>
<rect x="1768" y="80.4722" width="80.1408" height="80.1408" fill="white"/>
<rect x="1848.14" y="160.613" width="80.1408" height="80.1408" fill="white"/>
<rect x="2008.42" y="160.613" width="80.1408" height="80.1408" fill="white"/>
<rect x="2088.56" y="80.4722" width="80.1408" height="80.1408" fill="white"/>
<rect x="2168.7" y="160.343" width="80.1408" height="80.1408" fill="white"/>
<rect x="2248.84" y="240.483" width="80.1408" height="80.1408" fill="white"/>
<rect x="2409.12" y="240.483" width="80.1408" height="80.1408" fill="white"/>
<rect x="1847.67" y="319" width="80.1408" height="80.1408" fill="white"/>
<rect x="2489.27" y="160.343" width="80.1408" height="80.1408" fill="white"/>
<rect x="2007.88" y="319.891" width="80.1408" height="79.6787" fill="white"/>
<rect x="2168.16" y="319.891" width="80.1408" height="79.6787" fill="white"/>
<rect x="2248.3" y="240.212" width="80.1408" height="79.6787" fill="white"/>
<rect x="2409.67" y="81" width="80.1408" height="80.1408" fill="white"/>
<rect x="2489.81" y="161.141" width="80.1408" height="80.1408" fill="white"/>
<rect x="2569.67" y="241" width="80.1408" height="80.1408" fill="white"/>
<rect x="2489.67" width="80.1408" height="80.1408" fill="white"/>
<rect x="1848.67" y="1" width="80.1408" height="80.1408" fill="white"/>
<rect x="2654" width="886" height="399" fill="#A5C827"/>
<rect x="2894.96" y="0.602051" width="80.1408" height="80.1408" fill="white"/>
<rect x="2975.11" y="80.7427" width="80.1408" height="80.1408" fill="white"/>
<rect x="3055.67" y="1" width="80.1408" height="80.1408" fill="white"/>
<rect x="2734.14" y="160.613" width="80.1408" height="80.1408" fill="white"/>
<rect x="2894.42" y="160.613" width="80.1408" height="80.1408" fill="white"/>
<rect x="2974.56" y="80.4722" width="80.1408" height="80.1408" fill="white"/>
<rect x="3134.84" y="240.483" width="80.1408" height="80.1408" fill="white"/>
<rect x="3295.12" y="240.483" width="80.1408" height="80.1408" fill="white"/>
<rect x="2733.67" y="319" width="80.1408" height="80.1408" fill="white"/>
<rect x="2893.88" y="319.891" width="80.1408" height="79.6787" fill="white"/>
<rect x="3054.16" y="319.891" width="80.1408" height="79.6787" fill="white"/>
<rect x="3134.3" y="240.212" width="80.1408" height="79.6787" fill="white"/>
<rect x="3295.67" y="81" width="80.1408" height="80.1408" fill="white"/>
<rect x="3455.67" y="241" width="80.1408" height="80.1408" fill="white"/>
<rect x="3375.67" width="80.1408" height="80.1408" fill="white"/>
<rect x="2734.67" y="1" width="80.1408" height="80.1408" fill="white"/>
<rect x="3540" width="886" height="399" fill="#A5C827"/>
<rect x="3780.96" y="0.602051" width="80.1408" height="80.1408" fill="white"/>
<rect x="3861.11" y="80.7427" width="80.1408" height="80.1408" fill="white"/>
<rect x="3941.67" y="1" width="80.1408" height="80.1408" fill="white"/>
<rect x="3620.14" y="160.613" width="80.1408" height="80.1408" fill="white"/>
<rect x="3860.56" y="80.4722" width="80.1408" height="80.1408" fill="white"/>
<rect x="4181.12" y="240.483" width="80.1408" height="80.1408" fill="white"/>
<rect x="3619.67" y="319" width="80.1408" height="80.1408" fill="white"/>
<rect x="3779.88" y="319.891" width="80.1408" height="79.6787" fill="white"/>
<rect x="3940.16" y="319.891" width="80.1408" height="79.6787" fill="white"/>
<rect x="4341.67" y="241" width="80.1408" height="80.1408" fill="white"/>
<rect x="4261.67" width="80.1408" height="80.1408" fill="white"/>
<rect x="3620.67" y="1" width="80.1408" height="80.1408" fill="white"/>
<rect x="4426" width="886" height="399" fill="#A5C827"/>
<rect x="4666.96" y="0.602051" width="80.1408" height="80.1408" fill="white"/>
<rect x="4827.67" y="1" width="80.1408" height="80.1408" fill="white"/>
<rect x="5067.12" y="240.483" width="80.1408" height="80.1408" fill="white"/>
<rect x="4505.67" y="319" width="80.1408" height="80.1408" fill="white"/>
<rect x="4665.88" y="319.891" width="80.1408" height="79.6787" fill="white"/>
<rect x="5227.67" y="241" width="80.1408" height="80.1408" fill="white"/>
<rect x="5147.67" width="80.1408" height="80.1408" fill="white"/>
<rect x="4506.67" y="1" width="80.1408" height="80.1408" fill="white"/>
<rect x="5312" width="886" height="399" fill="#A5C827"/>
<rect x="5713.67" y="1" width="80.1408" height="80.1408" fill="white"/>
<rect x="5953.12" y="240.483" width="80.1408" height="80.1408" fill="white"/>
<rect x="5551.88" y="319.891" width="80.1408" height="79.6787" fill="white"/>
<rect x="6113.67" y="241" width="80.1408" height="80.1408" fill="white"/>
<rect x="5392.67" y="1" width="80.1408" height="80.1408" fill="white"/>
<rect x="6198" width="886" height="399" fill="#A5C827"/>
<rect x="6999.67" y="241" width="80.1408" height="80.1408" fill="white"/>
<rect x="6278.67" y="1" width="80.1408" height="80.1408" fill="white"/>
<rect x="7084" width="886" height="399" fill="#A5C827"/>
</g>
<defs>
<clipPath id="clip0_249_1205">
<rect width="7970" height="399" fill="white"/>
</clipPath>
</defs>
</svg>
