<svg width="2100" height="674" viewBox="0 0 2100 674" fill="none" xmlns="http://www.w3.org/2000/svg">
<rect width="49.1279" height="268.23" transform="matrix(0.861091 -0.0955981 0.639242 0.934024 518.274 274.406)" fill="white"/>
<rect width="49.1279" height="268.23" transform="matrix(0.861091 -0.0955981 0.639242 0.934024 714.479 246.557)" fill="white"/>
<rect width="49.1279" height="268.23" transform="matrix(0.861091 -0.0955981 0.639242 0.934024 650.625 255.801)" fill="white"/>
<rect width="49.1279" height="268.23" transform="matrix(0.861091 -0.0955981 0.639242 0.934024 846.83 227.951)" fill="white"/>
<rect width="49.1279" height="268.23" transform="matrix(0.861091 -0.0955981 0.639242 0.934024 910.686 218.707)" fill="white"/>
<rect width="49.1279" height="268.23" transform="matrix(0.861091 -0.0955981 0.639242 0.934024 582.129 265.163)" fill="white"/>
<rect width="49.1279" height="268.23" transform="matrix(0.861091 -0.0955981 0.639242 0.934024 778.334 237.314)" fill="white"/>
<rect width="49.1279" height="268.23" transform="matrix(0.861091 -0.0955981 0.639242 0.934024 714.479 246.557)" fill="white"/>
<rect width="49.1279" height="268.23" transform="matrix(0.861091 -0.0955981 0.639242 0.934024 910.686 218.707)" fill="white"/>
<rect width="49.1279" height="268.23" transform="matrix(0.861091 -0.0955981 0.639242 0.934024 974.539 209.465)" fill="white"/>
<rect width="49.1279" height="268.23" transform="matrix(0.861091 -0.0955981 0.639242 0.934024 1369 154.336)" fill="white"/>
<rect width="49.1279" height="268.23" transform="matrix(0.861091 -0.0955981 0.639242 0.934024 1565.21 126.487)" fill="white"/>
<rect width="49.1279" height="268.23" transform="matrix(0.861091 -0.0955981 0.639242 0.934024 1501.35 135.731)" fill="white"/>
<rect width="49.1279" height="268.23" transform="matrix(0.861091 -0.0955981 0.639242 0.934024 1697.56 107.882)" fill="white"/>
<rect width="49.1279" height="268.23" transform="matrix(0.861091 -0.0955981 0.639242 0.934024 1761.41 98.6387)" fill="white"/>
<rect width="49.1279" height="268.23" transform="matrix(0.861091 -0.0955981 0.639242 0.934024 1432.86 145.094)" fill="white"/>
<rect width="49.1279" height="268.23" transform="matrix(0.861091 -0.0955981 0.639242 0.934024 1629.07 117.245)" fill="white"/>
<rect width="49.1279" height="268.23" transform="matrix(0.861091 -0.0955981 0.639242 0.934024 1565.21 126.487)" fill="white"/>
<rect width="49.1279" height="268.23" transform="matrix(0.861091 -0.0955981 0.639242 0.934024 1761.41 98.6387)" fill="white"/>
<rect width="49.1279" height="268.23" transform="matrix(0.861091 -0.0955981 0.639242 0.934024 1825.27 89.3955)" fill="white"/>
<rect width="49.1279" height="268.23" transform="matrix(0.861091 -0.0955981 0.639242 0.934024 60.4473 338.768)" fill="white"/>
<rect width="49.1279" height="268.23" transform="matrix(0.861091 -0.0955981 0.639242 0.934024 256.651 310.918)" fill="white"/>
<rect width="49.1279" height="268.23" transform="matrix(0.861091 -0.0955981 0.639242 0.934024 192.797 320.162)" fill="white"/>
<rect width="49.1279" height="268.23" transform="matrix(0.861091 -0.0955981 0.639242 0.934024 389.002 292.312)" fill="white"/>
<rect width="49.1279" height="268.23" transform="matrix(0.861091 -0.0955981 0.639242 0.934024 452.857 283.069)" fill="white"/>
<rect width="49.1279" height="268.23" transform="matrix(0.861091 -0.0955981 0.639242 0.934024 124.302 329.524)" fill="white"/>
<rect width="49.1279" height="268.23" transform="matrix(0.861091 -0.0955981 0.639242 0.934024 320.508 301.676)" fill="white"/>
<rect width="49.1279" height="268.23" transform="matrix(0.861091 -0.0955981 0.639242 0.934024 256.651 310.918)" fill="white"/>
<rect width="49.1279" height="268.23" transform="matrix(0.861091 -0.0955981 0.639242 0.934024 452.857 283.069)" fill="white"/>
<rect width="49.1279" height="268.23" transform="matrix(0.861091 -0.0955981 0.639242 0.934024 516.713 273.826)" fill="white"/>
<rect width="49.1279" height="268.23" transform="matrix(0.861091 -0.0955981 0.639242 0.934024 911.18 218.697)" fill="white"/>
<rect width="49.1279" height="268.23" transform="matrix(0.861091 -0.0955981 0.639242 0.934024 1107.38 190.848)" fill="white"/>
<rect width="49.1279" height="268.23" transform="matrix(0.861091 -0.0955981 0.639242 0.934024 1043.53 200.092)" fill="white"/>
<rect width="49.1279" height="268.23" transform="matrix(0.861091 -0.0955981 0.639242 0.934024 1239.73 172.242)" fill="white"/>
<rect width="49.1279" height="268.23" transform="matrix(0.861091 -0.0955981 0.639242 0.934024 1303.59 162.998)" fill="white"/>
<rect width="49.1279" height="268.23" transform="matrix(0.861091 -0.0955981 0.639242 0.934024 975.037 209.454)" fill="white"/>
<rect width="49.1279" height="268.23" transform="matrix(0.861091 -0.0955981 0.639242 0.934024 1171.24 181.605)" fill="white"/>
<rect width="49.1279" height="268.23" transform="matrix(0.861091 -0.0955981 0.639242 0.934024 1107.38 190.848)" fill="white"/>
<rect width="49.1279" height="268.23" transform="matrix(0.861091 -0.0955981 0.639242 0.934024 1303.59 162.998)" fill="white"/>
<rect width="49.1279" height="268.23" transform="matrix(0.861091 -0.0955981 0.639242 0.934024 1367.45 153.756)" fill="white"/>
</svg>
