<svg width="381" height="340" viewBox="0 0 381 340" fill="none" xmlns="http://www.w3.org/2000/svg">
<g clip-path="url(#clip0_249_1988)">
<rect width="381" height="340" fill="white"/>
<path fill-rule="evenodd" clip-rule="evenodd" d="M202.326 141.929L181.051 146.791L226.664 349.126L248.415 351.837L249.586 351.57L202.326 141.929Z" fill="#245BC6"/>
<path d="M181.051 146.791L180.717 145.329L179.259 145.662L179.588 147.121L181.051 146.791ZM202.326 141.929L203.79 141.599L203.459 140.131L201.992 140.467L202.326 141.929ZM226.664 349.126L225.201 349.456L225.433 350.484L226.479 350.614L226.664 349.126ZM248.415 351.837L248.229 353.326L248.491 353.359L248.749 353.3L248.415 351.837ZM249.586 351.57L249.92 353.032L251.378 352.699L251.049 351.24L249.586 351.57ZM181.386 148.254L202.661 143.391L201.992 140.467L180.717 145.329L181.386 148.254ZM228.127 348.796L182.515 146.462L179.588 147.121L225.201 349.456L228.127 348.796ZM248.6 350.349L226.85 347.638L226.479 350.614L248.229 353.326L248.6 350.349ZM249.252 350.107L248.081 350.375L248.749 353.3L249.92 353.032L249.252 350.107ZM200.863 142.259L248.123 351.9L251.049 351.24L203.79 141.599L200.863 142.259Z" fill="#245BC6"/>
<rect width="214.116" height="211.257" rx="105.629" transform="matrix(0.974861 -0.222812 0.219913 0.975519 60.4053 53.7739)" fill="white" stroke="#245BC6" stroke-width="14"/>
<path d="M157.949 173.494L221.963 149.995L222.102 91.7975L159.485 115.272L157.949 173.494ZM222.018 126.895L158.564 150.188L158.84 139.71L222.043 116.509L222.018 126.895ZM222.077 102.184L159.222 125.257L159.485 115.272L222.102 91.7975L222.077 102.184ZM221.963 149.995L157.949 173.494L158.225 163.015L221.988 139.609L221.963 149.995Z" fill="#245BC6"/>
</g>
<defs>
<clipPath id="clip0_249_1988">
<rect width="381" height="340" fill="white"/>
</clipPath>
</defs>
</svg>
