<svg width="381" height="340" viewBox="0 0 381 340" fill="none" xmlns="http://www.w3.org/2000/svg">
<g clip-path="url(#clip0_249_1988)">
<rect width="381" height="340" fill="white"/>
<path fill-rule="evenodd" clip-rule="evenodd" d="M200.355 138.609L185.712 136.061L156.845 345.01L170.679 353.413L200.355 138.609Z" fill="#A5C827"/>
<path d="M185.712 136.061L185.956 134.582L184.437 134.318L184.227 135.843L185.712 136.061ZM200.355 138.609L201.84 138.827L202.04 137.381L200.6 137.131L200.355 138.609ZM156.845 345.01L155.36 344.792L155.224 345.775L156.075 346.292L156.845 345.01ZM170.679 353.413L169.909 354.695L171.854 355.876L172.164 353.631L170.679 353.413ZM185.467 137.539L200.11 140.088L200.6 137.131L185.956 134.582L185.467 137.539ZM158.33 345.228L187.197 136.278L184.227 135.843L155.36 344.792L158.33 345.228ZM171.449 352.132L157.614 343.729L156.075 346.292L169.909 354.695L171.449 352.132ZM198.87 138.391L169.194 353.195L172.164 353.631L201.84 138.827L198.87 138.391Z" fill="#A5C827"/>
<rect width="325.235" height="129.864" rx="14" transform="matrix(0.983204 0.187625 -0.148441 0.988227 45.7549 29.8037)" fill="white" stroke="#A5C827" stroke-width="11"/>
<path d="M141.821 146.146L218.196 159.88L251.797 102.809L176.808 89.8555L141.821 146.146ZM231.533 137.227L155.826 123.614L162.123 113.483L237.53 127.042L231.533 137.227ZM245.801 112.994L170.808 99.5089L176.808 89.8555L251.797 102.809L245.801 112.994ZM218.196 159.88L141.821 146.146L148.118 136.015L224.193 149.695L218.196 159.88Z" fill="#A5C827"/>
</g>
<defs>
<clipPath id="clip0_249_1988">
<rect width="381" height="340" fill="white"/>
</clipPath>
</defs>
</svg>
