<svg width="442" height="74" viewBox="0 0 442 74" fill="none" xmlns="http://www.w3.org/2000/svg">
<g clip-path="url(#clip0_270_5038)">
<rect width="442" height="74" fill="#A5C827"/>
<path d="M385.835 52.2802L406.437 4.17914L421.754 4V4.89574C413.155 5.07488 411.811 4.71659 411.811 12.7782V61.9541C411.811 66.3432 415.931 65.8058 420.141 65.9849V66.8807H398.106V65.9849C402.316 65.8058 406.437 66.3432 406.437 61.9541V10.3597L381.087 70.374H380.281L380.46 9.10569C380.46 4.62701 376.34 5.25403 372.13 5.07488V4.17914C380.46 4.17914 385.835 4.17914 394.165 4.17914V5.07488C389.955 5.25403 385.835 4.62701 385.835 9.10569V52.2802Z" fill="white"/>
<path d="M265.828 44.5762C266.127 44.8151 266.455 45.054 266.813 45.2928C267.231 45.472 267.619 45.6511 267.978 45.8303C269.053 46.3677 270.187 46.8454 271.382 47.2634C272.576 47.6217 273.77 47.9502 274.964 48.2488C280.16 49.5625 285.564 50.2791 291.177 50.3985C296.85 50.5179 302.344 50.3687 307.659 49.9507C314.347 49.4729 320.916 48.3682 327.365 46.6364C333.874 44.9047 340.204 42.6952 346.355 40.008C348.266 39.172 350.147 38.3061 351.998 37.4103C353.909 36.4549 355.79 35.4696 357.641 34.4544C358.298 34.0364 358.955 33.6184 359.611 33.2004C360.328 32.7824 361.015 32.3345 361.672 31.8568C361.731 31.8568 361.761 31.8866 361.761 31.9464L363.642 34.544C363.463 34.7829 363.194 35.0516 362.836 35.3502C362.538 35.589 362.299 35.798 362.12 35.9772C361.045 36.8729 359.88 37.7089 358.626 38.4852C357.372 39.2615 356.148 40.0378 354.954 40.8141C353.64 41.6502 352.266 42.4563 350.833 43.2326C349.4 43.9492 347.997 44.636 346.623 45.2928C344.474 46.308 342.324 47.2634 340.174 48.1592C338.024 49.0549 335.815 49.8909 333.546 50.6672C327.574 52.7573 321.513 54.3995 315.362 55.5938C309.211 56.7881 302.971 57.5345 296.641 57.8331C294.671 57.9526 292.521 58.0123 290.192 58.0123C287.923 58.0123 285.624 57.9227 283.295 57.7436C280.966 57.5644 278.667 57.2658 276.398 56.8478C274.128 56.4298 272.068 55.8326 270.217 55.0563C269.441 54.7578 268.664 54.3995 267.888 53.9815C267.172 53.5635 266.485 53.0559 265.828 52.4587C265.649 52.2796 265.44 52.1004 265.201 51.9213C265.022 51.6824 264.873 51.4435 264.753 51.2047L260.274 42.4265V42.3369C260.454 41.9189 260.692 41.5307 260.991 41.1724C261.349 40.7544 261.678 40.3663 261.976 40.008C262.872 38.9331 263.827 37.9179 264.843 36.9625C265.858 35.9473 266.903 34.9919 267.978 34.0961C272.337 30.334 277.084 27.0198 282.22 24.1535C287.415 21.2871 292.64 18.779 297.895 16.6293C299.149 16.1515 300.374 15.7037 301.568 15.2857C302.822 14.8079 304.106 14.3601 305.419 13.9421C311.869 11.852 318.527 10.2695 325.394 9.19466C332.262 8.11978 339.069 7.37334 345.817 6.95533C348.206 6.77618 350.565 6.65675 352.893 6.59703C355.222 6.53732 357.581 6.53732 359.97 6.59703C360.866 6.59703 361.761 6.59703 362.657 6.59703C363.612 6.59703 364.538 6.62689 365.434 6.6866H365.523L374.749 17.8833V17.9729L315.631 34.2753H315.541L311.869 30.2445V30.1549L356.029 15.2857C355.611 15.226 355.193 15.1961 354.775 15.1961C354.416 15.1961 354.028 15.1961 353.61 15.1961C352.237 15.1364 350.863 15.1364 349.49 15.1961C348.176 15.1961 346.832 15.2558 345.459 15.3752C339.726 15.7335 333.993 16.3606 328.261 17.2563C322.588 18.0923 316.945 19.0776 311.331 20.2122C305.121 21.4065 299.09 23.198 293.237 25.5866C287.445 27.9753 281.981 31.0208 276.846 34.7231C275.353 35.7383 273.919 36.8132 272.546 37.9478C271.173 39.0824 269.829 40.3066 268.515 41.6203C268.037 42.098 267.56 42.6056 267.082 43.1431C266.664 43.6208 266.246 44.0985 265.828 44.5762Z" fill="white"/>
<path d="M201.051 66.8805V4.17896H211.71V40.098L236.343 4.17896H248.704L223.713 40.098H240.463L247.987 66.8805H237.328L232.67 50.2198H211.71V66.8805H201.051Z" fill="white"/>
<path d="M163.66 66.8805L160.256 55.2359H93.524L90.1202 66.8805H72.0264L91.1055 4.17896H162.675L181.844 66.8805H163.66ZM98.7193 37.6795H155.24L150.582 21.7354H103.377L98.7193 37.6795Z" fill="white"/>
<path d="M9.29332 67.7754C8.75588 67.6859 8.30802 67.0589 7.94972 66.7901C7.86015 65.984 7.86015 62.1323 7.94972 61.3261C7.94972 61.2366 8.57674 58.3702 8.75588 57.2953C9.0246 55.9517 10.1891 55.2351 11.6222 55.2351H19.7734C20.5796 55.2351 21.2962 54.8768 21.5649 54.1603V45.2029C21.5649 44.755 21.7441 42.7844 21.8336 42.3365V26.2133C21.8336 25.4967 21.6545 22.2721 21.5649 21.5555C21.117 20.2119 19.7734 20.4806 18.5194 20.5702C17.7132 20.6597 16.9071 20.7493 16.4592 21.5555C15.5635 24.4218 14.5782 27.3778 13.8616 30.2441C13.8616 30.5128 13.4137 32.573 13.3241 32.8417C13.3241 33.0209 13.145 33.7375 13.0554 33.9166C13.0554 34.0958 12.8763 34.6332 12.8763 34.7228C12.6971 34.9915 11.9805 35.6185 11.891 35.7081H9.83077L5.44166 34.9915C4.6355 34.8124 3.82934 34.1853 3.65019 33.3792C3.56061 32.4835 3.56061 28.3631 3.65019 27.4673L4.36677 17.9725C4.36677 17.4351 4.54592 12.419 4.6355 11.8815C4.6355 11.4337 4.81465 9.37346 4.90422 9.01517C4.99379 8.02986 5.17294 7.04455 6.24783 6.59668H9.29332C9.65162 6.68625 12.3388 6.8654 12.6075 6.8654C13.145 6.95497 18.1611 7.13412 18.6985 7.13412C21.7441 7.40284 24.7 8.11943 27.7455 8.209C28.5516 8.29858 32.1346 8.29858 32.9408 8.209C33.1199 8.209 34.7322 7.94028 35.0009 7.94028L48.5266 7.40284H53.6322C54.8863 7.58199 55.6924 9.01517 55.6924 10.0005V29.0797C56.0507 30.692 56.2299 32.3939 56.0507 34.1853C55.0654 35.5289 53.4531 35.1707 51.9304 35.4394C51.5721 35.4394 48.6161 35.8872 48.2578 35.8872C47.2725 36.0664 46.1976 35.5289 46.0185 34.4541L43.4209 24.3323C43.2417 23.6157 42.7938 22.4512 41.8981 22.3616H39.3005C38.5839 22.3616 36.7924 22.5408 36.7028 22.6304L35.9863 23.4365C35.8967 23.5261 35.7175 27.2882 35.8071 28.8109C35.8071 29.4379 36.4341 35.4394 36.4341 36.156C36.6133 37.7683 36.9716 44.9342 36.9716 46.5465C37.2403 47.3527 38.0464 47.8005 38.8526 47.9797C40.3754 48.4275 47.5412 50.219 49.064 50.5773C49.4223 50.846 50.0493 51.3835 50.1389 51.9209C50.4972 56.31 50.4972 61.147 50.4076 65.4465C50.2285 66.5214 49.7806 67.6859 48.5266 67.7754C45.8393 67.865 33.1199 68.0442 30.2535 68.0442H13.0554C12.6075 68.0442 9.92034 67.865 9.29332 67.7754ZM28.5516 62.401L28.2829 62.6697H28.5516V62.401ZM30.0744 62.6697C30.164 62.4906 29.8057 62.4906 29.8952 62.6697C29.8952 62.8489 30.0744 62.8489 30.0744 62.6697ZM31.8659 61.5949C31.8659 61.6844 31.5972 62.3114 31.5972 62.401C32.045 62.2219 32.8512 61.8636 32.1346 61.3261L31.8659 61.5949ZM26.4915 61.5949C26.2227 61.5949 26.2227 62.1323 26.4915 62.1323C26.7602 62.1323 26.7602 61.5949 26.4915 61.5949ZM30.2535 61.5949C30.3431 61.5949 30.9701 61.8636 31.0597 61.8636C31.2389 61.774 31.8659 61.2366 31.8659 61.147C31.6867 61.2366 30.9701 61.2366 30.791 60.8783C30.9701 60.7887 31.5076 60.2513 31.5972 60.0721C31.6867 60.0721 31.6867 59.893 31.5972 59.8034H29.6265V60.3408H30.0744V61.5949C30.164 61.5949 30.2535 61.5949 30.2535 61.5949ZM28.2829 61.3261C28.0142 61.3261 28.0142 61.8636 28.2829 61.8636C28.5516 61.8636 28.5516 61.3261 28.2829 61.3261ZM35.2697 61.3261C35.001 61.3261 35.001 61.8636 35.2697 61.8636C35.5384 61.8636 35.5384 61.3261 35.2697 61.3261ZM21.8336 61.147C22.1023 61.5949 22.9085 61.147 22.6398 60.8783H21.8336C21.8336 60.9678 21.8336 61.147 21.8336 61.147ZM27.0289 61.147C27.0289 61.2366 27.0289 61.3261 27.0289 61.3261C27.3872 61.6844 27.8351 60.6096 27.2976 60.6096C27.208 60.6991 27.0289 61.0574 27.0289 61.147ZM28.8204 61.147V61.3261H29.0891V61.147H28.8204ZM36.4341 61.147C36.4341 61.147 37.2403 61.6844 37.2403 61.147C37.0611 61.0574 36.3445 60.2513 36.1654 60.0721V59.5347C36.1654 59.5347 36.0758 59.5347 35.9863 59.5347C35.2697 59.9825 36.1654 60.8783 36.4341 61.147ZM24.4313 60.6096C24.1625 60.6096 24.1625 61.147 24.4313 61.147C24.6104 61.147 24.6104 60.6096 24.4313 60.6096ZM38.0464 60.6096C38.136 60.7887 38.4047 60.9678 38.5839 60.8783C38.8526 60.3408 39.0318 59.2659 38.0464 59.5347V60.6096ZM23.4459 60.3408C23.5355 60.6991 23.8938 60.6991 24.1625 60.6096C23.9834 60.4304 23.8043 60.1617 23.7147 59.8034C23.5355 59.893 23.2668 60.1617 23.4459 60.3408ZM24.8791 60.0721C24.9687 60.1617 25.1479 60.3408 25.1479 60.3408L26.7602 59.8034C27.0289 59.7138 25.7749 58.9077 25.6853 58.8181C25.5061 58.9972 24.7 59.6242 24.8791 60.0721ZM28.0142 60.0721C28.1038 60.2513 28.2829 60.52 28.5516 60.3408V58.8181C27.4768 58.4598 27.7455 59.6242 28.0142 60.0721ZM32.1346 59.8034C32.3137 60.8783 33.1199 60.2513 32.9408 59.8034H32.1346ZM38.3152 60.0721C38.4943 60.1617 38.4943 60.3408 38.3152 60.3408C38.136 60.4304 38.136 60.0721 38.3152 60.0721ZM39.8379 59.5347C39.5692 59.5347 39.5692 60.0721 39.8379 60.0721C40.1066 60.0721 40.1066 59.5347 39.8379 59.5347ZM33.6573 59.2659C33.6573 59.3555 34.1052 59.5347 34.1948 59.5347C34.2844 59.6242 34.8218 59.6242 35.0009 59.5347C34.3739 59.5347 35.0905 58.8181 35.0009 58.5494C34.6426 58.3702 34.1948 58.9972 34.1948 59.0868C33.5678 58.7285 34.1052 58.5494 34.1948 58.3702C34.1948 58.2806 34.0156 57.5641 34.4635 57.5641C34.4635 57.5641 34.9114 57.8328 35.0009 57.8328C35.0905 57.8328 36.0758 58.0119 36.1654 58.1015C37.2403 58.3702 36.255 59.0868 37.2403 59.5347L37.509 59.2659V57.5641C37.4194 57.5641 36.882 57.3849 36.7028 57.2953C36.7028 57.2058 36.7028 57.0266 36.7028 57.0266H37.7777C38.0465 56.3996 36.9716 56.31 36.7028 56.4892C36.5237 56.5787 36.0758 57.3849 35.9863 57.5641H35.8071C35.628 57.3849 34.8218 56.6683 34.7322 56.4892C34.7322 56.3996 35.0905 56.2204 35.2697 56.2204C35.2697 56.2204 35.4488 56.4892 35.5384 56.4892C36.1654 56.4892 36.6133 55.8622 36.4341 55.2351C35.8071 55.1456 34.2844 55.5934 33.9261 56.2204C34.9114 56.5787 33.3886 58.7285 32.9408 57.8328V59.0868C33.0303 59.0868 33.5678 59.2659 33.6573 59.2659ZM39.3005 59.0868V59.5347H39.5692V58.8181C39.4796 58.8181 39.3005 58.9972 39.3005 59.0868ZM25.6853 59.0868C25.954 59.0868 25.954 59.5347 25.6853 59.5347C25.4166 59.5347 25.4166 59.0868 25.6853 59.0868ZM30.0744 58.8181C30.164 58.8181 30.5223 59.5347 30.791 59.2659C31.0597 59.1764 31.5972 58.4598 31.5972 58.3702C31.5972 58.1911 31.1493 57.3849 31.0597 57.2953V56.7579C30.9701 56.8475 30.6118 57.0266 30.5223 57.0266C30.5223 57.0266 30.3431 57.0266 30.2535 57.0266C29.8057 57.6536 29.7161 58.1015 30.0744 58.8181ZM25.4166 58.5494C25.5061 58.3702 25.1479 58.3702 25.1479 58.5494C25.2374 58.6389 25.4166 58.6389 25.4166 58.5494ZM26.7602 58.1015C26.4915 58.1015 26.4915 58.5494 26.7602 58.5494C27.0289 58.5494 27.0289 58.1015 26.7602 58.1015ZM41.1815 58.1015C40.9128 58.1015 40.9128 58.5494 41.1815 58.5494C41.4502 58.5494 41.4502 58.1015 41.1815 58.1015ZM24.6104 57.8328C24.4313 57.8328 24.4313 58.3702 24.6104 58.3702C24.8791 58.3702 24.8791 57.8328 24.6104 57.8328ZM28.5516 57.0266C28.5516 57.0266 28.7308 57.2953 28.8204 57.2953C29.1787 56.7579 30.791 56.2204 30.5223 55.683C30.164 55.9517 28.1933 56.3996 28.5516 57.0266ZM31.3284 57.0266C31.3284 57.1162 31.5076 57.2953 31.5972 57.2953H32.9408C33.1199 56.8475 32.5825 55.9517 32.1346 56.2204C32.045 56.1309 32.045 55.7726 32.1346 55.683C32.672 55.2351 33.6573 55.7726 33.6573 54.429C32.672 54.6977 32.4929 54.0707 32.672 53.175C32.4929 53.0854 31.7763 53.0854 31.5972 53.175C31.2389 53.3541 30.7014 54.0707 30.791 54.1603L31.0597 54.429L31.3284 53.8915C31.418 53.9811 31.5972 54.3394 31.5972 54.429C31.5972 54.5185 31.3284 54.9664 31.3284 54.9664V57.0266ZM38.0464 56.2204C38.0464 56.3996 38.3152 57.1162 38.3152 57.2953H38.8526C39.5692 56.7579 38.3152 56.31 38.0464 55.9517C38.0464 56.0413 38.0464 56.2204 38.0464 56.2204ZM26.2227 56.7579C26.0436 56.6683 26.0436 57.0266 26.2227 57.0266C26.4019 56.937 26.4019 56.7579 26.2227 56.7579ZM36.1654 56.4892C35.9863 56.4892 35.9863 57.0266 36.1654 57.0266C36.4341 57.0266 36.4341 56.4892 36.1654 56.4892ZM28.2829 56.2204C28.0142 56.2204 28.0142 56.7579 28.2829 56.7579C28.5516 56.7579 28.5516 56.2204 28.2829 56.2204ZM39.5692 56.2204C39.3005 56.2204 39.3005 56.7579 39.5692 56.7579C39.8379 56.7579 39.8379 56.2204 39.5692 56.2204ZM35.5384 55.5039C35.8071 55.5039 35.8071 55.9517 35.5384 55.9517C35.2697 55.9517 35.2697 55.5039 35.5384 55.5039ZM28.0142 55.2351C27.7455 55.2351 27.7455 55.683 28.0142 55.683C28.2829 55.683 28.2829 55.2351 28.0142 55.2351ZM28.5516 54.9664V55.5039L29.6265 55.2351C29.7161 55.2351 29.7161 54.8768 29.6265 54.6977C29.0891 54.0707 28.6412 54.5185 28.5516 53.6228C28.0142 54.0707 28.4621 54.5186 28.5516 54.9664ZM31.8659 55.2351C32.1346 55.2351 32.1346 55.683 31.8659 55.683C31.5971 55.683 31.5971 55.2351 31.8659 55.2351ZM31.5972 54.9664C31.8659 54.9664 31.8659 55.5039 31.5972 55.5039C31.3284 55.5039 31.3284 54.9664 31.5972 54.9664ZM34.1948 54.9664C34.1948 55.056 34.1948 55.2351 34.1948 55.2351C34.6426 55.5039 34.9114 54.6977 34.4635 54.429C34.3739 54.5185 34.1948 54.8768 34.1948 54.9664ZM38.5839 54.9664C38.6735 55.1456 38.8526 55.3247 39.0318 55.2351C39.0318 55.1456 38.9422 54.7873 38.8526 54.6977H38.5839C38.5839 54.7873 38.5839 54.9664 38.5839 54.9664ZM30.2535 54.6977C30.0744 54.6977 30.0744 55.2351 30.2535 55.2351C30.5223 55.2351 30.5223 54.6977 30.2535 54.6977ZM32.1346 54.6977C32.4033 54.6977 32.4033 55.2351 32.1346 55.2351C31.8659 55.2351 31.8659 54.6977 32.1346 54.6977ZM31.8659 54.429C32.1346 54.429 32.1346 54.9664 31.8659 54.9664C31.5971 54.9664 31.5971 54.429 31.8659 54.429ZM36.1654 53.6228C36.255 53.8915 36.4341 54.429 36.4341 54.429C36.5237 54.5185 36.7028 54.5185 36.7028 54.429L37.509 53.4437C36.5237 54.0707 36.7028 53.1749 36.1654 53.4437V53.6228ZM34.7322 53.4437C34.4635 53.4437 34.4635 53.8915 34.7322 53.8915C35.0009 53.8915 35.0009 53.4437 34.7322 53.4437ZM30.791 52.4584V53.4437L31.5972 52.6375L31.0597 52.1896C31.0597 52.1896 30.791 52.3688 30.791 52.4584ZM32.4033 51.9209V52.1896H32.672L32.4033 51.9209ZM29.0891 51.6522C28.9995 51.6522 28.8204 51.8313 28.8204 51.9209H29.8952V51.6522C29.7161 51.5626 29.1787 51.5626 29.0891 51.6522ZM30.791 51.1148C30.5223 51.1148 30.5223 51.6522 30.791 51.6522C31.0597 51.6522 31.0597 51.1148 30.791 51.1148ZM33.9261 51.3835C34.0156 51.2043 33.299 51.2043 33.3886 51.3835C33.4782 51.5626 33.8365 51.5626 33.9261 51.3835ZM30.5223 51.1148C30.6118 50.9356 30.2535 50.9356 30.2535 51.1148C30.3431 51.2939 30.5223 51.2939 30.5223 51.1148ZM32.1346 50.846C32.045 50.6669 31.6867 51.0252 31.8659 51.1148C32.045 51.2043 32.2242 51.0252 32.1346 50.846ZM30.791 49.3233C30.5223 49.3233 30.5223 49.7712 30.791 49.7712C31.0597 49.7712 31.0597 49.3233 30.791 49.3233ZM28.2829 17.5247C28.1934 17.3455 27.8351 17.7038 28.0142 17.7934C28.1934 17.7934 28.3725 17.6142 28.2829 17.5247ZM42.8834 17.2559V17.5247H43.6896V17.2559H42.8834ZM27.7455 16.9872V17.2559H28.0142L27.7455 16.9872ZM41.1815 16.7185V16.9872H41.4502L41.1815 16.7185ZM38.3152 16.1811V16.7185C38.763 16.9872 39.0318 16.5393 39.0318 16.1811H38.3152ZM29.6265 16.1811C29.3578 16.1811 29.3578 16.7185 29.6265 16.7185C29.8953 16.7185 29.8953 16.1811 29.6265 16.1811ZM43.6896 16.1811C43.7792 16.1811 44.1374 16.4498 44.227 16.4498H44.4958C44.5853 16.3602 45.1228 16.1811 45.2123 16.1811C44.854 15.1062 44.854 15.554 44.227 15.6436C43.6 15.7332 43.1521 15.4645 42.6147 15.9123C42.7938 15.9123 43.5104 16.0915 43.6896 16.1811ZM33.9261 15.3749V16.1811L34.7322 15.9123C34.5531 15.6436 34.1948 15.4645 33.9261 15.3749ZM32.672 15.6436V15.9123H32.9408L32.672 15.6436ZM40.1066 15.6436C39.8379 15.6436 39.8379 16.1811 40.1066 16.1811C40.3754 16.1811 40.3754 15.6436 40.1066 15.6436ZM40.9128 15.6436L40.6441 15.9123H40.9128V15.6436ZM29.3578 15.3749C29.2682 15.1957 28.9099 15.554 29.0891 15.6436C29.1787 15.7332 29.3578 15.554 29.3578 15.3749ZM31.3284 15.3749C31.418 15.4645 31.5972 15.6436 31.5972 15.6436L31.8659 14.6583C31.7763 14.7479 31.1493 15.0166 31.3284 15.3749ZM42.6147 15.1062V15.3749H42.8834L42.6147 15.1062ZM33.6573 14.927C33.3886 14.927 33.3886 15.3749 33.6573 15.3749C33.9261 15.3749 33.9261 14.927 33.6573 14.927ZM27.0289 14.3896V14.6583L27.2976 14.3896H27.0289ZM39.0318 14.3896C38.8526 14.3896 38.8526 14.927 39.0318 14.927C39.3005 14.927 39.3005 14.3896 39.0318 14.3896ZM40.9128 13.8521C40.9128 14.0313 41.092 14.5687 41.1815 14.6583C41.4502 14.927 42.8834 13.7626 42.8834 13.3147C42.7043 13.3147 40.9128 13.5834 40.9128 13.8521ZM43.4209 13.3147V14.1209C43.5104 13.9417 43.7792 13.5834 43.6896 13.3147H43.4209ZM47.3621 13.8521C47.0934 13.8521 47.0934 14.3896 47.3621 14.3896C47.5412 14.3896 47.5412 13.8521 47.3621 13.8521ZM45.4811 13.8521C45.4811 13.673 45.1228 13.673 45.2123 13.8521C45.2123 14.0313 45.3915 14.0313 45.4811 13.8521ZM47.5412 13.3147C47.3621 13.3147 47.3621 13.8521 47.5412 13.8521C47.7204 13.8521 47.7204 13.3147 47.5412 13.3147ZM40.3754 13.046V13.3147H40.9128L40.3754 13.046Z" fill="white"/>
</g>
<defs>
<clipPath id="clip0_270_5038">
<rect width="442" height="74" fill="white"/>
</clipPath>
</defs>
</svg>
