<svg width="442" height="74" viewBox="0 0 442 74" fill="none" xmlns="http://www.w3.org/2000/svg">
<g clip-path="url(#clip0_270_5169)">
<rect width="442" height="74" fill="#A5C827"/>
<path d="M385.556 5H403.023V67.7015H385.556V30.3493L313.271 54.7133V67.7015H295.804V5H313.271V35.7237L385.556 11.0014V5Z" fill="white"/>
<path d="M239.845 68.9555C239.666 68.8659 238.949 68.5076 238.77 68.5076L234.381 65.1934L227.305 58.2066C226.409 56.9526 226.409 55.4299 226.23 54.0863C225.513 49.3389 225.155 44.8602 224.976 39.9336V37.963C224.976 37.7839 225.155 36.5298 225.244 36.1715C225.513 34.2009 227.125 25.4227 227.573 23.5417C228.2 21.9293 228.917 20.5857 229.813 18.9734C231.604 15.8383 234.47 13.5094 237.247 11.1805L239.576 9.47862C239.934 9.29947 241.995 7.95586 242.711 7.68715C243.249 7.32885 245.04 6.43312 245.219 6.34354C245.846 6.16439 247.011 6.43312 247.548 6.61226L259.372 11.0014H260.626C261.701 10.6431 261.342 7.59757 261.88 6.61226L262.686 5.8061C262.776 5.8061 263.134 5.62695 263.224 5.62695H273.704C274.062 5.62695 274.51 5.98525 274.51 6.34354V8.67245C274.42 9.74734 273.704 16.7341 273.435 18.7047C273.435 19.063 272.987 21.9293 272.897 22.1981C272.629 25.0644 273.524 28.1099 269.852 28.3786C269.404 28.4682 265.373 28.6474 263.94 28.6474C262.238 28.7369 261.253 28.3786 260.895 26.6767L260.178 23.2729C259.73 21.7502 258.834 20.4066 257.76 19.2421C257.58 18.9734 256.685 18.0777 256.506 17.8985C255.878 17.3611 255.072 17.6298 254.535 17.8985L250.862 19.4213C250.325 19.69 249.16 20.0483 248.802 20.7649L248.086 22.1981C246.742 25.154 245.667 27.9308 245.488 30.9763C245.398 33.2156 244.861 43.6061 244.682 45.8455C244.682 46.7412 244.503 48.4431 244.951 49.518L249.071 57.1318C249.519 58.1171 250.325 58.8337 251.4 59.0128L256.506 59.5502C257.58 59.6398 258.566 59.3711 259.372 58.4754C260.088 57.6692 262.059 55.609 262.149 55.4299C262.328 55.1611 262.865 54.4446 262.955 54.0863C263.224 53.5488 264.746 48.7118 265.015 48.1744C265.642 46.5621 266.09 46.5621 267.792 46.6517C268.15 46.6517 269.494 46.8308 269.852 46.9204C270.927 47.0995 271.823 47.8161 271.733 48.9806C271.196 53.1905 271.375 57.7588 268.598 61.2521C267.792 62.327 264.209 66.7161 263.403 67.7014C263.134 68.1493 262.238 68.9555 261.611 68.9555L258.297 69.2242H240.83C240.741 69.2242 240.024 69.0451 239.845 68.9555ZM242.174 61.7896C242.532 62.2375 242.89 62.0583 243.159 61.7896C244.861 60.5356 241.995 60.0877 243.159 59.5502C243.069 59.2815 243.069 57.9379 243.159 57.6692C243.159 57.5796 243.338 57.2213 243.428 57.1318C243.428 56.9526 243.607 56.236 243.696 56.0569H242.711L242.89 54.8924C241.995 55.4299 238.501 55.8777 240.561 57.4005V59.2815C241.009 59.6398 241.278 57.7588 241.905 58.2066C242.353 59.5502 241.009 59.6398 240.83 59.9981C240.92 60.0877 241.278 60.2668 241.368 60.2668C241.457 60.1773 241.905 59.819 241.905 59.819L243.159 60.9834C242.89 61.1626 242.353 61.5209 242.174 61.7896ZM240.024 60.8043C240.024 60.8939 240.203 61.4313 240.293 61.5209C240.382 61.6104 240.561 61.6104 240.561 61.5209V60.5356C240.382 60.446 240.024 60.5356 240.024 60.8043ZM238.591 59.9981C238.591 59.819 238.232 59.819 238.322 59.9981C238.322 60.0877 238.501 60.0877 238.591 59.9981ZM241.099 57.9379C241.368 57.9379 241.368 58.4754 241.099 58.4754C240.83 58.4754 240.83 57.9379 241.099 57.9379ZM243.696 57.6692C243.428 57.6692 243.428 58.2066 243.696 58.2066C243.965 58.2066 243.965 57.6692 243.696 57.6692ZM241.099 57.1318C240.203 56.7735 241.457 56.3256 241.905 56.4152L242.174 56.6839C242.174 56.6839 242.353 56.6839 242.442 56.6839C242.801 57.6692 241.547 57.4005 241.099 57.1318ZM237.068 56.6839V56.9526C237.068 56.9526 237.158 56.9526 237.247 56.9526C237.605 56.863 238.591 56.5047 238.591 56.4152V55.609H238.053L237.247 56.6839H237.068ZM236.262 56.1465C236.351 56.236 236.71 56.4152 236.799 56.4152C236.889 56.1465 236.531 55.7882 236.262 55.8777C236.262 55.9673 236.262 56.1465 236.262 56.1465ZM239.039 55.609C239.397 56.5943 240.024 56.1465 239.845 55.609C239.576 54.7133 238.949 55.1611 239.039 55.609ZM236.799 55.4299C236.799 55.2507 236.441 55.2507 236.531 55.4299C236.531 55.5194 236.71 55.5194 236.799 55.4299ZM240.293 54.8924C240.293 55.4299 241.547 54.8029 241.636 54.6237V53.9071C241.726 53.728 242.263 53.1905 242.442 53.101C242.353 53.101 242.174 52.9218 242.174 52.8322L241.368 51.2199H241.099C241.099 51.3991 240.83 52.5635 240.561 52.8322C239.666 53.8175 240.024 51.6678 239.039 52.2948V51.2199C239.218 51.3095 239.755 51.4886 239.845 51.4886C240.024 51.4886 240.741 51.1303 240.83 51.0408C240.92 50.9512 240.741 50.145 240.561 49.9659C240.561 49.9659 239.934 50.0554 239.845 49.9659C238.859 49.7867 239.666 47.2787 239.576 46.6517C240.024 46.4725 240.651 47.8161 240.561 47.9953C240.561 48.0848 240.024 48.3536 240.024 48.4431C240.024 48.6223 240.472 49.4284 240.83 49.2493C240.83 49.0701 241.009 48.3536 241.099 48.1744L241.368 47.9953C241.368 47.9057 241.368 47.7265 241.368 47.7265L241.099 47.4578C240.92 46.8308 241.547 46.4725 241.368 45.8455H240.561L241.099 44.5915C241.099 44.5915 240.92 44.4123 240.83 44.3227C240.651 44.2332 240.114 43.8749 240.024 43.8749C239.666 43.6062 239.487 44.5915 239.039 43.8749C239.755 43.5166 238.949 42.9791 239.039 42.5313C239.666 42.3521 239.755 42.8 240.024 43.0687C240.293 43.2479 242.084 42.4417 241.636 41.8147C241.188 41.7251 240.561 41.9043 240.293 42.3521L239.845 41.8147C239.934 41.7251 240.293 41.3668 240.293 41.2772C240.651 40.6502 239.845 40.5606 239.845 39.9336C239.845 39.5753 240.472 39.3962 240.293 38.9483H239.845V38.7692C239.934 38.6796 240.561 38.3213 240.561 38.2317C240.741 37.963 241.099 36.8881 241.099 36.6194C239.576 36.709 239.397 34.2009 238.053 34.8279C237.964 34.9175 237.785 35.3654 237.785 35.3654C237.695 35.455 237.516 35.6341 237.516 35.6341C236.889 35.9924 237.068 34.8279 237.516 34.5592C238.232 34.2009 238.412 34.5592 238.77 33.7531C239.666 32.499 238.86 32.1407 240.293 31.245C239.755 30.7971 239.666 29.8118 239.845 29.1848C239.845 29.1848 240.293 28.4682 240.561 28.6474V27.7516C240.472 27.7516 240.114 27.9308 240.024 27.9308H239.845C239.487 28.4682 239.576 29.1848 238.591 28.9161C238.68 28.5578 239.487 27.7516 239.307 27.2142C239.128 27.3038 238.412 27.9308 238.322 28.1099C238.232 28.1995 238.232 28.5578 238.322 28.6474C238.232 28.7369 238.053 28.7369 238.053 28.6474C237.964 28.6474 237.337 27.9308 237.247 27.9308C235.277 26.4976 234.381 28.3786 235.187 28.3786C235.277 28.3786 235.635 28.1995 235.724 28.1099C236.083 29.0952 234.47 29.0057 234.918 29.7222C235.097 29.8118 235.635 29.8118 235.724 29.7222C235.814 29.7222 235.904 29.2744 235.993 29.1848C236.262 29.0057 236.71 29.1848 236.799 29.4535L236.262 29.991C236.262 30.0805 236.262 30.5284 236.262 30.5284C236.262 30.5284 235.635 30.7971 235.456 30.7971H234.918C234.918 30.7971 234.202 30.3493 234.381 29.991H233.933V31.7824C233.485 31.9616 233.843 32.2303 233.664 32.5886C233.575 32.9469 232.769 33.6635 233.396 34.0218C234.112 34.4696 235.456 33.2156 235.724 32.8573C235.904 33.8426 235.545 34.6488 235.187 35.6341C235.187 35.7237 234.918 36.082 234.918 36.1715C234.918 36.2611 235.456 36.7986 235.456 36.8881C235.456 36.8881 235.456 37.0673 235.456 37.1569C235.187 37.6047 234.47 37.336 234.65 36.8881C234.47 36.7986 234.202 36.9777 234.202 37.1569C233.843 36.709 233.843 36.082 234.202 35.6341C233.843 35.455 232.679 36.7986 232.948 37.1569C232.948 37.0673 233.396 37.0673 233.396 37.1569C233.664 37.2464 234.291 37.963 234.381 38.2317C234.023 38.3213 233.306 38.4109 232.948 38.7692C233.485 38.7692 232.948 39.4858 232.948 39.4858C232.948 39.5753 233.306 39.9336 233.396 39.9336C232.5 40.4711 232.141 39.217 231.604 38.9483C231.425 38.8587 230.529 38.8587 230.35 38.9483C230.081 39.4858 231.694 40.0232 230.35 40.4711C230.081 40.5607 229.006 41.3668 229.813 41.546H230.887C230.887 41.546 231.246 41.7251 231.335 41.8147C231.694 41.9938 232.679 42.5313 232.679 42.5313V43.3374H232.948C232.948 43.3374 232.948 43.5166 232.948 43.6062C232.858 43.6062 232.679 43.7853 232.679 43.8749L232.948 44.3227C232.948 44.5019 232.679 44.8602 232.679 44.8602L233.216 44.5915V45.5768C233.127 45.6663 232.948 45.8455 232.948 45.8455C232.858 45.9351 232.948 46.8308 232.948 46.9204C232.858 47.0995 232.679 47.8161 232.679 47.9953L232.41 47.7265C232.321 47.7265 232.141 47.9057 232.141 47.9953C231.962 48.1744 231.425 49.2493 231.335 49.518C231.694 48.9806 232.589 49.518 233.216 49.518C233.396 49.4284 235.008 49.2493 235.187 49.2493C235.277 49.2493 235.456 49.2493 235.456 49.2493C235.545 49.4284 235.724 50.3242 235.724 50.5033C235.724 50.5929 235.724 50.772 235.724 50.772C235.724 51.1303 235.545 52.9218 235.456 53.3697C235.635 53.8175 235.904 54.0863 236.262 54.355C236.889 54.355 235.456 52.0261 237.068 52.5635V53.3697C237.068 53.4592 237.247 53.8175 237.247 53.9071C237.247 53.9071 237.068 53.9967 237.068 54.0863C236.71 54.7133 237.964 54.8924 238.322 54.355C238.501 53.9967 237.785 53.9071 238.053 53.3697H238.949V54.0863H239.576L239.307 53.9071L240.561 53.6384C241.188 53.4592 240.741 54.6237 240.293 54.8924ZM236.531 54.6237C236.262 54.6237 236.262 55.1611 236.531 55.1611C236.799 55.1611 236.799 54.6237 236.531 54.6237ZM242.174 54.6237V54.8924L242.442 54.6237H242.174ZM241.368 53.101C241.636 53.101 241.636 53.6384 241.368 53.6384C241.099 53.6384 241.099 53.101 241.368 53.101ZM238.591 51.7573C238.77 51.7573 238.77 52.2948 238.591 52.2948C238.322 52.2948 238.322 51.7573 238.591 51.7573ZM236.799 51.2199H237.068V51.4886L236.799 51.2199ZM231.873 50.5033V51.0408C232.052 51.1303 232.768 51.1303 232.948 51.0408C232.948 51.0408 233.127 50.8616 233.216 50.772C232.858 50.5033 232.321 50.4137 231.873 50.5033ZM238.591 50.772L238.77 51.0408H238.591V50.772ZM236.531 50.5033C236.441 50.5033 236.262 50.0554 236.262 49.9659C236.351 50.0554 236.71 50.0554 236.799 49.9659C236.799 49.9659 236.978 49.7867 237.068 49.7867C238.053 48.9806 238.322 50.145 237.785 50.2346C237.695 50.3242 237.068 50.2346 237.068 50.2346C236.978 50.3242 236.799 50.6825 236.799 50.772C236.71 50.772 236.531 50.5929 236.531 50.5033ZM233.664 50.2346C233.664 50.3242 233.664 50.5033 233.664 50.5033H234.202V49.7867C234.112 49.7867 233.754 50.145 233.664 50.2346ZM231.156 50.2346C231.156 50.145 230.798 50.145 230.887 50.2346C230.887 50.4137 231.067 50.4137 231.156 50.2346ZM238.591 49.518C238.77 49.518 238.77 49.9659 238.591 49.9659C238.322 49.9659 238.322 49.518 238.591 49.518ZM235.993 48.9806C236.262 48.9806 236.262 49.518 235.993 49.518C235.724 49.518 235.724 48.9806 235.993 48.9806ZM237.247 48.7118C237.516 48.7118 237.516 49.2493 237.247 49.2493C237.068 49.2493 237.068 48.7118 237.247 48.7118ZM234.202 48.4431C234.202 48.264 234.47 48.1744 234.65 48.1744C234.739 48.1744 234.739 48.3536 234.65 48.4431C234.56 48.4431 234.202 48.7118 234.202 48.7118C234.202 48.6223 234.202 48.4431 234.202 48.4431ZM235.456 48.1744C235.724 48.1744 235.724 48.7118 235.456 48.7118C235.187 48.7118 235.187 48.1744 235.456 48.1744ZM236.799 47.9953C236.531 47.2787 238.143 47.1891 237.785 48.1744C237.516 48.891 236.889 48.264 236.799 47.9953ZM239.845 47.9953C239.576 47.9953 239.576 48.4431 239.845 48.4431C240.024 48.4431 240.024 47.9953 239.845 47.9953ZM234.202 47.7265C234.381 47.7265 234.381 48.1744 234.202 48.1744C233.933 48.1744 233.933 47.7265 234.202 47.7265ZM235.456 47.7265C235.724 47.7265 235.724 48.1744 235.456 48.1744C235.187 48.1744 235.187 47.7265 235.456 47.7265ZM234.918 47.4578C235.187 47.4578 235.187 47.9953 234.918 47.9953C234.65 47.9953 234.65 47.4578 234.918 47.4578ZM231.156 47.1891C230.887 47.1891 230.887 47.7265 231.156 47.7265C231.335 47.7265 231.335 47.1891 231.156 47.1891ZM233.396 47.1891C233.843 46.4725 235.008 46.4725 234.65 47.4578H233.664C233.664 47.4578 233.485 47.2787 233.396 47.1891ZM236.531 47.1891C236.799 47.1891 236.799 47.7265 236.531 47.7265C236.262 47.7265 236.262 47.1891 236.531 47.1891ZM231.873 46.6517C231.694 46.5621 231.694 47.2787 231.873 47.1891C232.052 47.0995 232.052 46.7412 231.873 46.6517ZM237.068 46.1142C236.978 46.1142 236.799 46.1142 236.799 46.1142C236.262 45.7559 237.964 45.308 238.322 45.8455V46.3829C237.695 46.4725 237.516 46.2934 237.068 46.1142ZM238.77 45.1289C239.039 45.1289 239.039 45.5768 238.77 45.5768C238.591 45.5768 238.591 45.1289 238.77 45.1289ZM232.141 44.8602V45.1289L232.41 44.8602H232.141ZM240.024 44.5915H240.561L240.024 44.8602V44.5915ZM230.081 44.1436V44.3227H230.887V43.6062C230.529 43.3374 230.081 44.054 230.081 44.1436ZM241.099 43.3374C241.188 43.1583 240.83 43.1583 240.83 43.3374C240.92 43.427 241.099 43.427 241.099 43.3374ZM232.679 40.7398C232.589 40.7398 232.589 40.5607 232.679 40.4711H232.948V41.2772C232.858 41.1877 232.679 40.8294 232.679 40.7398ZM240.83 40.4711C240.83 40.6502 241.009 41.1877 241.099 41.2772C241.457 41.0981 242.084 40.2024 241.368 39.9336C241.278 40.0232 240.83 40.3815 240.83 40.4711ZM230.887 40.4711C231.156 40.4711 231.156 41.0085 230.887 41.0085C230.619 41.0085 230.619 40.4711 230.887 40.4711ZM232.141 40.2024V40.7398H231.604L232.141 40.2024ZM236.262 40.2024C236.441 40.2919 236.441 40.4711 236.262 40.4711C236.083 40.5607 236.083 40.2024 236.262 40.2024ZM240.83 39.6649C240.651 39.6649 240.651 40.0232 240.83 39.9336C241.009 39.9336 241.009 39.7545 240.83 39.6649ZM231.156 38.9483C231.335 38.9483 231.335 39.4858 231.156 39.4858C230.887 39.4858 230.887 38.9483 231.156 38.9483ZM232.679 38.2317C232.41 38.2317 232.41 38.7692 232.679 38.7692C232.948 38.7692 232.948 38.2317 232.679 38.2317ZM237.068 37.4256C237.068 37.1569 237.158 36.6194 237.516 36.4403C237.874 36.2611 238.501 37.4256 238.591 37.6943H237.068C237.068 37.6047 237.068 37.4256 237.068 37.4256ZM239.845 36.6194C240.024 36.6194 240.024 37.1569 239.845 37.1569C239.576 37.1569 239.576 36.6194 239.845 36.6194ZM236.531 36.4403H236.799L236.531 36.6194V36.4403ZM233.396 35.3654C233.216 35.3654 233.216 35.9028 233.396 35.9028C233.664 35.9028 233.664 35.3654 233.396 35.3654ZM232.141 35.0967V35.3654H232.41L232.141 35.0967ZM238.77 35.0967C239.039 35.0967 239.039 35.6341 238.77 35.6341C238.591 35.6341 238.591 35.0967 238.77 35.0967ZM240.024 35.0967C240.293 35.3654 241.547 35.455 241.099 34.8279C241.099 34.8279 240.651 34.3801 240.561 34.2905L240.024 33.3052C240.024 33.3052 239.934 33.126 239.845 33.126L239.576 33.3052C240.114 33.4843 239.576 34.5592 240.024 35.0967ZM237.068 33.5739L236.531 33.126C236.351 32.8573 237.247 31.4241 237.516 31.245C237.247 31.3346 236.889 30.9763 237.068 30.7971C237.605 30.8867 237.964 30.3493 238.591 30.5284C239.576 30.7971 237.158 34.5592 237.068 34.2905V33.5739ZM238.322 33.7531C238.591 33.7531 238.591 34.2905 238.322 34.2905C238.053 34.2905 238.053 33.7531 238.322 33.7531ZM239.039 33.7531C238.77 33.7531 238.77 34.2905 239.039 34.2905C239.307 34.2905 239.307 33.7531 239.039 33.7531ZM234.202 32.5886C234.202 32.499 234.56 32.3199 234.65 32.3199C234.739 32.3199 234.918 32.3199 234.918 32.3199C235.097 32.499 234.202 32.9469 234.202 33.3052V32.5886ZM238.77 32.8573C238.77 32.9469 238.591 32.9469 238.591 32.8573C238.501 32.6782 238.86 32.6782 238.77 32.8573ZM235.187 31.245C235.277 31.245 235.456 31.245 235.456 31.245C235.545 31.245 235.545 31.4241 235.456 31.5137C235.366 31.6033 234.829 31.7824 234.65 31.7824L235.187 31.245ZM235.993 31.245C236.262 31.245 236.262 31.7824 235.993 31.7824C235.724 31.7824 235.724 31.245 235.993 31.245ZM240.561 30.5284L240.83 30.7971V30.2597L240.561 30.5284ZM238.053 29.4535C238.053 29.5431 238.053 29.7222 238.053 29.7222C237.964 29.8118 237.605 29.991 237.516 29.991L238.053 29.4535ZM240.561 29.7222C240.293 29.7222 240.293 30.2597 240.561 30.2597C240.83 30.2597 240.83 29.7222 240.561 29.7222ZM240.561 29.1848C240.293 29.1848 240.293 29.7222 240.561 29.7222C240.83 29.7222 240.83 29.1848 240.561 29.1848ZM237.785 27.4829C237.516 27.4829 237.516 27.9308 237.785 27.9308C238.053 27.9308 238.053 27.4829 237.785 27.4829ZM237.516 27.4829C237.516 27.3038 237.158 27.3038 237.247 27.4829C237.247 27.5725 237.426 27.5725 237.516 27.4829ZM240.024 26.9455C239.934 26.8559 239.934 27.2142 240.024 27.2142C240.203 27.1246 240.203 26.9455 240.024 26.9455ZM237.247 26.408L237.785 26.9455V26.408H237.247ZM238.77 26.9455C238.86 26.7663 238.501 26.7663 238.591 26.9455C238.591 27.035 238.77 27.035 238.77 26.9455ZM238.322 26.408C238.053 26.408 238.053 26.9455 238.322 26.9455C238.591 26.9455 238.591 26.408 238.322 26.408ZM239.307 25.0644C239.397 25.154 239.576 26.0497 239.576 26.408C239.576 26.408 239.576 26.5872 239.576 26.6767C240.024 26.1393 240.024 25.0644 240.024 24.6166C238.86 24.2583 238.591 25.4227 237.785 25.0644V25.6019C237.874 25.6914 238.412 25.6914 238.591 25.6019C238.591 25.6019 238.77 25.154 238.77 25.0644C238.86 25.0644 239.039 24.8853 239.039 24.8853C239.128 24.8853 239.307 25.0644 239.307 25.0644ZM235.187 25.8706C235.008 25.781 235.008 26.1393 235.187 26.1393C235.366 26.0497 235.366 25.8706 235.187 25.8706ZM238.77 26.1393C238.86 25.9602 238.501 25.9602 238.591 26.1393C238.591 26.3185 238.77 26.3185 238.77 26.1393ZM236.531 25.6019V25.8706H236.799L236.531 25.6019ZM236.799 24.6166C236.799 24.6166 237.516 25.154 237.516 24.6166C237.516 24.6166 236.889 24.1687 237.068 23.8104C236.889 23.6312 236.172 24.1687 236.799 24.6166ZM239.845 23.5417C239.576 23.5417 239.576 24.0791 239.845 24.0791C240.024 24.0791 240.024 23.5417 239.845 23.5417ZM238.322 23.5417C238.322 23.3625 237.964 23.3625 238.053 23.5417C238.053 23.7208 238.232 23.7208 238.322 23.5417ZM239.039 23.2729V23.5417H239.576C239.487 23.3625 239.307 23.1834 239.039 23.2729ZM237.785 22.7355L237.516 23.2729C237.695 23.1834 237.874 23.0042 237.785 22.7355ZM238.322 19.69C238.053 19.69 238.053 20.2274 238.322 20.2274C238.591 20.2274 238.591 19.69 238.322 19.69ZM238.77 19.69C238.591 19.69 238.591 20.2274 238.77 20.2274C239.039 20.2274 239.039 19.69 238.77 19.69ZM239.845 17.0924C239.576 17.0924 239.576 17.6298 239.845 17.6298C240.024 17.6298 240.024 17.0924 239.845 17.0924ZM260.178 16.3758L260.895 16.6445V16.3758H260.178ZM262.417 16.1966C262.238 16.1071 262.238 16.6445 262.417 16.6445C262.597 16.5549 262.597 16.1966 262.417 16.1966ZM259.641 16.1966C259.372 16.1966 259.372 16.6445 259.641 16.6445C259.909 16.6445 259.909 16.1966 259.641 16.1966ZM265.015 15.6592V16.3758C265.015 16.3758 265.642 15.6592 265.015 15.6592ZM258.834 15.3905C258.566 15.3905 258.566 15.9279 258.834 15.9279C259.103 15.9279 259.103 15.3905 258.834 15.3905ZM260.895 15.3905L260.626 15.6592H260.895V15.3905ZM266.986 14.853C267.075 14.6739 266.717 14.6739 266.717 14.853C266.806 15.0322 266.986 15.0322 266.986 14.853ZM266.717 13.3303C266.806 13.1511 266.448 13.1511 266.448 13.3303C266.538 13.5094 266.717 13.5094 266.717 13.3303Z" fill="white"/>
<path d="M170.416 29.9908C173.999 28.4382 177.522 26.8856 180.986 25.333C184.509 23.7206 188.062 22.1382 191.645 20.5856C195.586 18.8538 199.527 17.1519 203.469 15.4799C207.41 13.7481 211.351 12.0462 215.292 10.3742C216.666 9.83672 217.98 9.29928 219.234 8.76184C220.547 8.16468 221.891 7.59738 223.264 7.05994C223.324 7.05994 223.503 7.00022 223.802 6.88079C224.16 6.70165 224.518 6.55236 224.877 6.43293C225.295 6.25378 225.653 6.10449 225.952 5.98506C226.25 5.86562 226.429 5.80591 226.489 5.80591C226.728 5.80591 226.907 6.1642 227.026 6.88079C227.206 7.53767 227.325 8.31397 227.385 9.2097C227.444 10.0457 227.415 10.8519 227.295 11.6282C227.235 12.3448 227.056 12.7927 226.758 12.9718C223.235 14.4647 219.741 15.9576 216.278 17.4505C212.814 18.9434 209.291 20.4363 205.708 21.9292C203.2 22.9443 200.662 23.9296 198.094 24.8851C195.586 25.8405 193.048 26.8258 190.48 27.841C189.107 28.3187 187.734 28.8263 186.36 29.3638C185.046 29.9012 183.703 30.4088 182.329 30.8865C182.09 31.5434 181.852 32.2003 181.613 32.8571C181.434 33.514 181.284 34.1709 181.165 34.8278C181.045 35.5443 180.896 36.2609 180.717 36.9775C180.598 37.6344 180.478 38.3211 180.359 39.0377C180 40.4709 179.642 41.9339 179.284 43.4268C178.925 44.86 178.657 46.323 178.478 47.8159C178.418 48.1742 178.358 48.6221 178.298 49.1595C178.298 49.6373 178.298 50.1448 178.298 50.6823C178.298 51.16 178.358 51.6377 178.478 52.1155C178.597 52.5932 178.806 52.9515 179.105 53.1903C179.224 53.3098 179.403 53.4292 179.642 53.5486C180.418 53.8472 181.284 53.9965 182.24 53.9965C183.255 53.9965 184.24 53.9069 185.196 53.7278C186.211 53.4889 187.196 53.2202 188.152 52.9216C189.107 52.623 189.943 52.3245 190.66 52.0259C192.272 51.369 193.884 50.6226 195.497 49.7865C197.169 48.9505 198.751 48.0548 200.244 47.0993C200.483 46.9799 200.811 46.8008 201.229 46.5619C201.707 46.323 202.095 46.2932 202.394 46.4723C202.573 46.5918 202.722 46.8306 202.842 47.1889C203.021 47.4875 203.17 47.7562 203.289 47.9951C203.289 48.1742 203.11 48.4429 202.752 48.8012C202.453 49.0998 202.095 49.4282 201.677 49.7865C201.319 50.1448 200.961 50.4733 200.602 50.7719C200.244 51.0704 200.005 51.2794 199.886 51.3989C198.691 52.414 197.437 53.3695 196.124 54.2652C194.81 55.161 193.466 55.997 192.093 56.7733C191.257 57.251 190.271 57.7586 189.137 58.296C188.062 58.8335 186.927 59.2813 185.733 59.6396C184.539 59.9979 183.344 60.2069 182.15 60.2667C180.956 60.3264 179.881 60.1472 178.925 59.7292L173.014 50.6823C172.118 49.3088 171.551 47.9652 171.312 46.6515C171.133 45.278 171.133 43.9344 171.312 42.6207C171.491 41.3069 171.76 39.9932 172.118 38.6794C172.536 37.3657 172.894 35.9922 173.193 34.559C170.804 35.5742 168.415 36.5894 166.027 37.6045C163.698 38.56 161.339 39.5453 158.951 40.5605C155.487 43.7851 152.083 47.0396 148.739 50.324C145.455 53.6084 142.111 56.9524 138.707 60.3562L132.616 67.1638C132.556 67.2833 132.437 67.2534 132.258 67.0743C131.959 66.9548 131.631 66.6861 131.272 66.2681C130.914 65.7904 130.586 65.2828 130.287 64.7453C129.988 64.1482 129.72 63.5809 129.481 63.0434C129.302 62.4463 129.242 61.9984 129.302 61.6998C129.302 61.5207 129.929 60.7444 131.183 59.3709C132.496 57.9975 134.109 56.3254 136.02 54.3548C137.931 52.3842 140.021 50.2643 142.29 47.9951C144.559 45.6662 146.709 43.4865 148.739 41.4562C150.77 39.3661 152.531 37.5747 154.024 36.0818C155.517 34.5889 156.442 33.6633 156.801 33.305C157.099 33.0064 157.995 32.1107 159.488 30.6178C161.041 29.1249 162.832 27.3633 164.862 25.333C166.952 23.3026 169.162 21.1529 171.491 18.8837C173.82 16.5547 175.97 14.4348 177.94 12.5239C179.97 10.613 181.643 9.03056 182.956 7.77653C184.33 6.46278 185.076 5.80591 185.196 5.80591C185.375 5.80591 185.614 5.9552 185.912 6.25378C186.271 6.55235 186.629 6.88079 186.987 7.23909C187.345 7.59738 187.674 7.95568 187.972 8.31397C188.331 8.61255 188.57 8.82155 188.689 8.94099C188.749 9.06042 188.928 9.32914 189.226 9.74715C189.585 10.1054 189.913 10.5235 190.212 11.0012C190.57 11.4192 190.869 11.8372 191.107 12.2552C191.346 12.6135 191.376 12.8225 191.197 12.8822C189.465 14.0765 187.763 15.3306 186.091 16.6443C184.419 17.8983 182.777 19.2121 181.165 20.5856C179.373 22.1382 177.552 23.7206 175.701 25.333C173.909 26.8856 172.148 28.4382 170.416 29.9908Z" fill="white"/>
<path d="M92.2398 5H107.019L108.632 10.9119L121.709 63.5811C122.516 66.8953 125.651 66.5371 129.771 66.7162V67.7015H108.094V66.8058C112.215 66.7162 116.872 66.9849 115.977 63.3124L111.319 44.4124H96.7184L93.0459 63.5811C92.5085 66.5371 97.0767 66.5371 101.018 66.8058V67.7015H83.0137V66.8058C87.0445 66.6266 90.4483 66.8058 91.2544 63.3124L101.555 10.9119C102.272 7.23934 99.5848 6.07489 92.2398 5.89573V5ZM103.078 11.718L97.0767 42.6209H110.871L103.257 11.718H103.078Z" fill="white"/>
<path d="M52.7315 67.7015V15.1218H36.25V5H79.8723V15.1218H63.3908V67.7015H52.7315Z" fill="white"/>
</g>
<defs>
<clipPath id="clip0_270_5169">
<rect width="442" height="74" fill="white"/>
</clipPath>
</defs>
</svg>
