<svg width="442" height="74" viewBox="0 0 442 74" fill="none" xmlns="http://www.w3.org/2000/svg">
<g clip-path="url(#clip0_270_5105)">
<rect width="442" height="74" fill="#A5C827"/>
<path d="M385.573 69.9257C384.409 69.8362 379.214 69.657 378.049 69.657C376.258 69.2092 376.168 68.5821 376.258 66.6115C376.437 65.1783 376.974 58.2812 377.064 56.848C377.243 56.221 377.87 55.5044 378.587 55.3252L383.155 54.7878C383.961 54.6982 384.588 54.2504 384.767 53.5338L385.305 45.5617C385.842 38.9333 386.827 32.2153 386.559 25.5868H386.021C385.932 25.5868 385.126 26.393 384.767 26.8409C381.453 30.7821 379.303 35.5295 376.526 39.9186C376.347 40.2769 374.287 43.3224 374.018 43.7703L369.898 50.757C369.629 51.2049 368.913 52.3693 368.913 52.4589V61.2371C368.913 61.2371 368.644 61.5954 368.554 61.7746C368.375 62.0433 368.017 62.4016 367.569 62.4911C367.211 62.5807 365.688 62.7599 365.509 62.7599C364.434 62.8494 359.239 62.8494 358.074 62.7599C357.447 62.5807 356.999 62.0433 356.82 61.5058V57.5646C356.82 56.9376 357.268 51.2049 357.268 50.4883C357.268 50.2196 357.447 36.7835 357.537 31.23C357.537 28.9906 357.358 27.1096 357.268 24.7807C356.82 22.0039 352.61 24.1536 351.177 22.0039C351.088 21.8247 350.908 21.2873 350.908 21.1977C350.819 20.1228 350.64 15.465 350.64 14.4797V11.6133C350.819 11.255 351.177 10.7176 351.625 10.7176H374.287C375.272 10.7176 375.272 12.3299 375.272 12.9569L374.735 19.675C374.645 20.2124 374.287 20.8394 373.75 21.1977C372.227 22.0039 369.45 20.7498 368.823 22.8996C368.734 24.1536 368.554 29.5281 368.554 30.6925V36.3356C368.554 36.5148 368.734 37.321 368.823 37.5897C368.823 37.5897 369.002 37.8584 369.092 37.8584L369.898 37.1418C369.988 36.8731 370.973 35.0816 371.152 34.4546C371.779 33.2006 376.706 22.0935 377.243 20.6603L378.855 17.5252L379.393 16.3607C379.572 15.7337 380.916 11.4342 381.184 10.8968C382.259 8.11997 383.334 7.49295 386.29 7.31381L396.591 6.77637H399.636C401.607 6.95551 401.697 9.55314 401.697 10.8968V21.1977C401.428 22.81 397.487 22.4517 396.591 23.9745C396.501 24.0641 396.322 24.6015 396.322 24.7807C396.233 25.0494 396.053 26.2138 396.053 26.5721L395.247 36.0669L394.531 42.5162C394.531 42.7849 394.352 47.9802 394.262 49.9508C394.262 51.1153 394.172 51.384 394.531 52.1902C394.62 52.3693 394.71 52.638 394.71 52.638H399.368L400.174 53.5338C400.263 53.6234 400.263 58.8186 400.174 60.9684C400.174 61.3267 399.726 64.6409 399.636 65.0888C399.636 65.5366 399.457 68.8509 399.368 69.1196C399.368 69.657 399.009 70.6423 398.382 70.7319C397.487 70.8215 393.814 70.8215 393.008 70.7319L385.573 69.9257ZM389.873 22.8996C389.604 22.8996 389.604 23.4371 389.873 23.4371C390.142 23.4371 390.142 22.8996 389.873 22.8996ZM359.597 21.1977L359.866 21.4664C360.045 21.1081 360.134 20.7498 360.045 20.3916H359.597C359.955 20.5707 359.955 21.0186 359.597 21.1977ZM389.335 20.929C389.335 21.2873 390.052 21.1977 390.142 21.1977C390.052 21.0186 389.783 20.6603 389.873 20.3916C389.873 20.302 389.694 20.302 389.604 20.3916C389.515 20.4811 389.335 20.8394 389.335 20.929ZM363.449 20.6603C363.449 20.4811 363.09 20.4811 363.18 20.6603C363.18 20.8394 363.359 20.8394 363.449 20.6603ZM358.612 19.8541C358.522 19.9437 358.791 20.302 358.88 20.3916C358.88 20.3916 358.88 20.5707 358.88 20.6603C359.06 20.1228 360.314 19.4062 360.045 18.8688C359.597 18.8688 358.791 19.4062 358.612 19.8541ZM361.12 19.4062L361.657 20.1228C361.747 20.1228 361.926 20.1228 361.926 20.1228C362.015 19.8541 362.015 18.8688 361.926 18.6001C361.926 18.5105 361.388 18.1522 361.388 18.0626C361.388 18.0626 361.388 17.6148 361.388 17.5252C361.209 17.2565 360.314 16.719 360.045 16.5399C359.597 16.2712 359.239 17.2565 358.612 16.9878C358.701 17.2565 358.612 17.7043 358.343 17.7939C358.433 18.4209 360.851 17.9731 361.12 18.6001C361.209 18.6897 361.12 19.3167 361.12 19.4062ZM363.18 19.675C362.911 19.675 362.911 20.1228 363.18 20.1228C363.449 20.1228 363.449 19.675 363.18 19.675ZM390.142 19.675C390.142 19.9437 390.858 19.8541 390.948 19.8541C391.037 19.675 390.858 19.4958 390.679 19.4062C390.858 19.3167 391.037 19.1375 390.948 18.8688C390.589 18.6897 390.142 19.4062 390.142 19.675ZM360.582 18.8688C360.314 18.8688 360.314 19.4062 360.582 19.4062C360.851 19.4062 360.851 18.8688 360.582 18.8688ZM393.277 18.8688C393.008 18.8688 393.008 19.4062 393.277 19.4062C393.456 19.4062 393.456 18.8688 393.277 18.8688ZM362.195 18.0626C362.374 18.4209 362.732 18.4209 362.911 18.0626H362.195ZM390.142 17.7939C390.231 17.9731 390.5 18.1522 390.679 18.0626C390.589 17.8835 390.41 17.7043 390.142 17.7939ZM357.537 17.5252C357.268 17.5252 357.268 18.0626 357.537 18.0626C357.806 18.0626 357.806 17.5252 357.537 17.5252ZM360.314 17.5252L360.582 17.2565V17.7939L360.314 17.5252ZM359.149 16.3607C359.149 16.1816 358.791 16.1816 358.88 16.3607C358.88 16.4503 359.06 16.4503 359.149 16.3607ZM395.516 16.092C395.247 16.092 395.247 16.5399 395.516 16.5399C395.785 16.5399 395.785 16.092 395.516 16.092ZM390.142 15.2859L390.679 15.5546V15.2859H390.142ZM394.71 13.4944C394.531 13.4944 394.531 14.0318 394.71 14.0318C394.979 14.0318 394.979 13.4944 394.71 13.4944Z" fill="white"/>
<path d="M310.405 68.5816C293.745 68.5816 278.696 55.7726 278.696 36.2455C278.696 16.8976 293.924 4.08862 310.584 4.08862C320.885 4.08862 330.112 8.47773 335.934 17.1664L327.424 24.0635C323.573 18.1517 317.75 14.5687 310.584 14.5687C299.657 14.5687 289.714 22.9887 289.714 36.2455C289.714 49.6816 299.477 58.1015 310.584 58.1015C317.482 58.1015 323.573 55.2351 327.424 48.8754L335.576 56.1309C329.484 64.5508 320.527 68.5816 310.405 68.5816Z" fill="white"/>
<path d="M240.979 35.0815L237.038 40.5455V62.7597C237.038 67.1488 241.158 66.6114 245.368 66.7905V67.6863H223.333V66.7905C227.543 66.6114 231.663 67.1488 231.663 62.7597V9.91129C231.663 5.52219 227.543 6.05963 223.333 5.88048V4.98474C231.663 4.98474 237.038 4.98474 245.368 4.98474V5.88048C241.158 6.05963 237.038 5.52219 237.038 9.91129V37.0521C245.368 26.4824 250.474 19.854 258.446 8.83641C260.506 6.05963 254.594 6.05963 250.384 5.88048V4.98474H268.657V5.88048C264.447 6.05963 262.656 6.23877 260.416 9.28428L244.293 31.0507L266.149 62.7597C267.762 65.0886 272.24 66.6114 276.45 66.7905V67.6863H262.835L240.979 35.0815Z" fill="white"/>
<path d="M199.559 28.6327C200.634 28.7522 201.768 28.9313 202.962 29.1702C204.216 29.3493 205.291 29.7375 206.187 30.3346L211.203 35.5299V35.6195H211.114L205.023 34.5446C203.052 34.4252 201.081 34.3654 199.111 34.3654C197.2 34.3057 195.259 34.3356 193.288 34.455C191.139 36.5451 188.959 38.665 186.75 40.8147C184.6 42.9048 182.45 45.0247 180.3 47.1745L174.209 54.1612C174.15 54.2209 174.03 54.1612 173.851 53.9821C173.552 53.8626 173.224 53.5641 172.866 53.0863C172.507 52.6086 172.179 52.101 171.88 51.5636C171.582 50.9664 171.313 50.3991 171.074 49.8617C170.895 49.2645 170.835 48.8167 170.895 48.5181C170.895 48.3986 171.164 48.0105 171.701 47.3536C172.298 46.6968 173.015 45.9204 173.851 45.0247C174.687 44.129 175.583 43.1735 176.538 42.1584C177.553 41.0835 178.509 40.0683 179.405 39.1129C180.36 38.1574 181.196 37.3214 181.913 36.6048C182.629 35.8882 183.137 35.4105 183.435 35.1716C176.389 36.0076 169.581 37.3214 163.013 39.1129C156.444 40.8446 149.875 42.9645 143.306 45.4726L102.192 67.1494C102.132 67.2091 102.043 67.1792 101.923 67.0598C101.625 66.9404 101.296 66.6717 100.938 66.2536C100.58 65.7759 100.222 65.2683 99.8632 64.7309C99.5647 64.1337 99.3258 63.5664 99.1467 63.029C98.9675 62.4318 98.8779 61.984 98.8779 61.6854C98.8779 61.566 99.4751 61.148 100.669 60.4314C101.923 59.7148 103.446 58.8489 105.238 57.8337C107.089 56.8186 109.089 55.7437 111.239 54.6091C113.449 53.4148 115.509 52.31 117.42 51.2949C119.39 50.2797 121.062 49.4138 122.436 48.6972C123.809 47.9209 124.645 47.4731 124.944 47.3536C126.078 46.6968 127.213 46.0697 128.348 45.4726C129.482 44.8754 130.647 44.3081 131.841 43.7707C135.603 41.8598 139.305 39.9489 142.948 38.038C146.591 36.1271 150.263 34.2162 153.966 32.3053C160.296 29.0209 166.625 25.7664 172.955 22.5417C179.285 19.3171 185.645 16.0924 192.034 12.8678C192.214 12.8081 192.751 12.5393 193.647 12.0616C194.543 11.5839 195.617 11.0166 196.871 10.3597C198.185 9.70285 199.559 9.01612 200.992 8.29953C202.485 7.52323 203.858 6.83649 205.112 6.23934C206.366 5.58247 207.411 5.04502 208.247 4.62701C209.083 4.209 209.531 4 209.591 4C209.77 4 210.128 4.17915 210.666 4.53744C211.203 4.89573 211.771 5.31374 212.368 5.79147C212.965 6.20948 213.532 6.62749 214.07 7.0455C214.607 7.4038 214.965 7.64266 215.144 7.76209C215.264 7.88152 215.622 8.1801 216.219 8.65783C216.816 9.13555 217.384 9.67299 217.921 10.2702C218.518 10.8076 218.996 11.345 219.354 11.8825C219.772 12.3602 219.862 12.6886 219.623 12.8678C216.1 15.3161 212.666 17.854 209.322 20.4815C206.038 23.0493 202.783 25.7664 199.559 28.6327ZM168.387 32.2157C171.91 31.4394 175.433 30.7526 178.957 30.1555C182.54 29.5583 186.123 29.1105 189.706 28.8119C192.572 25.9455 195.468 23.0792 198.394 20.2128C201.32 17.3465 204.246 14.51 207.172 11.7033L168.387 32.2157Z" fill="white"/>
<path d="M126.949 4.98474V22.5412H81.535V67.6863H63.9785V22.5412H18.6543V4.98474H126.949Z" fill="white"/>
</g>
<defs>
<clipPath id="clip0_270_5105">
<rect width="442" height="74" fill="white"/>
</clipPath>
</defs>
</svg>
