<svg width="1274" height="74" viewBox="0 0 1274 74" fill="none" xmlns="http://www.w3.org/2000/svg">
<g clip-path="url(#clip0_270_5038)">
<path d="M385.835 52.2802L406.437 4.17914L421.754 4V4.89574C413.155 5.07488 411.811 4.71659 411.811 12.7782V61.9541C411.811 66.3432 415.931 65.8058 420.141 65.9849V66.8807H398.106V65.9849C402.316 65.8058 406.437 66.3432 406.437 61.9541V10.3597L381.087 70.374H380.281L380.46 9.10569C380.46 4.62701 376.34 5.25403 372.13 5.07488V4.17914C380.46 4.17914 385.835 4.17914 394.165 4.17914V5.07488C389.955 5.25403 385.835 4.62701 385.835 9.10569V52.2802Z" fill="white"/>
<path d="M265.828 44.5762C266.127 44.8151 266.455 45.054 266.813 45.2928C267.231 45.472 267.619 45.6511 267.978 45.8303C269.053 46.3677 270.187 46.8454 271.382 47.2634C272.576 47.6217 273.77 47.9502 274.964 48.2488C280.16 49.5625 285.564 50.2791 291.177 50.3985C296.85 50.5179 302.344 50.3687 307.659 49.9507C314.347 49.4729 320.916 48.3682 327.365 46.6364C333.874 44.9047 340.204 42.6952 346.355 40.008C348.266 39.172 350.147 38.3061 351.998 37.4103C353.909 36.4549 355.79 35.4696 357.641 34.4544C358.298 34.0364 358.955 33.6184 359.611 33.2004C360.328 32.7824 361.015 32.3345 361.672 31.8568C361.731 31.8568 361.761 31.8866 361.761 31.9464L363.642 34.544C363.463 34.7829 363.194 35.0516 362.836 35.3502C362.538 35.589 362.299 35.798 362.12 35.9772C361.045 36.8729 359.88 37.7089 358.626 38.4852C357.372 39.2615 356.148 40.0378 354.954 40.8141C353.64 41.6502 352.266 42.4563 350.833 43.2326C349.4 43.9492 347.997 44.636 346.623 45.2928C344.474 46.308 342.324 47.2634 340.174 48.1592C338.024 49.0549 335.815 49.8909 333.546 50.6672C327.574 52.7573 321.513 54.3995 315.362 55.5938C309.211 56.7881 302.971 57.5345 296.641 57.8331C294.671 57.9526 292.521 58.0123 290.192 58.0123C287.923 58.0123 285.624 57.9227 283.295 57.7436C280.966 57.5644 278.667 57.2658 276.398 56.8478C274.128 56.4298 272.068 55.8326 270.217 55.0563C269.441 54.7578 268.664 54.3995 267.888 53.9815C267.172 53.5635 266.485 53.0559 265.828 52.4587C265.649 52.2796 265.44 52.1004 265.201 51.9213C265.022 51.6824 264.873 51.4435 264.753 51.2047L260.274 42.4265V42.3369C260.454 41.9189 260.692 41.5307 260.991 41.1724C261.349 40.7544 261.678 40.3663 261.976 40.008C262.872 38.9331 263.827 37.9179 264.843 36.9625C265.858 35.9473 266.903 34.9919 267.978 34.0961C272.337 30.334 277.084 27.0198 282.22 24.1535C287.415 21.2871 292.64 18.779 297.895 16.6293C299.149 16.1515 300.374 15.7037 301.568 15.2857C302.822 14.8079 304.106 14.3601 305.419 13.9421C311.869 11.852 318.527 10.2695 325.394 9.19466C332.262 8.11978 339.069 7.37334 345.817 6.95533C348.206 6.77618 350.565 6.65675 352.893 6.59703C355.222 6.53732 357.581 6.53732 359.97 6.59703C360.866 6.59703 361.761 6.59703 362.657 6.59703C363.612 6.59703 364.538 6.62689 365.434 6.6866H365.523L374.749 17.8833V17.9729L315.631 34.2753H315.541L311.869 30.2445V30.1549L356.029 15.2857C355.611 15.226 355.193 15.1961 354.775 15.1961C354.416 15.1961 354.028 15.1961 353.61 15.1961C352.237 15.1364 350.863 15.1364 349.49 15.1961C348.176 15.1961 346.832 15.2558 345.459 15.3752C339.726 15.7335 333.993 16.3606 328.261 17.2563C322.588 18.0923 316.945 19.0776 311.331 20.2122C305.121 21.4065 299.09 23.198 293.237 25.5866C287.445 27.9753 281.981 31.0208 276.846 34.7231C275.353 35.7383 273.919 36.8132 272.546 37.9478C271.173 39.0824 269.829 40.3066 268.515 41.6203C268.037 42.098 267.56 42.6056 267.082 43.1431C266.664 43.6208 266.246 44.0985 265.828 44.5762Z" fill="white"/>
<path d="M201.051 66.8805V4.17896H211.71V40.098L236.343 4.17896H248.704L223.713 40.098H240.463L247.987 66.8805H237.328L232.67 50.2198H211.71V66.8805H201.051Z" fill="white"/>
<path d="M163.66 66.8805L160.256 55.2359H93.524L90.1202 66.8805H72.0264L91.1055 4.17896H162.675L181.844 66.8805H163.66ZM98.7193 37.6795H155.24L150.582 21.7354H103.377L98.7193 37.6795Z" fill="white"/>
<path d="M9.29332 67.7754C8.75588 67.6859 8.30802 67.0589 7.94972 66.7901C7.86015 65.984 7.86015 62.1323 7.94972 61.3261C7.94972 61.2366 8.57674 58.3702 8.75588 57.2953C9.0246 55.9517 10.1891 55.2351 11.6222 55.2351H19.7734C20.5796 55.2351 21.2962 54.8768 21.5649 54.1603V45.2029C21.5649 44.755 21.7441 42.7844 21.8336 42.3365V26.2133C21.8336 25.4967 21.6545 22.2721 21.5649 21.5555C21.117 20.2119 19.7734 20.4806 18.5194 20.5702C17.7132 20.6597 16.9071 20.7493 16.4592 21.5555C15.5635 24.4218 14.5782 27.3778 13.8616 30.2441C13.8616 30.5128 13.4137 32.573 13.3241 32.8417C13.3241 33.0209 13.145 33.7375 13.0554 33.9166C13.0554 34.0958 12.8763 34.6332 12.8763 34.7228C12.6971 34.9915 11.9805 35.6185 11.891 35.7081H9.83077L5.44166 34.9915C4.6355 34.8124 3.82934 34.1853 3.65019 33.3792C3.56061 32.4835 3.56061 28.3631 3.65019 27.4673L4.36677 17.9725C4.36677 17.4351 4.54592 12.419 4.6355 11.8815C4.6355 11.4337 4.81465 9.37346 4.90422 9.01517C4.99379 8.02986 5.17294 7.04455 6.24783 6.59668H9.29332C9.65162 6.68625 12.3388 6.8654 12.6075 6.8654C13.145 6.95497 18.1611 7.13412 18.6985 7.13412C21.7441 7.40284 24.7 8.11943 27.7455 8.209C28.5516 8.29858 32.1346 8.29858 32.9408 8.209C33.1199 8.209 34.7322 7.94028 35.0009 7.94028L48.5266 7.40284H53.6322C54.8863 7.58199 55.6924 9.01517 55.6924 10.0005V29.0797C56.0507 30.692 56.2299 32.3939 56.0507 34.1853C55.0654 35.5289 53.4531 35.1707 51.9304 35.4394C51.5721 35.4394 48.6161 35.8872 48.2578 35.8872C47.2725 36.0664 46.1976 35.5289 46.0185 34.4541L43.4209 24.3323C43.2417 23.6157 42.7938 22.4512 41.8981 22.3616H39.3005C38.5839 22.3616 36.7924 22.5408 36.7028 22.6304L35.9863 23.4365C35.8967 23.5261 35.7175 27.2882 35.8071 28.8109C35.8071 29.4379 36.4341 35.4394 36.4341 36.156C36.6133 37.7683 36.9716 44.9342 36.9716 46.5465C37.2403 47.3527 38.0464 47.8005 38.8526 47.9797C40.3754 48.4275 47.5412 50.219 49.064 50.5773C49.4223 50.846 50.0493 51.3835 50.1389 51.9209C50.4972 56.31 50.4972 61.147 50.4076 65.4465C50.2285 66.5214 49.7806 67.6859 48.5266 67.7754C45.8393 67.865 33.1199 68.0442 30.2535 68.0442H13.0554C12.6075 68.0442 9.92034 67.865 9.29332 67.7754ZM28.5516 62.401L28.2829 62.6697H28.5516V62.401ZM30.0744 62.6697C30.164 62.4906 29.8057 62.4906 29.8952 62.6697C29.8952 62.8489 30.0744 62.8489 30.0744 62.6697ZM31.8659 61.5949C31.8659 61.6844 31.5972 62.3114 31.5972 62.401C32.045 62.2219 32.8512 61.8636 32.1346 61.3261L31.8659 61.5949ZM26.4915 61.5949C26.2227 61.5949 26.2227 62.1323 26.4915 62.1323C26.7602 62.1323 26.7602 61.5949 26.4915 61.5949ZM30.2535 61.5949C30.3431 61.5949 30.9701 61.8636 31.0597 61.8636C31.2389 61.774 31.8659 61.2366 31.8659 61.147C31.6867 61.2366 30.9701 61.2366 30.791 60.8783C30.9701 60.7887 31.5076 60.2513 31.5972 60.0721C31.6867 60.0721 31.6867 59.893 31.5972 59.8034H29.6265V60.3408H30.0744V61.5949C30.164 61.5949 30.2535 61.5949 30.2535 61.5949ZM28.2829 61.3261C28.0142 61.3261 28.0142 61.8636 28.2829 61.8636C28.5516 61.8636 28.5516 61.3261 28.2829 61.3261ZM35.2697 61.3261C35.001 61.3261 35.001 61.8636 35.2697 61.8636C35.5384 61.8636 35.5384 61.3261 35.2697 61.3261ZM21.8336 61.147C22.1023 61.5949 22.9085 61.147 22.6398 60.8783H21.8336C21.8336 60.9678 21.8336 61.147 21.8336 61.147ZM27.0289 61.147C27.0289 61.2366 27.0289 61.3261 27.0289 61.3261C27.3872 61.6844 27.8351 60.6096 27.2976 60.6096C27.208 60.6991 27.0289 61.0574 27.0289 61.147ZM28.8204 61.147V61.3261H29.0891V61.147H28.8204ZM36.4341 61.147C36.4341 61.147 37.2403 61.6844 37.2403 61.147C37.0611 61.0574 36.3445 60.2513 36.1654 60.0721V59.5347C36.1654 59.5347 36.0758 59.5347 35.9863 59.5347C35.2697 59.9825 36.1654 60.8783 36.4341 61.147ZM24.4313 60.6096C24.1625 60.6096 24.1625 61.147 24.4313 61.147C24.6104 61.147 24.6104 60.6096 24.4313 60.6096ZM38.0464 60.6096C38.136 60.7887 38.4047 60.9678 38.5839 60.8783C38.8526 60.3408 39.0318 59.2659 38.0464 59.5347V60.6096ZM23.4459 60.3408C23.5355 60.6991 23.8938 60.6991 24.1625 60.6096C23.9834 60.4304 23.8043 60.1617 23.7147 59.8034C23.5355 59.893 23.2668 60.1617 23.4459 60.3408ZM24.8791 60.0721C24.9687 60.1617 25.1479 60.3408 25.1479 60.3408L26.7602 59.8034C27.0289 59.7138 25.7749 58.9077 25.6853 58.8181C25.5061 58.9972 24.7 59.6242 24.8791 60.0721ZM28.0142 60.0721C28.1038 60.2513 28.2829 60.52 28.5516 60.3408V58.8181C27.4768 58.4598 27.7455 59.6242 28.0142 60.0721ZM32.1346 59.8034C32.3137 60.8783 33.1199 60.2513 32.9408 59.8034H32.1346ZM38.3152 60.0721C38.4943 60.1617 38.4943 60.3408 38.3152 60.3408C38.136 60.4304 38.136 60.0721 38.3152 60.0721ZM39.8379 59.5347C39.5692 59.5347 39.5692 60.0721 39.8379 60.0721C40.1066 60.0721 40.1066 59.5347 39.8379 59.5347ZM33.6573 59.2659C33.6573 59.3555 34.1052 59.5347 34.1948 59.5347C34.2844 59.6242 34.8218 59.6242 35.0009 59.5347C34.3739 59.5347 35.0905 58.8181 35.0009 58.5494C34.6426 58.3702 34.1948 58.9972 34.1948 59.0868C33.5678 58.7285 34.1052 58.5494 34.1948 58.3702C34.1948 58.2806 34.0156 57.5641 34.4635 57.5641C34.4635 57.5641 34.9114 57.8328 35.0009 57.8328C35.0905 57.8328 36.0758 58.0119 36.1654 58.1015C37.2403 58.3702 36.255 59.0868 37.2403 59.5347L37.509 59.2659V57.5641C37.4194 57.5641 36.882 57.3849 36.7028 57.2953C36.7028 57.2058 36.7028 57.0266 36.7028 57.0266H37.7777C38.0465 56.3996 36.9716 56.31 36.7028 56.4892C36.5237 56.5787 36.0758 57.3849 35.9863 57.5641H35.8071C35.628 57.3849 34.8218 56.6683 34.7322 56.4892C34.7322 56.3996 35.0905 56.2204 35.2697 56.2204C35.2697 56.2204 35.4488 56.4892 35.5384 56.4892C36.1654 56.4892 36.6133 55.8622 36.4341 55.2351C35.8071 55.1456 34.2844 55.5934 33.9261 56.2204C34.9114 56.5787 33.3886 58.7285 32.9408 57.8328V59.0868C33.0303 59.0868 33.5678 59.2659 33.6573 59.2659ZM39.3005 59.0868V59.5347H39.5692V58.8181C39.4796 58.8181 39.3005 58.9972 39.3005 59.0868ZM25.6853 59.0868C25.954 59.0868 25.954 59.5347 25.6853 59.5347C25.4166 59.5347 25.4166 59.0868 25.6853 59.0868ZM30.0744 58.8181C30.164 58.8181 30.5223 59.5347 30.791 59.2659C31.0597 59.1764 31.5972 58.4598 31.5972 58.3702C31.5972 58.1911 31.1493 57.3849 31.0597 57.2953V56.7579C30.9701 56.8475 30.6118 57.0266 30.5223 57.0266C30.5223 57.0266 30.3431 57.0266 30.2535 57.0266C29.8057 57.6536 29.7161 58.1015 30.0744 58.8181ZM25.4166 58.5494C25.5061 58.3702 25.1479 58.3702 25.1479 58.5494C25.2374 58.6389 25.4166 58.6389 25.4166 58.5494ZM26.7602 58.1015C26.4915 58.1015 26.4915 58.5494 26.7602 58.5494C27.0289 58.5494 27.0289 58.1015 26.7602 58.1015ZM41.1815 58.1015C40.9128 58.1015 40.9128 58.5494 41.1815 58.5494C41.4502 58.5494 41.4502 58.1015 41.1815 58.1015ZM24.6104 57.8328C24.4313 57.8328 24.4313 58.3702 24.6104 58.3702C24.8791 58.3702 24.8791 57.8328 24.6104 57.8328ZM28.5516 57.0266C28.5516 57.0266 28.7308 57.2953 28.8204 57.2953C29.1787 56.7579 30.791 56.2204 30.5223 55.683C30.164 55.9517 28.1933 56.3996 28.5516 57.0266ZM31.3284 57.0266C31.3284 57.1162 31.5076 57.2953 31.5972 57.2953H32.9408C33.1199 56.8475 32.5825 55.9517 32.1346 56.2204C32.045 56.1309 32.045 55.7726 32.1346 55.683C32.672 55.2351 33.6573 55.7726 33.6573 54.429C32.672 54.6977 32.4929 54.0707 32.672 53.175C32.4929 53.0854 31.7763 53.0854 31.5972 53.175C31.2389 53.3541 30.7014 54.0707 30.791 54.1603L31.0597 54.429L31.3284 53.8915C31.418 53.9811 31.5972 54.3394 31.5972 54.429C31.5972 54.5185 31.3284 54.9664 31.3284 54.9664V57.0266ZM38.0464 56.2204C38.0464 56.3996 38.3152 57.1162 38.3152 57.2953H38.8526C39.5692 56.7579 38.3152 56.31 38.0464 55.9517C38.0464 56.0413 38.0464 56.2204 38.0464 56.2204ZM26.2227 56.7579C26.0436 56.6683 26.0436 57.0266 26.2227 57.0266C26.4019 56.937 26.4019 56.7579 26.2227 56.7579ZM36.1654 56.4892C35.9863 56.4892 35.9863 57.0266 36.1654 57.0266C36.4341 57.0266 36.4341 56.4892 36.1654 56.4892ZM28.2829 56.2204C28.0142 56.2204 28.0142 56.7579 28.2829 56.7579C28.5516 56.7579 28.5516 56.2204 28.2829 56.2204ZM39.5692 56.2204C39.3005 56.2204 39.3005 56.7579 39.5692 56.7579C39.8379 56.7579 39.8379 56.2204 39.5692 56.2204ZM35.5384 55.5039C35.8071 55.5039 35.8071 55.9517 35.5384 55.9517C35.2697 55.9517 35.2697 55.5039 35.5384 55.5039ZM28.0142 55.2351C27.7455 55.2351 27.7455 55.683 28.0142 55.683C28.2829 55.683 28.2829 55.2351 28.0142 55.2351ZM28.5516 54.9664V55.5039L29.6265 55.2351C29.7161 55.2351 29.7161 54.8768 29.6265 54.6977C29.0891 54.0707 28.6412 54.5185 28.5516 53.6228C28.0142 54.0707 28.4621 54.5186 28.5516 54.9664ZM31.8659 55.2351C32.1346 55.2351 32.1346 55.683 31.8659 55.683C31.5971 55.683 31.5971 55.2351 31.8659 55.2351ZM31.5972 54.9664C31.8659 54.9664 31.8659 55.5039 31.5972 55.5039C31.3284 55.5039 31.3284 54.9664 31.5972 54.9664ZM34.1948 54.9664C34.1948 55.056 34.1948 55.2351 34.1948 55.2351C34.6426 55.5039 34.9114 54.6977 34.4635 54.429C34.3739 54.5185 34.1948 54.8768 34.1948 54.9664ZM38.5839 54.9664C38.6735 55.1456 38.8526 55.3247 39.0318 55.2351C39.0318 55.1456 38.9422 54.7873 38.8526 54.6977H38.5839C38.5839 54.7873 38.5839 54.9664 38.5839 54.9664ZM30.2535 54.6977C30.0744 54.6977 30.0744 55.2351 30.2535 55.2351C30.5223 55.2351 30.5223 54.6977 30.2535 54.6977ZM32.1346 54.6977C32.4033 54.6977 32.4033 55.2351 32.1346 55.2351C31.8659 55.2351 31.8659 54.6977 32.1346 54.6977ZM31.8659 54.429C32.1346 54.429 32.1346 54.9664 31.8659 54.9664C31.5971 54.9664 31.5971 54.429 31.8659 54.429ZM36.1654 53.6228C36.255 53.8915 36.4341 54.429 36.4341 54.429C36.5237 54.5185 36.7028 54.5185 36.7028 54.429L37.509 53.4437C36.5237 54.0707 36.7028 53.1749 36.1654 53.4437V53.6228ZM34.7322 53.4437C34.4635 53.4437 34.4635 53.8915 34.7322 53.8915C35.0009 53.8915 35.0009 53.4437 34.7322 53.4437ZM30.791 52.4584V53.4437L31.5972 52.6375L31.0597 52.1896C31.0597 52.1896 30.791 52.3688 30.791 52.4584ZM32.4033 51.9209V52.1896H32.672L32.4033 51.9209ZM29.0891 51.6522C28.9995 51.6522 28.8204 51.8313 28.8204 51.9209H29.8952V51.6522C29.7161 51.5626 29.1787 51.5626 29.0891 51.6522ZM30.791 51.1148C30.5223 51.1148 30.5223 51.6522 30.791 51.6522C31.0597 51.6522 31.0597 51.1148 30.791 51.1148ZM33.9261 51.3835C34.0156 51.2043 33.299 51.2043 33.3886 51.3835C33.4782 51.5626 33.8365 51.5626 33.9261 51.3835ZM30.5223 51.1148C30.6118 50.9356 30.2535 50.9356 30.2535 51.1148C30.3431 51.2939 30.5223 51.2939 30.5223 51.1148ZM32.1346 50.846C32.045 50.6669 31.6867 51.0252 31.8659 51.1148C32.045 51.2043 32.2242 51.0252 32.1346 50.846ZM30.791 49.3233C30.5223 49.3233 30.5223 49.7712 30.791 49.7712C31.0597 49.7712 31.0597 49.3233 30.791 49.3233ZM28.2829 17.5247C28.1934 17.3455 27.8351 17.7038 28.0142 17.7934C28.1934 17.7934 28.3725 17.6142 28.2829 17.5247ZM42.8834 17.2559V17.5247H43.6896V17.2559H42.8834ZM27.7455 16.9872V17.2559H28.0142L27.7455 16.9872ZM41.1815 16.7185V16.9872H41.4502L41.1815 16.7185ZM38.3152 16.1811V16.7185C38.763 16.9872 39.0318 16.5393 39.0318 16.1811H38.3152ZM29.6265 16.1811C29.3578 16.1811 29.3578 16.7185 29.6265 16.7185C29.8953 16.7185 29.8953 16.1811 29.6265 16.1811ZM43.6896 16.1811C43.7792 16.1811 44.1374 16.4498 44.227 16.4498H44.4958C44.5853 16.3602 45.1228 16.1811 45.2123 16.1811C44.854 15.1062 44.854 15.554 44.227 15.6436C43.6 15.7332 43.1521 15.4645 42.6147 15.9123C42.7938 15.9123 43.5104 16.0915 43.6896 16.1811ZM33.9261 15.3749V16.1811L34.7322 15.9123C34.5531 15.6436 34.1948 15.4645 33.9261 15.3749ZM32.672 15.6436V15.9123H32.9408L32.672 15.6436ZM40.1066 15.6436C39.8379 15.6436 39.8379 16.1811 40.1066 16.1811C40.3754 16.1811 40.3754 15.6436 40.1066 15.6436ZM40.9128 15.6436L40.6441 15.9123H40.9128V15.6436ZM29.3578 15.3749C29.2682 15.1957 28.9099 15.554 29.0891 15.6436C29.1787 15.7332 29.3578 15.554 29.3578 15.3749ZM31.3284 15.3749C31.418 15.4645 31.5972 15.6436 31.5972 15.6436L31.8659 14.6583C31.7763 14.7479 31.1493 15.0166 31.3284 15.3749ZM42.6147 15.1062V15.3749H42.8834L42.6147 15.1062ZM33.6573 14.927C33.3886 14.927 33.3886 15.3749 33.6573 15.3749C33.9261 15.3749 33.9261 14.927 33.6573 14.927ZM27.0289 14.3896V14.6583L27.2976 14.3896H27.0289ZM39.0318 14.3896C38.8526 14.3896 38.8526 14.927 39.0318 14.927C39.3005 14.927 39.3005 14.3896 39.0318 14.3896ZM40.9128 13.8521C40.9128 14.0313 41.092 14.5687 41.1815 14.6583C41.4502 14.927 42.8834 13.7626 42.8834 13.3147C42.7043 13.3147 40.9128 13.5834 40.9128 13.8521ZM43.4209 13.3147V14.1209C43.5104 13.9417 43.7792 13.5834 43.6896 13.3147H43.4209ZM47.3621 13.8521C47.0934 13.8521 47.0934 14.3896 47.3621 14.3896C47.5412 14.3896 47.5412 13.8521 47.3621 13.8521ZM45.4811 13.8521C45.4811 13.673 45.1228 13.673 45.2123 13.8521C45.2123 14.0313 45.3915 14.0313 45.4811 13.8521ZM47.5412 13.3147C47.3621 13.3147 47.3621 13.8521 47.5412 13.8521C47.7204 13.8521 47.7204 13.3147 47.5412 13.3147ZM40.3754 13.046V13.3147H40.9128L40.3754 13.046Z" fill="white"/>
<path d="M808.573 68.9257C807.409 68.8362 802.214 68.657 801.049 68.657C799.258 68.2092 799.168 67.5821 799.258 65.6115C799.437 64.1783 799.974 57.2812 800.064 55.848C800.243 55.221 800.87 54.5044 801.587 54.3252L806.155 53.7878C806.961 53.6982 807.588 53.2504 807.767 52.5338L808.305 44.5617C808.842 37.9333 809.827 31.2153 809.559 24.5868H809.021C808.932 24.5868 808.126 25.393 807.767 25.8409C804.453 29.7821 802.303 34.5295 799.526 38.9186C799.347 39.2769 797.287 42.3224 797.018 42.7703L792.898 49.757C792.629 50.2049 791.913 51.3693 791.913 51.4589V60.2371C791.913 60.2371 791.644 60.5954 791.554 60.7746C791.375 61.0433 791.017 61.4016 790.569 61.4911C790.211 61.5807 788.688 61.7599 788.509 61.7599C787.434 61.8494 782.239 61.8494 781.074 61.7599C780.447 61.5807 779.999 61.0433 779.82 60.5058V56.5646C779.82 55.9376 780.268 50.2049 780.268 49.4883C780.268 49.2196 780.447 35.7835 780.537 30.23C780.537 27.9906 780.358 26.1096 780.268 23.7807C779.82 21.0039 775.61 23.1536 774.177 21.0039C774.088 20.8247 773.908 20.2873 773.908 20.1977C773.819 19.1228 773.64 14.465 773.64 13.4797V10.6133C773.819 10.255 774.177 9.7176 774.625 9.7176H797.287C798.272 9.7176 798.272 11.3299 798.272 11.9569L797.735 18.675C797.645 19.2124 797.287 19.8394 796.75 20.1977C795.227 21.0039 792.45 19.7498 791.823 21.8996C791.734 23.1536 791.554 28.5281 791.554 29.6925V35.3356C791.554 35.5148 791.734 36.321 791.823 36.5897C791.823 36.5897 792.002 36.8584 792.092 36.8584L792.898 36.1418C792.988 35.8731 793.973 34.0816 794.152 33.4546C794.779 32.2006 799.706 21.0935 800.243 19.6603L801.855 16.5252L802.393 15.3607C802.572 14.7337 803.916 10.4342 804.184 9.89675C805.259 7.11997 806.334 6.49295 809.29 6.31381L819.591 5.77637H822.636C824.607 5.95551 824.697 8.55314 824.697 9.89675V20.1977C824.428 21.81 820.487 21.4517 819.591 22.9745C819.501 23.0641 819.322 23.6015 819.322 23.7807C819.233 24.0494 819.053 25.2138 819.053 25.5721L818.247 35.0669L817.531 41.5162C817.531 41.7849 817.352 46.9802 817.262 48.9508C817.262 50.1153 817.172 50.384 817.531 51.1902C817.62 51.3693 817.71 51.638 817.71 51.638H822.368L823.174 52.5338C823.263 52.6234 823.263 57.8186 823.174 59.9684C823.174 60.3267 822.726 63.6409 822.636 64.0888C822.636 64.5366 822.457 67.8509 822.368 68.1196C822.368 68.657 822.009 69.6423 821.382 69.7319C820.487 69.8215 816.814 69.8215 816.008 69.7319L808.573 68.9257ZM812.873 21.8996C812.604 21.8996 812.604 22.4371 812.873 22.4371C813.142 22.4371 813.142 21.8996 812.873 21.8996ZM782.597 20.1977L782.866 20.4664C783.045 20.1081 783.134 19.7498 783.045 19.3916H782.597C782.955 19.5707 782.955 20.0186 782.597 20.1977ZM812.335 19.929C812.335 20.2873 813.052 20.1977 813.142 20.1977C813.052 20.0186 812.783 19.6603 812.873 19.3916C812.873 19.302 812.694 19.302 812.604 19.3916C812.515 19.4811 812.335 19.8394 812.335 19.929ZM786.449 19.6603C786.449 19.4811 786.09 19.4811 786.18 19.6603C786.18 19.8394 786.359 19.8394 786.449 19.6603ZM781.612 18.8541C781.522 18.9437 781.791 19.302 781.88 19.3916C781.88 19.3916 781.88 19.5707 781.88 19.6603C782.06 19.1228 783.314 18.4062 783.045 17.8688C782.597 17.8688 781.791 18.4062 781.612 18.8541ZM784.12 18.4062L784.657 19.1228C784.747 19.1228 784.926 19.1228 784.926 19.1228C785.015 18.8541 785.015 17.8688 784.926 17.6001C784.926 17.5105 784.388 17.1522 784.388 17.0626C784.388 17.0626 784.388 16.6148 784.388 16.5252C784.209 16.2565 783.314 15.719 783.045 15.5399C782.597 15.2712 782.239 16.2565 781.612 15.9878C781.701 16.2565 781.612 16.7043 781.343 16.7939C781.433 17.4209 783.851 16.9731 784.12 17.6001C784.209 17.6897 784.12 18.3167 784.12 18.4062ZM786.18 18.675C785.911 18.675 785.911 19.1228 786.18 19.1228C786.449 19.1228 786.449 18.675 786.18 18.675ZM813.142 18.675C813.142 18.9437 813.858 18.8541 813.948 18.8541C814.037 18.675 813.858 18.4958 813.679 18.4062C813.858 18.3167 814.037 18.1375 813.948 17.8688C813.589 17.6897 813.142 18.4062 813.142 18.675ZM783.582 17.8688C783.314 17.8688 783.314 18.4062 783.582 18.4062C783.851 18.4062 783.851 17.8688 783.582 17.8688ZM816.277 17.8688C816.008 17.8688 816.008 18.4062 816.277 18.4062C816.456 18.4062 816.456 17.8688 816.277 17.8688ZM785.195 17.0626C785.374 17.4209 785.732 17.4209 785.911 17.0626H785.195ZM813.142 16.7939C813.231 16.9731 813.5 17.1522 813.679 17.0626C813.589 16.8835 813.41 16.7043 813.142 16.7939ZM780.537 16.5252C780.268 16.5252 780.268 17.0626 780.537 17.0626C780.806 17.0626 780.806 16.5252 780.537 16.5252ZM783.314 16.5252L783.582 16.2565V16.7939L783.314 16.5252ZM782.149 15.3607C782.149 15.1816 781.791 15.1816 781.88 15.3607C781.88 15.4503 782.06 15.4503 782.149 15.3607ZM818.516 15.092C818.247 15.092 818.247 15.5399 818.516 15.5399C818.785 15.5399 818.785 15.092 818.516 15.092ZM813.142 14.2859L813.679 14.5546V14.2859H813.142ZM817.71 12.4944C817.531 12.4944 817.531 13.0318 817.71 13.0318C817.979 13.0318 817.979 12.4944 817.71 12.4944Z" fill="white"/>
<path d="M733.405 67.5816C716.745 67.5816 701.696 54.7726 701.696 35.2455C701.696 15.8976 716.924 3.08862 733.584 3.08862C743.885 3.08862 753.112 7.47773 758.934 16.1664L750.424 23.0635C746.573 17.1517 740.75 13.5687 733.584 13.5687C722.657 13.5687 712.714 21.9887 712.714 35.2455C712.714 48.6816 722.477 57.1015 733.584 57.1015C740.482 57.1015 746.573 54.2351 750.424 47.8754L758.576 55.1309C752.484 63.5508 743.527 67.5816 733.405 67.5816Z" fill="white"/>
<path d="M663.979 34.0816L660.038 39.5456V61.7598C660.038 66.1489 664.158 65.6115 668.368 65.7906V66.6864H646.333V65.7906C650.543 65.6115 654.663 66.1489 654.663 61.7598V8.91141C654.663 4.52231 650.543 5.05975 646.333 4.8806V3.98486C654.663 3.98486 660.038 3.98486 668.368 3.98486V4.8806C664.158 5.05975 660.038 4.52231 660.038 8.91141V36.0522C668.368 25.4825 673.474 18.8541 681.446 7.83653C683.506 5.05975 677.594 5.05975 673.384 4.8806V3.98486H691.657V4.8806C687.447 5.05975 685.656 5.23889 683.416 8.2844L667.293 30.0508L689.149 61.7598C690.762 64.0887 695.24 65.6115 699.45 65.7906V66.6864H685.835L663.979 34.0816Z" fill="white"/>
<path d="M622.559 27.6327C623.634 27.7522 624.768 27.9313 625.962 28.1702C627.216 28.3493 628.291 28.7375 629.187 29.3346L634.203 34.5299V34.6195H634.114L628.023 33.5446C626.052 33.4252 624.081 33.3654 622.111 33.3654C620.2 33.3057 618.259 33.3356 616.288 33.455C614.139 35.5451 611.959 37.665 609.75 39.8147C607.6 41.9048 605.45 44.0247 603.3 46.1745L597.209 53.1612C597.15 53.2209 597.03 53.1612 596.851 52.9821C596.552 52.8626 596.224 52.5641 595.866 52.0863C595.507 51.6086 595.179 51.101 594.88 50.5636C594.582 49.9664 594.313 49.3991 594.074 48.8617C593.895 48.2645 593.835 47.8167 593.895 47.5181C593.895 47.3986 594.164 47.0105 594.701 46.3536C595.298 45.6968 596.015 44.9204 596.851 44.0247C597.687 43.129 598.583 42.1735 599.538 41.1584C600.553 40.0835 601.509 39.0683 602.405 38.1129C603.36 37.1574 604.196 36.3214 604.913 35.6048C605.629 34.8882 606.137 34.4105 606.435 34.1716C599.389 35.0076 592.581 36.3214 586.013 38.1129C579.444 39.8446 572.875 41.9645 566.306 44.4726L525.192 66.1494C525.132 66.2091 525.043 66.1792 524.923 66.0598C524.625 65.9404 524.296 65.6717 523.938 65.2536C523.58 64.7759 523.222 64.2683 522.863 63.7309C522.565 63.1337 522.326 62.5664 522.147 62.029C521.968 61.4318 521.878 60.984 521.878 60.6854C521.878 60.566 522.475 60.148 523.669 59.4314C524.923 58.7148 526.446 57.8489 528.238 56.8337C530.089 55.8186 532.089 54.7437 534.239 53.6091C536.449 52.4148 538.509 51.31 540.42 50.2949C542.39 49.2797 544.062 48.4138 545.436 47.6972C546.809 46.9209 547.645 46.4731 547.944 46.3536C549.078 45.6968 550.213 45.0697 551.348 44.4726C552.482 43.8754 553.647 43.3081 554.841 42.7707C558.603 40.8598 562.305 38.9489 565.948 37.038C569.591 35.1271 573.263 33.2162 576.966 31.3053C583.296 28.0209 589.625 24.7664 595.955 21.5417C602.285 18.3171 608.645 15.0924 615.034 11.8678C615.214 11.8081 615.751 11.5393 616.647 11.0616C617.543 10.5839 618.617 10.0166 619.871 9.35972C621.185 8.70285 622.559 8.01612 623.992 7.29953C625.485 6.52323 626.858 5.83649 628.112 5.23934C629.366 4.58247 630.411 4.04502 631.247 3.62701C632.083 3.209 632.531 3 632.591 3C632.77 3 633.128 3.17915 633.666 3.53744C634.203 3.89573 634.771 4.31374 635.368 4.79147C635.965 5.20948 636.532 5.62749 637.07 6.0455C637.607 6.4038 637.965 6.64266 638.144 6.76209C638.264 6.88152 638.622 7.1801 639.219 7.65783C639.816 8.13555 640.384 8.67299 640.921 9.27015C641.518 9.80759 641.996 10.345 642.354 10.8825C642.772 11.3602 642.862 11.6886 642.623 11.8678C639.1 14.3161 635.666 16.854 632.322 19.4815C629.038 22.0493 625.783 24.7664 622.559 27.6327ZM591.387 31.2157C594.91 30.4394 598.433 29.7526 601.957 29.1555C605.54 28.5583 609.123 28.1105 612.706 27.8119C615.572 24.9455 618.468 22.0792 621.394 19.2128C624.32 16.3465 627.246 13.51 630.172 10.7033L591.387 31.2157Z" fill="white"/>
<path d="M549.949 3.98486V21.5413H504.535V66.6864H486.979V21.5413H441.654V3.98486H549.949Z" fill="white"/>
<path d="M1222.56 3H1240.02V65.7015H1222.56V28.3493L1150.27 52.7133V65.7015H1132.8V3H1150.27V33.7237L1222.56 9.00143V3Z" fill="white"/>
<path d="M1076.84 66.9555C1076.67 66.8659 1075.95 66.5076 1075.77 66.5076L1071.38 63.1934L1064.3 56.2066C1063.41 54.9526 1063.41 53.4299 1063.23 52.0863C1062.51 47.3389 1062.15 42.8602 1061.98 37.9336V35.963C1061.98 35.7839 1062.15 34.5298 1062.24 34.1715C1062.51 32.2009 1064.13 23.4227 1064.57 21.5417C1065.2 19.9293 1065.92 18.5857 1066.81 16.9734C1068.6 13.8383 1071.47 11.5094 1074.25 9.18051L1076.58 7.47862C1076.93 7.29947 1078.99 5.95586 1079.71 5.68715C1080.25 5.32885 1082.04 4.43312 1082.22 4.34354C1082.85 4.16439 1084.01 4.43312 1084.55 4.61226L1096.37 9.00137H1097.63C1098.7 8.64307 1098.34 5.59757 1098.88 4.61226L1099.69 3.8061C1099.78 3.8061 1100.13 3.62695 1100.22 3.62695H1110.7C1111.06 3.62695 1111.51 3.98525 1111.51 4.34354V6.67245C1111.42 7.74734 1110.7 14.7341 1110.43 16.7047C1110.43 17.063 1109.99 19.9293 1109.9 20.1981C1109.63 23.0644 1110.52 26.1099 1106.85 26.3786C1106.4 26.4682 1102.37 26.6474 1100.94 26.6474C1099.24 26.7369 1098.25 26.3786 1097.89 24.6767L1097.18 21.2729C1096.73 19.7502 1095.83 18.4066 1094.76 17.2421C1094.58 16.9734 1093.68 16.0777 1093.51 15.8985C1092.88 15.3611 1092.07 15.6298 1091.53 15.8985L1087.86 17.4213C1087.32 17.69 1086.16 18.0483 1085.8 18.7649L1085.09 20.1981C1083.74 23.154 1082.67 25.9308 1082.49 28.9763C1082.4 31.2156 1081.86 41.6061 1081.68 43.8455C1081.68 44.7412 1081.5 46.4431 1081.95 47.518L1086.07 55.1318C1086.52 56.1171 1087.32 56.8337 1088.4 57.0128L1093.51 57.5502C1094.58 57.6398 1095.57 57.3711 1096.37 56.4754C1097.09 55.6692 1099.06 53.609 1099.15 53.4299C1099.33 53.1611 1099.87 52.4446 1099.95 52.0863C1100.22 51.5488 1101.75 46.7118 1102.01 46.1744C1102.64 44.5621 1103.09 44.5621 1104.79 44.6517C1105.15 44.6517 1106.49 44.8308 1106.85 44.9204C1107.93 45.0995 1108.82 45.8161 1108.73 46.9806C1108.2 51.1905 1108.37 55.7588 1105.6 59.2521C1104.79 60.327 1101.21 64.7161 1100.4 65.7014C1100.13 66.1493 1099.24 66.9555 1098.61 66.9555L1095.3 67.2242H1077.83C1077.74 67.2242 1077.02 67.0451 1076.84 66.9555ZM1079.17 59.7896C1079.53 60.2375 1079.89 60.0583 1080.16 59.7896C1081.86 58.5356 1078.99 58.0877 1080.16 57.5502C1080.07 57.2815 1080.07 55.9379 1080.16 55.6692C1080.16 55.5796 1080.34 55.2213 1080.43 55.1318C1080.43 54.9526 1080.61 54.236 1080.7 54.0569H1079.71L1079.89 52.8924C1078.99 53.4299 1075.5 53.8777 1077.56 55.4005V57.2815C1078.01 57.6398 1078.28 55.7588 1078.91 56.2066C1079.35 57.5502 1078.01 57.6398 1077.83 57.9981C1077.92 58.0877 1078.28 58.2668 1078.37 58.2668C1078.46 58.1773 1078.91 57.819 1078.91 57.819L1080.16 58.9834C1079.89 59.1626 1079.35 59.5209 1079.17 59.7896ZM1077.02 58.8043C1077.02 58.8939 1077.2 59.4313 1077.29 59.5209C1077.38 59.6104 1077.56 59.6104 1077.56 59.5209V58.5356C1077.38 58.446 1077.02 58.5356 1077.02 58.8043ZM1075.59 57.9981C1075.59 57.819 1075.23 57.819 1075.32 57.9981C1075.32 58.0877 1075.5 58.0877 1075.59 57.9981ZM1078.1 55.9379C1078.37 55.9379 1078.37 56.4754 1078.1 56.4754C1077.83 56.4754 1077.83 55.9379 1078.1 55.9379ZM1080.7 55.6692C1080.43 55.6692 1080.43 56.2066 1080.7 56.2066C1080.97 56.2066 1080.97 55.6692 1080.7 55.6692ZM1078.1 55.1318C1077.2 54.7735 1078.46 54.3256 1078.91 54.4152L1079.17 54.6839C1079.17 54.6839 1079.35 54.6839 1079.44 54.6839C1079.8 55.6692 1078.55 55.4005 1078.1 55.1318ZM1074.07 54.6839V54.9526C1074.07 54.9526 1074.16 54.9526 1074.25 54.9526C1074.61 54.863 1075.59 54.5047 1075.59 54.4152V53.609H1075.05L1074.25 54.6839H1074.07ZM1073.26 54.1465C1073.35 54.236 1073.71 54.4152 1073.8 54.4152C1073.89 54.1465 1073.53 53.7882 1073.26 53.8777C1073.26 53.9673 1073.26 54.1465 1073.26 54.1465ZM1076.04 53.609C1076.4 54.5943 1077.02 54.1465 1076.84 53.609C1076.58 52.7133 1075.95 53.1611 1076.04 53.609ZM1073.8 53.4299C1073.8 53.2507 1073.44 53.2507 1073.53 53.4299C1073.53 53.5194 1073.71 53.5194 1073.8 53.4299ZM1077.29 52.8924C1077.29 53.4299 1078.55 52.8029 1078.64 52.6237V51.9071C1078.73 51.728 1079.26 51.1905 1079.44 51.101C1079.35 51.101 1079.17 50.9218 1079.17 50.8322L1078.37 49.2199H1078.1C1078.1 49.3991 1077.83 50.5635 1077.56 50.8322C1076.67 51.8175 1077.02 49.6678 1076.04 50.2948V49.2199C1076.22 49.3095 1076.76 49.4886 1076.84 49.4886C1077.02 49.4886 1077.74 49.1303 1077.83 49.0408C1077.92 48.9512 1077.74 48.145 1077.56 47.9659C1077.56 47.9659 1076.93 48.0554 1076.84 47.9659C1075.86 47.7867 1076.67 45.2787 1076.58 44.6517C1077.02 44.4725 1077.65 45.8161 1077.56 45.9953C1077.56 46.0848 1077.02 46.3536 1077.02 46.4431C1077.02 46.6223 1077.47 47.4284 1077.83 47.2493C1077.83 47.0701 1078.01 46.3536 1078.1 46.1744L1078.37 45.9953C1078.37 45.9057 1078.37 45.7265 1078.37 45.7265L1078.1 45.4578C1077.92 44.8308 1078.55 44.4725 1078.37 43.8455H1077.56L1078.1 42.5915C1078.1 42.5915 1077.92 42.4123 1077.83 42.3227C1077.65 42.2332 1077.11 41.8749 1077.02 41.8749C1076.67 41.6062 1076.49 42.5915 1076.04 41.8749C1076.76 41.5166 1075.95 40.9791 1076.04 40.5313C1076.67 40.3521 1076.76 40.8 1077.02 41.0687C1077.29 41.2479 1079.08 40.4417 1078.64 39.8147C1078.19 39.7251 1077.56 39.9043 1077.29 40.3521L1076.84 39.8147C1076.93 39.7251 1077.29 39.3668 1077.29 39.2772C1077.65 38.6502 1076.84 38.5606 1076.84 37.9336C1076.84 37.5753 1077.47 37.3962 1077.29 36.9483H1076.84V36.7692C1076.93 36.6796 1077.56 36.3213 1077.56 36.2317C1077.74 35.963 1078.1 34.8881 1078.1 34.6194C1076.58 34.709 1076.4 32.2009 1075.05 32.8279C1074.96 32.9175 1074.78 33.3654 1074.78 33.3654C1074.7 33.455 1074.52 33.6341 1074.52 33.6341C1073.89 33.9924 1074.07 32.8279 1074.52 32.5592C1075.23 32.2009 1075.41 32.5592 1075.77 31.7531C1076.67 30.499 1075.86 30.1407 1077.29 29.245C1076.76 28.7971 1076.67 27.8118 1076.84 27.1848C1076.84 27.1848 1077.29 26.4682 1077.56 26.6474V25.7516C1077.47 25.7516 1077.11 25.9308 1077.02 25.9308H1076.84C1076.49 26.4682 1076.58 27.1848 1075.59 26.9161C1075.68 26.5578 1076.49 25.7516 1076.31 25.2142C1076.13 25.3038 1075.41 25.9308 1075.32 26.1099C1075.23 26.1995 1075.23 26.5578 1075.32 26.6474C1075.23 26.7369 1075.05 26.7369 1075.05 26.6474C1074.96 26.6474 1074.34 25.9308 1074.25 25.9308C1072.28 24.4976 1071.38 26.3786 1072.19 26.3786C1072.28 26.3786 1072.63 26.1995 1072.72 26.1099C1073.08 27.0952 1071.47 27.0057 1071.92 27.7222C1072.1 27.8118 1072.63 27.8118 1072.72 27.7222C1072.81 27.7222 1072.9 27.2744 1072.99 27.1848C1073.26 27.0057 1073.71 27.1848 1073.8 27.4535L1073.26 27.991C1073.26 28.0805 1073.26 28.5284 1073.26 28.5284C1073.26 28.5284 1072.63 28.7971 1072.46 28.7971H1071.92C1071.92 28.7971 1071.2 28.3493 1071.38 27.991H1070.93V29.7824C1070.49 29.9616 1070.84 30.2303 1070.66 30.5886C1070.57 30.9469 1069.77 31.6635 1070.4 32.0218C1071.11 32.4696 1072.46 31.2156 1072.72 30.8573C1072.9 31.8426 1072.55 32.6488 1072.19 33.6341C1072.19 33.7237 1071.92 34.082 1071.92 34.1715C1071.92 34.2611 1072.46 34.7986 1072.46 34.8881C1072.46 34.8881 1072.46 35.0673 1072.46 35.1569C1072.19 35.6047 1071.47 35.336 1071.65 34.8881C1071.47 34.7986 1071.2 34.9777 1071.2 35.1569C1070.84 34.709 1070.84 34.082 1071.2 33.6341C1070.84 33.455 1069.68 34.7986 1069.95 35.1569C1069.95 35.0673 1070.4 35.0673 1070.4 35.1569C1070.66 35.2464 1071.29 35.963 1071.38 36.2317C1071.02 36.3213 1070.31 36.4109 1069.95 36.7692C1070.49 36.7692 1069.95 37.4858 1069.95 37.4858C1069.95 37.5753 1070.31 37.9336 1070.4 37.9336C1069.5 38.4711 1069.14 37.217 1068.6 36.9483C1068.42 36.8587 1067.53 36.8587 1067.35 36.9483C1067.08 37.4858 1068.69 38.0232 1067.35 38.4711C1067.08 38.5607 1066.01 39.3668 1066.81 39.546H1067.89C1067.89 39.546 1068.25 39.7251 1068.34 39.8147C1068.69 39.9938 1069.68 40.5313 1069.68 40.5313V41.3374H1069.95C1069.95 41.3374 1069.95 41.5166 1069.95 41.6062C1069.86 41.6062 1069.68 41.7853 1069.68 41.8749L1069.95 42.3227C1069.95 42.5019 1069.68 42.8602 1069.68 42.8602L1070.22 42.5915V43.5768C1070.13 43.6663 1069.95 43.8455 1069.95 43.8455C1069.86 43.9351 1069.95 44.8308 1069.95 44.9204C1069.86 45.0995 1069.68 45.8161 1069.68 45.9953L1069.41 45.7265C1069.32 45.7265 1069.14 45.9057 1069.14 45.9953C1068.96 46.1744 1068.42 47.2493 1068.34 47.518C1068.69 46.9806 1069.59 47.518 1070.22 47.518C1070.4 47.4284 1072.01 47.2493 1072.19 47.2493C1072.28 47.2493 1072.46 47.2493 1072.46 47.2493C1072.55 47.4284 1072.72 48.3242 1072.72 48.5033C1072.72 48.5929 1072.72 48.772 1072.72 48.772C1072.72 49.1303 1072.55 50.9218 1072.46 51.3697C1072.63 51.8175 1072.9 52.0863 1073.26 52.355C1073.89 52.355 1072.46 50.0261 1074.07 50.5635V51.3697C1074.07 51.4592 1074.25 51.8175 1074.25 51.9071C1074.25 51.9071 1074.07 51.9967 1074.07 52.0863C1073.71 52.7133 1074.96 52.8924 1075.32 52.355C1075.5 51.9967 1074.78 51.9071 1075.05 51.3697H1075.95V52.0863H1076.58L1076.31 51.9071L1077.56 51.6384C1078.19 51.4592 1077.74 52.6237 1077.29 52.8924ZM1073.53 52.6237C1073.26 52.6237 1073.26 53.1611 1073.53 53.1611C1073.8 53.1611 1073.8 52.6237 1073.53 52.6237ZM1079.17 52.6237V52.8924L1079.44 52.6237H1079.17ZM1078.37 51.101C1078.64 51.101 1078.64 51.6384 1078.37 51.6384C1078.1 51.6384 1078.1 51.101 1078.37 51.101ZM1075.59 49.7573C1075.77 49.7573 1075.77 50.2948 1075.59 50.2948C1075.32 50.2948 1075.32 49.7573 1075.59 49.7573ZM1073.8 49.2199H1074.07V49.4886L1073.8 49.2199ZM1068.87 48.5033V49.0408C1069.05 49.1303 1069.77 49.1303 1069.95 49.0408C1069.95 49.0408 1070.13 48.8616 1070.22 48.772C1069.86 48.5033 1069.32 48.4137 1068.87 48.5033ZM1075.59 48.772L1075.77 49.0408H1075.59V48.772ZM1073.53 48.5033C1073.44 48.5033 1073.26 48.0554 1073.26 47.9659C1073.35 48.0554 1073.71 48.0554 1073.8 47.9659C1073.8 47.9659 1073.98 47.7867 1074.07 47.7867C1075.05 46.9806 1075.32 48.145 1074.78 48.2346C1074.7 48.3242 1074.07 48.2346 1074.07 48.2346C1073.98 48.3242 1073.8 48.6825 1073.8 48.772C1073.71 48.772 1073.53 48.5929 1073.53 48.5033ZM1070.66 48.2346C1070.66 48.3242 1070.66 48.5033 1070.66 48.5033H1071.2V47.7867C1071.11 47.7867 1070.75 48.145 1070.66 48.2346ZM1068.16 48.2346C1068.16 48.145 1067.8 48.145 1067.89 48.2346C1067.89 48.4137 1068.07 48.4137 1068.16 48.2346ZM1075.59 47.518C1075.77 47.518 1075.77 47.9659 1075.59 47.9659C1075.32 47.9659 1075.32 47.518 1075.59 47.518ZM1072.99 46.9806C1073.26 46.9806 1073.26 47.518 1072.99 47.518C1072.72 47.518 1072.72 46.9806 1072.99 46.9806ZM1074.25 46.7118C1074.52 46.7118 1074.52 47.2493 1074.25 47.2493C1074.07 47.2493 1074.07 46.7118 1074.25 46.7118ZM1071.2 46.4431C1071.2 46.264 1071.47 46.1744 1071.65 46.1744C1071.74 46.1744 1071.74 46.3536 1071.65 46.4431C1071.56 46.4431 1071.2 46.7118 1071.2 46.7118C1071.2 46.6223 1071.2 46.4431 1071.2 46.4431ZM1072.46 46.1744C1072.72 46.1744 1072.72 46.7118 1072.46 46.7118C1072.19 46.7118 1072.19 46.1744 1072.46 46.1744ZM1073.8 45.9953C1073.53 45.2787 1075.14 45.1891 1074.78 46.1744C1074.52 46.891 1073.89 46.264 1073.8 45.9953ZM1076.84 45.9953C1076.58 45.9953 1076.58 46.4431 1076.84 46.4431C1077.02 46.4431 1077.02 45.9953 1076.84 45.9953ZM1071.2 45.7265C1071.38 45.7265 1071.38 46.1744 1071.2 46.1744C1070.93 46.1744 1070.93 45.7265 1071.2 45.7265ZM1072.46 45.7265C1072.72 45.7265 1072.72 46.1744 1072.46 46.1744C1072.19 46.1744 1072.19 45.7265 1072.46 45.7265ZM1071.92 45.4578C1072.19 45.4578 1072.19 45.9953 1071.92 45.9953C1071.65 45.9953 1071.65 45.4578 1071.92 45.4578ZM1068.16 45.1891C1067.89 45.1891 1067.89 45.7265 1068.16 45.7265C1068.34 45.7265 1068.34 45.1891 1068.16 45.1891ZM1070.4 45.1891C1070.84 44.4725 1072.01 44.4725 1071.65 45.4578H1070.66C1070.66 45.4578 1070.49 45.2787 1070.4 45.1891ZM1073.53 45.1891C1073.8 45.1891 1073.8 45.7265 1073.53 45.7265C1073.26 45.7265 1073.26 45.1891 1073.53 45.1891ZM1068.87 44.6517C1068.69 44.5621 1068.69 45.2787 1068.87 45.1891C1069.05 45.0995 1069.05 44.7412 1068.87 44.6517ZM1074.07 44.1142C1073.98 44.1142 1073.8 44.1142 1073.8 44.1142C1073.26 43.7559 1074.96 43.308 1075.32 43.8455V44.3829C1074.7 44.4725 1074.52 44.2934 1074.07 44.1142ZM1075.77 43.1289C1076.04 43.1289 1076.04 43.5768 1075.77 43.5768C1075.59 43.5768 1075.59 43.1289 1075.77 43.1289ZM1069.14 42.8602V43.1289L1069.41 42.8602H1069.14ZM1077.02 42.5915H1077.56L1077.02 42.8602V42.5915ZM1067.08 42.1436V42.3227H1067.89V41.6062C1067.53 41.3374 1067.08 42.054 1067.08 42.1436ZM1078.1 41.3374C1078.19 41.1583 1077.83 41.1583 1077.83 41.3374C1077.92 41.427 1078.1 41.427 1078.1 41.3374ZM1069.68 38.7398C1069.59 38.7398 1069.59 38.5607 1069.68 38.4711H1069.95V39.2772C1069.86 39.1877 1069.68 38.8294 1069.68 38.7398ZM1077.83 38.4711C1077.83 38.6502 1078.01 39.1877 1078.1 39.2772C1078.46 39.0981 1079.08 38.2024 1078.37 37.9336C1078.28 38.0232 1077.83 38.3815 1077.83 38.4711ZM1067.89 38.4711C1068.16 38.4711 1068.16 39.0085 1067.89 39.0085C1067.62 39.0085 1067.62 38.4711 1067.89 38.4711ZM1069.14 38.2024V38.7398H1068.6L1069.14 38.2024ZM1073.26 38.2024C1073.44 38.2919 1073.44 38.4711 1073.26 38.4711C1073.08 38.5607 1073.08 38.2024 1073.26 38.2024ZM1077.83 37.6649C1077.65 37.6649 1077.65 38.0232 1077.83 37.9336C1078.01 37.9336 1078.01 37.7545 1077.83 37.6649ZM1068.16 36.9483C1068.34 36.9483 1068.34 37.4858 1068.16 37.4858C1067.89 37.4858 1067.89 36.9483 1068.16 36.9483ZM1069.68 36.2317C1069.41 36.2317 1069.41 36.7692 1069.68 36.7692C1069.95 36.7692 1069.95 36.2317 1069.68 36.2317ZM1074.07 35.4256C1074.07 35.1569 1074.16 34.6194 1074.52 34.4403C1074.87 34.2611 1075.5 35.4256 1075.59 35.6943H1074.07C1074.07 35.6047 1074.07 35.4256 1074.07 35.4256ZM1076.84 34.6194C1077.02 34.6194 1077.02 35.1569 1076.84 35.1569C1076.58 35.1569 1076.58 34.6194 1076.84 34.6194ZM1073.53 34.4403H1073.8L1073.53 34.6194V34.4403ZM1070.4 33.3654C1070.22 33.3654 1070.22 33.9028 1070.4 33.9028C1070.66 33.9028 1070.66 33.3654 1070.4 33.3654ZM1069.14 33.0967V33.3654H1069.41L1069.14 33.0967ZM1075.77 33.0967C1076.04 33.0967 1076.04 33.6341 1075.77 33.6341C1075.59 33.6341 1075.59 33.0967 1075.77 33.0967ZM1077.02 33.0967C1077.29 33.3654 1078.55 33.455 1078.1 32.8279C1078.1 32.8279 1077.65 32.3801 1077.56 32.2905L1077.02 31.3052C1077.02 31.3052 1076.93 31.126 1076.84 31.126L1076.58 31.3052C1077.11 31.4843 1076.58 32.5592 1077.02 33.0967ZM1074.07 31.5739L1073.53 31.126C1073.35 30.8573 1074.25 29.4241 1074.52 29.245C1074.25 29.3346 1073.89 28.9763 1074.07 28.7971C1074.61 28.8867 1074.96 28.3493 1075.59 28.5284C1076.58 28.7971 1074.16 32.5592 1074.07 32.2905V31.5739ZM1075.32 31.7531C1075.59 31.7531 1075.59 32.2905 1075.32 32.2905C1075.05 32.2905 1075.05 31.7531 1075.32 31.7531ZM1076.04 31.7531C1075.77 31.7531 1075.77 32.2905 1076.04 32.2905C1076.31 32.2905 1076.31 31.7531 1076.04 31.7531ZM1071.2 30.5886C1071.2 30.499 1071.56 30.3199 1071.65 30.3199C1071.74 30.3199 1071.92 30.3199 1071.92 30.3199C1072.1 30.499 1071.2 30.9469 1071.2 31.3052V30.5886ZM1075.77 30.8573C1075.77 30.9469 1075.59 30.9469 1075.59 30.8573C1075.5 30.6782 1075.86 30.6782 1075.77 30.8573ZM1072.19 29.245C1072.28 29.245 1072.46 29.245 1072.46 29.245C1072.55 29.245 1072.55 29.4241 1072.46 29.5137C1072.37 29.6033 1071.83 29.7824 1071.65 29.7824L1072.19 29.245ZM1072.99 29.245C1073.26 29.245 1073.26 29.7824 1072.99 29.7824C1072.72 29.7824 1072.72 29.245 1072.99 29.245ZM1077.56 28.5284L1077.83 28.7971V28.2597L1077.56 28.5284ZM1075.05 27.4535C1075.05 27.5431 1075.05 27.7222 1075.05 27.7222C1074.96 27.8118 1074.61 27.991 1074.52 27.991L1075.05 27.4535ZM1077.56 27.7222C1077.29 27.7222 1077.29 28.2597 1077.56 28.2597C1077.83 28.2597 1077.83 27.7222 1077.56 27.7222ZM1077.56 27.1848C1077.29 27.1848 1077.29 27.7222 1077.56 27.7222C1077.83 27.7222 1077.83 27.1848 1077.56 27.1848ZM1074.78 25.4829C1074.52 25.4829 1074.52 25.9308 1074.78 25.9308C1075.05 25.9308 1075.05 25.4829 1074.78 25.4829ZM1074.52 25.4829C1074.52 25.3038 1074.16 25.3038 1074.25 25.4829C1074.25 25.5725 1074.43 25.5725 1074.52 25.4829ZM1077.02 24.9455C1076.93 24.8559 1076.93 25.2142 1077.02 25.2142C1077.2 25.1246 1077.2 24.9455 1077.02 24.9455ZM1074.25 24.408L1074.78 24.9455V24.408H1074.25ZM1075.77 24.9455C1075.86 24.7663 1075.5 24.7663 1075.59 24.9455C1075.59 25.035 1075.77 25.035 1075.77 24.9455ZM1075.32 24.408C1075.05 24.408 1075.05 24.9455 1075.32 24.9455C1075.59 24.9455 1075.59 24.408 1075.32 24.408ZM1076.31 23.0644C1076.4 23.154 1076.58 24.0497 1076.58 24.408C1076.58 24.408 1076.58 24.5872 1076.58 24.6767C1077.02 24.1393 1077.02 23.0644 1077.02 22.6166C1075.86 22.2583 1075.59 23.4227 1074.78 23.0644V23.6019C1074.87 23.6914 1075.41 23.6914 1075.59 23.6019C1075.59 23.6019 1075.77 23.154 1075.77 23.0644C1075.86 23.0644 1076.04 22.8853 1076.04 22.8853C1076.13 22.8853 1076.31 23.0644 1076.31 23.0644ZM1072.19 23.8706C1072.01 23.781 1072.01 24.1393 1072.19 24.1393C1072.37 24.0497 1072.37 23.8706 1072.19 23.8706ZM1075.77 24.1393C1075.86 23.9602 1075.5 23.9602 1075.59 24.1393C1075.59 24.3185 1075.77 24.3185 1075.77 24.1393ZM1073.53 23.6019V23.8706H1073.8L1073.53 23.6019ZM1073.8 22.6166C1073.8 22.6166 1074.52 23.154 1074.52 22.6166C1074.52 22.6166 1073.89 22.1687 1074.07 21.8104C1073.89 21.6312 1073.17 22.1687 1073.8 22.6166ZM1076.84 21.5417C1076.58 21.5417 1076.58 22.0791 1076.84 22.0791C1077.02 22.0791 1077.02 21.5417 1076.84 21.5417ZM1075.32 21.5417C1075.32 21.3625 1074.96 21.3625 1075.05 21.5417C1075.05 21.7208 1075.23 21.7208 1075.32 21.5417ZM1076.04 21.2729V21.5417H1076.58C1076.49 21.3625 1076.31 21.1834 1076.04 21.2729ZM1074.78 20.7355L1074.52 21.2729C1074.7 21.1834 1074.87 21.0042 1074.78 20.7355ZM1075.32 17.69C1075.05 17.69 1075.05 18.2274 1075.32 18.2274C1075.59 18.2274 1075.59 17.69 1075.32 17.69ZM1075.77 17.69C1075.59 17.69 1075.59 18.2274 1075.77 18.2274C1076.04 18.2274 1076.04 17.69 1075.77 17.69ZM1076.84 15.0924C1076.58 15.0924 1076.58 15.6298 1076.84 15.6298C1077.02 15.6298 1077.02 15.0924 1076.84 15.0924ZM1097.18 14.3758L1097.89 14.6445V14.3758H1097.18ZM1099.42 14.1966C1099.24 14.1071 1099.24 14.6445 1099.42 14.6445C1099.6 14.5549 1099.6 14.1966 1099.42 14.1966ZM1096.64 14.1966C1096.37 14.1966 1096.37 14.6445 1096.64 14.6445C1096.91 14.6445 1096.91 14.1966 1096.64 14.1966ZM1102.01 13.6592V14.3758C1102.01 14.3758 1102.64 13.6592 1102.01 13.6592ZM1095.83 13.3905C1095.57 13.3905 1095.57 13.9279 1095.83 13.9279C1096.1 13.9279 1096.1 13.3905 1095.83 13.3905ZM1097.89 13.3905L1097.63 13.6592H1097.89V13.3905ZM1103.99 12.853C1104.08 12.6739 1103.72 12.6739 1103.72 12.853C1103.81 13.0322 1103.99 13.0322 1103.99 12.853ZM1103.72 11.3303C1103.81 11.1511 1103.45 11.1511 1103.45 11.3303C1103.54 11.5094 1103.72 11.5094 1103.72 11.3303Z" fill="white"/>
<path d="M1007.42 27.9908C1011 26.4382 1014.52 24.8856 1017.99 23.333C1021.51 21.7206 1025.06 20.1382 1028.64 18.5856C1032.59 16.8538 1036.53 15.1519 1040.47 13.4799C1044.41 11.7481 1048.35 10.0462 1052.29 8.37416C1053.67 7.83672 1054.98 7.29928 1056.23 6.76184C1057.55 6.16468 1058.89 5.59738 1060.26 5.05994C1060.32 5.05994 1060.5 5.00022 1060.8 4.88079C1061.16 4.70165 1061.52 4.55236 1061.88 4.43293C1062.29 4.25378 1062.65 4.10449 1062.95 3.98506C1063.25 3.86562 1063.43 3.80591 1063.49 3.80591C1063.73 3.80591 1063.91 4.1642 1064.03 4.88079C1064.21 5.53767 1064.33 6.31397 1064.38 7.2097C1064.44 8.04572 1064.41 8.85189 1064.3 9.62819C1064.24 10.3448 1064.06 10.7927 1063.76 10.9718C1060.23 12.4647 1056.74 13.9576 1053.28 15.4505C1049.81 16.9434 1046.29 18.4363 1042.71 19.9292C1040.2 20.9443 1037.66 21.9296 1035.09 22.8851C1032.59 23.8405 1030.05 24.8258 1027.48 25.841C1026.11 26.3187 1024.73 26.8263 1023.36 27.3638C1022.05 27.9012 1020.7 28.4088 1019.33 28.8865C1019.09 29.5434 1018.85 30.2003 1018.61 30.8571C1018.43 31.514 1018.28 32.1709 1018.16 32.8278C1018.05 33.5443 1017.9 34.2609 1017.72 34.9775C1017.6 35.6344 1017.48 36.3211 1017.36 37.0377C1017 38.4709 1016.64 39.9339 1016.28 41.4268C1015.93 42.86 1015.66 44.323 1015.48 45.8159C1015.42 46.1742 1015.36 46.6221 1015.3 47.1595C1015.3 47.6373 1015.3 48.1448 1015.3 48.6823C1015.3 49.16 1015.36 49.6377 1015.48 50.1155C1015.6 50.5932 1015.81 50.9515 1016.1 51.1903C1016.22 51.3098 1016.4 51.4292 1016.64 51.5486C1017.42 51.8472 1018.28 51.9965 1019.24 51.9965C1020.25 51.9965 1021.24 51.9069 1022.2 51.7278C1023.21 51.4889 1024.2 51.2202 1025.15 50.9216C1026.11 50.623 1026.94 50.3245 1027.66 50.0259C1029.27 49.369 1030.88 48.6226 1032.5 47.7865C1034.17 46.9505 1035.75 46.0548 1037.24 45.0993C1037.48 44.9799 1037.81 44.8008 1038.23 44.5619C1038.71 44.323 1039.1 44.2932 1039.39 44.4723C1039.57 44.5918 1039.72 44.8306 1039.84 45.1889C1040.02 45.4875 1040.17 45.7562 1040.29 45.9951C1040.29 46.1742 1040.11 46.4429 1039.75 46.8012C1039.45 47.0998 1039.1 47.4282 1038.68 47.7865C1038.32 48.1448 1037.96 48.4733 1037.6 48.7719C1037.24 49.0704 1037.01 49.2794 1036.89 49.3989C1035.69 50.414 1034.44 51.3695 1033.12 52.2652C1031.81 53.161 1030.47 53.997 1029.09 54.7733C1028.26 55.251 1027.27 55.7586 1026.14 56.296C1025.06 56.8335 1023.93 57.2813 1022.73 57.6396C1021.54 57.9979 1020.34 58.2069 1019.15 58.2667C1017.96 58.3264 1016.88 58.1472 1015.93 57.7292L1010.01 48.6823C1009.12 47.3088 1008.55 45.9652 1008.31 44.6515C1008.13 43.278 1008.13 41.9344 1008.31 40.6207C1008.49 39.3069 1008.76 37.9932 1009.12 36.6794C1009.54 35.3657 1009.89 33.9922 1010.19 32.559C1007.8 33.5742 1005.42 34.5894 1003.03 35.6045C1000.7 36.56 998.339 37.5453 995.951 38.5605C992.487 41.7851 989.083 45.0396 985.739 48.324C982.455 51.6084 979.111 54.9524 975.707 58.3562L969.616 65.1638C969.556 65.2833 969.437 65.2534 969.258 65.0743C968.959 64.9548 968.631 64.6861 968.272 64.2681C967.914 63.7904 967.586 63.2828 967.287 62.7453C966.988 62.1482 966.72 61.5809 966.481 61.0434C966.302 60.4463 966.242 59.9984 966.302 59.6998C966.302 59.5207 966.929 58.7444 968.183 57.3709C969.496 55.9975 971.109 54.3254 973.02 52.3548C974.931 50.3842 977.021 48.2643 979.29 45.9951C981.559 43.6662 983.709 41.4865 985.739 39.4562C987.77 37.3661 989.531 35.5747 991.024 34.0818C992.517 32.5889 993.442 31.6633 993.801 31.305C994.099 31.0064 994.995 30.1107 996.488 28.6178C998.041 27.1249 999.832 25.3633 1001.86 23.333C1003.95 21.3026 1006.16 19.1529 1008.49 16.8837C1010.82 14.5547 1012.97 12.4348 1014.94 10.5239C1016.97 8.61303 1018.64 7.03056 1019.96 5.77653C1021.33 4.46278 1022.08 3.80591 1022.2 3.80591C1022.37 3.80591 1022.61 3.9552 1022.91 4.25378C1023.27 4.55235 1023.63 4.88079 1023.99 5.23909C1024.35 5.59738 1024.67 5.95568 1024.97 6.31397C1025.33 6.61255 1025.57 6.82155 1025.69 6.94099C1025.75 7.06042 1025.93 7.32914 1026.23 7.74715C1026.58 8.10544 1026.91 8.52345 1027.21 9.00118C1027.57 9.41919 1027.87 9.8372 1028.11 10.2552C1028.35 10.6135 1028.38 10.8225 1028.2 10.8822C1026.47 12.0765 1024.76 13.3306 1023.09 14.6443C1021.42 15.8983 1019.78 17.2121 1018.16 18.5856C1016.37 20.1382 1014.55 21.7206 1012.7 23.333C1010.91 24.8856 1009.15 26.4382 1007.42 27.9908Z" fill="white"/>
<path d="M929.24 3H944.019L945.632 8.91186L958.709 61.5811C959.516 64.8953 962.651 64.5371 966.771 64.7162V65.7015H945.094V64.8058C949.215 64.7162 953.872 64.9849 952.977 61.3124L948.319 42.4124H933.718L930.046 61.5811C929.508 64.5371 934.077 64.5371 938.018 64.8058V65.7015H920.014V64.8058C924.044 64.6266 927.448 64.8058 928.254 61.3124L938.555 8.91186C939.272 5.23934 936.585 4.07489 929.24 3.89573V3ZM940.078 9.71802L934.077 40.6209H947.871L940.257 9.71802H940.078Z" fill="white"/>
<path d="M889.732 65.7015V13.1218H873.25V3H916.872V13.1218H900.391V65.7015H889.732Z" fill="white"/>
</g>
<defs>
<clipPath id="clip0_270_5038">
<rect width="1274" height="74" fill="white"/>
</clipPath>
</defs>
</svg>
