<svg width="381" height="340" viewBox="0 0 381 340" fill="none" xmlns="http://www.w3.org/2000/svg">
<g clip-path="url(#clip0_249_2259)">
<path d="M64.9778 92.3802C63.9319 92.5889 62.8796 92.5277 61.8208 92.1968C60.7619 91.8659 59.8901 91.3257 59.2052 90.5761C58.5203 89.8266 58.0946 88.9628 57.9283 87.9847C57.7517 87.0035 57.8514 86.0138 58.2275 85.0156C58.6487 83.8977 59.3358 82.98 60.2888 82.2625C61.2419 81.5451 62.3311 81.1157 63.5565 80.9742L63.5582 82.7822C62.715 82.8757 61.9662 83.1717 61.3119 83.6701C60.6613 84.1585 60.1932 84.782 59.9074 85.5406C59.5087 86.5987 59.5489 87.6098 60.0278 88.5739C60.4965 89.5348 61.301 90.1935 62.4412 90.5498C63.5815 90.9062 64.6656 90.8378 65.6935 90.3445C66.7113 89.8481 67.4194 89.0709 67.8181 88.0128C68.1114 87.2343 68.1576 86.4621 67.9567 85.6965C67.7494 84.9176 67.3242 84.2492 66.6809 83.6911L67.8913 82.2452C68.8115 83.0349 69.4174 83.9941 69.7091 85.1228C70.0008 86.2516 69.9304 87.3899 69.4979 88.5378C69.1219 89.536 68.5385 90.3746 67.7479 91.0535C66.9471 91.7293 66.0237 92.1715 64.9778 92.3802Z" fill="#A5C827"/>
<path d="M68.6944 77.8789L58.635 72.9547L59.6106 71.4898L63.8643 73.572L64.1481 73.1459L62.3067 67.4414L63.5838 65.5237L65.781 72.2677L73.6432 70.448L72.3661 72.3656L65.772 73.9408L65.4882 74.367L69.67 76.4141L68.6944 77.8789Z" fill="#A5C827"/>
<path d="M71.0462 58.0185L67.8978 59.8612L69.8883 62.1164L73.1057 60.2333C73.474 60.0178 73.68 59.7213 73.7239 59.3439C73.7699 58.9532 73.6411 58.5858 73.3376 58.242C73.0694 57.9381 72.7171 57.7683 72.2807 57.7326C71.8535 57.6915 71.442 57.7868 71.0462 58.0185ZM74.228 61.5049L71.0106 63.388L73.0223 65.6672L76.3088 63.7436C76.7046 63.512 76.9432 63.2207 77.0245 62.8699C77.1079 62.5057 77.0191 62.1757 76.7579 61.8798C76.4473 61.5279 76.0516 61.3169 75.5707 61.2466C75.0899 61.1763 74.6423 61.2624 74.228 61.5049ZM77.6042 64.9503L72.6468 67.8517L65.2353 59.4547L70.0546 56.6341C70.8463 56.1707 71.6799 55.9921 72.5554 56.0982C73.4401 56.199 74.1578 56.5612 74.7083 57.185C75.0824 57.6088 75.3132 58.0681 75.4007 58.5626C75.4812 59.0492 75.4081 59.5043 75.1817 59.9279C75.793 59.8612 76.3853 59.9391 76.9585 60.1615C77.5339 60.3705 78.0157 60.6949 78.4039 61.1347C78.9616 61.7665 79.1651 62.4479 79.0144 63.1789C78.8567 63.9018 78.3867 64.4923 77.6042 64.9503Z" fill="#A5C827"/>
<path d="M84.673 61.7617C84.8914 62.9579 85.4546 63.9181 86.3626 64.6423C87.2686 65.356 88.2804 65.6747 89.3978 65.5984C90.5152 65.5222 91.387 65.0748 92.0134 64.2565C92.6379 63.4277 92.8409 62.4152 92.6225 61.219C92.408 60.0437 91.8486 59.1045 90.9445 58.4013C90.0384 57.6876 89.0267 57.3689 87.9093 57.4452C86.7919 57.5215 85.92 57.9688 85.2936 58.7871C84.6653 59.5949 84.4585 60.5865 84.673 61.7617ZM82.9171 61.8816C82.6106 60.2027 82.9121 58.785 83.8215 57.6287C84.729 56.4618 85.9863 55.8235 87.5932 55.7138C89.2001 55.6041 90.6566 56.0571 91.9626 57.0728C93.2666 58.0781 94.0719 59.4202 94.3784 61.0991C94.6869 62.7885 94.3883 64.2219 93.4827 65.3992C92.577 66.5766 91.3208 67.2201 89.7138 67.3298C88.1069 67.4395 86.6495 66.9813 85.3416 65.9551C84.0337 64.9288 83.2255 63.571 82.9171 61.8816Z" fill="#A5C827"/>
<path d="M97.9561 59.5554C98.3371 58.8675 98.8607 58.3506 99.5269 58.0045C100.205 57.649 100.941 57.5143 101.736 57.6004C102.723 57.7072 103.528 58.0947 104.153 58.7628C104.789 59.432 105.075 60.2082 105.011 61.0912C104.973 61.6232 104.81 62.0988 104.523 62.5181C104.237 62.9267 103.857 63.234 103.383 63.44C103.904 63.7752 104.305 64.2153 104.586 64.7604C104.867 65.3055 104.986 65.8813 104.942 66.4877C104.875 67.4239 104.452 68.1663 103.675 68.7148C102.91 69.2538 101.981 69.4641 100.888 69.3459C100.019 69.2517 99.2493 68.954 98.5801 68.4526C97.9223 67.9418 97.4457 67.2897 97.1503 66.4965L98.8657 65.8298C99.0212 66.3399 99.2901 66.7603 99.6724 67.0912C100.055 67.4221 100.5 67.6151 101.009 67.6702C101.603 67.7345 102.109 67.6177 102.525 67.3197C102.943 67.0111 103.171 66.5962 103.209 66.0748C103.243 65.5961 103.097 65.1729 102.771 64.8052C102.445 64.4375 102.027 64.2261 101.518 64.171L99.9914 64.0056L100.111 62.3459L101.638 62.5113C102.062 62.5572 102.428 62.452 102.735 62.1958C103.043 61.9289 103.212 61.5827 103.243 61.1571C103.278 60.6677 103.133 60.2445 102.806 59.8874C102.489 59.5315 102.077 59.326 101.568 59.2709C101.133 59.2238 100.731 59.309 100.363 59.5265C99.9952 59.7333 99.7055 60.045 99.4938 60.4617L97.9561 59.5554Z" fill="#A5C827"/>
<path d="M113.592 59.6585L112.634 63.9037L116.531 64.7292C117.512 64.937 118.269 65.4353 118.801 66.2241C119.334 67.0128 119.495 67.8754 119.283 68.8119C119.067 69.7691 118.569 70.4977 117.789 70.9975C117.01 71.4974 116.14 71.6457 115.18 71.4423L109.404 70.2189L111.87 59.2938L113.592 59.6585ZM115.404 69.7236C115.915 69.8319 116.373 69.7653 116.777 69.5239C117.194 69.2743 117.456 68.9154 117.562 68.4472C117.667 67.9789 117.583 67.5523 117.309 67.1672C117.048 66.7739 116.662 66.5231 116.151 66.4148L112.253 65.5893L111.506 68.898L115.404 69.7236Z" fill="#A5C827"/>
<path d="M133.698 65.3979L130.11 64.7367L129.565 67.6949L133.231 68.3706C133.651 68.4479 134.03 68.3605 134.369 68.1085C134.721 67.8479 134.939 67.4921 135.022 67.041C135.095 66.6424 135.003 66.2892 134.745 65.9814C134.498 65.6755 134.149 65.481 133.698 65.3979ZM132.924 70.0385L129.257 69.3629L128.707 72.3525L132.451 73.0426C132.903 73.1258 133.299 73.0633 133.641 72.8551C133.996 72.6384 134.209 72.336 134.28 71.9479C134.365 71.4863 134.278 71.0745 134.02 70.7123C133.761 70.3501 133.396 70.1255 132.924 70.0385ZM132.311 74.7739L126.662 73.7329L128.692 62.7184L134.184 63.7304C135.086 63.8966 135.781 64.3014 136.27 64.9446C136.77 65.5898 136.944 66.3215 136.793 67.1397C136.691 67.6957 136.465 68.1855 136.116 68.6093C135.768 69.0225 135.346 69.3134 134.848 69.4821C135.306 69.8266 135.631 70.2663 135.826 70.801C136.032 71.3272 136.083 71.8787 135.976 72.4557C135.823 73.2844 135.397 73.9217 134.697 74.3674C133.998 74.8027 133.203 74.9382 132.311 74.7739Z" fill="#A5C827"/>
<path d="M141.885 69.9495L147.329 70.9527L147.016 72.6521L141.572 71.6488L141.024 74.6228L146.846 75.6956L146.533 77.395L138.98 76.0032L141.01 64.9886L148.562 66.3805L148.249 68.0799L142.427 67.007L141.885 69.9495Z" fill="#A5C827"/>
<path d="M149.238 77.8934L151.268 66.8789L152.999 67.1979L152.14 71.8554L152.644 71.9482L157.782 68.0793L160.048 68.4969L153.979 73.0891L158.018 79.5114L155.752 79.0939L152.316 73.7263L151.813 73.6335L150.969 78.2124L149.238 77.8934Z" fill="#A5C827"/>
<path d="M164.658 76.245L170.952 77.4049L170.65 79.0413L164.356 77.8815L164.658 76.245ZM163.354 80.4951L161.372 80.1297L167.902 69.9445L170.167 70.3621L172.669 82.2117L170.687 81.8463L168.735 71.9529L163.354 80.4951Z" fill="#A5C827"/>
<path d="M174.49 81.5061C174.555 81.1494 174.726 80.8717 175.001 80.673C175.276 80.4742 175.587 80.4068 175.933 80.4706C176.3 80.5382 176.582 80.7149 176.779 81.0006C176.976 81.2864 177.042 81.6076 176.976 81.9642C176.91 82.3209 176.734 82.5976 176.449 82.7944C176.175 82.9827 175.86 83.044 175.504 82.9782C175.147 82.9125 174.869 82.742 174.671 82.4668C174.484 82.183 174.424 81.8628 174.49 81.5061Z" fill="#A5C827"/>
<path d="M192.253 76.1889L188.666 75.5278L188.12 78.486L191.787 79.1616C192.206 79.2389 192.586 79.1515 192.925 78.8995C193.277 78.639 193.494 78.2831 193.577 77.8321C193.651 77.4334 193.559 77.0802 193.301 76.7724C193.053 76.4665 192.704 76.272 192.253 76.1889ZM191.479 80.8295L187.813 80.1539L187.262 83.1435L191.007 83.8336C191.458 83.9168 191.855 83.8543 192.197 83.6461C192.551 83.4295 192.764 83.1271 192.836 82.7389C192.921 82.2774 192.834 81.8655 192.575 81.5033C192.317 81.1411 191.951 80.9165 191.479 80.8295ZM190.867 85.5649L185.218 84.524L187.248 73.5094L192.739 74.5214C193.642 74.6876 194.337 75.0924 194.826 75.7356C195.325 76.3808 195.5 77.1125 195.349 77.9307C195.246 78.4867 195.02 78.9766 194.671 79.4003C194.324 79.8135 193.902 80.1044 193.404 80.2731C193.861 80.6176 194.187 81.0573 194.381 81.592C194.588 82.1182 194.638 82.6698 194.532 83.2467C194.379 84.0754 193.953 84.7127 193.252 85.1585C192.554 85.5938 191.759 85.7292 190.867 85.5649Z" fill="#A5C827"/>
<path d="M204.475 76.6842L213.759 78.395L211.729 89.4096L209.998 89.0906L211.729 79.6968L205.907 78.6239L204.176 88.0177L202.445 87.6988L204.475 76.6842Z" fill="#A5C827"/>
<path d="M221.611 81.5995L218.795 81.0804L218.035 85.203L220.852 85.7221C221.512 85.8439 222.105 85.747 222.63 85.4315C223.154 85.116 223.472 84.6593 223.582 84.0614C223.69 83.4739 223.553 82.9498 223.172 82.489C222.803 82.0197 222.283 81.7232 221.611 81.5995ZM220.538 87.4215L217.722 86.9024L217.078 90.3956L215.347 90.0766L217.377 79.0621L222.082 79.9291C223.204 80.1359 224.072 80.6646 224.685 81.5152C225.301 82.3553 225.51 83.3103 225.313 84.3803C225.117 85.4398 224.553 86.2632 223.621 86.8506C222.699 87.44 221.671 87.6302 220.538 87.4215Z" fill="#A5C827"/>
<path d="M230.169 87.0641C229.949 88.2599 230.145 89.3156 230.757 90.231C231.371 91.136 232.229 91.6899 233.33 91.8929C234.432 92.0959 235.431 91.8841 236.327 91.2575C237.225 90.6204 237.785 89.7039 238.005 88.5081C238.222 87.3332 238.022 86.2985 237.406 85.4041C236.791 84.4991 235.934 83.9451 234.832 83.7422C233.731 83.5392 232.732 83.751 231.835 84.3776C230.941 84.9937 230.385 85.8892 230.169 87.0641ZM228.438 86.7451C228.747 85.0667 229.547 83.7878 230.837 82.9083C232.129 82.0184 233.567 81.7194 235.151 82.0113C236.735 82.3032 237.972 83.0952 238.862 84.3872C239.754 85.6687 240.045 87.1486 239.736 88.827C239.425 90.5159 238.622 91.8106 237.328 92.711C236.034 93.6114 234.595 93.9157 233.011 93.6238C231.427 93.3319 230.191 92.5347 229.303 91.2322C228.415 89.9297 228.127 88.434 228.438 86.7451Z" fill="#A5C827"/>
<path d="M255.081 97.3981L241.706 94.9334L243.736 83.9188L245.467 84.2378L243.75 93.5529L247.873 94.3126L249.589 84.9975L251.32 85.3165L249.604 94.6316L253.663 95.3797L255.38 86.0646L257.111 86.3835L255.081 97.3981Z" fill="#A5C827"/>
<path d="M259.018 96.4483C259.742 96.5817 260.339 96.4586 260.81 96.0791C261.292 95.7015 261.597 95.1665 261.724 94.4742L263.015 87.4721L270.096 88.7769L268.066 99.7914L266.335 99.4725L268.066 90.0786L264.447 89.4117L263.386 95.1708C263.204 96.1568 262.695 96.947 261.859 97.5413C261.035 98.127 260.072 98.3184 258.971 98.1154L258.342 97.9995L258.64 96.3787L259.018 96.4483Z" fill="#A5C827"/>
<path d="M274.431 95.2218C274.21 96.4176 274.406 97.4733 275.018 98.3887C275.633 99.2937 276.49 99.8477 277.592 100.051C278.693 100.254 279.692 100.042 280.589 99.4152C281.487 98.7781 282.046 97.8617 282.267 96.6658C282.483 95.4909 282.283 94.4562 281.667 93.5618C281.053 92.6568 280.195 92.1029 279.094 91.8999C277.992 91.6969 276.994 91.9087 276.097 92.5353C275.203 93.1514 274.647 94.0469 274.431 95.2218ZM272.7 94.9028C273.009 93.2244 273.809 91.9455 275.099 91.0661C276.391 90.1761 277.829 89.8771 279.413 90.169C280.997 90.4609 282.234 91.2529 283.124 92.5449C284.016 93.8264 284.307 95.3064 283.998 96.9848C283.686 98.6737 282.884 99.9683 281.59 100.869C280.296 101.769 278.857 102.073 277.273 101.781C275.689 101.49 274.453 100.692 273.565 99.3899C272.677 98.0874 272.389 96.5917 272.7 94.9028Z" fill="#A5C827"/>
<path d="M288.967 97.0535L294.411 98.0567L294.098 99.7561L288.654 98.7528L288.106 101.727L293.928 102.8L293.615 104.499L286.062 103.107L288.092 92.0927L295.644 93.4845L295.331 95.1839L289.509 94.111L288.967 97.0535Z" fill="#A5C827"/>
<path d="M296.135 103.923C296.201 103.566 296.371 103.289 296.647 103.09C296.922 102.891 297.233 102.824 297.579 102.888C297.946 102.955 298.228 103.132 298.425 103.418C298.622 103.703 298.687 104.025 298.621 104.381C298.556 104.738 298.38 105.015 298.094 105.211C297.821 105.4 297.506 105.461 297.149 105.395C296.793 105.33 296.515 105.159 296.316 104.884C296.13 104.6 296.069 104.28 296.135 103.923Z" fill="#A5C827"/>
<path d="M314.53 98.8855L311.03 97.8554L310.039 100.695L313.615 101.748C314.024 101.868 314.418 101.823 314.796 101.613C315.188 101.395 315.46 101.069 315.611 100.636C315.745 100.254 315.705 99.8978 315.493 99.5688C315.291 99.2428 314.97 99.015 314.53 98.8855ZM313.056 103.349L309.48 102.296L308.477 105.167L312.13 106.242C312.57 106.371 312.978 106.352 313.352 106.185C313.74 106.01 313.999 105.737 314.13 105.364C314.284 104.921 314.259 104.508 314.054 104.126C313.849 103.744 313.516 103.485 313.056 103.349ZM311.73 107.923L306.219 106.301L309.912 95.7271L315.268 97.3038C316.148 97.5628 316.785 98.0334 317.179 98.7157C317.583 99.4009 317.648 100.136 317.373 100.922C317.187 101.456 316.887 101.911 316.473 102.289C316.062 102.657 315.595 102.897 315.07 103.009C315.477 103.395 315.738 103.861 315.852 104.405C315.981 104.943 315.948 105.489 315.755 106.042C315.477 106.838 314.953 107.417 314.183 107.779C313.417 108.131 312.599 108.179 311.73 107.923Z" fill="#A5C827"/>
<path d="M325.865 100.514L333.757 105.694L326.011 113.784L324.54 112.818L331.146 105.918L326.196 102.67L319.591 109.57L318.119 108.604L325.865 100.514Z" fill="#A5C827"/>
<path d="M330.203 113.649L334.926 114.262L340.16 108.773L340.992 110.679L336.899 114.747L343.126 115.561L343.953 117.452L331.017 115.511L330.203 113.649Z" fill="#A5C827"/>
<path d="M341.358 128.651L339.641 128.459L339.911 124.949L330.497 123.899L330.632 122.145L340.046 123.195L340.316 119.685L342.034 119.877L341.358 128.651Z" fill="#A5C827"/>
<path d="M340.225 133.943L335.945 133.154L335.223 137.072C335.041 138.058 334.563 138.832 333.786 139.394C333.01 139.956 332.15 140.15 331.206 139.976C330.241 139.799 329.498 139.331 328.976 138.573C328.454 137.815 328.282 136.954 328.46 135.989L329.529 130.182L340.544 132.212L340.225 133.943ZM330.188 136.144C330.093 136.658 330.172 137.112 330.425 137.506C330.686 137.912 331.053 138.159 331.525 138.246C331.997 138.333 332.423 138.232 332.801 137.944C333.188 137.668 333.429 137.273 333.524 136.759L334.246 132.841L330.91 132.226L330.188 136.144Z" fill="#A5C827"/>
<path d="M330.356 145.279L330.646 143.705L338.306 144.954L337.958 146.842L330.356 145.279ZM328.351 142.827C328.707 142.893 328.985 143.063 329.184 143.338C329.383 143.614 329.449 143.929 329.383 144.286C329.318 144.643 329.142 144.92 328.856 145.116C328.57 145.313 328.249 145.379 327.893 145.313C327.536 145.247 327.259 145.072 327.062 144.786C326.874 144.512 326.813 144.198 326.879 143.841C326.942 143.495 327.112 143.222 327.387 143.023C327.673 142.827 327.994 142.761 328.351 142.827Z" fill="#A5C827"/>
<path d="M329.292 151.8C330.277 151.461 331.315 151.391 332.405 151.593C333.496 151.794 334.441 152.228 335.24 152.896C336.039 153.564 336.605 154.378 336.937 155.34C337.28 156.303 337.355 157.31 337.162 158.359C336.946 159.533 336.435 160.54 335.629 161.379C334.824 162.217 333.836 162.784 332.664 163.078L332.348 161.262C333.155 161.064 333.834 160.674 334.386 160.092C334.936 159.521 335.284 158.837 335.431 158.04C335.636 156.928 335.421 155.917 334.786 155.008C334.161 154.102 333.261 153.54 332.087 153.323C330.912 153.107 329.865 153.31 328.948 153.933C328.041 154.557 327.485 155.426 327.28 156.538C327.13 157.356 327.219 158.137 327.548 158.881C327.886 159.637 328.417 160.256 329.142 160.737L328.213 162.339C327.177 161.66 326.419 160.772 325.938 159.674C325.457 158.577 325.327 157.425 325.55 156.219C325.743 155.17 326.166 154.255 326.82 153.475C327.484 152.698 328.308 152.139 329.292 151.8Z" fill="#A5C827"/>
<path d="M325.399 164.679L336.043 168.164L335.39 169.799L330.889 168.325L330.699 168.8L333.585 174.316L332.73 176.455L329.299 169.938L322.087 172.969L322.941 170.83L328.981 168.237L329.171 167.762L324.746 166.313L325.399 164.679Z" fill="#A5C827"/>
<path d="M329.491 183.689L331.593 180.707L328.93 179.309L326.782 182.356C326.536 182.705 326.467 183.069 326.575 183.448C326.686 183.841 326.945 184.144 327.351 184.357C327.71 184.545 328.092 184.572 328.496 184.439C328.895 184.313 329.227 184.063 329.491 183.689ZM325.28 181.568L327.428 178.521L324.736 177.108L322.542 180.22C322.278 180.595 322.177 180.967 322.242 181.335C322.309 181.717 322.517 181.999 322.867 182.182C323.282 182.401 323.719 182.451 324.177 182.333C324.636 182.215 325.003 181.96 325.28 181.568ZM320.91 179.561L324.22 174.867L334.137 180.072L330.92 184.635C330.391 185.385 329.714 185.878 328.888 186.113C328.056 186.357 327.272 186.286 326.535 185.899C326.034 185.637 325.648 185.285 325.377 184.844C325.115 184.408 325.003 183.943 325.041 183.449C324.519 183.748 323.958 183.902 323.357 183.909C322.76 183.93 322.202 183.804 321.683 183.532C320.936 183.14 320.488 182.564 320.338 181.805C320.197 181.05 320.388 180.302 320.91 179.561Z" fill="#A5C827"/>
<path d="M318.836 186.889C318.11 185.914 317.164 185.275 316 184.973C314.842 184.679 313.757 184.774 312.746 185.256C311.736 185.739 311.116 186.457 310.888 187.413C310.667 188.377 310.919 189.346 311.645 190.322C312.359 191.28 313.291 191.901 314.443 192.187C315.601 192.48 316.686 192.386 317.697 191.903C318.707 191.421 319.327 190.702 319.555 189.747C319.789 188.8 319.55 187.847 318.836 186.889ZM320.424 186.131C321.444 187.5 321.781 188.864 321.436 190.223C321.097 191.59 320.201 192.621 318.748 193.315C317.294 194.009 315.736 194.15 314.072 193.738C312.415 193.335 311.076 192.449 310.057 191.08C309.031 189.702 308.684 188.326 309.017 186.95C309.349 185.573 310.242 184.538 311.695 183.844C313.149 183.151 314.711 183.014 316.381 183.434C318.051 183.855 319.399 184.753 320.424 186.131Z" fill="#A5C827"/>
<path d="M306.085 188.792C305.828 189.518 305.402 190.091 304.804 190.513C304.198 190.946 303.494 191.167 302.694 191.178C301.702 191.19 300.84 190.904 300.107 190.318C299.363 189.732 298.945 188.999 298.854 188.119C298.8 187.588 298.877 187.098 299.087 186.65C299.298 186.211 299.62 185.862 300.053 185.602C299.48 185.333 299.008 184.945 298.635 184.44C298.263 183.935 298.045 183.38 297.983 182.775C297.886 181.841 298.174 181.057 298.845 180.422C299.507 179.797 300.387 179.478 301.486 179.464C302.36 179.453 303.172 179.655 303.919 180.07C304.658 180.497 305.241 181.084 305.671 181.833L304.094 182.698C303.852 182.212 303.513 181.829 303.079 181.547C302.644 181.266 302.17 181.128 301.658 181.135C301.061 181.142 300.583 181.319 300.223 181.663C299.864 182.018 299.712 182.456 299.766 182.976C299.815 183.453 300.032 183.854 300.418 184.179C300.804 184.503 301.253 184.662 301.765 184.655L303.301 184.636L303.472 186.291L301.936 186.311C301.509 186.316 301.167 186.464 300.908 186.754C300.651 187.055 300.544 187.417 300.588 187.842C300.638 188.33 300.856 188.731 301.241 189.045C301.615 189.359 302.058 189.512 302.57 189.506C303.007 189.5 303.389 189.368 303.714 189.109C304.041 188.86 304.273 188.517 304.409 188.08L306.085 188.792Z" fill="#A5C827"/>
<path d="M292.448 190.211L293.126 185.912L289.196 185.259C288.207 185.094 287.422 184.629 286.841 183.862C286.26 183.095 286.044 182.237 286.194 181.289C286.347 180.319 286.795 179.567 287.538 179.031C288.281 178.495 289.137 178.307 290.105 178.468L295.929 179.437L294.184 190.5L292.448 190.211ZM289.993 180.201C289.478 180.116 289.027 180.203 288.64 180.463C288.242 180.732 288.005 181.103 287.93 181.577C287.855 182.051 287.967 182.475 288.264 182.849C288.549 183.232 288.95 183.466 289.465 183.552L293.395 184.206L293.923 180.855L289.993 180.201Z" fill="#A5C827"/>
<path d="M272.42 184.808L276.01 185.456L276.538 182.495L272.87 181.833C272.45 181.757 272.071 181.846 271.733 182.099C271.383 182.361 271.167 182.718 271.087 183.169C271.016 183.568 271.11 183.921 271.369 184.228C271.618 184.533 271.968 184.727 272.42 184.808ZM273.168 180.163L276.836 180.825L277.371 177.832L273.623 177.156C273.172 177.075 272.776 177.139 272.435 177.348C272.082 177.566 271.871 177.87 271.801 178.258C271.719 178.72 271.808 179.132 272.068 179.493C272.329 179.855 272.695 180.078 273.168 180.163ZM273.754 175.424L279.407 176.444L277.438 187.469L271.943 186.478C271.04 186.315 270.342 185.913 269.85 185.271C269.347 184.628 269.169 183.896 269.315 183.077C269.415 182.521 269.638 182.03 269.985 181.605C270.33 181.19 270.75 180.897 271.247 180.727C270.788 180.384 270.46 179.945 270.263 179.411C270.053 178.886 270 178.334 270.103 177.757C270.251 176.927 270.674 176.288 271.372 175.839C272.068 175.401 272.862 175.263 273.754 175.424Z" fill="#A5C827"/>
<path d="M264.228 180.276L258.795 179.214L259.135 177.52L264.568 178.582L265.164 175.617L259.354 174.482L259.694 172.787L267.231 174.26L265.026 185.241L257.489 183.768L257.829 182.074L263.639 183.209L264.228 180.276Z" fill="#A5C827"/>
<path d="M256.085 172.21L253.885 183.192L252.158 182.855L253.088 178.211L252.586 178.113L247.384 181.924L245.123 181.483L251.267 176.959L247.322 170.501L249.584 170.942L252.941 176.34L253.443 176.438L254.358 171.873L256.085 172.21Z" fill="#A5C827"/>
<path d="M241.489 174.003L235.209 172.771L235.538 171.14L241.818 172.372L241.489 174.003ZM242.865 169.772L244.843 170.16L238.138 180.259L235.877 179.815L233.57 167.95L235.548 168.338L237.336 178.243L242.865 169.772Z" fill="#A5C827"/>
<path d="M230.835 168.569C230.763 168.925 230.588 169.2 230.309 169.395C230.03 169.591 229.718 169.654 229.373 169.586C229.006 169.514 228.727 169.334 228.535 169.047C228.343 168.759 228.283 168.437 228.355 168.082C228.427 167.726 228.608 167.452 228.897 167.259C229.174 167.074 229.49 167.017 229.846 167.087C230.202 167.157 230.477 167.33 230.671 167.608C230.853 167.893 230.907 168.214 230.835 168.569Z" fill="#A5C827"/>
<path d="M213.836 174.001L217.42 174.683L217.99 171.729L214.328 171.033C213.909 170.953 213.528 171.038 213.187 171.288C212.833 171.547 212.612 171.901 212.525 172.352C212.448 172.75 212.538 173.103 212.793 173.412C213.038 173.719 213.386 173.916 213.836 174.001ZM214.649 169.368L218.312 170.064L218.888 167.079L215.147 166.368C214.696 166.282 214.299 166.342 213.955 166.548C213.598 166.763 213.383 167.064 213.308 167.452C213.219 167.912 213.302 168.325 213.558 168.688C213.814 169.052 214.178 169.278 214.649 169.368ZM215.301 164.638L220.944 165.711L218.822 176.708L213.336 175.665C212.435 175.494 211.742 175.085 211.259 174.44C210.764 173.792 210.596 173.06 210.754 172.243C210.861 171.688 211.091 171.199 211.444 170.778C211.795 170.367 212.22 170.078 212.719 169.913C212.264 169.566 211.942 169.125 211.752 168.589C211.55 168.062 211.504 167.51 211.615 166.934C211.775 166.107 212.207 165.472 212.911 165.031C213.614 164.6 214.41 164.469 215.301 164.638Z" fill="#A5C827"/>
<path d="M200.661 173.4L191.4 171.572L193.636 160.597L195.363 160.938L193.455 170.298L199.263 171.444L201.171 162.085L202.898 162.426L200.661 173.4Z" fill="#A5C827"/>
<path d="M183.561 168.425L186.37 168.987L187.222 164.883L184.414 164.321C183.755 164.189 183.16 164.277 182.627 164.584C182.095 164.891 181.767 165.342 181.644 165.937C181.522 166.522 181.647 167.047 182.019 167.513C182.378 167.987 182.892 168.292 183.561 168.425ZM184.765 162.629L187.574 163.191L188.296 159.713L190.022 160.059L187.744 171.024L183.053 170.086C181.934 169.862 181.077 169.321 180.482 168.462C179.884 167.614 179.696 166.657 179.918 165.592C180.137 164.537 180.72 163.723 181.667 163.151C182.603 162.577 183.636 162.403 184.765 162.629Z" fill="#A5C827"/>
<path d="M175.97 163.231C176.227 162.043 176.062 160.985 175.476 160.059C174.888 159.143 174.045 158.573 172.948 158.348C171.851 158.122 170.844 158.313 169.928 158.92C169.009 159.537 168.422 160.44 168.165 161.629C167.914 162.796 168.083 163.833 168.673 164.738C169.262 165.654 170.104 166.224 171.201 166.45C172.298 166.675 173.305 166.484 174.222 165.877C175.136 165.281 175.719 164.399 175.97 163.231ZM177.695 163.585C177.335 165.254 176.496 166.513 175.178 167.364C173.857 168.225 172.408 168.494 170.83 168.17C169.253 167.846 168.037 167.03 167.185 165.723C166.329 164.426 166.082 162.943 166.441 161.275C166.803 159.596 167.645 158.321 168.968 157.449C170.291 156.577 171.741 156.303 173.319 156.627C174.897 156.951 176.111 157.772 176.961 159.09C177.812 160.408 178.056 161.906 177.695 163.585Z" fill="#A5C827"/>
<path d="M151.25 152.721L164.576 155.437L162.24 166.39L160.515 166.039L162.491 156.775L158.383 155.938L156.408 165.202L154.683 164.85L156.659 155.587L152.614 154.763L150.638 164.026L148.914 163.675L151.25 152.721Z" fill="#A5C827"/>
<path d="M146.287 153.662C145.564 153.521 144.964 153.637 144.486 154.01C143.998 154.382 143.684 154.913 143.544 155.603L142.135 162.582L135.069 161.196L137.287 150.217L139.014 150.556L137.123 159.919L140.734 160.628L141.893 154.888C142.092 153.905 142.615 153.121 143.462 152.538C144.296 151.962 145.263 151.782 146.362 151.998L146.99 152.121L146.664 153.736L146.287 153.662Z" fill="#A5C827"/>
<path d="M131.687 155.012C131.921 153.818 131.736 152.762 131.133 151.842C130.528 150.934 129.675 150.374 128.575 150.163C127.475 149.952 126.474 150.156 125.57 150.776C124.664 151.406 124.095 152.318 123.862 153.511C123.633 154.684 123.822 155.719 124.429 156.617C125.034 157.526 125.886 158.086 126.986 158.297C128.086 158.508 129.088 158.304 129.992 157.684C130.893 157.075 131.458 156.184 131.687 155.012ZM133.416 155.343C133.089 157.018 132.275 158.29 130.975 159.16C129.673 160.039 128.231 160.328 126.649 160.024C125.067 159.721 123.838 158.921 122.961 157.623C122.082 156.336 121.806 154.855 122.133 153.18C122.463 151.494 123.279 150.206 124.584 149.316C125.888 148.426 127.331 148.132 128.913 148.435C130.495 148.739 131.723 149.544 132.598 150.853C133.472 152.161 133.745 153.657 133.416 155.343Z" fill="#A5C827"/>
<path d="M117.157 153.196L111.734 152.083L112.098 150.394L117.521 151.507L118.158 148.551L112.359 147.36L112.723 145.671L120.246 147.215L117.887 158.164L110.363 156.62L110.727 154.931L116.527 156.121L117.157 153.196Z" fill="#A5C827"/>
<path d="M109.911 146.259C109.849 146.616 109.681 146.895 109.408 147.096C109.135 147.297 108.825 147.366 108.478 147.305C108.111 147.24 107.827 147.065 107.628 146.78C107.428 146.496 107.36 146.175 107.422 145.817C107.484 145.46 107.657 145.182 107.941 144.983C108.212 144.793 108.526 144.73 108.883 144.793C109.24 144.856 109.52 145.025 109.721 145.299C109.91 145.582 109.973 145.902 109.911 146.259Z" fill="#A5C827"/>
<path d="M89.1412 151.135L92.7139 151.872L93.3527 148.933L89.7017 148.179C89.2838 148.093 88.901 148.172 88.5533 148.416C88.1928 148.668 87.9639 149.018 87.8665 149.466C87.7804 149.863 87.8617 150.217 88.1103 150.53C88.3484 150.84 88.6921 151.042 89.1412 151.135ZM90.0619 146.522L93.7128 147.276L94.3584 144.305L90.6291 143.535C90.1799 143.442 89.7807 143.496 89.4316 143.696C89.0698 143.904 88.847 144.202 88.7631 144.587C88.6635 145.046 88.7375 145.459 88.9852 145.826C89.2329 146.193 89.5918 146.425 90.0619 146.522ZM90.8237 141.811L96.449 142.972L94.0705 153.917L88.6019 152.788C87.7035 152.602 87.0196 152.183 86.5502 151.531C86.0702 150.876 85.9186 150.142 86.0953 149.329C86.2154 148.777 86.4569 148.293 86.82 147.878C87.1809 147.473 87.613 147.192 88.1166 147.035C87.6695 146.681 87.3571 146.235 87.1792 145.698C86.9887 145.168 86.9557 144.617 87.0803 144.044C87.2592 143.22 87.7065 142.594 88.422 142.164C89.1352 141.745 89.9358 141.627 90.8237 141.811Z" fill="#A5C827"/>
<path d="M75.5379 148.888L66.8318 145.238L72.1544 135.384L73.7776 136.064L69.2382 144.469L74.6979 146.757L79.2373 138.353L80.8605 139.033L75.5379 148.888Z" fill="#A5C827"/>
<path d="M68.6223 135.313L63.9342 136.466L61.098 143.333L59.5838 141.907L61.8882 136.74L55.7049 138.254L54.2023 136.839L67.1429 133.92L68.6223 135.313Z" fill="#A5C827"/>
<path d="M52.9559 124.472L54.6401 124.085L55.9721 127.343L65.2039 125.223L65.8699 126.853L56.6381 128.972L57.9702 132.231L56.286 132.617L52.9559 124.472Z" fill="#A5C827"/>
<path d="M53.3334 117.25L57.6554 117.76L57.999 113.791C58.0855 112.792 58.487 111.986 59.2036 111.373C59.9202 110.759 60.7551 110.509 61.7085 110.622C62.6831 110.737 63.4654 111.156 64.0555 111.881C64.6455 112.606 64.8982 113.457 64.8136 114.434L64.3044 120.316L53.1816 119.003L53.3334 117.25ZM63.0837 114.391C63.1288 113.87 63.0071 113.421 62.7188 113.044C62.4208 112.654 62.0334 112.431 61.5567 112.375C61.08 112.319 60.6676 112.447 60.3195 112.76C59.9616 113.062 59.7602 113.473 59.7151 113.993L59.3715 117.963L62.7401 118.36L63.0837 114.391Z" fill="#A5C827"/>
<path d="M62.7889 104.581L62.499 106.155L54.8385 104.906L55.1864 103.017L62.7889 104.581ZM64.7938 107.033C64.4371 106.967 64.1594 106.797 63.9606 106.522C63.7619 106.246 63.6954 105.93 63.7611 105.574C63.8268 105.217 64.0026 104.94 64.2883 104.744C64.574 104.547 64.8952 104.481 65.2519 104.547C65.6086 104.613 65.8853 104.788 66.0821 105.074C66.2704 105.347 66.3316 105.662 66.2659 106.019C66.2021 106.365 66.0326 106.638 65.7573 106.836C65.4716 107.033 65.1504 107.099 64.7938 107.033Z" fill="#A5C827"/>
</g>
<defs>
<clipPath id="clip0_249_2259">
<rect width="381" height="340" fill="white"/>
</clipPath>
</defs>
</svg>
