<svg width="381" height="340" viewBox="0 0 381 340" fill="none" xmlns="http://www.w3.org/2000/svg">
<path d="M263.813 123.594L265.645 123.474L265.89 127.206L275.932 126.546L276.055 128.412L266.012 129.072L266.258 132.804L264.426 132.924L263.813 123.594Z" fill="#245BC6"/>
<path d="M270.296 118.773L268.844 112.13L270.571 111.752L272.023 118.395L270.296 118.773ZM274.996 118.302L275.453 120.395L262.789 118.186L262.266 115.795L272.846 108.47L273.304 110.563L264.414 116.543L274.996 118.302Z" fill="#245BC6"/>
<path d="M271.571 104.88L260.494 109.227L259.811 107.487L264.495 105.648L264.296 105.142L257.923 102.676L257.028 100.397L264.577 103.297L268.106 96.0498L269 98.3286L266.084 104.44L266.283 104.947L270.888 103.139L271.571 104.88Z" fill="#245BC6"/>
<path d="M264.292 94.5675C263.739 95.5258 262.956 96.3048 261.941 96.9043C260.926 97.5038 259.865 97.8143 258.759 97.8359C257.653 97.8575 256.632 97.5988 255.695 97.0598C254.748 96.5266 253.986 95.7721 253.41 94.7963C252.764 93.7034 252.472 92.5401 252.533 91.3062C252.594 90.0724 252.991 88.9293 253.725 87.877L255.245 89.1119C254.736 89.8334 254.464 90.6197 254.427 91.4708C254.384 92.3121 254.582 93.1036 255.02 93.8452C255.631 94.8795 256.508 95.5396 257.651 95.8253C258.784 96.1169 259.897 95.9398 260.99 95.2942C262.083 94.6486 262.78 93.7563 263.081 92.6175C263.372 91.4843 263.213 90.4006 262.602 89.3663C262.152 88.6051 261.536 88.0411 260.753 87.6743C259.955 87.3034 259.098 87.178 258.181 87.2981L257.81 85.3654C259.113 85.1878 260.34 85.3711 261.491 85.9154C262.642 86.4597 263.549 87.293 264.212 88.4151C264.788 89.3909 265.086 90.4192 265.106 91.5001C265.116 92.5867 264.845 93.6091 264.292 94.5675Z" fill="#245BC6"/>
<path d="M252.959 73.6423L254.155 75.0792L247.206 80.8674L257.876 79.5464L259.269 81.2184L250.126 88.8345L248.929 87.3977L255.813 81.6638L245.208 82.9304L243.815 81.2584L252.959 73.6423Z" fill="#245BC6"/>
<path d="M249.806 72.0716C249.538 72.349 249.224 72.495 248.864 72.5095C248.503 72.5241 248.189 72.4016 247.919 72.142C247.634 71.8666 247.488 71.5446 247.481 71.1761C247.474 70.8075 247.605 70.4845 247.872 70.2071C248.14 69.9298 248.458 69.7877 248.826 69.781C249.179 69.7746 249.494 69.9052 249.771 70.1726C250.049 70.4401 250.195 70.7541 250.209 71.1145C250.208 71.4752 250.073 71.7942 249.806 72.0716Z" fill="#245BC6"/>
<path d="M234.018 58.1308L235.562 59.1861L230.458 66.6523L240.361 62.4673L242.158 63.6953L235.442 73.5192L233.898 72.4638L238.954 65.0678L229.099 69.1827L227.302 67.9547L234.018 58.1308Z" fill="#245BC6"/>
<path d="M228.671 58.2057C228.76 59.3084 228.556 60.3946 228.061 61.4641C227.566 62.5336 226.869 63.3912 225.97 64.0367C225.072 64.6823 224.084 65.0491 223.007 65.1372C221.924 65.2355 220.869 65.0466 219.841 64.5703C218.689 64.0369 217.788 63.245 217.138 62.1945C216.488 61.1441 216.166 59.9773 216.173 58.6942L218.125 58.8487C218.116 59.7313 218.338 60.5334 218.791 61.2551C219.233 61.972 219.845 62.5115 220.627 62.8734C221.717 63.3783 222.813 63.424 223.916 63.0106C225.015 62.6075 225.831 61.8301 226.364 60.6783C226.898 59.5265 226.965 58.3962 226.567 57.2875C226.164 56.1891 225.417 55.3875 224.327 54.8827C223.525 54.5112 222.697 54.3965 221.845 54.5387C220.977 54.6864 220.2 55.0697 219.514 55.6886L218.111 54.3083C219.083 53.4223 220.198 52.8767 221.454 52.6717C222.711 52.4668 223.93 52.6381 225.113 53.1858C226.141 53.662 226.97 54.3395 227.6 55.2181C228.225 56.1071 228.582 57.1029 228.671 58.2057Z" fill="#245BC6"/>
<path d="M204.86 59.0307L205.367 57.2661L208.961 58.2989L211.741 48.6263L213.538 49.1427L210.759 58.8154L214.353 59.8482L213.846 61.6128L204.86 59.0307Z" fill="#245BC6"/>
<path d="M203.026 52.7004C203.195 51.4194 202.929 50.3099 202.23 49.3719C201.529 48.445 200.588 47.9039 199.409 47.7484C198.229 47.593 197.18 47.8721 196.263 48.5858C195.345 49.3107 194.801 50.3136 194.632 51.5945C194.466 52.853 194.735 53.94 195.437 54.8556C196.138 55.7824 197.079 56.3235 198.258 56.479C199.438 56.6344 200.487 56.3553 201.404 55.6417C202.319 54.9393 202.86 53.9588 203.026 52.7004ZM204.88 52.9446C204.643 54.7424 203.864 56.143 202.543 57.1464C201.22 58.161 199.711 58.5565 198.014 58.333C196.317 58.1094 194.962 57.3364 193.947 56.0139C192.931 54.7026 192.541 53.148 192.778 51.3502C193.017 49.5412 193.798 48.1238 195.122 47.0979C196.446 46.0721 197.956 45.6709 199.653 45.8945C201.35 46.118 202.704 46.8967 203.718 48.2304C204.731 49.5642 205.118 51.1356 204.88 52.9446Z" fill="#245BC6"/>
<path d="M184.754 55.6195L187.796 55.5256L187.658 51.0737L184.616 51.1677C183.903 51.1897 183.309 51.4235 182.835 51.869C182.361 52.3145 182.135 52.8601 182.154 53.5058C182.174 54.1401 182.434 54.6537 182.933 55.0465C183.422 55.4509 184.029 55.6419 184.754 55.6195ZM184.56 49.3325L187.601 49.2386L187.485 45.4664L189.354 45.4087L189.721 57.303L184.641 57.4599C183.429 57.4973 182.409 57.1433 181.581 56.3979C180.753 55.6637 180.321 54.719 180.285 53.5635C180.25 52.4194 180.651 51.4376 181.487 50.618C182.312 49.7988 183.336 49.3703 184.56 49.3325Z" fill="#245BC6"/>
<path d="M167.921 47.746L169.761 47.4097L171.387 56.3063L175.48 46.3641L177.62 45.9728L179.76 57.6788L177.921 58.0151L176.31 49.2022L172.202 59.0607L170.061 59.452L167.921 47.746Z" fill="#245BC6"/>
<path d="M162.571 59.9162C163.192 59.7015 163.646 59.3471 163.931 58.853C164.219 58.3696 164.273 57.8654 164.091 57.3405C163.906 56.8049 163.547 56.4254 163.015 56.2018C162.471 55.9819 161.894 55.9775 161.283 56.1884L158.246 57.2376L159.534 60.9654L162.571 59.9162ZM161.645 54.3189C162.567 54.1082 163.432 54.217 164.239 54.6455C165.051 55.0846 165.612 55.7541 165.923 56.6539C166.293 57.7251 166.234 58.7168 165.745 59.6289C165.25 60.5554 164.445 61.2111 163.331 61.596L158.366 63.3114L154.48 52.0638L156.248 51.4531L157.652 55.5184L159.613 54.8411L161.213 49.7377L163.286 49.0216L161.645 54.3189Z" fill="#245BC6"/>
<path d="M153.191 53.9711C153.354 54.3202 153.378 54.6656 153.262 55.0073C153.147 55.3491 152.92 55.5991 152.581 55.7576C152.222 55.9256 151.869 55.9468 151.522 55.821C151.176 55.6953 150.921 55.458 150.757 55.1089C150.594 54.7598 150.575 54.412 150.701 54.0655C150.821 53.734 151.056 53.4867 151.405 53.3235C151.754 53.1602 152.1 53.1363 152.441 53.2518C152.778 53.3823 153.027 53.6221 153.191 53.9711Z" fill="#245BC6"/>
<path d="M143.347 69.8684L146.539 67.6693L144.726 65.0375L141.464 67.2848C141.091 67.542 140.871 67.8927 140.806 68.337C140.737 68.797 140.841 69.2277 141.118 69.629C141.362 69.9836 141.697 70.1797 142.122 70.2172C142.538 70.2611 142.946 70.1449 143.347 69.8684ZM140.442 65.8009L143.703 63.5536L141.871 60.8938L138.539 63.1893C138.138 63.4658 137.887 63.8108 137.786 64.2241C137.683 64.6532 137.75 65.0405 137.988 65.3858C138.271 65.7964 138.646 66.0406 139.112 66.1183C139.579 66.1961 140.022 66.0903 140.442 65.8009ZM137.343 61.7836L142.369 58.3209L149.121 68.1202L144.235 71.4863C143.432 72.0393 142.606 72.2579 141.755 72.142C140.895 72.0326 140.215 71.6139 139.713 70.8859C139.372 70.3913 139.174 69.8536 139.118 69.2729C139.068 68.7015 139.167 68.1656 139.414 67.6651C138.812 67.7498 138.237 67.6643 137.689 67.4086C137.138 67.1687 136.686 66.792 136.332 66.2788C135.824 65.5415 135.666 64.7423 135.857 63.8811C136.055 63.0293 136.55 62.3301 137.343 61.7836Z" fill="#245BC6"/>
<path d="M140.432 74.1535L133.112 81.0101L124.977 72.3249L126.342 71.0466L133.28 78.4538L137.87 74.1539L130.932 66.7467L132.297 65.4683L140.432 74.1535Z" fill="#245BC6"/>
<path d="M126.586 80.921L122.921 85.5217L121.485 84.3778L125.15 79.7771L122.637 77.7752L118.718 82.695L117.282 81.551L122.366 75.1685L131.674 82.5831L126.59 88.9656L125.153 87.8216L129.073 82.9018L126.586 80.921Z" fill="#245BC6"/>
<path d="M120.801 94.7253L122.348 92.1053L118.514 89.8399L116.966 92.4599C116.603 93.0747 116.483 93.7013 116.605 94.34C116.728 94.9786 117.068 95.4622 117.624 95.7908C118.171 96.1136 118.743 96.169 119.343 95.9569C119.946 95.7603 120.432 95.3498 120.801 94.7253ZM115.385 91.5261L116.933 88.9061L113.683 86.9865L114.635 85.3765L124.88 91.4291L122.295 95.8055C121.678 96.8496 120.833 97.5221 119.761 97.8229C118.698 98.1295 117.668 97.9888 116.673 97.4008C115.688 96.8186 115.072 95.955 114.827 94.8099C114.577 93.6745 114.763 92.5799 115.385 91.5261Z" fill="#245BC6"/>
<path d="M114.596 99.7987L112.325 105.225L110.631 104.516L112.902 99.0898L109.938 97.8493L107.51 103.652L105.816 102.943L108.967 95.4154L119.944 100.01L116.793 107.537L115.099 106.828L117.528 101.026L114.596 99.7987Z" fill="#245BC6"/>
<path d="M106.229 106.684L103.282 118.634L99.6669 117.742L100.115 115.927L102.029 116.399L104.081 108.08L102.167 107.608L102.615 105.792L106.229 106.684ZM106.091 107.245C105.898 108.026 105.998 108.687 106.39 109.227C106.79 109.781 107.381 110.155 108.162 110.348L115.342 112.119L113.469 119.711L101.932 116.865L102.38 115.049L112.134 117.456L113.112 113.494L107.483 112.106C106.482 111.859 105.708 111.26 105.16 110.307C104.61 109.366 104.483 108.296 104.779 107.097L104.901 106.602L106.229 106.684L106.091 107.245Z" fill="#245BC6"/>
<path d="M104.932 124.998L105.148 123.312L113.348 124.189L113.089 126.213L104.932 124.998ZM102.662 122.514C103.044 122.563 103.348 122.728 103.575 123.008C103.802 123.289 103.891 123.62 103.843 124.002C103.794 124.384 103.623 124.688 103.332 124.914C103.04 125.139 102.703 125.228 102.321 125.179C101.939 125.13 101.635 124.96 101.409 124.668C101.194 124.389 101.11 124.058 101.159 123.676C101.207 123.305 101.371 123.006 101.651 122.779C101.943 122.554 102.279 122.466 102.662 122.514Z" fill="#245BC6"/>
<path d="M112.618 140.68L110.783 140.744L110.654 137.006L100.596 137.356L100.531 135.487L110.589 135.138L110.459 131.4L112.294 131.336L112.618 140.68Z" fill="#245BC6"/>
<path d="M105.988 145.313L107.237 151.997L105.499 152.322L104.25 145.638L105.988 145.313ZM101.276 145.64L100.883 143.534L113.473 146.129L113.923 148.535L103.124 155.533L102.73 153.427L111.799 147.721L101.276 145.64Z" fill="#245BC6"/>
<path d="M104.285 159.187L115.488 155.175L116.119 156.935L111.381 158.632L111.565 159.144L117.861 161.8L118.687 164.105L111.229 160.98L107.484 168.118L106.658 165.813L109.756 159.792L109.573 159.28L104.916 160.948L104.285 159.187Z" fill="#245BC6"/>
<path d="M111.092 169.415C111.676 168.475 112.485 167.723 113.519 167.157C114.553 166.592 115.624 166.316 116.73 166.331C117.836 166.347 118.848 166.639 119.767 167.209C120.696 167.773 121.432 168.552 121.976 169.547C122.585 170.661 122.838 171.833 122.736 173.064C122.635 174.295 122.199 175.425 121.431 176.452L119.953 175.167C120.485 174.463 120.784 173.686 120.849 172.837C120.92 171.997 120.748 171.2 120.335 170.444C119.759 169.39 118.904 168.701 117.771 168.378C116.648 168.049 115.53 168.189 114.416 168.798C113.303 169.407 112.576 170.275 112.238 171.404C111.909 172.527 112.032 173.615 112.609 174.669C113.033 175.445 113.63 176.029 114.4 176.421C115.186 176.819 116.038 176.972 116.958 176.883L117.265 178.827C115.957 178.961 114.736 178.737 113.604 178.155C112.472 177.573 111.593 176.71 110.968 175.566C110.424 174.572 110.16 173.534 110.176 172.453C110.202 171.367 110.508 170.354 111.092 169.415Z" fill="#245BC6"/>
<path d="M121.878 190.906L120.724 189.435L127.838 183.851L117.134 184.861L115.791 183.149L125.153 175.803L126.307 177.274L119.259 182.805L129.896 181.847L131.24 183.559L121.878 190.906Z" fill="#245BC6"/>
<path d="M125.004 192.622C125.279 192.353 125.597 192.216 125.958 192.212C126.319 192.208 126.63 192.339 126.891 192.607C127.169 192.89 127.305 193.216 127.301 193.585C127.297 193.954 127.158 194.273 126.882 194.542C126.607 194.812 126.285 194.944 125.916 194.94C125.563 194.936 125.252 194.797 124.983 194.521C124.713 194.246 124.577 193.928 124.573 193.567C124.585 193.207 124.728 192.892 125.004 192.622Z" fill="#245BC6"/>
<path d="M140.173 206.903L138.661 205.803L143.981 198.49L133.959 202.383L132.2 201.103L139.2 191.48L140.712 192.58L135.442 199.825L145.414 196L147.174 197.28L140.173 206.903Z" fill="#245BC6"/>
<path d="M145.18 206.864C145.129 205.759 145.368 204.68 145.899 203.627C146.429 202.575 147.155 201.741 148.074 201.126C148.994 200.511 149.993 200.177 151.073 200.125C152.158 200.063 153.206 200.287 154.218 200.798C155.352 201.369 156.226 202.191 156.84 203.262C157.455 204.334 157.737 205.511 157.687 206.793L155.742 206.573C155.78 205.691 155.585 204.882 155.157 204.146C154.739 203.415 154.145 202.855 153.376 202.467C152.304 201.926 151.209 201.844 150.093 202.22C148.981 202.586 148.14 203.336 147.568 204.469C146.997 205.603 146.892 206.73 147.253 207.852C147.619 208.963 148.338 209.789 149.411 210.33C150.2 210.728 151.023 210.87 151.88 210.757C152.752 210.638 153.542 210.281 154.248 209.685L155.604 211.112C154.603 211.965 153.471 212.473 152.208 212.636C150.946 212.798 149.732 212.586 148.569 212C147.557 211.489 146.751 210.784 146.151 209.885C145.556 208.976 145.232 207.969 145.18 206.864Z" fill="#245BC6"/>
<path d="M169.094 206.934L168.527 208.68L164.97 207.525L161.863 217.098L160.084 216.521L163.191 206.948L159.634 205.794L160.201 204.047L169.094 206.934Z" fill="#245BC6"/>
<path d="M170.606 213.357C170.398 214.633 170.63 215.75 171.3 216.709C171.972 217.657 172.895 218.226 174.07 218.418C175.244 218.61 176.301 218.363 177.239 217.678C178.18 216.981 178.754 215.995 178.962 214.72C179.166 213.468 178.932 212.373 178.258 211.436C177.585 210.488 176.662 209.918 175.488 209.727C174.313 209.535 173.257 209.782 172.318 210.467C171.381 211.141 170.811 212.105 170.606 213.357ZM168.761 213.056C169.053 211.267 169.874 209.891 171.226 208.928C172.579 207.955 174.1 207.606 175.789 207.881C177.478 208.157 178.809 208.971 179.782 210.324C180.758 211.666 181.1 213.232 180.808 215.021C180.514 216.822 179.69 218.215 178.335 219.2C176.98 220.184 175.458 220.539 173.769 220.264C172.08 219.988 170.75 219.168 169.778 217.804C168.806 216.44 168.467 214.857 168.761 213.056Z" fill="#245BC6"/>
<path d="M189.196 211.093H186.153V215.547H189.196C189.91 215.547 190.51 215.332 190.998 214.901C191.485 214.471 191.729 213.932 191.729 213.286C191.729 212.652 191.485 212.13 190.998 211.722C190.522 211.303 189.921 211.093 189.196 211.093ZM189.196 217.383H186.153V221.157H184.283V209.257H189.366C190.578 209.257 191.587 209.643 192.392 210.413C193.196 211.173 193.599 212.13 193.599 213.286C193.599 214.431 193.168 215.4 192.307 216.193C191.457 216.987 190.42 217.383 189.196 217.383Z" fill="#245BC6"/>
<path d="M205.772 219.534L203.924 219.813L202.57 210.871L198.175 220.683L196.023 221.009L194.243 209.243L196.092 208.963L197.432 217.821L201.84 208.093L203.992 207.768L205.772 219.534Z" fill="#245BC6"/>
<path d="M211.498 207.593C210.871 207.789 210.407 208.129 210.107 208.615C209.804 209.089 209.735 209.592 209.901 210.122C210.07 210.663 210.417 211.053 210.943 211.292C211.48 211.529 212.056 211.55 212.673 211.358L215.74 210.401L214.565 206.636L211.498 207.593ZM212.256 213.216C211.327 213.399 210.466 213.264 209.672 212.811C208.874 212.348 208.333 211.662 208.05 210.753C207.712 209.671 207.801 208.681 208.317 207.784C208.84 206.873 209.664 206.242 210.789 205.891L215.803 204.326L219.348 215.686L217.563 216.243L216.282 212.137L214.302 212.755L212.549 217.808L210.455 218.461L212.256 213.216Z" fill="#245BC6"/>
<path d="M220.927 213.768C220.774 213.414 220.761 213.068 220.886 212.73C221.012 212.392 221.246 212.149 221.59 212.001C221.954 211.843 222.307 211.833 222.65 211.969C222.992 212.105 223.24 212.35 223.393 212.703C223.546 213.057 223.554 213.405 223.418 213.748C223.288 214.076 223.046 214.316 222.692 214.469C222.339 214.621 221.993 214.635 221.654 214.509C221.322 214.369 221.08 214.122 220.927 213.768Z" fill="#245BC6"/>
<path d="M231.095 198.312L227.832 200.404L229.558 203.094L232.892 200.956C233.274 200.711 233.504 200.368 233.585 199.926C233.668 199.468 233.578 199.034 233.315 198.624C233.083 198.262 232.755 198.055 232.331 198.003C231.917 197.946 231.505 198.048 231.095 198.312ZM233.865 202.473L230.531 204.611L232.275 207.33L235.68 205.145C236.091 204.882 236.353 204.546 236.467 204.136C236.584 203.711 236.53 203.321 236.304 202.968C236.034 202.549 235.668 202.292 235.204 202.199C234.741 202.106 234.294 202.197 233.865 202.473ZM236.829 206.59L231.692 209.885L225.267 199.868L230.261 196.665C231.081 196.139 231.915 195.948 232.761 196.092C233.617 196.229 234.283 196.67 234.761 197.414C235.085 197.92 235.266 198.464 235.302 199.046C235.333 199.619 235.217 200.151 234.954 200.643C235.558 200.578 236.13 200.683 236.669 200.957C237.212 201.214 237.651 201.606 237.988 202.13C238.471 202.884 238.603 203.688 238.384 204.542C238.158 205.387 237.64 206.07 236.829 206.59Z" fill="#245BC6"/>
<path d="M234.046 194.248L241.587 187.634L249.433 196.581L248.027 197.814L241.335 190.184L236.606 194.331L243.298 201.961L241.893 203.194L234.046 194.248Z" fill="#245BC6"/>
<path d="M248.228 187.865L252.042 183.387L253.44 184.577L249.626 189.055L252.072 191.138L256.15 186.35L257.548 187.54L252.257 193.753L243.198 186.037L248.488 179.825L249.886 181.015L245.808 185.804L248.228 187.865Z" fill="#245BC6"/>
<path d="M254.494 174.261L252.86 176.828L256.618 179.219L258.251 176.652C258.635 176.049 258.775 175.427 258.674 174.785C258.572 174.142 258.249 173.648 257.704 173.301C257.168 172.96 256.597 172.886 255.992 173.078C255.382 173.255 254.883 173.649 254.494 174.261ZM259.8 177.637L258.167 180.205L261.351 182.231L260.347 183.808L250.307 177.42L253.036 173.132C253.687 172.109 254.553 171.465 255.636 171.199C256.708 170.928 257.732 171.103 258.707 171.723C259.673 172.338 260.259 173.221 260.466 174.374C260.679 175.517 260.457 176.605 259.8 177.637Z" fill="#245BC6"/>
<path d="M260.993 169.185L263.425 163.829L265.097 164.588L262.665 169.944L265.59 171.273L268.191 165.545L269.862 166.304L266.489 173.734L255.653 168.814L259.027 161.384L260.699 162.143L258.098 167.871L260.993 169.185Z" fill="#245BC6"/>
<path d="M269.613 162.462L272.923 150.607L276.508 151.608L276.006 153.409L274.106 152.879L271.803 161.132L273.702 161.662L273.199 163.463L269.613 162.462ZM269.769 161.905C269.985 161.13 269.906 160.467 269.53 159.915C269.147 159.349 268.568 158.958 267.793 158.741L260.67 156.753L262.772 149.221L274.218 152.416L273.715 154.217L264.038 151.516L262.941 155.446L268.525 157.004C269.518 157.282 270.274 157.904 270.792 158.873C271.313 159.83 271.407 160.904 271.075 162.093L270.938 162.585L269.613 162.462L269.769 161.905Z" fill="#245BC6"/>
<path d="M272.209 144.548L271.941 146.226L263.772 145.098L264.093 143.084L272.209 144.548ZM274.402 147.1C274.021 147.039 273.722 146.866 273.503 146.578C273.285 146.291 273.206 145.957 273.267 145.577C273.327 145.196 273.507 144.898 273.805 144.681C274.104 144.465 274.443 144.387 274.824 144.447C275.204 144.508 275.503 144.687 275.719 144.986C275.926 145.271 276 145.604 275.939 145.985C275.88 146.354 275.707 146.648 275.42 146.866C275.122 147.083 274.782 147.161 274.402 147.1Z" fill="#245BC6"/>
</svg>
