<svg width="2468" height="92" viewBox="0 0 2468 92" fill="none" xmlns="http://www.w3.org/2000/svg">
<g clip-path="url(#clip0_250_3395)">
<rect width="2468" height="92" fill="white"/>
<path d="M30.384 37.688H23.94V47.12H30.384C31.896 47.12 33.168 46.664 34.2 45.752C35.232 44.84 35.748 43.7 35.748 42.332C35.748 40.988 35.232 39.884 34.2 39.02C33.192 38.132 31.92 37.688 30.384 37.688ZM30.384 51.008H23.94V59H19.98V33.8H30.744C33.312 33.8 35.448 34.616 37.152 36.248C38.856 37.856 39.708 39.884 39.708 42.332C39.708 44.756 38.796 46.808 36.972 48.488C35.172 50.168 32.976 51.008 30.384 51.008ZM48.6293 49.064H63.0292V52.808H48.6293V49.064ZM47.4773 59H42.9412L53.2373 33.8H58.4213L68.7893 59H64.2533L55.9013 37.904L47.4773 59ZM85.6496 44.132C87.8816 44.132 89.7656 44.864 91.3016 46.328C92.8376 47.768 93.6056 49.544 93.6056 51.656C93.6056 53.744 92.8856 55.496 91.4456 56.912C90.0056 58.304 88.1936 59 86.0096 59H72.9056V33.8H89.8976V37.652H76.8656V44.132H85.6496ZM85.6496 55.112C86.8016 55.112 87.7496 54.788 88.4936 54.14C89.2616 53.468 89.6456 52.64 89.6456 51.656C89.6456 50.624 89.2616 49.76 88.4936 49.064C87.7256 48.368 86.7776 48.02 85.6496 48.02H76.8656V55.112H85.6496ZM101.343 46.292C101.343 49.028 102.207 51.284 103.935 53.06C105.663 54.812 107.787 55.688 110.307 55.688C112.827 55.688 114.951 54.812 116.679 53.06C118.407 51.284 119.271 49.028 119.271 46.292C119.271 43.604 118.407 41.396 116.679 39.668C114.951 37.916 112.827 37.04 110.307 37.04C107.787 37.04 105.663 37.916 103.935 39.668C102.207 41.396 101.343 43.604 101.343 46.292ZM97.3828 46.292C97.3828 42.452 98.6308 39.296 101.127 36.824C103.623 34.328 106.683 33.08 110.307 33.08C113.931 33.08 116.991 34.328 119.487 36.824C121.983 39.296 123.231 42.452 123.231 46.292C123.231 50.156 121.983 53.348 119.487 55.868C116.991 58.388 113.931 59.648 110.307 59.648C106.683 59.648 103.623 58.388 101.127 55.868C98.6308 53.348 97.3828 50.156 97.3828 46.292ZM146.31 33.8V37.688H138.39V59H134.43V37.688H126.51V33.8H146.31ZM155.113 49.064H169.513V52.808H155.113V49.064ZM153.961 59H149.425L159.721 33.8H164.905L175.273 59H170.737L162.385 37.904L153.961 59ZM183.35 44.42H195.806V48.308H183.35V55.112H196.67V59H179.39V33.8H196.67V37.688H183.35V44.42ZM219.827 33.8V37.688H211.907V59H207.947V37.688H200.027V33.8H219.827ZM224.671 54.32L228.703 55.04L226.507 64.616L223.231 64.04L224.671 54.32ZM243.757 59V33.8H247.717V44.456H248.869L258.661 33.8H263.845L252.289 46.436L263.845 59H258.661L248.869 48.524H247.717V59H243.757ZM272.687 49.064H287.087V52.808H272.687V49.064ZM271.535 59H266.999L277.295 33.8H282.479L292.847 59H288.311L279.959 37.904L271.535 59ZM296.963 59V33.8H300.923V44.456H302.075L311.867 33.8H317.051L305.495 46.436L317.051 59H311.867L302.075 48.524H300.923V59H296.963ZM335.129 46.292C335.129 49.028 335.993 51.284 337.721 53.06C339.449 54.812 341.573 55.688 344.093 55.688C346.613 55.688 348.737 54.812 350.465 53.06C352.193 51.284 353.057 49.028 353.057 46.292C353.057 43.604 352.193 41.396 350.465 39.668C348.737 37.916 346.613 37.04 344.093 37.04C341.573 37.04 339.449 37.916 337.721 39.668C335.993 41.396 335.129 43.604 335.129 46.292ZM331.169 46.292C331.169 42.452 332.417 39.296 334.913 36.824C337.409 34.328 340.469 33.08 344.093 33.08C347.717 33.08 350.777 34.328 353.273 36.824C355.769 39.296 357.017 42.452 357.017 46.292C357.017 50.156 355.769 53.348 353.273 55.868C350.777 58.388 347.717 59.648 344.093 59.648C340.469 59.648 337.409 58.388 334.913 55.868C332.417 53.348 331.169 50.156 331.169 46.292ZM374.084 44.132C376.316 44.132 378.2 44.864 379.736 46.328C381.272 47.768 382.04 49.544 382.04 51.656C382.04 53.744 381.32 55.496 379.88 56.912C378.44 58.304 376.628 59 374.444 59H361.34V33.8H378.332V37.652H365.3V44.132H374.084ZM374.084 55.112C375.236 55.112 376.184 54.788 376.928 54.14C377.696 53.468 378.08 52.64 378.08 51.656C378.08 50.624 377.696 49.76 376.928 49.064C376.16 48.368 375.212 48.02 374.084 48.02H365.3V55.112H374.084ZM412.349 59H408.389V33.8H412.349V59ZM390.497 33.8V43.592H397.301C399.557 43.592 401.465 44.336 403.025 45.824C404.585 47.312 405.365 49.136 405.365 51.296C405.365 53.504 404.633 55.34 403.169 56.804C401.705 58.268 399.869 59 397.661 59H386.537V33.8H390.497ZM397.301 55.112C398.477 55.112 399.449 54.752 400.217 54.032C401.009 53.288 401.405 52.376 401.405 51.296C401.405 50.216 401.009 49.316 400.217 48.596C399.449 47.852 398.477 47.48 397.301 47.48H390.497V55.112H397.301ZM436.763 33.8V59H432.803V33.8H436.763ZM421.355 33.8V41.828C421.355 43.652 421.871 45.092 422.903 46.148C423.935 47.18 425.267 47.696 426.899 47.696C428.531 47.696 429.923 47.192 431.075 46.184C432.227 45.176 432.803 43.964 432.803 42.548H434.531C434.531 45.044 433.679 47.156 431.975 48.884C430.271 50.612 428.171 51.476 425.675 51.476C423.299 51.476 421.319 50.684 419.735 49.1C418.175 47.492 417.395 45.368 417.395 42.728V33.8H421.355ZM441.818 59V33.8H445.778V44.42H458.738V33.8H462.698V59H458.738V48.308H445.778V59H441.818ZM470.994 46.292C470.994 49.028 471.858 51.284 473.586 53.06C475.314 54.812 477.438 55.688 479.958 55.688C482.478 55.688 484.602 54.812 486.33 53.06C488.058 51.284 488.922 49.028 488.922 46.292C488.922 43.604 488.058 41.396 486.33 39.668C484.602 37.916 482.478 37.04 479.958 37.04C477.438 37.04 475.314 37.916 473.586 39.668C471.858 41.396 470.994 43.604 470.994 46.292ZM467.034 46.292C467.034 42.452 468.282 39.296 470.778 36.824C473.274 34.328 476.334 33.08 479.958 33.08C483.582 33.08 486.642 34.328 489.138 36.824C491.634 39.296 492.882 42.452 492.882 46.292C492.882 50.156 491.634 53.348 489.138 55.868C486.642 58.388 483.582 59.648 479.958 59.648C476.334 59.648 473.274 58.388 470.778 55.868C468.282 53.348 467.034 50.156 467.034 46.292ZM501.165 44.42H513.621V48.308H501.165V55.112H514.485V59H497.205V33.8H514.485V37.688H501.165V44.42ZM548.426 33.8V37.688H540.506V59H536.546V37.688H528.626V33.8H548.426ZM557.229 49.064H571.629V52.808H557.229V49.064ZM556.077 59H551.541L561.837 33.8H567.021L577.389 59H572.853L564.501 37.904L556.077 59ZM581.505 59V33.8H585.465V44.456H586.617L596.409 33.8H601.593L590.037 46.436L601.593 59H596.409L586.617 48.524H585.465V59H581.505ZM606.656 53.168C605.504 51.128 604.928 48.86 604.928 46.364C604.928 43.868 605.504 41.6 606.656 39.56C607.808 37.52 609.38 35.936 611.372 34.808C613.364 33.656 615.56 33.08 617.96 33.08C620.648 33.08 623.084 33.8 625.268 35.24C627.452 36.68 629.108 38.636 630.236 41.108L626.348 42.548C625.58 40.844 624.44 39.5 622.928 38.516C621.44 37.532 619.784 37.04 617.96 37.04C615.416 37.04 613.268 37.928 611.516 39.704C609.764 41.456 608.888 43.676 608.888 46.364C608.888 49.052 609.764 51.284 611.516 53.06C613.268 54.812 615.416 55.688 617.96 55.688C619.832 55.688 621.524 55.172 623.036 54.14C624.572 53.084 625.724 51.656 626.492 49.856L630.416 51.26C629.336 53.828 627.68 55.868 625.448 57.38C623.216 58.892 620.72 59.648 617.96 59.648C615.56 59.648 613.364 59.084 611.372 57.956C609.38 56.804 607.808 55.208 606.656 53.168ZM655.628 59H651.668V39.848L639.356 59H634.748V33.8H638.708V52.772L651.02 33.8H655.628V59ZM661.511 54.32L665.543 55.04L663.347 64.616L660.071 64.04L661.511 54.32ZM680.597 59V33.8H684.557V44.42H697.517V33.8H701.477V59H697.517V48.308H684.557V59H680.597ZM709.772 46.292C709.772 49.028 710.636 51.284 712.364 53.06C714.092 54.812 716.216 55.688 718.736 55.688C721.256 55.688 723.38 54.812 725.108 53.06C726.836 51.284 727.7 49.028 727.7 46.292C727.7 43.604 726.836 41.396 725.108 39.668C723.38 37.916 721.256 37.04 718.736 37.04C716.216 37.04 714.092 37.916 712.364 39.668C710.636 41.396 709.772 43.604 709.772 46.292ZM705.812 46.292C705.812 42.452 707.06 39.296 709.556 36.824C712.052 34.328 715.112 33.08 718.736 33.08C722.36 33.08 725.42 34.328 727.916 36.824C730.412 39.296 731.66 42.452 731.66 46.292C731.66 50.156 730.412 53.348 727.916 55.868C725.42 58.388 722.36 59.648 718.736 59.648C715.112 59.648 712.052 58.388 709.556 55.868C707.06 53.348 705.812 50.156 705.812 46.292ZM758.935 37.688H750.727V44.456H759.115C760.075 44.456 760.879 44.108 761.527 43.412C762.199 42.692 762.535 41.816 762.535 40.784C762.535 39.872 762.187 39.128 761.491 38.552C760.819 37.976 759.967 37.688 758.935 37.688ZM759.115 48.272H750.727V55.112H759.295C760.327 55.112 761.179 54.812 761.851 54.212C762.547 53.588 762.895 52.832 762.895 51.944C762.895 50.888 762.535 50.012 761.815 49.316C761.095 48.62 760.195 48.272 759.115 48.272ZM759.691 59H746.767V33.8H759.331C761.395 33.8 763.099 34.412 764.443 35.636C765.811 36.86 766.495 38.408 766.495 40.28C766.495 41.552 766.195 42.728 765.595 43.808C764.995 44.864 764.179 45.68 763.147 46.256C764.299 46.832 765.199 47.672 765.847 48.776C766.519 49.856 766.855 51.056 766.855 52.376C766.855 54.272 766.171 55.856 764.803 57.128C763.435 58.376 761.731 59 759.691 59ZM771.186 59V33.8H775.866L784.434 49.82L793.002 33.8H797.682V59H793.722V40.208L785.802 55.076H783.102L775.146 40.208V59H771.186ZM806.5 44.42H818.956V48.308H806.5V55.112H819.82V59H802.54V33.8H819.82V37.688H806.5V44.42ZM825.229 53.168C824.077 51.128 823.501 48.86 823.501 46.364C823.501 43.868 824.077 41.6 825.229 39.56C826.381 37.52 827.953 35.936 829.945 34.808C831.937 33.656 834.133 33.08 836.533 33.08C839.221 33.08 841.657 33.8 843.841 35.24C846.025 36.68 847.681 38.636 848.809 41.108L844.921 42.548C844.153 40.844 843.013 39.5 841.501 38.516C840.013 37.532 838.357 37.04 836.533 37.04C833.989 37.04 831.841 37.928 830.089 39.704C828.337 41.456 827.461 43.676 827.461 46.364C827.461 49.052 828.337 51.284 830.089 53.06C831.841 54.812 833.989 55.688 836.533 55.688C838.405 55.688 840.097 55.172 841.609 54.14C843.145 53.084 844.297 51.656 845.065 49.856L848.989 51.26C847.909 53.828 846.253 55.868 844.021 57.38C841.789 58.892 839.293 59.648 836.533 59.648C834.133 59.648 831.937 59.084 829.945 57.956C827.953 56.804 826.381 55.208 825.229 53.168ZM872.077 33.8V37.688H864.157V59H860.197V37.688H852.277V33.8H872.077ZM879.332 46.292C879.332 49.028 880.196 51.284 881.924 53.06C883.652 54.812 885.776 55.688 888.296 55.688C890.816 55.688 892.94 54.812 894.668 53.06C896.396 51.284 897.26 49.028 897.26 46.292C897.26 43.604 896.396 41.396 894.668 39.668C892.94 37.916 890.816 37.04 888.296 37.04C885.776 37.04 883.652 37.916 881.924 39.668C880.196 41.396 879.332 43.604 879.332 46.292ZM875.372 46.292C875.372 42.452 876.62 39.296 879.116 36.824C881.612 34.328 884.672 33.08 888.296 33.08C891.92 33.08 894.98 34.328 897.476 36.824C899.972 39.296 901.22 42.452 901.22 46.292C901.22 50.156 899.972 53.348 897.476 55.868C894.98 58.388 891.92 59.648 888.296 59.648C884.672 59.648 881.612 58.388 879.116 55.868C876.62 53.348 875.372 50.156 875.372 46.292ZM916.327 59V33.8H920.287V44.456H921.439L931.231 33.8H936.415L924.859 46.436L936.415 59H931.231L921.439 48.524H920.287V59H916.327ZM943.709 46.292C943.709 49.028 944.573 51.284 946.301 53.06C948.029 54.812 950.153 55.688 952.673 55.688C955.193 55.688 957.317 54.812 959.045 53.06C960.773 51.284 961.637 49.028 961.637 46.292C961.637 43.604 960.773 41.396 959.045 39.668C957.317 37.916 955.193 37.04 952.673 37.04C950.153 37.04 948.029 37.916 946.301 39.668C944.573 41.396 943.709 43.604 943.709 46.292ZM939.749 46.292C939.749 42.452 940.997 39.296 943.493 36.824C945.989 34.328 949.049 33.08 952.673 33.08C956.297 33.08 959.357 34.328 961.853 36.824C964.349 39.296 965.597 42.452 965.597 46.292C965.597 50.156 964.349 53.348 961.853 55.868C959.357 58.388 956.297 59.648 952.673 59.648C949.049 59.648 945.989 58.388 943.493 55.868C940.997 53.348 939.749 50.156 939.749 46.292ZM969.92 59V33.8H973.88V44.42H986.84V33.8H990.8V59H986.84V48.308H973.88V59H969.92ZM999.816 44.42H1012.27V48.308H999.816V55.112H1013.14V59H995.856V33.8H1013.14V37.688H999.816V44.42ZM1036.91 33.8V59H1032.95V33.8H1036.91ZM1021.5 33.8V41.828C1021.5 43.652 1022.01 45.092 1023.05 46.148C1024.08 47.18 1025.41 47.696 1027.04 47.696C1028.67 47.696 1030.07 47.192 1031.22 46.184C1032.37 45.176 1032.95 43.964 1032.95 42.548H1034.67C1034.67 45.044 1033.82 47.156 1032.12 48.884C1030.41 50.612 1028.31 51.476 1025.82 51.476C1023.44 51.476 1021.46 50.684 1019.88 49.1C1018.32 47.492 1017.54 45.368 1017.54 42.728V33.8H1021.5ZM1041.96 59V33.8H1045.92V44.42H1058.88V33.8H1062.84V59H1058.88V48.308H1045.92V59H1041.96ZM1071.14 46.292C1071.14 49.028 1072 51.284 1073.73 53.06C1075.46 54.812 1077.58 55.688 1080.1 55.688C1082.62 55.688 1084.74 54.812 1086.47 53.06C1088.2 51.284 1089.06 49.028 1089.06 46.292C1089.06 43.604 1088.2 41.396 1086.47 39.668C1084.74 37.916 1082.62 37.04 1080.1 37.04C1077.58 37.04 1075.46 37.916 1073.73 39.668C1072 41.396 1071.14 43.604 1071.14 46.292ZM1067.18 46.292C1067.18 42.452 1068.42 39.296 1070.92 36.824C1073.42 34.328 1076.48 33.08 1080.1 33.08C1083.72 33.08 1086.78 34.328 1089.28 36.824C1091.78 39.296 1093.02 42.452 1093.02 46.292C1093.02 50.156 1091.78 53.348 1089.28 55.868C1086.78 58.388 1083.72 59.648 1080.1 59.648C1076.48 59.648 1073.42 58.388 1070.92 55.868C1068.42 53.348 1067.18 50.156 1067.18 46.292ZM1097.35 59V33.8H1114.99V37.508H1101.31V59H1097.35ZM1122.37 46.292C1122.37 49.028 1123.24 51.284 1124.97 53.06C1126.69 54.812 1128.82 55.688 1131.34 55.688C1133.86 55.688 1135.98 54.812 1137.71 53.06C1139.44 51.284 1140.3 49.028 1140.3 46.292C1140.3 43.604 1139.44 41.396 1137.71 39.668C1135.98 37.916 1133.86 37.04 1131.34 37.04C1128.82 37.04 1126.69 37.916 1124.97 39.668C1123.24 41.396 1122.37 43.604 1122.37 46.292ZM1118.41 46.292C1118.41 42.452 1119.66 39.296 1122.16 36.824C1124.65 34.328 1127.71 33.08 1131.34 33.08C1134.96 33.08 1138.02 34.328 1140.52 36.824C1143.01 39.296 1144.26 42.452 1144.26 46.292C1144.26 50.156 1143.01 53.348 1140.52 55.868C1138.02 58.388 1134.96 59.648 1131.34 59.648C1127.71 59.648 1124.65 58.388 1122.16 55.868C1119.66 53.348 1118.41 50.156 1118.41 46.292ZM1169.77 37.688H1163.33V47.12H1169.77C1171.28 47.12 1172.56 46.664 1173.59 45.752C1174.62 44.84 1175.14 43.7 1175.14 42.332C1175.14 40.988 1174.62 39.884 1173.59 39.02C1172.58 38.132 1171.31 37.688 1169.77 37.688ZM1169.77 51.008H1163.33V59H1159.37V33.8H1170.13C1172.7 33.8 1174.84 34.616 1176.54 36.248C1178.24 37.856 1179.1 39.884 1179.1 42.332C1179.1 44.756 1178.18 46.808 1176.36 48.488C1174.56 50.168 1172.36 51.008 1169.77 51.008ZM1188.02 49.064H1202.42V52.808H1188.02V49.064ZM1186.87 59H1182.33L1192.63 33.8H1197.81L1208.18 59H1203.64L1195.29 37.904L1186.87 59ZM1225.04 44.132C1227.27 44.132 1229.15 44.864 1230.69 46.328C1232.23 47.768 1232.99 49.544 1232.99 51.656C1232.99 53.744 1232.27 55.496 1230.83 56.912C1229.39 58.304 1227.58 59 1225.4 59H1212.29V33.8H1229.29V37.652H1216.25V44.132H1225.04ZM1225.04 55.112C1226.19 55.112 1227.14 54.788 1227.88 54.14C1228.65 53.468 1229.03 52.64 1229.03 51.656C1229.03 50.624 1228.65 49.76 1227.88 49.064C1227.11 48.368 1226.17 48.02 1225.04 48.02H1216.25V55.112H1225.04ZM1240.73 46.292C1240.73 49.028 1241.6 51.284 1243.32 53.06C1245.05 54.812 1247.18 55.688 1249.7 55.688C1252.22 55.688 1254.34 54.812 1256.07 53.06C1257.8 51.284 1258.66 49.028 1258.66 46.292C1258.66 43.604 1257.8 41.396 1256.07 39.668C1254.34 37.916 1252.22 37.04 1249.7 37.04C1247.18 37.04 1245.05 37.916 1243.32 39.668C1241.6 41.396 1240.73 43.604 1240.73 46.292ZM1236.77 46.292C1236.77 42.452 1238.02 39.296 1240.52 36.824C1243.01 34.328 1246.07 33.08 1249.7 33.08C1253.32 33.08 1256.38 34.328 1258.88 36.824C1261.37 39.296 1262.62 42.452 1262.62 46.292C1262.62 50.156 1261.37 53.348 1258.88 55.868C1256.38 58.388 1253.32 59.648 1249.7 59.648C1246.07 59.648 1243.01 58.388 1240.52 55.868C1238.02 53.348 1236.77 50.156 1236.77 46.292ZM1285.7 33.8V37.688H1277.78V59H1273.82V37.688H1265.9V33.8H1285.7ZM1294.5 49.064H1308.9V52.808H1294.5V49.064ZM1293.35 59H1288.81L1299.11 33.8H1304.29L1314.66 59H1310.13L1301.77 37.904L1293.35 59ZM1322.74 44.42H1335.19V48.308H1322.74V55.112H1336.06V59H1318.78V33.8H1336.06V37.688H1322.74V44.42ZM1359.22 33.8V37.688H1351.3V59H1347.34V37.688H1339.42V33.8H1359.22ZM1364.06 54.32L1368.09 55.04L1365.9 64.616L1362.62 64.04L1364.06 54.32ZM1383.15 59V33.8H1387.11V44.456H1388.26L1398.05 33.8H1403.23L1391.68 46.436L1403.23 59H1398.05L1388.26 48.524H1387.11V59H1383.15ZM1412.08 49.064H1426.48V52.808H1412.08V49.064ZM1410.92 59H1406.39L1416.68 33.8H1421.87L1432.24 59H1427.7L1419.35 37.904L1410.92 59ZM1436.35 59V33.8H1440.31V44.456H1441.46L1451.26 33.8H1456.44L1444.88 46.436L1456.44 59H1451.26L1441.46 48.524H1440.31V59H1436.35ZM1474.52 46.292C1474.52 49.028 1475.38 51.284 1477.11 53.06C1478.84 54.812 1480.96 55.688 1483.48 55.688C1486 55.688 1488.13 54.812 1489.85 53.06C1491.58 51.284 1492.45 49.028 1492.45 46.292C1492.45 43.604 1491.58 41.396 1489.85 39.668C1488.13 37.916 1486 37.04 1483.48 37.04C1480.96 37.04 1478.84 37.916 1477.11 39.668C1475.38 41.396 1474.52 43.604 1474.52 46.292ZM1470.56 46.292C1470.56 42.452 1471.81 39.296 1474.3 36.824C1476.8 34.328 1479.86 33.08 1483.48 33.08C1487.11 33.08 1490.17 34.328 1492.66 36.824C1495.16 39.296 1496.41 42.452 1496.41 46.292C1496.41 50.156 1495.16 53.348 1492.66 55.868C1490.17 58.388 1487.11 59.648 1483.48 59.648C1479.86 59.648 1476.8 58.388 1474.3 55.868C1471.81 53.348 1470.56 50.156 1470.56 46.292ZM1513.47 44.132C1515.7 44.132 1517.59 44.864 1519.12 46.328C1520.66 47.768 1521.43 49.544 1521.43 51.656C1521.43 53.744 1520.71 55.496 1519.27 56.912C1517.83 58.304 1516.02 59 1513.83 59H1500.73V33.8H1517.72V37.652H1504.69V44.132H1513.47ZM1513.47 55.112C1514.62 55.112 1515.57 54.788 1516.32 54.14C1517.08 53.468 1517.47 52.64 1517.47 51.656C1517.47 50.624 1517.08 49.76 1516.32 49.064C1515.55 48.368 1514.6 48.02 1513.47 48.02H1504.69V55.112H1513.47ZM1551.74 59H1547.78V33.8H1551.74V59ZM1529.89 33.8V43.592H1536.69C1538.95 43.592 1540.85 44.336 1542.41 45.824C1543.97 47.312 1544.75 49.136 1544.75 51.296C1544.75 53.504 1544.02 55.34 1542.56 56.804C1541.09 58.268 1539.26 59 1537.05 59H1525.93V33.8H1529.89ZM1536.69 55.112C1537.87 55.112 1538.84 54.752 1539.61 54.032C1540.4 53.288 1540.79 52.376 1540.79 51.296C1540.79 50.216 1540.4 49.316 1539.61 48.596C1538.84 47.852 1537.87 47.48 1536.69 47.48H1529.89V55.112H1536.69ZM1576.15 33.8V59H1572.19V33.8H1576.15ZM1560.74 33.8V41.828C1560.74 43.652 1561.26 45.092 1562.29 46.148C1563.32 47.18 1564.66 47.696 1566.29 47.696C1567.92 47.696 1569.31 47.192 1570.46 46.184C1571.62 45.176 1572.19 43.964 1572.19 42.548H1573.92C1573.92 45.044 1573.07 47.156 1571.36 48.884C1569.66 50.612 1567.56 51.476 1565.06 51.476C1562.69 51.476 1560.71 50.684 1559.12 49.1C1557.56 47.492 1556.78 45.368 1556.78 42.728V33.8H1560.74ZM1581.21 59V33.8H1585.17V44.42H1598.13V33.8H1602.09V59H1598.13V48.308H1585.17V59H1581.21ZM1610.38 46.292C1610.38 49.028 1611.25 51.284 1612.97 53.06C1614.7 54.812 1616.83 55.688 1619.35 55.688C1621.87 55.688 1623.99 54.812 1625.72 53.06C1627.45 51.284 1628.31 49.028 1628.31 46.292C1628.31 43.604 1627.45 41.396 1625.72 39.668C1623.99 37.916 1621.87 37.04 1619.35 37.04C1616.83 37.04 1614.7 37.916 1612.97 39.668C1611.25 41.396 1610.38 43.604 1610.38 46.292ZM1606.42 46.292C1606.42 42.452 1607.67 39.296 1610.17 36.824C1612.66 34.328 1615.72 33.08 1619.35 33.08C1622.97 33.08 1626.03 34.328 1628.53 36.824C1631.02 39.296 1632.27 42.452 1632.27 46.292C1632.27 50.156 1631.02 53.348 1628.53 55.868C1626.03 58.388 1622.97 59.648 1619.35 59.648C1615.72 59.648 1612.66 58.388 1610.17 55.868C1607.67 53.348 1606.42 50.156 1606.42 46.292ZM1640.55 44.42H1653.01V48.308H1640.55V55.112H1653.87V59H1636.59V33.8H1653.87V37.688H1640.55V44.42ZM1687.81 33.8V37.688H1679.89V59H1675.93V37.688H1668.01V33.8H1687.81ZM1696.62 49.064H1711.02V52.808H1696.62V49.064ZM1695.47 59H1690.93L1701.23 33.8H1706.41L1716.78 59H1712.24L1703.89 37.904L1695.47 59ZM1720.89 59V33.8H1724.85V44.456H1726.01L1735.8 33.8H1740.98L1729.43 46.436L1740.98 59H1735.8L1726.01 48.524H1724.85V59H1720.89ZM1746.04 53.168C1744.89 51.128 1744.32 48.86 1744.32 46.364C1744.32 43.868 1744.89 41.6 1746.04 39.56C1747.2 37.52 1748.77 35.936 1750.76 34.808C1752.75 33.656 1754.95 33.08 1757.35 33.08C1760.04 33.08 1762.47 33.8 1764.66 35.24C1766.84 36.68 1768.5 38.636 1769.62 41.108L1765.74 42.548C1764.97 40.844 1763.83 39.5 1762.32 38.516C1760.83 37.532 1759.17 37.04 1757.35 37.04C1754.8 37.04 1752.66 37.928 1750.9 39.704C1749.15 41.456 1748.28 43.676 1748.28 46.364C1748.28 49.052 1749.15 51.284 1750.9 53.06C1752.66 54.812 1754.8 55.688 1757.35 55.688C1759.22 55.688 1760.91 55.172 1762.42 54.14C1763.96 53.084 1765.11 51.656 1765.88 49.856L1769.8 51.26C1768.72 53.828 1767.07 55.868 1764.84 57.38C1762.6 58.892 1760.11 59.648 1757.35 59.648C1754.95 59.648 1752.75 59.084 1750.76 57.956C1748.77 56.804 1747.2 55.208 1746.04 53.168ZM1795.02 59H1791.06V39.848L1778.74 59H1774.14V33.8H1778.1V52.772L1790.41 33.8H1795.02V59ZM1800.9 54.32L1804.93 55.04L1802.74 64.616L1799.46 64.04L1800.9 54.32ZM1819.99 59V33.8H1823.95V44.42H1836.91V33.8H1840.87V59H1836.91V48.308H1823.95V59H1819.99ZM1849.16 46.292C1849.16 49.028 1850.03 51.284 1851.75 53.06C1853.48 54.812 1855.61 55.688 1858.13 55.688C1860.65 55.688 1862.77 54.812 1864.5 53.06C1866.23 51.284 1867.09 49.028 1867.09 46.292C1867.09 43.604 1866.23 41.396 1864.5 39.668C1862.77 37.916 1860.65 37.04 1858.13 37.04C1855.61 37.04 1853.48 37.916 1851.75 39.668C1850.03 41.396 1849.16 43.604 1849.16 46.292ZM1845.2 46.292C1845.2 42.452 1846.45 39.296 1848.95 36.824C1851.44 34.328 1854.5 33.08 1858.13 33.08C1861.75 33.08 1864.81 34.328 1867.31 36.824C1869.8 39.296 1871.05 42.452 1871.05 46.292C1871.05 50.156 1869.8 53.348 1867.31 55.868C1864.81 58.388 1861.75 59.648 1858.13 59.648C1854.5 59.648 1851.44 58.388 1848.95 55.868C1846.45 53.348 1845.2 50.156 1845.2 46.292ZM1898.32 37.688H1890.12V44.456H1898.5C1899.46 44.456 1900.27 44.108 1900.92 43.412C1901.59 42.692 1901.92 41.816 1901.92 40.784C1901.92 39.872 1901.58 39.128 1900.88 38.552C1900.21 37.976 1899.36 37.688 1898.32 37.688ZM1898.5 48.272H1890.12V55.112H1898.68C1899.72 55.112 1900.57 54.812 1901.24 54.212C1901.94 53.588 1902.28 52.832 1902.28 51.944C1902.28 50.888 1901.92 50.012 1901.2 49.316C1900.48 48.62 1899.58 48.272 1898.5 48.272ZM1899.08 59H1886.16V33.8H1898.72C1900.78 33.8 1902.49 34.412 1903.83 35.636C1905.2 36.86 1905.88 38.408 1905.88 40.28C1905.88 41.552 1905.58 42.728 1904.98 43.808C1904.38 44.864 1903.57 45.68 1902.54 46.256C1903.69 46.832 1904.59 47.672 1905.24 48.776C1905.91 49.856 1906.24 51.056 1906.24 52.376C1906.24 54.272 1905.56 55.856 1904.19 57.128C1902.82 58.376 1901.12 59 1899.08 59ZM1910.57 59V33.8H1915.25L1923.82 49.82L1932.39 33.8H1937.07V59H1933.11V40.208L1925.19 55.076H1922.49L1914.53 40.208V59H1910.57ZM1945.89 44.42H1958.34V48.308H1945.89V55.112H1959.21V59H1941.93V33.8H1959.21V37.688H1945.89V44.42ZM1964.62 53.168C1963.47 51.128 1962.89 48.86 1962.89 46.364C1962.89 43.868 1963.47 41.6 1964.62 39.56C1965.77 37.52 1967.34 35.936 1969.33 34.808C1971.33 33.656 1973.52 33.08 1975.92 33.08C1978.61 33.08 1981.05 33.8 1983.23 35.24C1985.41 36.68 1987.07 38.636 1988.2 41.108L1984.31 42.548C1983.54 40.844 1982.4 39.5 1980.89 38.516C1979.4 37.532 1977.75 37.04 1975.92 37.04C1973.38 37.04 1971.23 37.928 1969.48 39.704C1967.73 41.456 1966.85 43.676 1966.85 46.364C1966.85 49.052 1967.73 51.284 1969.48 53.06C1971.23 54.812 1973.38 55.688 1975.92 55.688C1977.79 55.688 1979.49 55.172 1981 54.14C1982.53 53.084 1983.69 51.656 1984.45 49.856L1988.38 51.26C1987.3 53.828 1985.64 55.868 1983.41 57.38C1981.18 58.892 1978.68 59.648 1975.92 59.648C1973.52 59.648 1971.33 59.084 1969.33 57.956C1967.34 56.804 1965.77 55.208 1964.62 53.168ZM2011.47 33.8V37.688H2003.55V59H1999.59V37.688H1991.67V33.8H2011.47ZM2018.72 46.292C2018.72 49.028 2019.59 51.284 2021.31 53.06C2023.04 54.812 2025.17 55.688 2027.69 55.688C2030.21 55.688 2032.33 54.812 2034.06 53.06C2035.79 51.284 2036.65 49.028 2036.65 46.292C2036.65 43.604 2035.79 41.396 2034.06 39.668C2032.33 37.916 2030.21 37.04 2027.69 37.04C2025.17 37.04 2023.04 37.916 2021.31 39.668C2019.59 41.396 2018.72 43.604 2018.72 46.292ZM2014.76 46.292C2014.76 42.452 2016.01 39.296 2018.51 36.824C2021 34.328 2024.06 33.08 2027.69 33.08C2031.31 33.08 2034.37 34.328 2036.87 36.824C2039.36 39.296 2040.61 42.452 2040.61 46.292C2040.61 50.156 2039.36 53.348 2036.87 55.868C2034.37 58.388 2031.31 59.648 2027.69 59.648C2024.06 59.648 2021 58.388 2018.51 55.868C2016.01 53.348 2014.76 50.156 2014.76 46.292ZM2055.72 59V33.8H2059.68V44.456H2060.83L2070.62 33.8H2075.8L2064.25 46.436L2075.8 59H2070.62L2060.83 48.524H2059.68V59H2055.72ZM2083.1 46.292C2083.1 49.028 2083.96 51.284 2085.69 53.06C2087.42 54.812 2089.54 55.688 2092.06 55.688C2094.58 55.688 2096.71 54.812 2098.43 53.06C2100.16 51.284 2101.03 49.028 2101.03 46.292C2101.03 43.604 2100.16 41.396 2098.43 39.668C2096.71 37.916 2094.58 37.04 2092.06 37.04C2089.54 37.04 2087.42 37.916 2085.69 39.668C2083.96 41.396 2083.1 43.604 2083.1 46.292ZM2079.14 46.292C2079.14 42.452 2080.39 39.296 2082.88 36.824C2085.38 34.328 2088.44 33.08 2092.06 33.08C2095.69 33.08 2098.75 34.328 2101.24 36.824C2103.74 39.296 2104.99 42.452 2104.99 46.292C2104.99 50.156 2103.74 53.348 2101.24 55.868C2098.75 58.388 2095.69 59.648 2092.06 59.648C2088.44 59.648 2085.38 58.388 2082.88 55.868C2080.39 53.348 2079.14 50.156 2079.14 46.292ZM2109.31 59V33.8H2113.27V44.42H2126.23V33.8H2130.19V59H2126.23V48.308H2113.27V59H2109.31ZM2139.2 44.42H2151.66V48.308H2139.2V55.112H2152.52V59H2135.24V33.8H2152.52V37.688H2139.2V44.42ZM2176.29 33.8V59H2172.33V33.8H2176.29ZM2160.89 33.8V41.828C2160.89 43.652 2161.4 45.092 2162.43 46.148C2163.47 47.18 2164.8 47.696 2166.43 47.696C2168.06 47.696 2169.45 47.192 2170.61 46.184C2171.76 45.176 2172.33 43.964 2172.33 42.548H2174.06C2174.06 45.044 2173.21 47.156 2171.51 48.884C2169.8 50.612 2167.7 51.476 2165.21 51.476C2162.83 51.476 2160.85 50.684 2159.27 49.1C2157.71 47.492 2156.93 45.368 2156.93 42.728V33.8H2160.89ZM2181.35 59V33.8H2185.31V44.42H2198.27V33.8H2202.23V59H2198.27V48.308H2185.31V59H2181.35ZM2210.53 46.292C2210.53 49.028 2211.39 51.284 2213.12 53.06C2214.85 54.812 2216.97 55.688 2219.49 55.688C2222.01 55.688 2224.13 54.812 2225.86 53.06C2227.59 51.284 2228.45 49.028 2228.45 46.292C2228.45 43.604 2227.59 41.396 2225.86 39.668C2224.13 37.916 2222.01 37.04 2219.49 37.04C2216.97 37.04 2214.85 37.916 2213.12 39.668C2211.39 41.396 2210.53 43.604 2210.53 46.292ZM2206.57 46.292C2206.57 42.452 2207.81 39.296 2210.31 36.824C2212.81 34.328 2215.87 33.08 2219.49 33.08C2223.11 33.08 2226.17 34.328 2228.67 36.824C2231.17 39.296 2232.41 42.452 2232.41 46.292C2232.41 50.156 2231.17 53.348 2228.67 55.868C2226.17 58.388 2223.11 59.648 2219.49 59.648C2215.87 59.648 2212.81 58.388 2210.31 55.868C2207.81 53.348 2206.57 50.156 2206.57 46.292ZM2236.74 59V33.8H2254.38V37.508H2240.7V59H2236.74ZM2261.76 46.292C2261.76 49.028 2262.63 51.284 2264.36 53.06C2266.08 54.812 2268.21 55.688 2270.73 55.688C2273.25 55.688 2275.37 54.812 2277.1 53.06C2278.83 51.284 2279.69 49.028 2279.69 46.292C2279.69 43.604 2278.83 41.396 2277.1 39.668C2275.37 37.916 2273.25 37.04 2270.73 37.04C2268.21 37.04 2266.08 37.916 2264.36 39.668C2262.63 41.396 2261.76 43.604 2261.76 46.292ZM2257.8 46.292C2257.8 42.452 2259.05 39.296 2261.55 36.824C2264.04 34.328 2267.1 33.08 2270.73 33.08C2274.35 33.08 2277.41 34.328 2279.91 36.824C2282.4 39.296 2283.65 42.452 2283.65 46.292C2283.65 50.156 2282.4 53.348 2279.91 55.868C2277.41 58.388 2274.35 59.648 2270.73 59.648C2267.1 59.648 2264.04 58.388 2261.55 55.868C2259.05 53.348 2257.8 50.156 2257.8 46.292Z" fill="#245BC6"/>
</g>
<defs>
<clipPath id="clip0_250_3395">
<rect width="2468" height="92" fill="white"/>
</clipPath>
</defs>
</svg>
