<svg width="2468" height="91" viewBox="0 0 2468 91" fill="none" xmlns="http://www.w3.org/2000/svg">
<g clip-path="url(#clip0_250_3387)">
<rect width="2468" height="91" fill="white"/>
<path d="M23.94 58H19.98V32.8H23.94V58ZM47.7262 32.8V36.688H39.8062V58H35.8462V36.688H27.9262V32.8H47.7262ZM55.7016 43.42H68.1576V47.308H55.7016V54.112H69.0216V58H51.7416V32.8H69.0216V36.688H55.7016V43.42ZM84.1871 36.688H77.3831V45.04H84.1871C85.5551 45.04 86.6951 44.632 87.6071 43.816C88.5431 43 89.0111 41.992 89.0111 40.792C89.0111 39.616 88.5551 38.644 87.6431 37.876C86.7311 37.084 85.5791 36.688 84.1871 36.688ZM86.2031 48.532L93.1511 58H88.5071L81.7751 48.892H77.3831V58H73.4231V32.8H84.5471C87.0431 32.8 89.0951 33.556 90.7031 35.068C92.3351 36.556 93.1511 38.5 93.1511 40.9C93.1511 42.916 92.4911 44.644 91.1711 46.084C89.8511 47.5 88.1951 48.316 86.2031 48.532ZM136.107 46.66V50.152H107.271V46.66H136.107ZM163.682 43.132C165.914 43.132 167.798 43.864 169.334 45.328C170.87 46.768 171.638 48.544 171.638 50.656C171.638 52.744 170.918 54.496 169.478 55.912C168.038 57.304 166.226 58 164.042 58H150.938V32.8H167.93V36.652H154.898V43.132H163.682ZM163.682 54.112C164.834 54.112 165.782 53.788 166.526 53.14C167.294 52.468 167.678 51.64 167.678 50.656C167.678 49.624 167.294 48.76 166.526 48.064C165.758 47.368 164.81 47.02 163.682 47.02H154.898V54.112H163.682ZM179.376 45.292C179.376 48.028 180.24 50.284 181.968 52.06C183.696 53.812 185.82 54.688 188.34 54.688C190.86 54.688 192.984 53.812 194.712 52.06C196.44 50.284 197.304 48.028 197.304 45.292C197.304 42.604 196.44 40.396 194.712 38.668C192.984 36.916 190.86 36.04 188.34 36.04C185.82 36.04 183.696 36.916 181.968 38.668C180.24 40.396 179.376 42.604 179.376 45.292ZM175.416 45.292C175.416 41.452 176.664 38.296 179.16 35.824C181.656 33.328 184.716 32.08 188.34 32.08C191.964 32.08 195.024 33.328 197.52 35.824C200.016 38.296 201.264 41.452 201.264 45.292C201.264 49.156 200.016 52.348 197.52 54.868C195.024 57.388 191.964 58.648 188.34 58.648C184.716 58.648 181.656 57.388 179.16 54.868C176.664 52.348 175.416 49.156 175.416 45.292ZM205.623 54.292C207.279 54.292 208.551 53.776 209.439 52.744C210.351 51.712 210.807 50.404 210.807 48.82V32.8H227.007V58H223.047V36.508H214.767V49.684C214.767 51.94 213.963 53.896 212.355 55.552C210.771 57.184 208.719 58 206.199 58H204.759V54.292H205.623ZM235.974 32.8V42.592H244.938C247.194 42.592 249.102 43.336 250.662 44.824C252.222 46.312 253.002 48.136 253.002 50.296C253.002 52.504 252.27 54.34 250.806 55.804C249.342 57.268 247.506 58 245.298 58H232.014V32.8H235.974ZM244.938 54.112C246.114 54.112 247.086 53.752 247.854 53.032C248.646 52.288 249.042 51.376 249.042 50.296C249.042 49.216 248.646 48.316 247.854 47.596C247.086 46.852 246.114 46.48 244.938 46.48H235.974V54.112H244.938ZM287.987 58H257.387V32.8H261.347V54.112H270.779V32.8H274.739V54.112H284.027V32.8H287.987V58ZM296.986 43.42H309.442V47.308H296.986V54.112H310.306V58H293.026V32.8H310.306V36.688H296.986V43.42ZM315.536 53.32L319.568 54.04L317.372 63.616L314.096 63.04L315.536 53.32ZM353.989 32.8V58H350.029V32.8H353.989ZM338.581 32.8V40.828C338.581 42.652 339.097 44.092 340.129 45.148C341.161 46.18 342.493 46.696 344.125 46.696C345.757 46.696 347.149 46.192 348.301 45.184C349.453 44.176 350.029 42.964 350.029 41.548H351.757C351.757 44.044 350.905 46.156 349.201 47.884C347.497 49.612 345.397 50.476 342.901 50.476C340.525 50.476 338.545 49.684 336.961 48.1C335.401 46.492 334.621 44.368 334.621 41.728V32.8H338.581ZM363.005 43.42H375.461V47.308H363.005V54.112H376.325V58H359.045V32.8H376.325V36.688H363.005V43.42ZM380.547 58V32.8H385.227L393.795 48.82L402.363 32.8H407.043V58H403.083V39.208L395.163 54.076H392.463L384.507 39.208V58H380.547ZM422.684 32.8H443.924V58H439.964V36.508H426.644V58H422.684V32.8ZM459.375 36.688H452.931V46.12H459.375C460.887 46.12 462.159 45.664 463.191 44.752C464.223 43.84 464.739 42.7 464.739 41.332C464.739 39.988 464.223 38.884 463.191 38.02C462.183 37.132 460.911 36.688 459.375 36.688ZM459.375 50.008H452.931V58H448.971V32.8H459.735C462.303 32.8 464.439 33.616 466.143 35.248C467.847 36.856 468.699 38.884 468.699 41.332C468.699 43.756 467.787 45.808 465.963 47.488C464.163 49.168 461.967 50.008 459.375 50.008ZM476.072 45.292C476.072 48.028 476.936 50.284 478.664 52.06C480.392 53.812 482.516 54.688 485.036 54.688C487.556 54.688 489.68 53.812 491.408 52.06C493.136 50.284 494 48.028 494 45.292C494 42.604 493.136 40.396 491.408 38.668C489.68 36.916 487.556 36.04 485.036 36.04C482.516 36.04 480.392 36.916 478.664 38.668C476.936 40.396 476.072 42.604 476.072 45.292ZM472.112 45.292C472.112 41.452 473.36 38.296 475.856 35.824C478.352 33.328 481.412 32.08 485.036 32.08C488.66 32.08 491.72 33.328 494.216 35.824C496.712 38.296 497.96 41.452 497.96 45.292C497.96 49.156 496.712 52.348 494.216 54.868C491.72 57.388 488.66 58.648 485.036 58.648C481.412 58.648 478.352 57.388 475.856 54.868C473.36 52.348 472.112 49.156 472.112 45.292ZM503.291 52.168C502.139 50.128 501.563 47.86 501.563 45.364C501.563 42.868 502.139 40.6 503.291 38.56C504.443 36.52 506.015 34.936 508.007 33.808C509.999 32.656 512.195 32.08 514.595 32.08C517.283 32.08 519.719 32.8 521.903 34.24C524.087 35.68 525.743 37.636 526.871 40.108L522.983 41.548C522.215 39.844 521.075 38.5 519.563 37.516C518.075 36.532 516.419 36.04 514.595 36.04C512.051 36.04 509.903 36.928 508.151 38.704C506.399 40.456 505.523 42.676 505.523 45.364C505.523 48.052 506.399 50.284 508.151 52.06C509.903 53.812 512.051 54.688 514.595 54.688C516.467 54.688 518.159 54.172 519.671 53.14C521.207 52.084 522.359 50.656 523.127 48.856L527.051 50.26C525.971 52.828 524.315 54.868 522.083 56.38C519.851 57.892 517.355 58.648 514.595 58.648C512.195 58.648 509.999 58.084 508.007 56.956C506.015 55.804 504.443 54.208 503.291 52.168ZM550.138 32.8V36.688H542.218V58H538.258V36.688H530.338V32.8H550.138ZM557.394 45.292C557.394 48.028 558.258 50.284 559.986 52.06C561.714 53.812 563.838 54.688 566.358 54.688C568.878 54.688 571.002 53.812 572.73 52.06C574.458 50.284 575.322 48.028 575.322 45.292C575.322 42.604 574.458 40.396 572.73 38.668C571.002 36.916 568.878 36.04 566.358 36.04C563.838 36.04 561.714 36.916 559.986 38.668C558.258 40.396 557.394 42.604 557.394 45.292ZM553.434 45.292C553.434 41.452 554.682 38.296 557.178 35.824C559.674 33.328 562.734 32.08 566.358 32.08C569.982 32.08 573.042 33.328 575.538 35.824C578.034 38.296 579.282 41.452 579.282 45.292C579.282 49.156 578.034 52.348 575.538 54.868C573.042 57.388 569.982 58.648 566.358 58.648C562.734 58.648 559.674 57.388 557.178 54.868C554.682 52.348 553.434 49.156 553.434 45.292ZM613.144 32.8V36.688H605.224V58H601.264V36.688H593.344V32.8H613.144ZM621.948 48.064H636.348V51.808H621.948V48.064ZM620.796 58H616.26L626.556 32.8H631.74L642.108 58H637.572L629.22 36.904L620.796 58ZM646.224 58V32.8H650.184V43.456H651.336L661.128 32.8H666.312L654.756 45.436L666.312 58H661.128L651.336 47.524H650.184V58H646.224ZM671.374 52.168C670.222 50.128 669.646 47.86 669.646 45.364C669.646 42.868 670.222 40.6 671.374 38.56C672.526 36.52 674.098 34.936 676.09 33.808C678.082 32.656 680.278 32.08 682.678 32.08C685.366 32.08 687.802 32.8 689.986 34.24C692.17 35.68 693.826 37.636 694.954 40.108L691.066 41.548C690.298 39.844 689.158 38.5 687.646 37.516C686.158 36.532 684.502 36.04 682.678 36.04C680.134 36.04 677.986 36.928 676.234 38.704C674.482 40.456 673.606 42.676 673.606 45.364C673.606 48.052 674.482 50.284 676.234 52.06C677.986 53.812 680.134 54.688 682.678 54.688C684.55 54.688 686.242 54.172 687.754 53.14C689.29 52.084 690.442 50.656 691.21 48.856L695.134 50.26C694.054 52.828 692.398 54.868 690.166 56.38C687.934 57.892 685.438 58.648 682.678 58.648C680.278 58.648 678.082 58.084 676.09 56.956C674.098 55.804 672.526 54.208 671.374 52.168ZM720.346 58H716.386V38.848L704.074 58H699.466V32.8H703.426V51.772L715.738 32.8H720.346V58ZM724.609 55.696C724.609 54.88 724.873 54.196 725.401 53.644C725.929 53.092 726.589 52.816 727.381 52.816C728.221 52.816 728.917 53.092 729.469 53.644C730.021 54.196 730.297 54.88 730.297 55.696C730.297 56.512 730.021 57.196 729.469 57.748C728.941 58.276 728.269 58.54 727.453 58.54C726.637 58.54 725.953 58.276 725.401 57.748C724.873 57.196 724.609 56.512 724.609 55.696ZM751.831 47.344V43.492H769.183V47.344H751.831ZM768.355 38.56C769.507 40.6 770.083 42.868 770.083 45.364C770.083 47.86 769.507 50.128 768.355 52.168C767.203 54.208 765.631 55.804 763.639 56.956C761.647 58.084 759.451 58.648 757.051 58.648C754.363 58.648 751.927 57.964 749.743 56.596C747.559 55.228 745.903 53.356 744.775 50.98L748.663 49.54C749.431 51.148 750.559 52.408 752.047 53.32C753.559 54.232 755.227 54.688 757.051 54.688C759.595 54.688 761.743 53.812 763.495 52.06C765.247 50.284 766.123 48.052 766.123 45.364C766.123 42.676 765.247 40.456 763.495 38.704C761.743 36.928 759.595 36.04 757.051 36.04C755.179 36.04 753.475 36.532 751.939 37.516C750.427 38.476 749.287 39.808 748.519 41.512L744.595 40.108C745.675 37.636 747.331 35.68 749.563 34.24C751.795 32.8 754.291 32.08 757.051 32.08C759.451 32.08 761.647 32.656 763.639 33.808C765.631 34.936 767.203 36.52 768.355 38.56ZM793.171 32.8V36.688H785.251V58H781.291V36.688H773.371V32.8H793.171ZM800.426 45.292C800.426 48.028 801.29 50.284 803.018 52.06C804.746 53.812 806.87 54.688 809.39 54.688C811.91 54.688 814.034 53.812 815.762 52.06C817.49 50.284 818.354 48.028 818.354 45.292C818.354 42.604 817.49 40.396 815.762 38.668C814.034 36.916 811.91 36.04 809.39 36.04C806.87 36.04 804.746 36.916 803.018 38.668C801.29 40.396 800.426 42.604 800.426 45.292ZM796.466 45.292C796.466 41.452 797.714 38.296 800.21 35.824C802.706 33.328 805.766 32.08 809.39 32.08C813.014 32.08 816.074 33.328 818.57 35.824C821.066 38.296 822.314 41.452 822.314 45.292C822.314 49.156 821.066 52.348 818.57 54.868C816.074 57.388 813.014 58.648 809.39 58.648C805.766 58.648 802.706 57.388 800.21 54.868C797.714 52.348 796.466 49.156 796.466 45.292ZM837.42 32.8H858.66V58H854.7V36.508H841.38V58H837.42V32.8ZM866.947 45.292C866.947 48.028 867.811 50.284 869.539 52.06C871.267 53.812 873.391 54.688 875.911 54.688C878.431 54.688 880.555 53.812 882.283 52.06C884.011 50.284 884.875 48.028 884.875 45.292C884.875 42.604 884.011 40.396 882.283 38.668C880.555 36.916 878.431 36.04 875.911 36.04C873.391 36.04 871.267 36.916 869.539 38.668C867.811 40.396 866.947 42.604 866.947 45.292ZM862.987 45.292C862.987 41.452 864.235 38.296 866.731 35.824C869.227 33.328 872.287 32.08 875.911 32.08C879.535 32.08 882.595 33.328 885.091 35.824C887.587 38.296 888.835 41.452 888.835 45.292C888.835 49.156 887.587 52.348 885.091 54.868C882.595 57.388 879.535 58.648 875.911 58.648C872.287 58.648 869.227 57.388 866.731 54.868C864.235 52.348 862.987 49.156 862.987 45.292ZM903.563 36.688H897.119V46.12H903.563C905.075 46.12 906.347 45.664 907.379 44.752C908.411 43.84 908.927 42.7 908.927 41.332C908.927 39.988 908.411 38.884 907.379 38.02C906.371 37.132 905.099 36.688 903.563 36.688ZM903.563 50.008H897.119V58H893.159V32.8H903.923C906.491 32.8 908.627 33.616 910.331 35.248C912.035 36.856 912.887 38.884 912.887 41.332C912.887 43.756 911.975 45.808 910.151 47.488C908.351 49.168 906.155 50.008 903.563 50.008ZM935.776 32.8V36.688H927.856V58H923.896V36.688H915.976V32.8H935.776ZM944.579 48.064H958.979V51.808H944.579V48.064ZM943.427 58H938.891L949.187 32.8H954.371L964.739 58H960.203L951.851 36.904L943.427 58ZM968.892 54.292C970.548 54.292 971.82 53.776 972.708 52.744C973.62 51.712 974.076 50.404 974.076 48.82V32.8H990.276V58H986.316V36.508H978.036V49.684C978.036 51.94 977.232 53.896 975.624 55.552C974.04 57.184 971.988 58 969.468 58H968.028V54.292H968.892ZM1018.23 36.688H1010.03V43.456H1018.41C1019.37 43.456 1020.18 43.108 1020.83 42.412C1021.5 41.692 1021.83 40.816 1021.83 39.784C1021.83 38.872 1021.49 38.128 1020.79 37.552C1020.12 36.976 1019.27 36.688 1018.23 36.688ZM1018.41 47.272H1010.03V54.112H1018.59C1019.63 54.112 1020.48 53.812 1021.15 53.212C1021.85 52.588 1022.19 51.832 1022.19 50.944C1022.19 49.888 1021.83 49.012 1021.11 48.316C1020.39 47.62 1019.49 47.272 1018.41 47.272ZM1018.99 58H1006.07V32.8H1018.63C1020.69 32.8 1022.4 33.412 1023.74 34.636C1025.11 35.86 1025.79 37.408 1025.79 39.28C1025.79 40.552 1025.49 41.728 1024.89 42.808C1024.29 43.864 1023.48 44.68 1022.45 45.256C1023.6 45.832 1024.5 46.672 1025.15 47.776C1025.82 48.856 1026.15 50.056 1026.15 51.376C1026.15 53.272 1025.47 54.856 1024.1 56.128C1022.73 57.376 1021.03 58 1018.99 58ZM1062.33 58H1058.37V38.848L1046.06 58H1041.45V32.8H1045.41V51.772L1057.72 32.8H1062.33V58ZM1068.39 52.168C1067.24 50.128 1066.66 47.86 1066.66 45.364C1066.66 42.868 1067.24 40.6 1068.39 38.56C1069.54 36.52 1071.12 34.936 1073.11 33.808C1075.1 32.656 1077.3 32.08 1079.7 32.08C1082.38 32.08 1084.82 32.8 1087 34.24C1089.19 35.68 1090.84 37.636 1091.97 40.108L1088.08 41.548C1087.32 39.844 1086.18 38.5 1084.66 37.516C1083.18 36.532 1081.52 36.04 1079.7 36.04C1077.15 36.04 1075 36.928 1073.25 38.704C1071.5 40.456 1070.62 42.676 1070.62 45.364C1070.62 48.052 1071.5 50.284 1073.25 52.06C1075 53.812 1077.15 54.688 1079.7 54.688C1081.57 54.688 1083.26 54.172 1084.77 53.14C1086.31 52.084 1087.46 50.656 1088.23 48.856L1092.15 50.26C1091.07 52.828 1089.42 54.868 1087.18 56.38C1084.95 57.892 1082.46 58.648 1079.7 58.648C1077.3 58.648 1075.1 58.084 1073.11 56.956C1071.12 55.804 1069.54 54.208 1068.39 52.168ZM1115.24 32.8V36.688H1107.32V58H1103.36V36.688H1095.44V32.8H1115.24ZM1122.5 45.292C1122.5 48.028 1123.36 50.284 1125.09 52.06C1126.82 53.812 1128.94 54.688 1131.46 54.688C1133.98 54.688 1136.1 53.812 1137.83 52.06C1139.56 50.284 1140.42 48.028 1140.42 45.292C1140.42 42.604 1139.56 40.396 1137.83 38.668C1136.1 36.916 1133.98 36.04 1131.46 36.04C1128.94 36.04 1126.82 36.916 1125.09 38.668C1123.36 40.396 1122.5 42.604 1122.5 45.292ZM1118.54 45.292C1118.54 41.452 1119.78 38.296 1122.28 35.824C1124.78 33.328 1127.84 32.08 1131.46 32.08C1135.08 32.08 1138.14 33.328 1140.64 35.824C1143.14 38.296 1144.38 41.452 1144.38 45.292C1144.38 49.156 1143.14 52.348 1140.64 54.868C1138.14 57.388 1135.08 58.648 1131.46 58.648C1127.84 58.648 1124.78 57.388 1122.28 54.868C1119.78 52.348 1118.54 49.156 1118.54 45.292ZM1159.11 36.688H1152.67V46.12H1159.11C1160.62 46.12 1161.89 45.664 1162.93 44.752C1163.96 43.84 1164.47 42.7 1164.47 41.332C1164.47 39.988 1163.96 38.884 1162.93 38.02C1161.92 37.132 1160.65 36.688 1159.11 36.688ZM1159.11 50.008H1152.67V58H1148.71V32.8H1159.47C1162.04 32.8 1164.17 33.616 1165.88 35.248C1167.58 36.856 1168.43 38.884 1168.43 41.332C1168.43 43.756 1167.52 45.808 1165.7 47.488C1163.9 49.168 1161.7 50.008 1159.11 50.008ZM1193.45 58H1189.49V38.848L1177.18 58H1172.57V32.8H1176.53V51.772L1188.84 32.8H1193.45V58ZM1212.36 45.292C1212.36 48.028 1213.23 50.284 1214.96 52.06C1216.68 53.812 1218.81 54.688 1221.33 54.688C1223.85 54.688 1225.97 53.812 1227.7 52.06C1229.43 50.284 1230.29 48.028 1230.29 45.292C1230.29 42.604 1229.43 40.396 1227.7 38.668C1225.97 36.916 1223.85 36.04 1221.33 36.04C1218.81 36.04 1216.68 36.916 1214.96 38.668C1213.23 40.396 1212.36 42.604 1212.36 45.292ZM1208.4 45.292C1208.4 41.452 1209.65 38.296 1212.15 35.824C1214.64 33.328 1217.7 32.08 1221.33 32.08C1224.95 32.08 1228.01 33.328 1230.51 35.824C1233 38.296 1234.25 41.452 1234.25 45.292C1234.25 49.156 1233 52.348 1230.51 54.868C1228.01 57.388 1224.95 58.648 1221.33 58.648C1217.7 58.648 1214.64 57.388 1212.15 54.868C1209.65 52.348 1208.4 49.156 1208.4 45.292ZM1209.84 43.42V47.308H1202.46V58H1198.5V32.8H1202.46V43.42H1209.84ZM1253.49 58H1249.53V32.8H1253.49V58ZM1277.28 32.8V36.688H1269.36V58H1265.4V36.688H1257.48V32.8H1277.28ZM1285.25 43.42H1297.71V47.308H1285.25V54.112H1298.57V58H1281.29V32.8H1298.57V36.688H1285.25V43.42ZM1313.74 36.688H1306.93V45.04H1313.74C1315.11 45.04 1316.25 44.632 1317.16 43.816C1318.09 43 1318.56 41.992 1318.56 40.792C1318.56 39.616 1318.11 38.644 1317.19 37.876C1316.28 37.084 1315.13 36.688 1313.74 36.688ZM1315.75 48.532L1322.7 58H1318.06L1311.33 48.892H1306.93V58H1302.97V32.8H1314.1C1316.59 32.8 1318.65 33.556 1320.25 35.068C1321.89 36.556 1322.7 38.5 1322.7 40.9C1322.7 42.916 1322.04 44.644 1320.72 46.084C1319.4 47.5 1317.75 48.316 1315.75 48.532ZM1365.66 46.66V50.152H1336.82V46.66H1365.66ZM1393.23 43.132C1395.46 43.132 1397.35 43.864 1398.88 45.328C1400.42 46.768 1401.19 48.544 1401.19 50.656C1401.19 52.744 1400.47 54.496 1399.03 55.912C1397.59 57.304 1395.78 58 1393.59 58H1380.49V32.8H1397.48V36.652H1384.45V43.132H1393.23ZM1393.23 54.112C1394.38 54.112 1395.33 53.788 1396.08 53.14C1396.84 52.468 1397.23 51.64 1397.23 50.656C1397.23 49.624 1396.84 48.76 1396.08 48.064C1395.31 47.368 1394.36 47.02 1393.23 47.02H1384.45V54.112H1393.23ZM1408.93 45.292C1408.93 48.028 1409.79 50.284 1411.52 52.06C1413.25 53.812 1415.37 54.688 1417.89 54.688C1420.41 54.688 1422.53 53.812 1424.26 52.06C1425.99 50.284 1426.85 48.028 1426.85 45.292C1426.85 42.604 1425.99 40.396 1424.26 38.668C1422.53 36.916 1420.41 36.04 1417.89 36.04C1415.37 36.04 1413.25 36.916 1411.52 38.668C1409.79 40.396 1408.93 42.604 1408.93 45.292ZM1404.97 45.292C1404.97 41.452 1406.21 38.296 1408.71 35.824C1411.21 33.328 1414.27 32.08 1417.89 32.08C1421.51 32.08 1424.57 33.328 1427.07 35.824C1429.57 38.296 1430.81 41.452 1430.81 45.292C1430.81 49.156 1429.57 52.348 1427.07 54.868C1424.57 57.388 1421.51 58.648 1417.89 58.648C1414.27 58.648 1411.21 57.388 1408.71 54.868C1406.21 52.348 1404.97 49.156 1404.97 45.292ZM1435.17 54.292C1436.83 54.292 1438.1 53.776 1438.99 52.744C1439.9 51.712 1440.36 50.404 1440.36 48.82V32.8H1456.56V58H1452.6V36.508H1444.32V49.684C1444.32 51.94 1443.51 53.896 1441.91 55.552C1440.32 57.184 1438.27 58 1435.75 58H1434.31V54.292H1435.17ZM1465.52 32.8V42.592H1474.49C1476.74 42.592 1478.65 43.336 1480.21 44.824C1481.77 46.312 1482.55 48.136 1482.55 50.296C1482.55 52.504 1481.82 54.34 1480.36 55.804C1478.89 57.268 1477.06 58 1474.85 58H1461.56V32.8H1465.52ZM1474.49 54.112C1475.66 54.112 1476.64 53.752 1477.4 53.032C1478.2 52.288 1478.59 51.376 1478.59 50.296C1478.59 49.216 1478.2 48.316 1477.4 47.596C1476.64 46.852 1475.66 46.48 1474.49 46.48H1465.52V54.112H1474.49ZM1517.54 58H1486.94V32.8H1490.9V54.112H1500.33V32.8H1504.29V54.112H1513.58V32.8H1517.54V58ZM1526.54 43.42H1538.99V47.308H1526.54V54.112H1539.86V58H1522.58V32.8H1539.86V36.688H1526.54V43.42ZM1545.09 53.32L1549.12 54.04L1546.92 63.616L1543.65 63.04L1545.09 53.32ZM1583.54 32.8V58H1579.58V32.8H1583.54ZM1568.13 32.8V40.828C1568.13 42.652 1568.65 44.092 1569.68 45.148C1570.71 46.18 1572.04 46.696 1573.68 46.696C1575.31 46.696 1576.7 46.192 1577.85 45.184C1579 44.176 1579.58 42.964 1579.58 41.548H1581.31C1581.31 44.044 1580.46 46.156 1578.75 47.884C1577.05 49.612 1574.95 50.476 1572.45 50.476C1570.08 50.476 1568.1 49.684 1566.51 48.1C1564.95 46.492 1564.17 44.368 1564.17 41.728V32.8H1568.13ZM1592.56 43.42H1605.01V47.308H1592.56V54.112H1605.88V58H1588.6V32.8H1605.88V36.688H1592.56V43.42ZM1610.1 58V32.8H1614.78L1623.35 48.82L1631.91 32.8H1636.59V58H1632.63V39.208L1624.71 54.076H1622.01L1614.06 39.208V58H1610.1ZM1652.23 32.8H1673.47V58H1669.51V36.508H1656.19V58H1652.23V32.8ZM1688.93 36.688H1682.48V46.12H1688.93C1690.44 46.12 1691.71 45.664 1692.74 44.752C1693.77 43.84 1694.29 42.7 1694.29 41.332C1694.29 39.988 1693.77 38.884 1692.74 38.02C1691.73 37.132 1690.46 36.688 1688.93 36.688ZM1688.93 50.008H1682.48V58H1678.52V32.8H1689.29C1691.85 32.8 1693.99 33.616 1695.69 35.248C1697.4 36.856 1698.25 38.884 1698.25 41.332C1698.25 43.756 1697.34 45.808 1695.51 47.488C1693.71 49.168 1691.52 50.008 1688.93 50.008ZM1705.62 45.292C1705.62 48.028 1706.49 50.284 1708.21 52.06C1709.94 53.812 1712.07 54.688 1714.59 54.688C1717.11 54.688 1719.23 53.812 1720.96 52.06C1722.69 50.284 1723.55 48.028 1723.55 45.292C1723.55 42.604 1722.69 40.396 1720.96 38.668C1719.23 36.916 1717.11 36.04 1714.59 36.04C1712.07 36.04 1709.94 36.916 1708.21 38.668C1706.49 40.396 1705.62 42.604 1705.62 45.292ZM1701.66 45.292C1701.66 41.452 1702.91 38.296 1705.41 35.824C1707.9 33.328 1710.96 32.08 1714.59 32.08C1718.21 32.08 1721.27 33.328 1723.77 35.824C1726.26 38.296 1727.51 41.452 1727.51 45.292C1727.51 49.156 1726.26 52.348 1723.77 54.868C1721.27 57.388 1718.21 58.648 1714.59 58.648C1710.96 58.648 1707.9 57.388 1705.41 54.868C1702.91 52.348 1701.66 49.156 1701.66 45.292ZM1732.84 52.168C1731.69 50.128 1731.11 47.86 1731.11 45.364C1731.11 42.868 1731.69 40.6 1732.84 38.56C1733.99 36.52 1735.57 34.936 1737.56 33.808C1739.55 32.656 1741.75 32.08 1744.15 32.08C1746.83 32.08 1749.27 32.8 1751.45 34.24C1753.64 35.68 1755.29 37.636 1756.42 40.108L1752.53 41.548C1751.77 39.844 1750.63 38.5 1749.11 37.516C1747.63 36.532 1745.97 36.04 1744.15 36.04C1741.6 36.04 1739.45 36.928 1737.7 38.704C1735.95 40.456 1735.07 42.676 1735.07 45.364C1735.07 48.052 1735.95 50.284 1737.7 52.06C1739.45 53.812 1741.6 54.688 1744.15 54.688C1746.02 54.688 1747.71 54.172 1749.22 53.14C1750.76 52.084 1751.91 50.656 1752.68 48.856L1756.6 50.26C1755.52 52.828 1753.87 54.868 1751.63 56.38C1749.4 57.892 1746.91 58.648 1744.15 58.648C1741.75 58.648 1739.55 58.084 1737.56 56.956C1735.57 55.804 1733.99 54.208 1732.84 52.168ZM1779.69 32.8V36.688H1771.77V58H1767.81V36.688H1759.89V32.8H1779.69ZM1786.94 45.292C1786.94 48.028 1787.81 50.284 1789.54 52.06C1791.26 53.812 1793.39 54.688 1795.91 54.688C1798.43 54.688 1800.55 53.812 1802.28 52.06C1804.01 50.284 1804.87 48.028 1804.87 45.292C1804.87 42.604 1804.01 40.396 1802.28 38.668C1800.55 36.916 1798.43 36.04 1795.91 36.04C1793.39 36.04 1791.26 36.916 1789.54 38.668C1787.81 40.396 1786.94 42.604 1786.94 45.292ZM1782.98 45.292C1782.98 41.452 1784.23 38.296 1786.73 35.824C1789.22 33.328 1792.28 32.08 1795.91 32.08C1799.53 32.08 1802.59 33.328 1805.09 35.824C1807.58 38.296 1808.83 41.452 1808.83 45.292C1808.83 49.156 1807.58 52.348 1805.09 54.868C1802.59 57.388 1799.53 58.648 1795.91 58.648C1792.28 58.648 1789.22 57.388 1786.73 54.868C1784.23 52.348 1782.98 49.156 1782.98 45.292ZM1842.69 32.8V36.688H1834.77V58H1830.81V36.688H1822.89V32.8H1842.69ZM1851.5 48.064H1865.9V51.808H1851.5V48.064ZM1850.35 58H1845.81L1856.11 32.8H1861.29L1871.66 58H1867.12L1858.77 36.904L1850.35 58ZM1875.77 58V32.8H1879.73V43.456H1880.89L1890.68 32.8H1895.86L1884.31 45.436L1895.86 58H1890.68L1880.89 47.524H1879.73V58H1875.77ZM1900.92 52.168C1899.77 50.128 1899.2 47.86 1899.2 45.364C1899.2 42.868 1899.77 40.6 1900.92 38.56C1902.08 36.52 1903.65 34.936 1905.64 33.808C1907.63 32.656 1909.83 32.08 1912.23 32.08C1914.92 32.08 1917.35 32.8 1919.54 34.24C1921.72 35.68 1923.38 37.636 1924.5 40.108L1920.62 41.548C1919.85 39.844 1918.71 38.5 1917.2 37.516C1915.71 36.532 1914.05 36.04 1912.23 36.04C1909.68 36.04 1907.54 36.928 1905.78 38.704C1904.03 40.456 1903.16 42.676 1903.16 45.364C1903.16 48.052 1904.03 50.284 1905.78 52.06C1907.54 53.812 1909.68 54.688 1912.23 54.688C1914.1 54.688 1915.79 54.172 1917.3 53.14C1918.84 52.084 1919.99 50.656 1920.76 48.856L1924.68 50.26C1923.6 52.828 1921.95 54.868 1919.72 56.38C1917.48 57.892 1914.99 58.648 1912.23 58.648C1909.83 58.648 1907.63 58.084 1905.64 56.956C1903.65 55.804 1902.08 54.208 1900.92 52.168ZM1949.9 58H1945.94V38.848L1933.62 58H1929.02V32.8H1932.98V51.772L1945.29 32.8H1949.9V58ZM1954.16 55.696C1954.16 54.88 1954.42 54.196 1954.95 53.644C1955.48 53.092 1956.14 52.816 1956.93 52.816C1957.77 52.816 1958.47 53.092 1959.02 53.644C1959.57 54.196 1959.85 54.88 1959.85 55.696C1959.85 56.512 1959.57 57.196 1959.02 57.748C1958.49 58.276 1957.82 58.54 1957 58.54C1956.19 58.54 1955.5 58.276 1954.95 57.748C1954.42 57.196 1954.16 56.512 1954.16 55.696ZM1981.38 47.344V43.492H1998.73V47.344H1981.38ZM1997.91 38.56C1999.06 40.6 1999.63 42.868 1999.63 45.364C1999.63 47.86 1999.06 50.128 1997.91 52.168C1996.75 54.208 1995.18 55.804 1993.19 56.956C1991.2 58.084 1989 58.648 1986.6 58.648C1983.91 58.648 1981.48 57.964 1979.29 56.596C1977.11 55.228 1975.45 53.356 1974.33 50.98L1978.21 49.54C1978.98 51.148 1980.11 52.408 1981.6 53.32C1983.11 54.232 1984.78 54.688 1986.6 54.688C1989.15 54.688 1991.29 53.812 1993.05 52.06C1994.8 50.284 1995.67 48.052 1995.67 45.364C1995.67 42.676 1994.8 40.456 1993.05 38.704C1991.29 36.928 1989.15 36.04 1986.6 36.04C1984.73 36.04 1983.03 36.532 1981.49 37.516C1979.98 38.476 1978.84 39.808 1978.07 41.512L1974.15 40.108C1975.23 37.636 1976.88 35.68 1979.11 34.24C1981.35 32.8 1983.84 32.08 1986.6 32.08C1989 32.08 1991.2 32.656 1993.19 33.808C1995.18 34.936 1996.75 36.52 1997.91 38.56ZM2022.72 32.8V36.688H2014.8V58H2010.84V36.688H2002.92V32.8H2022.72ZM2029.98 45.292C2029.98 48.028 2030.84 50.284 2032.57 52.06C2034.3 53.812 2036.42 54.688 2038.94 54.688C2041.46 54.688 2043.58 53.812 2045.31 52.06C2047.04 50.284 2047.9 48.028 2047.9 45.292C2047.9 42.604 2047.04 40.396 2045.31 38.668C2043.58 36.916 2041.46 36.04 2038.94 36.04C2036.42 36.04 2034.3 36.916 2032.57 38.668C2030.84 40.396 2029.98 42.604 2029.98 45.292ZM2026.02 45.292C2026.02 41.452 2027.26 38.296 2029.76 35.824C2032.26 33.328 2035.32 32.08 2038.94 32.08C2042.56 32.08 2045.62 33.328 2048.12 35.824C2050.62 38.296 2051.86 41.452 2051.86 45.292C2051.86 49.156 2050.62 52.348 2048.12 54.868C2045.62 57.388 2042.56 58.648 2038.94 58.648C2035.32 58.648 2032.26 57.388 2029.76 54.868C2027.26 52.348 2026.02 49.156 2026.02 45.292ZM2066.97 32.8H2088.21V58H2084.25V36.508H2070.93V58H2066.97V32.8ZM2096.5 45.292C2096.5 48.028 2097.36 50.284 2099.09 52.06C2100.82 53.812 2102.94 54.688 2105.46 54.688C2107.98 54.688 2110.11 53.812 2111.83 52.06C2113.56 50.284 2114.43 48.028 2114.43 45.292C2114.43 42.604 2113.56 40.396 2111.83 38.668C2110.11 36.916 2107.98 36.04 2105.46 36.04C2102.94 36.04 2100.82 36.916 2099.09 38.668C2097.36 40.396 2096.5 42.604 2096.5 45.292ZM2092.54 45.292C2092.54 41.452 2093.79 38.296 2096.28 35.824C2098.78 33.328 2101.84 32.08 2105.46 32.08C2109.09 32.08 2112.15 33.328 2114.64 35.824C2117.14 38.296 2118.39 41.452 2118.39 45.292C2118.39 49.156 2117.14 52.348 2114.64 54.868C2112.15 57.388 2109.09 58.648 2105.46 58.648C2101.84 58.648 2098.78 57.388 2096.28 54.868C2093.79 52.348 2092.54 49.156 2092.54 45.292ZM2133.11 36.688H2126.67V46.12H2133.11C2134.63 46.12 2135.9 45.664 2136.93 44.752C2137.96 43.84 2138.48 42.7 2138.48 41.332C2138.48 39.988 2137.96 38.884 2136.93 38.02C2135.92 37.132 2134.65 36.688 2133.11 36.688ZM2133.11 50.008H2126.67V58H2122.71V32.8H2133.47C2136.04 32.8 2138.18 33.616 2139.88 35.248C2141.59 36.856 2142.44 38.884 2142.44 41.332C2142.44 43.756 2141.53 45.808 2139.7 47.488C2137.9 49.168 2135.71 50.008 2133.11 50.008ZM2165.33 32.8V36.688H2157.41V58H2153.45V36.688H2145.53V32.8H2165.33ZM2174.13 48.064H2188.53V51.808H2174.13V48.064ZM2172.98 58H2168.44L2178.74 32.8H2183.92L2194.29 58H2189.75L2181.4 36.904L2172.98 58ZM2198.44 54.292C2200.1 54.292 2201.37 53.776 2202.26 52.744C2203.17 51.712 2203.63 50.404 2203.63 48.82V32.8H2219.83V58H2215.87V36.508H2207.59V49.684C2207.59 51.94 2206.78 53.896 2205.17 55.552C2203.59 57.184 2201.54 58 2199.02 58H2197.58V54.292H2198.44ZM2247.78 36.688H2239.58V43.456H2247.96C2248.92 43.456 2249.73 43.108 2250.38 42.412C2251.05 41.692 2251.38 40.816 2251.38 39.784C2251.38 38.872 2251.04 38.128 2250.34 37.552C2249.67 36.976 2248.82 36.688 2247.78 36.688ZM2247.96 47.272H2239.58V54.112H2248.14C2249.18 54.112 2250.03 53.812 2250.7 53.212C2251.4 52.588 2251.74 51.832 2251.74 50.944C2251.74 49.888 2251.38 49.012 2250.66 48.316C2249.94 47.62 2249.04 47.272 2247.96 47.272ZM2248.54 58H2235.62V32.8H2248.18C2250.24 32.8 2251.95 33.412 2253.29 34.636C2254.66 35.86 2255.34 37.408 2255.34 39.28C2255.34 40.552 2255.04 41.728 2254.44 42.808C2253.84 43.864 2253.03 44.68 2252 45.256C2253.15 45.832 2254.05 46.672 2254.7 47.776C2255.37 48.856 2255.7 50.056 2255.7 51.376C2255.7 53.272 2255.02 54.856 2253.65 56.128C2252.28 57.376 2250.58 58 2248.54 58ZM2291.88 58H2287.92V38.848L2275.61 58H2271V32.8H2274.96V51.772L2287.27 32.8H2291.88V58ZM2297.94 52.168C2296.79 50.128 2296.22 47.86 2296.22 45.364C2296.22 42.868 2296.79 40.6 2297.94 38.56C2299.1 36.52 2300.67 34.936 2302.66 33.808C2304.65 32.656 2306.85 32.08 2309.25 32.08C2311.94 32.08 2314.37 32.8 2316.56 34.24C2318.74 35.68 2320.4 37.636 2321.52 40.108L2317.64 41.548C2316.87 39.844 2315.73 38.5 2314.22 37.516C2312.73 36.532 2311.07 36.04 2309.25 36.04C2306.7 36.04 2304.56 36.928 2302.8 38.704C2301.05 40.456 2300.18 42.676 2300.18 45.364C2300.18 48.052 2301.05 50.284 2302.8 52.06C2304.56 53.812 2306.7 54.688 2309.25 54.688C2311.12 54.688 2312.81 54.172 2314.32 53.14C2315.86 52.084 2317.01 50.656 2317.78 48.856L2321.7 50.26C2320.62 52.828 2318.97 54.868 2316.74 56.38C2314.5 57.892 2312.01 58.648 2309.25 58.648C2306.85 58.648 2304.65 58.084 2302.66 56.956C2300.67 55.804 2299.1 54.208 2297.94 52.168ZM2344.79 32.8V36.688H2336.87V58H2332.91V36.688H2324.99V32.8H2344.79ZM2352.05 45.292C2352.05 48.028 2352.91 50.284 2354.64 52.06C2356.37 53.812 2358.49 54.688 2361.01 54.688C2363.53 54.688 2365.65 53.812 2367.38 52.06C2369.11 50.284 2369.97 48.028 2369.97 45.292C2369.97 42.604 2369.11 40.396 2367.38 38.668C2365.65 36.916 2363.53 36.04 2361.01 36.04C2358.49 36.04 2356.37 36.916 2354.64 38.668C2352.91 40.396 2352.05 42.604 2352.05 45.292ZM2348.09 45.292C2348.09 41.452 2349.33 38.296 2351.83 35.824C2354.33 33.328 2357.39 32.08 2361.01 32.08C2364.63 32.08 2367.69 33.328 2370.19 35.824C2372.69 38.296 2373.93 41.452 2373.93 45.292C2373.93 49.156 2372.69 52.348 2370.19 54.868C2367.69 57.388 2364.63 58.648 2361.01 58.648C2357.39 58.648 2354.33 57.388 2351.83 54.868C2349.33 52.348 2348.09 49.156 2348.09 45.292ZM2388.66 36.688H2382.22V46.12H2388.66C2390.17 46.12 2391.45 45.664 2392.48 44.752C2393.51 43.84 2394.03 42.7 2394.03 41.332C2394.03 39.988 2393.51 38.884 2392.48 38.02C2391.47 37.132 2390.2 36.688 2388.66 36.688ZM2388.66 50.008H2382.22V58H2378.26V32.8H2389.02C2391.59 32.8 2393.73 33.616 2395.43 35.248C2397.13 36.856 2397.99 38.884 2397.99 41.332C2397.99 43.756 2397.07 45.808 2395.25 47.488C2393.45 49.168 2391.25 50.008 2388.66 50.008ZM2423 58H2419.04V38.848L2406.73 58H2402.12V32.8H2406.08V51.772L2418.39 32.8H2423V58ZM2441.91 45.292C2441.91 48.028 2442.78 50.284 2444.51 52.06C2446.23 53.812 2448.36 54.688 2450.88 54.688C2453.4 54.688 2455.52 53.812 2457.25 52.06C2458.98 50.284 2459.84 48.028 2459.84 45.292C2459.84 42.604 2458.98 40.396 2457.25 38.668C2455.52 36.916 2453.4 36.04 2450.88 36.04C2448.36 36.04 2446.23 36.916 2444.51 38.668C2442.78 40.396 2441.91 42.604 2441.91 45.292ZM2437.95 45.292C2437.95 41.452 2439.2 38.296 2441.7 35.824C2444.19 33.328 2447.25 32.08 2450.88 32.08C2454.5 32.08 2457.56 33.328 2460.06 35.824C2462.55 38.296 2463.8 41.452 2463.8 45.292C2463.8 49.156 2462.55 52.348 2460.06 54.868C2457.56 57.388 2454.5 58.648 2450.88 58.648C2447.25 58.648 2444.19 57.388 2441.7 54.868C2439.2 52.348 2437.95 49.156 2437.95 45.292ZM2439.39 43.42V47.308H2432.01V58H2428.05V32.8H2432.01V43.42H2439.39Z" fill="#245BC6"/>
</g>
<defs>
<clipPath id="clip0_250_3387">
<rect width="2468" height="91" fill="white"/>
</clipPath>
</defs>
</svg>
