<svg width="2468" height="91" viewBox="0 0 2468 91" fill="none" xmlns="http://www.w3.org/2000/svg">
<g clip-path="url(#clip0_250_3399)">
<rect width="2468" height="91" fill="white"/>
<path d="M20.98 32.8H42.22V58H38.26V36.508H24.94V58H20.98V32.8ZM68.147 58H64.187V38.848L51.875 58H47.267V32.8H51.227V51.772L63.539 32.8H68.147V58ZM83.6065 36.688H77.1625V46.12H83.6065C85.1185 46.12 86.3905 45.664 87.4225 44.752C88.4545 43.84 88.9705 42.7 88.9705 41.332C88.9705 39.988 88.4545 38.884 87.4225 38.02C86.4145 37.132 85.1425 36.688 83.6065 36.688ZM83.6065 50.008H77.1625V58H73.2025V32.8H83.9665C86.5345 32.8 88.6705 33.616 90.3745 35.248C92.0785 36.856 92.9305 38.884 92.9305 41.332C92.9305 43.756 92.0185 45.808 90.1945 47.488C88.3945 49.168 86.1985 50.008 83.6065 50.008ZM101.852 48.064H116.252V51.808H101.852V48.064ZM100.7 58H96.1637L106.46 32.8H111.644L122.012 58H117.476L109.124 36.904L100.7 58ZM125.948 58V32.8H130.628L139.196 48.82L147.764 32.8H152.444V58H148.484V39.208L140.564 54.076H137.864L129.908 39.208V58H125.948ZM178.182 58H174.222V38.848L161.91 58H157.302V32.8H161.262V51.772L173.574 32.8H178.182V58ZM182.265 54.292H208.329V62.176H204.369V58H186.225V62.176H182.265V54.292ZM183.489 54.292C185.193 54.292 186.501 53.752 187.413 52.672C188.349 51.568 188.817 50.164 188.817 48.46V32.8H205.377V57.964H201.417V36.688H192.777V48.964C192.777 51.148 191.937 53.044 190.257 54.652C188.601 56.26 186.465 57.064 183.849 57.064H182.769L182.265 54.292H183.489ZM235.358 36.688H227.15V43.456H235.538C236.498 43.456 237.302 43.108 237.95 42.412C238.622 41.692 238.958 40.816 238.958 39.784C238.958 38.872 238.61 38.128 237.914 37.552C237.242 36.976 236.39 36.688 235.358 36.688ZM235.538 47.272H227.15V54.112H235.718C236.75 54.112 237.602 53.812 238.274 53.212C238.97 52.588 239.318 51.832 239.318 50.944C239.318 49.888 238.958 49.012 238.238 48.316C237.518 47.62 236.618 47.272 235.538 47.272ZM236.114 58H223.19V32.8H235.754C237.818 32.8 239.522 33.412 240.866 34.636C242.234 35.86 242.918 37.408 242.918 39.28C242.918 40.552 242.618 41.728 242.018 42.808C241.418 43.864 240.602 44.68 239.57 45.256C240.722 45.832 241.622 46.672 242.27 47.776C242.942 48.856 243.278 50.056 243.278 51.376C243.278 53.272 242.594 54.856 241.226 56.128C239.858 57.376 238.154 58 236.114 58ZM257.601 54.292H283.665V62.176H279.705V58H261.561V62.176H257.601V54.292ZM258.825 54.292C260.529 54.292 261.837 53.752 262.749 52.672C263.685 51.568 264.153 50.164 264.153 48.46V32.8H280.713V57.964H276.753V36.688H268.113V48.964C268.113 51.148 267.273 53.044 265.593 54.652C263.937 56.26 261.801 57.064 259.185 57.064H258.105L257.601 54.292H258.825ZM298.147 36.688H291.703V46.12H298.147C299.659 46.12 300.931 45.664 301.963 44.752C302.995 43.84 303.511 42.7 303.511 41.332C303.511 39.988 302.995 38.884 301.963 38.02C300.955 37.132 299.683 36.688 298.147 36.688ZM298.147 50.008H291.703V58H287.743V32.8H298.507C301.075 32.8 303.211 33.616 304.915 35.248C306.619 36.856 307.471 38.884 307.471 41.332C307.471 43.756 306.559 45.808 304.735 47.488C302.935 49.168 300.739 50.008 298.147 50.008ZM315.564 43.42H328.02V47.308H315.564V54.112H328.884V58H311.604V32.8H328.884V36.688H315.564V43.42ZM345.454 36.688H337.246V43.456H345.634C346.594 43.456 347.398 43.108 348.046 42.412C348.718 41.692 349.054 40.816 349.054 39.784C349.054 38.872 348.706 38.128 348.01 37.552C347.338 36.976 346.486 36.688 345.454 36.688ZM345.634 47.272H337.246V54.112H345.814C346.846 54.112 347.698 53.812 348.37 53.212C349.066 52.588 349.414 51.832 349.414 50.944C349.414 49.888 349.054 49.012 348.334 48.316C347.614 47.62 346.714 47.272 345.634 47.272ZM346.21 58H333.286V32.8H345.85C347.914 32.8 349.618 33.412 350.962 34.636C352.33 35.86 353.014 37.408 353.014 39.28C353.014 40.552 352.714 41.728 352.114 42.808C351.514 43.864 350.698 44.68 349.666 45.256C350.818 45.832 351.718 46.672 352.366 47.776C353.038 48.856 353.374 50.056 353.374 51.376C353.374 53.272 352.69 54.856 351.322 56.128C349.954 57.376 348.25 58 346.21 58ZM357.885 58V32.8H361.845V43.42H374.805V32.8H378.765V58H374.805V47.308H361.845V58H357.885ZM387.781 43.42H400.237V47.308H387.781V54.112H401.101V58H383.821V32.8H401.101V36.688H387.781V43.42ZM405.322 58V32.8H410.002L418.57 48.82L427.138 32.8H431.818V58H427.858V39.208L419.938 54.076H417.238L409.282 39.208V58H405.322ZM451.419 43.42H463.875V47.308H451.419V54.112H464.739V58H447.459V32.8H464.739V36.688H451.419V43.42ZM469.141 58V32.8H486.781V36.508H473.101V58H469.141ZM511.808 58H507.848V38.848L495.536 58H490.928V32.8H494.888V51.772L507.2 32.8H511.808V58ZM516.863 32.8H538.103V58H534.143V36.508H520.823V58H516.863V32.8ZM561.906 32.8V36.688H553.986V58H550.026V36.688H542.106V32.8H561.906ZM569.882 43.42H582.338V47.308H569.882V54.112H583.202V58H565.922V32.8H583.202V36.688H569.882V43.42ZM588.431 53.32L592.463 54.04L590.267 63.616L586.991 63.04L588.431 53.32ZM637.056 32.8V36.688H629.136V58H625.176V36.688H617.256V32.8H637.056ZM645.86 48.064H660.26V51.808H645.86V48.064ZM644.708 58H640.172L650.468 32.8H655.652L666.02 58H661.484L653.132 36.904L644.708 58ZM670.136 58V32.8H674.096V43.456H675.248L685.04 32.8H690.224L678.668 45.436L690.224 58H685.04L675.248 47.524H674.096V58H670.136ZM725.942 58H721.982V38.848L709.67 58H705.062V32.8H709.022V51.772L721.334 32.8H725.942V58ZM741.78 58V32.8H745.74V43.42H758.7V32.8H762.66V58H758.7V47.308H745.74V58H741.78ZM772.504 48.064H786.904V51.808H772.504V48.064ZM771.352 58H766.816L777.112 32.8H782.296L792.664 58H788.128L779.776 36.904L771.352 58ZM818.346 58V32.8H822.306V43.456H823.458L833.25 32.8H838.434L826.878 45.436L838.434 58H833.25L823.458 47.524H822.306V58H818.346ZM845.729 45.292C845.729 48.028 846.593 50.284 848.321 52.06C850.049 53.812 852.173 54.688 854.693 54.688C857.213 54.688 859.337 53.812 861.065 52.06C862.793 50.284 863.657 48.028 863.657 45.292C863.657 42.604 862.793 40.396 861.065 38.668C859.337 36.916 857.213 36.04 854.693 36.04C852.173 36.04 850.049 36.916 848.321 38.668C846.593 40.396 845.729 42.604 845.729 45.292ZM841.769 45.292C841.769 41.452 843.017 38.296 845.513 35.824C848.009 33.328 851.069 32.08 854.693 32.08C858.317 32.08 861.377 33.328 863.873 35.824C866.369 38.296 867.617 41.452 867.617 45.292C867.617 49.156 866.369 52.348 863.873 54.868C861.377 57.388 858.317 58.648 854.693 58.648C851.069 58.648 848.009 57.388 845.513 54.868C843.017 52.348 841.769 49.156 841.769 45.292ZM871.94 58V32.8H875.9V43.42H888.86V32.8H892.82V58H888.86V47.308H875.9V58H871.94ZM917.855 54.112H921.275V62.536H917.315V58H897.875V32.8H901.835V54.112H913.895V32.8H917.855V54.112ZM929.388 43.42H941.844V47.308H929.388V54.112H942.708V58H925.428V32.8H942.708V36.688H929.388V43.42ZM957.514 36.688H951.07V46.12H957.514C959.026 46.12 960.298 45.664 961.33 44.752C962.362 43.84 962.878 42.7 962.878 41.332C962.878 39.988 962.362 38.884 961.33 38.02C960.322 37.132 959.05 36.688 957.514 36.688ZM957.514 50.008H951.07V58H947.11V32.8H957.874C960.442 32.8 962.578 33.616 964.282 35.248C965.986 36.856 966.838 38.884 966.838 41.332C966.838 43.756 965.926 45.808 964.102 47.488C962.302 49.168 960.106 50.008 957.514 50.008ZM989.727 32.8V36.688H981.807V58H977.847V36.688H969.927V32.8H989.727ZM997.702 43.42H1010.16V47.308H997.702V54.112H1011.02V58H993.742V32.8H1011.02V36.688H997.702V43.42ZM1044.96 32.8V36.688H1037.04V58H1033.08V36.688H1025.16V32.8H1044.96ZM1048.98 58V32.8H1052.94V43.42H1065.9V32.8H1069.86V58H1065.9V47.308H1052.94V58H1048.98ZM1078.87 43.42H1091.33V47.308H1078.87V54.112H1092.19V58H1074.91V32.8H1092.19V36.688H1078.87V43.42ZM1130.33 36.688H1122.12V43.456H1130.51C1131.47 43.456 1132.27 43.108 1132.92 42.412C1133.59 41.692 1133.93 40.816 1133.93 39.784C1133.93 38.872 1133.58 38.128 1132.89 37.552C1132.21 36.976 1131.36 36.688 1130.33 36.688ZM1130.51 47.272H1122.12V54.112H1130.69C1131.72 54.112 1132.57 53.812 1133.25 53.212C1133.94 52.588 1134.29 51.832 1134.29 50.944C1134.29 49.888 1133.93 49.012 1133.21 48.316C1132.49 47.62 1131.59 47.272 1130.51 47.272ZM1131.09 58H1118.16V32.8H1130.73C1132.79 32.8 1134.49 33.412 1135.84 34.636C1137.21 35.86 1137.89 37.408 1137.89 39.28C1137.89 40.552 1137.59 41.728 1136.99 42.808C1136.39 43.864 1135.57 44.68 1134.54 45.256C1135.69 45.832 1136.59 46.672 1137.24 47.776C1137.91 48.856 1138.25 50.056 1138.25 51.376C1138.25 53.272 1137.57 54.856 1136.2 56.128C1134.83 57.376 1133.13 58 1131.09 58ZM1146.72 43.42H1159.18V47.308H1146.72V54.112H1160.04V58H1142.76V32.8H1160.04V36.688H1146.72V43.42ZM1169.23 48.064H1183.63V51.808H1169.23V48.064ZM1168.08 58H1163.54L1173.84 32.8H1179.02L1189.39 58H1184.85L1176.5 36.904L1168.08 58ZM1206.95 32.8V36.688H1199.03V58H1195.07V36.688H1187.15V32.8H1206.95ZM1214.93 54.112H1228.25V58H1210.97V32.8H1214.93V54.112ZM1236.22 43.42H1248.68V47.308H1236.22V54.112H1249.54V58H1232.26V32.8H1249.54V36.688H1236.22V43.42ZM1262.26 47.344C1259.41 46.816 1257.23 45.904 1255.75 44.608C1254.26 43.288 1253.51 41.632 1253.51 39.64C1253.51 37.528 1254.31 35.788 1255.89 34.42C1257.47 33.028 1259.49 32.332 1261.94 32.332C1264.07 32.332 1265.99 32.896 1267.7 34.024C1269.43 35.152 1270.67 36.664 1271.44 38.56L1267.66 40C1267.18 38.8 1266.44 37.852 1265.43 37.156C1264.42 36.46 1263.29 36.112 1262.05 36.112C1260.75 36.112 1259.68 36.436 1258.84 37.084C1258.03 37.732 1257.62 38.56 1257.62 39.568C1257.62 40.504 1258.04 41.272 1258.88 41.872C1259.72 42.448 1261.07 42.928 1262.95 43.312C1265.75 43.864 1267.91 44.824 1269.43 46.192C1270.96 47.536 1271.73 49.18 1271.73 51.124C1271.73 53.236 1270.9 54.976 1269.25 56.344C1267.61 57.712 1265.53 58.396 1262.98 58.396C1260.8 58.396 1258.82 57.844 1257.04 56.74C1255.29 55.612 1254.02 54.112 1253.23 52.24L1257.01 50.404C1257.53 51.7 1258.31 52.732 1259.35 53.5C1260.4 54.244 1261.58 54.616 1262.87 54.616C1264.24 54.616 1265.37 54.28 1266.26 53.608C1267.15 52.912 1267.59 52.06 1267.59 51.052C1267.59 50.116 1267.16 49.36 1266.29 48.784C1265.43 48.184 1264.09 47.704 1262.26 47.344ZM1275.26 55.696C1275.26 54.88 1275.52 54.196 1276.05 53.644C1276.58 53.092 1277.24 52.816 1278.03 52.816C1278.87 52.816 1279.57 53.092 1280.12 53.644C1280.67 54.196 1280.95 54.88 1280.95 55.696C1280.95 56.512 1280.67 57.196 1280.12 57.748C1279.59 58.276 1278.92 58.54 1278.1 58.54C1277.29 58.54 1276.6 58.276 1276.05 57.748C1275.52 57.196 1275.26 56.512 1275.26 55.696ZM1295.61 32.8H1316.85V58H1312.89V36.508H1299.57V58H1295.61V32.8ZM1342.78 58H1338.82V38.848L1326.51 58H1321.9V32.8H1325.86V51.772L1338.17 32.8H1342.78V58ZM1358.24 36.688H1351.79V46.12H1358.24C1359.75 46.12 1361.02 45.664 1362.05 44.752C1363.09 43.84 1363.6 42.7 1363.6 41.332C1363.6 39.988 1363.09 38.884 1362.05 38.02C1361.05 37.132 1359.77 36.688 1358.24 36.688ZM1358.24 50.008H1351.79V58H1347.83V32.8H1358.6C1361.17 32.8 1363.3 33.616 1365.01 35.248C1366.71 36.856 1367.56 38.884 1367.56 41.332C1367.56 43.756 1366.65 45.808 1364.83 47.488C1363.03 49.168 1360.83 50.008 1358.24 50.008ZM1376.48 48.064H1390.88V51.808H1376.48V48.064ZM1375.33 58H1370.8L1381.09 32.8H1386.28L1396.64 58H1392.11L1383.76 36.904L1375.33 58ZM1400.58 58V32.8H1405.26L1413.83 48.82L1422.4 32.8H1427.08V58H1423.12V39.208L1415.2 54.076H1412.5L1404.54 39.208V58H1400.58ZM1452.81 58H1448.85V38.848L1436.54 58H1431.93V32.8H1435.89V51.772L1448.21 32.8H1452.81V58ZM1456.9 54.292H1482.96V62.176H1479V58H1460.86V62.176H1456.9V54.292ZM1458.12 54.292C1459.83 54.292 1461.13 53.752 1462.05 52.672C1462.98 51.568 1463.45 50.164 1463.45 48.46V32.8H1480.01V57.964H1476.05V36.688H1467.41V48.964C1467.41 51.148 1466.57 53.044 1464.89 54.652C1463.23 56.26 1461.1 57.064 1458.48 57.064H1457.4L1456.9 54.292H1458.12ZM1509.99 36.688H1501.78V43.456H1510.17C1511.13 43.456 1511.93 43.108 1512.58 42.412C1513.25 41.692 1513.59 40.816 1513.59 39.784C1513.59 38.872 1513.24 38.128 1512.55 37.552C1511.87 36.976 1511.02 36.688 1509.99 36.688ZM1510.17 47.272H1501.78V54.112H1510.35C1511.38 54.112 1512.23 53.812 1512.91 53.212C1513.6 52.588 1513.95 51.832 1513.95 50.944C1513.95 49.888 1513.59 49.012 1512.87 48.316C1512.15 47.62 1511.25 47.272 1510.17 47.272ZM1510.75 58H1497.82V32.8H1510.39C1512.45 32.8 1514.15 33.412 1515.5 34.636C1516.87 35.86 1517.55 37.408 1517.55 39.28C1517.55 40.552 1517.25 41.728 1516.65 42.808C1516.05 43.864 1515.23 44.68 1514.2 45.256C1515.35 45.832 1516.25 46.672 1516.9 47.776C1517.57 48.856 1517.91 50.056 1517.91 51.376C1517.91 53.272 1517.23 54.856 1515.86 56.128C1514.49 57.376 1512.79 58 1510.75 58ZM1532.23 54.292H1558.3V62.176H1554.34V58H1536.19V62.176H1532.23V54.292ZM1533.46 54.292C1535.16 54.292 1536.47 53.752 1537.38 52.672C1538.32 51.568 1538.78 50.164 1538.78 48.46V32.8H1555.34V57.964H1551.38V36.688H1542.74V48.964C1542.74 51.148 1541.9 53.044 1540.22 54.652C1538.57 56.26 1536.43 57.064 1533.82 57.064H1532.74L1532.23 54.292H1533.46ZM1572.78 36.688H1566.33V46.12H1572.78C1574.29 46.12 1575.56 45.664 1576.59 44.752C1577.63 43.84 1578.14 42.7 1578.14 41.332C1578.14 39.988 1577.63 38.884 1576.59 38.02C1575.59 37.132 1574.31 36.688 1572.78 36.688ZM1572.78 50.008H1566.33V58H1562.37V32.8H1573.14C1575.71 32.8 1577.84 33.616 1579.55 35.248C1581.25 36.856 1582.1 38.884 1582.1 41.332C1582.1 43.756 1581.19 45.808 1579.37 47.488C1577.57 49.168 1575.37 50.008 1572.78 50.008ZM1590.2 43.42H1602.65V47.308H1590.2V54.112H1603.52V58H1586.24V32.8H1603.52V36.688H1590.2V43.42ZM1620.09 36.688H1611.88V43.456H1620.27C1621.23 43.456 1622.03 43.108 1622.68 42.412C1623.35 41.692 1623.69 40.816 1623.69 39.784C1623.69 38.872 1623.34 38.128 1622.64 37.552C1621.97 36.976 1621.12 36.688 1620.09 36.688ZM1620.27 47.272H1611.88V54.112H1620.45C1621.48 54.112 1622.33 53.812 1623 53.212C1623.7 52.588 1624.05 51.832 1624.05 50.944C1624.05 49.888 1623.69 49.012 1622.97 48.316C1622.25 47.62 1621.35 47.272 1620.27 47.272ZM1620.84 58H1607.92V32.8H1620.48C1622.55 32.8 1624.25 33.412 1625.59 34.636C1626.96 35.86 1627.65 37.408 1627.65 39.28C1627.65 40.552 1627.35 41.728 1626.75 42.808C1626.15 43.864 1625.33 44.68 1624.3 45.256C1625.45 45.832 1626.35 46.672 1627 47.776C1627.67 48.856 1628.01 50.056 1628.01 51.376C1628.01 53.272 1627.32 54.856 1625.95 56.128C1624.59 57.376 1622.88 58 1620.84 58ZM1632.52 58V32.8H1636.48V43.42H1649.44V32.8H1653.4V58H1649.44V47.308H1636.48V58H1632.52ZM1662.41 43.42H1674.87V47.308H1662.41V54.112H1675.73V58H1658.45V32.8H1675.73V36.688H1662.41V43.42ZM1679.95 58V32.8H1684.63L1693.2 48.82L1701.77 32.8H1706.45V58H1702.49V39.208L1694.57 54.076H1691.87L1683.91 39.208V58H1679.95ZM1726.05 43.42H1738.51V47.308H1726.05V54.112H1739.37V58H1722.09V32.8H1739.37V36.688H1726.05V43.42ZM1743.77 58V32.8H1761.41V36.508H1747.73V58H1743.77ZM1786.44 58H1782.48V38.848L1770.17 58H1765.56V32.8H1769.52V51.772L1781.83 32.8H1786.44V58ZM1791.5 32.8H1812.74V58H1808.78V36.508H1795.46V58H1791.5V32.8ZM1836.54 32.8V36.688H1828.62V58H1824.66V36.688H1816.74V32.8H1836.54ZM1844.51 43.42H1856.97V47.308H1844.51V54.112H1857.83V58H1840.55V32.8H1857.83V36.688H1844.51V43.42ZM1863.06 53.32L1867.1 54.04L1864.9 63.616L1861.62 63.04L1863.06 53.32ZM1911.69 32.8V36.688H1903.77V58H1899.81V36.688H1891.89V32.8H1911.69ZM1920.49 48.064H1934.89V51.808H1920.49V48.064ZM1919.34 58H1914.8L1925.1 32.8H1930.28L1940.65 58H1936.12L1927.76 36.904L1919.34 58ZM1944.77 58V32.8H1948.73V43.456H1949.88L1959.67 32.8H1964.86L1953.3 45.436L1964.86 58H1959.67L1949.88 47.524H1948.73V58H1944.77ZM2000.57 58H1996.61V38.848L1984.3 58H1979.69V32.8H1983.65V51.772L1995.97 32.8H2000.57V58ZM2016.41 58V32.8H2020.37V43.42H2033.33V32.8H2037.29V58H2033.33V47.308H2020.37V58H2016.41ZM2047.14 48.064H2061.54V51.808H2047.14V48.064ZM2045.98 58H2041.45L2051.74 32.8H2056.93L2067.3 58H2062.76L2054.41 36.904L2045.98 58ZM2092.98 58V32.8H2096.94V43.456H2098.09L2107.88 32.8H2113.07L2101.51 45.436L2113.07 58H2107.88L2098.09 47.524H2096.94V58H2092.98ZM2120.36 45.292C2120.36 48.028 2121.22 50.284 2122.95 52.06C2124.68 53.812 2126.8 54.688 2129.32 54.688C2131.84 54.688 2133.97 53.812 2135.7 52.06C2137.42 50.284 2138.29 48.028 2138.29 45.292C2138.29 42.604 2137.42 40.396 2135.7 38.668C2133.97 36.916 2131.84 36.04 2129.32 36.04C2126.8 36.04 2124.68 36.916 2122.95 38.668C2121.22 40.396 2120.36 42.604 2120.36 45.292ZM2116.4 45.292C2116.4 41.452 2117.65 38.296 2120.14 35.824C2122.64 33.328 2125.7 32.08 2129.32 32.08C2132.95 32.08 2136.01 33.328 2138.5 35.824C2141 38.296 2142.25 41.452 2142.25 45.292C2142.25 49.156 2141 52.348 2138.5 54.868C2136.01 57.388 2132.95 58.648 2129.32 58.648C2125.7 58.648 2122.64 57.388 2120.14 54.868C2117.65 52.348 2116.4 49.156 2116.4 45.292ZM2146.57 58V32.8H2150.53V43.42H2163.49V32.8H2167.45V58H2163.49V47.308H2150.53V58H2146.57ZM2192.49 54.112H2195.91V62.536H2191.95V58H2172.51V32.8H2176.47V54.112H2188.53V32.8H2192.49V54.112ZM2204.02 43.42H2216.48V47.308H2204.02V54.112H2217.34V58H2200.06V32.8H2217.34V36.688H2204.02V43.42ZM2232.15 36.688H2225.7V46.12H2232.15C2233.66 46.12 2234.93 45.664 2235.96 44.752C2236.99 43.84 2237.51 42.7 2237.51 41.332C2237.51 39.988 2236.99 38.884 2235.96 38.02C2234.95 37.132 2233.68 36.688 2232.15 36.688ZM2232.15 50.008H2225.7V58H2221.74V32.8H2232.51C2235.07 32.8 2237.21 33.616 2238.91 35.248C2240.62 36.856 2241.47 38.884 2241.47 41.332C2241.47 43.756 2240.56 45.808 2238.73 47.488C2236.93 49.168 2234.74 50.008 2232.15 50.008ZM2264.36 32.8V36.688H2256.44V58H2252.48V36.688H2244.56V32.8H2264.36ZM2272.33 43.42H2284.79V47.308H2272.33V54.112H2285.65V58H2268.37V32.8H2285.65V36.688H2272.33V43.42ZM2319.59 32.8V36.688H2311.67V58H2307.71V36.688H2299.79V32.8H2319.59ZM2323.61 58V32.8H2327.57V43.42H2340.53V32.8H2344.49V58H2340.53V47.308H2327.57V58H2323.61ZM2353.51 43.42H2365.96V47.308H2353.51V54.112H2366.83V58H2349.55V32.8H2366.83V36.688H2353.51V43.42ZM2404.96 36.688H2396.75V43.456H2405.14C2406.1 43.456 2406.91 43.108 2407.55 42.412C2408.23 41.692 2408.56 40.816 2408.56 39.784C2408.56 38.872 2408.21 38.128 2407.52 37.552C2406.85 36.976 2405.99 36.688 2404.96 36.688ZM2405.14 47.272H2396.75V54.112H2405.32C2406.35 54.112 2407.21 53.812 2407.88 53.212C2408.57 52.588 2408.92 51.832 2408.92 50.944C2408.92 49.888 2408.56 49.012 2407.84 48.316C2407.12 47.62 2406.22 47.272 2405.14 47.272ZM2405.72 58H2392.79V32.8H2405.36C2407.42 32.8 2409.13 33.412 2410.47 34.636C2411.84 35.86 2412.52 37.408 2412.52 39.28C2412.52 40.552 2412.22 41.728 2411.62 42.808C2411.02 43.864 2410.21 44.68 2409.17 45.256C2410.33 45.832 2411.23 46.672 2411.87 47.776C2412.55 48.856 2412.88 50.056 2412.88 51.376C2412.88 53.272 2412.2 54.856 2410.83 56.128C2409.46 57.376 2407.76 58 2405.72 58ZM2421.35 43.42H2433.81V47.308H2421.35V54.112H2434.67V58H2417.39V32.8H2434.67V36.688H2421.35V43.42ZM2443.86 48.064H2458.26V51.808H2443.86V48.064ZM2442.71 58H2438.17L2448.47 32.8H2453.65L2464.02 58H2459.49L2451.13 36.904L2442.71 58ZM2481.59 32.8V36.688H2473.67V58H2469.71V36.688H2461.79V32.8H2481.59ZM2489.56 54.112H2502.88V58H2485.6V32.8H2489.56V54.112ZM2510.86 43.42H2523.31V47.308H2510.86V54.112H2524.18V58H2506.9V32.8H2524.18V36.688H2510.86V43.42ZM2536.89 47.344C2534.04 46.816 2531.87 45.904 2530.38 44.608C2528.89 43.288 2528.15 41.632 2528.15 39.64C2528.15 37.528 2528.94 35.788 2530.52 34.42C2532.11 33.028 2534.12 32.332 2536.57 32.332C2538.71 32.332 2540.63 32.896 2542.33 34.024C2544.06 35.152 2545.31 36.664 2546.07 38.56L2542.29 40C2541.81 38.8 2541.07 37.852 2540.06 37.156C2539.05 36.46 2537.93 36.112 2536.68 36.112C2535.38 36.112 2534.31 36.436 2533.47 37.084C2532.66 37.732 2532.25 38.56 2532.25 39.568C2532.25 40.504 2532.67 41.272 2533.51 41.872C2534.35 42.448 2535.71 42.928 2537.58 43.312C2540.39 43.864 2542.55 44.824 2544.06 46.192C2545.59 47.536 2546.36 49.18 2546.36 51.124C2546.36 53.236 2545.53 54.976 2543.88 56.344C2542.25 57.712 2540.16 58.396 2537.61 58.396C2535.43 58.396 2533.45 57.844 2531.67 56.74C2529.92 55.612 2528.65 54.112 2527.86 52.24L2531.64 50.404C2532.17 51.7 2532.95 52.732 2533.98 53.5C2535.03 54.244 2536.21 54.616 2537.51 54.616C2538.87 54.616 2540 54.28 2540.89 53.608C2541.78 52.912 2542.22 52.06 2542.22 51.052C2542.22 50.116 2541.79 49.36 2540.93 48.784C2540.06 48.184 2538.72 47.704 2536.89 47.344ZM2549.89 55.696C2549.89 54.88 2550.15 54.196 2550.68 53.644C2551.21 53.092 2551.87 52.816 2552.66 52.816C2553.5 52.816 2554.2 53.092 2554.75 53.644C2555.3 54.196 2555.58 54.88 2555.58 55.696C2555.58 56.512 2555.3 57.196 2554.75 57.748C2554.22 58.276 2553.55 58.54 2552.73 58.54C2551.92 58.54 2551.23 58.276 2550.68 57.748C2550.15 57.196 2549.89 56.512 2549.89 55.696Z" fill="#245BC6"/>
</g>
<defs>
<clipPath id="clip0_250_3399">
<rect width="2468" height="91" fill="white"/>
</clipPath>
</defs>
</svg>
