<svg width="2468" height="92" viewBox="0 0 2468 92" fill="none" xmlns="http://www.w3.org/2000/svg">
<g clip-path="url(#clip0_250_3392)">
<rect width="2468" height="92" fill="white"/>
<path d="M20.98 59V33.8H38.62V37.508H24.94V59H20.98ZM41.795 55.292H67.859V63.176H63.899V59H45.755V63.176H41.795V55.292ZM43.019 55.292C44.723 55.292 46.031 54.752 46.943 53.672C47.879 52.568 48.347 51.164 48.347 49.46V33.8H64.907V58.964H60.947V37.688H52.307V49.964C52.307 52.148 51.467 54.044 49.787 55.652C48.131 57.26 45.995 58.064 43.379 58.064H42.299L41.795 55.292H43.019ZM75.8969 44.42H88.3529V48.308H75.8969V55.112H89.2169V59H71.9369V33.8H89.2169V37.688H75.8969V44.42ZM104.402 59V33.8H108.362V44.456H109.514L119.306 33.8H124.49L112.934 46.436L124.49 59H119.306L109.514 48.524H108.362V59H104.402ZM133.332 49.064H147.732V52.808H133.332V49.064ZM132.18 59H127.644L137.94 33.8H143.124L153.492 59H148.956L140.604 37.904L132.18 59ZM171.18 33.8H175.14V44.348H177.588L185.148 33.8H189.684L180.684 46.328L189.684 59H185.148L177.588 48.416H175.14V59H171.18V48.416H168.804L161.028 59H156.708L165.708 46.436L156.708 33.8H161.028L168.804 44.348H171.18V33.8ZM192.802 55.292H218.866V63.176H214.906V59H196.762V63.176H192.802V55.292ZM194.026 55.292C195.73 55.292 197.038 54.752 197.95 53.672C198.886 52.568 199.354 51.164 199.354 49.46V33.8H215.914V58.964H211.954V37.688H203.314V49.964C203.314 52.148 202.474 54.044 200.794 55.652C199.138 57.26 197.002 58.064 194.386 58.064H193.306L192.802 55.292H194.026ZM248.756 59H244.796V33.8H248.756V59ZM226.904 33.8V43.592H233.708C235.964 43.592 237.872 44.336 239.432 45.824C240.992 47.312 241.772 49.136 241.772 51.296C241.772 53.504 241.04 55.34 239.576 56.804C238.112 58.268 236.276 59 234.068 59H222.944V33.8H226.904ZM233.708 55.112C234.884 55.112 235.856 54.752 236.624 54.032C237.416 53.288 237.812 52.376 237.812 51.296C237.812 50.216 237.416 49.316 236.624 48.596C235.856 47.852 234.884 47.48 233.708 47.48H226.904V55.112H233.708ZM264.386 30.812C262.586 30.812 261.05 30.236 259.778 29.084C258.53 27.908 257.906 26.48 257.906 24.8H261.038C261.038 25.712 261.35 26.468 261.974 27.068C262.622 27.644 263.438 27.932 264.422 27.932C265.43 27.932 266.282 27.632 266.978 27.032C267.674 26.408 268.022 25.664 268.022 24.8H271.154C271.154 26.408 270.482 27.812 269.138 29.012C267.794 30.212 266.21 30.812 264.386 30.812ZM274.682 59H270.722V39.848L258.41 59H253.802V33.8H257.762V52.772L270.074 33.8H274.682V59ZM290.34 59V33.8H295.02L303.588 49.82L312.156 33.8H316.836V59H312.876V40.208L304.956 55.076H302.256L294.3 40.208V59H290.34ZM324.934 46.292C324.934 49.028 325.798 51.284 327.526 53.06C329.254 54.812 331.378 55.688 333.898 55.688C336.418 55.688 338.542 54.812 340.27 53.06C341.998 51.284 342.862 49.028 342.862 46.292C342.862 43.604 341.998 41.396 340.27 39.668C338.542 37.916 336.418 37.04 333.898 37.04C331.378 37.04 329.254 37.916 327.526 39.668C325.798 41.396 324.934 43.604 324.934 46.292ZM320.974 46.292C320.974 42.452 322.222 39.296 324.718 36.824C327.214 34.328 330.274 33.08 333.898 33.08C337.522 33.08 340.582 34.328 343.078 36.824C345.574 39.296 346.822 42.452 346.822 46.292C346.822 50.156 345.574 53.348 343.078 55.868C340.582 58.388 337.522 59.648 333.898 59.648C330.274 59.648 327.214 58.388 324.718 55.868C322.222 53.348 320.974 50.156 320.974 46.292ZM364.717 33.8H368.677V44.348H371.125L378.685 33.8H383.221L374.221 46.328L383.221 59H378.685L371.125 48.416H368.677V59H364.717V48.416H362.341L354.565 59H350.245L359.245 46.436L350.245 33.8H354.565L362.341 44.348H364.717V33.8ZM391.271 44.42H403.727V48.308H391.271V55.112H404.591V59H387.311V33.8H404.591V37.688H391.271V44.42ZM427.749 33.8V37.688H419.829V59H415.869V37.688H407.949V33.8H427.749ZM443.555 53.168C442.403 51.128 441.827 48.86 441.827 46.364C441.827 43.868 442.403 41.6 443.555 39.56C444.707 37.52 446.279 35.936 448.271 34.808C450.263 33.656 452.459 33.08 454.859 33.08C457.547 33.08 459.983 33.8 462.167 35.24C464.351 36.68 466.007 38.636 467.135 41.108L463.247 42.548C462.479 40.844 461.339 39.5 459.827 38.516C458.339 37.532 456.683 37.04 454.859 37.04C452.315 37.04 450.167 37.928 448.415 39.704C446.663 41.456 445.787 43.676 445.787 46.364C445.787 49.052 446.663 51.284 448.415 53.06C450.167 54.812 452.315 55.688 454.859 55.688C456.731 55.688 458.423 55.172 459.935 54.14C461.471 53.084 462.623 51.656 463.391 49.856L467.315 51.26C466.235 53.828 464.579 55.868 462.347 57.38C460.115 58.892 457.619 59.648 454.859 59.648C452.459 59.648 450.263 59.084 448.271 57.956C446.279 56.804 444.707 55.208 443.555 53.168ZM490.403 33.8V37.688H482.483V59H478.523V37.688H470.603V33.8H490.403ZM499.206 49.064H513.606V52.808H499.206V49.064ZM498.054 59H493.518L503.814 33.8H508.998L519.366 59H514.83L506.478 37.904L498.054 59ZM542.238 33.8V37.688H534.318V59H530.358V37.688H522.438V33.8H542.238ZM550.214 33.8V43.592H559.178C561.434 43.592 563.342 44.336 564.902 45.824C566.462 47.312 567.242 49.136 567.242 51.296C567.242 53.504 566.51 55.34 565.046 56.804C563.582 58.268 561.746 59 559.538 59H546.254V33.8H550.214ZM559.178 55.112C560.354 55.112 561.326 54.752 562.094 54.032C562.886 53.288 563.282 52.376 563.282 51.296C563.282 50.216 562.886 49.316 562.094 48.596C561.326 47.852 560.354 47.48 559.178 47.48H550.214V55.112H559.178ZM583.418 53.168C582.266 51.128 581.69 48.86 581.69 46.364C581.69 43.868 582.266 41.6 583.418 39.56C584.57 37.52 586.142 35.936 588.134 34.808C590.126 33.656 592.322 33.08 594.722 33.08C597.41 33.08 599.846 33.8 602.03 35.24C604.214 36.68 605.87 38.636 606.998 41.108L603.11 42.548C602.342 40.844 601.202 39.5 599.69 38.516C598.202 37.532 596.546 37.04 594.722 37.04C592.178 37.04 590.03 37.928 588.278 39.704C586.526 41.456 585.65 43.676 585.65 46.364C585.65 49.052 586.526 51.284 588.278 53.06C590.03 54.812 592.178 55.688 594.722 55.688C596.594 55.688 598.286 55.172 599.798 54.14C601.334 53.084 602.486 51.656 603.254 49.856L607.178 51.26C606.098 53.828 604.442 55.868 602.21 57.38C599.978 58.892 597.482 59.648 594.722 59.648C592.322 59.648 590.126 59.084 588.134 57.956C586.142 56.804 584.57 55.208 583.418 53.168ZM623.677 37.688H615.469V44.456H623.857C624.817 44.456 625.621 44.108 626.269 43.412C626.941 42.692 627.277 41.816 627.277 40.784C627.277 39.872 626.929 39.128 626.233 38.552C625.561 37.976 624.709 37.688 623.677 37.688ZM623.857 48.272H615.469V55.112H624.037C625.069 55.112 625.921 54.812 626.593 54.212C627.289 53.588 627.637 52.832 627.637 51.944C627.637 50.888 627.277 50.012 626.557 49.316C625.837 48.62 624.937 48.272 623.857 48.272ZM624.433 59H611.509V33.8H624.073C626.137 33.8 627.841 34.412 629.185 35.636C630.553 36.86 631.237 38.408 631.237 40.28C631.237 41.552 630.937 42.728 630.337 43.808C629.737 44.864 628.921 45.68 627.889 46.256C629.041 46.832 629.941 47.672 630.589 48.776C631.261 49.856 631.597 51.056 631.597 52.376C631.597 54.272 630.913 55.856 629.545 57.128C628.177 58.376 626.473 59 624.433 59ZM656.989 59H653.029V39.848L640.717 59H636.109V33.8H640.069V52.772L652.381 33.8H656.989V59ZM661.072 55.292H687.136V63.176H683.176V59H665.032V63.176H661.072V55.292ZM662.296 55.292C664 55.292 665.308 54.752 666.22 53.672C667.156 52.568 667.624 51.164 667.624 49.46V33.8H684.184V58.964H680.224V37.688H671.584V49.964C671.584 52.148 670.744 54.044 669.064 55.652C667.408 57.26 665.272 58.064 662.656 58.064H661.576L661.072 55.292H662.296ZM695.174 44.42H707.63V48.308H695.174V55.112H708.494V59H691.214V33.8H708.494V37.688H695.174V44.42ZM731.652 33.8V37.688H723.732V59H719.772V37.688H711.852V33.8H731.652ZM739.627 44.42H752.083V48.308H739.627V55.112H752.947V59H735.667V33.8H752.947V37.688H739.627V44.42ZM757.385 55.292C759.041 55.292 760.313 54.776 761.201 53.744C762.113 52.712 762.569 51.404 762.569 49.82V33.8H778.769V59H774.809V37.508H766.529V50.684C766.529 52.94 765.725 54.896 764.117 56.552C762.533 58.184 760.481 59 757.961 59H756.521V55.292H757.385ZM787.736 44.42H800.192V48.308H787.736V55.112H801.056V59H783.776V33.8H801.056V37.688H787.736V44.42ZM805.278 59V33.8H809.958L818.526 49.82L827.094 33.8H831.774V59H827.814V40.208L819.894 55.076H817.194L809.238 40.208V59H805.278ZM847.415 33.8H868.655V59H864.695V37.508H851.375V59H847.415V33.8ZM884.106 37.688H877.662V47.12H884.106C885.618 47.12 886.89 46.664 887.922 45.752C888.954 44.84 889.47 43.7 889.47 42.332C889.47 40.988 888.954 39.884 887.922 39.02C886.914 38.132 885.642 37.688 884.106 37.688ZM884.106 51.008H877.662V59H873.702V33.8H884.466C887.034 33.8 889.17 34.616 890.874 36.248C892.578 37.856 893.43 39.884 893.43 42.332C893.43 44.756 892.518 46.808 890.694 48.488C888.894 50.168 886.698 51.008 884.106 51.008ZM900.803 46.292C900.803 49.028 901.667 51.284 903.395 53.06C905.123 54.812 907.247 55.688 909.767 55.688C912.287 55.688 914.411 54.812 916.139 53.06C917.867 51.284 918.731 49.028 918.731 46.292C918.731 43.604 917.867 41.396 916.139 39.668C914.411 37.916 912.287 37.04 909.767 37.04C907.247 37.04 905.123 37.916 903.395 39.668C901.667 41.396 900.803 43.604 900.803 46.292ZM896.843 46.292C896.843 42.452 898.091 39.296 900.587 36.824C903.083 34.328 906.143 33.08 909.767 33.08C913.391 33.08 916.451 34.328 918.947 36.824C921.443 39.296 922.691 42.452 922.691 46.292C922.691 50.156 921.443 53.348 918.947 55.868C916.451 58.388 913.391 59.648 909.767 59.648C906.143 59.648 903.083 58.388 900.587 55.868C898.091 53.348 896.843 50.156 896.843 46.292ZM957.614 59H927.014V33.8H930.974V55.112H940.406V33.8H944.366V55.112H953.654V33.8H957.614V59ZM962.689 55.292C964.345 55.292 965.617 54.776 966.505 53.744C967.417 52.712 967.873 51.404 967.873 49.82V33.8H984.073V59H980.113V37.508H971.833V50.684C971.833 52.94 971.029 54.896 969.421 56.552C967.837 58.184 965.785 59 963.265 59H961.825V55.292H962.689ZM992.32 46.292C992.32 49.028 993.184 51.284 994.912 53.06C996.64 54.812 998.764 55.688 1001.28 55.688C1003.8 55.688 1005.93 54.812 1007.66 53.06C1009.38 51.284 1010.25 49.028 1010.25 46.292C1010.25 43.604 1009.38 41.396 1007.66 39.668C1005.93 37.916 1003.8 37.04 1001.28 37.04C998.764 37.04 996.64 37.916 994.912 39.668C993.184 41.396 992.32 43.604 992.32 46.292ZM988.36 46.292C988.36 42.452 989.608 39.296 992.104 36.824C994.6 34.328 997.66 33.08 1001.28 33.08C1004.91 33.08 1007.97 34.328 1010.46 36.824C1012.96 39.296 1014.21 42.452 1014.21 46.292C1014.21 50.156 1012.96 53.348 1010.46 55.868C1007.97 58.388 1004.91 59.648 1001.28 59.648C997.66 59.648 994.6 58.388 992.104 55.868C989.608 53.348 988.36 50.156 988.36 46.292ZM1018.53 59V33.8H1036.17V37.508H1022.49V59H1018.53ZM1043.56 46.292C1043.56 49.028 1044.42 51.284 1046.15 53.06C1047.88 54.812 1050 55.688 1052.52 55.688C1055.04 55.688 1057.17 54.812 1058.89 53.06C1060.62 51.284 1061.49 49.028 1061.49 46.292C1061.49 43.604 1060.62 41.396 1058.89 39.668C1057.17 37.916 1055.04 37.04 1052.52 37.04C1050 37.04 1047.88 37.916 1046.15 39.668C1044.42 41.396 1043.56 43.604 1043.56 46.292ZM1039.6 46.292C1039.6 42.452 1040.85 39.296 1043.34 36.824C1045.84 34.328 1048.9 33.08 1052.52 33.08C1056.15 33.08 1059.21 34.328 1061.7 36.824C1064.2 39.296 1065.45 42.452 1065.45 46.292C1065.45 50.156 1064.2 53.348 1061.7 55.868C1059.21 58.388 1056.15 59.648 1052.52 59.648C1048.9 59.648 1045.84 58.388 1043.34 55.868C1040.85 53.348 1039.6 50.156 1039.6 46.292ZM1068.98 56.696C1068.98 55.88 1069.24 55.196 1069.77 54.644C1070.3 54.092 1070.96 53.816 1071.75 53.816C1072.59 53.816 1073.29 54.092 1073.84 54.644C1074.39 55.196 1074.67 55.88 1074.67 56.696C1074.67 57.512 1074.39 58.196 1073.84 58.748C1073.31 59.276 1072.64 59.54 1071.82 59.54C1071.01 59.54 1070.32 59.276 1069.77 58.748C1069.24 58.196 1068.98 57.512 1068.98 56.696ZM1090.34 53.168C1089.19 51.128 1088.61 48.86 1088.61 46.364C1088.61 43.868 1089.19 41.6 1090.34 39.56C1091.49 37.52 1093.06 35.936 1095.06 34.808C1097.05 33.656 1099.24 33.08 1101.64 33.08C1104.33 33.08 1106.77 33.8 1108.95 35.24C1111.14 36.68 1112.79 38.636 1113.92 41.108L1110.03 42.548C1109.26 40.844 1108.12 39.5 1106.61 38.516C1105.12 37.532 1103.47 37.04 1101.64 37.04C1099.1 37.04 1096.95 37.928 1095.2 39.704C1093.45 41.456 1092.57 43.676 1092.57 46.364C1092.57 49.052 1093.45 51.284 1095.2 53.06C1096.95 54.812 1099.1 55.688 1101.64 55.688C1103.52 55.688 1105.21 55.172 1106.72 54.14C1108.26 53.084 1109.41 51.656 1110.18 49.856L1114.1 51.26C1113.02 53.828 1111.36 55.868 1109.13 57.38C1106.9 58.892 1104.4 59.648 1101.64 59.648C1099.24 59.648 1097.05 59.084 1095.06 57.956C1093.06 56.804 1091.49 55.208 1090.34 53.168ZM1122.39 44.42H1134.85V48.308H1122.39V55.112H1135.71V59H1118.43V33.8H1135.71V37.688H1122.39V44.42ZM1150.52 37.688H1144.07V47.12H1150.52C1152.03 47.12 1153.3 46.664 1154.33 45.752C1155.37 44.84 1155.88 43.7 1155.88 42.332C1155.88 40.988 1155.37 39.884 1154.33 39.02C1153.33 38.132 1152.05 37.688 1150.52 37.688ZM1150.52 51.008H1144.07V59H1140.11V33.8H1150.88C1153.45 33.8 1155.58 34.616 1157.29 36.248C1158.99 37.856 1159.84 39.884 1159.84 42.332C1159.84 44.756 1158.93 46.808 1157.11 48.488C1155.31 50.168 1153.11 51.008 1150.52 51.008ZM1176.14 37.688H1167.93V44.456H1176.32C1177.28 44.456 1178.09 44.108 1178.73 43.412C1179.41 42.692 1179.74 41.816 1179.74 40.784C1179.74 39.872 1179.39 39.128 1178.7 38.552C1178.03 37.976 1177.17 37.688 1176.14 37.688ZM1176.32 48.272H1167.93V55.112H1176.5C1177.53 55.112 1178.39 54.812 1179.06 54.212C1179.75 53.588 1180.1 52.832 1180.1 51.944C1180.1 50.888 1179.74 50.012 1179.02 49.316C1178.3 48.62 1177.4 48.272 1176.32 48.272ZM1176.9 59H1163.97V33.8H1176.54C1178.6 33.8 1180.31 34.412 1181.65 35.636C1183.02 36.86 1183.7 38.408 1183.7 40.28C1183.7 41.552 1183.4 42.728 1182.8 43.808C1182.2 44.864 1181.39 45.68 1180.35 46.256C1181.51 46.832 1182.41 47.672 1183.05 48.776C1183.73 49.856 1184.06 51.056 1184.06 52.376C1184.06 54.272 1183.38 55.856 1182.01 57.128C1180.64 58.376 1178.94 59 1176.9 59ZM1209.45 59H1205.49V39.848L1193.18 59H1188.57V33.8H1192.53V52.772L1204.85 33.8H1209.45V59ZM1215.52 53.168C1214.37 51.128 1213.79 48.86 1213.79 46.364C1213.79 43.868 1214.37 41.6 1215.52 39.56C1216.67 37.52 1218.24 35.936 1220.23 34.808C1222.23 33.656 1224.42 33.08 1226.82 33.08C1229.51 33.08 1231.95 33.8 1234.13 35.24C1236.31 36.68 1237.97 38.636 1239.1 41.108L1235.21 42.548C1234.44 40.844 1233.3 39.5 1231.79 38.516C1230.3 37.532 1228.65 37.04 1226.82 37.04C1224.28 37.04 1222.13 37.928 1220.38 39.704C1218.63 41.456 1217.75 43.676 1217.75 46.364C1217.75 49.052 1218.63 51.284 1220.38 53.06C1222.13 54.812 1224.28 55.688 1226.82 55.688C1228.69 55.688 1230.39 55.172 1231.9 54.14C1233.43 53.084 1234.59 51.656 1235.35 49.856L1239.28 51.26C1238.2 53.828 1236.54 55.868 1234.31 57.38C1232.08 58.892 1229.58 59.648 1226.82 59.648C1224.42 59.648 1222.23 59.084 1220.23 57.956C1218.24 56.804 1216.67 55.208 1215.52 53.168ZM1254.39 59V33.8H1272.03V37.508H1258.35V59H1254.39ZM1275.21 55.292H1301.27V63.176H1297.31V59H1279.17V63.176H1275.21V55.292ZM1276.43 55.292C1278.14 55.292 1279.44 54.752 1280.36 53.672C1281.29 52.568 1281.76 51.164 1281.76 49.46V33.8H1298.32V58.964H1294.36V37.688H1285.72V49.964C1285.72 52.148 1284.88 54.044 1283.2 55.652C1281.54 57.26 1279.41 58.064 1276.79 58.064H1275.71L1275.21 55.292H1276.43ZM1309.31 44.42H1321.76V48.308H1309.31V55.112H1322.63V59H1305.35V33.8H1322.63V37.688H1309.31V44.42ZM1337.81 59V33.8H1341.77V44.456H1342.93L1352.72 33.8H1357.9L1346.35 46.436L1357.9 59H1352.72L1342.93 48.524H1341.77V59H1337.81ZM1366.74 49.064H1381.14V52.808H1366.74V49.064ZM1365.59 59H1361.06L1371.35 33.8H1376.54L1386.9 59H1382.37L1374.02 37.904L1365.59 59ZM1404.59 33.8H1408.55V44.348H1411L1418.56 33.8H1423.1L1414.1 46.328L1423.1 59H1418.56L1411 48.416H1408.55V59H1404.59V48.416H1402.22L1394.44 59H1390.12L1399.12 46.436L1390.12 33.8H1394.44L1402.22 44.348H1404.59V33.8ZM1426.21 55.292H1452.28V63.176H1448.32V59H1430.17V63.176H1426.21V55.292ZM1427.44 55.292C1429.14 55.292 1430.45 54.752 1431.36 53.672C1432.3 52.568 1432.77 51.164 1432.77 49.46V33.8H1449.33V58.964H1445.37V37.688H1436.73V49.964C1436.73 52.148 1435.89 54.044 1434.21 55.652C1432.55 57.26 1430.41 58.064 1427.8 58.064H1426.72L1426.21 55.292H1427.44ZM1482.17 59H1478.21V33.8H1482.17V59ZM1460.32 33.8V43.592H1467.12C1469.38 43.592 1471.28 44.336 1472.84 45.824C1474.4 47.312 1475.18 49.136 1475.18 51.296C1475.18 53.504 1474.45 55.34 1472.99 56.804C1471.52 58.268 1469.69 59 1467.48 59H1456.36V33.8H1460.32ZM1467.12 55.112C1468.3 55.112 1469.27 54.752 1470.04 54.032C1470.83 53.288 1471.22 52.376 1471.22 51.296C1471.22 50.216 1470.83 49.316 1470.04 48.596C1469.27 47.852 1468.3 47.48 1467.12 47.48H1460.32V55.112H1467.12ZM1497.8 30.812C1496 30.812 1494.46 30.236 1493.19 29.084C1491.94 27.908 1491.32 26.48 1491.32 24.8H1494.45C1494.45 25.712 1494.76 26.468 1495.39 27.068C1496.03 27.644 1496.85 27.932 1497.83 27.932C1498.84 27.932 1499.69 27.632 1500.39 27.032C1501.09 26.408 1501.43 25.664 1501.43 24.8H1504.57C1504.57 26.408 1503.89 27.812 1502.55 29.012C1501.21 30.212 1499.62 30.812 1497.8 30.812ZM1508.09 59H1504.13V39.848L1491.82 59H1487.21V33.8H1491.17V52.772L1503.49 33.8H1508.09V59ZM1523.75 59V33.8H1528.43L1537 49.82L1545.57 33.8H1550.25V59H1546.29V40.208L1538.37 55.076H1535.67L1527.71 40.208V59H1523.75ZM1558.35 46.292C1558.35 49.028 1559.21 51.284 1560.94 53.06C1562.67 54.812 1564.79 55.688 1567.31 55.688C1569.83 55.688 1571.95 54.812 1573.68 53.06C1575.41 51.284 1576.27 49.028 1576.27 46.292C1576.27 43.604 1575.41 41.396 1573.68 39.668C1571.95 37.916 1569.83 37.04 1567.31 37.04C1564.79 37.04 1562.67 37.916 1560.94 39.668C1559.21 41.396 1558.35 43.604 1558.35 46.292ZM1554.39 46.292C1554.39 42.452 1555.63 39.296 1558.13 36.824C1560.63 34.328 1563.69 33.08 1567.31 33.08C1570.93 33.08 1573.99 34.328 1576.49 36.824C1578.99 39.296 1580.23 42.452 1580.23 46.292C1580.23 50.156 1578.99 53.348 1576.49 55.868C1573.99 58.388 1570.93 59.648 1567.31 59.648C1563.69 59.648 1560.63 58.388 1558.13 55.868C1555.63 53.348 1554.39 50.156 1554.39 46.292ZM1598.13 33.8H1602.09V44.348H1604.54L1612.1 33.8H1616.63L1607.63 46.328L1616.63 59H1612.1L1604.54 48.416H1602.09V59H1598.13V48.416H1595.75L1587.98 59H1583.66L1592.66 46.436L1583.66 33.8H1587.98L1595.75 44.348H1598.13V33.8ZM1624.68 44.42H1637.14V48.308H1624.68V55.112H1638V59H1620.72V33.8H1638V37.688H1624.68V44.42ZM1661.16 33.8V37.688H1653.24V59H1649.28V37.688H1641.36V33.8H1661.16ZM1676.97 53.168C1675.82 51.128 1675.24 48.86 1675.24 46.364C1675.24 43.868 1675.82 41.6 1676.97 39.56C1678.12 37.52 1679.69 35.936 1681.68 34.808C1683.68 33.656 1685.87 33.08 1688.27 33.08C1690.96 33.08 1693.4 33.8 1695.58 35.24C1697.76 36.68 1699.42 38.636 1700.55 41.108L1696.66 42.548C1695.89 40.844 1694.75 39.5 1693.24 38.516C1691.75 37.532 1690.1 37.04 1688.27 37.04C1685.73 37.04 1683.58 37.928 1681.83 39.704C1680.08 41.456 1679.2 43.676 1679.2 46.364C1679.2 49.052 1680.08 51.284 1681.83 53.06C1683.58 54.812 1685.73 55.688 1688.27 55.688C1690.14 55.688 1691.84 55.172 1693.35 54.14C1694.88 53.084 1696.04 51.656 1696.8 49.856L1700.73 51.26C1699.65 53.828 1697.99 55.868 1695.76 57.38C1693.53 58.892 1691.03 59.648 1688.27 59.648C1685.87 59.648 1683.68 59.084 1681.68 57.956C1679.69 56.804 1678.12 55.208 1676.97 53.168ZM1723.81 33.8V37.688H1715.89V59H1711.93V37.688H1704.01V33.8H1723.81ZM1732.62 49.064H1747.02V52.808H1732.62V49.064ZM1731.47 59H1726.93L1737.23 33.8H1742.41L1752.78 59H1748.24L1739.89 37.904L1731.47 59ZM1775.65 33.8V37.688H1767.73V59H1763.77V37.688H1755.85V33.8H1775.65ZM1783.63 33.8V43.592H1792.59C1794.85 43.592 1796.75 44.336 1798.31 45.824C1799.87 47.312 1800.65 49.136 1800.65 51.296C1800.65 53.504 1799.92 55.34 1798.46 56.804C1796.99 58.268 1795.16 59 1792.95 59H1779.67V33.8H1783.63ZM1792.59 55.112C1793.77 55.112 1794.74 54.752 1795.51 54.032C1796.3 53.288 1796.69 52.376 1796.69 51.296C1796.69 50.216 1796.3 49.316 1795.51 48.596C1794.74 47.852 1793.77 47.48 1792.59 47.48H1783.63V55.112H1792.59ZM1816.83 53.168C1815.68 51.128 1815.1 48.86 1815.1 46.364C1815.1 43.868 1815.68 41.6 1816.83 39.56C1817.98 37.52 1819.55 35.936 1821.55 34.808C1823.54 33.656 1825.73 33.08 1828.13 33.08C1830.82 33.08 1833.26 33.8 1835.44 35.24C1837.63 36.68 1839.28 38.636 1840.41 41.108L1836.52 42.548C1835.75 40.844 1834.61 39.5 1833.1 38.516C1831.61 37.532 1829.96 37.04 1828.13 37.04C1825.59 37.04 1823.44 37.928 1821.69 39.704C1819.94 41.456 1819.06 43.676 1819.06 46.364C1819.06 49.052 1819.94 51.284 1821.69 53.06C1823.44 54.812 1825.59 55.688 1828.13 55.688C1830.01 55.688 1831.7 55.172 1833.21 54.14C1834.75 53.084 1835.9 51.656 1836.67 49.856L1840.59 51.26C1839.51 53.828 1837.85 55.868 1835.62 57.38C1833.39 58.892 1830.89 59.648 1828.13 59.648C1825.73 59.648 1823.54 59.084 1821.55 57.956C1819.55 56.804 1817.98 55.208 1816.83 53.168ZM1857.09 37.688H1848.88V44.456H1857.27C1858.23 44.456 1859.03 44.108 1859.68 43.412C1860.35 42.692 1860.69 41.816 1860.69 40.784C1860.69 39.872 1860.34 39.128 1859.65 38.552C1858.97 37.976 1858.12 37.688 1857.09 37.688ZM1857.27 48.272H1848.88V55.112H1857.45C1858.48 55.112 1859.33 54.812 1860.01 54.212C1860.7 53.588 1861.05 52.832 1861.05 51.944C1861.05 50.888 1860.69 50.012 1859.97 49.316C1859.25 48.62 1858.35 48.272 1857.27 48.272ZM1857.85 59H1844.92V33.8H1857.49C1859.55 33.8 1861.25 34.412 1862.6 35.636C1863.97 36.86 1864.65 38.408 1864.65 40.28C1864.65 41.552 1864.35 42.728 1863.75 43.808C1863.15 44.864 1862.33 45.68 1861.3 46.256C1862.45 46.832 1863.35 47.672 1864 48.776C1864.67 49.856 1865.01 51.056 1865.01 52.376C1865.01 54.272 1864.33 55.856 1862.96 57.128C1861.59 58.376 1859.89 59 1857.85 59ZM1890.4 59H1886.44V39.848L1874.13 59H1869.52V33.8H1873.48V52.772L1885.79 33.8H1890.4V59ZM1894.48 55.292H1920.55V63.176H1916.59V59H1898.44V63.176H1894.48V55.292ZM1895.71 55.292C1897.41 55.292 1898.72 54.752 1899.63 53.672C1900.57 52.568 1901.04 51.164 1901.04 49.46V33.8H1917.6V58.964H1913.64V37.688H1905V49.964C1905 52.148 1904.16 54.044 1902.48 55.652C1900.82 57.26 1898.68 58.064 1896.07 58.064H1894.99L1894.48 55.292H1895.71ZM1928.59 44.42H1941.04V48.308H1928.59V55.112H1941.91V59H1924.63V33.8H1941.91V37.688H1928.59V44.42ZM1965.06 33.8V37.688H1957.14V59H1953.18V37.688H1945.26V33.8H1965.06ZM1973.04 44.42H1985.5V48.308H1973.04V55.112H1986.36V59H1969.08V33.8H1986.36V37.688H1973.04V44.42ZM1990.8 55.292C1992.45 55.292 1993.72 54.776 1994.61 53.744C1995.52 52.712 1995.98 51.404 1995.98 49.82V33.8H2012.18V59H2008.22V37.508H1999.94V50.684C1999.94 52.94 1999.14 54.896 1997.53 56.552C1995.94 58.184 1993.89 59 1991.37 59H1989.93V55.292H1990.8ZM2021.15 44.42H2033.6V48.308H2021.15V55.112H2034.47V59H2017.19V33.8H2034.47V37.688H2021.15V44.42ZM2038.69 59V33.8H2043.37L2051.94 49.82L2060.51 33.8H2065.19V59H2061.23V40.208L2053.31 55.076H2050.61L2042.65 40.208V59H2038.69ZM2080.83 33.8H2102.07V59H2098.11V37.508H2084.79V59H2080.83V33.8ZM2117.52 37.688H2111.07V47.12H2117.52C2119.03 47.12 2120.3 46.664 2121.33 45.752C2122.37 44.84 2122.88 43.7 2122.88 42.332C2122.88 40.988 2122.37 39.884 2121.33 39.02C2120.33 38.132 2119.05 37.688 2117.52 37.688ZM2117.52 51.008H2111.07V59H2107.11V33.8H2117.88C2120.45 33.8 2122.58 34.616 2124.29 36.248C2125.99 37.856 2126.84 39.884 2126.84 42.332C2126.84 44.756 2125.93 46.808 2124.11 48.488C2122.31 50.168 2120.11 51.008 2117.52 51.008ZM2134.22 46.292C2134.22 49.028 2135.08 51.284 2136.81 53.06C2138.54 54.812 2140.66 55.688 2143.18 55.688C2145.7 55.688 2147.82 54.812 2149.55 53.06C2151.28 51.284 2152.14 49.028 2152.14 46.292C2152.14 43.604 2151.28 41.396 2149.55 39.668C2147.82 37.916 2145.7 37.04 2143.18 37.04C2140.66 37.04 2138.54 37.916 2136.81 39.668C2135.08 41.396 2134.22 43.604 2134.22 46.292ZM2130.26 46.292C2130.26 42.452 2131.5 39.296 2134 36.824C2136.5 34.328 2139.56 33.08 2143.18 33.08C2146.8 33.08 2149.86 34.328 2152.36 36.824C2154.86 39.296 2156.1 42.452 2156.1 46.292C2156.1 50.156 2154.86 53.348 2152.36 55.868C2149.86 58.388 2146.8 59.648 2143.18 59.648C2139.56 59.648 2136.5 58.388 2134 55.868C2131.5 53.348 2130.26 50.156 2130.26 46.292ZM2191.03 59H2160.43V33.8H2164.39V55.112H2173.82V33.8H2177.78V55.112H2187.07V33.8H2191.03V59ZM2196.1 55.292C2197.76 55.292 2199.03 54.776 2199.92 53.744C2200.83 52.712 2201.28 51.404 2201.28 49.82V33.8H2217.48V59H2213.52V37.508H2205.24V50.684C2205.24 52.94 2204.44 54.896 2202.83 56.552C2201.25 58.184 2199.2 59 2196.68 59H2195.24V55.292H2196.1ZM2225.73 46.292C2225.73 49.028 2226.6 51.284 2228.32 53.06C2230.05 54.812 2232.18 55.688 2234.7 55.688C2237.22 55.688 2239.34 54.812 2241.07 53.06C2242.8 51.284 2243.66 49.028 2243.66 46.292C2243.66 43.604 2242.8 41.396 2241.07 39.668C2239.34 37.916 2237.22 37.04 2234.7 37.04C2232.18 37.04 2230.05 37.916 2228.32 39.668C2226.6 41.396 2225.73 43.604 2225.73 46.292ZM2221.77 46.292C2221.77 42.452 2223.02 39.296 2225.52 36.824C2228.01 34.328 2231.07 33.08 2234.7 33.08C2238.32 33.08 2241.38 34.328 2243.88 36.824C2246.37 39.296 2247.62 42.452 2247.62 46.292C2247.62 50.156 2246.37 53.348 2243.88 55.868C2241.38 58.388 2238.32 59.648 2234.7 59.648C2231.07 59.648 2228.01 58.388 2225.52 55.868C2223.02 53.348 2221.77 50.156 2221.77 46.292ZM2251.94 59V33.8H2269.58V37.508H2255.9V59H2251.94ZM2276.97 46.292C2276.97 49.028 2277.83 51.284 2279.56 53.06C2281.29 54.812 2283.41 55.688 2285.93 55.688C2288.45 55.688 2290.58 54.812 2292.31 53.06C2294.03 51.284 2294.9 49.028 2294.9 46.292C2294.9 43.604 2294.03 41.396 2292.31 39.668C2290.58 37.916 2288.45 37.04 2285.93 37.04C2283.41 37.04 2281.29 37.916 2279.56 39.668C2277.83 41.396 2276.97 43.604 2276.97 46.292ZM2273.01 46.292C2273.01 42.452 2274.26 39.296 2276.75 36.824C2279.25 34.328 2282.31 33.08 2285.93 33.08C2289.56 33.08 2292.62 34.328 2295.11 36.824C2297.61 39.296 2298.86 42.452 2298.86 46.292C2298.86 50.156 2297.61 53.348 2295.11 55.868C2292.62 58.388 2289.56 59.648 2285.93 59.648C2282.31 59.648 2279.25 58.388 2276.75 55.868C2274.26 53.348 2273.01 50.156 2273.01 46.292ZM2302.39 56.696C2302.39 55.88 2302.65 55.196 2303.18 54.644C2303.71 54.092 2304.37 53.816 2305.16 53.816C2306 53.816 2306.7 54.092 2307.25 54.644C2307.8 55.196 2308.08 55.88 2308.08 56.696C2308.08 57.512 2307.8 58.196 2307.25 58.748C2306.72 59.276 2306.05 59.54 2305.23 59.54C2304.42 59.54 2303.73 59.276 2303.18 58.748C2302.65 58.196 2302.39 57.512 2302.39 56.696ZM2323.75 53.168C2322.6 51.128 2322.02 48.86 2322.02 46.364C2322.02 43.868 2322.6 41.6 2323.75 39.56C2324.9 37.52 2326.48 35.936 2328.47 34.808C2330.46 33.656 2332.66 33.08 2335.06 33.08C2337.74 33.08 2340.18 33.8 2342.36 35.24C2344.55 36.68 2346.2 38.636 2347.33 41.108L2343.44 42.548C2342.68 40.844 2341.54 39.5 2340.02 38.516C2338.54 37.532 2336.88 37.04 2335.06 37.04C2332.51 37.04 2330.36 37.928 2328.61 39.704C2326.86 41.456 2325.98 43.676 2325.98 46.364C2325.98 49.052 2326.86 51.284 2328.61 53.06C2330.36 54.812 2332.51 55.688 2335.06 55.688C2336.93 55.688 2338.62 55.172 2340.13 54.14C2341.67 53.084 2342.82 51.656 2343.59 49.856L2347.51 51.26C2346.43 53.828 2344.78 55.868 2342.54 57.38C2340.31 58.892 2337.82 59.648 2335.06 59.648C2332.66 59.648 2330.46 59.084 2328.47 57.956C2326.48 56.804 2324.9 55.208 2323.75 53.168ZM2355.8 44.42H2368.26V48.308H2355.8V55.112H2369.12V59H2351.84V33.8H2369.12V37.688H2355.8V44.42ZM2383.93 37.688H2377.49V47.12H2383.93C2385.44 47.12 2386.71 46.664 2387.75 45.752C2388.78 44.84 2389.29 43.7 2389.29 42.332C2389.29 40.988 2388.78 39.884 2387.75 39.02C2386.74 38.132 2385.47 37.688 2383.93 37.688ZM2383.93 51.008H2377.49V59H2373.53V33.8H2384.29C2386.86 33.8 2388.99 34.616 2390.7 36.248C2392.4 37.856 2393.25 39.884 2393.25 42.332C2393.25 44.756 2392.34 46.808 2390.52 48.488C2388.72 50.168 2386.52 51.008 2383.93 51.008ZM2409.55 37.688H2401.35V44.456H2409.73C2410.69 44.456 2411.5 44.108 2412.15 43.412C2412.82 42.692 2413.15 41.816 2413.15 40.784C2413.15 39.872 2412.81 39.128 2412.11 38.552C2411.44 37.976 2410.59 37.688 2409.55 37.688ZM2409.73 48.272H2401.35V55.112H2409.91C2410.95 55.112 2411.8 54.812 2412.47 54.212C2413.17 53.588 2413.51 52.832 2413.51 51.944C2413.51 50.888 2413.15 50.012 2412.43 49.316C2411.71 48.62 2410.81 48.272 2409.73 48.272ZM2410.31 59H2397.39V33.8H2409.95C2412.01 33.8 2413.72 34.412 2415.06 35.636C2416.43 36.86 2417.11 38.408 2417.11 40.28C2417.11 41.552 2416.81 42.728 2416.21 43.808C2415.61 44.864 2414.8 45.68 2413.77 46.256C2414.92 46.832 2415.82 47.672 2416.47 48.776C2417.14 49.856 2417.47 51.056 2417.47 52.376C2417.47 54.272 2416.79 55.856 2415.42 57.128C2414.05 58.376 2412.35 59 2410.31 59ZM2442.87 59H2438.91V39.848L2426.59 59H2421.99V33.8H2425.95V52.772L2438.26 33.8H2442.87V59ZM2448.93 53.168C2447.78 51.128 2447.2 48.86 2447.2 46.364C2447.2 43.868 2447.78 41.6 2448.93 39.56C2450.08 37.52 2451.65 35.936 2453.65 34.808C2455.64 33.656 2457.83 33.08 2460.23 33.08C2462.92 33.08 2465.36 33.8 2467.54 35.24C2469.73 36.68 2471.38 38.636 2472.51 41.108L2468.62 42.548C2467.85 40.844 2466.71 39.5 2465.2 38.516C2463.71 37.532 2462.06 37.04 2460.23 37.04C2457.69 37.04 2455.54 37.928 2453.79 39.704C2452.04 41.456 2451.16 43.676 2451.16 46.364C2451.16 49.052 2452.04 51.284 2453.79 53.06C2455.54 54.812 2457.69 55.688 2460.23 55.688C2462.11 55.688 2463.8 55.172 2465.31 54.14C2466.85 53.084 2468 51.656 2468.77 49.856L2472.69 51.26C2471.61 53.828 2469.95 55.868 2467.72 57.38C2465.49 58.892 2462.99 59.648 2460.23 59.648C2457.83 59.648 2455.64 59.084 2453.65 57.956C2451.65 56.804 2450.08 55.208 2448.93 53.168Z" fill="#245BC6"/>
</g>
<defs>
<clipPath id="clip0_250_3392">
<rect width="2468" height="92" fill="white"/>
</clipPath>
</defs>
</svg>
