<svg width="2468" height="92" viewBox="0 0 2468 92" fill="none" xmlns="http://www.w3.org/2000/svg">
<g clip-path="url(#clip0_250_3401)">
<rect width="2468" height="92" fill="white"/>
<path d="M33.148 37.688H24.94V44.456H33.328C34.288 44.456 35.092 44.108 35.74 43.412C36.412 42.692 36.748 41.816 36.748 40.784C36.748 39.872 36.4 39.128 35.704 38.552C35.032 37.976 34.18 37.688 33.148 37.688ZM33.328 48.272H24.94V55.112H33.508C34.54 55.112 35.392 54.812 36.064 54.212C36.76 53.588 37.108 52.832 37.108 51.944C37.108 50.888 36.748 50.012 36.028 49.316C35.308 48.62 34.408 48.272 33.328 48.272ZM33.904 59H20.98V33.8H33.544C35.608 33.8 37.312 34.412 38.656 35.636C40.024 36.86 40.708 38.408 40.708 40.28C40.708 41.552 40.408 42.728 39.808 43.808C39.208 44.864 38.392 45.68 37.36 46.256C38.512 46.832 39.412 47.672 40.06 48.776C40.732 49.856 41.068 51.056 41.068 52.376C41.068 54.272 40.384 55.856 39.016 57.128C37.648 58.376 35.944 59 33.904 59ZM48.8195 46.292C48.8195 49.028 49.6835 51.284 51.4115 53.06C53.1395 54.812 55.2635 55.688 57.7835 55.688C60.3035 55.688 62.4275 54.812 64.1555 53.06C65.8835 51.284 66.7475 49.028 66.7475 46.292C66.7475 43.604 65.8835 41.396 64.1555 39.668C62.4275 37.916 60.3035 37.04 57.7835 37.04C55.2635 37.04 53.1395 37.916 51.4115 39.668C49.6835 41.396 48.8195 43.604 48.8195 46.292ZM44.8595 46.292C44.8595 42.452 46.1075 39.296 48.6035 36.824C51.0995 34.328 54.1595 33.08 57.7835 33.08C61.4075 33.08 64.4675 34.328 66.9635 36.824C69.4595 39.296 70.7075 42.452 70.7075 46.292C70.7075 50.156 69.4595 53.348 66.9635 55.868C64.4675 58.388 61.4075 59.648 57.7835 59.648C54.1595 59.648 51.0995 58.388 48.6035 55.868C46.1075 53.348 44.8595 50.156 44.8595 46.292ZM74.0586 55.292H100.123V63.176H96.1626V59H78.0186V63.176H74.0586V55.292ZM75.2826 55.292C76.9866 55.292 78.2946 54.752 79.2066 53.672C80.1426 52.568 80.6106 51.164 80.6106 49.46V33.8H97.1706V58.964H93.2106V37.688H84.5706V49.964C84.5706 52.148 83.7306 54.044 82.0506 55.652C80.3946 57.26 78.2586 58.064 75.6426 58.064H74.5626L74.0586 55.292H75.2826ZM125.08 59H121.12V39.848L108.808 59H104.2V33.8H108.16V52.772L120.472 33.8H125.08V59ZM148.892 33.8V37.688H140.972V59H137.012V37.688H129.092V33.8H148.892ZM156.867 44.42H169.323V48.308H156.867V55.112H170.187V59H152.907V33.8H170.187V37.688H156.867V44.42ZM174.625 55.292C176.281 55.292 177.553 54.776 178.441 53.744C179.353 52.712 179.809 51.404 179.809 49.82V33.8H196.009V59H192.049V37.508H183.769V50.684C183.769 52.94 182.965 54.896 181.357 56.552C179.773 58.184 177.721 59 175.201 59H173.761V55.292H174.625ZM209.621 37.688C208.229 37.688 207.077 38.084 206.165 38.876C205.253 39.644 204.797 40.616 204.797 41.792C204.797 42.992 205.253 44 206.165 44.816C207.101 45.632 208.253 46.04 209.621 46.04H216.425V37.688H209.621ZM207.605 49.532C205.613 49.316 203.957 48.5 202.637 47.084C201.317 45.644 200.657 43.916 200.657 41.9C200.657 39.5 201.461 37.556 203.069 36.068C204.701 34.556 206.765 33.8 209.261 33.8H220.385V59H216.425V49.892H212.033L205.301 59H200.657L207.605 49.532ZM224.262 56.696C224.262 55.88 224.526 55.196 225.054 54.644C225.582 54.092 226.242 53.816 227.034 53.816C227.874 53.816 228.57 54.092 229.122 54.644C229.674 55.196 229.95 55.88 229.95 56.696C229.95 57.512 229.674 58.196 229.122 58.748C228.594 59.276 227.922 59.54 227.106 59.54C226.29 59.54 225.606 59.276 225.054 58.748C224.526 58.196 224.262 57.512 224.262 56.696ZM244.968 33.8H266.208V59H262.248V37.508H248.928V59H244.968V33.8ZM274.495 46.292C274.495 49.028 275.359 51.284 277.087 53.06C278.815 54.812 280.939 55.688 283.459 55.688C285.979 55.688 288.103 54.812 289.831 53.06C291.559 51.284 292.423 49.028 292.423 46.292C292.423 43.604 291.559 41.396 289.831 39.668C288.103 37.916 285.979 37.04 283.459 37.04C280.939 37.04 278.815 37.916 277.087 39.668C275.359 41.396 274.495 43.604 274.495 46.292ZM270.535 46.292C270.535 42.452 271.783 39.296 274.279 36.824C276.775 34.328 279.835 33.08 283.459 33.08C287.083 33.08 290.143 34.328 292.639 36.824C295.135 39.296 296.383 42.452 296.383 46.292C296.383 50.156 295.135 53.348 292.639 55.868C290.143 58.388 287.083 59.648 283.459 59.648C279.835 59.648 276.775 58.388 274.279 55.868C271.783 53.348 270.535 50.156 270.535 46.292ZM313.45 44.132C315.682 44.132 317.566 44.864 319.102 46.328C320.638 47.768 321.406 49.544 321.406 51.656C321.406 53.744 320.686 55.496 319.246 56.912C317.806 58.304 315.994 59 313.81 59H300.706V33.8H317.698V37.652H304.666V44.132H313.45ZM313.45 55.112C314.602 55.112 315.55 54.788 316.294 54.14C317.062 53.468 317.446 52.64 317.446 51.656C317.446 50.624 317.062 49.76 316.294 49.064C315.526 48.368 314.578 48.02 313.45 48.02H304.666V55.112H313.45ZM351.715 59H347.755V33.8H351.715V59ZM329.863 33.8V43.592H336.667C338.923 43.592 340.831 44.336 342.391 45.824C343.951 47.312 344.731 49.136 344.731 51.296C344.731 53.504 343.999 55.34 342.535 56.804C341.071 58.268 339.235 59 337.027 59H325.903V33.8H329.863ZM336.667 55.112C337.843 55.112 338.815 54.752 339.583 54.032C340.375 53.288 340.771 52.376 340.771 51.296C340.771 50.216 340.375 49.316 339.583 48.596C338.815 47.852 337.843 47.48 336.667 47.48H329.863V55.112H336.667ZM368.928 37.688H360.72V44.456H369.108C370.068 44.456 370.872 44.108 371.52 43.412C372.192 42.692 372.528 41.816 372.528 40.784C372.528 39.872 372.18 39.128 371.484 38.552C370.812 37.976 369.96 37.688 368.928 37.688ZM369.108 48.272H360.72V55.112H369.288C370.32 55.112 371.172 54.812 371.844 54.212C372.54 53.588 372.888 52.832 372.888 51.944C372.888 50.888 372.528 50.012 371.808 49.316C371.088 48.62 370.188 48.272 369.108 48.272ZM369.684 59H356.76V33.8H369.324C371.388 33.8 373.092 34.412 374.436 35.636C375.804 36.86 376.488 38.408 376.488 40.28C376.488 41.552 376.188 42.728 375.588 43.808C374.988 44.864 374.172 45.68 373.14 46.256C374.292 46.832 375.192 47.672 375.84 48.776C376.512 49.856 376.848 51.056 376.848 52.376C376.848 54.272 376.164 55.856 374.796 57.128C373.428 58.376 371.724 59 369.684 59ZM386.148 49.064H400.548V52.808H386.148V49.064ZM384.996 59H380.46L390.756 33.8H395.94L406.308 59H401.772L393.42 37.904L384.996 59ZM429.18 33.8V37.688H421.26V59H417.3V37.688H409.38V33.8H429.18ZM437.155 33.8V43.592H446.119C448.375 43.592 450.283 44.336 451.843 45.824C453.403 47.312 454.183 49.136 454.183 51.296C454.183 53.504 453.451 55.34 451.987 56.804C450.523 58.268 448.687 59 446.479 59H433.195V33.8H437.155ZM446.119 55.112C447.295 55.112 448.267 54.752 449.035 54.032C449.827 53.288 450.223 52.376 450.223 51.296C450.223 50.216 449.827 49.316 449.035 48.596C448.267 47.852 447.295 47.48 446.119 47.48H437.155V55.112H446.119ZM469.172 59V33.8H473.852L482.42 49.82L490.988 33.8H495.668V59H491.708V40.208L483.788 55.076H481.088L473.132 40.208V59H469.172ZM503.765 46.292C503.765 49.028 504.629 51.284 506.357 53.06C508.085 54.812 510.209 55.688 512.729 55.688C515.249 55.688 517.373 54.812 519.101 53.06C520.829 51.284 521.693 49.028 521.693 46.292C521.693 43.604 520.829 41.396 519.101 39.668C517.373 37.916 515.249 37.04 512.729 37.04C510.209 37.04 508.085 37.916 506.357 39.668C504.629 41.396 503.765 43.604 503.765 46.292ZM499.805 46.292C499.805 42.452 501.053 39.296 503.549 36.824C506.045 34.328 509.105 33.08 512.729 33.08C516.353 33.08 519.413 34.328 521.909 36.824C524.405 39.296 525.653 42.452 525.653 46.292C525.653 50.156 524.405 53.348 521.909 55.868C519.413 58.388 516.353 59.648 512.729 59.648C509.105 59.648 506.045 58.388 503.549 55.868C501.053 53.348 499.805 50.156 499.805 46.292ZM543.548 33.8H547.508V44.348H549.956L557.516 33.8H562.052L553.052 46.328L562.052 59H557.516L549.956 48.416H547.508V59H543.548V48.416H541.172L533.396 59H529.076L538.076 46.436L529.076 33.8H533.396L541.172 44.348H543.548V33.8ZM566.142 59V33.8H570.102V44.42H583.062V33.8H587.022V59H583.062V48.308H570.102V59H566.142ZM595.318 46.292C595.318 49.028 596.182 51.284 597.91 53.06C599.638 54.812 601.762 55.688 604.282 55.688C606.802 55.688 608.926 54.812 610.654 53.06C612.382 51.284 613.246 49.028 613.246 46.292C613.246 43.604 612.382 41.396 610.654 39.668C608.926 37.916 606.802 37.04 604.282 37.04C601.762 37.04 599.638 37.916 597.91 39.668C596.182 41.396 595.318 43.604 595.318 46.292ZM591.358 46.292C591.358 42.452 592.606 39.296 595.102 36.824C597.598 34.328 600.658 33.08 604.282 33.08C607.906 33.08 610.966 34.328 613.462 36.824C615.958 39.296 617.206 42.452 617.206 46.292C617.206 50.156 615.958 53.348 613.462 55.868C610.966 58.388 607.906 59.648 604.282 59.648C600.658 59.648 597.598 58.388 595.102 55.868C592.606 53.348 591.358 50.156 591.358 46.292ZM632.312 59V33.8H636.272V44.456H637.424L647.216 33.8H652.4L640.844 46.436L652.4 59H647.216L637.424 48.524H636.272V59H632.312ZM661.243 49.064H675.643V52.808H661.243V49.064ZM660.091 59H655.555L665.851 33.8H671.035L681.403 59H676.867L668.515 37.904L660.091 59ZM685.519 59V33.8H689.479V44.456H690.631L700.423 33.8H705.607L694.051 46.436L705.607 59H700.423L690.631 48.524H689.479V59H685.519ZM721.453 53.168C720.301 51.128 719.725 48.86 719.725 46.364C719.725 43.868 720.301 41.6 721.453 39.56C722.605 37.52 724.177 35.936 726.169 34.808C728.161 33.656 730.357 33.08 732.757 33.08C735.445 33.08 737.881 33.8 740.065 35.24C742.249 36.68 743.905 38.636 745.033 41.108L741.145 42.548C740.377 40.844 739.237 39.5 737.725 38.516C736.237 37.532 734.581 37.04 732.757 37.04C730.213 37.04 728.065 37.928 726.313 39.704C724.561 41.456 723.685 43.676 723.685 46.364C723.685 49.052 724.561 51.284 726.313 53.06C728.065 54.812 730.213 55.688 732.757 55.688C734.629 55.688 736.321 55.172 737.833 54.14C739.369 53.084 740.521 51.656 741.289 49.856L745.213 51.26C744.133 53.828 742.477 55.868 740.245 57.38C738.013 58.892 735.517 59.648 732.757 59.648C730.357 59.648 728.161 59.084 726.169 57.956C724.177 56.804 722.605 55.208 721.453 53.168ZM759.948 37.688H753.504V47.12H759.948C761.46 47.12 762.732 46.664 763.764 45.752C764.796 44.84 765.312 43.7 765.312 42.332C765.312 40.988 764.796 39.884 763.764 39.02C762.756 38.132 761.484 37.688 759.948 37.688ZM759.948 51.008H753.504V59H749.544V33.8H760.308C762.876 33.8 765.012 34.616 766.716 36.248C768.42 37.856 769.272 39.884 769.272 42.332C769.272 44.756 768.36 46.808 766.536 48.488C764.736 50.168 762.54 51.008 759.948 51.008ZM777.365 44.42H789.821V48.308H777.365V55.112H790.685V59H773.405V33.8H790.685V37.688H777.365V44.42ZM794.115 55.292H820.179V63.176H816.219V59H798.075V63.176H794.115V55.292ZM795.339 55.292C797.043 55.292 798.351 54.752 799.263 53.672C800.199 52.568 800.667 51.164 800.667 49.46V33.8H817.227V58.964H813.267V37.688H804.627V49.964C804.627 52.148 803.787 54.044 802.107 55.652C800.451 57.26 798.315 58.064 795.699 58.064H794.619L794.115 55.292H795.339ZM845.137 59H841.177V39.848L828.865 59H824.257V33.8H828.217V52.772L840.529 33.8H845.137V59ZM861.983 53.168C860.831 51.128 860.255 48.86 860.255 46.364C860.255 43.868 860.831 41.6 861.983 39.56C863.135 37.52 864.707 35.936 866.699 34.808C868.691 33.656 870.887 33.08 873.287 33.08C875.975 33.08 878.411 33.8 880.595 35.24C882.779 36.68 884.435 38.636 885.563 41.108L881.675 42.548C880.907 40.844 879.767 39.5 878.255 38.516C876.767 37.532 875.111 37.04 873.287 37.04C870.743 37.04 868.595 37.928 866.843 39.704C865.091 41.456 864.215 43.676 864.215 46.364C864.215 49.052 865.091 51.284 866.843 53.06C868.595 54.812 870.743 55.688 873.287 55.688C875.159 55.688 876.851 55.172 878.363 54.14C879.899 53.084 881.051 51.656 881.819 49.856L885.743 51.26C884.663 53.828 883.007 55.868 880.775 57.38C878.543 58.892 876.047 59.648 873.287 59.648C870.887 59.648 868.691 59.084 866.699 57.956C864.707 56.804 863.135 55.208 861.983 53.168ZM908.831 33.8V37.688H900.911V59H896.951V37.688H889.031V33.8H908.831ZM923.25 37.688H916.806V47.12H923.25C924.762 47.12 926.034 46.664 927.066 45.752C928.098 44.84 928.614 43.7 928.614 42.332C928.614 40.988 928.098 39.884 927.066 39.02C926.058 38.132 924.786 37.688 923.25 37.688ZM923.25 51.008H916.806V59H912.846V33.8H923.61C926.178 33.8 928.314 34.616 930.018 36.248C931.722 37.856 932.574 39.884 932.574 42.332C932.574 44.756 931.662 46.808 929.838 48.488C928.038 50.168 925.842 51.008 923.25 51.008ZM939.947 46.292C939.947 49.028 940.811 51.284 942.539 53.06C944.267 54.812 946.391 55.688 948.911 55.688C951.431 55.688 953.555 54.812 955.283 53.06C957.011 51.284 957.875 49.028 957.875 46.292C957.875 43.604 957.011 41.396 955.283 39.668C953.555 37.916 951.431 37.04 948.911 37.04C946.391 37.04 944.267 37.916 942.539 39.668C940.811 41.396 939.947 43.604 939.947 46.292ZM935.987 46.292C935.987 42.452 937.235 39.296 939.731 36.824C942.227 34.328 945.287 33.08 948.911 33.08C952.535 33.08 955.595 34.328 958.091 36.824C960.587 39.296 961.835 42.452 961.835 46.292C961.835 50.156 960.587 53.348 958.091 55.868C955.595 58.388 952.535 59.648 948.911 59.648C945.287 59.648 942.227 58.388 939.731 55.868C937.235 53.348 935.987 50.156 935.987 46.292ZM987.039 59H983.079V39.848L970.767 59H966.159V33.8H970.119V52.772L982.431 33.8H987.039V59ZM1010.85 33.8V37.688H1002.93V59H998.97V37.688H991.05V33.8H1010.85ZM1018.83 44.42H1031.28V48.308H1018.83V55.112H1032.15V59H1014.87V33.8H1032.15V37.688H1018.83V44.42ZM1036.58 55.292C1038.24 55.292 1039.51 54.776 1040.4 53.744C1041.31 52.712 1041.77 51.404 1041.77 49.82V33.8H1057.97V59H1054.01V37.508H1045.73V50.684C1045.73 52.94 1044.92 54.896 1043.32 56.552C1041.73 58.184 1039.68 59 1037.16 59H1035.72V55.292H1036.58ZM1066.93 44.42H1079.39V48.308H1066.93V55.112H1080.25V59H1062.97V33.8H1080.25V37.688H1066.93V44.42ZM1095.24 30.812C1093.44 30.812 1091.9 30.236 1090.63 29.084C1089.38 27.908 1088.76 26.48 1088.76 24.8H1091.89C1091.89 25.712 1092.2 26.468 1092.83 27.068C1093.48 27.644 1094.29 27.932 1095.28 27.932C1096.28 27.932 1097.14 27.632 1097.83 27.032C1098.53 26.408 1098.88 25.664 1098.88 24.8H1102.01C1102.01 26.408 1101.34 27.812 1099.99 29.012C1098.65 30.212 1097.06 30.812 1095.24 30.812ZM1105.54 59H1101.58V39.848L1089.26 59H1084.66V33.8H1088.62V52.772L1100.93 33.8H1105.54V59ZM1133.54 37.688H1125.33V44.456H1133.72C1134.68 44.456 1135.49 44.108 1136.13 43.412C1136.81 42.692 1137.14 41.816 1137.14 40.784C1137.14 39.872 1136.79 39.128 1136.1 38.552C1135.43 37.976 1134.57 37.688 1133.54 37.688ZM1133.72 48.272H1125.33V55.112H1133.9C1134.93 55.112 1135.79 54.812 1136.46 54.212C1137.15 53.588 1137.5 52.832 1137.5 51.944C1137.5 50.888 1137.14 50.012 1136.42 49.316C1135.7 48.62 1134.8 48.272 1133.72 48.272ZM1134.3 59H1121.37V33.8H1133.94C1136 33.8 1137.71 34.412 1139.05 35.636C1140.42 36.86 1141.1 38.408 1141.1 40.28C1141.1 41.552 1140.8 42.728 1140.2 43.808C1139.6 44.864 1138.79 45.68 1137.75 46.256C1138.91 46.832 1139.81 47.672 1140.45 48.776C1141.13 49.856 1141.46 51.056 1141.46 52.376C1141.46 54.272 1140.78 55.856 1139.41 57.128C1138.04 58.376 1136.34 59 1134.3 59ZM1149.21 46.292C1149.21 49.028 1150.08 51.284 1151.81 53.06C1153.53 54.812 1155.66 55.688 1158.18 55.688C1160.7 55.688 1162.82 54.812 1164.55 53.06C1166.28 51.284 1167.14 49.028 1167.14 46.292C1167.14 43.604 1166.28 41.396 1164.55 39.668C1162.82 37.916 1160.7 37.04 1158.18 37.04C1155.66 37.04 1153.53 37.916 1151.81 39.668C1150.08 41.396 1149.21 43.604 1149.21 46.292ZM1145.25 46.292C1145.25 42.452 1146.5 39.296 1149 36.824C1151.49 34.328 1154.55 33.08 1158.18 33.08C1161.8 33.08 1164.86 34.328 1167.36 36.824C1169.85 39.296 1171.1 42.452 1171.1 46.292C1171.1 50.156 1169.85 53.348 1167.36 55.868C1164.86 58.388 1161.8 59.648 1158.18 59.648C1154.55 59.648 1151.49 58.388 1149 55.868C1146.5 53.348 1145.25 50.156 1145.25 46.292ZM1174.45 55.292H1200.52V63.176H1196.56V59H1178.41V63.176H1174.45V55.292ZM1175.68 55.292C1177.38 55.292 1178.69 54.752 1179.6 53.672C1180.54 52.568 1181.01 51.164 1181.01 49.46V33.8H1197.57V58.964H1193.61V37.688H1184.97V49.964C1184.97 52.148 1184.13 54.044 1182.45 55.652C1180.79 57.26 1178.65 58.064 1176.04 58.064H1174.96L1174.45 55.292H1175.68ZM1225.48 59H1221.52V39.848L1209.2 59H1204.6V33.8H1208.56V52.772L1220.87 33.8H1225.48V59ZM1249.29 33.8V37.688H1241.37V59H1237.41V37.688H1229.49V33.8H1249.29ZM1257.26 44.42H1269.72V48.308H1257.26V55.112H1270.58V59H1253.3V33.8H1270.58V37.688H1257.26V44.42ZM1275.02 55.292C1276.68 55.292 1277.95 54.776 1278.84 53.744C1279.75 52.712 1280.2 51.404 1280.2 49.82V33.8H1296.4V59H1292.44V37.508H1284.16V50.684C1284.16 52.94 1283.36 54.896 1281.75 56.552C1280.17 58.184 1278.12 59 1275.6 59H1274.16V55.292H1275.02ZM1310.02 37.688C1308.62 37.688 1307.47 38.084 1306.56 38.876C1305.65 39.644 1305.19 40.616 1305.19 41.792C1305.19 42.992 1305.65 44 1306.56 44.816C1307.5 45.632 1308.65 46.04 1310.02 46.04H1316.82V37.688H1310.02ZM1308 49.532C1306.01 49.316 1304.35 48.5 1303.03 47.084C1301.71 45.644 1301.05 43.916 1301.05 41.9C1301.05 39.5 1301.86 37.556 1303.46 36.068C1305.1 34.556 1307.16 33.8 1309.66 33.8H1320.78V59H1316.82V49.892H1312.43L1305.7 59H1301.05L1308 49.532ZM1324.66 56.696C1324.66 55.88 1324.92 55.196 1325.45 54.644C1325.98 54.092 1326.64 53.816 1327.43 53.816C1328.27 53.816 1328.96 54.092 1329.52 54.644C1330.07 55.196 1330.34 55.88 1330.34 56.696C1330.34 57.512 1330.07 58.196 1329.52 58.748C1328.99 59.276 1328.32 59.54 1327.5 59.54C1326.68 59.54 1326 59.276 1325.45 58.748C1324.92 58.196 1324.66 57.512 1324.66 56.696ZM1345.36 33.8H1366.6V59H1362.64V37.508H1349.32V59H1345.36V33.8ZM1374.89 46.292C1374.89 49.028 1375.75 51.284 1377.48 53.06C1379.21 54.812 1381.33 55.688 1383.85 55.688C1386.37 55.688 1388.5 54.812 1390.23 53.06C1391.95 51.284 1392.82 49.028 1392.82 46.292C1392.82 43.604 1391.95 41.396 1390.23 39.668C1388.5 37.916 1386.37 37.04 1383.85 37.04C1381.33 37.04 1379.21 37.916 1377.48 39.668C1375.75 41.396 1374.89 43.604 1374.89 46.292ZM1370.93 46.292C1370.93 42.452 1372.18 39.296 1374.67 36.824C1377.17 34.328 1380.23 33.08 1383.85 33.08C1387.48 33.08 1390.54 34.328 1393.03 36.824C1395.53 39.296 1396.78 42.452 1396.78 46.292C1396.78 50.156 1395.53 53.348 1393.03 55.868C1390.54 58.388 1387.48 59.648 1383.85 59.648C1380.23 59.648 1377.17 58.388 1374.67 55.868C1372.18 53.348 1370.93 50.156 1370.93 46.292ZM1413.84 44.132C1416.08 44.132 1417.96 44.864 1419.5 46.328C1421.03 47.768 1421.8 49.544 1421.8 51.656C1421.8 53.744 1421.08 55.496 1419.64 56.912C1418.2 58.304 1416.39 59 1414.2 59H1401.1V33.8H1418.09V37.652H1405.06V44.132H1413.84ZM1413.84 55.112C1415 55.112 1415.94 54.788 1416.69 54.14C1417.46 53.468 1417.84 52.64 1417.84 51.656C1417.84 50.624 1417.46 49.76 1416.69 49.064C1415.92 48.368 1414.97 48.02 1413.84 48.02H1405.06V55.112H1413.84ZM1452.11 59H1448.15V33.8H1452.11V59ZM1430.26 33.8V43.592H1437.06C1439.32 43.592 1441.23 44.336 1442.79 45.824C1444.35 47.312 1445.13 49.136 1445.13 51.296C1445.13 53.504 1444.39 55.34 1442.93 56.804C1441.47 58.268 1439.63 59 1437.42 59H1426.3V33.8H1430.26ZM1437.06 55.112C1438.24 55.112 1439.21 54.752 1439.98 54.032C1440.77 53.288 1441.17 52.376 1441.17 51.296C1441.17 50.216 1440.77 49.316 1439.98 48.596C1439.21 47.852 1438.24 47.48 1437.06 47.48H1430.26V55.112H1437.06ZM1469.32 37.688H1461.12V44.456H1469.5C1470.46 44.456 1471.27 44.108 1471.92 43.412C1472.59 42.692 1472.92 41.816 1472.92 40.784C1472.92 39.872 1472.58 39.128 1471.88 38.552C1471.21 37.976 1470.36 37.688 1469.32 37.688ZM1469.5 48.272H1461.12V55.112H1469.68C1470.72 55.112 1471.57 54.812 1472.24 54.212C1472.94 53.588 1473.28 52.832 1473.28 51.944C1473.28 50.888 1472.92 50.012 1472.2 49.316C1471.48 48.62 1470.58 48.272 1469.5 48.272ZM1470.08 59H1457.16V33.8H1469.72C1471.78 33.8 1473.49 34.412 1474.83 35.636C1476.2 36.86 1476.88 38.408 1476.88 40.28C1476.88 41.552 1476.58 42.728 1475.98 43.808C1475.38 44.864 1474.57 45.68 1473.54 46.256C1474.69 46.832 1475.59 47.672 1476.24 48.776C1476.91 49.856 1477.24 51.056 1477.24 52.376C1477.24 54.272 1476.56 55.856 1475.19 57.128C1473.82 58.376 1472.12 59 1470.08 59ZM1486.54 49.064H1500.94V52.808H1486.54V49.064ZM1485.39 59H1480.85L1491.15 33.8H1496.33L1506.7 59H1502.17L1493.81 37.904L1485.39 59ZM1529.57 33.8V37.688H1521.65V59H1517.69V37.688H1509.77V33.8H1529.57ZM1537.55 33.8V43.592H1546.51C1548.77 43.592 1550.68 44.336 1552.24 45.824C1553.8 47.312 1554.58 49.136 1554.58 51.296C1554.58 53.504 1553.85 55.34 1552.38 56.804C1550.92 58.268 1549.08 59 1546.87 59H1533.59V33.8H1537.55ZM1546.51 55.112C1547.69 55.112 1548.66 54.752 1549.43 54.032C1550.22 53.288 1550.62 52.376 1550.62 51.296C1550.62 50.216 1550.22 49.316 1549.43 48.596C1548.66 47.852 1547.69 47.48 1546.51 47.48H1537.55V55.112H1546.51ZM1569.57 59V33.8H1574.25L1582.81 49.82L1591.38 33.8H1596.06V59H1592.1V40.208L1584.18 55.076H1581.48L1573.53 40.208V59H1569.57ZM1604.16 46.292C1604.16 49.028 1605.02 51.284 1606.75 53.06C1608.48 54.812 1610.6 55.688 1613.12 55.688C1615.64 55.688 1617.77 54.812 1619.5 53.06C1621.22 51.284 1622.09 49.028 1622.09 46.292C1622.09 43.604 1621.22 41.396 1619.5 39.668C1617.77 37.916 1615.64 37.04 1613.12 37.04C1610.6 37.04 1608.48 37.916 1606.75 39.668C1605.02 41.396 1604.16 43.604 1604.16 46.292ZM1600.2 46.292C1600.2 42.452 1601.45 39.296 1603.94 36.824C1606.44 34.328 1609.5 33.08 1613.12 33.08C1616.75 33.08 1619.81 34.328 1622.3 36.824C1624.8 39.296 1626.05 42.452 1626.05 46.292C1626.05 50.156 1624.8 53.348 1622.3 55.868C1619.81 58.388 1616.75 59.648 1613.12 59.648C1609.5 59.648 1606.44 58.388 1603.94 55.868C1601.45 53.348 1600.2 50.156 1600.2 46.292ZM1643.94 33.8H1647.9V44.348H1650.35L1657.91 33.8H1662.45L1653.45 46.328L1662.45 59H1657.91L1650.35 48.416H1647.9V59H1643.94V48.416H1641.57L1633.79 59H1629.47L1638.47 46.436L1629.47 33.8H1633.79L1641.57 44.348H1643.94V33.8ZM1666.54 59V33.8H1670.5V44.42H1683.46V33.8H1687.42V59H1683.46V48.308H1670.5V59H1666.54ZM1695.71 46.292C1695.71 49.028 1696.58 51.284 1698.3 53.06C1700.03 54.812 1702.16 55.688 1704.68 55.688C1707.2 55.688 1709.32 54.812 1711.05 53.06C1712.78 51.284 1713.64 49.028 1713.64 46.292C1713.64 43.604 1712.78 41.396 1711.05 39.668C1709.32 37.916 1707.2 37.04 1704.68 37.04C1702.16 37.04 1700.03 37.916 1698.3 39.668C1696.58 41.396 1695.71 43.604 1695.71 46.292ZM1691.75 46.292C1691.75 42.452 1693 39.296 1695.5 36.824C1697.99 34.328 1701.05 33.08 1704.68 33.08C1708.3 33.08 1711.36 34.328 1713.86 36.824C1716.35 39.296 1717.6 42.452 1717.6 46.292C1717.6 50.156 1716.35 53.348 1713.86 55.868C1711.36 58.388 1708.3 59.648 1704.68 59.648C1701.05 59.648 1697.99 58.388 1695.5 55.868C1693 53.348 1691.75 50.156 1691.75 46.292ZM1732.71 59V33.8H1736.67V44.456H1737.82L1747.61 33.8H1752.79L1741.24 46.436L1752.79 59H1747.61L1737.82 48.524H1736.67V59H1732.71ZM1761.64 49.064H1776.04V52.808H1761.64V49.064ZM1760.49 59H1755.95L1766.25 33.8H1771.43L1781.8 59H1777.26L1768.91 37.904L1760.49 59ZM1785.91 59V33.8H1789.87V44.456H1791.03L1800.82 33.8H1806L1794.45 46.436L1806 59H1800.82L1791.03 48.524H1789.87V59H1785.91ZM1821.85 53.168C1820.7 51.128 1820.12 48.86 1820.12 46.364C1820.12 43.868 1820.7 41.6 1821.85 39.56C1823 37.52 1824.57 35.936 1826.56 34.808C1828.56 33.656 1830.75 33.08 1833.15 33.08C1835.84 33.08 1838.28 33.8 1840.46 35.24C1842.64 36.68 1844.3 38.636 1845.43 41.108L1841.54 42.548C1840.77 40.844 1839.63 39.5 1838.12 38.516C1836.63 37.532 1834.98 37.04 1833.15 37.04C1830.61 37.04 1828.46 37.928 1826.71 39.704C1824.96 41.456 1824.08 43.676 1824.08 46.364C1824.08 49.052 1824.96 51.284 1826.71 53.06C1828.46 54.812 1830.61 55.688 1833.15 55.688C1835.02 55.688 1836.72 55.172 1838.23 54.14C1839.76 53.084 1840.92 51.656 1841.68 49.856L1845.61 51.26C1844.53 53.828 1842.87 55.868 1840.64 57.38C1838.41 58.892 1835.91 59.648 1833.15 59.648C1830.75 59.648 1828.56 59.084 1826.56 57.956C1824.57 56.804 1823 55.208 1821.85 53.168ZM1860.34 37.688H1853.9V47.12H1860.34C1861.85 47.12 1863.13 46.664 1864.16 45.752C1865.19 44.84 1865.71 43.7 1865.71 42.332C1865.71 40.988 1865.19 39.884 1864.16 39.02C1863.15 38.132 1861.88 37.688 1860.34 37.688ZM1860.34 51.008H1853.9V59H1849.94V33.8H1860.7C1863.27 33.8 1865.41 34.616 1867.11 36.248C1868.81 37.856 1869.67 39.884 1869.67 42.332C1869.67 44.756 1868.75 46.808 1866.93 48.488C1865.13 50.168 1862.93 51.008 1860.34 51.008ZM1877.76 44.42H1890.22V48.308H1877.76V55.112H1891.08V59H1873.8V33.8H1891.08V37.688H1877.76V44.42ZM1894.51 55.292H1920.57V63.176H1916.61V59H1898.47V63.176H1894.51V55.292ZM1895.73 55.292C1897.44 55.292 1898.75 54.752 1899.66 53.672C1900.59 52.568 1901.06 51.164 1901.06 49.46V33.8H1917.62V58.964H1913.66V37.688H1905.02V49.964C1905.02 52.148 1904.18 54.044 1902.5 55.652C1900.85 57.26 1898.71 58.064 1896.09 58.064H1895.01L1894.51 55.292H1895.73ZM1945.53 59H1941.57V39.848L1929.26 59H1924.65V33.8H1928.61V52.772L1940.92 33.8H1945.53V59ZM1962.38 53.168C1961.23 51.128 1960.65 48.86 1960.65 46.364C1960.65 43.868 1961.23 41.6 1962.38 39.56C1963.53 37.52 1965.1 35.936 1967.09 34.808C1969.09 33.656 1971.28 33.08 1973.68 33.08C1976.37 33.08 1978.81 33.8 1980.99 35.24C1983.17 36.68 1984.83 38.636 1985.96 41.108L1982.07 42.548C1981.3 40.844 1980.16 39.5 1978.65 38.516C1977.16 37.532 1975.51 37.04 1973.68 37.04C1971.14 37.04 1968.99 37.928 1967.24 39.704C1965.49 41.456 1964.61 43.676 1964.61 46.364C1964.61 49.052 1965.49 51.284 1967.24 53.06C1968.99 54.812 1971.14 55.688 1973.68 55.688C1975.55 55.688 1977.25 55.172 1978.76 54.14C1980.29 53.084 1981.45 51.656 1982.21 49.856L1986.14 51.26C1985.06 53.828 1983.4 55.868 1981.17 57.38C1978.94 58.892 1976.44 59.648 1973.68 59.648C1971.28 59.648 1969.09 59.084 1967.09 57.956C1965.1 56.804 1963.53 55.208 1962.38 53.168ZM2009.23 33.8V37.688H2001.31V59H1997.35V37.688H1989.43V33.8H2009.23ZM2023.65 37.688H2017.2V47.12H2023.65C2025.16 47.12 2026.43 46.664 2027.46 45.752C2028.49 44.84 2029.01 43.7 2029.01 42.332C2029.01 40.988 2028.49 39.884 2027.46 39.02C2026.45 38.132 2025.18 37.688 2023.65 37.688ZM2023.65 51.008H2017.2V59H2013.24V33.8H2024.01C2026.57 33.8 2028.71 34.616 2030.41 36.248C2032.12 37.856 2032.97 39.884 2032.97 42.332C2032.97 44.756 2032.06 46.808 2030.23 48.488C2028.43 50.168 2026.24 51.008 2023.65 51.008ZM2040.34 46.292C2040.34 49.028 2041.21 51.284 2042.93 53.06C2044.66 54.812 2046.79 55.688 2049.31 55.688C2051.83 55.688 2053.95 54.812 2055.68 53.06C2057.41 51.284 2058.27 49.028 2058.27 46.292C2058.27 43.604 2057.41 41.396 2055.68 39.668C2053.95 37.916 2051.83 37.04 2049.31 37.04C2046.79 37.04 2044.66 37.916 2042.93 39.668C2041.21 41.396 2040.34 43.604 2040.34 46.292ZM2036.38 46.292C2036.38 42.452 2037.63 39.296 2040.13 36.824C2042.62 34.328 2045.68 33.08 2049.31 33.08C2052.93 33.08 2055.99 34.328 2058.49 36.824C2060.98 39.296 2062.23 42.452 2062.23 46.292C2062.23 50.156 2060.98 53.348 2058.49 55.868C2055.99 58.388 2052.93 59.648 2049.31 59.648C2045.68 59.648 2042.62 58.388 2040.13 55.868C2037.63 53.348 2036.38 50.156 2036.38 46.292ZM2087.43 59H2083.47V39.848L2071.16 59H2066.55V33.8H2070.51V52.772L2082.83 33.8H2087.43V59ZM2111.24 33.8V37.688H2103.32V59H2099.36V37.688H2091.44V33.8H2111.24ZM2119.22 44.42H2131.68V48.308H2119.22V55.112H2132.54V59H2115.26V33.8H2132.54V37.688H2119.22V44.42ZM2136.98 55.292C2138.63 55.292 2139.91 54.776 2140.79 53.744C2141.71 52.712 2142.16 51.404 2142.16 49.82V33.8H2158.36V59H2154.4V37.508H2146.12V50.684C2146.12 52.94 2145.32 54.896 2143.71 56.552C2142.13 58.184 2140.07 59 2137.55 59H2136.11V55.292H2136.98ZM2167.33 44.42H2179.79V48.308H2167.33V55.112H2180.65V59H2163.37V33.8H2180.65V37.688H2167.33V44.42ZM2195.64 30.812C2193.84 30.812 2192.3 30.236 2191.03 29.084C2189.78 27.908 2189.16 26.48 2189.16 24.8H2192.29C2192.29 25.712 2192.6 26.468 2193.22 27.068C2193.87 27.644 2194.69 27.932 2195.67 27.932C2196.68 27.932 2197.53 27.632 2198.23 27.032C2198.92 26.408 2199.27 25.664 2199.27 24.8H2202.4C2202.4 26.408 2201.73 27.812 2200.39 29.012C2199.04 30.212 2197.46 30.812 2195.64 30.812ZM2205.93 59H2201.97V39.848L2189.66 59H2185.05V33.8H2189.01V52.772L2201.32 33.8H2205.93V59Z" fill="#245BC6"/>
</g>
<defs>
<clipPath id="clip0_250_3401">
<rect width="2468" height="92" fill="white"/>
</clipPath>
</defs>
</svg>
