<svg width="2468" height="92" viewBox="0 0 2468 92" fill="none" xmlns="http://www.w3.org/2000/svg">
<g clip-path="url(#clip0_250_3397)">
<rect width="2468" height="92" fill="white"/>
<path d="M19.98 33.8H41.22V59H37.26V37.508H23.94V59H19.98V33.8ZM50.227 59L54.367 49.712L45.403 33.8H50.083L56.599 46.04L62.071 33.8H66.715L54.799 59H50.227ZM70.9017 59V33.8H74.8617V44.42H87.8217V33.8H91.7817V59H87.8217V48.308H74.8617V59H70.9017ZM96.8372 59V33.8H100.797V44.456H101.949L111.741 33.8H116.925L105.369 46.436L116.925 59H111.741L101.949 48.524H100.797V59H96.8372ZM139.736 33.8V37.688H131.816V59H127.856V37.688H119.936V33.8H139.736ZM148.539 49.064H162.939V52.808H148.539V49.064ZM147.387 59H142.851L153.147 33.8H158.331L168.699 59H164.163L155.811 37.904L147.387 59ZM183.599 59V33.8H187.559V44.42H200.519V33.8H204.479V59H200.519V48.308H187.559V59H183.599ZM214.322 49.064H228.722V52.808H214.322V49.064ZM213.17 59H208.634L218.93 33.8H224.114L234.482 59H229.946L221.594 37.904L213.17 59ZM238.562 38.444C239.306 36.812 240.398 35.528 241.838 34.592C243.302 33.632 244.934 33.152 246.734 33.152C248.966 33.152 250.838 33.824 252.35 35.168C253.886 36.512 254.654 38.18 254.654 40.172C254.654 41.372 254.366 42.476 253.79 43.484C253.214 44.468 252.41 45.248 251.378 45.824C252.602 46.448 253.574 47.336 254.294 48.488C255.014 49.64 255.374 50.9 255.374 52.268C255.374 54.38 254.546 56.144 252.89 57.56C251.258 58.952 249.206 59.648 246.734 59.648C244.766 59.648 242.99 59.168 241.406 58.208C239.846 57.224 238.67 55.88 237.878 54.176L241.622 52.268C242.054 53.372 242.726 54.248 243.638 54.896C244.55 55.544 245.582 55.868 246.734 55.868C248.078 55.868 249.194 55.484 250.082 54.716C250.97 53.924 251.414 52.94 251.414 51.764C251.414 50.684 251.018 49.772 250.226 49.028C249.434 48.284 248.462 47.912 247.31 47.912H243.854V44.168H247.31C248.27 44.168 249.074 43.844 249.722 43.196C250.37 42.524 250.694 41.708 250.694 40.748C250.694 39.644 250.298 38.732 249.506 38.012C248.738 37.292 247.778 36.932 246.626 36.932C245.642 36.932 244.754 37.22 243.962 37.796C243.17 38.348 242.57 39.116 242.162 40.1L238.562 38.444ZM259.682 59V33.8H263.642V44.42H276.602V33.8H280.562V59H276.602V48.308H263.642V59H259.682ZM290.406 49.064H304.806V52.808H290.406V49.064ZM289.254 59H284.718L295.014 33.8H300.198L310.566 59H306.03L297.678 37.904L289.254 59ZM334.05 33.8V59H330.09V33.8H334.05ZM318.642 33.8V41.828C318.642 43.652 319.158 45.092 320.19 46.148C321.222 47.18 322.554 47.696 324.186 47.696C325.818 47.696 327.21 47.192 328.362 46.184C329.514 45.176 330.09 43.964 330.09 42.548H331.818C331.818 45.044 330.966 47.156 329.262 48.884C327.558 50.612 325.458 51.476 322.962 51.476C320.586 51.476 318.606 50.684 317.022 49.1C315.462 47.492 314.682 45.368 314.682 42.728V33.8H318.642ZM343.066 44.42H355.522V48.308H343.066V55.112H356.386V59H339.106V33.8H356.386V37.688H343.066V44.42ZM360.787 59V33.8H364.747V44.42H377.707V33.8H381.667V59H377.707V48.308H364.747V59H360.787ZM407.603 59H403.643V39.848L391.331 59H386.723V33.8H390.683V52.772L402.995 33.8H407.603V59ZM421.262 37.688C419.87 37.688 418.718 38.084 417.806 38.876C416.894 39.644 416.438 40.616 416.438 41.792C416.438 42.992 416.894 44 417.806 44.816C418.742 45.632 419.894 46.04 421.262 46.04H428.066V37.688H421.262ZM419.246 49.532C417.254 49.316 415.598 48.5 414.278 47.084C412.958 45.644 412.298 43.916 412.298 41.9C412.298 39.5 413.102 37.556 414.71 36.068C416.342 34.556 418.406 33.8 420.902 33.8H432.026V59H428.066V49.892H423.674L416.942 59H412.298L419.246 49.532ZM459.647 37.688H451.439V44.456H459.827C460.787 44.456 461.591 44.108 462.239 43.412C462.911 42.692 463.247 41.816 463.247 40.784C463.247 39.872 462.899 39.128 462.203 38.552C461.531 37.976 460.679 37.688 459.647 37.688ZM459.827 48.272H451.439V55.112H460.007C461.039 55.112 461.891 54.812 462.563 54.212C463.259 53.588 463.607 52.832 463.607 51.944C463.607 50.888 463.247 50.012 462.527 49.316C461.807 48.62 460.907 48.272 459.827 48.272ZM460.403 59H447.479V33.8H460.043C462.107 33.8 463.811 34.412 465.155 35.636C466.523 36.86 467.207 38.408 467.207 40.28C467.207 41.552 466.907 42.728 466.307 43.808C465.707 44.864 464.891 45.68 463.859 46.256C465.011 46.832 465.911 47.672 466.559 48.776C467.231 49.856 467.567 51.056 467.567 52.376C467.567 54.272 466.883 55.856 465.515 57.128C464.147 58.376 462.443 59 460.403 59ZM497.89 59H493.93V33.8H497.89V59ZM476.038 33.8V43.592H482.842C485.098 43.592 487.006 44.336 488.566 45.824C490.126 47.312 490.906 49.136 490.906 51.296C490.906 53.504 490.174 55.34 488.71 56.804C487.246 58.268 485.41 59 483.202 59H472.078V33.8H476.038ZM482.842 55.112C484.018 55.112 484.99 54.752 485.758 54.032C486.55 53.288 486.946 52.376 486.946 51.296C486.946 50.216 486.55 49.316 485.758 48.596C484.99 47.852 484.018 47.48 482.842 47.48H476.038V55.112H482.842ZM515.679 44.132C517.911 44.132 519.795 44.864 521.331 46.328C522.867 47.768 523.635 49.544 523.635 51.656C523.635 53.744 522.915 55.496 521.475 56.912C520.035 58.304 518.223 59 516.039 59H502.935V33.8H519.927V37.652H506.895V44.132H515.679ZM515.679 55.112C516.831 55.112 517.779 54.788 518.523 54.14C519.291 53.468 519.675 52.64 519.675 51.656C519.675 50.624 519.291 49.76 518.523 49.064C517.755 48.368 516.807 48.02 515.679 48.02H506.895V55.112H515.679ZM549.013 59H545.053V39.848L532.741 59H528.133V33.8H532.093V52.772L544.405 33.8H549.013V59ZM564.472 37.688H558.028V47.12H564.472C565.984 47.12 567.256 46.664 568.288 45.752C569.32 44.84 569.836 43.7 569.836 42.332C569.836 40.988 569.32 39.884 568.288 39.02C567.28 38.132 566.008 37.688 564.472 37.688ZM564.472 51.008H558.028V59H554.068V33.8H564.832C567.4 33.8 569.536 34.616 571.24 36.248C572.944 37.856 573.796 39.884 573.796 42.332C573.796 44.756 572.884 46.808 571.06 48.488C569.26 50.168 567.064 51.008 564.472 51.008ZM582.717 49.064H597.117V52.808H582.717V49.064ZM581.565 59H577.029L587.325 33.8H592.509L602.877 59H598.341L589.989 37.904L581.565 59ZM610.954 44.42H623.41V48.308H610.954V55.112H624.274V59H606.994V33.8H624.274V37.688H610.954V44.42ZM647.431 33.8V37.688H639.511V59H635.551V37.688H627.631V33.8H647.431ZM655.407 44.42H667.863V48.308H655.407V55.112H668.727V59H651.447V33.8H668.727V37.688H655.407V44.42ZM683.911 59V33.8H701.551V37.508H687.871V59H683.911ZM708.938 46.292C708.938 49.028 709.802 51.284 711.53 53.06C713.258 54.812 715.382 55.688 717.902 55.688C720.422 55.688 722.546 54.812 724.274 53.06C726.002 51.284 726.866 49.028 726.866 46.292C726.866 43.604 726.002 41.396 724.274 39.668C722.546 37.916 720.422 37.04 717.902 37.04C715.382 37.04 713.258 37.916 711.53 39.668C709.802 41.396 708.938 43.604 708.938 46.292ZM704.978 46.292C704.978 42.452 706.226 39.296 708.722 36.824C711.218 34.328 714.278 33.08 717.902 33.08C721.526 33.08 724.586 34.328 727.082 36.824C729.578 39.296 730.826 42.452 730.826 46.292C730.826 50.156 729.578 53.348 727.082 55.868C724.586 58.388 721.526 59.648 717.902 59.648C714.278 59.648 711.218 58.388 708.722 55.868C706.226 53.348 704.978 50.156 704.978 46.292ZM734.178 55.292H760.242V63.176H756.282V59H738.138V63.176H734.178V55.292ZM735.402 55.292C737.106 55.292 738.414 54.752 739.326 53.672C740.262 52.568 740.73 51.164 740.73 49.46V33.8H757.29V58.964H753.33V37.688H744.69V49.964C744.69 52.148 743.85 54.044 742.17 55.652C740.514 57.26 738.378 58.064 735.762 58.064H734.682L734.178 55.292H735.402ZM795.982 59H792.022V39.848L779.71 59H775.102V33.8H779.062V52.772L791.374 33.8H795.982V59ZM815.061 46.292C815.061 49.028 815.925 51.284 817.653 53.06C819.381 54.812 821.505 55.688 824.025 55.688C826.545 55.688 828.669 54.812 830.397 53.06C832.125 51.284 832.989 49.028 832.989 46.292C832.989 43.604 832.125 41.396 830.397 39.668C828.669 37.916 826.545 37.04 824.025 37.04C821.505 37.04 819.381 37.916 817.653 39.668C815.925 41.396 815.061 43.604 815.061 46.292ZM811.101 46.292C811.101 42.452 812.349 39.296 814.845 36.824C817.341 34.328 820.401 33.08 824.025 33.08C827.649 33.08 830.709 34.328 833.205 36.824C835.701 39.296 836.949 42.452 836.949 46.292C836.949 50.156 835.701 53.348 833.205 55.868C830.709 58.388 827.649 59.648 824.025 59.648C820.401 59.648 817.341 58.388 814.845 55.868C812.349 53.348 811.101 50.156 811.101 46.292ZM854.844 33.8H858.804V44.348H861.252L868.812 33.8H873.348L864.348 46.328L873.348 59H868.812L861.252 48.416H858.804V59H854.844V48.416H852.468L844.692 59H840.372L849.372 46.436L840.372 33.8H844.692L852.468 44.348H854.844V33.8ZM898.318 59H894.358V39.848L882.046 59H877.438V33.8H881.398V52.772L893.71 33.8H898.318V59ZM902.402 55.292H928.466V63.176H924.506V59H906.362V63.176H902.402V55.292ZM903.626 55.292C905.33 55.292 906.638 54.752 907.55 53.672C908.486 52.568 908.954 51.164 908.954 49.46V33.8H925.514V58.964H921.554V37.688H912.914V49.964C912.914 52.148 912.074 54.044 910.394 55.652C908.738 57.26 906.602 58.064 903.986 58.064H902.906L902.402 55.292H903.626ZM937.331 49.064H951.731V52.808H937.331V49.064ZM936.179 59H931.643L941.939 33.8H947.123L957.491 59H952.955L944.603 37.904L936.179 59ZM965.568 44.42H978.024V48.308H965.568V55.112H978.888V59H961.608V33.8H978.888V37.688H965.568V44.42ZM1002.05 33.8V37.688H994.125V59H990.165V37.688H982.245V33.8H1002.05ZM1010.02 44.42H1022.48V48.308H1010.02V55.112H1023.34V59H1006.06V33.8H1023.34V37.688H1010.02V44.42ZM1039.53 53.168C1038.38 51.128 1037.81 48.86 1037.81 46.364C1037.81 43.868 1038.38 41.6 1039.53 39.56C1040.69 37.52 1042.26 35.936 1044.25 34.808C1046.24 33.656 1048.44 33.08 1050.84 33.08C1053.53 33.08 1055.96 33.8 1058.15 35.24C1060.33 36.68 1061.99 38.636 1063.11 41.108L1059.23 42.548C1058.46 40.844 1057.32 39.5 1055.81 38.516C1054.32 37.532 1052.66 37.04 1050.84 37.04C1048.29 37.04 1046.15 37.928 1044.39 39.704C1042.64 41.456 1041.77 43.676 1041.77 46.364C1041.77 49.052 1042.64 51.284 1044.39 53.06C1046.15 54.812 1048.29 55.688 1050.84 55.688C1052.71 55.688 1054.4 55.172 1055.91 54.14C1057.45 53.084 1058.6 51.656 1059.37 49.856L1063.29 51.26C1062.21 53.828 1060.56 55.868 1058.33 57.38C1056.09 58.892 1053.6 59.648 1050.84 59.648C1048.44 59.648 1046.24 59.084 1044.25 57.956C1042.26 56.804 1040.69 55.208 1039.53 53.168ZM1079.79 37.688H1071.59V44.456H1079.97C1080.93 44.456 1081.74 44.108 1082.39 43.412C1083.06 42.692 1083.39 41.816 1083.39 40.784C1083.39 39.872 1083.05 39.128 1082.35 38.552C1081.68 37.976 1080.83 37.688 1079.79 37.688ZM1079.97 48.272H1071.59V55.112H1080.15C1081.19 55.112 1082.04 54.812 1082.71 54.212C1083.41 53.588 1083.75 52.832 1083.75 51.944C1083.75 50.888 1083.39 50.012 1082.67 49.316C1081.95 48.62 1081.05 48.272 1079.97 48.272ZM1080.55 59H1067.63V33.8H1080.19C1082.25 33.8 1083.96 34.412 1085.3 35.636C1086.67 36.86 1087.35 38.408 1087.35 40.28C1087.35 41.552 1087.05 42.728 1086.45 43.808C1085.85 44.864 1085.04 45.68 1084.01 46.256C1085.16 46.832 1086.06 47.672 1086.71 48.776C1087.38 49.856 1087.71 51.056 1087.71 52.376C1087.71 54.272 1087.03 55.856 1085.66 57.128C1084.29 58.376 1082.59 59 1080.55 59ZM1095.46 46.292C1095.46 49.028 1096.33 51.284 1098.06 53.06C1099.78 54.812 1101.91 55.688 1104.43 55.688C1106.95 55.688 1109.07 54.812 1110.8 53.06C1112.53 51.284 1113.39 49.028 1113.39 46.292C1113.39 43.604 1112.53 41.396 1110.8 39.668C1109.07 37.916 1106.95 37.04 1104.43 37.04C1101.91 37.04 1099.78 37.916 1098.06 39.668C1096.33 41.396 1095.46 43.604 1095.46 46.292ZM1091.5 46.292C1091.5 42.452 1092.75 39.296 1095.25 36.824C1097.74 34.328 1100.8 33.08 1104.43 33.08C1108.05 33.08 1111.11 34.328 1113.61 36.824C1116.1 39.296 1117.35 42.452 1117.35 46.292C1117.35 50.156 1116.1 53.348 1113.61 55.868C1111.11 58.388 1108.05 59.648 1104.43 59.648C1100.8 59.648 1097.74 58.388 1095.25 55.868C1092.75 53.348 1091.5 50.156 1091.5 46.292ZM1125.64 44.42H1138.09V48.308H1125.64V55.112H1138.96V59H1121.68V33.8H1138.96V37.688H1125.64V44.42ZM1143.36 59V33.8H1161V37.508H1147.32V59H1143.36ZM1168.38 46.292C1168.38 49.028 1169.25 51.284 1170.98 53.06C1172.7 54.812 1174.83 55.688 1177.35 55.688C1179.87 55.688 1181.99 54.812 1183.72 53.06C1185.45 51.284 1186.31 49.028 1186.31 46.292C1186.31 43.604 1185.45 41.396 1183.72 39.668C1181.99 37.916 1179.87 37.04 1177.35 37.04C1174.83 37.04 1172.7 37.916 1170.98 39.668C1169.25 41.396 1168.38 43.604 1168.38 46.292ZM1164.42 46.292C1164.42 42.452 1165.67 39.296 1168.17 36.824C1170.66 34.328 1173.72 33.08 1177.35 33.08C1180.97 33.08 1184.03 34.328 1186.53 36.824C1189.02 39.296 1190.27 42.452 1190.27 46.292C1190.27 50.156 1189.02 53.348 1186.53 55.868C1184.03 58.388 1180.97 59.648 1177.35 59.648C1173.72 59.648 1170.66 58.388 1168.17 55.868C1165.67 53.348 1164.42 50.156 1164.42 46.292ZM1205.38 33.8H1226.62V59H1222.66V37.508H1209.34V59H1205.38V33.8ZM1235.63 59L1239.77 49.712L1230.8 33.8H1235.48L1242 46.04L1247.47 33.8H1252.11L1240.2 59H1235.63ZM1256.3 59V33.8H1260.26V44.42H1273.22V33.8H1277.18V59H1273.22V48.308H1260.26V59H1256.3ZM1282.24 59V33.8H1286.2V44.456H1287.35L1297.14 33.8H1302.32L1290.77 46.436L1302.32 59H1297.14L1287.35 48.524H1286.2V59H1282.24ZM1325.13 33.8V37.688H1317.21V59H1313.25V37.688H1305.33V33.8H1325.13ZM1333.94 49.064H1348.34V52.808H1333.94V49.064ZM1332.79 59H1328.25L1338.55 33.8H1343.73L1354.1 59H1349.56L1341.21 37.904L1332.79 59ZM1369 59V33.8H1372.96V44.42H1385.92V33.8H1389.88V59H1385.92V48.308H1372.96V59H1369ZM1399.72 49.064H1414.12V52.808H1399.72V49.064ZM1398.57 59H1394.03L1404.33 33.8H1409.51L1419.88 59H1415.34L1406.99 37.904L1398.57 59ZM1423.96 38.444C1424.7 36.812 1425.8 35.528 1427.24 34.592C1428.7 33.632 1430.33 33.152 1432.13 33.152C1434.36 33.152 1436.24 33.824 1437.75 35.168C1439.28 36.512 1440.05 38.18 1440.05 40.172C1440.05 41.372 1439.76 42.476 1439.19 43.484C1438.61 44.468 1437.81 45.248 1436.78 45.824C1438 46.448 1438.97 47.336 1439.69 48.488C1440.41 49.64 1440.77 50.9 1440.77 52.268C1440.77 54.38 1439.94 56.144 1438.29 57.56C1436.66 58.952 1434.6 59.648 1432.13 59.648C1430.16 59.648 1428.39 59.168 1426.8 58.208C1425.24 57.224 1424.07 55.88 1423.28 54.176L1427.02 52.268C1427.45 53.372 1428.12 54.248 1429.04 54.896C1429.95 55.544 1430.98 55.868 1432.13 55.868C1433.48 55.868 1434.59 55.484 1435.48 54.716C1436.37 53.924 1436.81 52.94 1436.81 51.764C1436.81 50.684 1436.42 49.772 1435.62 49.028C1434.83 48.284 1433.86 47.912 1432.71 47.912H1429.25V44.168H1432.71C1433.67 44.168 1434.47 43.844 1435.12 43.196C1435.77 42.524 1436.09 41.708 1436.09 40.748C1436.09 39.644 1435.7 38.732 1434.9 38.012C1434.14 37.292 1433.18 36.932 1432.02 36.932C1431.04 36.932 1430.15 37.22 1429.36 37.796C1428.57 38.348 1427.97 39.116 1427.56 40.1L1423.96 38.444ZM1445.08 59V33.8H1449.04V44.42H1462V33.8H1465.96V59H1462V48.308H1449.04V59H1445.08ZM1475.8 49.064H1490.2V52.808H1475.8V49.064ZM1474.65 59H1470.12L1480.41 33.8H1485.6L1495.96 59H1491.43L1483.08 37.904L1474.65 59ZM1519.45 33.8V59H1515.49V33.8H1519.45ZM1504.04 33.8V41.828C1504.04 43.652 1504.56 45.092 1505.59 46.148C1506.62 47.18 1507.95 47.696 1509.58 47.696C1511.22 47.696 1512.61 47.192 1513.76 46.184C1514.91 45.176 1515.49 43.964 1515.49 42.548H1517.22C1517.22 45.044 1516.36 47.156 1514.66 48.884C1512.96 50.612 1510.86 51.476 1508.36 51.476C1505.98 51.476 1504 50.684 1502.42 49.1C1500.86 47.492 1500.08 45.368 1500.08 42.728V33.8H1504.04ZM1528.46 44.42H1540.92V48.308H1528.46V55.112H1541.78V59H1524.5V33.8H1541.78V37.688H1528.46V44.42ZM1546.19 59V33.8H1550.15V44.42H1563.11V33.8H1567.07V59H1563.11V48.308H1550.15V59H1546.19ZM1593 59H1589.04V39.848L1576.73 59H1572.12V33.8H1576.08V52.772L1588.39 33.8H1593V59ZM1606.66 37.688C1605.27 37.688 1604.12 38.084 1603.2 38.876C1602.29 39.644 1601.84 40.616 1601.84 41.792C1601.84 42.992 1602.29 44 1603.2 44.816C1604.14 45.632 1605.29 46.04 1606.66 46.04H1613.46V37.688H1606.66ZM1604.64 49.532C1602.65 49.316 1601 48.5 1599.68 47.084C1598.36 45.644 1597.7 43.916 1597.7 41.9C1597.7 39.5 1598.5 37.556 1600.11 36.068C1601.74 34.556 1603.8 33.8 1606.3 33.8H1617.42V59H1613.46V49.892H1609.07L1602.34 59H1597.7L1604.64 49.532ZM1645.05 37.688H1636.84V44.456H1645.23C1646.19 44.456 1646.99 44.108 1647.64 43.412C1648.31 42.692 1648.65 41.816 1648.65 40.784C1648.65 39.872 1648.3 39.128 1647.6 38.552C1646.93 37.976 1646.08 37.688 1645.05 37.688ZM1645.23 48.272H1636.84V55.112H1645.41C1646.44 55.112 1647.29 54.812 1647.96 54.212C1648.66 53.588 1649.01 52.832 1649.01 51.944C1649.01 50.888 1648.65 50.012 1647.93 49.316C1647.21 48.62 1646.31 48.272 1645.23 48.272ZM1645.8 59H1632.88V33.8H1645.44C1647.51 33.8 1649.21 34.412 1650.55 35.636C1651.92 36.86 1652.61 38.408 1652.61 40.28C1652.61 41.552 1652.31 42.728 1651.71 43.808C1651.11 44.864 1650.29 45.68 1649.26 46.256C1650.41 46.832 1651.31 47.672 1651.96 48.776C1652.63 49.856 1652.97 51.056 1652.97 52.376C1652.97 54.272 1652.28 55.856 1650.91 57.128C1649.55 58.376 1647.84 59 1645.8 59ZM1683.29 59H1679.33V33.8H1683.29V59ZM1661.44 33.8V43.592H1668.24C1670.5 43.592 1672.4 44.336 1673.96 45.824C1675.52 47.312 1676.3 49.136 1676.3 51.296C1676.3 53.504 1675.57 55.34 1674.11 56.804C1672.64 58.268 1670.81 59 1668.6 59H1657.48V33.8H1661.44ZM1668.24 55.112C1669.42 55.112 1670.39 54.752 1671.16 54.032C1671.95 53.288 1672.34 52.376 1672.34 51.296C1672.34 50.216 1671.95 49.316 1671.16 48.596C1670.39 47.852 1669.42 47.48 1668.24 47.48H1661.44V55.112H1668.24ZM1701.08 44.132C1703.31 44.132 1705.19 44.864 1706.73 46.328C1708.27 47.768 1709.03 49.544 1709.03 51.656C1709.03 53.744 1708.31 55.496 1706.87 56.912C1705.43 58.304 1703.62 59 1701.44 59H1688.33V33.8H1705.33V37.652H1692.29V44.132H1701.08ZM1701.08 55.112C1702.23 55.112 1703.18 54.788 1703.92 54.14C1704.69 53.468 1705.07 52.64 1705.07 51.656C1705.07 50.624 1704.69 49.76 1703.92 49.064C1703.15 48.368 1702.21 48.02 1701.08 48.02H1692.29V55.112H1701.08ZM1734.41 59H1730.45V39.848L1718.14 59H1713.53V33.8H1717.49V52.772L1729.8 33.8H1734.41V59ZM1749.87 37.688H1743.43V47.12H1749.87C1751.38 47.12 1752.65 46.664 1753.69 45.752C1754.72 44.84 1755.23 43.7 1755.23 42.332C1755.23 40.988 1754.72 39.884 1753.69 39.02C1752.68 38.132 1751.41 37.688 1749.87 37.688ZM1749.87 51.008H1743.43V59H1739.47V33.8H1750.23C1752.8 33.8 1754.93 34.616 1756.64 36.248C1758.34 37.856 1759.19 39.884 1759.19 42.332C1759.19 44.756 1758.28 46.808 1756.46 48.488C1754.66 50.168 1752.46 51.008 1749.87 51.008ZM1768.12 49.064H1782.52V52.808H1768.12V49.064ZM1766.96 59H1762.43L1772.72 33.8H1777.91L1788.28 59H1783.74L1775.39 37.904L1766.96 59ZM1796.35 44.42H1808.81V48.308H1796.35V55.112H1809.67V59H1792.39V33.8H1809.67V37.688H1796.35V44.42ZM1832.83 33.8V37.688H1824.91V59H1820.95V37.688H1813.03V33.8H1832.83ZM1840.81 44.42H1853.26V48.308H1840.81V55.112H1854.13V59H1836.85V33.8H1854.13V37.688H1840.81V44.42ZM1869.31 59V33.8H1886.95V37.508H1873.27V59H1869.31ZM1894.34 46.292C1894.34 49.028 1895.2 51.284 1896.93 53.06C1898.66 54.812 1900.78 55.688 1903.3 55.688C1905.82 55.688 1907.94 54.812 1909.67 53.06C1911.4 51.284 1912.26 49.028 1912.26 46.292C1912.26 43.604 1911.4 41.396 1909.67 39.668C1907.94 37.916 1905.82 37.04 1903.3 37.04C1900.78 37.04 1898.66 37.916 1896.93 39.668C1895.2 41.396 1894.34 43.604 1894.34 46.292ZM1890.38 46.292C1890.38 42.452 1891.62 39.296 1894.12 36.824C1896.62 34.328 1899.68 33.08 1903.3 33.08C1906.92 33.08 1909.98 34.328 1912.48 36.824C1914.98 39.296 1916.22 42.452 1916.22 46.292C1916.22 50.156 1914.98 53.348 1912.48 55.868C1909.98 58.388 1906.92 59.648 1903.3 59.648C1899.68 59.648 1896.62 58.388 1894.12 55.868C1891.62 53.348 1890.38 50.156 1890.38 46.292ZM1919.58 55.292H1945.64V63.176H1941.68V59H1923.54V63.176H1919.58V55.292ZM1920.8 55.292C1922.5 55.292 1923.81 54.752 1924.72 53.672C1925.66 52.568 1926.13 51.164 1926.13 49.46V33.8H1942.69V58.964H1938.73V37.688H1930.09V49.964C1930.09 52.148 1929.25 54.044 1927.57 55.652C1925.91 57.26 1923.78 58.064 1921.16 58.064H1920.08L1919.58 55.292H1920.8ZM1981.38 59H1977.42V39.848L1965.11 59H1960.5V33.8H1964.46V52.772L1976.77 33.8H1981.38V59ZM2000.46 46.292C2000.46 49.028 2001.32 51.284 2003.05 53.06C2004.78 54.812 2006.9 55.688 2009.42 55.688C2011.94 55.688 2014.07 54.812 2015.8 53.06C2017.52 51.284 2018.39 49.028 2018.39 46.292C2018.39 43.604 2017.52 41.396 2015.8 39.668C2014.07 37.916 2011.94 37.04 2009.42 37.04C2006.9 37.04 2004.78 37.916 2003.05 39.668C2001.32 41.396 2000.46 43.604 2000.46 46.292ZM1996.5 46.292C1996.5 42.452 1997.75 39.296 2000.24 36.824C2002.74 34.328 2005.8 33.08 2009.42 33.08C2013.05 33.08 2016.11 34.328 2018.6 36.824C2021.1 39.296 2022.35 42.452 2022.35 46.292C2022.35 50.156 2021.1 53.348 2018.6 55.868C2016.11 58.388 2013.05 59.648 2009.42 59.648C2005.8 59.648 2002.74 58.388 2000.24 55.868C1997.75 53.348 1996.5 50.156 1996.5 46.292ZM2040.24 33.8H2044.2V44.348H2046.65L2054.21 33.8H2058.75L2049.75 46.328L2058.75 59H2054.21L2046.65 48.416H2044.2V59H2040.24V48.416H2037.87L2030.09 59H2025.77L2034.77 46.436L2025.77 33.8H2030.09L2037.87 44.348H2040.24V33.8ZM2083.72 59H2079.76V39.848L2067.44 59H2062.84V33.8H2066.8V52.772L2079.11 33.8H2083.72V59ZM2087.8 55.292H2113.86V63.176H2109.9V59H2091.76V63.176H2087.8V55.292ZM2089.02 55.292C2090.73 55.292 2092.04 54.752 2092.95 53.672C2093.88 52.568 2094.35 51.164 2094.35 49.46V33.8H2110.91V58.964H2106.95V37.688H2098.31V49.964C2098.31 52.148 2097.47 54.044 2095.79 55.652C2094.14 57.26 2092 58.064 2089.38 58.064H2088.3L2087.8 55.292H2089.02ZM2122.73 49.064H2137.13V52.808H2122.73V49.064ZM2121.58 59H2117.04L2127.34 33.8H2132.52L2142.89 59H2138.35L2130 37.904L2121.58 59ZM2150.97 44.42H2163.42V48.308H2150.97V55.112H2164.29V59H2147.01V33.8H2164.29V37.688H2150.97V44.42ZM2187.44 33.8V37.688H2179.52V59H2175.56V37.688H2167.64V33.8H2187.44ZM2195.42 44.42H2207.88V48.308H2195.42V55.112H2208.74V59H2191.46V33.8H2208.74V37.688H2195.42V44.42ZM2224.93 53.168C2223.78 51.128 2223.2 48.86 2223.2 46.364C2223.2 43.868 2223.78 41.6 2224.93 39.56C2226.08 37.52 2227.66 35.936 2229.65 34.808C2231.64 33.656 2233.84 33.08 2236.24 33.08C2238.92 33.08 2241.36 33.8 2243.54 35.24C2245.73 36.68 2247.38 38.636 2248.51 41.108L2244.62 42.548C2243.86 40.844 2242.72 39.5 2241.2 38.516C2239.72 37.532 2238.06 37.04 2236.24 37.04C2233.69 37.04 2231.54 37.928 2229.79 39.704C2228.04 41.456 2227.16 43.676 2227.16 46.364C2227.16 49.052 2228.04 51.284 2229.79 53.06C2231.54 54.812 2233.69 55.688 2236.24 55.688C2238.11 55.688 2239.8 55.172 2241.31 54.14C2242.85 53.084 2244 51.656 2244.77 49.856L2248.69 51.26C2247.61 53.828 2245.96 55.868 2243.72 57.38C2241.49 58.892 2239 59.648 2236.24 59.648C2233.84 59.648 2231.64 59.084 2229.65 57.956C2227.66 56.804 2226.08 55.208 2224.93 53.168ZM2265.19 37.688H2256.98V44.456H2265.37C2266.33 44.456 2267.14 44.108 2267.78 43.412C2268.46 42.692 2268.79 41.816 2268.79 40.784C2268.79 39.872 2268.44 39.128 2267.75 38.552C2267.08 37.976 2266.22 37.688 2265.19 37.688ZM2265.37 48.272H2256.98V55.112H2265.55C2266.58 55.112 2267.44 54.812 2268.11 54.212C2268.8 53.588 2269.15 52.832 2269.15 51.944C2269.15 50.888 2268.79 50.012 2268.07 49.316C2267.35 48.62 2266.45 48.272 2265.37 48.272ZM2265.95 59H2253.02V33.8H2265.59C2267.65 33.8 2269.36 34.412 2270.7 35.636C2272.07 36.86 2272.75 38.408 2272.75 40.28C2272.75 41.552 2272.45 42.728 2271.85 43.808C2271.25 44.864 2270.44 45.68 2269.4 46.256C2270.56 46.832 2271.46 47.672 2272.1 48.776C2272.78 49.856 2273.11 51.056 2273.11 52.376C2273.11 54.272 2272.43 55.856 2271.06 57.128C2269.69 58.376 2267.99 59 2265.95 59ZM2280.86 46.292C2280.86 49.028 2281.73 51.284 2283.46 53.06C2285.18 54.812 2287.31 55.688 2289.83 55.688C2292.35 55.688 2294.47 54.812 2296.2 53.06C2297.93 51.284 2298.79 49.028 2298.79 46.292C2298.79 43.604 2297.93 41.396 2296.2 39.668C2294.47 37.916 2292.35 37.04 2289.83 37.04C2287.31 37.04 2285.18 37.916 2283.46 39.668C2281.73 41.396 2280.86 43.604 2280.86 46.292ZM2276.9 46.292C2276.9 42.452 2278.15 39.296 2280.65 36.824C2283.14 34.328 2286.2 33.08 2289.83 33.08C2293.45 33.08 2296.51 34.328 2299.01 36.824C2301.5 39.296 2302.75 42.452 2302.75 46.292C2302.75 50.156 2301.5 53.348 2299.01 55.868C2296.51 58.388 2293.45 59.648 2289.83 59.648C2286.2 59.648 2283.14 58.388 2280.65 55.868C2278.15 53.348 2276.9 50.156 2276.9 46.292ZM2311.03 44.42H2323.49V48.308H2311.03V55.112H2324.35V59H2307.07V33.8H2324.35V37.688H2311.03V44.42ZM2328.76 59V33.8H2346.4V37.508H2332.72V59H2328.76ZM2353.78 46.292C2353.78 49.028 2354.65 51.284 2356.37 53.06C2358.1 54.812 2360.23 55.688 2362.75 55.688C2365.27 55.688 2367.39 54.812 2369.12 53.06C2370.85 51.284 2371.71 49.028 2371.71 46.292C2371.71 43.604 2370.85 41.396 2369.12 39.668C2367.39 37.916 2365.27 37.04 2362.75 37.04C2360.23 37.04 2358.1 37.916 2356.37 39.668C2354.65 41.396 2353.78 43.604 2353.78 46.292ZM2349.82 46.292C2349.82 42.452 2351.07 39.296 2353.57 36.824C2356.06 34.328 2359.12 33.08 2362.75 33.08C2366.37 33.08 2369.43 34.328 2371.93 36.824C2374.42 39.296 2375.67 42.452 2375.67 46.292C2375.67 50.156 2374.42 53.348 2371.93 55.868C2369.43 58.388 2366.37 59.648 2362.75 59.648C2359.12 59.648 2356.06 58.388 2353.57 55.868C2351.07 53.348 2349.82 50.156 2349.82 46.292Z" fill="#245BC6"/>
</g>
<defs>
<clipPath id="clip0_250_3397">
<rect width="2468" height="92" fill="white"/>
</clipPath>
</defs>
</svg>
