<svg width="1540" height="550" viewBox="0 0 1540 550" fill="none" xmlns="http://www.w3.org/2000/svg">
<g clip-path="url(#clip0_250_3379)">
<path d="M-17 476.129C-17 476.129 937.18 516.719 1173.94 413.551C1410.7 310.383 1188.22 -29 1188.22 -29" stroke="#245BC6" stroke-width="60"/>
<path d="M-17 476.53C-17 476.53 964.18 515.912 1182.23 413.824C1400.28 311.735 1192.94 -11 1192.94 -11" stroke="white" stroke-width="6" stroke-dasharray="29 29"/>
<path d="M-11.5797 336.353C-11.5797 336.353 576.442 345.303 876.228 296.229C1192.88 244.395 1555.45 113.056 1555.45 113.056" stroke="#245BC6" stroke-width="60"/>
<path d="M-11.5797 336.353C-11.5797 336.353 576.442 345.303 876.228 296.229C1192.88 244.395 1555.45 113.056 1555.45 113.056" stroke="white" stroke-width="6" stroke-dasharray="29 29"/>
<path d="M8 64.4303C8 64.4303 905.688 9.27975 911.825 114.613C916.24 190.383 137.742 122.795 187.558 178.578C248.798 247.153 1561 459 1561 459" stroke="#245BC6" stroke-width="60" stroke-linecap="round"/>
<path d="M8 64.4009C8 64.4009 906.333 9.36269 912.474 114.481C916.892 190.097 128.447 139.34 190.067 180.76C288.24 246.751 1552 460 1552 460" stroke="white" stroke-width="6" stroke-dasharray="29 29"/>
</g>
<defs>
<clipPath id="clip0_250_3379">
<rect width="1540" height="550" fill="white"/>
</clipPath>
</defs>
</svg>
