<svg width="468" height="72" viewBox="0 0 468 72" fill="none" xmlns="http://www.w3.org/2000/svg">
<path d="M9.10049 64.2V6.6C9.10049 1.89599 4.68449 2.952 0.172494 2.75999V1.8H23.7885V2.75999C19.2765 2.952 14.8605 1.89599 14.8605 6.6V28.296H37.6125V6.6C37.6125 1.89599 33.1965 2.952 28.6845 2.75999V1.8H52.3005V2.75999C47.7885 2.952 43.3725 1.89599 43.3725 6.6V64.2C43.3725 68.904 47.7885 67.848 52.3005 68.04V69H28.6845V68.04C33.1965 67.848 37.6125 68.904 37.6125 64.2V30.216H14.8605V64.2C14.8605 68.904 19.2765 67.848 23.7885 68.04V69H0.172494V68.04C4.68449 67.848 9.10049 68.904 9.10049 64.2ZM85.4662 71.688C84.8902 71.592 84.4102 71.304 83.9302 70.824C83.4502 70.44 79.8982 67.56 79.4182 67.272C77.1142 65.448 75.2902 64.488 73.3702 62.28C72.0262 60.648 72.1222 57.672 71.8342 55.656C71.4502 53.544 70.2022 51.528 69.8182 49.32C69.6262 48.552 69.1462 45.384 69.0502 45C68.2822 40.296 69.3382 35.784 69.8182 31.176C69.8182 30.888 70.0102 28.68 70.1062 28.488C70.2022 27.24 71.0662 21.672 71.2582 20.424C71.5462 18.312 72.2182 16.872 73.9462 15.432L79.1302 11.88C80.0902 11.208 87.1942 5.64 87.9622 4.96799C88.5382 4.584 89.3062 4.2 89.9782 3.912C91.5142 3.912 99.0982 3.72 100.634 3.62399C101.978 3.62399 102.842 3.528 103.994 3.912C104.282 4.10399 107.546 5.352 108.698 5.832C111.578 7.08 113.018 10.056 114.746 12.456L116.378 14.664C118.49 17.64 118.106 21 118.874 24.552C118.97 25.32 120.89 31.272 121.082 32.04C122.138 35.88 121.562 39.144 121.082 42.984L120.506 49.608C120.314 51.144 119.354 57.576 119.066 59.016C118.97 59.784 118.586 60.456 118.106 60.936C116.954 61.992 112.826 66.312 111.962 66.984C110.906 68.04 107.738 70.728 107.546 70.824L106.49 71.4C106.298 71.496 101.21 71.88 99.2902 71.976H91.1302C90.2662 71.976 86.3302 71.784 85.4662 71.688ZM100.922 67.272C100.922 67.272 101.114 67.464 101.21 67.56C101.69 67.752 101.69 66.792 101.786 66.792H102.074C102.17 66.696 102.362 66.504 102.362 66.504C101.114 66.12 100.25 63.912 98.7142 65.64C99.4822 66.408 100.634 66.024 100.922 66.504C101.018 66.6 100.922 67.176 100.922 67.272ZM102.362 67.272C102.074 67.272 102.074 67.848 102.362 67.848C102.65 67.848 102.65 67.272 102.362 67.272ZM97.3702 66.984C97.1782 66.984 97.1782 67.56 97.3702 67.56C97.6582 67.56 97.6582 66.984 97.3702 66.984ZM98.5222 66.504V66.984L99.0022 66.792C98.9062 66.6 98.7142 66.408 98.5222 66.504ZM105.146 66.504C105.05 66.504 105.05 66.696 105.146 66.792C105.53 66.888 106.586 66.312 106.682 65.928C106.49 65.928 105.338 65.928 105.146 66.504ZM97.1782 65.928V66.504C97.8502 66.888 98.1382 65.352 98.2342 65.064H97.6582C97.3702 64.68 98.1382 64.68 97.9462 64.2C97.1782 63.72 97.2742 65.448 96.3142 65.064C96.5062 65.16 97.0822 65.736 97.1782 65.928ZM103.514 65.64C103.418 65.736 103.226 66.312 103.226 66.504C103.61 66.792 104.474 65.832 104.57 65.352C104.186 65.256 103.61 65.352 103.514 65.64ZM94.5862 65.64L94.8742 66.216V65.64H94.5862ZM96.8902 66.216C96.8902 66.024 96.5062 66.024 96.6022 66.216C96.6022 66.408 96.7942 66.408 96.8902 66.216ZM105.146 65.352C104.858 65.352 104.858 65.928 105.146 65.928C105.338 65.928 105.338 65.352 105.146 65.352ZM102.074 65.064C101.786 65.064 101.786 65.64 102.074 65.64C102.362 65.64 102.362 65.064 102.074 65.064ZM102.938 63.912C102.938 64.104 103.13 64.872 103.226 65.064C103.898 65.448 104.474 63.144 104.282 62.568C104.186 62.472 103.802 62.28 103.706 62.28C103.514 62.856 103.322 63.432 102.65 63.144C102.65 63.336 102.842 63.816 102.938 63.912ZM105.626 64.776C106.586 65.352 108.122 65.16 108.41 63.912C108.506 63.336 107.546 63.336 107.258 62.856C107.258 63.144 106.874 63.816 106.682 63.912C106.586 64.008 106.106 64.008 105.914 63.912V63.72C105.722 63.432 104.954 64.296 105.626 64.776ZM101.498 64.2C101.69 65.352 102.554 64.584 102.362 64.2H101.498ZM100.634 63.72C100.634 63.72 100.826 63.912 100.922 63.912C101.306 63.72 101.306 63.336 100.922 63.144C100.826 63.24 100.634 63.624 100.634 63.72ZM99.8662 63.144C99.5782 63.144 99.5782 63.72 99.8662 63.72C100.154 63.72 100.154 63.144 99.8662 63.144ZM101.21 62.568L101.498 62.856V62.568H101.21ZM107.834 62.28C107.642 62.28 107.642 62.664 107.834 62.568C108.026 62.568 108.026 62.376 107.834 62.28ZM109.274 62.28C108.986 62.28 108.986 62.856 109.274 62.856C109.562 62.856 109.562 62.28 109.274 62.28ZM105.338 62.28C105.434 62.184 105.05 62.184 105.146 62.28C105.146 62.472 105.338 62.472 105.338 62.28ZM106.682 61.992C106.49 61.992 106.49 62.568 106.682 62.568C106.97 62.568 106.97 61.992 106.682 61.992ZM104.282 61.512V61.8C104.57 61.8 104.954 61.8 105.146 61.512H104.282ZM105.914 61.512C106.01 61.512 106.01 61.704 105.914 61.8C106.586 61.416 106.106 60.552 105.914 60.168C105.914 60.168 105.722 60.168 105.626 60.168C104.858 60.552 105.722 61.128 105.914 61.512ZM108.122 61.224C107.834 61.224 107.834 61.8 108.122 61.8C108.41 61.8 108.41 61.224 108.122 61.224ZM106.682 60.168V61.224H106.97L107.834 59.592C107.642 59.496 106.778 59.976 106.682 60.168ZM109.274 60.648V60.936L109.562 60.648H109.274ZM107.258 59.016C106.97 59.016 106.97 59.592 107.258 59.592C107.546 59.592 107.546 59.016 107.258 59.016ZM106.97 58.44C106.682 58.44 106.682 59.016 106.97 59.016C107.258 59.016 107.258 58.44 106.97 58.44ZM107.258 57.864L107.834 58.728C108.602 58.44 107.738 57.384 107.258 57.576C107.258 57.672 107.258 57.864 107.258 57.864ZM109.754 58.44C109.754 58.248 109.37 58.632 109.562 58.728C109.754 58.824 109.85 58.632 109.754 58.44ZM93.8182 58.152C94.1062 58.248 95.8342 58.44 96.3142 58.44C97.0822 58.536 98.1382 58.44 98.7142 57.864C99.0982 57.576 100.826 55.848 101.21 55.368C103.322 53.256 103.418 49.992 103.706 47.208C103.898 45.672 103.994 44.232 103.994 42.696C103.898 41.928 103.706 34.536 103.706 33.672C103.61 32.04 103.61 24.264 103.706 22.632C103.226 18.696 101.978 17.16 98.2342 16.008C96.9862 15.72 96.5062 15.624 95.1622 16.008L91.8982 17.16C90.9382 17.448 90.0742 18.024 89.6902 19.08C86.9062 26.856 86.4262 34.728 86.0422 42.984V48.552C86.0422 48.552 86.5222 50.184 86.6182 50.76C86.8102 51.432 87.1942 52.392 87.7702 52.968L92.3782 57.576C92.4742 57.576 92.8582 57.864 92.9542 57.864C93.1462 57.96 93.7222 58.152 93.8182 58.152ZM81.1462 56.808C80.8582 56.808 80.8582 57.384 81.1462 57.384C81.4342 57.384 81.4342 56.808 81.1462 56.808ZM82.2022 55.656C82.1062 55.56 81.7222 55.944 81.9142 55.944C82.1062 56.04 82.2982 55.848 82.2022 55.656ZM79.1302 53.832V55.176C80.1862 54.888 79.6102 53.832 79.7062 53.256C79.8022 53.16 80.2822 52.776 80.2822 52.68V52.392C80.3782 52.296 80.5702 52.104 80.5702 52.104L80.2822 51.816C79.5142 52.296 79.2262 52.872 79.1302 53.832ZM77.8822 54.408C77.5942 54.408 77.5942 54.888 77.8822 54.888C78.1702 54.888 78.1702 54.408 77.8822 54.408ZM77.0182 53.544C77.5942 54.6 78.2662 52.488 78.1702 52.104C77.6902 51.912 76.8262 53.16 77.0182 53.544ZM78.6502 53.256L78.1702 53.544C78.3622 53.64 78.6502 53.448 78.6502 53.256ZM78.8422 51.528C78.9382 51.336 78.6502 51.336 78.6502 51.528C78.6502 51.72 78.8422 51.72 78.8422 51.528ZM77.8822 50.76V51.048C78.9382 51.336 79.2262 49.224 77.5942 49.608V50.76H77.8822ZM75.5782 50.184C75.7702 50.376 76.5382 50.76 76.7302 50.76V49.896C76.7302 49.896 77.0182 49.416 77.0182 49.32C77.3062 47.784 75.8662 48.168 76.1542 48.744C75.6742 48.84 75.1942 48.84 74.8102 48.552C74.6182 48.552 74.4262 48.936 74.5222 49.032C74.6182 49.128 75.2902 49.608 75.3862 49.608C75.3862 49.704 75.5782 50.184 75.5782 50.184ZM79.9942 50.472C79.7062 50.472 79.7062 51.048 79.9942 51.048C80.2822 51.048 80.2822 50.472 79.9942 50.472ZM79.7062 49.896C79.9942 50.184 80.4742 50.28 80.8582 50.184C81.1462 49.704 80.6662 49.224 80.2822 49.032L79.7062 49.608C79.7062 49.704 79.7062 49.896 79.7062 49.896ZM76.4422 49.32C76.7302 49.32 76.7302 49.896 76.4422 49.896C76.1542 49.896 76.1542 49.32 76.4422 49.32ZM110.618 49.032C110.426 49.032 110.426 49.416 110.618 49.32C110.714 49.32 110.714 49.128 110.618 49.032ZM112.826 49.32C112.826 49.224 112.538 49.224 112.538 49.32C112.634 49.512 112.826 49.512 112.826 49.32ZM111.482 48.744C111.482 48.84 111.866 49.032 111.962 49.032C112.058 49.128 112.25 49.128 112.25 49.032C112.058 48.744 111.77 48.648 111.482 48.552C111.386 48.552 111.386 48.744 111.482 48.744ZM78.4582 48.072C78.2662 48.072 77.8822 48.36 77.8822 48.552C78.5542 48.648 79.4182 48.264 79.7062 47.784C79.5142 47.784 78.6502 47.976 78.4582 48.072ZM113.882 48.264C113.882 48.264 113.69 48.456 113.594 48.552C113.882 48.648 114.074 48.36 114.17 48.264C114.17 48.168 113.978 48.168 113.882 48.264ZM74.5222 46.92L75.0982 48.072H75.5782C75.9622 47.88 77.7862 47.304 78.1702 47.208C78.2662 46.248 79.3222 45.96 78.8422 45C79.8022 44.712 79.7062 45.576 79.9942 46.056C80.3782 46.632 80.9542 44.616 79.7062 44.424V42.408L80.2822 42.024C78.6502 40.872 79.1302 42.984 78.8422 43.56C78.8422 43.656 77.1142 44.424 77.5942 45H78.1702C78.3622 45.96 77.4982 46.44 76.7302 45.768L77.0182 45.48C76.6342 45.192 76.2502 44.904 76.1542 44.424C76.0582 44.52 75.6742 44.712 75.5782 44.712C75.5782 44.712 75.1942 44.712 75.0982 44.712C74.4262 45.192 74.3302 46.152 74.5222 46.92ZM75.5782 47.208H75.8662C75.9622 47.4 75.7702 47.688 75.5782 47.784V47.208ZM111.77 47.496C111.482 47.496 111.482 48.072 111.77 48.072C111.962 48.072 111.962 47.496 111.77 47.496ZM80.2822 47.208C80.2822 47.208 80.5702 47.4 80.5702 47.496C81.1462 47.208 80.7622 46.344 80.2822 46.632V47.208ZM113.882 46.92C113.594 46.92 113.594 47.496 113.882 47.496C114.17 47.496 114.17 46.92 113.882 46.92ZM112.25 46.632C112.25 46.632 112.25 46.824 112.25 46.92H112.538V46.344C112.538 46.344 112.346 46.536 112.25 46.632ZM113.018 46.632C113.018 46.632 113.018 46.824 113.018 46.92L113.882 46.632C113.882 45.96 113.018 46.632 113.018 46.632ZM111.482 46.056C111.386 46.152 111.386 46.536 111.482 46.632L112.25 45.768C112.25 45.768 112.058 45.768 111.962 45.768C111.866 45.768 111.482 46.056 111.482 46.056ZM75.8662 45.192C76.0582 45.288 76.0582 45.96 75.8662 46.056C75.6742 46.152 75.6742 45.096 75.8662 45.192ZM111.482 45.192C111.482 45.288 111.674 45.48 111.77 45.48C112.058 45.192 112.442 44.904 112.538 44.424C112.442 44.424 111.194 44.712 111.482 45.192ZM73.3702 43.848V45.192C73.4662 45.192 73.6582 45.192 73.6582 45.192C74.2342 45 74.0422 44.328 73.9462 43.848H73.3702ZM113.594 44.712V45H113.882L113.594 44.712ZM113.306 43.56C113.306 43.56 113.882 44.328 114.17 44.136C114.266 44.04 114.266 43.656 114.17 43.56C114.074 43.464 113.498 43.272 113.306 43.272C113.306 43.368 113.306 43.56 113.306 43.56ZM77.3062 43.272V43.848H77.8822V43.272H77.3062ZM111.482 43.272C111.386 43.368 111.386 43.56 111.482 43.56C111.77 44.04 112.058 42.792 111.962 42.408H111.77C111.674 42.504 111.482 43.08 111.482 43.272ZM77.0182 42.984C76.9222 42.888 76.5382 43.176 76.7302 43.272C76.8262 43.368 77.1142 43.176 77.0182 42.984ZM112.538 42.984C112.442 42.984 112.442 43.368 112.538 43.272C112.73 43.272 112.73 43.08 112.538 42.984ZM75.0982 42.696C75.8662 42.792 75.6742 43.176 76.4422 42.984V42.408C77.0182 42.312 77.8822 43.176 78.1702 42.408C78.3622 41.832 78.1702 41.448 78.6502 41.16C78.6502 41.064 79.1302 40.872 79.1302 40.872C79.2262 40.776 78.8422 40.104 78.8422 40.008C78.8422 39.912 79.1302 39.528 79.1302 39.432C79.1302 39.336 78.9382 38.952 78.8422 38.856C78.5542 38.28 78.2662 37.128 77.8822 36.648C77.5942 36.36 76.8262 36.936 77.0182 37.512C77.0182 37.704 77.3062 37.896 77.5942 37.8C77.6902 37.896 76.5382 38.856 76.4422 39.144C76.3462 38.664 74.6182 37.992 74.5222 38.088V38.664H74.2342V40.296C75.2902 40.488 76.2502 39.816 77.5942 40.008C77.6902 40.68 77.4982 41.352 77.3062 42.024H76.7302C76.6342 41.928 76.5382 41.16 76.4422 41.16C76.3462 41.064 75.7702 41.064 75.5782 41.16C75.5782 41.16 75.1942 41.64 75.0982 41.736C74.6182 41.928 73.5622 41.256 73.3702 41.16V42.024H72.5062C73.1782 42.792 74.1382 42.6 75.0982 42.696ZM113.018 42.696C112.922 42.696 112.922 43.08 113.018 42.984C113.21 42.984 113.21 42.792 113.018 42.696ZM114.746 42.024C114.458 42.024 114.458 42.408 114.746 42.408C115.034 42.408 115.034 42.024 114.746 42.024ZM111.482 41.448C111.866 42.696 112.826 41.256 112.826 40.584C112.442 40.776 111.29 40.872 111.482 41.448ZM75.8662 41.448C76.1542 41.448 76.1542 42.024 75.8662 42.024C75.5782 42.024 75.5782 41.448 75.8662 41.448ZM79.1302 41.16C78.8422 41.16 78.8422 41.736 79.1302 41.736C79.4182 41.736 79.4182 41.16 79.1302 41.16ZM80.5702 40.296V40.584L81.1462 40.296H80.5702ZM73.3702 40.008C73.0822 40.008 73.0822 40.584 73.3702 40.584C73.6582 40.584 73.6582 40.008 73.3702 40.008ZM111.482 40.008V40.296L111.77 40.008H111.482ZM73.0822 39.72C72.7942 39.72 72.7942 40.296 73.0822 40.296C73.3702 40.296 73.3702 39.72 73.0822 39.72ZM74.5222 39.72C74.8102 39.72 74.8102 40.296 74.5222 40.296C74.2342 40.296 74.2342 39.72 74.5222 39.72ZM77.5942 39.432L77.0182 38.856C77.4022 38.184 78.6502 38.952 78.4582 39.72C78.1702 39.816 77.6902 39.528 77.5942 39.432ZM112.25 38.856C111.962 38.856 111.962 39.432 112.25 39.432C112.538 39.432 112.538 38.856 112.25 38.856ZM76.7302 38.088C76.7302 37.896 76.3462 37.896 76.4422 38.088C76.4422 38.28 76.6342 38.28 76.7302 38.088ZM79.1302 37.224C79.4182 37.608 79.8022 37.608 79.9942 37.224H79.1302ZM74.8102 36.936C75.0022 37.128 75.6742 37.32 75.8662 37.224V35.592C75.8662 35.496 75.3862 34.632 75.3862 34.536C75.3862 34.44 75.5782 33.96 75.5782 33.96V33.096C75.5782 33 76.2502 32.712 76.4422 32.616L78.6502 31.464H78.8422L79.7062 32.04C78.3622 32.616 75.9622 32.904 76.4422 35.112C76.5382 35.016 77.1142 34.824 77.3062 34.824C77.3062 34.728 77.4982 34.536 77.5942 34.536C77.5942 34.44 78.0742 34.536 78.1702 34.536L78.8422 33.672C78.9382 33.672 79.1302 33.672 79.1302 33.672C79.2262 33.576 79.4182 32.904 79.4182 32.808C79.5142 32.712 80.2822 32.136 80.2822 32.04V31.752C80.3782 31.656 80.5702 31.464 80.5702 31.464C81.1462 31.272 81.8182 31.944 81.7222 32.616C81.8182 32.712 82.2022 32.52 82.2022 32.328C82.2982 31.944 82.2982 30.984 82.2022 30.888C82.0102 30.696 81.1462 30.312 80.8582 30.312C81.0502 29.832 81.3382 30.216 81.7222 30.024C82.5862 29.544 82.5862 28.2 82.4902 27.336H81.9142C82.4902 27.912 81.1462 28.776 79.9942 27.336C80.1862 26.664 81.6262 26.76 81.4342 27.624C81.5302 27.528 81.7222 27.144 81.7222 27.048C81.7222 26.952 81.7222 26.76 81.7222 26.76C82.4902 25.032 83.6422 25.512 83.3542 22.92C83.3542 22.92 83.5462 22.92 83.6422 22.92C83.6422 23.016 84.1222 23.304 84.2182 23.208C84.7942 22.92 85.1782 21.192 85.2742 20.712C84.7942 20.904 84.1222 20.712 83.9302 20.232L85.7542 19.08C85.7542 18.984 85.5622 18.792 85.4662 18.792C85.3702 18.792 84.5062 18.6 84.5062 18.504C84.4102 18.408 84.5062 17.736 84.5062 17.64C84.4102 17.64 83.9302 17.448 83.9302 17.352C83.0662 16.872 84.2182 16.104 84.7942 15.72C84.7942 15.72 85.1782 15.72 85.2742 15.72C85.1782 16.008 85.9462 18.216 86.0422 18.216C87.0022 18.12 86.0422 15.816 86.0422 15.72C86.1382 15.72 86.3302 15.528 86.3302 15.432C86.3302 15.336 86.1382 14.952 86.0422 14.952C85.3702 15.144 84.6022 15.048 83.9302 15.432C82.9702 16.104 83.2582 17.256 82.2022 17.928C81.9142 17.64 81.8182 17.16 81.9142 16.872C81.2422 16.872 81.1462 17.832 81.1462 18.216H80.5702V17.64C80.4742 17.544 79.8982 17.544 79.7062 17.64C79.1302 18.12 79.6102 19.944 78.4582 19.08C78.3622 19.08 78.1702 18.792 78.1702 18.792C77.8822 18.696 77.4022 18.696 77.3062 19.08L77.0182 18.792C76.9222 18.792 76.7302 18.984 76.7302 19.08C76.6342 19.176 76.4422 19.56 76.4422 19.656H76.1542C76.0582 19.656 75.8662 19.848 75.8662 19.944L76.4422 20.424C75.9622 20.424 75.4822 21.096 75.3862 21.576C75.3862 21.768 75.5782 22.536 75.5782 22.632C75.6742 22.824 76.5382 23.016 76.7302 22.92C76.5382 23.592 75.6742 23.592 75.3862 23.208V23.688C75.9622 23.4 75.7702 24.648 76.1542 24.84C76.3462 24.936 77.1142 25.128 77.3062 25.128C77.2102 25.512 77.4022 26.664 78.1702 26.28V26.472C77.4022 26.664 76.6342 26.376 76.1542 25.992C76.0582 25.992 75.8662 26.184 75.8662 26.28C75.0982 27.432 76.6342 26.76 77.3062 27.336C76.5382 27.528 75.7702 28.296 75.5782 28.968C75.7702 28.872 76.5382 28.488 76.7302 28.488C76.7302 28.392 76.9222 28.392 77.0182 28.488C77.1142 28.584 77.1142 29.16 77.0182 29.256C76.9222 29.352 76.2502 29.544 76.1542 29.544C75.9622 29.64 75.5782 30.408 75.5782 30.6V30.312C75.2902 30.696 74.4262 30.408 74.2342 30.888C74.2342 30.984 74.4262 31.176 74.5222 31.176C74.7142 31.272 75.6742 31.464 75.8662 31.464C76.2502 32.616 75.0022 32.136 74.5222 32.616V33.384C74.5222 33.384 74.2342 33.576 74.2342 33.672C74.2342 33.672 74.2342 33.864 74.2342 33.96C74.3302 34.248 74.5222 34.632 74.8102 34.824C74.1382 35.112 74.7142 35.496 74.8102 35.784C74.8102 35.976 74.7142 36.84 74.8102 36.936ZM77.3062 35.592C77.2102 35.784 77.0182 36.264 77.0182 36.36H78.8422C79.1302 35.976 79.5142 35.784 79.9942 35.592C79.9942 35.592 79.2262 35.112 79.4182 34.824C78.7462 34.536 78.3622 35.4 77.8822 35.592C77.7862 35.688 77.3062 35.592 77.3062 35.592ZM76.7302 35.784C76.4422 35.784 76.4422 36.36 76.7302 36.36C77.0182 36.36 77.0182 35.784 76.7302 35.784ZM79.9942 34.536C79.7062 34.536 79.7062 35.112 79.9942 35.112C80.2822 35.112 80.2822 34.536 79.9942 34.536ZM79.7062 34.248C79.8022 34.056 79.4182 34.056 79.4182 34.248C79.5142 34.344 79.7062 34.344 79.7062 34.248ZM77.5942 33.384C77.5942 33.576 77.4022 33.768 77.3062 33.672C77.1142 33.576 77.4982 33.192 77.5942 33.384ZM77.8822 33.384C78.1702 33.384 78.1702 33.96 77.8822 33.96C77.5942 33.96 77.5942 33.384 77.8822 33.384ZM78.6502 33.096C78.6502 33.288 78.5542 33.48 78.4582 33.384C78.2662 33.288 78.6502 32.904 78.6502 33.096ZM80.8582 32.808C80.8582 32.808 80.6662 33 80.5702 33.096H81.1462V32.808C81.1462 32.808 80.9542 32.808 80.8582 32.808ZM78.4582 32.808C78.3622 33 78.1702 33 78.1702 32.808C78.0742 32.712 78.4582 32.712 78.4582 32.808ZM80.8582 31.752C80.5702 31.752 80.5702 32.328 80.8582 32.328C81.1462 32.328 81.1462 31.752 80.8582 31.752ZM77.3062 30.6C77.3062 30.504 77.4982 30.12 77.5942 30.024V30.888H77.3062C77.3062 30.888 77.3062 30.696 77.3062 30.6ZM78.4582 30.312C78.3622 30.504 78.1702 30.504 78.1702 30.312C78.0742 30.12 78.4582 30.12 78.4582 30.312ZM78.8422 30.024C78.9382 30.024 79.1302 29.544 79.1302 29.544C79.1302 29.352 77.4982 27.432 78.4582 26.76C79.2262 27.048 81.3382 29.352 80.5702 30.024C80.5702 30.12 80.3782 30.12 80.2822 30.024C80.2822 30.024 79.8022 29.736 79.7062 29.736C79.7062 29.832 79.2262 30.312 79.1302 30.312C79.1302 30.408 78.9382 30.408 78.8422 30.312C78.8422 30.312 78.8422 30.12 78.8422 30.024ZM81.7222 29.256C81.9142 29.256 81.9142 29.736 81.7222 29.736C81.4342 29.736 81.4342 29.256 81.7222 29.256ZM73.9462 28.776C73.9462 29.544 74.7142 29.256 75.0982 28.968C75.0982 28.2 73.9462 28.2 73.9462 28.776ZM78.1702 28.776C78.4582 28.776 78.4582 29.256 78.1702 29.256C77.8822 29.256 77.8822 28.776 78.1702 28.776ZM79.1302 28.776C78.8422 28.776 78.8422 29.256 79.1302 29.256C79.4182 29.256 79.4182 28.776 79.1302 28.776ZM81.7222 28.776C81.8182 28.776 81.8182 28.968 81.7222 28.968C81.5302 29.064 81.5302 28.68 81.7222 28.776ZM75.0982 27.624C75.0982 27.624 75.2902 27.816 75.3862 27.912V27.336H75.0982C75.0982 27.336 75.0982 27.528 75.0982 27.624ZM78.8422 25.704C78.8422 25.704 78.3622 24.84 78.8422 24.84C79.0342 24.936 79.3222 25.224 79.1302 25.416C79.7062 25.608 80.1862 24.648 80.5702 25.416C80.7622 25.8 80.2822 25.896 79.9942 25.992C79.9942 25.992 79.8022 25.992 79.7062 25.992C79.5142 25.896 78.9382 25.704 78.8422 25.704ZM81.7222 25.416C81.9142 25.416 81.9142 25.992 81.7222 25.992C81.4342 25.992 81.4342 25.416 81.7222 25.416ZM78.8422 23.976C78.8422 23.88 78.5542 23.496 78.4582 23.4C78.5542 23.016 79.2262 23.208 79.4182 23.208C79.6102 23.496 79.2262 24.072 78.8422 24.264C78.9382 24.264 78.9382 24.072 78.8422 23.976ZM77.0182 22.92C77.3062 22.92 77.3062 23.4 77.0182 23.4C76.7302 23.4 76.7302 22.92 77.0182 22.92ZM82.7782 22.344C83.0662 22.344 83.0662 22.92 82.7782 22.92C82.4902 22.92 82.4902 22.344 82.7782 22.344ZM84.2182 22.152C84.3142 22.152 84.3142 22.344 84.2182 22.344C84.0262 22.44 84.0262 22.056 84.2182 22.152ZM77.3062 21.576C77.2102 21.48 77.2102 21.096 77.3062 21H77.5942V21.864C77.4982 21.768 77.3062 21.576 77.3062 21.576ZM83.0662 21H83.6422V21.288C83.3542 21.384 83.1622 21.192 83.0662 21ZM77.0182 20.232C77.2102 20.232 77.2102 20.328 77.0182 20.424C76.8262 20.424 76.8262 20.136 77.0182 20.232ZM77.5942 20.232L77.8822 19.944L78.1702 20.232L77.8822 20.424L77.5942 20.232ZM82.7782 18.792C83.0662 18.696 83.5462 18.696 83.6422 19.08H82.7782V18.792ZM84.9862 16.872V17.64C85.3702 17.448 85.3702 17.064 84.9862 16.872ZM79.7062 17.16C79.7062 17.064 79.3222 17.256 79.4182 17.352C79.6102 17.448 79.8022 17.256 79.7062 17.16ZM79.4182 16.584C79.1302 16.584 79.1302 17.16 79.4182 17.16C79.7062 17.16 79.7062 16.584 79.4182 16.584ZM81.1462 16.584C81.0502 16.488 80.6662 16.776 80.8582 16.872C81.0502 16.968 81.2422 16.776 81.1462 16.584ZM84.7942 16.296C84.6022 16.296 84.6022 16.68 84.7942 16.584C84.8902 16.584 84.8902 16.392 84.7942 16.296ZM83.0662 16.008C82.7782 16.008 82.7782 16.584 83.0662 16.584C83.3542 16.584 83.3542 16.008 83.0662 16.008ZM86.6182 15.432C86.3302 15.432 86.3302 16.008 86.6182 16.008C86.9062 16.008 86.9062 15.432 86.6182 15.432ZM82.7782 14.952C82.4902 14.952 82.4902 15.432 82.7782 15.432C83.0662 15.432 83.0662 14.952 82.7782 14.952ZM108.986 13.032C108.698 13.032 108.698 13.608 108.986 13.608C109.274 13.608 109.274 13.032 108.986 13.032ZM104.282 12.744L103.994 13.032H105.338C104.762 12.84 104.57 12.36 103.994 12.168C103.802 12.36 104.09 12.648 104.282 12.744ZM108.122 12.168C107.93 12.168 107.93 12.456 108.122 12.456C108.314 12.456 108.314 12.168 108.122 12.168ZM107.258 11.88C106.97 11.88 106.97 12.456 107.258 12.456C107.546 12.456 107.546 11.88 107.258 11.88ZM92.0902 11.592C91.8982 11.592 91.8982 12.168 92.0902 12.168C92.3782 12.168 92.3782 11.592 92.0902 11.592ZM91.6102 11.304C91.4182 11.304 91.4182 11.688 91.6102 11.592C91.7062 11.592 91.7062 11.4 91.6102 11.304ZM105.338 10.824V11.304C106.01 11.592 106.298 10.44 105.626 10.248C105.626 10.344 105.434 10.728 105.338 10.824ZM96.8902 10.824C96.8902 10.92 96.8902 11.016 96.8902 11.016H97.1782V10.536C97.0822 10.632 96.8902 10.824 96.8902 10.824ZM102.074 10.248C101.978 10.344 101.786 10.728 101.786 10.824H102.362V10.248C102.266 10.248 102.074 10.248 102.074 10.248ZM99.8662 10.248L100.442 10.536L100.634 8.808C100.25 8.328 100.25 10.152 99.8662 10.248ZM94.8742 9.96C94.5862 9.96 94.5862 10.536 94.8742 10.536C95.1622 10.536 95.1622 9.96 94.8742 9.96ZM98.7142 8.616V8.808L99.2902 8.616H98.7142ZM99.5782 8.616C99.2902 8.616 99.2902 9.096 99.5782 9.096C99.8662 9.096 99.8662 8.616 99.5782 8.616ZM225.691 26.088C236.155 26.184 244.22 27.912 244.22 47.496C244.22 69 234.62 69 222.715 69H133.627V1.8H204.188C216.092 1.8 225.691 11.496 225.691 23.4C225.691 24.264 225.691 25.224 225.691 26.088ZM204.379 20.616H152.347V31.848L207.163 26.088V23.4C207.163 20.616 205.916 20.616 204.379 20.616ZM223.003 50.28C224.443 50.28 225.596 50.28 225.596 47.592C225.596 44.904 224.348 44.904 222.907 44.904L152.347 39.048V50.28H223.003ZM358.492 14.664C360.284 16.2 361.788 17.992 363.004 20.04C364.284 22.088 364.7 24.328 364.252 26.76C363.996 28.296 363.42 29.768 362.524 31.176C361.628 32.584 360.54 33.896 359.26 35.112C358.044 36.328 356.732 37.448 355.324 38.472C353.916 39.496 352.572 40.392 351.292 41.16C348.476 42.952 345.5 44.552 342.364 45.96C340.124 47.048 337.82 48.072 335.452 49.032C333.084 49.992 330.716 50.888 328.348 51.72C321.948 53.96 315.42 55.72 308.764 57C302.172 58.28 295.484 59.08 288.7 59.4C286.588 59.528 284.284 59.592 281.788 59.592C279.356 59.592 276.892 59.496 274.396 59.304C271.9 59.112 269.436 58.792 267.004 58.344C264.636 57.896 262.428 57.256 260.38 56.424C259.548 56.104 258.748 55.72 257.98 55.272C257.212 54.824 256.476 54.28 255.772 53.64C255.644 53.448 255.452 53.256 255.196 53.064C255.004 52.808 254.844 52.552 254.716 52.296L249.724 42.888C250.236 42.056 250.876 41.192 251.644 40.296C252.604 39.144 253.628 38.024 254.716 36.936C255.804 35.848 256.892 34.824 257.98 33.864C262.652 29.896 267.772 26.376 273.34 23.304C278.908 20.232 284.508 17.544 290.14 15.24C292.636 14.216 295.292 13.256 298.108 12.36C305.084 10.12 312.22 8.424 319.516 7.272C326.876 6.056 334.236 5.224 341.596 4.776C346.524 4.456 351.516 4.36 356.572 4.488H362.524L372.412 16.68H372.508H372.412L358.492 14.664ZM255.868 45.192C256.188 45.448 256.54 45.704 256.924 45.96C257.308 46.152 257.66 46.344 257.98 46.536C259.196 47.112 260.412 47.624 261.628 48.072C262.908 48.456 264.188 48.808 265.468 49.128C271.036 50.536 276.86 51.304 282.94 51.432C289.02 51.56 294.876 51.4 300.508 50.952C308.316 50.376 316.028 49.032 323.644 46.92C331.324 44.808 338.716 42.024 345.82 38.568C347.868 37.544 350.012 36.296 352.252 34.824C354.556 33.352 356.38 31.688 357.724 29.832C358.492 28.744 359.036 27.56 359.356 26.28C359.676 24.936 359.516 23.624 358.876 22.344C358.364 21.32 357.692 20.488 356.86 19.848C356.028 19.208 355.068 18.728 353.98 18.408C352.956 18.088 351.868 17.896 350.716 17.832C349.628 17.768 348.572 17.832 347.548 18.024C344.22 18.728 341.436 20.328 339.196 22.824C336.956 25.256 335.26 28.04 334.108 31.176H334.012L329.98 25.704C330.748 23.528 331.74 21.448 332.956 19.464C334.172 17.416 335.676 15.656 337.468 14.184C331.9 14.696 326.364 15.368 320.86 16.2C315.42 17.032 309.98 17.992 304.54 19.08C297.884 20.36 291.42 22.28 285.148 24.84C278.94 27.4 273.052 30.632 267.484 34.536C265.948 35.624 264.412 36.808 262.876 38.088C261.404 39.304 259.996 40.616 258.652 42.024C258.14 42.536 257.66 43.08 257.212 43.656C256.764 44.168 256.316 44.68 255.868 45.192ZM375.21 1.8H414.186V12.648H386.634V69H375.21V1.8ZM429.529 35.304C429.529 14.952 437.497 0.0719948 448.249 0.0719948C458.905 0.0719948 467.833 14.952 467.833 35.304C467.833 55.752 458.905 71.496 448.249 71.496C437.497 71.496 429.529 55.752 429.529 35.304ZM435.289 35.304C435.289 54.6 439.513 69.576 448.249 69.576C456.985 69.576 462.073 54.6 462.073 35.304C462.073 16.008 456.985 1.992 448.249 1.992C439.513 1.992 435.289 16.008 435.289 35.304Z" fill="#245BC6"/>
</svg>
