<svg width="689" height="76" viewBox="0 0 689 76" fill="none" xmlns="http://www.w3.org/2000/svg">
<path d="M55.8651 1.8V69H44.4411V12.648H12.3771V69H0.953137V1.8H55.8651ZM69.2931 35.304C69.2931 14.952 77.2611 0.0719948 88.0131 0.0719948C98.6691 0.0719948 107.597 14.952 107.597 35.304C107.597 55.752 98.6691 71.496 88.0131 71.496C77.2611 71.496 69.2931 55.752 69.2931 35.304ZM75.0531 35.304C75.0531 54.6 79.2771 69.576 88.0131 69.576C96.7491 69.576 101.837 54.6 101.837 35.304C101.837 16.008 96.7491 1.992 88.0131 1.992C79.2771 1.992 75.0531 16.008 75.0531 35.304ZM237 1.8V22.632L207.048 32.712L237 69H212.904L188.136 39.144L140.712 55.176V69H121.992V1.8H140.712V34.728L237 1.8ZM278.692 69.96C260.644 69.96 244.516 56.328 244.516 35.4C244.516 14.664 260.644 0.839996 278.692 0.839996C296.644 0.839996 312.868 14.664 312.868 35.4C312.868 56.328 296.644 69.96 278.692 69.96ZM256.324 35.4C256.324 49.8 266.788 58.728 278.692 58.728C290.5 58.728 301.06 49.8 301.06 35.4C301.06 21.192 290.5 12.072 278.692 12.072C266.788 12.072 256.324 21.192 256.324 35.4ZM345.622 1.8H434.71V69H415.894V20.616H358.678L344.566 69H318.934V50.28H330.838L345.622 1.8ZM447.327 69V1.8H489.855V12.648H458.751V29.448H489.855V40.296H458.751V58.152H489.855V69H447.327ZM506.434 64.2V6.6C506.434 1.89599 502.018 2.952 497.506 2.75999V1.8H521.122V2.75999C516.61 2.952 512.194 1.89599 512.194 6.6V28.296H534.946V6.6C534.946 1.89599 530.53 2.952 526.018 2.75999V1.8H549.634V2.75999C545.122 2.952 540.706 1.89599 540.706 6.6V64.2C540.706 68.904 545.122 67.848 549.634 68.04V69H526.018V68.04C530.53 67.848 534.946 68.904 534.946 64.2V30.216H512.194V64.2C512.194 68.904 516.61 67.848 521.122 68.04V69H497.506V68.04C502.018 67.848 506.434 68.904 506.434 64.2ZM615.439 69H604.015V18.216L574.543 69H560.239V1.8H571.663V52.584L601.135 1.8H615.439V69ZM626.653 74.664C626.269 74.472 625.981 73.896 625.885 73.512C625.789 73.032 625.597 70.248 625.597 69.768V67.752C625.981 63.432 631.069 65.928 632.413 62.568C633.757 59.208 632.509 55.464 632.221 52.104C632.029 50.568 632.221 49.32 632.701 47.976C632.989 47.112 634.429 43.656 634.717 42.984C635.773 40.2 640.477 39.048 642.877 37.8C643.837 37.224 642.973 36.264 642.301 36.072L639.325 35.304C637.309 34.728 634.909 33.864 634.141 31.752C633.373 29.832 632.413 27.432 632.701 25.416L633.853 21C634.237 19.464 634.237 17.832 634.717 16.296C635.389 13.704 637.885 11.208 639.613 9.384L642.589 6.408C642.781 6.216 643.645 5.832 643.741 5.832H669.373L671.581 6.408L678.781 7.272C679.261 7.368 683.965 8.136 684.541 8.328C685.789 8.51999 688.093 8.328 688.573 9.96C688.669 10.632 688.669 13.704 688.573 14.376C688.477 16.008 687.805 23.592 687.517 25.128C687.325 28.776 678.685 26.568 678.493 30.312C678.397 32.52 677.917 42.216 677.917 44.424C677.821 45.192 677.821 48.84 677.917 49.608C677.917 50.376 678.493 50.856 678.973 51.336C681.085 52.872 685.117 51.144 684.541 55.08L682.813 64.776C682.621 65.736 681.853 66.312 680.893 66.408C679.069 66.696 676.477 66.792 674.557 66.696C674.269 66.696 671.869 66.408 671.581 66.408C669.181 66.408 658.237 66.216 655.837 66.12C654.781 65.832 654.397 64.872 654.397 63.912C654.493 61.704 654.685 55.752 654.685 55.368C654.781 53.352 654.781 52.008 656.413 50.76C656.509 50.664 656.893 50.472 656.989 50.472L661.885 49.32C663.517 48.936 663.421 47.016 663.325 45.768C663.325 45.192 663.133 42.024 663.037 41.352C662.845 41.16 662.269 40.488 661.885 40.488H657.469C657.373 40.488 656.893 40.776 656.701 40.776L654.973 41.64C654.397 42.12 651.901 43.752 651.421 44.136C650.941 44.52 649.789 45.384 649.789 46.344V63.432C649.789 64.584 649.117 66.792 648.349 67.752C648.253 68.04 646.333 70.44 645.661 71.4C645.277 71.88 644.605 72.264 644.029 72.456C642.013 73.32 640.285 74.184 638.269 74.664H630.205C629.245 74.664 627.709 75.336 626.653 74.664ZM637.981 67.752C637.981 67.848 637.981 68.04 637.981 68.04C639.037 68.616 638.461 65.544 639.325 65.352C638.845 65.16 638.941 64.392 639.037 64.2H638.269C638.173 64.104 637.981 63.816 637.981 63.72C637.501 61.608 640.285 63.528 639.901 66.12L640.477 65.064C640.477 64.968 640.669 64.968 640.765 65.064C640.765 65.064 641.245 65.544 641.341 65.544C641.437 65.64 642.397 65.64 642.589 65.544C643.261 65.448 642.685 64.296 642.589 64.2C642.589 64.104 642.589 63.912 642.589 63.912C643.165 63.816 643.645 64.68 644.029 64.488C644.893 63.912 644.797 62.664 645.661 61.992L645.085 61.416C645.085 61.416 644.893 60.84 644.797 60.84H643.741C644.029 60.84 644.125 60.648 644.029 60.36C643.453 58.728 641.725 59.784 642.013 60.36L642.589 60.072L641.725 60.84C641.725 60.84 641.629 60.264 641.533 60.072C641.533 60.072 641.341 59.592 641.341 59.496C641.341 59.016 642.685 58.248 642.877 57.864C642.973 57.768 643.165 57 643.165 56.808H643.741V57.096H644.605C644.893 56.424 642.781 56.136 642.301 55.944C642.781 55.368 643.549 55.176 644.029 54.6L643.453 54.024C642.685 53.64 642.781 54.6 642.301 54.792C642.685 54.312 641.725 53.736 641.533 53.448C641.341 53.064 642.109 52.776 642.301 52.872C642.397 52.968 642.781 53.448 642.877 53.448C643.069 53.448 643.645 53.064 643.741 52.872C643.837 52.872 643.837 52.488 643.741 52.392C643.645 52.2 643.357 51.912 643.165 52.104C642.877 51.72 643.837 51.528 644.029 51.336C643.453 51.048 643.261 50.472 643.453 49.896C642.877 49.512 641.821 50.856 641.341 51.336C641.245 51.336 641.053 51.528 641.053 51.528C640.957 51.624 640.765 52.296 640.765 52.392C640.669 52.392 640.477 52.872 640.477 52.872C640.381 52.776 640.093 52.488 639.901 52.68V52.392C639.709 52.2 638.557 53.064 638.269 53.16C638.173 53.256 637.789 53.448 637.693 53.448C637.213 52.584 638.173 52.2 638.749 52.392C639.037 52.008 640.669 50.472 641.053 50.184C641.245 49.992 642.013 49.896 641.725 49.32C641.725 49.128 641.437 48.36 641.341 48.264C640.957 48.168 640.669 48.648 639.901 48.456C639.901 48.552 639.901 48.744 639.901 48.744C640.189 49.704 640.381 49.32 639.613 49.896C638.941 50.28 639.805 50.472 639.613 51.048C638.941 51.144 637.885 51.528 637.405 52.104C637.405 52.104 637.213 52.872 637.117 52.872C637.117 52.968 636.925 52.968 636.829 52.872C636.829 52.872 636.637 52.392 636.541 52.392C636.541 52.296 636.349 52.104 636.253 52.104C635.197 53.16 636.061 54.792 636.541 53.736C636.733 54.312 637.021 53.832 637.405 54.024C637.597 54.12 638.173 54.6 637.981 54.792C637.981 54.888 637.693 55.08 637.693 55.08C637.693 55.56 638.749 56.232 638.557 56.52C638.461 56.52 638.077 56.712 637.981 56.808C637.885 56.904 637.693 57.288 637.693 57.384C637.693 57.288 637.213 57.096 637.117 57.096C637.021 57.096 636.637 57.48 636.541 57.672C636.637 57.672 636.829 57.768 636.829 57.864V59.016C636.925 59.016 637.693 59.4 637.693 59.496C637.789 59.688 637.597 60.072 637.405 60.072C637.597 60.264 637.981 60.456 638.269 60.36C638.269 60.168 638.557 59.4 638.749 59.208C639.325 58.728 639.997 60.072 639.325 60.36C639.229 60.456 638.557 60.552 638.557 60.648C638.461 60.84 638.269 61.896 638.269 61.992C638.077 62.472 636.925 62.568 636.541 63.144L636.253 62.856C636.157 63.048 635.581 63.72 635.677 63.912C635.869 63.912 637.117 63.432 637.405 63.72C637.597 63.912 637.789 64.584 637.693 64.776C637.693 64.776 636.925 65.16 636.541 65.352C636.541 65.352 636.349 65.352 636.253 65.352C636.253 65.256 635.773 64.968 635.677 65.064C635.581 65.064 635.293 65.448 635.197 65.544C636.829 65.832 635.197 67.752 635.965 67.752C636.445 67.176 636.061 66.696 636.541 66.12C637.405 66.312 637.213 66.792 636.829 67.176C637.405 67.368 637.789 66.888 638.269 66.984C638.269 66.984 638.269 67.368 638.269 67.464C638.269 67.56 637.981 67.752 637.981 67.752ZM635.197 67.176C635.005 67.176 635.005 67.752 635.197 67.752C635.485 67.752 635.485 67.176 635.197 67.176ZM640.765 66.696C640.669 66.792 640.669 67.08 640.765 67.176C641.437 67.56 641.341 66.312 641.341 66.12C641.149 66.216 640.765 66.6 640.765 66.696ZM635.197 66.12C635.005 66.12 635.005 66.696 635.197 66.696C635.485 66.696 635.485 66.12 635.197 66.12ZM637.981 65.832H638.269V66.12L637.981 65.832ZM644.029 65.064C643.741 65.064 643.741 65.544 644.029 65.544C644.317 65.544 644.317 65.064 644.029 65.064ZM635.677 64.2C635.485 64.2 635.485 64.776 635.677 64.776C635.965 64.776 635.965 64.2 635.677 64.2ZM640.765 63.432C641.245 63.72 640.957 64.104 640.765 64.488V63.432ZM643.453 63.144C643.741 63.144 643.741 63.72 643.453 63.72C643.165 63.72 643.165 63.144 643.453 63.144ZM641.053 62.856H641.725C641.629 63.24 641.245 63.24 641.053 62.856ZM640.189 62.568C640.477 62.568 640.477 63.144 640.189 63.144C639.901 63.144 639.901 62.568 640.189 62.568ZM642.589 62.568C642.685 62.088 642.973 61.512 643.165 61.128L643.453 61.416L642.877 62.568L643.453 62.856H642.589C642.589 62.76 642.589 62.568 642.589 62.568ZM640.189 61.992C640.477 61.992 640.477 62.568 640.189 62.568C639.901 62.568 639.901 61.992 640.189 61.992ZM644.029 61.704H644.605V61.992H644.029V61.704ZM637.117 61.416L636.829 61.704H637.117V61.416ZM639.901 61.128V60.648C640.189 60.36 640.765 61.224 640.189 61.704C640.093 61.608 639.901 61.224 639.901 61.128ZM636.253 60.648V60.84H636.541V60.648H636.253ZM644.029 58.44C644.029 58.44 644.029 58.92 644.029 59.016H644.797C644.989 58.344 644.317 57.768 644.029 58.44ZM639.613 57.864C639.901 57.768 640.285 58.056 640.189 58.44C640.093 58.44 639.901 58.44 639.901 58.44C639.805 58.344 639.613 57.96 639.613 57.864ZM643.741 57.672C643.837 57.48 643.453 57.48 643.453 57.672C643.549 57.768 643.741 57.768 643.741 57.672ZM636.253 57.096C635.965 57.096 635.965 57.672 636.253 57.672C636.541 57.672 636.541 57.096 636.253 57.096ZM641.341 56.52C641.341 56.328 641.725 55.944 641.725 55.944C641.917 56.04 642.109 56.424 642.013 56.52C642.013 56.616 641.725 57 641.533 57.096C641.437 57 641.245 56.616 641.341 56.52ZM636.829 56.232V56.808C637.021 56.808 637.597 56.616 637.693 56.52C637.789 56.424 637.789 56.232 637.693 56.232H636.829ZM665.533 56.232C665.245 56.232 665.245 56.808 665.533 56.808C665.821 56.808 665.821 56.232 665.533 56.232ZM669.661 56.232C669.373 56.232 669.373 56.808 669.661 56.808C669.853 56.808 669.853 56.232 669.661 56.232ZM664.381 55.368C664.093 55.368 664.093 55.944 664.381 55.944C664.669 55.944 664.669 55.368 664.381 55.368ZM668.509 55.368C668.221 55.368 668.221 55.944 668.509 55.944C668.797 55.944 668.797 55.368 668.509 55.368ZM641.725 55.368C641.725 55.56 641.629 55.56 641.533 55.368C641.533 55.176 641.821 55.176 641.725 55.368ZM645.085 55.08C644.797 55.08 644.797 55.656 645.085 55.656C645.373 55.656 645.373 55.08 645.085 55.08ZM665.821 54.6C665.725 54.6 665.725 54.792 665.821 54.792H666.589C666.589 54.408 666.109 54.024 665.821 54.6ZM667.357 54.312C667.357 54.312 667.165 54.6 667.069 54.6C667.357 54.6 667.837 54.6 667.933 54.312H667.357ZM644.317 53.448C644.221 53.352 643.837 53.736 644.029 53.736C644.221 53.832 644.413 53.64 644.317 53.448ZM668.509 52.872V53.16H668.797L668.509 52.872ZM667.645 51.816C667.357 51.816 667.357 52.392 667.645 52.392C667.933 52.392 667.933 51.816 667.645 51.816ZM668.221 51.528C667.933 51.528 667.933 52.104 668.221 52.104C668.509 52.104 668.509 51.528 668.221 51.528ZM667.933 51.336C667.645 51.336 667.645 51.816 667.933 51.816C668.221 51.816 668.221 51.336 667.933 51.336ZM642.301 51.048L642.589 50.76V51.336L642.301 51.048ZM667.645 51.048C667.357 51.048 667.357 51.528 667.645 51.528C667.933 51.528 667.933 51.048 667.645 51.048ZM670.141 51.048L670.429 51.336V51.048H670.141ZM637.405 49.608L637.117 50.184H637.405V49.608ZM670.717 49.32L671.293 49.896V48.264C671.005 48.36 670.525 49.032 670.717 49.32ZM668.797 48.264V49.608H670.141C669.757 49.032 668.893 49.032 668.797 48.264ZM639.037 49.032C638.845 49.032 638.845 49.32 639.037 49.32C639.229 49.32 639.229 49.128 639.037 49.032ZM636.253 48.744C635.965 48.744 635.965 49.32 636.253 49.32C636.541 49.32 636.541 48.744 636.253 48.744ZM635.965 48.264C635.869 48.264 635.869 48.552 635.965 48.456C636.157 48.456 636.157 48.36 635.965 48.264ZM670.141 48.264C669.853 48.264 669.853 48.744 670.141 48.744C670.429 48.744 670.429 48.264 670.141 48.264ZM637.405 47.4C637.213 47.304 637.213 48.072 637.405 47.976C637.597 47.88 637.597 47.496 637.405 47.4ZM669.085 47.4C669.181 47.592 669.565 47.976 669.661 47.976C670.525 48.36 670.525 46.728 671.005 47.112C670.909 47.4 671.101 47.592 671.293 47.688C671.677 47.496 672.061 47.016 671.869 46.536C671.677 46.632 670.909 46.632 670.717 46.536C670.621 46.536 670.429 46.056 670.429 46.056C670.429 45.96 670.141 45.768 670.141 45.768C670.045 45.672 669.661 45.48 669.661 45.48C669.661 45.384 669.661 45.288 669.661 45.288C669.373 44.616 668.989 43.752 669.853 43.272H670.429C670.525 43.272 670.909 42.792 671.005 42.696C671.485 42.408 672.445 43.176 672.733 43.56C672.445 44.424 671.389 43.368 671.005 43.56C671.005 43.656 671.197 44.328 671.293 44.424C671.293 44.424 671.581 44.616 671.581 44.712V46.056C672.157 46.44 672.541 45.384 672.733 45.288C672.829 44.904 673.501 44.52 673.693 44.424C672.925 44.616 672.637 42.216 674.269 42.696C674.653 42.408 672.733 41.448 672.445 41.352C671.677 41.256 671.869 41.448 671.293 41.64C671.197 41.64 671.005 41.64 671.005 41.64C669.949 41.16 671.581 40.584 671.869 40.488C671.869 40.488 672.061 40.488 672.157 40.488V40.776C672.445 40.68 673.405 41.16 673.405 41.064L673.981 40.008C673.885 40.104 673.405 40.296 673.117 40.2V40.008C673.501 39.816 674.461 38.952 674.557 38.664C674.941 37.896 674.173 37.032 674.845 36.36C674.461 36.552 673.405 35.976 673.693 35.592C674.845 35.88 675.037 35.112 675.421 34.152C675.421 34.152 675.421 33.96 675.421 33.864C675.229 33.96 674.461 34.056 674.269 33.672C674.845 33.288 674.749 32.52 675.133 32.04C675.229 31.944 675.709 31.56 675.709 31.464C675.805 31.368 675.901 30.408 675.901 30.312C675.901 30.216 676.189 29.832 676.189 29.736C675.997 28.776 674.749 28.392 675.133 27.816C675.709 27.72 675.997 28.296 676.477 28.104V26.568C676.477 26.472 676.765 26.28 676.765 26.28V25.416C676.765 25.32 676.189 25.128 676.189 25.128C676.189 25.032 675.997 24.552 675.901 24.552C675.805 24.552 674.749 24.264 674.557 24.84C674.557 24.936 674.653 25.608 674.557 25.704L673.693 26.28C673.501 25.224 674.269 24.936 674.557 24.264C674.653 24.072 674.845 22.44 674.845 22.344L675.901 21.768C675.901 21.768 676.189 21.576 676.189 21.48C676.477 21.384 678.109 21 678.493 21L677.917 20.232C677.533 19.656 680.125 20.424 680.605 19.944C680.797 19.752 681.373 18.312 681.469 18.216C681.853 17.736 682.429 17.832 682.813 18.216V18.504C682.813 18.6 683.005 18.792 683.101 18.792C684.157 18.024 683.581 17.352 682.525 17.16C682.525 16.968 682.717 16.2 682.813 16.008C682.813 16.008 683.101 15.816 683.101 15.72C683.485 15.048 681.853 15.24 681.469 14.856C681.661 14.856 682.429 14.472 682.525 14.376C682.621 14.28 682.621 13.992 682.525 13.896C681.661 13.992 678.973 12.648 678.781 12.744C678.589 12.744 678.205 13.128 678.205 13.32C678.301 13.32 678.685 13.512 678.781 13.608L678.973 13.896H680.029C680.125 13.896 680.125 14.088 680.029 14.184C678.973 15.624 678.877 14.088 678.205 13.896C678.109 13.8 677.341 13.992 677.053 14.184C676.957 14.184 676.765 14.28 676.765 14.376H676.189C676.093 14.472 675.901 15.336 675.901 15.432C675.901 16.008 677.053 15.912 677.053 15.144C677.245 15.336 678.013 15.816 677.917 16.296C677.821 16.488 677.341 17.544 677.341 17.64V17.928C677.245 18.024 677.053 18.216 677.053 18.216H675.709V17.928C675.709 17.736 675.901 17.064 675.901 16.872C674.653 16.584 672.541 18.792 673.981 19.368H675.133C675.229 19.368 675.421 18.792 675.421 18.792C675.613 18.6 676.861 19.848 677.629 19.656V19.944C676.861 20.136 676.093 20.52 675.709 21.192C675.709 20.616 674.845 21.192 674.845 21.192C674.941 21 674.749 20.808 674.557 20.712C673.981 20.904 674.653 21.576 673.981 21.768C674.173 21.864 674.461 22.152 674.269 22.344C674.173 22.44 673.789 22.44 673.693 22.344C673.693 22.344 673.501 21.864 673.405 21.768L672.157 21L672.733 20.52C672.733 20.52 672.829 20.904 672.925 21C673.597 21.672 673.981 20.616 674.269 20.232L673.693 20.52V19.944C673.021 20.136 672.349 19.752 671.869 19.368C671.293 18.984 673.693 18.792 673.117 17.64C672.733 17.352 672.637 18.312 672.445 18.504C671.773 18.984 670.813 17.352 671.581 16.872H672.157C672.541 16.104 671.485 15.24 671.005 15.432V14.856C671.869 14.568 671.965 15.144 672.733 15.432C672.733 15.528 672.829 15.432 672.925 15.432C672.925 15.528 673.213 17.256 673.693 16.872C673.789 16.872 674.269 16.392 674.269 16.296L675.133 15.72C674.557 15.336 673.885 14.952 673.117 14.664C673.213 14.568 673.405 14.376 673.405 14.376C673.597 14.28 673.981 14.088 673.981 14.184C674.173 14.184 674.749 14.76 674.845 14.856C675.421 14.568 675.133 13.8 675.709 13.608C676.189 13.32 678.781 13.32 677.053 12.168H676.765C676.669 12.072 676.573 11.592 676.477 11.592C676.381 11.496 675.805 11.496 675.709 11.592V11.112C675.709 11.208 675.229 11.304 675.133 11.304C675.037 11.304 674.653 10.824 674.557 10.824H673.693C672.061 10.632 672.253 10.536 670.717 11.592C670.525 11.304 669.949 11.016 669.661 11.112C669.277 11.688 669.085 12.936 668.221 13.32C668.125 13.32 667.741 13.128 667.645 13.032V13.608C668.221 14.28 669.853 13.608 670.141 13.608C670.237 13.608 670.429 13.8 670.429 13.896C670.621 14.376 670.141 14.76 669.661 15.048H670.429L669.853 16.008V15.432C669.661 15.336 668.509 15.336 668.221 15.432L667.645 16.584C667.645 16.68 666.877 16.584 666.781 16.584C666.301 16.872 664.957 17.352 665.245 18.216C665.245 18.312 665.533 18.696 665.533 18.792C665.533 18.888 665.341 19.56 665.245 19.656C665.245 19.56 665.053 19.176 664.957 19.08H664.669C664.573 19.08 664.381 18.792 664.381 18.792C663.613 18.984 664.573 20.328 663.805 20.52C663.805 20.52 664.285 20.712 664.381 20.712C664.477 20.616 664.861 20.232 664.957 20.232C665.149 20.04 666.109 19.848 665.821 20.52C665.725 20.424 665.533 20.424 665.533 20.52C665.341 20.52 664.765 21.096 664.669 21.192L666.109 21.768C666.109 21.864 666.301 21.576 666.397 21.48C666.397 21.48 666.397 21.288 666.397 21.192H667.069V22.632C666.685 22.92 666.589 22.152 666.109 22.344C666.013 22.44 666.013 22.632 666.109 22.632C666.109 22.728 666.589 23.112 666.589 23.208C666.589 23.304 666.397 23.592 666.397 23.688C666.301 23.784 666.301 23.976 666.397 23.976L667.069 23.496C668.989 24.648 665.725 24.36 667.069 25.128V27.048C667.453 26.856 667.741 26.76 667.933 26.568C669.085 26.952 667.261 27.528 667.069 27.528C666.685 27.816 665.917 28.968 666.109 29.544C666.109 29.64 666.301 29.64 666.397 29.544C666.397 29.544 666.589 29.064 666.589 28.968C666.877 28.584 667.357 28.584 667.645 28.104C667.741 28.488 667.261 29.352 667.357 30.024C667.165 30.12 666.877 29.928 666.781 29.736L666.589 30.024C665.821 31.272 665.917 30.12 665.533 30.888C665.149 31.56 666.205 31.752 666.397 32.04C666.493 32.232 666.589 33.096 666.589 33.384C666.493 34.056 662.365 33.384 663.037 34.728C663.037 34.824 663.517 35.208 663.517 35.304C663.517 35.4 663.325 35.976 663.325 36.072C663.325 36.36 664.669 37.032 664.957 36.936C664.765 36.552 664.765 35.784 665.533 35.88V37.224C666.493 37.704 666.973 35.4 667.357 35.88V36.648C667.453 36.744 668.221 37.416 668.221 37.512C668.221 37.512 668.029 37.896 667.933 38.088C667.837 38.184 667.261 38.856 667.069 38.952C667.741 39.144 668.605 38.28 668.797 38.088C668.701 38.184 670.237 40.008 670.429 38.664L671.293 39.144C671.101 39.144 670.525 39.336 670.429 39.432C670.333 39.432 669.949 39.912 669.853 40.008C669.565 40.2 668.125 37.8 667.069 40.2C667.261 40.296 668.029 40.776 668.221 40.776C668.317 40.872 668.989 41.064 669.085 41.064C669.565 41.544 668.605 42.12 668.797 42.408C668.797 42.504 669.085 42.696 669.085 42.696C669.181 42.888 669.181 43.464 669.085 43.56C669.085 43.656 668.605 44.04 668.509 44.136C668.509 44.136 668.509 44.328 668.509 44.424C668.605 44.712 668.797 45.384 668.797 45.48C668.893 45.48 669.373 45.96 669.373 46.056C669.373 46.152 668.989 46.824 668.797 46.824H669.373C669.469 47.112 669.277 47.304 669.085 47.4ZM638.557 47.112C638.461 47.304 638.077 47.688 637.981 47.688C638.557 47.88 638.749 47.88 639.037 47.4C639.037 47.4 639.229 46.92 639.325 46.824C639.325 46.824 639.805 46.344 639.901 46.344C639.997 46.152 640.573 44.808 640.765 44.712C640.861 44.52 641.629 44.328 641.725 44.424V43.848C640.765 43.272 640.189 45.192 639.613 45.48C639.613 45.384 639.613 45.288 639.613 45.288C639.421 45.192 638.845 45 638.749 45C638.173 45 638.749 45.96 638.749 46.056C638.749 46.056 638.557 46.248 638.557 46.344V47.112ZM642.589 47.688C642.685 47.592 642.301 47.592 642.301 47.688C642.397 47.88 642.589 47.88 642.589 47.688ZM672.925 46.536C672.733 46.536 672.733 47.112 672.925 47.112C673.117 47.112 673.117 46.536 672.925 46.536ZM672.733 46.344C672.445 46.344 672.445 46.824 672.733 46.824C672.925 46.824 672.925 46.344 672.733 46.344ZM643.165 45.288C642.973 45.096 642.973 46.44 643.165 46.344C643.357 46.152 643.357 45.288 643.165 45.288ZM668.509 45.768C668.221 45.768 668.221 46.344 668.509 46.344C668.797 46.344 668.797 45.768 668.509 45.768ZM642.589 44.424C642.301 44.424 642.301 45 642.589 45C642.877 45 642.877 44.424 642.589 44.424ZM639.901 43.56V44.136C639.901 44.136 640.093 44.136 640.189 44.136C640.189 44.04 640.477 43.656 640.477 43.56H639.901ZM667.357 43.848C667.069 43.848 667.069 44.424 667.357 44.424C667.645 44.424 667.645 43.848 667.357 43.848ZM668.797 43.848C668.509 43.848 668.509 44.424 668.797 44.424C669.085 44.424 669.085 43.848 668.797 43.848ZM670.141 43.848C669.853 43.848 669.853 44.424 670.141 44.424C670.429 44.424 670.429 43.848 670.141 43.848ZM672.925 43.56C673.117 43.56 673.117 44.136 672.925 44.136C672.733 44.136 672.733 43.56 672.925 43.56ZM668.797 42.984C668.509 42.984 668.509 43.56 668.797 43.56C669.085 43.56 669.085 42.984 668.797 42.984ZM643.165 42.408C643.261 42.504 643.453 42.888 643.453 42.984C644.125 42.984 643.549 41.832 643.165 42.216V42.408ZM670.141 42.216V42.408H669.853L670.141 42.216ZM672.925 41.928C673.117 41.928 673.117 42.408 672.925 42.408C672.733 42.408 672.733 41.928 672.925 41.928ZM669.085 40.008C669.181 40.104 668.989 40.296 668.797 40.2C668.605 40.2 668.989 39.816 669.085 40.008ZM671.005 39.72C671.197 39.72 671.197 39.912 671.005 40.008C670.813 40.008 670.813 39.624 671.005 39.72ZM672.445 38.664C672.253 38.088 671.389 38.184 671.869 37.512C672.541 37.608 673.117 37.032 673.693 37.224C673.789 37.704 673.597 38.472 673.405 38.952C673.021 38.664 672.637 39.048 672.733 39.432C672.637 39.24 672.445 38.76 672.445 38.664ZM663.517 37.512C663.613 37.704 663.805 37.896 664.093 37.8C663.997 37.608 663.709 37.416 663.517 37.512ZM667.645 37.512C667.357 37.512 667.357 38.088 667.645 38.088C667.933 38.088 667.933 37.512 667.645 37.512ZM671.005 36.072C671.197 36.168 671.197 36.552 671.005 36.648C670.813 36.744 670.813 35.976 671.005 36.072ZM666.397 36.072C666.397 36.264 666.205 36.456 666.109 36.36C665.917 36.264 666.301 35.976 666.397 36.072ZM670.141 36.072V36.36H669.853L670.141 36.072ZM672.445 36.072H672.925C672.829 36.264 672.637 36.456 672.445 36.36V36.072ZM662.461 35.592L662.173 36.072C662.461 36.168 662.653 35.976 662.749 35.88L662.461 35.592ZM671.869 35.88C672.157 35.88 672.157 36.36 671.869 36.36C671.581 36.36 671.581 35.88 671.869 35.88ZM661.309 35.016V35.304H661.885V35.016H661.309ZM665.245 35.016C665.245 35.016 665.245 34.824 665.245 34.728H665.533V35.304C665.437 35.304 665.245 35.112 665.245 35.016ZM667.069 35.016C667.357 35.016 667.357 35.592 667.069 35.592C666.781 35.592 666.781 35.016 667.069 35.016ZM668.797 35.016C669.085 35.016 669.085 35.592 668.797 35.592C668.509 35.592 668.509 35.016 668.797 35.016ZM664.381 34.44C664.573 34.536 664.573 34.92 664.381 35.016C664.189 35.112 664.189 34.44 664.381 34.44ZM674.845 34.44C674.845 34.632 674.653 34.632 674.557 34.44C674.557 34.344 674.941 34.344 674.845 34.44ZM666.589 33.672C666.781 33.672 666.781 34.152 666.589 34.152C666.397 34.152 666.397 33.672 666.589 33.672ZM654.685 30.6C655.069 30.696 656.989 30.888 657.469 30.888H662.173C662.557 30.792 663.037 30.504 663.037 30.024V23.976C663.037 23.976 662.461 23.4 662.173 23.208C661.885 23.016 661.021 22.728 660.733 22.632C660.349 22.536 658.909 22.056 658.909 22.056H656.125C655.453 22.152 653.437 23.688 653.149 24.264C651.709 26.376 651.805 29.928 654.685 30.6ZM666.781 30.312C667.069 30.312 667.069 30.888 666.781 30.888C666.589 30.888 666.589 30.312 666.781 30.312ZM668.509 28.104C668.797 28.104 668.797 28.68 668.509 28.68C668.221 28.68 668.221 28.104 668.509 28.104ZM666.589 26.76C666.589 26.76 666.397 26.952 666.397 27.048C666.589 27.144 666.781 26.952 666.781 26.76C666.781 26.664 666.589 26.664 666.589 26.76ZM677.341 26.76C677.245 26.76 677.053 26.952 677.053 27.048C677.341 27.144 677.821 27.048 677.917 26.76C677.821 26.664 677.437 26.664 677.341 26.76ZM675.901 26.76C675.901 26.856 675.805 26.856 675.709 26.76C675.709 26.664 675.901 26.664 675.901 26.76ZM666.397 25.704C666.205 25.608 666.205 25.992 666.397 25.992C666.493 25.896 666.493 25.704 666.397 25.704ZM669.373 25.704C669.661 25.704 669.661 26.28 669.373 26.28C669.085 26.28 669.085 25.704 669.373 25.704ZM668.221 24.264V23.976C668.317 23.976 668.509 23.976 668.509 23.976C668.605 23.976 668.797 24.264 668.797 24.264C668.893 24.264 669.277 24.072 669.373 23.976C669.085 24.36 668.605 24.936 668.221 24.264ZM672.925 23.976C673.117 23.976 673.117 24.552 672.925 24.552C672.733 24.552 672.733 23.976 672.925 23.976ZM673.981 23.688C674.269 23.688 674.269 24.264 673.981 24.264C673.693 24.264 673.693 23.688 673.981 23.688ZM679.261 23.208L678.973 23.688H679.261V23.208ZM671.005 23.208C671.293 23.208 671.293 23.688 671.005 23.688C670.717 23.688 670.717 23.208 671.005 23.208ZM648.061 22.92C647.869 22.92 647.869 23.496 648.061 23.496C648.349 23.496 648.349 22.92 648.061 22.92ZM648.349 22.056V22.632L648.925 22.344L648.349 22.056ZM679.261 22.344C679.261 22.44 679.453 22.632 679.453 22.632L679.741 22.344L679.261 22.056C679.165 22.152 679.165 22.344 679.261 22.344ZM669.853 21.768H670.141V22.056L669.853 21.768ZM647.677 21.192C647.677 21.288 647.869 21.768 647.869 21.768C648.157 22.056 648.253 21.288 648.637 21.48C649.117 20.52 647.965 20.52 647.677 19.944C647.197 20.52 646.621 20.328 646.525 21C646.717 20.904 647.485 21.096 647.677 21.192ZM679.741 21C679.453 21 679.453 21.48 679.741 21.48C680.029 21.48 680.029 21 679.741 21ZM677.053 20.712C677.341 20.712 677.341 21.192 677.053 21.192C676.765 21.192 676.765 20.712 677.053 20.712ZM639.901 20.52C639.709 20.424 639.709 20.712 639.901 20.712C640.093 20.616 640.093 20.52 639.901 20.52ZM645.373 20.52C645.085 20.52 645.085 21 645.373 21C645.661 21 645.661 20.52 645.373 20.52ZM650.365 20.52C650.461 20.52 650.653 20.616 650.653 20.712C650.845 20.616 651.325 20.136 651.421 19.944C651.421 19.848 651.229 19.464 651.133 19.368C651.037 19.272 650.077 19.272 650.365 18.792C650.461 18.696 650.653 18.504 650.653 18.504C650.749 18.504 651.037 18.792 651.133 18.792C651.229 18.792 651.901 18.216 651.997 18.216C652.093 18.216 652.477 18.792 652.573 18.792H653.437C653.533 18.792 653.917 18.984 654.013 19.08C653.437 18.216 654.493 17.544 654.973 17.352C655.837 17.64 654.877 18.6 654.973 19.08H655.549C655.645 18.984 655.837 18.504 655.837 18.504C656.701 17.544 657.565 16.68 658.909 16.584C659.197 15.912 657.085 14.664 658.621 14.376C658.717 14.28 659.389 14.376 659.485 14.376C659.677 14.28 660.349 13.512 660.445 13.32L660.061 13.032L660.349 12.744L659.485 11.88C658.717 11.88 659.773 12.648 659.197 13.032C659.101 13.032 658.909 13.032 658.909 13.032L657.469 11.112V10.824H656.413C656.413 10.824 656.221 11.112 656.125 11.112C656.125 11.112 655.933 11.112 655.837 11.112C655.741 11.016 655.549 10.632 655.549 10.536C654.973 10.728 654.397 11.208 654.013 11.592C653.725 11.784 653.149 12.168 653.149 12.168C653.053 12.264 653.245 12.744 653.437 12.744C652.957 13.224 652.093 14.952 651.709 15.144C651.709 15.24 651.421 15.144 651.421 15.144C651.325 15.24 650.749 16.008 650.653 16.008C650.461 16.104 649.405 16.104 649.213 16.008C649.405 16.968 650.365 16.776 650.941 17.16C651.229 17.352 649.885 18.216 649.501 17.928C649.501 17.832 649.309 17.256 649.213 17.16C649.117 17.064 648.733 17.064 648.637 17.16C649.501 18.216 648.157 18.504 648.349 19.08C648.445 19.272 648.925 19.848 648.925 19.944C649.021 19.944 649.693 20.136 649.789 20.232C649.885 20.232 650.269 20.424 650.365 20.52ZM643.453 20.232C643.165 20.232 643.165 20.712 643.453 20.712C643.741 20.712 643.741 20.232 643.453 20.232ZM672.157 20.232C672.253 20.232 672.253 20.424 672.157 20.52C671.965 20.52 671.965 20.136 672.157 20.232ZM680.893 20.232L681.181 20.52L681.469 20.232H680.893ZM640.189 19.656L640.477 20.232C640.669 20.136 640.861 19.848 640.765 19.656H640.189ZM678.973 19.368C679.261 19.368 679.261 19.944 678.973 19.944C678.781 19.944 678.781 19.368 678.973 19.368ZM644.797 19.08C644.605 19.08 644.605 19.656 644.797 19.656C645.085 19.656 645.085 19.08 644.797 19.08ZM645.373 19.08C645.085 19.08 645.085 19.656 645.373 19.656C645.661 19.656 645.661 19.08 645.373 19.08ZM647.101 18.504C646.909 18.6 646.333 19.176 646.237 19.368C646.813 19.464 647.965 19.272 648.061 18.504C647.965 18.408 647.197 18.408 647.101 18.504ZM666.397 18.792C666.397 18.696 666.685 18.504 666.781 18.504C666.781 18.6 666.589 18.984 666.589 19.08H666.397C666.301 18.984 666.301 18.792 666.397 18.792ZM668.221 18.792C668.509 18.792 668.509 19.368 668.221 19.368C667.933 19.368 667.933 18.792 668.221 18.792ZM649.501 18.504C649.789 18.504 649.789 19.08 649.501 19.08C649.213 19.08 649.213 18.504 649.501 18.504ZM662.749 18.216C662.845 18.312 663.037 18.696 663.037 18.792L663.517 18.216C663.229 18.024 662.845 17.544 663.037 17.16C662.365 17.448 661.597 16.872 661.309 16.296L661.597 16.008H664.669C664.765 16.008 665.437 16.296 665.533 16.296C665.533 16.296 665.725 16.296 665.821 16.296C666.013 16.2 666.685 15.336 666.781 15.144C666.781 15.048 666.589 14.472 666.589 14.376C666.589 14.28 666.781 14.184 666.781 14.184C666.877 13.992 667.069 13.416 667.069 13.32C667.069 13.224 666.781 13.032 666.781 13.032C666.781 12.36 667.357 11.784 667.933 11.592C667.933 11.4 667.261 11.112 667.069 11.112C666.973 11.112 666.589 11.4 666.589 11.592V12.744C666.301 13.608 664.765 13.704 664.093 13.608C664.093 13.512 664.285 13.128 664.381 13.032C664.381 12.936 664.669 12.744 664.669 12.744C664.861 12.072 664.189 11.496 664.381 10.824C664.285 10.824 664.093 10.824 664.093 10.824C664.093 10.824 663.901 11.208 663.805 11.304C663.805 11.4 663.613 12.072 663.517 12.168C663.133 12.552 662.749 11.88 662.749 11.592C662.365 11.976 662.365 12.84 662.461 13.32H662.749C662.845 13.32 663.037 14.088 663.037 14.376V15.144C662.749 15.24 661.405 14.76 661.309 14.856L660.733 16.008V17.16H661.309C661.309 17.16 660.541 17.64 660.733 17.928C661.309 17.832 662.461 18.12 662.749 18.216ZM670.429 18.216L671.005 18.504L670.141 18.792L670.429 18.216ZM644.317 17.928C644.221 18.024 644.029 18.408 644.029 18.504H645.085C644.797 18.312 644.701 17.928 644.605 17.64C644.509 17.64 644.317 17.832 644.317 17.928ZM658.621 18.216V18.504L658.909 18.216H658.621ZM660.445 18.216C660.349 18.216 660.349 18.792 660.445 18.792C660.733 18.792 660.733 18.216 660.445 18.216ZM660.349 17.928C660.061 17.928 660.061 18.504 660.349 18.504C660.445 18.504 660.445 17.928 660.349 17.928ZM641.725 17.64C641.533 17.64 641.533 18.216 641.725 18.216C642.013 18.216 642.013 17.64 641.725 17.64ZM675.133 17.64C675.421 17.64 675.421 18.216 675.133 18.216C674.845 18.216 674.845 17.64 675.133 17.64ZM643.165 17.352C642.877 17.352 642.877 17.928 643.165 17.928C643.453 17.928 643.453 17.352 643.165 17.352ZM651.997 17.352C651.709 16.968 652.669 16.776 652.861 16.584C652.957 16.392 653.149 15.528 653.725 15.72C653.053 16.104 653.341 17.064 652.285 17.64C652.189 17.64 651.997 17.448 651.997 17.352ZM678.493 17.64C678.397 17.832 678.205 17.832 678.205 17.64C678.109 17.448 678.493 17.448 678.493 17.64ZM680.317 16.872C680.989 16.584 681.757 17.064 681.469 17.64H680.317V16.872ZM641.725 17.16C641.533 17.16 641.533 17.64 641.725 17.64C642.013 17.64 642.013 17.16 641.725 17.16ZM663.805 17.16C663.613 17.16 663.613 17.448 663.805 17.352C663.997 17.352 663.997 17.256 663.805 17.16ZM673.981 17.16C673.693 17.16 673.693 17.64 673.981 17.64C674.269 17.64 674.269 17.16 673.981 17.16ZM644.797 16.872L644.605 17.16H645.085L644.797 16.872ZM646.525 16.872C646.717 17.544 648.157 17.064 648.349 16.296C648.445 16.104 648.637 14.856 648.637 14.664H648.061V15.432C648.061 15.528 647.965 15.528 647.869 15.432C647.869 15.336 647.677 14.76 647.677 14.664C646.909 14.952 645.853 14.664 645.373 15.432C645.373 15.528 645.565 15.72 645.661 15.72C645.757 15.816 646.429 16.008 646.525 16.008C646.525 16.104 646.429 16.776 646.525 16.872ZM655.549 16.872C655.357 16.488 656.029 16.104 656.125 16.008C656.221 16.2 656.317 17.064 655.837 17.16C655.837 17.16 655.645 16.968 655.549 16.872ZM678.205 16.584C678.493 16.488 678.877 16.776 678.973 16.872L678.781 17.16L678.205 16.584ZM651.421 16.584C651.613 16.68 651.613 16.872 651.421 16.872C651.229 16.968 651.229 16.584 651.421 16.584ZM664.381 16.584C664.189 16.584 664.189 16.968 664.381 16.872C664.573 16.872 664.573 16.68 664.381 16.584ZM671.005 16.584C671.293 16.584 671.293 17.16 671.005 17.16C670.717 17.16 670.717 16.584 671.005 16.584ZM676.765 16.584C676.669 16.488 676.285 16.776 676.477 16.872C676.669 16.968 676.861 16.776 676.765 16.584ZM681.757 16.296H682.045L681.757 16.872V16.296ZM683.101 16.584C682.813 16.584 682.813 17.16 683.101 17.16C683.389 17.16 683.389 16.584 683.101 16.584ZM657.277 16.584C657.277 16.776 656.989 16.776 656.989 16.584C656.989 16.392 657.277 16.392 657.277 16.584ZM670.141 16.008C670.429 16.008 670.429 16.584 670.141 16.584C669.853 16.584 669.853 16.008 670.141 16.008ZM683.389 16.008C683.197 16.008 683.197 16.392 683.389 16.296C683.581 16.296 683.581 16.104 683.389 16.008ZM680.893 15.72C680.893 15.72 680.893 15.528 680.893 15.432H681.469V16.008C681.373 16.008 680.989 15.816 680.893 15.72ZM647.101 15.144H647.389L647.101 15.72V15.144ZM648.925 14.856V15.72C649.405 15.528 649.405 15.144 648.925 14.856ZM656.989 15.432H657.469V15.72H656.701C656.701 15.72 656.893 15.528 656.989 15.432ZM659.485 14.856L660.349 15.72C660.445 15.144 661.021 14.472 661.309 14.184C660.733 13.992 659.869 14.76 659.485 14.856ZM653.437 15.144C653.341 15.336 653.053 15.624 652.861 15.432L653.437 15.144ZM655.261 15.432C655.261 15.624 655.069 15.624 654.973 15.432C654.973 15.336 655.357 15.336 655.261 15.432ZM656.125 14.856C656.125 14.856 655.645 14.664 655.549 14.664C655.549 14.568 655.549 14.184 655.549 14.184C656.605 14.76 656.605 13.896 657.469 13.608C657.661 13.896 656.509 14.664 656.413 15.432C656.413 15.336 656.221 14.952 656.125 14.856ZM650.365 14.664C650.365 14.664 650.557 14.856 650.653 14.856C651.997 15.336 651.133 13.896 651.133 13.608C651.133 13.512 651.421 13.32 651.421 13.32C651.421 13.224 651.421 13.032 651.421 13.032H650.653C650.749 12.264 653.149 11.496 652.573 10.824C652.381 10.728 651.805 10.728 651.709 10.824C651.133 11.112 651.709 11.592 651.133 11.88C651.133 11.88 650.461 11.4 650.653 11.112H650.365L649.789 12.168C649.789 12.264 649.597 12.264 649.501 12.168L648.925 11.304C648.157 10.824 647.485 11.976 647.677 12.744C647.869 12.84 648.253 12.552 648.349 12.456L648.637 13.032C649.021 12.648 649.597 12.648 650.077 12.744L649.501 13.32C649.501 13.32 649.501 13.512 649.501 13.608C649.597 13.608 650.365 13.8 650.365 13.896C650.461 13.896 650.365 14.568 650.365 14.664ZM649.789 14.376C649.501 14.376 649.501 14.856 649.789 14.856C650.077 14.856 650.077 14.376 649.789 14.376ZM654.397 14.376C654.685 14.376 654.685 14.856 654.397 14.856C654.109 14.856 654.109 14.376 654.397 14.376ZM663.517 14.376C663.709 14.376 663.709 14.568 663.517 14.664C663.421 14.664 663.421 14.28 663.517 14.376ZM654.973 14.184C655.261 14.184 655.261 14.664 654.973 14.664C654.685 14.664 654.685 14.184 654.973 14.184ZM657.469 14.184C657.757 14.184 657.757 14.664 657.469 14.664C657.277 14.664 657.277 14.184 657.469 14.184ZM661.885 14.184C661.981 14.28 662.269 14.472 662.461 14.376C662.365 14.28 662.173 13.992 661.885 14.184ZM681.469 13.896C681.757 13.896 681.757 14.376 681.469 14.376C681.181 14.376 681.181 13.896 681.469 13.896ZM644.797 13.608C644.605 13.608 644.605 14.184 644.797 14.184C645.085 14.184 645.085 13.608 644.797 13.608ZM658.621 13.608C658.909 13.608 658.909 14.184 658.621 14.184C658.333 14.184 658.333 13.608 658.621 13.608ZM647.677 13.32C647.389 13.32 647.389 13.896 647.677 13.896C647.869 13.896 647.869 13.32 647.677 13.32ZM653.437 13.32H653.725V13.608L653.437 13.32ZM656.701 13.32C656.893 13.32 656.893 13.512 656.701 13.608C656.509 13.608 656.509 13.224 656.701 13.32ZM647.389 13.32C647.389 13.128 647.005 13.128 647.101 13.32C647.101 13.512 647.293 13.512 647.389 13.32ZM654.685 12.456C654.781 12.072 655.357 12.072 655.549 12.168C655.741 12.552 655.069 13.608 654.685 13.32V12.456ZM673.693 13.032C673.789 12.936 673.981 12.744 673.981 12.744L674.269 13.032C674.173 13.224 673.981 13.416 673.693 13.32C673.693 13.224 673.693 13.032 673.693 13.032ZM646.525 12.744C646.237 12.744 646.237 13.32 646.525 13.32C646.813 13.32 646.813 12.744 646.525 12.744ZM660.733 12.456L661.309 13.032C661.501 13.032 661.885 12.84 661.885 12.744C661.789 12.264 661.021 12.36 660.733 12.456ZM671.581 12.744C671.869 12.744 671.869 13.32 671.581 13.32C671.293 13.32 671.293 12.744 671.581 12.744ZM676.189 12.456C676.477 12.456 676.477 13.032 676.189 13.032C675.901 13.032 675.901 12.456 676.189 12.456ZM680.317 12.456C680.029 12.456 680.029 13.032 680.317 13.032C680.605 13.032 680.605 12.456 680.317 12.456ZM656.413 12.168L656.701 12.456H656.413V12.168ZM672.445 11.88L672.733 12.168C672.541 12.264 672.157 12.552 671.869 12.456L672.445 11.88ZM675.901 12.168C676.189 12.168 676.189 12.744 675.901 12.744C675.709 12.744 675.709 12.168 675.901 12.168ZM660.733 11.592C660.637 11.592 660.637 11.88 660.733 11.88C660.925 11.88 660.925 11.592 660.733 11.592ZM665.245 11.592V11.88H665.821V11.592H665.245ZM674.557 11.304C674.845 11.304 674.845 11.88 674.557 11.88C674.269 11.88 674.269 11.304 674.557 11.304ZM661.885 11.112V11.304C662.173 11.4 662.365 11.208 662.461 11.112H661.885ZM672.925 11.112C672.829 11.208 672.733 11.208 672.733 11.112C672.637 10.92 672.925 10.92 672.925 11.112ZM658.333 10.536C658.333 10.344 657.949 10.344 658.045 10.536C658.045 10.728 658.237 10.728 658.333 10.536ZM668.509 10.248C668.221 10.248 668.221 10.824 668.509 10.824C668.797 10.824 668.797 10.248 668.509 10.248ZM671.005 9.96V10.536H671.581C671.677 10.248 671.293 9.86399 671.005 9.96ZM655.261 9.96C654.973 9.96 654.973 10.536 655.261 10.536C655.549 10.536 655.549 9.96 655.261 9.96ZM667.933 9.96C667.933 10.056 667.741 10.248 667.645 10.248H668.221V9.96C668.221 9.96 668.029 9.96 667.933 9.96Z" fill="white"/>
</svg>
