<svg width="450" height="72" viewBox="0 0 450 72" fill="none" xmlns="http://www.w3.org/2000/svg">
<path d="M7.01862 68.96C6.44262 68.864 5.96262 68.192 5.57862 67.904C5.48262 67.04 5.48262 62.912 5.57862 62.048C5.57862 61.952 6.25062 58.88 6.44262 57.728C6.73062 56.288 7.97862 55.52 9.51462 55.52H18.2506C19.1146 55.52 19.8826 55.136 20.1706 54.368V44.768C20.1706 44.288 20.3626 42.176 20.4586 41.696V24.416C20.4586 23.648 20.2666 20.192 20.1706 19.424C19.6906 17.984 18.2506 18.272 16.9066 18.368C16.0426 18.464 15.1786 18.56 14.6986 19.424C13.7386 22.496 12.6826 25.664 11.9146 28.736C11.9146 29.024 11.4346 31.232 11.3386 31.52C11.3386 31.712 11.1466 32.48 11.0506 32.672C11.0506 32.864 10.8586 33.44 10.8586 33.536C10.6666 33.824 9.89862 34.496 9.80262 34.592H7.59462L2.89062 33.824C2.02662 33.632 1.16262 32.96 0.97062 32.096C0.87462 31.136 0.87462 26.72 0.97062 25.76L1.73862 15.584C1.73862 15.008 1.93062 9.632 2.02662 9.056C2.02662 8.576 2.21862 6.368 2.31462 5.984C2.41062 4.928 2.60262 3.872 3.75462 3.392H7.01862C7.40262 3.488 10.2826 3.68 10.5706 3.68C11.1466 3.776 16.5226 3.96799 17.0986 3.96799C20.3626 4.256 23.5306 5.024 26.7946 5.12C27.6586 5.216 31.4986 5.216 32.3626 5.12C32.5546 5.12 34.2826 4.832 34.5706 4.832L49.0666 4.256H54.5386C55.8826 4.44799 56.7466 5.984 56.7466 7.04V27.488C57.1306 29.216 57.3226 31.04 57.1306 32.96C56.0746 34.4 54.3466 34.016 52.7146 34.304C52.3306 34.304 49.1626 34.784 48.7786 34.784C47.7226 34.976 46.5706 34.4 46.3786 33.248L43.5946 22.4C43.4026 21.632 42.9226 20.384 41.9626 20.288H39.1786C38.4106 20.288 36.4906 20.48 36.3946 20.576L35.6266 21.44C35.5306 21.536 35.3386 25.568 35.4346 27.2C35.4346 27.872 36.1066 34.304 36.1066 35.072C36.2986 36.8 36.6826 44.48 36.6826 46.208C36.9706 47.072 37.8346 47.552 38.6986 47.744C40.3306 48.224 48.0106 50.144 49.6426 50.528C50.0266 50.816 50.6986 51.392 50.7946 51.968C51.1786 56.672 51.1786 61.856 51.0826 66.464C50.8906 67.616 50.4106 68.864 49.0666 68.96C46.1866 69.056 32.5546 69.248 29.4826 69.248H11.0506C10.5706 69.248 7.69062 69.056 7.01862 68.96ZM27.6586 63.2L27.3706 63.488H27.6586V63.2ZM29.2906 63.488C29.3866 63.296 29.0026 63.296 29.0986 63.488C29.0986 63.68 29.2906 63.68 29.2906 63.488ZM31.2106 62.336C31.2106 62.432 30.9226 63.104 30.9226 63.2C31.4026 63.008 32.2666 62.624 31.4986 62.048L31.2106 62.336ZM25.4506 62.336C25.1626 62.336 25.1626 62.912 25.4506 62.912C25.7386 62.912 25.7386 62.336 25.4506 62.336ZM29.4826 62.336C29.5786 62.336 30.2506 62.624 30.3466 62.624C30.5386 62.528 31.2106 61.952 31.2106 61.856C31.0186 61.952 30.2506 61.952 30.0586 61.568C30.2506 61.472 30.8266 60.896 30.9226 60.704C31.0186 60.704 31.0186 60.512 30.9226 60.416H28.8106V60.992H29.2906V62.336C29.3866 62.336 29.4826 62.336 29.4826 62.336ZM27.3706 62.048C27.0826 62.048 27.0826 62.624 27.3706 62.624C27.6586 62.624 27.6586 62.048 27.3706 62.048ZM34.8586 62.048C34.5706 62.048 34.5706 62.624 34.8586 62.624C35.1466 62.624 35.1466 62.048 34.8586 62.048ZM20.4586 61.856C20.7466 62.336 21.6106 61.856 21.3226 61.568H20.4586C20.4586 61.664 20.4586 61.856 20.4586 61.856ZM26.0266 61.856C26.0266 61.952 26.0266 62.048 26.0266 62.048C26.4106 62.432 26.8906 61.28 26.3146 61.28C26.2186 61.376 26.0266 61.76 26.0266 61.856ZM27.9466 61.856V62.048H28.2346V61.856H27.9466ZM36.1066 61.856C36.1066 61.856 36.9706 62.432 36.9706 61.856C36.7786 61.76 36.0106 60.896 35.8186 60.704V60.128C35.8186 60.128 35.7226 60.128 35.6266 60.128C34.8586 60.608 35.8186 61.568 36.1066 61.856ZM23.2426 61.28C22.9546 61.28 22.9546 61.856 23.2426 61.856C23.4346 61.856 23.4346 61.28 23.2426 61.28ZM37.8346 61.28C37.9306 61.472 38.2186 61.664 38.4106 61.568C38.6986 60.992 38.8906 59.84 37.8346 60.128V61.28ZM22.1866 60.992C22.2826 61.376 22.6666 61.376 22.9546 61.28C22.7626 61.088 22.5706 60.8 22.4746 60.416C22.2826 60.512 21.9946 60.8 22.1866 60.992ZM23.7226 60.704C23.8186 60.8 24.0106 60.992 24.0106 60.992L25.7386 60.416C26.0266 60.32 24.6826 59.456 24.5866 59.36C24.3946 59.552 23.5306 60.224 23.7226 60.704ZM27.0826 60.704C27.1786 60.896 27.3706 61.184 27.6586 60.992V59.36C26.5066 58.976 26.7946 60.224 27.0826 60.704ZM31.4986 60.416C31.6906 61.568 32.5546 60.896 32.3626 60.416H31.4986ZM38.1226 60.704C38.3146 60.8 38.3146 60.992 38.1226 60.992C37.9306 61.088 37.9306 60.704 38.1226 60.704ZM39.7546 60.128C39.4666 60.128 39.4666 60.704 39.7546 60.704C40.0426 60.704 40.0426 60.128 39.7546 60.128ZM33.1306 59.84C33.1306 59.936 33.6106 60.128 33.7066 60.128C33.8026 60.224 34.3786 60.224 34.5706 60.128C33.8986 60.128 34.6666 59.36 34.5706 59.072C34.1866 58.88 33.7066 59.552 33.7066 59.648C33.0346 59.264 33.6106 59.072 33.7066 58.88C33.7066 58.784 33.5146 58.016 33.9946 58.016C33.9946 58.016 34.4746 58.304 34.5706 58.304C34.6666 58.304 35.7226 58.496 35.8186 58.592C36.9706 58.88 35.9146 59.648 36.9706 60.128L37.2586 59.84V58.016C37.1626 58.016 36.5866 57.824 36.3946 57.728C36.3946 57.632 36.3946 57.44 36.3946 57.44H37.5466C37.8346 56.768 36.6826 56.672 36.3946 56.864C36.2026 56.96 35.7226 57.824 35.6266 58.016H35.4346C35.2426 57.824 34.3786 57.056 34.2826 56.864C34.2826 56.768 34.6666 56.576 34.8586 56.576C34.8586 56.576 35.0506 56.864 35.1466 56.864C35.8186 56.864 36.2986 56.192 36.1066 55.52C35.4346 55.424 33.8026 55.904 33.4186 56.576C34.4746 56.96 32.8426 59.264 32.3626 58.304V59.648C32.4586 59.648 33.0346 59.84 33.1306 59.84ZM39.1786 59.648V60.128H39.4666V59.36C39.3706 59.36 39.1786 59.552 39.1786 59.648ZM24.5866 59.648C24.8746 59.648 24.8746 60.128 24.5866 60.128C24.2986 60.128 24.2986 59.648 24.5866 59.648ZM29.2906 59.36C29.3866 59.36 29.7706 60.128 30.0586 59.84C30.3466 59.744 30.9226 58.976 30.9226 58.88C30.9226 58.688 30.4426 57.824 30.3466 57.728V57.152C30.2506 57.248 29.8666 57.44 29.7706 57.44C29.7706 57.44 29.5786 57.44 29.4826 57.44C29.0026 58.112 28.9066 58.592 29.2906 59.36ZM24.2986 59.072C24.3946 58.88 24.0106 58.88 24.0106 59.072C24.1066 59.168 24.2986 59.168 24.2986 59.072ZM25.7386 58.592C25.4506 58.592 25.4506 59.072 25.7386 59.072C26.0266 59.072 26.0266 58.592 25.7386 58.592ZM41.1946 58.592C40.9066 58.592 40.9066 59.072 41.1946 59.072C41.4826 59.072 41.4826 58.592 41.1946 58.592ZM23.4346 58.304C23.2426 58.304 23.2426 58.88 23.4346 58.88C23.7226 58.88 23.7226 58.304 23.4346 58.304ZM27.6586 57.44C27.6586 57.44 27.8506 57.728 27.9466 57.728C28.3306 57.152 30.0586 56.576 29.7706 56C29.3866 56.288 27.2746 56.768 27.6586 57.44ZM30.6346 57.44C30.6346 57.536 30.8266 57.728 30.9226 57.728H32.3626C32.5546 57.248 31.9786 56.288 31.4986 56.576C31.4026 56.48 31.4026 56.096 31.4986 56C32.0746 55.52 33.1306 56.096 33.1306 54.656C32.0746 54.944 31.8826 54.272 32.0746 53.312C31.8826 53.216 31.1146 53.216 30.9226 53.312C30.5386 53.504 29.9626 54.272 30.0586 54.368L30.3466 54.656L30.6346 54.08C30.7306 54.176 30.9226 54.56 30.9226 54.656C30.9226 54.752 30.6346 55.232 30.6346 55.232V57.44ZM37.8346 56.576C37.8346 56.768 38.1226 57.536 38.1226 57.728H38.6986C39.4666 57.152 38.1226 56.672 37.8346 56.288C37.8346 56.384 37.8346 56.576 37.8346 56.576ZM25.1626 57.152C24.9706 57.056 24.9706 57.44 25.1626 57.44C25.3546 57.344 25.3546 57.152 25.1626 57.152ZM35.8186 56.864C35.6266 56.864 35.6266 57.44 35.8186 57.44C36.1066 57.44 36.1066 56.864 35.8186 56.864ZM27.3706 56.576C27.0826 56.576 27.0826 57.152 27.3706 57.152C27.6586 57.152 27.6586 56.576 27.3706 56.576ZM39.4666 56.576C39.1786 56.576 39.1786 57.152 39.4666 57.152C39.7546 57.152 39.7546 56.576 39.4666 56.576ZM35.1466 55.808C35.4346 55.808 35.4346 56.288 35.1466 56.288C34.8586 56.288 34.8586 55.808 35.1466 55.808ZM27.0826 55.52C26.7946 55.52 26.7946 56 27.0826 56C27.3706 56 27.3706 55.52 27.0826 55.52ZM27.6586 55.232V55.808L28.8106 55.52C28.9066 55.52 28.9066 55.136 28.8106 54.944C28.2346 54.272 27.7546 54.752 27.6586 53.792C27.0826 54.272 27.5626 54.752 27.6586 55.232ZM31.2106 55.52C31.4986 55.52 31.4986 56 31.2106 56C30.9226 56 30.9226 55.52 31.2106 55.52ZM30.9226 55.232C31.2106 55.232 31.2106 55.808 30.9226 55.808C30.6346 55.808 30.6346 55.232 30.9226 55.232ZM33.7066 55.232C33.7066 55.328 33.7066 55.52 33.7066 55.52C34.1866 55.808 34.4746 54.944 33.9946 54.656C33.8986 54.752 33.7066 55.136 33.7066 55.232ZM38.4106 55.232C38.5066 55.424 38.6986 55.616 38.8906 55.52C38.8906 55.424 38.7946 55.04 38.6986 54.944H38.4106C38.4106 55.04 38.4106 55.232 38.4106 55.232ZM29.4826 54.944C29.2906 54.944 29.2906 55.52 29.4826 55.52C29.7706 55.52 29.7706 54.944 29.4826 54.944ZM31.4986 54.944C31.7866 54.944 31.7866 55.52 31.4986 55.52C31.2106 55.52 31.2106 54.944 31.4986 54.944ZM31.2106 54.656C31.4986 54.656 31.4986 55.232 31.2106 55.232C30.9226 55.232 30.9226 54.656 31.2106 54.656ZM35.8186 53.792C35.9146 54.08 36.1066 54.656 36.1066 54.656C36.2026 54.752 36.3946 54.752 36.3946 54.656L37.2586 53.6C36.2026 54.272 36.3946 53.312 35.8186 53.6V53.792ZM34.2826 53.6C33.9946 53.6 33.9946 54.08 34.2826 54.08C34.5706 54.08 34.5706 53.6 34.2826 53.6ZM30.0586 52.544V53.6L30.9226 52.736L30.3466 52.256C30.3466 52.256 30.0586 52.448 30.0586 52.544ZM31.7866 51.968V52.256H32.0746L31.7866 51.968ZM28.2346 51.68C28.1386 51.68 27.9466 51.872 27.9466 51.968H29.0986V51.68C28.9066 51.584 28.3306 51.584 28.2346 51.68ZM30.0586 51.104C29.7706 51.104 29.7706 51.68 30.0586 51.68C30.3466 51.68 30.3466 51.104 30.0586 51.104ZM33.4186 51.392C33.5146 51.2 32.7466 51.2 32.8426 51.392C32.9386 51.584 33.3226 51.584 33.4186 51.392ZM29.7706 51.104C29.8666 50.912 29.4826 50.912 29.4826 51.104C29.5786 51.296 29.7706 51.296 29.7706 51.104ZM31.4986 50.816C31.4026 50.624 31.0186 51.008 31.2106 51.104C31.4026 51.2 31.5946 51.008 31.4986 50.816ZM30.0586 49.184C29.7706 49.184 29.7706 49.664 30.0586 49.664C30.3466 49.664 30.3466 49.184 30.0586 49.184ZM27.3706 15.104C27.2746 14.912 26.8906 15.296 27.0826 15.392C27.2746 15.392 27.4666 15.2 27.3706 15.104ZM43.0186 14.816V15.104H43.8826V14.816H43.0186ZM26.7946 14.528V14.816H27.0826L26.7946 14.528ZM41.1946 14.24V14.528H41.4826L41.1946 14.24ZM38.1226 13.664V14.24C38.6026 14.528 38.8906 14.048 38.8906 13.664H38.1226ZM28.8106 13.664C28.5226 13.664 28.5226 14.24 28.8106 14.24C29.0986 14.24 29.0986 13.664 28.8106 13.664ZM43.8826 13.664C43.9786 13.664 44.3626 13.952 44.4586 13.952H44.7466C44.8426 13.856 45.4186 13.664 45.5146 13.664C45.1306 12.512 45.1306 12.992 44.4586 13.088C43.7866 13.184 43.3066 12.896 42.7306 13.376C42.9226 13.376 43.6906 13.568 43.8826 13.664ZM33.4186 12.8V13.664L34.2826 13.376C34.0906 13.088 33.7066 12.896 33.4186 12.8ZM32.0746 13.088V13.376H32.3626L32.0746 13.088ZM40.0426 13.088C39.7546 13.088 39.7546 13.664 40.0426 13.664C40.3306 13.664 40.3306 13.088 40.0426 13.088ZM40.9066 13.088L40.6186 13.376H40.9066V13.088ZM28.5226 12.8C28.4266 12.608 28.0426 12.992 28.2346 13.088C28.3306 13.184 28.5226 12.992 28.5226 12.8ZM30.6346 12.8C30.7306 12.896 30.9226 13.088 30.9226 13.088L31.2106 12.032C31.1146 12.128 30.4426 12.416 30.6346 12.8ZM42.7306 12.512V12.8H43.0186L42.7306 12.512ZM33.1306 12.32C32.8426 12.32 32.8426 12.8 33.1306 12.8C33.4186 12.8 33.4186 12.32 33.1306 12.32ZM26.0266 11.744V12.032L26.3146 11.744H26.0266ZM38.8906 11.744C38.6986 11.744 38.6986 12.32 38.8906 12.32C39.1786 12.32 39.1786 11.744 38.8906 11.744ZM40.9066 11.168C40.9066 11.36 41.0986 11.936 41.1946 12.032C41.4826 12.32 43.0186 11.072 43.0186 10.592C42.8266 10.592 40.9066 10.88 40.9066 11.168ZM43.5946 10.592V11.456C43.6906 11.264 43.9786 10.88 43.8826 10.592H43.5946ZM47.8186 11.168C47.5306 11.168 47.5306 11.744 47.8186 11.744C48.0106 11.744 48.0106 11.168 47.8186 11.168ZM45.8026 11.168C45.8026 10.976 45.4186 10.976 45.5146 11.168C45.5146 11.36 45.7066 11.36 45.8026 11.168ZM48.0106 10.592C47.8186 10.592 47.8186 11.168 48.0106 11.168C48.2026 11.168 48.2026 10.592 48.0106 10.592ZM40.3306 10.304V10.592H40.9066L40.3306 10.304ZM172.46 68L168.812 55.52H97.2924L93.6444 68H74.2524L94.7004 0.799995H171.404L191.948 68H172.46ZM102.86 36.704H163.436L158.444 19.616H107.852L102.86 36.704ZM212.534 68V0.799995H223.958V39.296L250.358 0.799995H263.606L236.822 39.296H254.774L262.838 68H251.414L246.422 50.144H223.958V68H212.534ZM281.957 44.096C282.277 44.352 282.629 44.608 283.013 44.864C283.461 45.056 283.877 45.248 284.261 45.44C285.413 46.016 286.629 46.528 287.909 46.976C289.189 47.36 290.469 47.712 291.749 48.032C297.317 49.44 303.109 50.208 309.125 50.336C315.205 50.464 321.093 50.304 326.789 49.856C333.957 49.344 340.997 48.16 347.909 46.304C354.885 44.448 361.669 42.08 368.261 39.2C370.309 38.304 372.325 37.376 374.309 36.416C376.357 35.392 378.373 34.336 380.357 33.248C381.061 32.8 381.765 32.352 382.469 31.904C383.237 31.456 383.973 30.976 384.677 30.464C384.741 30.464 384.773 30.496 384.773 30.56L386.789 33.344C386.597 33.6 386.309 33.888 385.925 34.208C385.605 34.464 385.349 34.688 385.157 34.88C384.005 35.84 382.757 36.736 381.413 37.568C380.069 38.4 378.757 39.232 377.477 40.064C376.069 40.96 374.597 41.824 373.061 42.656C371.525 43.424 370.021 44.16 368.549 44.864C366.245 45.952 363.941 46.976 361.637 47.936C359.333 48.896 356.965 49.792 354.533 50.624C348.133 52.864 341.637 54.624 335.045 55.904C328.453 57.184 321.765 57.984 314.981 58.304C312.869 58.432 310.565 58.496 308.069 58.496C305.637 58.496 303.173 58.4 300.677 58.208C298.181 58.016 295.717 57.696 293.285 57.248C290.853 56.8 288.645 56.16 286.661 55.328C285.829 55.008 284.997 54.624 284.165 54.176C283.397 53.728 282.661 53.184 281.957 52.544C281.765 52.352 281.541 52.16 281.285 51.968C281.093 51.712 280.933 51.456 280.805 51.2L276.005 41.792V41.696C276.197 41.248 276.453 40.832 276.773 40.448C277.157 40 277.509 39.584 277.829 39.2C278.789 38.048 279.813 36.96 280.901 35.936C281.989 34.848 283.109 33.824 284.261 32.864C288.933 28.832 294.021 25.28 299.525 22.208C305.093 19.136 310.693 16.448 316.325 14.144C317.669 13.632 318.981 13.152 320.261 12.704C321.605 12.192 322.981 11.712 324.389 11.264C331.301 9.024 338.437 7.328 345.797 6.17599C353.157 5.02399 360.453 4.224 367.685 3.776C370.245 3.584 372.773 3.456 375.269 3.392C377.765 3.328 380.293 3.328 382.853 3.392C383.813 3.392 384.773 3.392 385.733 3.392C386.757 3.392 387.749 3.424 388.709 3.488H388.805L398.693 15.488V15.584L335.333 33.056H335.237L331.301 28.736V28.64L378.629 12.704C378.181 12.64 377.733 12.608 377.285 12.608C376.901 12.608 376.485 12.608 376.037 12.608C374.565 12.544 373.093 12.544 371.621 12.608C370.213 12.608 368.773 12.672 367.301 12.8C361.157 13.184 355.013 13.856 348.869 14.816C342.789 15.712 336.741 16.768 330.725 17.984C324.069 19.264 317.605 21.184 311.333 23.744C305.125 26.304 299.269 29.568 293.765 33.536C292.165 34.624 290.629 35.776 289.157 36.992C287.685 38.208 286.245 39.52 284.837 40.928C284.325 41.44 283.813 41.984 283.301 42.56C282.853 43.072 282.405 43.584 281.957 44.096ZM410.575 52.352L432.655 0.799995L449.071 0.607998V1.568C439.855 1.75999 438.415 1.376 438.415 10.016V62.72C438.415 67.424 442.831 66.848 447.343 67.04V68H423.727V67.04C428.239 66.848 432.655 67.424 432.655 62.72V7.424L405.487 71.744H404.623L404.815 6.08C404.815 1.27999 400.399 1.952 395.887 1.75999V0.799995C404.815 0.799995 410.575 0.799995 419.503 0.799995V1.75999C414.991 1.952 410.575 1.27999 410.575 6.08V52.352Z" fill="white"/>
</svg>
